<svg id="SvgjsSvg1214" width="300" height="400" xmlns="http://www.w3.org/2000/svg" version="1.1" xmlns:xlink="http://www.w3.org/1999/xlink" xmlns:svgjs="http://svgjs.com/svgjs"><defs id="SvgjsDefs1215"></defs><svg id="SvgjsSvg1216" style="overflow: visible;"><path id="SvgjsPath1217" d="M 214.46087864363633 188.10430735726027 L 214.46087864363633 188.10430735726027 31.90554947457737 225.61847237758064" fill="none" stroke="black" stroke-weight="1"></path><path id="SvgjsPath1218" d="M 216.0762512522365 189.5074494828772 L 216.0762512522365 189.5074494828772 28.56144477607181 223.90616334292952" fill="none" stroke="black" stroke-weight="1"></path><path id="SvgjsPath1219" d="M 217.53896504060285 190.98002246143227 L 217.53896504060285 190.98002246143227 25.533370617699433 222.1091251318115" fill="none" stroke="black" stroke-weight="1"></path><path id="SvgjsPath1220" d="M 218.8453639860311 192.51510851724458 L 218.8453639860311 192.51510851724458 22.82889560786549 220.23579977556597" fill="none" stroke="black" stroke-weight="1"></path><path id="SvgjsPath1221" d="M 219.99218277151704 194.1056164563687 L 219.99218277151704 194.1056164563687 20.45477952563138 218.29484093460093" fill="none" stroke="black" stroke-weight="1"></path><path id="SvgjsPath1222" d="M 220.9765549473487 195.7443014247044 L 220.9765549473487 195.7443014247044 18.416956424786946 216.29508978680138" fill="none" stroke="black" stroke-weight="1"></path><path id="SvgjsPath1223" d="M 221.79602009573753 197.4237850596354 L 221.79602009573753 197.4237850596354 16.720519801806518 214.24555043569916" fill="none" stroke="black" stroke-weight="1"></path><path id="SvgjsPath1224" d="M 222.44852998058184 199.13657598355124 L 222.44852998058184 199.13657598355124 15.36970986476041 212.15536490142904" fill="none" stroke="black" stroke-weight="1"></path><path id="SvgjsPath1225" d="M 222.93245366699009 200.87509058674704 L 222.93245366699009 200.87509058674704 14.367902935003002 210.03378775854605" fill="none" stroke="black" stroke-weight="1"></path><path id="SvgjsPath1226" d="M 223.2465815977688 202.63167404646853 L 223.2465815977688 202.63167404646853 13.717603008127753 207.89016048566552" fill="none" stroke="black" stroke-weight="1"></path><path id="SvgjsPath1227" d="M 223.39012861668573 204.39862152827595 L 223.39012861668573 204.39862152827595 13.420435495282192 205.73388559261235" fill="none" stroke="black" stroke-weight="1"></path><path id="SvgjsPath1228" d="M 223.36273593095137 206.16819951544096 L 223.36273593095137 206.16819951544096 13.477143160486605 203.57440059132628" fill="none" stroke="black" stroke-weight="1"></path><path id="SvgjsPath1229" d="M 223.16447200801431 207.9326672117708 L 223.16447200801431 207.9326672117708 13.8875842641107 201.42115187716112" fill="none" stroke="black" stroke-weight="1"></path><path id="SvgjsPath1230" d="M 222.79583240442798 209.6842979630673 L 222.79583240442798 209.6842979630673 14.6507329171491 199.2835685874433" fill="none" stroke="black" stroke-weight="1"></path><path id="SvgjsPath1231" d="M 222.25773852721755 211.41540064238305 L 222.25773852721755 211.41540064238305 15.764681645409269 197.17103650421052" fill="none" stroke="black" stroke-weight="1"></path><path id="SvgjsPath1232" d="M 221.55153533084217 213.11834094432675 L 221.55153533084217 213.11834094432675 17.22664615720393 195.0928720679402" fill="none" stroke="black" stroke-weight="1"></path><path id="SvgjsPath1233" d="M 220.6789879555093 214.78556253389965 L 220.6789879555093 214.78556253389965 19.032972302629844 193.05829656880042" fill="none" stroke="black" stroke-weight="1"></path><path id="SvgjsPath1234" d="M 219.64227731524335 216.40960799570982 L 219.64227731524335 216.40960799570982 21.17914520704008 191.07641058150665" fill="none" stroke="black" stroke-weight="1"></path><path id="SvgjsPath1235" d="M 218.44399464673654 217.98313952991316 L 218.44399464673654 217.98313952991316 23.65980055587869 189.15616870925854" fill="none" stroke="black" stroke-weight="1"></path><path id="SvgjsPath1236" d="M 217.08713503260657 219.49895934186762 L 217.08713503260657 219.49895934186762 26.468738002674115 187.3063547014497" fill="none" stroke="black" stroke-weight="1"></path><path id="SvgjsPath1237" d="M 215.57508991524995 220.95002967325553 L 215.57508991524995 220.95002967325553 29.59893666667557 185.53555700890848" fill="none" stroke="black" stroke-weight="1"></path><path id="SvgjsPath1238" d="M 213.9116386200022 222.32949242333254 L 213.9116386200022 222.32949242333254 33.04257268139894 183.85214483932302" fill="none" stroke="black" stroke-weight="1"></path><path id="SvgjsPath1239" d="M 212.10093890879273 223.63068830999035 L 212.10093890879273 223.63068830999035 36.79103875021859 182.26424477424905" fill="none" stroke="black" stroke-weight="1"></path><path id="SvgjsPath1240" d="M 210.1475165879054 224.8471755214793 L 210.1475165879054 224.8471755214793 40.83496566012559 180.77971800768634" fill="none" stroke="black" stroke-weight="1"></path><path id="SvgjsPath1241" d="M 208.05625419581975 225.97274781091625 L 208.05625419581975 225.97274781091625 45.1642456998819 179.40613826464457" fill="none" stroke="black" stroke-weight="1"></path><path id="SvgjsPath1242" d="M 205.83237879940756 227.0014519871058 L 205.83237879940756 227.0014519871058 49.76805792403346 178.15077045641326" fill="none" stroke="black" stroke-weight="1"></path><path id="SvgjsPath1243" d="M 203.48144892898802 227.9276047567196 L 203.48144892898802 227.9276047567196 54.63489519963893 177.02055012739302" fill="none" stroke="black" stroke-weight="1"></path><path id="SvgjsPath1244" d="M 201.00934068489653 228.74580887451165 L 201.00934068489653 228.74580887451165 59.75259296810896 176.02206374635867" fill="none" stroke="black" stroke-weight="1"></path><path id="SvgjsPath1245" d="M 198.4222330502942 229.45096855998628 L 198.4222330502942 229.45096855998628 65.10835965026804 175.16152989289813" fill="none" stroke="black" stroke-weight="1"></path><path id="SvgjsPath1246" d="M 195.72659244692798 230.03830414078126 L 195.72659244692798 230.03830414078126 70.68880861864031 174.44478138752118" fill="none" stroke="black" stroke-weight="1"></path><path id="SvgjsPath1247" d="M 192.9291565724437 230.50336588497433 L 192.9291565724437 230.50336588497433 76.47999165704634 173.87724841155676" fill="none" stroke="black" stroke-weight="1"></path><path id="SvgjsPath1248" d="M 190.03691755965127 230.84204698656004 L 190.03691755965127 230.84204698656004 82.4674338238799 173.4639426604691" fill="none" stroke="black" stroke-weight="1"></path><path id="SvgjsPath1249" d="M 187.05710449983366 231.05059567047653 L 187.05710449983366 231.05059567047653 88.63616963192332 173.20944257162185" fill="none" stroke="black" stroke-weight="1"></path><path id="SvgjsPath1250" d="M 183.99716537378367 231.12562638577506 L 183.99716537378367 231.12562638577506 94.97078045427241 173.11787966481688" fill="none" stroke="black" stroke-weight="1"></path><path id="SvgjsPath1251" d="M 180.8647484357311 231.06413005782088 L 180.8647484357311 231.06413005782088 101.45543306287239 173.19292603113385" fill="none" stroke="black" stroke-weight="1"></path><path id="SvgjsPath1252" d="M 177.66768309668976 230.86348337278142 L 177.66768309668976 230.86348337278142 108.07391920334402 173.43778300270742" fill="none" stroke="black" stroke-weight="1"></path><path id="SvgjsPath1253" d="M 174.41396035500784 230.52145707009353 L 174.41396035500784 230.52145707009353 114.80969610717685 173.8551710331062" fill="none" stroke="black" stroke-weight="1"></path><path id="SvgjsPath1254" d="M 171.11171282303354 230.03622322109797 L 171.11171282303354 230.03622322109797 121.64592784003582 174.4473208149313" fill="none" stroke="black" stroke-weight="1"></path><path id="SvgjsPath1255" d="M 167.7691943998194 229.40636147458187 L 167.7691943998194 229.40636147458187 128.56552738283 175.2159656581374" fill="none" stroke="black" stroke-weight="1"></path><path id="SvgjsPath1256" d="M 164.39475964067367 228.63086425257086 L 164.39475964067367 228.63086425257086 135.55119934035963 176.16233514940504" fill="none" stroke="black" stroke-weight="1"></path><path id="SvgjsPath1257" d="M 160.9968428751225 227.70914088235546 L 160.9968428751225 227.70914088235546 142.585483170799 177.28715010966795" fill="none" stroke="black" stroke-weight="1"></path><path id="SvgjsPath1258" d="M 157.58393712547894 226.6410206534152 L 157.58393712547894 226.6410206534152 149.65079682795601 178.5906188636289" fill="none" stroke="black" stroke-weight="1"></path><path id="SvgjsPath1259" d="M 154.1645728787101 225.42675479061256 L 154.1645728787101 225.42675479061256 156.72948070723172 180.07243483179482" fill="none" stroke="black" stroke-weight="1"></path><path id="SvgjsPath1260" d="M 150.74729676466245 224.0670173377573 L 150.74729676466245 224.0670173377573 163.8038417854355 181.73177545222836" fill="none" stroke="black" stroke-weight="1"></path><path id="SvgjsPath1261" d="M 147.3406501939381 222.562904948389 L 147.3406501939381 222.562904948389 170.8561978441281 183.56730243586426" fill="none" stroke="black" stroke-weight="1"></path><path id="SvgjsPath1262" d="M 143.9531480088166 220.91593558337817 L 143.9531480088166 220.91593558337817 177.8689216659586 185.57716335587747" fill="none" stroke="black" stroke-weight="1"></path><path id="SvgjsPath1263" d="M 140.59325720058388 219.12804611770224 L 140.59325720058388 219.12804611770224 184.8244850935281 187.75899456822773" fill="none" stroke="black" stroke-weight="1"></path><path id="SvgjsPath1264" d="M 137.26937574646308 217.20158886150227 L 137.26937574646308 217.20158886150227 191.70550284065538 190.10992545714976" fill="none" stroke="black" stroke-weight="1"></path><path id="SvgjsPath1265" d="M 133.98981161904538 215.1393270032654 L 133.98981161904538 215.1393270032654 198.4947759465376 192.62658399601506" fill="none" stroke="black" stroke-weight="1"></path><path id="SvgjsPath1266" d="M 130.7627620206855 212.94442898569574 L 130.7627620206855 212.94442898569574 205.17533476419493 195.30510361067638" fill="none" stroke="black" stroke-weight="1"></path><path id="SvgjsPath1267" d="M 127.59629289476447 210.6204618275289 L 127.59629289476447 210.6204618275289 211.7304813757507 198.1411313291173" fill="none" stroke="black" stroke-weight="1"></path><path id="SvgjsPath1268" d="M 124.49831876503177 208.1713834072075 L 124.49831876503177 208.1713834072075 218.1438313285307 201.12983719798405" fill="none" stroke="black" stroke-weight="1"></path><path id="SvgjsPath1269" d="M 121.47658295341787 205.60153372695416 L 121.47658295341787 205.60153372695416 224.39935458766124 204.26592494337794" fill="none" stroke="black" stroke-weight="1"></path><path id="SvgjsPath1270" d="M 118.53863822576233 202.91562517835501 L 118.53863822576233 202.91562517835501 230.48141560280783 207.543643850143" fill="none" stroke="black" stroke-weight="1"></path><path id="SvgjsPath1271" d="M 115.69182791383233 200.1187318330879 L 115.69182791383233 200.1187318330879 236.37481238890848 210.95680183080796" fill="none" stroke="black" stroke-weight="1"></path><path id="SvgjsPath1272" d="M 112.94326756081747 197.21627778489514 L 112.94326756081747 197.21627778489514 242.06481452321998 214.49877965233134" fill="none" stroke="black" stroke-weight="1"></path><path id="SvgjsPath1273" d="M 110.29982713617761 194.2140245713002 L 110.29982713617761 194.2140245713002 247.53719996370245 218.16254628587092" fill="none" stroke="black" stroke-weight="1"></path><path id="SvgjsPath1274" d="M 107.7681138642973 191.1180577058947 L 107.7681138642973 191.1180577058947 252.7782905967178 221.940675341959" fill="none" stroke="black" stroke-weight="1"></path><path id="SvgjsPath1275" d="M 105.35445570986558 187.93477235427483 L 105.35445570986558 187.93477235427483 257.77498642519055 225.82536255071545" fill="none" stroke="black" stroke-weight="1"></path><path id="SvgjsPath1276" d="M 103.0648855612595 184.67085818887594 L 103.0648855612595 184.67085818887594 262.5147983117786 229.8084442440836" fill="none" stroke="black" stroke-weight="1"></path><path id="SvgjsPath1277" d="M 100.90512615146545 181.33328346003628 L 100.90512615146545 181.33328346003628 266.98587919521185 233.88141679453196" fill="none" stroke="black" stroke-weight="1"></path><path id="SvgjsPath1278" d="M 98.88057575422704 177.92927832260878 L 98.88057575422704 177.92927832260878 271.1770537017756 238.03545696224012" fill="none" stroke="black" stroke-weight="1"></path><path id="SvgjsPath1279" d="M 96.99629469117198 174.4663174593301 L 96.99629469117198 174.4663174593301 275.0778460779247 242.26144310047852" fill="none" stroke="black" stroke-weight="1"></path><path id="SvgjsPath1280" d="M 95.25699268364319 170.95210204394607 L 95.25699268364319 170.95210204394607 278.6785063742123 246.54997716670988" fill="none" stroke="black" stroke-weight="1"></path><path id="SvgjsPath1281" d="M 93.6670170808485 167.39454108877285 L 93.6670170808485 167.39454108877285 281.97003481508557 250.89140748488737" fill="none" stroke="black" stroke-weight="1"></path><path id="SvgjsPath1282" d="M 92.23034199375167 163.80173222294167 L 92.23034199375167 163.80173222294167 284.9442042936369 255.27585220251186" fill="none" stroke="black" stroke-weight="1"></path><path id="SvgjsPath1283" d="M 90.95055836186452 160.18194194903015 L 90.95055836186452 160.18194194903015 287.59358093508746 259.69322338423444" fill="none" stroke="black" stroke-weight="1"></path><path id="SvgjsPath1284" d="M 89.83086497776833 156.5435854271175 L 89.83086497776833 156.5435854271175 289.91154267760237 264.1332516821617" fill="none" stroke="black" stroke-weight="1"></path><path id="SvgjsPath1285" d="M 88.87406049179825 152.89520583651586 L 88.87406049179825 152.89520583651586 291.89229582399656 268.58551152153996" fill="none" stroke="black" stroke-weight="1"></path><path id="SvgjsPath1286" d="M 88.08253641687513 149.24545336651397 L 88.08253641687513 149.24545336651397 293.53088952296025 273.0394467391694" fill="none" stroke="black" stroke-weight="1"></path><path id="SvgjsPath1287" d="M 87.45827115096849 145.6030638884309 L 87.45827115096849 145.6030638884309 294.82322814360913 277.48439661072837" fill="none" stroke="black" stroke-weight="1"></path><path id="SvgjsPath1288" d="M 87.002825032132 141.97683736210507 L 87.002825032132 141.97683736210507 295.7660815124285 281.9096222021769" fill="none" stroke="black" stroke-weight="1"></path><path id="SvgjsPath1289" d="M 86.71733643847101 138.37561603064086 L 86.71733643847101 138.37561603064086 296.35709298702494 286.3043329795569" fill="none" stroke="black" stroke-weight="1"></path><path id="SvgjsPath1290" d="M 86.6025189427901 134.80826245779582 L 86.6025189427901 134.80826245779582 296.5947853465047 290.6577136108254" fill="none" stroke="black" stroke-weight="1"></path><path id="SvgjsPath1291" d="M 86.65865952903268 131.28363746281573 L 86.65865952903268 131.28363746281573 296.47856448375694 294.95895089283505" fill="none" stroke="black" stroke-weight="1"></path><path id="SvgjsPath1292" d="M 86.88561787497058 127.81057800781568 L 86.88561787497058 127.81057800781568 296.0087208904118 299.1972607362249" fill="none" stroke="black" stroke-weight="1"></path><path id="SvgjsPath1293" d="M 87.28282670293659 124.39787509295635 L 87.28282670293659 124.39787509295635 295.1864289307629 303.36191514079906" fill="none" stroke="black" stroke-weight="1"></path><path id="SvgjsPath1294" d="M 87.84929319772316 121.0542517146754 L 87.84929319772316 121.0542517146754 294.0137439064679 307.4422690939554" fill="none" stroke="black" stroke-weight="1"></path><path id="SvgjsPath1295" d="M 88.58360148810333 117.78834094211003 L 88.58360148810333 117.78834094211003 292.4935969193651 311.4277873248827" fill="none" stroke="black" stroke-weight="1"></path><path id="SvgjsPath1296" d="M 89.48391618577153 114.60866416658382 L 89.48391618577153 114.60866416658382 290.6297875452449 315.3080708475587" fill="none" stroke="black" stroke-weight="1"></path><path id="SvgjsPath1297" d="M 90.54798697285847 111.52360957863125 L 90.54798697285847 111.52360957863125 288.42697433688943 319.0728832260771" fill="none" stroke="black" stroke-weight="1"></path><path id="SvgjsPath1298" d="M 91.77315422655376 108.54141092649525 L 91.77315422655376 108.54141092649525 285.8906631801168 322.71217649648037" fill="none" stroke="black" stroke-weight="1"></path><path id="SvgjsPath1299" d="M 93.15635566677788 105.67012660936241 L 93.15635566677788 105.67012660936241 283.0271935319335 326.2161166801001" fill="none" stroke="black" stroke-weight="1"></path><path id="SvgjsPath1300" d="M 94.69413401028768 102.91761915779651 L 94.69413401028768 102.91761915779651 279.8437225751939 329.57510882438396" fill="none" stroke="black" stroke-weight="1"></path><path id="SvgjsPath1301" d="M 96.38264561208396 100.29153515289481 L 96.38264561208396 100.29153515289481 276.3482073293701 332.77982150833174" fill="none" stroke="black" stroke-weight="1"></path><path id="SvgjsPath1302" d="M 98.21767007252197 97.79928563462661 L 98.21767007252197 97.79928563462661 272.5493847621475 335.82121075096416" fill="none" stroke="black" stroke-weight="1"></path><path id="SvgjsPath1303" d="M 100.19462078611286 95.44802704862177 L 100.19462078611286 95.44802704862177 268.4567499515558 338.69054326269884" fill="none" stroke="black" stroke-weight="1"></path><path id="SvgjsPath1304" d="M 102.30855640564872 93.24464277936374 L 102.30855640564872 93.24464277936374 264.0805323532185 341.37941898111546" fill="none" stroke="black" stroke-weight="1"></path><path id="SvgjsPath1305" d="M 104.55419319299718 91.1957253163071 L 104.55419319299718 91.1957253163071 259.4316702320409 343.8797928343371" fill="none" stroke="black" stroke-weight="1"></path><path id="SvgjsPath1306" d="M 106.92591822569483 89.30755909788749 L 106.92591822569483 89.30755909788749 254.52178332224582 346.18399567715426" fill="none" stroke="black" stroke-weight="1"></path><path id="SvgjsPath1307" d="M 109.41780342633035 87.58610407672857 L 109.41780342633035 87.58610407672857 249.3631437840881 348.2847543470431" fill="none" stroke="black" stroke-weight="1"></path><path id="SvgjsPath1308" d="M 112.02362037965096 86.03698004757962 L 112.02362037965096 86.03698004757962 243.9686455298454 350.1752107893944" fill="none" stroke="black" stroke-weight="1"></path><path id="SvgjsPath1309" d="M 114.73685590035669 84.66545177763955 L 114.73685590035669 84.66545177763955 238.3517719957528 351.8489402035585" fill="none" stroke="black" stroke-weight="1"></path><path id="SvgjsPath1310" d="M 117.55072831267145 83.47641497694892 L 117.55072831267145 83.47641497694892 232.52656244043456 353.2999681637234" fill="none" stroke="black" stroke-weight="1"></path><path id="SvgjsPath1311" d="M 120.45820440100074 82.47438314445978 L 120.45820440100074 82.47438314445978 226.50757685406865 354.52278667116775" fill="none" stroke="black" stroke-weight="1"></path><path id="SvgjsPath1312" d="M 123.45201698930813 81.66347532323519 L 123.45201698930813 81.66347532323519 220.3098595659937 355.5123690970689" fill="none" stroke="black" stroke-weight="1"></path><path id="SvgjsPath1313" d="M 126.52468310527041 81.04740479598591 L 126.52468310527041 81.04740479598591 213.9489016417209 356.2641839777799" fill="none" stroke="black" stroke-weight="1"></path><path id="SvgjsPath1314" d="M 129.66852268381115 80.62946874983038 L 129.66852268381115 80.62946874983038 207.4406021633383 356.77420762732567" fill="none" stroke="black" stroke-weight="1"></path><path id="SvgjsPath1315" d="M 132.87567776326392 80.41253893676873 L 132.87567776326392 80.41253893676873 200.80122849008524 357.0389355347907" fill="none" stroke="black" stroke-weight="1"></path><path id="SvgjsPath1316" d="M 136.13813212618422 80.3990533539021 L 136.13813212618422 80.3990533539021 194.04737559842567 357.055392517272" fill="none" stroke="black" stroke-weight="1"></path><path id="SvgjsPath1317" d="M 139.44773133571826 80.59100896490519 L 139.44773133571826 80.59100896490519 187.19592460324992 356.8211416021496" fill="none" stroke="black" stroke-weight="1"></path></svg></svg>