<svg id="SvgjsSvg1318" width="300" height="400" xmlns="http://www.w3.org/2000/svg" version="1.1" xmlns:xlink="http://www.w3.org/1999/xlink" xmlns:svgjs="http://svgjs.com/svgjs"><defs id="SvgjsDefs1319"></defs><svg id="SvgjsSvg1320" style="overflow: visible;"><path id="SvgjsPath1321" d="M 222.8755183951275 252.4143794278062 L 222.8755183951275 252.4143794278062 128.3110593403522 131.03339531015388" fill="none" stroke="black" stroke-weight="1"></path><path id="SvgjsPath1322" d="M 226.8025842911834 254.98296208810888 L 226.8025842911834 254.98296208810888 126.58337361580968 134.45952409376903" fill="none" stroke="black" stroke-weight="1"></path><path id="SvgjsPath1323" d="M 230.59743437091012 257.4266133738147 L 230.59743437091012 257.4266133738147 124.87344735775619 138.06196733038007" fill="none" stroke="black" stroke-weight="1"></path><path id="SvgjsPath1324" d="M 234.25342687621054 259.7392254293384 L 234.25342687621054 259.7392254293384 123.18234921444248 141.8317207880117" fill="none" stroke="black" stroke-weight="1"></path><path id="SvgjsPath1325" d="M 237.76423581183786 261.9150179289263 L 237.76423581183786 261.9150179289263 121.51113606716052 145.7593620462694" fill="none" stroke="black" stroke-weight="1"></path><path id="SvgjsPath1326" d="M 241.1238649996297 263.94855252446024 L 241.1238649996297 263.94855252446024 119.86085236972698 149.83507404748354" fill="none" stroke="black" stroke-weight="1"></path><path id="SvgjsPath1327" d="M 244.3266613290362 265.8347464384957 L 244.3266613290362 265.8347464384957 118.23252949573376 154.04866963424095" fill="none" stroke="black" stroke-weight="1"></path><path id="SvgjsPath1328" d="M 247.3673271719088 267.56888516855844 L 247.3673271719088 267.56888516855844 116.62718509397283 158.38961701197292" fill="none" stroke="black" stroke-weight="1"></path><path id="SvgjsPath1329" d="M 250.24093193159052 269.14663427094524 L 250.24093193159052 269.14663427094524 115.04582245243915 162.84706607295666" fill="none" stroke="black" stroke-weight="1"></path><path id="SvgjsPath1330" d="M 252.94292269849905 270.564050194576 L 252.94292269849905 270.564050194576 113.48942987130809 167.4098755159344" fill="none" stroke="black" stroke-weight="1"></path><path id="SvgjsPath1331" d="M 255.46913398661135 271.8175901378176 L 255.46913398661135 271.8175901378176 111.95898004528006 172.06664069356393" fill="none" stroke="black" stroke-weight="1"></path><path id="SvgjsPath1332" d="M 257.8157965275416 272.90412090364293 L 257.8157965275416 272.90412090364293 110.45542945567806 176.80572211809755" fill="none" stroke="black" stroke-weight="1"></path><path id="SvgjsPath1333" d="M 259.9795451012417 273.8209267309917 L 259.9795451012417 273.8209267309917 108.97971777267786 181.61527455403996" fill="none" stroke="black" stroke-weight="1"></path><path id="SvgjsPath1334" d="M 261.9574253847462 274.56571608275874 L 261.9574253847462 274.56571608275874 107.5327672680449 186.4832766250676" fill="none" stroke="black" stroke-weight="1"></path><path id="SvgjsPath1335" d="M 263.74689980282045 275.1366273734435 L 263.74689980282045 275.1366273734435 106.1154822387443 191.39756086120943" fill="none" stroke="black" stroke-weight="1"></path><path id="SvgjsPath1336" d="M 265.34585236684524 275.5322336221441 L 265.34585236684524 275.5322336221441 104.72874844178475 196.3458441111849" fill="none" stroke="black" stroke-weight="1"></path><path id="SvgjsPath1337" d="M 266.7525924907852 275.75154601926647 L 266.7525924907852 275.75154601926647 103.3734325406492 201.31575824388514" fill="none" stroke="black" stroke-weight="1"></path><path id="SvgjsPath1338" d="M 267.96585777562143 275.7940163980336 L 267.96585777562143 275.7940163980336 102.05038156365839 206.29488106225972" fill="none" stroke="black" stroke-weight="1"></path><path id="SvgjsPath1339" d="M 268.98481575619104 275.65953860461667 L 268.98481575619104 275.65953860461667 100.76042237460587 211.27076735233962" fill="none" stroke="black" stroke-weight="1"></path><path id="SvgjsPath1340" d="M 269.8090646069467 275.3484487634645 L 269.8090646069467 275.3484487634645 99.50436115599472 216.23097998979114" fill="none" stroke="black" stroke-weight="1"></path><path id="SvgjsPath1341" d="M 270.4386328057319 274.8615244371676 L 270.4386328057319 274.8615244371676 98.28298290520003 221.1631210262496" fill="none" stroke="black" stroke-weight="1"></path><path id="SvgjsPath1342" d="M 270.87397775724975 274.1999826829563 L 270.87397775724975 274.1999826829563 97.09705094387104 226.05486267773296" fill="none" stroke="black" stroke-weight="1"></path><path id="SvgjsPath1343" d="M 271.1159833804825 273.36547701069196 L 271.1159833804825 273.36547701069196 95.94730644087971 230.8939781376827" fill="none" stroke="black" stroke-weight="1"></path><path id="SvgjsPath1344" d="M 271.1659566668843 272.3600932499531 L 271.1659566668843 272.3600932499531 94.83446794911472 235.66837213761124" fill="none" stroke="black" stroke-weight="1"></path><path id="SvgjsPath1345" d="M 271.0256232187208 271.1863443365477 L 271.0256232187208 271.1863443365477 93.75923095640893 240.36611117897522" fill="none" stroke="black" stroke-weight="1"></path><path id="SvgjsPath1346" d="M 270.6971217794541 269.84716403148275 L 270.6971217794541 269.84716403148275 92.72226745088227 244.9754533607065" fill="none" stroke="black" stroke-weight="1"></path><path id="SvgjsPath1347" d="M 270.18299777056677 268.34589958808925 L 270.18299777056677 268.34589958808925 91.7242255009711 249.48487772784958" fill="none" stroke="black" stroke-weight="1"></path><path id="SvgjsPath1348" d="M 269.4861958516778 266.68630338563236 L 269.4861958516778 266.68630338563236 90.76572885040648 253.88311306794952" fill="none" stroke="black" stroke-weight="1"></path><path id="SvgjsPath1349" d="M 268.6100515232206 264.8725235503171 L 268.6100515232206 264.8725235503171 89.84737652839453 258.1591660832128" fill="none" stroke="black" stroke-weight="1"></path><path id="SvgjsPath1350" d="M 267.55828179331934 262.9090935871336 L 267.55828179331934 262.9090935871336 88.96974247524294 262.30234886802646" fill="none" stroke="black" stroke-weight="1"></path><path id="SvgjsPath1351" d="M 266.3349749328141 260.80092104845517 L 266.3349749328141 260.80092104845517 88.13337518366662 266.30230562315654" fill="none" stroke="black" stroke-weight="1"></path><path id="SvgjsPath1352" d="M 264.9445793446391 258.5532752677135 L 264.9445793446391 258.5532752677135 87.33879735599793 270.1490385398523" fill="none" stroke="black" stroke-weight="1"></path><path id="SvgjsPath1353" d="M 263.39189157594444 256.1717741888092 L 263.39189157594444 256.1717741888092 86.5865055775145 273.83293278916176" fill="none" stroke="black" stroke-weight="1"></path><path id="SvgjsPath1354" d="M 261.68204350346764 253.66237032417763 L 261.68204350346764 253.66237032417763 85.87697000608975 277.3447805539969" fill="none" stroke="black" stroke-weight="1"></path><path id="SvgjsPath1355" d="M 259.82048872470136 251.0313358766082 L 259.82048872470136 251.0313358766082 85.21063407835945 280.67580404388025" fill="none" stroke="black" stroke-weight="1"></path><path id="SvgjsPath1356" d="M 257.81298818936125 248.2852470620036 L 257.81298818936125 248.2852470620036 84.58791423258825 283.81767743485085" fill="none" stroke="black" stroke-weight="1"></path><path id="SvgjsPath1357" d="M 255.66559510752728 245.43096767226484 L 255.66559510752728 245.43096767226484 84.00919964840934 286.76254767968726" fill="none" stroke="black" stroke-weight="1"></path><path id="SvgjsPath1358" d="M 253.3846391726151 242.47563191938636 L 253.3846391726151 242.47563191938636 83.47485200359988 289.50305413643605" fill="none" stroke="black" stroke-weight="1"></path><path id="SvgjsPath1359" d="M 250.97671013901407 239.42662660364124 L 250.97671013901407 239.42662660364124 82.98520524804408 292.0323469661837" fill="none" stroke="black" stroke-weight="1"></path><path id="SvgjsPath1360" d="M 248.44864079581743 236.29157265042755 L 248.44864079581743 236.29157265042755 82.5405653950255 294.34410425408595" fill="none" stroke="black" stroke-weight="1"></path><path id="SvgjsPath1361" d="M 245.8074893795461 233.0783060619238 L 245.8074893795461 233.0783060619238 82.14121032997862 296.432547810863" fill="none" stroke="black" stroke-weight="1"></path><path id="SvgjsPath1362" d="M 243.06052147014523 229.7948583311644 L 243.06052147014523 229.7948583311644 81.78738963681951 298.29245761526334" fill="none" stroke="black" stroke-weight="1"></path><path id="SvgjsPath1363" d="M 240.21519141579176 226.44943636748965 L 240.21519141579176 226.44943636748965 81.47932444196405 299.9191848613982" fill="none" stroke="black" stroke-weight="1"></path><path id="SvgjsPath1364" d="M 237.2791233332009 223.0504019835467 L 237.2791233332009 223.0504019835467 81.21720727613106 301.3086635783354" fill="none" stroke="black" stroke-weight="1"></path><path id="SvgjsPath1365" d="M 234.26009173115057 219.6062509951125 L 234.26009173115057 219.6062509951125 81.00120195401692 302.45742079290926" fill="none" stroke="black" stroke-weight="1"></path><path id="SvgjsPath1366" d="M 231.1660018058554 216.125591985979 L 231.1660018058554 216.125591985979 80.83144347191664 303.3625852103444" fill="none" stroke="black" stroke-weight="1"></path><path id="SvgjsPath1367" d="M 228.00486945761122 212.61712479097687 L 228.00486945761122 212.61712479097687 80.70803792335569 304.0218943909977" fill="none" stroke="black" stroke-weight="1"></path><path id="SvgjsPath1368" d="M 224.7848010787992 209.0896187509192 L 224.7848010787992 209.0896187509192 80.63106243278489 304.4337004052793" fill="none" stroke="black" stroke-weight="1"></path><path id="SvgjsPath1369" d="M 221.51397316387795 205.55189079381648 L 221.51397316387795 205.55189079381648 80.60056510738016 304.5969739526178" fill="none" stroke="black" stroke-weight="1"></path><path id="SvgjsPath1370" d="M 218.2006117924098 202.0127833971484 L 218.2006117924098 202.0127833971484 80.61656500697718 304.5113069341761" fill="none" stroke="black" stroke-weight="1"></path><path id="SvgjsPath1371" d="M 214.85297203645177 198.48114248627513 L 214.85297203645177 198.48114248627513 80.67905213215953 304.1769134728858" fill="none" stroke="black" stroke-weight="1"></path><path id="SvgjsPath1372" d="M 211.47931734380228 194.9657953242308 L 211.47931734380228 194.9657953242308 80.78798743050795 303.59462937825134" fill="none" stroke="black" stroke-weight="1"></path><path id="SvgjsPath1373" d="M 208.08789894862448 191.47552844816312 L 208.08789894862448 191.47552844816312 80.94330282100704 302.76591005726164" fill="none" stroke="black" stroke-weight="1"></path><path id="SvgjsPath1374" d="M 204.68693536086815 188.0190657075664 L 204.68693536086815 188.0190657075664 81.14490123659344 301.69282687663053" fill="none" stroke="black" stroke-weight="1"></path><path id="SvgjsPath1375" d="M 201.28459198568504 184.60504645920113 L 201.28459198568504 184.60504645920113 81.39265668481973 300.37806198545854" fill="none" stroke="black" stroke-weight="1"></path><path id="SvgjsPath1376" d="M 197.88896092367804 181.2420039732014 L 197.88896092367804 181.2420039732014 81.68641432659554 298.8249016112574" fill="none" stroke="black" stroke-weight="1"></path><path id="SvgjsPath1377" d="M 194.50804100234168 177.9383441043435 L 194.50804100234168 177.9383441043435 82.025990572957 297.0372278460923" fill="none" stroke="black" stroke-weight="1"></path><path id="SvgjsPath1378" d="M 191.14971808844442 174.70232428178682 L 191.14971808844442 174.70232428178682 82.41117319980383 295.0195089433737" fill="none" stroke="black" stroke-weight="1"></path><path id="SvgjsPath1379" d="M 187.8217457303702 171.54203286980115 L 187.8217457303702 171.54203286980115 82.84172148053244 292.7767881495506" fill="none" stroke="black" stroke-weight="1"></path><path id="SvgjsPath1380" d="M 184.5317261785835 168.46536895106857 L 184.5317261785835 168.46536895106857 83.31736633648238 290.3146710986212" fill="none" stroke="black" stroke-weight="1"></path><path id="SvgjsPath1381" d="M 181.28709183140603 165.48002258309026 L 181.28709183140603 165.48002258309026 83.83781050510154 287.63931180096705" fill="none" stroke="black" stroke-weight="1"></path><path id="SvgjsPath1382" d="M 178.09508715220147 162.59345557704782 L 178.09508715220147 162.59345557704782 84.40272872572577 284.7573972615321" fill="none" stroke="black" stroke-weight="1"></path><path id="SvgjsPath1383" d="M 174.96275110285745 159.8128828471614 L 174.96275110285745 159.8128828471614 85.01176794285604 281.6761307657929" fill="none" stroke="black" stroke-weight="1"></path><path id="SvgjsPath1384" d="M 171.89690013713297 157.14525437716136 L 171.89690013713297 157.14525437716136 85.66454752680671 278.4032138752961" fill="none" stroke="black" stroke-weight="1"></path><path id="SvgjsPath1385" d="M 168.90411179601313 154.59723784894868 L 168.90411179601313 154.59723784894868 86.36065951158673 274.9468271777659" fill="none" stroke="black" stroke-weight="1"></path><path id="SvgjsPath1386" d="M 165.99070894567774 152.17520197686252 L 165.99070894567774 152.17520197686252 87.09966884986503 271.3156098398947" fill="none" stroke="black" stroke-weight="1"></path><path id="SvgjsPath1387" d="M 163.16274469705752 149.88520058921122 L 163.16274469705752 149.88520058921122 87.88111368486098 267.51863801392574" fill="none" stroke="black" stroke-weight="1"></path><path id="SvgjsPath1388" d="M 160.42598804421843 147.73295749685423 L 160.42598804421843 147.73295749685423 88.7045056389898 263.56540215199925" fill="none" stroke="black" stroke-weight="1"></path><path id="SvgjsPath1389" d="M 157.78591025699097 145.72385218665588 L 157.78591025699097 145.72385218665588 89.56933011908276 259.4657832849646" fill="none" stroke="black" stroke-weight="1"></path><path id="SvgjsPath1390" d="M 155.24767206134837 143.86290637556988 L 155.24767206134837 143.86290637556988 90.47504663799107 255.23002832494907" fill="none" stroke="black" stroke-weight="1"></path><path id="SvgjsPath1391" d="M 152.81611163904083 142.1547714589621 L 152.81611163904083 142.1547714589621 91.42108915237273 250.86872445341427" fill="none" stroke="black" stroke-weight="1"></path><path id="SvgjsPath1392" d="M 150.49573347591928 140.60371688454458 L 150.49573347591928 140.60371688454458 92.40686641645124 246.39277265871584" fill="none" stroke="black" stroke-weight="1"></path><path id="SvgjsPath1393" d="M 148.29069808623353 139.2136194809798 L 148.29069808623353 139.2136194809798 93.43176235152504 241.81336048930993" fill="none" stroke="black" stroke-weight="1"></path><path id="SvgjsPath1394" d="M 146.20481263797413 137.98795376782783 L 146.20481263797413 137.98795376782783 94.4951364309965 237.14193409070825" fill="none" stroke="black" stroke-weight="1"></path><path id="SvgjsPath1395" d="M 144.24152250204975 136.92978327105732 L 144.24152250204975 136.92978327105732 95.59632408068023 232.39016959607548" fill="none" stroke="black" stroke-weight="1"></path><path id="SvgjsPath1396" d="M 142.40390374575708 136.04175286582554 L 142.40390374575708 136.04175286582554 96.73463709414042 227.5699439419771" fill="none" stroke="black" stroke-weight="1"></path><path id="SvgjsPath1397" d="M 140.69465658861446 135.32608216566834 L 140.69465658861446 135.32608216566834 97.90936406279732 222.69330518222336" fill="none" stroke="black" stroke-weight="1"></path><path id="SvgjsPath1398" d="M 139.11609983620184 134.78455997462203 L 139.11609983620184 134.78455997462203 99.11977082053458 217.77244237400927" fill="none" stroke="black" stroke-weight="1"></path><path id="SvgjsPath1399" d="M 137.6701663051797 134.41853981614486 L 137.6701663051797 134.41853981614486 100.36510090252901 212.81965511161957" fill="none" stroke="black" stroke-weight="1"></path><path id="SvgjsPath1400" d="M 136.35839925015907 134.22893655001343 L 136.35839925015907 134.22893655001343 101.64457601801664 207.84732278384848" fill="none" stroke="black" stroke-weight="1"></path><path id="SvgjsPath1401" d="M 135.18194980056785 134.21622408564966 L 135.18194980056785 134.21622408564966 102.95739653669895 202.8678736319748" fill="none" stroke="black" stroke-weight="1"></path><path id="SvgjsPath1402" d="M 134.14157541311044 134.38043419759384 L 134.14157541311044 134.38043419759384 104.30274198848599 197.89375368563122" fill="none" stroke="black" stroke-weight="1"></path><path id="SvgjsPath1403" d="M 133.23763934285847 134.72115644608516 L 133.23763934285847 134.72115644608516 105.6797715762632 192.93739565421205" fill="none" stroke="black" stroke-weight="1"></path><path id="SvgjsPath1404" d="M 132.4701111334412 135.23753920294706 L 132.4701111334412 135.23753920294706 107.0876247013625 188.01118785157453" fill="none" stroke="black" stroke-weight="1"></path><path id="SvgjsPath1405" d="M 131.83856812423747 135.92829178021432 L 131.83856812423747 135.92829178021432 108.52542150140837 183.12744323170557" fill="none" stroke="black" stroke-weight="1"></path><path id="SvgjsPath1406" d="M 131.34219796990647 136.7916876561808 L 131.34219796990647 136.7916876561808 109.99226340020302 178.29836861274998" fill="none" stroke="black" stroke-weight="1"></path><path id="SvgjsPath1407" d="M 130.97980216504666 137.82556879080448 L 130.97980216504666 137.82556879080448 111.48723366930741 173.53603416632188" fill="none" stroke="black" stroke-weight="1"></path><path id="SvgjsPath1408" d="M 130.7498005642383 139.0273510196836 L 130.7498005642383 139.0273510196836 113.0093980009668 168.8523432483613" fill="none" stroke="black" stroke-weight="1"></path><path id="SvgjsPath1409" d="M 130.6502368852196 140.39403051312212 L 130.6502368852196 140.39403051312212 114.55780509202253 164.25900264694397" fill="none" stroke="black" stroke-weight="1"></path><path id="SvgjsPath1410" d="M 130.6787851804701 141.92219128413936 L 130.6787851804701 141.92219128413936 116.1314872384455 159.767493321408" fill="none" stroke="black" stroke-weight="1"></path><path id="SvgjsPath1411" d="M 130.83275726003748 143.6080137266585 L 130.83275726003748 143.6080137266585 117.72946094011967 155.38904170593457" fill="none" stroke="black" stroke-weight="1"></path><path id="SvgjsPath1412" d="M 131.10911104604855 145.44728416253258 L 131.10911104604855 145.44728416253258 119.35072751549782 151.1345916493087" fill="none" stroke="black" stroke-weight="1"></path><path id="SvgjsPath1413" d="M 131.50445983700047 147.4354053735455 L 131.50445983700047 147.4354053735455 120.99427372574496 147.014777060997" fill="none" stroke="black" stroke-weight="1"></path><path id="SvgjsPath1414" d="M 132.01508245763878 149.5674080920632 L 132.01508245763878 149.5674080920632 122.65907240797932 143.03989533191248" fill="none" stroke="black" stroke-weight="1"></path><path id="SvgjsPath1415" d="M 132.63693426799918 151.83796342161494 L 132.63693426799918 151.83796342161494 124.344083117216 139.21988159629962" fill="none" stroke="black" stroke-weight="1"></path><path id="SvgjsPath1416" d="M 133.36565900302932 154.2413961563592 L 133.36565900302932 154.2413961563592 126.04825277661124 135.56428389907254" fill="none" stroke="black" stroke-weight="1"></path><path id="SvgjsPath1417" d="M 134.19660141211614 156.77169896614268 L 134.19660141211614 156.77169896614268 127.77051633560112 132.08223933067575" fill="none" stroke="black" stroke-weight="1"></path><path id="SvgjsPath1418" d="M 135.12482066583226 159.42254741169717 L 135.12482066583226 159.42254741169717 129.5097974355233 128.78245118911664" fill="none" stroke="black" stroke-weight="1"></path><path id="SvgjsPath1419" d="M 136.14510449528433 162.18731575244396 L 136.14510449528433 162.18731575244396 131.26500908230628 125.67316722625274" fill="none" stroke="black" stroke-weight="1"></path><path id="SvgjsPath1420" d="M 137.2519840276044 165.05909350739472 L 137.2519840276044 165.05909350739472 133.0350543258055 122.76215903270732" fill="none" stroke="black" stroke-weight="1"></path><path id="SvgjsPath1421" d="M 138.43974927937313 168.03070272775497 L 138.43974927937313 168.03070272775497 134.81882694536134 120.05670261294037" fill="none" stroke="black" stroke-weight="1"></path></svg></svg>