<svg id="SvgjsSvg1001" width="300" height="400" xmlns="http://www.w3.org/2000/svg" version="1.1" xmlns:xlink="http://www.w3.org/1999/xlink" xmlns:svgjs="http://svgjs.com/svgjs"><defs id="SvgjsDefs1002"></defs><svg id="SvgjsSvg1008" style="overflow: visible;"><path id="SvgjsPath1009" d="M 95.03584879814024 146.91827810935615 L 95.03584879814024 146.91827810935615 200.28994022380445 235.47407628262187" fill="none" stroke="black" stroke-weight="1"></path><path id="SvgjsPath1010" d="M 92.18255437903025 144.96738541429568 L 92.18255437903025 144.96738541429568 196.98605434003906 235.9459838256338" fill="none" stroke="black" stroke-weight="1"></path><path id="SvgjsPath1011" d="M 89.36851881863723 143.16654299131818 L 89.36851881863723 143.16654299131818 193.577225186338 236.26313146168292" fill="none" stroke="black" stroke-weight="1"></path><path id="SvgjsPath1012" d="M 86.59550079758557 141.52025200862045 L 86.59550079758557 141.52025200862045 190.07197306030156 236.4212587004056" fill="none" stroke="black" stroke-weight="1"></path><path id="SvgjsPath1013" d="M 83.86523336187292 140.0326273362875 L 83.86523336187292 140.0326273362875 186.47905926674485 236.41655306626382" fill="none" stroke="black" stroke-weight="1"></path><path id="SvgjsPath1014" d="M 81.17942283977247 138.70738726126024 L 81.17942283977247 138.70738726126024 182.8074642189985 236.24566176341236" fill="none" stroke="black" stroke-weight="1"></path><path id="SvgjsPath1015" d="M 78.53974777543365 137.5478441935545 L 78.53974777543365 137.5478441935545 179.06636499255202 235.90570215868104" fill="none" stroke="black" stroke-weight="1"></path><path id="SvgjsPath1016" d="M 75.94785787984654 136.5568963869612 L 75.94785787984654 136.5568963869612 175.26511238714477 235.39427105515674" fill="none" stroke="black" stroke-weight="1"></path><path id="SvgjsPath1017" d="M 73.40537299982616 135.73702069492117 L 73.40537299982616 135.73702069492117 171.4132075546361 234.70945273189207" fill="none" stroke="black" stroke-weight="1"></path><path id="SvgjsPath1018" d="M 70.91388210566119 135.09026637968157 L 70.91388210566119 135.09026637968157 167.52027825107416 233.84982572837674" fill="none" stroke="black" stroke-weight="1"></path><path id="SvgjsPath1019" d="M 68.47494229805888 134.61824999020726 L 68.47494229805888 134.61824999020726 163.5960547723194 232.81446835556486" fill="none" stroke="black" stroke-weight="1"></path><path id="SvgjsPath1020" d="M 66.09007783500806 134.3221513216506 L 66.09007783500806 134.3221513216506 159.65034563337264 231.60296291846075" fill="none" stroke="black" stroke-weight="1"></path><path id="SvgjsPath1021" d="M 63.76077917916747 134.2027104664778 L 63.76077917916747 134.2027104664778 155.69301305219562 230.2153986385092" fill="none" stroke="black" stroke-weight="1"></path><path id="SvgjsPath1022" d="M 61.48850206637502 134.26022596462317 L 61.48850206637502 134.26022596462317 151.73394829930228 228.65237326731238" fill="none" stroke="black" stroke-weight="1"></path><path id="SvgjsPath1023" d="M 59.27466659586047 134.49455405729483 L 59.27466659586047 134.49455405729483 147.78304697473388 226.91499338649135" fill="none" stroke="black" stroke-weight="1"></path><path id="SvgjsPath1024" d="M 57.120656342729376 134.90510904629681 L 57.120656342729376 134.90510904629681 143.85018427421218 225.00487339182195" fill="none" stroke="black" stroke-weight="1"></path><path id="SvgjsPath1025" d="M 55.02781749327393 135.49086475796952 L 55.02781749327393 135.49086475796952 139.9451903062931 222.9241331630907" fill="none" stroke="black" stroke-weight="1"></path><path id="SvgjsPath1026" d="M 52.99745800365011 136.25035710808947 L 52.99745800365011 136.25035710808947 136.077825522215 220.67539442442873" fill="none" stroke="black" stroke-weight="1"></path><path id="SvgjsPath1027" d="M 51.030846782447966 137.18168776131733 L 51.030846782447966 137.18168776131733 132.25775631985348 218.26177580318478" fill="none" stroke="black" stroke-weight="1"></path><path id="SvgjsPath1028" d="M 49.12921289766477 138.2825288760476 L 49.12921289766477 138.2825288760476 128.49453088276078 215.6868865986794" fill="none" stroke="black" stroke-weight="1"></path><path id="SvgjsPath1029" d="M 47.29374480857766 139.5501289228005 L 47.29374480857766 139.5501289228005 124.79755531467961 212.95481927543904" fill="none" stroke="black" stroke-weight="1"></path><path id="SvgjsPath1030" d="M 45.5255896229952 140.98131956161245 L 45.5255896229952 140.98131956161245 121.17607012918259 210.07014069872608" fill="none" stroke="black" stroke-weight="1"></path><path id="SvgjsPath1031" d="M 43.8258523803525 142.5725235612361 L 43.8258523803525 142.5725235612361 117.63912715320046 207.03788213335497" fill="none" stroke="black" stroke-weight="1"></path><path id="SvgjsPath1032" d="M 42.19559536109736 144.31976374035543 L 42.19559536109736 144.31976374035543 114.195566902169 203.86352802991075" fill="none" stroke="black" stroke-weight="1"></path><path id="SvgjsPath1033" d="M 40.63583742279967 146.21867290846774 L 40.63583742279967 146.21867290846774 110.85399648334416 200.55300362554578" fill="none" stroke="black" stroke-weight="1"></path><path id="SvgjsPath1034" d="M 39.147553363398515 148.26450478158546 L 39.147553363398515 148.26450478158546 107.62276808251664 197.11266138952902" fill="none" stroke="black" stroke-weight="1"></path><path id="SvgjsPath1035" d="M 37.731673311985276 150.45214584547455 L 37.731673311985276 150.45214584547455 104.50995808789745 193.54926634664272" fill="none" stroke="black" stroke-weight="1"></path><path id="SvgjsPath1036" d="M 36.389082147503274 152.77612813677666 L 36.389082147503274 152.77612813677666 101.52334690335297 189.86998031435775" fill="none" stroke="black" stroke-weight="1"></path><path id="SvgjsPath1037" d="M 35.12061894572703 155.2306429100701 L 35.12061894572703 155.2306429100701 98.67039950144768 186.08234509247222" fill="none" stroke="black" stroke-weight="1"></path><path id="SvgjsPath1038" d="M 33.927076454867375 157.80955515670829 L 33.927076454867375 157.80955515670829 95.95824676489983 182.19426464654742" fill="none" stroke="black" stroke-weight="1"></path><path id="SvgjsPath1039" d="M 32.80920060012966 160.50641893914607 L 32.80920060012966 160.50641893914607 93.39366766308912 178.21398632902878" fill="none" stroke="black" stroke-weight="1"></path><path id="SvgjsPath1040" d="M 31.767690017534633 163.31449350242696 L 31.767690017534633 163.31449350242696 90.98307230816295 174.15008118437586" fill="none" stroke="black" stroke-weight="1"></path><path id="SvgjsPath1041" d="M 30.803195617293824 166.2267601225596 L 30.803195617293824 166.2267601225596 88.73248593309492 170.01142338685756" fill="none" stroke="black" stroke-weight="1"></path><path id="SvgjsPath1042" d="M 29.916320177011684 169.2359396496729 L 29.916320177011684 169.2359396496729 86.64753383174005 165.807168861866" fill="none" stroke="black" stroke-weight="1"></path><path id="SvgjsPath1043" d="M 29.107617964969364 172.3345107020995 L 29.107617964969364 172.3345107020995 84.73342729852952 161.54673314368455" fill="none" stroke="black" stroke-weight="1"></path><path id="SvgjsPath1044" d="M 28.377594393725005 175.5147284659128 L 28.377594393725005 175.5147284659128 82.99495060294907 157.23976852459123" fill="none" stroke="black" stroke-weight="1"></path><path id="SvgjsPath1045" d="M 27.726705704247337 178.76864405292878 L 27.726705704247337 178.76864405292878 81.43644903135639 152.8961405519828" fill="none" stroke="black" stroke-weight="1"></path><path id="SvgjsPath1046" d="M 27.155358680779955 182.08812436878637 L 27.155358680779955 182.08812436878637 80.06181802602856 148.52590393187904" fill="none" stroke="black" stroke-weight="1"></path><path id="SvgjsPath1047" d="M 26.66391039661437 185.4648724414478 L 26.66391039661437 185.4648724414478 78.87449344858494 144.139277898681" fill="none" stroke="black" stroke-weight="1"></path><path id="SvgjsPath1048" d="M 26.25266799093083 188.89044815930782 L 26.25266799093083 188.89044815930782 77.87744299212248 139.74662111243515" fill="none" stroke="black" stroke-weight="1"></path><path id="SvgjsPath1049" d="M 25.92188847684642 192.35628936707718 L 25.92188847684642 192.35628936707718 77.07315876352845 135.35840614607065" fill="none" stroke="black" stroke-weight="1"></path><path id="SvgjsPath1050" d="M 25.67177858079006 195.85373326671163 L 25.67177858079006 195.85373326671163 76.4636510545112 130.98519362614326" fill="none" stroke="black" stroke-weight="1"></path><path id="SvgjsPath1051" d="M 25.502494613305373 199.37403806989568 L 25.502494613305373 199.37403806989568 76.05044331691778 126.63760609152159" fill="none" stroke="black" stroke-weight="1"></path><path id="SvgjsPath1052" d="M 25.414142371361578 202.90840484796064 L 25.414142371361578 202.90840484796064 75.8345683548978 122.32630163519642" fill="none" stroke="black" stroke-weight="1"></path><path id="SvgjsPath1053" d="M 25.40677707223395 206.447999524624 L 25.40677707223395 206.447999524624 75.81656574343076 118.06194739497356" fill="none" stroke="black" stroke-weight="1"></path><path id="SvgjsPath1054" d="M 25.48040331899466 209.9839749565794 L 25.48040331899466 209.9839749565794 75.99648047966977 113.85519295923068" fill="none" stroke="black" stroke-weight="1"></path><path id="SvgjsPath1055" d="M 25.63497509763613 213.5074930467473 L 25.63497509763613 213.5074930467473 76.373862870472 109.71664375416493" fill="none" stroke="black" stroke-weight="1"></path><path id="SvgjsPath1056" d="M 25.870395805828252 217.0097468349151 L 25.870395805828252 217.0097468349151 76.9477696563974 105.65683447904671" fill="none" stroke="black" stroke-weight="1"></path><path id="SvgjsPath1057" d="M 26.18651831329163 220.4819825105508 L 26.18651831329163 220.4819825105508 77.71676636936603 101.68620265591268" fill="none" stroke="black" stroke-weight="1"></path><path id="SvgjsPath1058" d="M 26.583145053749405 223.9155212927708 L 26.583145053749405 223.9155212927708 78.67893091808122 97.8150623598854" fill="none" stroke="black" stroke-weight="1"></path><path id="SvgjsPath1059" d="M 27.060028148399482 227.3017811227719 L 27.060028148399482 227.3017811227719 79.83185839225682 94.05357819589298" fill="none" stroke="black" stroke-weight="1"></path><path id="SvgjsPath1060" d="M 27.616869560830963 230.63229811450918 L 27.616869560830963 230.63229811450918 81.17266707364034 90.4117395869844" fill="none" stroke="black" stroke-weight="1"></path><path id="SvgjsPath1061" d="M 28.253321283287022 233.89874771000297 L 28.253321283287022 233.89874771000297 82.698005638808 86.89933543869853" fill="none" stroke="black" stroke-weight="1"></path><path id="SvgjsPath1062" d="M 28.968985554158536 237.0929654863986 L 28.968985554158536 237.0929654863986 84.40406153572795 83.52592924304228" fill="none" stroke="black" stroke-weight="1"></path><path id="SvgjsPath1063" d="M 29.763415106572083 240.20696756277164 L 29.763415106572083 240.20696756277164 86.28657051315454 80.30083468457269" fill="none" stroke="black" stroke-weight="1"></path><path id="SvgjsPath1064" d="M 30.636113447917197 243.23297055567195 L 30.636113447917197 243.23297055567195 88.34082727903589 77.23309180986075" fill="none" stroke="black" stroke-weight="1"></path><path id="SvgjsPath1065" d="M 31.58653517013812 246.16341103352926 L 31.58653517013812 246.16341103352926 90.56169726129359 74.33144382024585" fill="none" stroke="black" stroke-weight="1"></path><path id="SvgjsPath1066" d="M 32.614086290596006 248.9909644212928 L 32.614086290596006 248.9909644212928 92.94362944157878 71.60431454627019" fill="none" stroke="black" stroke-weight="1"></path><path id="SvgjsPath1067" d="M 33.71812462328879 251.70856330805447 L 33.71812462328879 251.70856330805447 95.480670229927 69.05978666051394" fill="none" stroke="black" stroke-weight="1"></path><path id="SvgjsPath1068" d="M 34.89796018019658 254.30941511189556 L 34.89796018019658 254.30941511189556 98.16647834563258 66.70558068374578" fill="none" stroke="black" stroke-weight="1"></path><path id="SvgjsPath1069" d="M 36.152855602501546 256.7870190578039 L 36.152855602501546 256.7870190578039 100.99434066714817 64.54903483735703" fill="none" stroke="black" stroke-weight="1"></path><path id="SvgjsPath1070" d="M 37.48202662141344 259.13518242622587 L 37.48202662141344 259.13518242622587 103.9571890113923 62.59708579296941" fill="none" stroke="black" stroke-weight="1"></path><path id="SvgjsPath1071" d="M 38.884642548311746 261.3480360316403 L 38.884642548311746 261.3480360316403 107.04761780052587 60.85625036790023" fill="none" stroke="black" stroke-weight="1"></path><path id="SvgjsPath1072" d="M 40.35982679389933 263.42004889246545 L 40.35982679389933 263.42004889246545 110.25790257204014 59.33260821284043" fill="none" stroke="black" stroke-weight="1"></path><path id="SvgjsPath1073" d="M 41.906657416041995 265.3460420556328 L 41.906657416041995 265.3460420556328 113.58001928589039 58.03178553565721" fill="none" stroke="black" stroke-weight="1"></path><path id="SvgjsPath1074" d="M 43.52416769595243 267.1212015412722 L 43.52416769595243 267.1212015412722 117.00566438041707 56.95893990267879" fill="none" stroke="black" stroke-weight="1"></path><path id="SvgjsPath1075" d="M 45.21134674235789 268.74109037515484 L 45.21134674235789 268.74109037515484 120.52627552692523 56.118746156159744" fill="none" stroke="black" stroke-weight="1"></path><path id="SvgjsPath1076" d="M 46.96714012327443 270.2016596788177 L 46.96714012327443 270.2016596788177 124.13305303104731 55.51538348387044" fill="none" stroke="black" stroke-weight="1"></path><path id="SvgjsPath1077" d="M 48.79045052499255 271.4992587896515 L 48.79045052499255 271.4992587896515 127.81698182739655 55.15252367390872" fill="none" stroke="black" stroke-weight="1"></path><path id="SvgjsPath1078" d="M 50.68013843786248 272.6306443856556 L 50.68013843786248 272.6306443856556 131.5688540125352 55.03332058490247" fill="none" stroke="black" stroke-weight="1"></path><path id="SvgjsPath1079" d="M 52.63502286845065 273.5929885920544 L 52.63502286845065 273.5929885920544 135.3792918599376 55.16040085876756" fill="none" stroke="black" stroke-weight="1"></path><path id="SvgjsPath1080" d="M 54.653882077622185 274.38388604951086 L 54.653882077622185 274.38388604951086 139.23877125942278 55.53585590011144" fill="none" stroke="black" stroke-weight="1"></path><path id="SvgjsPath1081" d="M 56.73545434408808 275.0013599262729 L 56.73545434408808 275.0013599262729 143.1376455224701 56.16123514323982" fill="none" stroke="black" stroke-weight="1"></path><path id="SvgjsPath1082" d="M 58.878438752939886 275.4438668592228 L 58.878438752939886 275.4438668592228 147.06616949391662 57.037540624536206" fill="none" stroke="black" stroke-weight="1"></path><path id="SvgjsPath1083" d="M 61.081496008679196 275.71030081148126 L 61.081496008679196 275.71030081148126 151.01452390976928 58.165222874751834" fill="none" stroke="black" stroke-weight="1"></path><path id="SvgjsPath1084" d="M 63.34324927223382 275.79999583692387 L 63.34324927223382 275.79999583692387 154.9728399402516 59.544178142475744" fill="none" stroke="black" stroke-weight="1"></path><path id="SvgjsPath1085" d="M 65.66228502143726 275.7127277446992 L 65.66228502143726 275.7127277446992 158.93122385673854 61.17374695675568" fill="none" stroke="black" stroke-weight="1"></path><path id="SvgjsPath1086" d="M 68.03715393443414 275.4487146595894 L 68.03715393443414 275.4487146595894 162.87978176092562 63.05271403352364" fill="none" stroke="black" stroke-weight="1"></path><path id="SvgjsPath1087" d="M 70.46637179545921 275.0086164768121 L 70.46637179545921 275.0086164768121 166.80864431442137 65.17930952714741" fill="none" stroke="black" stroke-weight="1"></path><path id="SvgjsPath1088" d="M 72.94842042242364 274.3935332126254 L 72.94842042242364 274.3935332126254 170.70799140695402 67.55121162509747" fill="none" stroke="black" stroke-weight="1"></path><path id="SvgjsPath1089" d="M 75.48174861572986 273.6050022548606 L 75.48174861572986 273.6050022548606 174.56807670153307 70.16555048038626" fill="none" stroke="black" stroke-weight="1"></path><path id="SvgjsPath1090" d="M 78.06477312772051 272.64499452025314 L 78.06477312772051 272.64499452025314 178.37925199521578 73.01891347311991" fill="none" stroke="black" stroke-weight="1"></path><path id="SvgjsPath1091" d="M 80.69587965215659 271.51590952817713 L 80.69587965215659 271.51590952817713 182.13199133458951 76.10735178920612" fill="none" stroke="black" stroke-weight="1"></path><path id="SvgjsPath1092" d="M 83.37342383310644 270.22056940309676 L 83.37342383310644 270.22056940309676 185.81691482569457 79.42638830099445" fill="none" stroke="black" stroke-weight="1"></path><path id="SvgjsPath1093" d="M 86.09573229261491 268.76221182072464 L 86.09573229261491 268.76221182072464 189.42481207887437 82.97102673139473" fill="none" stroke="black" stroke-weight="1"></path><path id="SvgjsPath1094" d="M 88.86110367650986 267.1444819155186 L 88.86110367650986 267.1444819155186 192.9466652299527 86.73576207983412" fill="none" stroke="black" stroke-weight="1"></path><path id="SvgjsPath1095" d="M 91.66780971769298 265.37142316974433 L 91.66780971769298 265.37142316974433 196.37367148019734 90.71459228528191" fill="none" stroke="black" stroke-weight="1"></path><path id="SvgjsPath1096" d="M 94.51409631625064 263.4474673068752 L 94.51409631625064 263.4474673068752 199.69726509873297 94.90103109850207" fill="none" stroke="black" stroke-weight="1"></path><path id="SvgjsPath1097" d="M 97.3981846357095 261.3774232145913 L 97.3981846357095 261.3774232145913 202.90913883240745 99.28812213268999" fill="none" stroke="black" stroke-weight="1"></path><path id="SvgjsPath1098" d="M 100.31827221475112 259.1664649250654 L 100.31827221475112 259.1664649250654 206.00126466959819 103.86845405872423" fill="none" stroke="black" stroke-weight="1"></path><path id="SvgjsPath1099" d="M 103.2725340936914 256.82011868257644 L 103.2725340936914 256.82011868257644 208.9659139060601 108.63417690842391" fill="none" stroke="black" stroke-weight="1"></path><path id="SvgjsPath1100" d="M 106.25912395502135 254.3442491307772 L 106.25912395502135 254.3442491307772 211.79567646266145 113.57701944645088" fill="none" stroke="black" stroke-weight="1"></path><path id="SvgjsPath1101" d="M 109.27617527729541 251.74504465413918 L 109.27617527729541 251.74504465413918 214.4834794067226 118.68830756884041" fill="none" stroke="black" stroke-weight="1"></path><path id="SvgjsPath1102" d="M 112.32180250164652 249.0290019102144 L 112.32180250164652 249.0290019102144 217.02260463066432 123.95898368359592" fill="none" stroke="black" stroke-weight="1"></path><path id="SvgjsPath1103" d="M 115.39410221019881 246.202909591375 L 115.39410221019881 246.202909591375 219.40670564377746 129.37962702634323" fill="none" stroke="black" stroke-weight="1"></path><path id="SvgjsPath1104" d="M 118.49115431564198 243.27383145661778 L 118.49115431564198 243.27383145661778 221.62982343514494 134.94047486171985" fill="none" stroke="black" stroke-weight="1"></path><path id="SvgjsPath1105" d="M 121.61102326122364 240.24908867584512 L 121.61102326122364 240.24908867584512 223.6864013680658 140.63144451897136" fill="none" stroke="black" stroke-weight="1"></path><path id="SvgjsPath1106" d="M 124.75175923040904 237.13624153075324 L 124.75175923040904 237.13624153075324 225.57129906875292 146.4421562081556" fill="none" stroke="black" stroke-weight="1"></path><path id="SvgjsPath1107" d="M 127.9113993654527 233.94307051806553 L 127.9113993654527 233.94307051806553 227.27980527459022 152.36195656141786" fill="none" stroke="black" stroke-weight="1"></path><path id="SvgjsPath1108" d="M 131.0879689941208 230.67755690234253 L 131.0879689941208 230.67755690234253 228.8076496098359 158.37994284199772" fill="none" stroke="black" stroke-weight="1"></path><path id="SvgjsPath1109" d="M 134.2794828637974 227.3478627669768 L 134.2794828637974 227.3478627669768 230.15101325933784 164.48498776196942" fill="none" stroke="black" stroke-weight="1"></path></svg></svg>