<svg id="SvgjsSvg1526" width="300" height="400" xmlns="http://www.w3.org/2000/svg" version="1.1" xmlns:xlink="http://www.w3.org/1999/xlink" xmlns:svgjs="http://svgjs.com/svgjs"><defs id="SvgjsDefs1527"></defs><svg id="SvgjsSvg1528" style="overflow: visible;"><path id="SvgjsPath1529" d="M 179.21295346689274 297.7164296892155 L 179.21295346689274 297.7164296892155 118.45628509275815 269.69231934123974" fill="none" stroke="black" stroke-weight="1"></path><path id="SvgjsPath1530" d="M 182.20460534374024 299.48983942558107 L 182.20460534374024 299.48983942558107 114.08675490755991 264.14122780374146" fill="none" stroke="black" stroke-weight="1"></path><path id="SvgjsPath1531" d="M 185.17925522779603 301.0270737727398 L 185.17925522779603 301.0270737727398 109.79348889710698 258.6418906986018" fill="none" stroke="black" stroke-weight="1"></path><path id="SvgjsPath1532" d="M 188.13504405971162 302.3242904453999 L 188.13504405971162 302.3242904453999 105.58437531561347 253.2068538622416" fill="none" stroke="black" stroke-weight="1"></path><path id="SvgjsPath1533" d="M 191.07012456768214 303.3782470774573 L 191.07012456768214 303.3782470774573 101.46711010429891 247.84837843469202" fill="none" stroke="black" stroke-weight="1"></path><path id="SvgjsPath1534" d="M 193.9826624219311 304.1863093262216 L 193.9826624219311 304.1863093262216 97.44917942085831 242.57841104035052" fill="none" stroke="black" stroke-weight="1"></path><path id="SvgjsPath1535" d="M 196.87083738110678 304.7464574569017 L 196.87083738110678 304.7464574569017 93.53784268091309 237.40855483182753" fill="none" stroke="black" stroke-weight="1"></path><path id="SvgjsPath1536" d="M 199.73284442987386 305.0572913908903 L 199.73284442987386 305.0572913908903 89.74011615273648 232.35004146869522" fill="none" stroke="black" stroke-weight="1"></path><path id="SvgjsPath1537" d="M 202.56689490698923 305.1180342052319 L 202.56689490698923 305.1180342052319 86.06275714516973 227.41370410056322" fill="none" stroke="black" stroke-weight="1"></path><path id="SvgjsPath1538" d="M 205.371217623157 304.9285340745245 L 205.371217623157 304.9285340745245 82.51224882717375 222.6099514213495" fill="none" stroke="black" stroke-weight="1"></path><path id="SvgjsPath1539" d="M 208.1440599679642 304.4892646504054 L 208.1440599679642 304.4892646504054 79.09478571589072 217.9487428588903" fill="none" stroke="black" stroke-weight="1"></path><path id="SvgjsPath1540" d="M 210.88368900520524 303.80132387766776 L 210.88368900520524 303.80132387766776 75.81625986843046 213.43956496114808" fill="none" stroke="black" stroke-weight="1"></path><path id="SvgjsPath1541" d="M 213.58839255591064 302.8664312499707 L 213.58839255591064 302.8664312499707 72.68224781084793 209.09140903724042" fill="none" stroke="black" stroke-weight="1"></path><path id="SvgjsPath1542" d="M 216.2564802684031 301.6869235120008 L 216.2564802684031 301.6869235120008 69.69799823594772 204.91275010833024" fill="none" stroke="black" stroke-weight="1"></path><path id="SvgjsPath1543" d="M 218.88628467471233 300.26574881882726 L 218.88628467471233 300.26574881882726 66.86842049964244 200.9115272200989" fill="none" stroke="black" stroke-weight="1"></path><path id="SvgjsPath1544" d="M 221.47616223268818 298.6064593670496 L 221.47616223268818 298.6064593670496 64.19807394360737 197.09512516507567" fill="none" stroke="black" stroke-weight="1"></path><path id="SvgjsPath1545" d="M 224.02449435316112 296.7132025161559 L 224.02449435316112 296.7132025161559 61.691158069924896 193.47035765953038" fill="none" stroke="black" stroke-weight="1"></path><path id="SvgjsPath1546" d="M 226.5296884115076 294.5907104222844 L 226.5296884115076 294.5907104222844 59.35150359129425 190.0434520159558" fill="none" stroke="black" stroke-weight="1"></path><path id="SvgjsPath1547" d="M 228.99017874298877 292.24428821029727 L 228.99017874298877 292.24428821029727 57.18256437820999 186.82003534838648" fill="none" stroke="black" stroke-weight="1"></path><path id="SvgjsPath1548" d="M 231.40442762123985 289.6798007137313 L 231.40442762123985 289.6798007137313 55.18741032228637 183.80512234392702" fill="none" stroke="black" stroke-weight="1"></path><path id="SvgjsPath1549" d="M 233.77092621929913 286.9036578157687 L 233.77092621929913 286.9036578157687 53.36872113262953 181.0031046299065" fill="none" stroke="black" stroke-weight="1"></path><path id="SvgjsPath1550" d="M 236.0881955525757 283.9227984278671 L 236.0881955525757 283.9227984278671 51.72878107984589 178.41774176204814" fill="none" stroke="black" stroke-weight="1"></path><path id="SvgjsPath1551" d="M 238.3547874031666 280.7446731460947 L 238.3547874031666 280.7446731460947 50.26947469992257 176.0521538549511" fill="none" stroke="black" stroke-weight="1"></path><path id="SvgjsPath1552" d="M 240.569285224946 277.37722562852036 L 240.569285224946 277.37722562852036 48.9922834678341 173.9088158720357" fill="none" stroke="black" stroke-weight="1"></path><path id="SvgjsPath1553" d="M 242.73030502886024 273.82887274020504 L 242.73030502886024 273.82887274020504 47.898283448325486 171.98955358792148" fill="none" stroke="black" stroke-weight="1"></path><path id="SvgjsPath1554" d="M 244.83649624787617 270.1084835154233 L 244.83649624787617 270.1084835154233 46.98814392889703 170.2955412319852" fill="none" stroke="black" stroke-weight="1"></path><path id="SvgjsPath1555" d="M 246.88654258104137 266.2253569896957 L 246.88654258104137 266.2253569896957 46.262127037581024 168.82730081761002" fill="none" stroke="black" stroke-weight="1"></path><path id="SvgjsPath1556" d="M 248.8791628161295 262.18919895704335 L 248.8791628161295 262.18919895704335 45.72008834565965 167.58470315738805" fill="none" stroke="black" stroke-weight="1"></path><path id="SvgjsPath1557" d="M 250.81311163035622 258.0100977105575 L 250.81311163035622 258.0100977105575 45.36147845303046 166.5669705602873" fill="none" stroke="black" stroke-weight="1"></path><path id="SvgjsPath1558" d="M 252.68718036866534 253.69849882692046 L 252.68718036866534 253.69849882692046 45.185345551492915 165.77268120255957" fill="none" stroke="black" stroke-weight="1"></path><path id="SvgjsPath1559" d="M 254.50019779909908 249.26517905790402 L 254.50019779909908 249.26517905790402 45.190338958804304 165.19977515994572" fill="none" stroke="black" stroke-weight="1"></path><path id="SvgjsPath1560" d="M 256.2510308447796 244.72121939410243 L 256.2510308447796 244.72121939410243 45.37471361395025 164.8455620845532" fill="none" stroke="black" stroke-weight="1"></path><path id="SvgjsPath1561" d="M 257.9385852920455 240.07797736822678 L 257.9385852920455 240.07797736822678 45.736335521694755 164.70673050563713" fill="none" stroke="black" stroke-weight="1"></path><path id="SvgjsPath1562" d="M 259.5618064742995 235.34705866718804 L 259.5618064742995 235.34705866718804 46.27268813212403 164.77935872942788" fill="none" stroke="black" stroke-weight="1"></path><path id="SvgjsPath1563" d="M 261.1196799311407 230.54028812392392 L 261.1196799311407 230.54028812392392 46.980879638585364 165.05892730912183" fill="none" stroke="black" stroke-weight="1"></path><path id="SvgjsPath1564" d="M 262.6112320423697 225.66968016147493 L 262.6112320423697 225.66968016147493 47.857651175150025 165.54033305219986" fill="none" stroke="black" stroke-weight="1"></path><path id="SvgjsPath1565" d="M 264.035530636469 220.7474087631836 L 264.035530636469 220.7474087631836 48.899385892504924 166.21790452836785" fill="none" stroke="black" stroke-weight="1"></path><path id="SvgjsPath1566" d="M 265.39168557318027 215.78577704407624 L 265.39168557318027 215.78577704407624 50.10211888900655 167.08541903763773" fill="none" stroke="black" stroke-weight="1"></path><path id="SvgjsPath1567" d="M 266.6788492998128 210.79718649948282 L 266.6788492998128 210.79718649948282 51.46154797151796 168.13612099439172" fill="none" stroke="black" stroke-weight="1"></path><path id="SvgjsPath1568" d="M 267.8962173809364 205.79410600775702 L 267.8962173809364 205.79410600775702 52.97304521860097 169.362741679711" fill="none" stroke="black" stroke-weight="1"></path><path id="SvgjsPath1569" d="M 269.04302900112737 200.7890406645743 L 269.04302900112737 200.7890406645743 54.63166931665471 170.75752031080552" fill="none" stroke="black" stroke-weight="1"></path><path id="SvgjsPath1570" d="M 270.11856744045355 195.7945005267049 L 270.11856744045355 195.7945005267049 56.4321786376871 172.31222637307053" fill="none" stroke="black" stroke-weight="1"></path><path id="SvgjsPath1571" d="M 271.1221605224006 190.82296934338726 L 271.1221605224006 190.82296934338726 58.36904502557651 174.01818315711608" fill="none" stroke="black" stroke-weight="1"></path><path id="SvgjsPath1572" d="M 272.0531810339605 185.88687335345634 L 272.0531810339605 185.88687335345634 60.436468255937385 175.866292440087" fill="none" stroke="black" stroke-weight="1"></path><path id="SvgjsPath1573" d="M 272.9110471176199 180.99855022621784 L 272.9110471176199 180.99855022621784 62.62839113304639 177.8470602477115" fill="none" stroke="black" stroke-weight="1"></path><path id="SvgjsPath1574" d="M 273.6952226350009 176.1702182237004 L 273.6952226350009 176.1702182237004 64.93851518571942 179.95062363079867" fill="none" stroke="black" stroke-weight="1"></path><path id="SvgjsPath1575" d="M 274.40521750193136 171.41394566136358 L 274.40521750193136 171.41394566136358 67.36031692256145 182.16677838735308" fill="none" stroke="black" stroke-weight="1"></path><path id="SvgjsPath1576" d="M 275.04058799473074 166.7416207435944 L 275.04058799473074 166.7416207435944 69.88706460563827 184.48500765909785" fill="none" stroke="black" stroke-weight="1"></path><path id="SvgjsPath1577" d="M 275.60093702752323 162.16492184938747 L 275.60093702752323 162.16492184938747 72.51183550035277 186.89451132899705" fill="none" stroke="black" stroke-weight="1"></path><path id="SvgjsPath1578" d="M 276.0859144004035 157.6952883424796 L 276.0859144004035 157.6952883424796 75.22753355814467 189.38423614435544" fill="none" stroke="black" stroke-weight="1"></path><path id="SvgjsPath1579" d="M 276.49521701830014 153.34389197889797 L 276.49521701830014 153.34389197889797 78.02690748757914 191.94290648824753" fill="none" stroke="black" stroke-weight="1"></path><path id="SvgjsPath1580" d="M 276.82858908040043 149.1216089833881 L 276.82858908040043 149.1216089833881 80.9025691684467 194.5590557203993" fill="none" stroke="black" stroke-weight="1"></path><path id="SvgjsPath1581" d="M 277.08582224001714 145.03899286451622 L 277.08582224001714 145.03899286451622 83.84701236266802 197.22105800721255" fill="none" stroke="black" stroke-weight="1"></path><path id="SvgjsPath1582" d="M 277.266755734799 141.10624803639422 L 277.266755734799 141.10624803639422 86.8526316750829 199.91716055939324" fill="none" stroke="black" stroke-weight="1"></path><path id="SvgjsPath1583" d="M 277.37127648720127 137.33320431295846 L 277.37127648720127 137.33320431295846 89.9117417166073 202.63551619461902" fill="none" stroke="black" stroke-weight="1"></path><path id="SvgjsPath1584" d="M 277.39931917515605 133.72929233855433 L 277.39931917515605 133.72929233855433 93.01659642176416 205.36421614186526" fill="none" stroke="black" stroke-weight="1"></path><path id="SvgjsPath1585" d="M 277.3508662728962 130.3035200162368 L 277.3508662728962 130.3035200162368 96.15940847223716 208.09132300340016" fill="none" stroke="black" stroke-weight="1"></path><path id="SvgjsPath1586" d="M 277.2259480619084 127.0644499927039 L 277.2259480619084 127.0644499927039 99.33236877785897 210.80490379006366" fill="none" stroke="black" stroke-weight="1"></path><path id="SvgjsPath1587" d="M 277.0246426120083 124.02017825613943 L 277.0246426120083 124.02017825613943 102.52766596633191 213.4930629452607" fill="none" stroke="black" stroke-weight="1"></path><path id="SvgjsPath1588" d="M 276.74707573254926 121.17831390045868 L 276.74707573254926 121.17831390045868 105.73750583298437 216.14397527312732" fill="none" stroke="black" stroke-weight="1"></path><path id="SvgjsPath1589" d="M 276.39342089379574 118.54596010653654 L 276.39342089379574 118.54596010653654 108.95413070199581 218.7459186865693" fill="none" stroke="black" stroke-weight="1"></path><path id="SvgjsPath1590" d="M 275.9638991185101 116.12969638795447 L 275.9638991185101 116.12969638795447 112.16983865077216 221.28730669132608" fill="none" stroke="black" stroke-weight="1"></path><path id="SvgjsPath1591" d="M 275.4587788438202 113.9355621456431 L 275.4587788438202 113.9355621456431 115.37700254952449 223.7567205228762" fill="none" stroke="black" stroke-weight="1"></path><path id="SvgjsPath1592" d="M 274.87837575345543 111.96904157252517 L 274.87837575345543 111.96904157252517 118.56808886859389 226.14294085387291" fill="none" stroke="black" stroke-weight="1"></path><path id="SvgjsPath1593" d="M 274.22305258045435 110.23504994588937 L 274.22305258045435 110.23504994588937 121.73567620667419 228.4349789908798" fill="none" stroke="black" stroke-weight="1"></path><path id="SvgjsPath1594" d="M 273.4932188804684 108.73792134175689 L 273.4932188804684 108.73792134175689 124.87247349381053 230.62210748045888" fill="none" stroke="black" stroke-weight="1"></path><path id="SvgjsPath1595" d="M 272.68933077580294 107.48139780194859 L 272.68933077580294 107.48139780194859 127.97133782389197 232.6938900461494" fill="none" stroke="black" stroke-weight="1"></path><path id="SvgjsPath1596" d="M 271.81189067035564 106.46861998092913 L 271.81189067035564 106.46861998092913 131.0252918723112 234.64021077955866" fill="none" stroke="black" stroke-weight="1"></path><path id="SvgjsPath1597" d="M 270.8614469356306 105.70211929580661 L 270.8614469356306 105.70211929580661 134.02754085552812 236.45130251066084" fill="none" stroke="black" stroke-weight="1"></path><path id="SvgjsPath1598" d="M 269.8385935680237 105.183811599108 L 269.8385935680237 105.183811599108 136.97148899044822 238.11777428446453" fill="none" stroke="black" stroke-weight="1"></path><path id="SvgjsPath1599" d="M 268.74396981759435 104.91499239014558 L 268.74396981759435 104.91499239014558 139.85075541280222 239.63063787345652" fill="none" stroke="black" stroke-weight="1"></path><path id="SvgjsPath1600" d="M 267.5782597885551 104.89633357694345 L 267.5782597885551 104.89633357694345 142.659189515095 240.98133325765528" fill="none" stroke="black" stroke-weight="1"></path><path id="SvgjsPath1601" d="M 266.34219201172846 105.12788179681728 L 266.34219201172846 105.12788179681728 145.39088566616837 242.16175300670284" fill="none" stroke="black" stroke-weight="1"></path><path id="SvgjsPath1602" d="M 265.0365389892394 105.60905829980537 L 265.0365389892394 105.60905829980537 148.04019727599479 243.16426550118652" fill="none" stroke="black" stroke-weight="1"></path><path id="SvgjsPath1603" d="M 263.66211671172596 106.33866039524212 L 263.66211671172596 106.33866039524212 150.601750170983 243.98173693330108" fill="none" stroke="black" stroke-weight="1"></path><path id="SvgjsPath1604" d="M 262.2197841483723 107.31486445785836 L 262.2197841483723 107.31486445785836 153.07045524682525 244.60755203003282" fill="none" stroke="black" stroke-weight="1"></path><path id="SvgjsPath1605" d="M 260.71044271008054 108.53523048589483 L 260.71044271008054 108.53523048589483 155.4415203677479 245.03563344526066" fill="none" stroke="black" stroke-weight="1"></path><path id="SvgjsPath1606" d="M 259.1350356861184 109.99670819983575 L 259.1350356861184 109.99670819983575 157.71046148293698 245.2604597705186" fill="none" stroke="black" stroke-weight="1"></path><path id="SvgjsPath1607" d="M 257.4945476545942 111.69564466651914 L 257.4945476545942 111.69564466651914 159.87311293289093 245.27708211763863" fill="none" stroke="black" stroke-weight="1"></path><path id="SvgjsPath1608" d="M 255.79000386712744 113.62779342956733 L 255.79000386712744 113.62779342956733 161.92563692050436 245.08113923008852" fill="none" stroke="black" stroke-weight="1"></path><path id="SvgjsPath1609" d="M 254.02246960809998 115.78832512331631 L 254.02246960809998 115.78832512331631 163.8645321237973 244.6688710835193" fill="none" stroke="black" stroke-weight="1"></path><path id="SvgjsPath1610" d="M 252.19304952888797 118.17183954371487 L 252.19304952888797 118.17183954371487 165.68664142937521 244.0371309398419" fill="none" stroke="black" stroke-weight="1"></path><path id="SvgjsPath1611" d="M 250.30288695749076 120.7723791460223 L 250.30288695749076 120.7723791460223 167.38915876792683 243.18339582304372" fill="none" stroke="black" stroke-weight="1"></path><path id="SvgjsPath1612" d="M 248.353163183988 123.5834439355677 L 248.353163183988 123.5834439355677 168.9696350353331 242.10577538892954" fill="none" stroke="black" stroke-weight="1"></path><path id="SvgjsPath1613" d="M 246.34509672227188 126.59800771435144 L 246.34509672227188 126.59800771435144 170.42598308527215 240.80301916501492" fill="none" stroke="black" stroke-weight="1"></path><path id="SvgjsPath1614" d="M 244.27994254851558 129.80853564288103 L 244.27994254851558 129.80853564288103 171.75648178154512 239.27452214090414" fill="none" stroke="black" stroke-weight="1"></path><path id="SvgjsPath1615" d="M 242.1589913168541 133.2070030733458 L 242.1589913168541 133.2070030733458 172.95977910072338 237.5203286936397" fill="none" stroke="black" stroke-weight="1"></path><path id="SvgjsPath1616" d="M 239.98356855276717 136.78491560705714 L 239.98356855276717 136.78491560705714 174.0348942781106 235.54113483670315" fill="none" stroke="black" stroke-weight="1"></path><path id="SvgjsPath1617" d="M 237.75503382466934 140.53333032602166 L 237.75503382466934 140.53333032602166 174.98121899242727 233.33828878557173" fill="none" stroke="black" stroke-weight="1"></path><path id="SvgjsPath1618" d="M 235.47477989422376 144.44287814557856 L 235.47477989422376 144.44287814557856 175.79851758704802 230.91378983697624" fill="none" stroke="black" stroke-weight="1"></path><path id="SvgjsPath1619" d="M 233.1442318459114 148.50378723223213 L 233.1442318459114 148.50378723223213 176.4869263280508 228.27028556325553" fill="none" stroke="black" stroke-weight="1"></path><path id="SvgjsPath1620" d="M 230.76484619639996 152.70590742814628 L 230.76484619639996 152.70590742814628 177.04695170176427 225.41106732745158" fill="none" stroke="black" stroke-weight="1"></path><path id="SvgjsPath1621" d="M 228.33810998426796 157.0387356212531 L 228.33810998426796 157.0387356212531 177.47946775691986 222.34006412902065" fill="none" stroke="black" stroke-weight="1"></path><path id="SvgjsPath1622" d="M 225.86553984065432 161.4914419975632 L 225.86553984065432 161.4914419975632 177.78571249892104 219.0618347942494" fill="none" stroke="black" stroke-weight="1"></path><path id="SvgjsPath1623" d="M 223.34868104141316 166.05289711006037 L 223.34868104141316 166.05289711006037 177.96728334613135 215.58155852963873" fill="none" stroke="black" stroke-weight="1"></path><path id="SvgjsPath1624" d="M 220.78910654136672 170.71169969652328 L 220.78910654136672 170.71169969652328 178.02613166044307 211.90502386064864" fill="none" stroke="black" stroke-weight="1"></path><path id="SvgjsPath1625" d="M 218.18841599125983 175.4562051767433 L 218.18841599125983 175.4562051767433 177.96455636672036 208.03861598227468" fill="none" stroke="black" stroke-weight="1"></path><path id="SvgjsPath1626" d="M 215.5482347380301 180.27455475791058 L 215.5482347380301 180.27455475791058 177.78519667800484 203.98930255193645" fill="none" stroke="black" stroke-weight="1"></path><path id="SvgjsPath1627" d="M 212.87021280901922 185.1547050754201 L 212.87021280901922 185.1547050754201 177.49102394562132 199.76461795909353" fill="none" stroke="black" stroke-weight="1"></path><path id="SvgjsPath1628" d="M 210.15602388075948 190.08445829501127 L 210.15602388075948 190.08445829501127 177.08533265552586 195.37264610985153" fill="none" stroke="black" stroke-weight="1"></path><path id="SvgjsPath1629" d="M 207.4073642329803 195.05149260100094 L 207.4073642329803 195.05149260100094 176.5717305943851 190.82200176857964" fill="none" stroke="black" stroke-weight="1"></path></svg></svg>