<svg id="SvgjsSvg1254" width="300" height="400" xmlns="http://www.w3.org/2000/svg" version="1.1" xmlns:xlink="http://www.w3.org/1999/xlink" xmlns:svgjs="http://svgjs.com/svgjs"><defs id="SvgjsDefs1255"></defs><svg id="SvgjsSvg1256" style="overflow: visible;"><path id="SvgjsPath1257" d="M 311.59536265607767 179.9790957370076 L 311.59536265607767 179.9790957370076 182.94000976034144 46.725280920769364" fill="none" stroke="black" stroke-weight="1"></path><path id="SvgjsPath1258" d="M 310.45388734367157 183.38459019649903 L 310.45388734367157 183.38459019649903 179.13720761390942 46.06516826375079" fill="none" stroke="black" stroke-weight="1"></path><path id="SvgjsPath1259" d="M 309.26923139545795 186.84411192341136 L 309.26923139545795 186.84411192341136 175.2740750188574 45.50438470301532" fill="none" stroke="black" stroke-weight="1"></path><path id="SvgjsPath1260" d="M 308.041723874916 190.34901391511153 L 308.041723874916 190.34901391511153 171.3602677947922 45.043280710034026" fill="none" stroke="black" stroke-weight="1"></path><path id="SvgjsPath1261" d="M 306.77170574846434 193.89053574193778 L 306.77170574846434 193.89053574193778 167.4055684215028 44.68214445979302" fill="none" stroke="black" stroke-weight="1"></path><path id="SvgjsPath1262" d="M 305.45952979074957 197.45982544371208 L 305.45952979074957 197.45982544371208 163.4198615878548 44.42120165069312" fill="none" stroke="black" stroke-weight="1"></path><path id="SvgjsPath1263" d="M 304.10556048665603 201.04796165503006 L 304.10556048665603 201.04796165503006 159.41310948521644 44.26061536349604" fill="none" stroke="black" stroke-weight="1"></path><path id="SvgjsPath1264" d="M 302.7101739300623 204.64597590402872 L 302.7101739300623 204.64597590402872 155.39532690716803 44.20048595940395" fill="none" stroke="black" stroke-weight="1"></path><path id="SvgjsPath1265" d="M 301.27375771937267 208.24487502889517 L 301.27375771937267 208.24487502889517 151.37655621773382 44.24085101733709" fill="none" stroke="black" stroke-weight="1"></path><path id="SvgjsPath1266" d="M 299.7967108498542 211.83566365608755 L 299.7967108498542 211.83566365608755 147.36684225070223 44.381685310448205" fill="none" stroke="black" stroke-weight="1"></path><path id="SvgjsPath1267" d="M 298.2794436028065 215.40936668408455 L 298.2794436028065 215.40936668408455 143.37620720277218 44.622900821888464" fill="none" stroke="black" stroke-weight="1"></path><path id="SvgjsPath1268" d="M 296.7223774315978 218.9570517164647 L 296.7223774315978 218.9570517164647 139.4146255832811 44.964346799815075" fill="none" stroke="black" stroke-weight="1"></path><path id="SvgjsPath1269" d="M 295.12594484459703 222.4698513882457 L 295.12594484459703 222.4698513882457 135.49199928312572 45.40580985160642" fill="none" stroke="black" stroke-weight="1"></path><path id="SvgjsPath1270" d="M 293.49058928503564 225.9389855296789 L 293.49058928503564 225.9389855296789 131.618132825192 45.94701407722536" fill="none" stroke="black" stroke-weight="1"></path><path id="SvgjsPath1271" d="M 291.81676500783135 229.35578311210068 L 291.81676500783135 229.35578311210068 127.80270885815425 46.58762124164787" fill="none" stroke="black" stroke-weight="1"></path><path id="SvgjsPath1272" d="M 290.1049369534098 232.71170392098887 L 290.1049369534098 232.71170392098887 124.05526395489572 47.32723098624879" fill="none" stroke="black" stroke-weight="1"></path><path id="SvgjsPath1273" d="M 288.3555806185567 235.998359902051 L 288.3555806185567 235.998359902051 120.38516477604308 48.165381079013116" fill="none" stroke="black" stroke-weight="1"></path><path id="SvgjsPath1274" d="M 286.56918192433903 239.20753612699178 L 286.56918192433903 239.20753612699178 116.80158465819252 49.10154770341589" fill="none" stroke="black" stroke-weight="1"></path><path id="SvgjsPath1275" d="M 284.7462370811299 242.3312113265555 L 284.7462370811299 242.3312113265555 113.31348068534643 50.13514578579026" fill="none" stroke="black" stroke-weight="1"></path><path id="SvgjsPath1276" d="M 282.88725245077524 245.36157793952182 L 282.88725245077524 245.36157793952182 109.9295713008673 51.26552936097997" fill="none" stroke="black" stroke-weight="1"></path><path id="SvgjsPath1277" d="M 280.9927444059414 248.29106162754283 L 280.9927444059414 248.29106162754283 106.65831451591046 52.49199197604602" fill="none" stroke="black" stroke-weight="1"></path><path id="SvgjsPath1278" d="M 279.0632391866813 251.112340207044 L 279.0632391866813 251.112340207044 103.50788676880086 53.81376713177701" fill="none" stroke="black" stroke-weight="1"></path><path id="SvgjsPath1279" d="M 277.09927275426037 253.81836195087018 L 277.09927275426037 253.81836195087018 100.48616248819496 55.2300287617264" fill="none" stroke="black" stroke-weight="1"></path><path id="SvgjsPath1280" d="M 275.10139064228156 256.4023632139306 L 275.10139064228156 256.4023632139306 97.60069441111094 56.73989174847662" fill="none" stroke="black" stroke-weight="1"></path><path id="SvgjsPath1281" d="M 273.0701478051519 258.8578853387894 L 273.0701478051519 258.8578853387894 94.85869470501852 58.342412476809244" fill="none" stroke="black" stroke-weight="1"></path><path id="SvgjsPath1282" d="M 271.0061084639319 261.1787907989457 L 271.0061084639319 261.1787907989457 92.26701694117727 60.0365894234333" fill="none" stroke="black" stroke-weight="1"></path><path id="SvgjsPath1283" d="M 268.9098459496113 263.3592785394534 L 268.9098459496113 263.3592785394534 89.83213896427705 61.821363782905024" fill="none" stroke="black" stroke-weight="1"></path><path id="SvgjsPath1284" d="M 266.78194254385403 265.39389847653706 L 266.78194254385403 265.39389847653706 87.56014670120027 63.69562012934654" fill="none" stroke="black" stroke-weight="1"></path><path id="SvgjsPath1285" d="M 264.622989317257 267.27756511996375 L 264.622989317257 267.27756511996375 85.45671894937384 65.6581871135511" fill="none" stroke="black" stroke-weight="1"></path><path id="SvgjsPath1286" d="M 262.43358596516794 269.0055702841195 L 262.43358596516794 269.0055702841195 83.52711318273326 67.70783819503797" fill="none" stroke="black" stroke-weight="1"></path><path id="SvgjsPath1287" d="M 260.21434064110673 270.57359485602154 L 260.21434064110673 270.57359485602154 81.77615241077595 69.84329240860015" fill="none" stroke="black" stroke-weight="1"></path><path id="SvgjsPath1288" d="M 257.96586978783813 271.97771959085156 L 257.96586978783813 271.97771959085156 80.20821312354906 72.0632151648662" fill="none" stroke="black" stroke-weight="1"></path><path id="SvgjsPath1289" d="M 255.68879796614164 273.21443490802653 L 255.68879796614164 273.21443490802653 78.82721435270372 74.36621908437499" fill="none" stroke="black" stroke-weight="1"></path><path id="SvgjsPath1290" d="M 253.38375768132602 274.2806496633224 L 253.38375768132602 274.2806496633224 77.63660787595667 76.75086486464298" fill="none" stroke="black" stroke-weight="1"></path><path id="SvgjsPath1291" d="M 251.05138920753808 275.1736988751248 L 251.05138920753808 275.1736988751248 76.63936958944399 79.21566217968092" fill="none" stroke="black" stroke-weight="1"></path><path id="SvgjsPath1292" d="M 248.69234040991222 275.8913503854953 L 248.69234040991222 275.8913503854953 75.83799206953026 81.75907061139972" fill="none" stroke="black" stroke-weight="1"></path><path id="SvgjsPath1293" d="M 246.30726656461258 276.43181043940365 L 246.30726656461258 276.43181043940365 75.23447834266595 84.37950061232097" fill="none" stroke="black" stroke-weight="1"></path><path id="SvgjsPath1294" d="M 243.89683017681566 276.7937281681812 L 243.89683017681566 276.7937281681812 74.83033687886434 87.07531449899267" fill="none" stroke="black" stroke-weight="1"></path><path id="SvgjsPath1295" d="M 241.46170079668576 276.97619896598917 L 241.46170079668576 276.97619896598917 74.62657782131213 89.84482747548837" fill="none" stroke="black" stroke-weight="1"></path><path id="SvgjsPath1296" d="M 239.00255483339282 276.97876675086195 L 239.00255483339282 276.97876675086195 74.62371046153751 92.68630868634911" fill="none" stroke="black" stroke-weight="1"></path><path id="SvgjsPath1297" d="M 236.52007536722545 276.80142510467465 L 236.52007536722545 276.80142510467465 74.82174196644667 95.59798229831253" fill="none" stroke="black" stroke-weight="1"></path><path id="SvgjsPath1298" d="M 234.01495195985092 276.444617289185 L 234.01495195985092 276.444617289185 75.2201773604101 98.5780286101501" fill="none" stroke="black" stroke-weight="1"></path><path id="SvgjsPath1299" d="M 231.4878804627744 275.9092351381098 L 231.4878804627744 275.9092351381098 75.81802076244405 101.6245851899215" fill="none" stroke="black" stroke-weight="1"></path><path id="SvgjsPath1300" d="M 228.9395628240517 275.1966168280051 L 228.9395628240517 275.1966168280051 76.61377787539426 104.73574803893419" fill="none" stroke="black" stroke-weight="1"></path><path id="SvgjsPath1301" d="M 226.3707068933079 274.30854353352174 L 226.3707068933079 274.30854353352174 77.6054597209007 107.90957278168035" fill="none" stroke="black" stroke-weight="1"></path><path id="SvgjsPath1302" d="M 223.7820262251171 273.2472349753963 L 223.7820262251171 273.2472349753963 78.79058761080748 111.14407588100816" fill="none" stroke="black" stroke-weight="1"></path><path id="SvgjsPath1303" d="M 221.17423988079776 272.01534387230527 L 221.17423988079776 272.01534387230527 80.16619934259245 114.43723587776799" fill="none" stroke="black" stroke-weight="1"></path><path id="SvgjsPath1304" d="M 218.54807222867726 270.6159493104499 L 218.54807222867726 270.6159493104499 81.72885660333094 117.78699465415899" fill="none" stroke="black" stroke-weight="1"></path><path id="SvgjsPath1305" d="M 215.90425274288395 269.0525490474442 L 215.90425274288395 269.0525490474442 83.47465356368734 121.19125871998537" fill="none" stroke="black" stroke-weight="1"></path><path id="SvgjsPath1306" d="M 213.24351580071968 267.3290507697425 L 213.24351580071968 267.3290507697425 85.3992266404542 124.64790052101948" fill="none" stroke="black" stroke-weight="1"></path><path id="SvgjsPath1307" d="M 210.56660047867118 265.4497623254587 L 210.56660047867118 265.4497623254587 87.49776540323778 128.15475976865406" fill="none" stroke="black" stroke-weight="1"></path><path id="SvgjsPath1308" d="M 207.8742503471152 263.4193809569889 L 207.8742503471152 263.4193809569889 89.76502459802904 131.7096447900127" fill="none" stroke="black" stroke-weight="1"></path><path id="SvgjsPath1309" d="M 205.1672132637766 261.242981560352 L 205.1672132637766 261.242981560352 92.1953372576069 135.31033389767367" fill="none" stroke="black" stroke-weight="1"></path><path id="SvgjsPath1310" d="M 202.44624116599445 258.9260040005928 L 202.44624116599445 258.9260040005928 94.78262886600467 138.95457677815205" fill="none" stroke="black" stroke-weight="1"></path><path id="SvgjsPath1311" d="M 199.71208986185593 256.4742395149522 L 199.71208986185593 256.4742395149522 97.5204325416367 142.6400958982726" fill="none" stroke="black" stroke-weight="1"></path><path id="SvgjsPath1312" d="M 196.9655188202536 253.89381623778996 L 196.9655188202536 253.89381623778996 100.40190520113455 146.36458792855422" fill="none" stroke="black" stroke-weight="1"></path><path id="SvgjsPath1313" d="M 194.20729095992763 251.19118388344037 L 194.20729095992763 251.19118388344037 103.41984466349157 150.12572518271557" fill="none" stroke="black" stroke-weight="1"></path><path id="SvgjsPath1314" d="M 191.4381724375482 248.37309762528574 L 191.4381724375482 248.37309762528574 106.56670765176425 153.92115707240296" fill="none" stroke="black" stroke-weight="1"></path><path id="SvgjsPath1315" d="M 188.65893243489973 245.44660121134058 L 188.65893243489973 245.44660121134058 109.83462864733636 157.74851157623186" fill="none" stroke="black" stroke-weight="1"></path><path id="SvgjsPath1316" d="M 185.8703429452233 242.41900935854977 L 185.8703429452233 242.41900935854977 113.21543954961942 161.60539672222328" fill="none" stroke="black" stroke-weight="1"></path><path id="SvgjsPath1317" d="M 183.0731785587801 239.29788946980585 L 183.0731785587801 239.29788946980585 116.70069009205014 165.48940208270812" fill="none" stroke="black" stroke-weight="1"></path><path id="SvgjsPath1318" d="M 180.26821624769164 236.09104271938293 L 180.26821624769164 236.09104271938293 120.28166896335571 169.3981002807658" fill="none" stroke="black" stroke-weight="1"></path><path id="SvgjsPath1319" d="M 177.45623515011977 232.80648455406373 L 177.45623515011977 232.80648455406373 123.94942558129549 173.329048507256" fill="none" stroke="black" stroke-weight="1"></path><path id="SvgjsPath1320" d="M 174.63801635384377 229.4524246586966 L 174.63801635384377 229.4524246586966 127.69479246445547 177.27979004749517" fill="none" stroke="black" stroke-weight="1"></path><path id="SvgjsPath1321" d="M 171.8143426792971 226.03724643625918 L 171.8143426792971 226.03724643625918 131.50840814617726 181.24785581662303" fill="none" stroke="black" stroke-weight="1"></path><path id="SvgjsPath1322" d="M 168.98599846212204 222.56948605371724 L 168.98599846212204 222.56948605371724 135.38074057334904 185.23076590269983" fill="none" stroke="black" stroke-weight="1"></path><path id="SvgjsPath1323" d="M 166.15376933530402 219.0578111060526 L 166.15376933530402 219.0578111060526 139.30211093157456 189.22603111657097" fill="none" stroke="black" stroke-weight="1"></path><path id="SvgjsPath1324" d="M 163.31844201094466 215.51099895178936 L 163.31844201094466 215.51099895178936 143.26271783716854 193.23115454752937" fill="none" stroke="black" stroke-weight="1"></path><path id="SvgjsPath1325" d="M 160.48080406173636 211.93791477416892 L 160.48080406173636 211.93791477416892 147.25266183551136 197.24363312380325" fill="none" stroke="black" stroke-weight="1"></path><path id="SvgjsPath1326" d="M 157.64164370219675 208.34748942280925 L 157.64164370219675 208.34748942280925 151.26197014452967 201.26095917689412" fill="none" stroke="black" stroke-weight="1"></path><path id="SvgjsPath1327" d="M 154.8017495697257 204.74869709123143 L 154.8017495697257 204.74869709123143 155.2806215814582 205.28062200878827" fill="none" stroke="black" stroke-weight="1"></path><path id="SvgjsPath1328" d="M 151.9619105055438 201.15053288604955 L 151.9619105055438 201.15053288604955 159.298571610578 209.30010946106154" fill="none" stroke="black" stroke-weight="1"></path><path id="SvgjsPath1329" d="M 149.12291533557553 197.56199034388868 L 149.12291533557553 197.56199034388868 163.3057774493243 213.31690948489643" fill="none" stroke="black" stroke-weight="1"></path><path id="SvgjsPath1330" d="M 146.28555265133554 193.99203895222755 L 146.28555265133554 193.99203895222755 167.29222317001256 217.3285117110303" fill="none" stroke="black" stroke-weight="1"></path><path id="SvgjsPath1331" d="M 143.450610590881 190.44960173035068 L 143.450610590881 190.44960173035068 171.24794473444172 221.33240901865506" fill="none" stroke="black" stroke-weight="1"></path><path id="SvgjsPath1332" d="M 140.6188766198888 186.943532926447 L 140.6188766198888 186.943532926447 175.16305489880082 225.326099102286" fill="none" stroke="black" stroke-weight="1"></path><path id="SvgjsPath1333" d="M 137.79113731292074 183.48259588660082 L 137.79113731292074 183.48259588660082 179.02776792662905 229.30708603562127" fill="none" stroke="black" stroke-weight="1"></path><path id="SvgjsPath1334" d="M 134.9681781349352 180.0754411509907 L 134.9681781349352 180.0754411509907 182.83242404806037 233.27288183141405" fill="none" stroke="black" stroke-weight="1"></path><path id="SvgjsPath1335" d="M 132.15078322310808 176.7305848320439 L 132.15078322310808 176.7305848320439 186.56751360421765 237.2210079963841" fill="none" stroke="black" stroke-weight="1"></path><path id="SvgjsPath1336" d="M 129.33973516902108 173.45638732859018 L 129.33973516902108 173.45638732859018 190.22370081640764 241.1489970801955" fill="none" stroke="black" stroke-weight="1"></path><path id="SvgjsPath1337" d="M 126.53581480128102 170.26103242921894 L 126.53581480128102 170.26103242921894 193.7918471207055 245.05439421753255" fill="none" stroke="black" stroke-weight="1"></path><path id="SvgjsPath1338" d="M 123.73980096862743 167.15250685707008 L 123.73980096862743 167.15250685707008 197.26303400960506 248.93475866231046" fill="none" stroke="black" stroke-weight="1"></path><path id="SvgjsPath1339" d="M 120.95247032359134 164.13858030718526 L 120.95247032359134 164.13858030718526 200.62858532364314 252.78766531306243" fill="none" stroke="black" stroke-weight="1"></path><path id="SvgjsPath1340" d="M 118.17459710676249 161.22678602631646 L 118.17459710676249 161.22678602631646 203.88008893727994 256.61070622854936" fill="none" stroke="black" stroke-weight="1"></path><path id="SvgjsPath1341" d="M 115.40695293172845 158.42440198373262 L 115.40695293172845 158.42440198373262 207.0094177848319 260.40149213264465" fill="none" stroke="black" stroke-weight="1"></path><path id="SvgjsPath1342" d="M 112.65030657074183 155.73843268008693 L 112.65030657074183 155.73843268008693 210.00875017390294 264.1576539075534" fill="none" stroke="black" stroke-weight="1"></path><path id="SvgjsPath1343" d="M 109.90542374117797 153.17559163981275 L 109.90542374117797 153.17559163981275 212.8705893355424 267.87684407443464" fill="none" stroke="black" stroke-weight="1"></path><path id="SvgjsPath1344" d="M 107.17306689283974 150.74228463080894 L 107.17306689283974 150.74228463080894 215.58778216226335 271.55673826049895" fill="none" stroke="black" stroke-weight="1"></path><path id="SvgjsPath1345" d="M 104.45399499617164 148.4445936533561 L 104.45399499617164 148.4445936533561 218.1535370870857 275.1950366516659" fill="none" stroke="black" stroke-weight="1"></path><path id="SvgjsPath1346" d="M 101.74896333143909 146.28826173828358 L 101.74896333143909 146.28826173828358 220.56144105891667 278.7894654298726" fill="none" stroke="black" stroke-weight="1"></path><path id="SvgjsPath1347" d="M 99.05872327893366 144.27867859238324 L 99.05872327893366 144.27867859238324 222.8054755718387 282.3377781941364" fill="none" stroke="black" stroke-weight="1"></path><path id="SvgjsPath1348" d="M 96.3840221102604 142.42086712694908 L 96.3840221102604 142.42086712694908 224.8800317082402 285.8377573644821" fill="none" stroke="black" stroke-weight="1"></path><path id="SvgjsPath1349" d="M 93.72560278076799 140.71947090311505 L 93.72560278076799 140.71947090311505 226.77992415818818 289.2872155678578" fill="none" stroke="black" stroke-weight="1"></path><path id="SvgjsPath1350" d="M 91.08420372317647 139.17874252537086 L 91.08420372317647 139.17874252537086 228.50040418000253 292.6839970051709" fill="none" stroke="black" stroke-weight="1"></path><path id="SvgjsPath1351" d="M 88.46055864246236 137.8025330122651 L 88.46055864246236 137.8025330122651 230.03717146963731 296.0259787985929" fill="none" stroke="black" stroke-weight="1"></path><path id="SvgjsPath1352" d="M 85.85539631205569 136.5942821708643 L 85.85539631205569 136.5942821708643 231.38638490920152 299.31107231828935" fill="none" stroke="black" stroke-weight="1"></path><path id="SvgjsPath1353" d="M 83.26944037140822 135.55700999902717 L 83.26944037140822 135.55700999902717 232.544672167753 302.5372244877449" fill="none" stroke="black" stroke-weight="1"></path><path id="SvgjsPath1354" d="M 80.70340912498692 134.69330913698235 L 80.70340912498692 134.69330913698235 233.5091381303697 305.7024190668693" fill="none" stroke="black" stroke-weight="1"></path><path id="SvgjsPath1355" d="M 78.15801534274975 134.00533838707838 L 78.15801534274975 134.00533838707838 234.27737213442913 308.80467791208207" fill="none" stroke="black" stroke-weight="1"></path><path id="SvgjsPath1356" d="M 75.6339660621581 133.49481731790164 L 75.6339660621581 133.49481731790164 234.84745399500986 311.8420622125879" fill="none" stroke="black" stroke-weight="1"></path><path id="SvgjsPath1357" d="M 73.1319623917826 133.16302196625088 L 73.1319623917826 133.16302196625088 235.2179588043532 314.81267370207024" fill="none" stroke="black" stroke-weight="1"></path><path id="SvgjsPath1358" d="M 70.65269931655487 133.01078164770956 L 70.65269931655487 133.01078164770956 235.387960493391 317.71465584504557" fill="none" stroke="black" stroke-weight="1"></path><path id="SvgjsPath1359" d="M 68.1968655047211 133.03847688378877 L 68.1968655047211 133.03847688378877 235.35703414643586 320.5461949971382" fill="none" stroke="black" stroke-weight="1"></path><path id="SvgjsPath1360" d="M 65.76514311654896 133.24603845082177 L 65.76514311654896 133.24603845082177 235.12525706324902 323.30552153854853" fill="none" stroke="black" stroke-weight="1"></path><path id="SvgjsPath1361" d="M 63.35820761484372 133.63294755298693 L 63.35820761484372 133.63294755298693 234.69320856583127 325.9909109800083" fill="none" stroke="black" stroke-weight="1"></path><path id="SvgjsPath1362" d="M 60.976727577323686 134.19823711902717 L 60.976727577323686 134.19823711902717 234.06196855041964 328.6006850405298" fill="none" stroke="black" stroke-weight="1"></path><path id="SvgjsPath1363" d="M 58.62136451090886 134.94049421942455 L 58.62136451090886 134.94049421942455 233.23311478830925 331.1332126962768" fill="none" stroke="black" stroke-weight="1"></path><path id="SvgjsPath1364" d="M 56.29277266797253 135.85786359798806 L 56.29277266797253 135.85786359798806 232.2087189822467 333.58691119990203" fill="none" stroke="black" stroke-weight="1"></path><path id="SvgjsPath1365" d="M 53.9915988646094 136.94805230902807 L 53.9915988646094 136.94805230902807 230.991341588252 335.96024706971195" fill="none" stroke="black" stroke-weight="1"></path><path id="SvgjsPath1366" d="M 51.71848230096836 138.20833544852627 L 51.71848230096836 138.20833544852627 229.58402541581233 338.2517370480434" fill="none" stroke="black" stroke-weight="1"></path><path id="SvgjsPath1367" d="M 49.474054383701116 139.63556296497666 L 49.474054383701116 139.63556296497666 227.99028802244274 340.4599490282511" fill="none" stroke="black" stroke-weight="1"></path><path id="SvgjsPath1368" d="M 47.258938550575124 141.22616753287383 L 47.258938550575124 141.22616753287383 226.21411292162423 342.58350294972774" fill="none" stroke="black" stroke-weight="1"></path><path id="SvgjsPath1369" d="M 45.073750097300916 142.97617346916897 L 45.073750097300916 142.97617346916897 224.25993962609465 344.62107166039726" fill="none" stroke="black" stroke-weight="1"></path><path id="SvgjsPath1370" d="M 42.91909600662032 144.88120667040675 L 42.91909600662032 144.88120667040675 222.13265255137912 346.5713817461411" fill="none" stroke="black" stroke-weight="1"></path><path id="SvgjsPath1371" d="M 40.795574779704296 146.93650554570615 L 40.795574779704296 146.93650554570615 219.83756880729482 348.43321432664095" fill="none" stroke="black" stroke-weight="1"></path><path id="SvgjsPath1372" d="M 38.703776269905916 149.1369329182579 L 38.703776269905916 149.1369329182579 217.38042490794535 350.2054058171393" fill="none" stroke="black" stroke-weight="1"></path><path id="SvgjsPath1373" d="M 36.64428151891667 151.47698886559118 L 36.64428151891667 151.47698886559118 214.76736243342322 351.88684865564204" fill="none" stroke="black" stroke-weight="1"></path><path id="SvgjsPath1374" d="M 34.617662595369225 153.9508244665151 L 34.617662595369225 153.9508244665151 212.00491267905815 353.4764919951083" fill="none" stroke="black" stroke-weight="1"></path><path id="SvgjsPath1375" d="M 32.624482435933615 156.55225642037595 L 32.624482435933615 156.55225642037595 209.0999803305802 354.973342360196" fill="none" stroke="black" stroke-weight="1"></path><path id="SvgjsPath1376" d="M 30.665294688949004 159.27478250208878 L 30.665294688949004 159.27478250208878 206.05982620600088 356.3764642681516" fill="none" stroke="black" stroke-weight="1"></path><path id="SvgjsPath1377" d="M 28.74064356063647 162.11159781431354 L 28.74064356063647 162.11159781431354 202.8920491073499 357.6849808134564" fill="none" stroke="black" stroke-weight="1"></path></svg></svg>