<svg id="SvgjsSvg1502" width="300" height="400" xmlns="http://www.w3.org/2000/svg" version="1.1" xmlns:xlink="http://www.w3.org/1999/xlink" xmlns:svgjs="http://svgjs.com/svgjs"><defs id="SvgjsDefs1503"></defs><svg id="SvgjsSvg1504" style="overflow: visible;"><path id="SvgjsPath1505" d="M 106.78887323087645 252.30720594368805 L 106.78887323087645 252.30720594368805 58.21425675161474 234.89708581092134" fill="none" stroke="black" stroke-weight="1"></path><path id="SvgjsPath1506" d="M 109.01312868868195 254.8807429930746 L 109.01312868868195 254.8807429930746 55.38400490613313 233.88761723540642" fill="none" stroke="black" stroke-weight="1"></path><path id="SvgjsPath1507" d="M 111.35232737526613 257.3296041623672 L 111.35232737526613 257.3296041623672 52.6968336117241 232.74196489676984" fill="none" stroke="black" stroke-weight="1"></path><path id="SvgjsPath1508" d="M 113.80062251214372 259.647668573985 L 113.80062251214372 259.647668573985 50.158390252335735 231.46685366641816" fill="none" stroke="black" stroke-weight="1"></path><path id="SvgjsPath1509" d="M 116.35189463651989 261.82914227412346 L 116.35189463651989 261.82914227412346 47.774017326491744 230.0693695676267" fill="none" stroke="black" stroke-weight="1"></path><path id="SvgjsPath1510" d="M 118.99976689676056 263.8685727146217 L 118.99976689676056 263.8685727146217 45.54873972022405 228.55693962747964" fill="none" stroke="black" stroke-weight="1"></path><path id="SvgjsPath1511" d="M 121.73762099120037 265.76086238149344 L 121.73762099120037 265.76086238149344 43.487252731697694 226.93731085452103" fill="none" stroke="black" stroke-weight="1"></path><path id="SvgjsPath1512" d="M 124.55861371045006 267.5012815360568 L 124.55861371045006 267.5012815360568 41.593910877092696 225.21852839619604" fill="none" stroke="black" stroke-weight="1"></path><path id="SvgjsPath1513" d="M 127.45569404185616 269.08548003681835 L 127.45569404185616 269.08548003681835 39.8727175053851 223.4089129322276" fill="none" stroke="black" stroke-weight="1"></path><path id="SvgjsPath1514" d="M 130.42162079336032 270.5094982125606 L 130.42162079336032 270.5094982125606 38.32731524767341 221.51703736199534" fill="none" stroke="black" stroke-weight="1"></path><path id="SvgjsPath1515" d="M 133.44898069270866 271.7697767594585 L 133.44898069270866 271.7697767594585 36.96097732463589 219.55170284575607" fill="none" stroke="black" stroke-weight="1"></path><path id="SvgjsPath1516" d="M 136.5302069167713 272.8631656374854 L 136.5302069167713 272.8631656374854 35.776599733589904 217.52191426117435" fill="none" stroke="black" stroke-weight="1"></path><path id="SvgjsPath1517" d="M 139.65759800465975 273.78693194387205 L 139.65759800465975 273.78693194387205 34.77669433444956 215.43685513809797" fill="none" stroke="black" stroke-weight="1"></path><path id="SvgjsPath1518" d="M 142.8233371073681 274.53876674394064 L 142.8233371073681 274.53876674394064 33.96338285166151 213.3058621358274" fill="none" stroke="black" stroke-weight="1"></path><path id="SvgjsPath1519" d="M 146.01951152582453 275.11679084223897 L 146.01951152582453 275.11679084223897 33.33839180693569 211.13839912827893" fill="none" stroke="black" stroke-weight="1"></path><path id="SvgjsPath1520" d="M 149.2381324885184 275.5195594795505 L 149.2381324885184 275.5195594795505 32.903048395288366 208.94403096342432" fill="none" stroke="black" stroke-weight="1"></path><path id="SvgjsPath1521" d="M 152.4711551192684 275.7460659440398 L 152.4711551192684 275.7460659440398 32.65827731458651 206.73239696421325" fill="none" stroke="black" stroke-weight="1"></path><path id="SvgjsPath1522" d="M 155.71049854522332 275.7957440875079 L 155.71049854522332 275.7957440875079 32.60459855642556 204.51318423883004" fill="none" stroke="black" stroke-weight="1"></path><path id="SvgjsPath1523" d="M 158.9480660948356 275.668469740468 L 158.9480660948356 275.668469740468 32.742126163798545 202.29610086861936" fill="none" stroke="black" stroke-weight="1"></path><path id="SvgjsPath1524" d="M 162.17576553532388 275.3645610225045 L 162.17576553532388 275.3645610225045 33.07056795862614 200.0908490423206" fill="none" stroke="black" stroke-weight="1"></path><path id="SvgjsPath1525" d="M 165.38552929904031 274.8847775471397 L 165.38552929904031 274.8847775471397 33.589226239820604 197.9070982053876" fill="none" stroke="black" stroke-weight="1"></path><path id="SvgjsPath1526" d="M 168.5693346481883 274.2303185231957 L 168.5693346481883 274.2303185231957 34.29699945015885 195.75445829313108" fill="none" stroke="black" stroke-weight="1"></path><path id="SvgjsPath1527" d="M 171.7192237274886 273.4028197573966 L 171.7192237274886 273.4028197573966 35.19238480784662 193.64245311621025" fill="none" stroke="black" stroke-weight="1"></path><path id="SvgjsPath1528" d="M 174.8273234546736 272.4043495657039 L 174.8273234546736 272.4043495657039 36.2734818962726 191.5804939666187" fill="none" stroke="black" stroke-weight="1"></path><path id="SvgjsPath1529" d="M 177.88586519909236 271.2374036036036 L 177.88586519909236 271.2374036036036 37.53799720308314 189.5778535117531" fill="none" stroke="black" stroke-weight="1"></path><path id="SvgjsPath1530" d="M 180.88720419924158 269.90489862826723 L 180.88720419924158 269.90489862826723 38.98324959736526 187.64364004343096" fill="none" stroke="black" stroke-weight="1"></path><path id="SvgjsPath1531" d="M 183.82383867068808 268.41016520817794 L 183.82383867068808 268.41016520817794 40.60617673140598 185.78677214782985" fill="none" stroke="black" stroke-weight="1"></path><path id="SvgjsPath1532" d="M 186.6884285566228 266.7569393984439 L 186.6884285566228 266.7569393984439 42.40334235121607 184.01595386126183" fill="none" stroke="black" stroke-weight="1"></path><path id="SvgjsPath1533" d="M 189.47381387418054 264.94935340260605 L 189.47381387418054 264.94935340260605 44.370944497758515 182.33965037547722" fill="none" stroke="black" stroke-weight="1"></path><path id="SvgjsPath1534" d="M 192.17303261066806 262.99192524428133 L 192.17303261066806 262.99192524428133 46.50482457862719 180.76606435480716" fill="none" stroke="black" stroke-weight="1"></path><path id="SvgjsPath1535" d="M 194.77933812497002 260.88954747445683 L 194.77933812497002 260.88954747445683 48.800477287768544 179.3031129259192" fill="none" stroke="black" stroke-weight="1"></path><path id="SvgjsPath1536" d="M 197.28621601063838 258.6474749426598 L 197.28621601063838 258.6474749426598 51.25306134875122 177.95840539926485" fill="none" stroke="black" stroke-weight="1"></path><path id="SvgjsPath1537" d="M 199.68740037851572 256.271311662571 L 199.68740037851572 256.271311662571 53.85741105505208 176.73922177946164" fill="none" stroke="black" stroke-weight="1"></path><path id="SvgjsPath1538" d="M 201.97688951819498 253.7669968049087 L 201.97688951819498 253.7669968049087 56.60804857886633 175.65249211986526" fill="none" stroke="black" stroke-weight="1"></path><path id="SvgjsPath1539" d="M 204.1489608991699 251.14078985259505 L 204.1489608991699 251.14078985259505 59.49919701805156 174.70477677446587" fill="none" stroke="black" stroke-weight="1"></path><path id="SvgjsPath1540" d="M 206.19818547418092 248.3992549553088 L 206.19818547418092 248.3992549553088 62.52479414899774 173.90224759798508" fill="none" stroke="black" stroke-weight="1"></path><path id="SvgjsPath1541" d="M 208.11944124900603 245.54924452252936 L 208.11944124900603 245.54924452252936 65.67850685147921 173.25067014266457" fill="none" stroke="black" stroke-weight="1"></path><path id="SvgjsPath1542" d="M 209.9079260847789 242.59788209608183 L 209.9079260847789 242.59788209608183 68.95374616988575 172.75538689773123" fill="none" stroke="black" stroke-weight="1"></path><path id="SvgjsPath1543" d="M 211.5591697008349 239.55254454499266 L 211.5591697008349 239.55254454499266 72.3436829736702 172.42130161489882" fill="none" stroke="black" stroke-weight="1"></path><path id="SvgjsPath1544" d="M 213.06904484808496 236.42084362715832 L 213.06904484808496 236.42084362715832 75.84126417837363 172.25286476053634" fill="none" stroke="black" stroke-weight="1"></path><path id="SvgjsPath1545" d="M 214.43377762498878 233.2106069639151 L 214.43377762498878 233.2106069639151 79.4392294872148 172.25406013229525" fill="none" stroke="black" stroke-weight="1"></path><path id="SvgjsPath1546" d="M 215.64995691034315 229.92985847506222 L 215.64995691034315 229.92985847506222 83.13012861195222 172.4283926750603" fill="none" stroke="black" stroke-weight="1"></path><path id="SvgjsPath1547" d="M 216.71454288930863 226.586798323241 L 216.71454288930863 226.586798323241 86.90633893055528 172.77887752806913" fill="none" stroke="black" stroke-weight="1"></path><path id="SvgjsPath1548" d="M 217.62487465136348 223.18978241779888 L 217.62487465136348 223.18978241779888 90.76008353815212 173.30803033194667" fill="none" stroke="black" stroke-weight="1"></path><path id="SvgjsPath1549" d="M 218.37867684119416 219.74730152936786 L 218.37867684119416 219.74730152936786 94.68344964676214 174.01785882123025" fill="none" stroke="black" stroke-weight="1"></path><path id="SvgjsPath1550" d="M 218.97406534589868 216.26796006735958 L 218.97406534589868 216.26796006735958 98.66840728847166 174.90985572472428" fill="none" stroke="black" stroke-weight="1"></path><path id="SvgjsPath1551" d="M 219.40955200428763 212.76045457342306 L 219.40955200428763 212.76045457342306 102.70682827597672 175.98499299273033" fill="none" stroke="black" stroke-weight="1"></path><path id="SvgjsPath1552" d="M 219.6840483265121 209.2335519846196 L 219.6840483265121 209.2335519846196 106.79050537379607 177.24371736685805" fill="none" stroke="black" stroke-weight="1"></path><path id="SvgjsPath1553" d="M 219.79686821472146 205.69606772064583 L 219.79686821472146 205.69606772064583 110.91117163295114 178.68594730474052" fill="none" stroke="black" stroke-weight="1"></path><path id="SvgjsPath1554" d="M 219.74772967795064 202.15684364987553 L 219.74772967795064 202.15684364987553 115.06051984152288 180.31107126856406" fill="none" stroke="black" stroke-weight="1"></path><path id="SvgjsPath1555" d="M 219.5367555369507 198.62472598929332 L 219.5367555369507 198.62472598929332 119.23022204322749 182.11794738288796" fill="none" stroke="black" stroke-weight="1"></path><path id="SvgjsPath1556" d="M 219.16447311720097 195.10854319355937 L 219.16447311720097 195.10854319355937 123.4119490760035 184.10490446377855" fill="none" stroke="black" stroke-weight="1"></path><path id="SvgjsPath1557" d="M 218.63181293086984 191.61708388847043 L 218.63181293086984 191.61708388847043 127.59739008257138 186.26974441782545" fill="none" stroke="black" stroke-weight="1"></path><path id="SvgjsPath1558" d="M 217.9401063510191 188.15907490397225 L 217.9401063510191 188.15907490397225 131.77827194501643 188.60974600615523" fill="none" stroke="black" stroke-weight="1"></path><path id="SvgjsPath1559" d="M 217.09108228386452 184.7431594616299 L 217.09108228386452 184.7431594616299 135.94637859565535 191.1216699651151" fill="none" stroke="black" stroke-weight="1"></path><path id="SvgjsPath1560" d="M 216.08686284741088 181.37787557107492 L 216.08686284741088 181.37787557107492 140.0935701567749 193.80176547187926" fill="none" stroke="black" stroke-weight="1"></path><path id="SvgjsPath1561" d="M 214.9299580672619 178.07163468942773 L 214.9299580672619 178.07163468942773 144.2118018622751 196.6457779398356" fill="none" stroke="black" stroke-weight="1"></path><path id="SvgjsPath1562" d="M 213.62325960286356 174.83270069703525 L 213.62325960286356 174.83270069703525 148.29314271481192 199.64895812525577" fill="none" stroke="black" stroke-weight="1"></path><path id="SvgjsPath1563" d="M 212.17003351986145 171.66916924207445 L 212.17003351986145 171.66916924207445 152.3297938327137 202.8060725234413" fill="none" stroke="black" stroke-weight="1"></path><path id="SvgjsPath1564" d="M 210.57391212663762 168.58894750564747 L 210.57391212663762 168.58894750564747 156.31410644173658 206.11141502928263" fill="none" stroke="black" stroke-weight="1"></path><path id="SvgjsPath1565" d="M 208.83888489543116 165.59973443794678 L 208.83888489543116 165.59973443794678 160.238599467627 209.55881983397396" fill="none" stroke="black" stroke-weight="1"></path><path id="SvgjsPath1566" d="M 206.9692884907353 162.70900151488948 L 206.9692884907353 162.70900151488948 164.09597668647137 213.1416755265007" fill="none" stroke="black" stroke-weight="1"></path><path id="SvgjsPath1567" d="M 204.96979592989484 159.92397406331872 L 204.96979592989484 159.92397406331872 167.87914339093444 216.8529403654729" fill="none" stroke="black" stroke-weight="1"></path><path id="SvgjsPath1568" d="M 202.84540490299636 157.25161320144926 L 202.84540490299636 157.25161320144926 171.58122253171197 220.68515868391648" fill="none" stroke="black" stroke-weight="1"></path><path id="SvgjsPath1569" d="M 200.60142528124558 154.69859843969704 L 200.60142528124558 154.69859843969704 175.19557029484582 224.630478386766" fill="none" stroke="black" stroke-weight="1"></path><path id="SvgjsPath1570" d="M 198.2434658450548 152.27131098538194 L 198.2434658450548 152.27131098538194 178.71579107697337 228.68066949803452" fill="none" stroke="black" stroke-weight="1"></path><path id="SvgjsPath1571" d="M 195.77742026501303 149.975817793033 L 195.77742026501303 149.975817793033 182.13575182210133 232.82714371197753" fill="none" stroke="black" stroke-weight="1"></path><path id="SvgjsPath1572" d="M 193.20945237077876 147.81785640016145 L 193.20945237077876 147.81785640016145 185.44959568509918 237.06097490002057" fill="none" stroke="black" stroke-weight="1"></path><path id="SvgjsPath1573" d="M 190.5459807447157 145.80282058640475 L 190.5459807447157 145.80282058640475 188.6517549888027 241.3729205227932" fill="none" stroke="black" stroke-weight="1"></path><path id="SvgjsPath1574" d="M 187.79366267877964 143.93574689188694 L 187.79366267877964 143.93574689188694 191.736963443391 245.75344389431132" fill="none" stroke="black" stroke-weight="1"></path><path id="SvgjsPath1575" d="M 184.95937753475602 142.2213020284911 L 184.95937753475602 142.2213020284911 194.7002675985569 250.1927372431828" fill="none" stroke="black" stroke-weight="1"></path><path id="SvgjsPath1576" d="M 182.05020954943782 140.66377121551028 L 182.05020954943782 140.66377121551028 197.53703750091557 254.6807455136807" fill="none" stroke="black" stroke-weight="1"></path><path id="SvgjsPath1577" d="M 179.07343012772282 139.26704746883036 L 179.07343012772282 139.26704746883036 200.24297653108988 259.2071908476395" fill="none" stroke="black" stroke-weight="1"></path><path id="SvgjsPath1578" d="M 176.03647966788844 138.03462187041845 L 176.03647966788844 138.03462187041845 202.81413039696946 263.76159768638684" fill="none" stroke="black" stroke-weight="1"></path><path id="SvgjsPath1579" d="M 172.9469489644712 136.96957484243575 L 172.9469489644712 136.96957484243575 205.2468952617565 268.3333184303388" fill="none" stroke="black" stroke-weight="1"></path><path id="SvgjsPath1580" d="M 169.8125602352332 136.07456844778645 L 169.8125602352332 136.07456844778645 207.53802498757986 272.91155959244946" fill="none" stroke="black" stroke-weight="1"></path><path id="SvgjsPath1581" d="M 166.6411478196394 135.35183973634685 L 166.6411478196394 135.35183973634685 209.68463747767476 277.48540838043164" fill="none" stroke="black" stroke-weight="1"></path><path id="SvgjsPath1582" d="M 163.44063859708893 134.80319515350564 L 163.44063859708893 134.80319515350564 211.68422010238191 282.0438596415553" fill="none" stroke="black" stroke-weight="1"></path><path id="SvgjsPath1583" d="M 160.2190321738454 134.43000602499143 L 160.2190321738454 134.43000602499143 213.5346341965163 286.5758431028818" fill="none" stroke="black" stroke-weight="1"></path><path id="SvgjsPath1584" d="M 156.98438088818673 134.23320512927236 L 156.98438088818673 134.23320512927236 215.23411861797805 291.07025083901624" fill="none" stroke="black" stroke-weight="1"></path><path id="SvgjsPath1585" d="M 153.7447696837532 134.21328436609576 L 153.7447696837532 134.21328436609576 216.78129235982826 295.5159648988477" fill="none" stroke="black" stroke-weight="1"></path><path id="SvgjsPath1586" d="M 150.50829590139887 134.3702935269951 L 150.50829590139887 134.3702935269951 218.1751562104181 299.90188502231075" fill="none" stroke="black" stroke-weight="1"></path><path id="SvgjsPath1587" d="M 147.28304904005677 134.70384017083688 L 147.28304904005677 134.70384017083688 219.4150934585429 304.2169563779361" fill="none" stroke="black" stroke-weight="1"></path><path id="SvgjsPath1588" d="M 144.07709053720424 135.2130906047192 L 144.07709053720424 135.2130906047192 220.50086964297833 308.4501972518663" fill="none" stroke="black" stroke-weight="1"></path><path id="SvgjsPath1589" d="M 140.89843361946745 135.8967719677699 L 140.89843361946745 135.8967719677699 221.4326313481446 312.590726619092" fill="none" stroke="black" stroke-weight="1"></path><path id="SvgjsPath1590" d="M 137.75502327372806 136.75317541263576 L 137.75502327372806 136.75317541263576 222.21090405002758 316.6277915279171" fill="none" stroke="black" stroke-weight="1"></path><path id="SvgjsPath1591" d="M 134.6547163887941 137.78016037671082 L 134.6547163887941 137.78016037671082 222.83658901885843 320.55079422909023" fill="none" stroke="black" stroke-weight="1"></path><path id="SvgjsPath1592" d="M 131.60526211726938 138.97515993242834 L 131.60526211726938 138.97515993242834 223.3109592874087 324.34931898163563" fill="none" stroke="black" stroke-weight="1"></path><path id="SvgjsPath1593" d="M 128.61428250670753 140.33518720324275 L 128.61428250670753 140.33518720324275 223.63565469608886 328.01315846818494" fill="none" stroke="black" stroke-weight="1"></path><path id="SvgjsPath1594" d="M 125.68925344846276 141.85684282926567 L 125.68925344846276 141.85684282926567 223.81267602834407 331.53233975354607" fill="none" stroke="black" stroke-weight="1"></path><path id="SvgjsPath1595" d="M 122.83748599185512 143.53632346389486 L 122.83748599185512 143.53632346389486 223.84437825210838 334.8971497213485" fill="none" stroke="black" stroke-weight="1"></path><path id="SvgjsPath1596" d="M 120.06610807035445 145.36943128020027 L 120.06610807035445 145.36943128020027 223.73346288530934 338.0981599248686" fill="none" stroke="black" stroke-weight="1"></path><path id="SvgjsPath1597" d="M 117.38204668545866 147.35158446330533 L 117.38204668545866 147.35158446330533 223.4829695055975 341.12625078956194" fill="none" stroke="black" stroke-weight="1"></path><path id="SvgjsPath1598" d="M 114.79201059279777 149.47782866253775 L 114.79201059279777 149.47782866253775 223.09626642660828 343.9726351064114" fill="none" stroke="black" stroke-weight="1"></path><path id="SvgjsPath1599" d="M 112.30247353373878 151.74284937472598 L 112.30247353373878 151.74284937472598 222.57704056513967 346.62888075693274" fill="none" stroke="black" stroke-weight="1"></path><path id="SvgjsPath1600" d="M 109.91965805440363 154.1409852276894 L 109.91965805440363 154.1409852276894 221.92928652564362 349.0869326125618" fill="none" stroke="black" stroke-weight="1"></path><path id="SvgjsPath1601" d="M 107.64951995254421 156.66624213072078 L 107.64951995254421 156.66624213072078 221.15729493037668 351.3391335531711" fill="none" stroke="black" stroke-weight="1"></path><path id="SvgjsPath1602" d="M 105.49773339115004 159.3123082566909 L 105.49773339115004 159.3123082566909 220.26564002543162 353.378244551627" fill="none" stroke="black" stroke-weight="1"></path><path id="SvgjsPath1603" d="M 103.46967671599593 162.0725698183294 L 103.46967671599593 162.0725698183294 219.25916659467262 355.19746377359627" fill="none" stroke="black" stroke-weight="1"></path><path id="SvgjsPath1604" d="M 101.5704190125783 164.94012759924854 L 101.5704190125783 164.94012759924854 218.1429762153142 356.7904446442333" fill="none" stroke="black" stroke-weight="1"></path><path id="SvgjsPath1605" d="M 99.80470743604135 167.9078141983913 L 99.80470743604135 167.9078141983913 216.92241289052072 358.15131283592495" fill="none" stroke="black" stroke-weight="1"></path><path id="SvgjsPath1606" d="M 98.17695534576154 170.96821194480125 L 98.17695534576154 170.96821194480125 215.6030480959468 359.2746821339292" fill="none" stroke="black" stroke-weight="1"></path><path id="SvgjsPath1607" d="M 96.69123127424776 174.1136714379366 L 96.69123127424776 174.1136714379366 214.19066527859266 360.15566913951307" fill="none" stroke="black" stroke-weight="1"></path><path id="SvgjsPath1608" d="M 95.35124875792866 177.336330667188 L 95.35124875792866 177.336330667188 212.69124384770294 360.78990677306354" fill="none" stroke="black" stroke-weight="1"></path><path id="SvgjsPath1609" d="M 94.16035705524561 180.62813466281096 L 94.16035705524561 180.62813466281096 211.11094269869503 361.1735565426117" fill="none" stroke="black" stroke-weight="1"></path><path id="SvgjsPath1610" d="M 93.12153277525084 183.98085562915492 L 93.12153277525084 183.98085562915492 209.45608331225475 361.30331954625774" fill="none" stroke="black" stroke-weight="1"></path><path id="SvgjsPath1611" d="M 92.23737243763522 187.3861135098672 L 92.23737243763522 187.3861135098672 207.73313247178498 361.17644618011695" fill="none" stroke="black" stroke-weight="1"></path><path id="SvgjsPath1612" d="M 91.51008598278094 190.83539693366993 L 91.51008598278094 190.83539693366993 205.94868464333015 360.7907445266088" fill="none" stroke="black" stroke-weight="1"></path><path id="SvgjsPath1613" d="M 90.94149124806167 194.32008448835583 L 90.94149124806167 194.32008448835583 204.1094440629285 360.1445874011746" fill="none" stroke="black" stroke-weight="1"></path><path id="SvgjsPath1614" d="M 90.53300942419578 197.83146626982847 L 90.53300942419578 197.83146626982847 202.22220657705793 359.23691803883025" fill="none" stroke="black" stroke-weight="1"></path><path id="SvgjsPath1615" d="M 90.28566150300973 201.36076565232634 L 90.28566150300973 201.36076565232634 200.29384128244158 358.0672544053304" fill="none" stroke="black" stroke-weight="1"></path><path id="SvgjsPath1616" d="M 90.20006572549019 204.89916122541666 L 90.20006572549019 204.89916122541666 198.3312720119619 356.63569212112236" fill="none" stroke="black" stroke-weight="1"></path><path id="SvgjsPath1617" d="M 90.27643603650353 208.43780884292764 L 90.27643603650353 208.43780884292764 196.34145871380042 354.9429059897088" fill="none" stroke="black" stroke-weight="1"></path><path id="SvgjsPath1618" d="M 90.51458155004511 211.96786372870764 L 90.51458155004511 211.96786372870764 194.33137877116704 352.9901501254935" fill="none" stroke="black" stroke-weight="1"></path><path id="SvgjsPath1619" d="M 90.91390702635483 215.48050258395915 L 90.91390702635483 215.48050258395915 192.30800831011197 350.7792566796582" fill="none" stroke="black" stroke-weight="1"></path><path id="SvgjsPath1620" d="M 91.47341435970662 218.96694564089088 L 91.47341435970662 218.96694564089088 190.27830354292428 348.31263316608965" fill="none" stroke="black" stroke-weight="1"></path><path id="SvgjsPath1621" d="M 92.19170507315292 222.41847860756505 L 92.19170507315292 222.41847860756505 188.24918219451047 345.5932583928529" fill="none" stroke="black" stroke-weight="1"></path><path id="SvgjsPath1622" d="M 93.06698381398867 225.82647444908875 L 93.06698381398867 225.82647444908875 186.22750505892003 342.62467700815967" fill="none" stroke="black" stroke-weight="1"></path><path id="SvgjsPath1623" d="M 94.09706284119812 229.18241495070794 L 94.09706284119812 229.18241495070794 184.2200577328372 339.41099267322124" fill="none" stroke="black" stroke-weight="1"></path><path id="SvgjsPath1624" d="M 95.27936749366803 232.47791200890848 L 95.27936749366803 232.47791200890848 182.2335325723939 335.9568598777786" fill="none" stroke="black" stroke-weight="1"></path><path id="SvgjsPath1625" d="M 96.61094262549958 235.7047285973067 L 96.61094262549958 235.7047285973067 180.2745109190794 332.267474417471" fill="none" stroke="black" stroke-weight="1"></path></svg></svg>