<svg id="SvgjsSvg1001" width="300" height="400" xmlns="http://www.w3.org/2000/svg" version="1.1" xmlns:xlink="http://www.w3.org/1999/xlink" xmlns:svgjs="http://svgjs.com/svgjs"><defs id="SvgjsDefs1002"></defs><svg id="SvgjsSvg1008" style="overflow: visible;"><path id="SvgjsPath1009" d="M 233.17634290086602 216.53863114925363 L 233.17634290086602 216.53863114925363 76.86159137689978 310.2582278979699" fill="none" stroke="black" stroke-weight="1"></path><path id="SvgjsPath1010" d="M 232.44428250966956 220.0762005692867 L 232.44428250966956 220.0762005692867 75.71614422029417 310.0131300775324" fill="none" stroke="black" stroke-weight="1"></path><path id="SvgjsPath1011" d="M 231.51865174440164 223.57608733943002 L 231.51865174440164 223.57608733943002 74.75441936735321 309.7024024691214" fill="none" stroke="black" stroke-weight="1"></path><path id="SvgjsPath1012" d="M 230.40176419991616 227.02954356546402 L 230.40176419991616 227.02954356546402 73.97541420645399 309.3262392673775" fill="none" stroke="black" stroke-weight="1"></path><path id="SvgjsPath1013" d="M 229.0964115134106 230.4279374053489 L 229.0964115134106 230.4279374053489 73.37768057911376 308.8848755620572" fill="none" stroke="black" stroke-weight="1"></path><path id="SvgjsPath1014" d="M 227.60585638678666 233.76277464433417 L 227.60585638678666 233.76277464433417 72.95933052156239 308.37858719110926" fill="none" stroke="black" stroke-weight="1"></path><path id="SvgjsPath1015" d="M 225.9338244315948 237.0257199260721 L 225.9338244315948 237.0257199260721 72.71804309730022 307.8076905682852" fill="none" stroke="black" stroke-weight="1"></path><path id="SvgjsPath1016" d="M 224.08449485694558 240.20861758666737 L 224.08449485694558 240.20861758666737 72.6510723022419 307.1725424853907" fill="none" stroke="black" stroke-weight="1"></path><path id="SvgjsPath1017" d="M 222.0624900236634 243.30351203958952 L 222.0624900236634 243.30351203958952 72.75525602137336 306.4735398893027" fill="none" stroke="black" stroke-weight="1"></path><path id="SvgjsPath1018" d="M 219.87286389079173 246.30266766049618 L 219.87286389079173 246.30266766049618 73.02702601322585 305.7111196338902" fill="none" stroke="black" stroke-weight="1"></path><path id="SvgjsPath1019" d="M 217.52108938332748 249.19858812226508 L 217.52108938332748 249.19858812226508 73.46241889591168 304.8857582069949" fill="none" stroke="black" stroke-weight="1"></path><path id="SvgjsPath1020" d="M 215.0130447127588 251.98403513190806 L 215.0130447127588 251.98403513190806 74.05708810596921 303.9979714326421" fill="none" stroke="black" stroke-weight="1"></path><path id="SvgjsPath1021" d="M 212.35499868459777 254.65204652253377 L 212.35499868459777 254.65204652253377 74.8063167988445 303.0483141486669" fill="none" stroke="black" stroke-weight="1"></path><path id="SvgjsPath1022" d="M 209.55359502963114 257.1959536551391 L 209.55359502963114 257.1959536551391 75.70503165749169 302.0373798599593" fill="none" stroke="black" stroke-weight="1"></path><path id="SvgjsPath1023" d="M 206.6158357980535 259.6093980867337 L 206.6158357980535 259.6093980867337 76.74781757331658 300.9658003675422" fill="none" stroke="black" stroke-weight="1"></path><path id="SvgjsPath1024" d="M 203.54906385798836 261.88634746313625 L 203.54906385798836 261.88634746313625 77.92893316151817 299.83424537371707" fill="none" stroke="black" stroke-weight="1"></path><path id="SvgjsPath1025" d="M 200.3609445421419 264.021110596718 L 200.3609445421419 264.021110596718 79.24232707081059 298.6434220635213" fill="none" stroke="black" stroke-weight="1"></path><path id="SvgjsPath1026" d="M 197.05944648846338 266.00835169140817 L 197.05944648846338 266.00835169140817 80.68165504553477 297.39407466276083" fill="none" stroke="black" stroke-weight="1"></path><path id="SvgjsPath1027" d="M 193.6528217227 267.8431036794052 L 193.6528217227 267.8431036794052 82.2402976963032 296.0869839728931" fill="none" stroke="black" stroke-weight="1"></path><path id="SvgjsPath1028" d="M 190.14958503263026 269.5207806362594 L 190.14958503263026 269.5207806362594 83.9113789335647 294.7229668830516" fill="none" stroke="black" stroke-weight="1"></path><path id="SvgjsPath1029" d="M 186.558492685529 271.037189243296 L 186.558492685529 271.037189243296 85.68778501683441 293.30287585951686" fill="none" stroke="black" stroke-weight="1"></path><path id="SvgjsPath1030" d="M 182.88852054205915 272.38853926872764 L 182.88852054205915 272.38853926872764 87.56218417081186 291.8275984129526" fill="none" stroke="black" stroke-weight="1"></path><path id="SvgjsPath1031" d="M 179.1488416212949 273.57145304126027 L 179.1488416212949 273.57145304126027 89.5270467182102 290.2980565437406" fill="none" stroke="black" stroke-weight="1"></path><path id="SvgjsPath1032" d="M 175.34880317295102 274.5829738925122 L 175.34880317295102 274.5829738925122 91.57466567784495 288.71520616576026" fill="none" stroke="black" stroke-weight="1"></path><path id="SvgjsPath1033" d="M 171.49790331412657 275.42057354714507 L 171.49790331412657 275.42057354714507 93.69717777538749 287.08003650897405" fill="none" stroke="black" stroke-weight="1"></path><path id="SvgjsPath1034" d="M 167.60576728895876 276.0821584422358 L 167.60576728895876 276.0821584422358 95.88658481317472 285.3935695011902" fill="none" stroke="black" stroke-weight="1"></path><path id="SvgjsPath1035" d="M 163.68212341052526 276.56607496009354 L 163.68212341052526 276.56607496009354 98.13477534458926 283.6568591293917" fill="none" stroke="black" stroke-weight="1"></path><path id="SvgjsPath1036" d="M 159.7367787451279 276.8711135614423 L 159.7367787451279 276.8711135614423 100.4335465977841 281.87099078102875" fill="none" stroke="black" stroke-weight="1"></path><path id="SvgjsPath1037" d="M 155.77959459973442 276.99651180863987 L 155.77959459973442 276.99651180863987 102.7746265929228 280.0370805656863" fill="none" stroke="black" stroke-weight="1"></path><path id="SvgjsPath1038" d="M 151.82046187384663 276.9419562713744 L 151.82046187384663 276.9419562713744 105.14969639664417 278.1562746175528" fill="none" stroke="black" stroke-weight="1"></path><path id="SvgjsPath1039" d="M 147.86927633740274 276.707583310077 L 147.86927633740274 276.707583310077 107.55041245714109 276.22974837912284" fill="none" stroke="black" stroke-weight="1"></path><path id="SvgjsPath1040" d="M 143.93591389650626 276.29397873509186 L 143.93591389650626 276.29397873509186 109.96842896306251 274.2587058665843" fill="none" stroke="black" stroke-weight="1"></path><path id="SvgjsPath1041" d="M 140.03020590880388 275.7021763424554 L 140.03020590880388 275.7021763424554 112.395420169414 272.2443789173474" fill="none" stroke="black" stroke-weight="1"></path><path id="SvgjsPath1042" d="M 136.16191461021143 274.93365532994443 L 136.16191461021143 274.93365532994443 114.82310263373682 270.18802642018613" fill="none" stroke="black" stroke-weight="1"></path><path id="SvgjsPath1043" d="M 132.3407087144082 273.99033659985224 L 132.3407087144082 273.99033659985224 117.24325730609551 268.0909335284741" fill="none" stroke="black" stroke-weight="1"></path><path id="SvgjsPath1044" d="M 128.57613924608822 272.87457795773315 L 128.57613924608822 272.87457795773315 119.64775141679513 265.9544108570053" fill="none" stroke="black" stroke-weight="1"></path><path id="SvgjsPath1045" d="M 124.87761566837234 271.58916821911663 L 124.87761566837234 271.58916821911663 122.02856010627919 263.77979366290265" fill="none" stroke="black" stroke-weight="1"></path><path id="SvgjsPath1046" d="M 121.25438236405103 270.1373202389207 L 121.25438236405103 270.1373202389207 124.37778774233152 261.56844101112557" fill="none" stroke="black" stroke-weight="1"></path><path id="SvgjsPath1047" d="M 117.71549552944164 268.5226628809881 L 117.71549552944164 268.5226628809881 126.6876888705131 259.3217349250987" fill="none" stroke="black" stroke-weight="1"></path><path id="SvgjsPath1048" d="M 114.2698005386141 266.7492319478163 L 114.2698005386141 266.7492319478163 128.95068874470877 257.04107952299256" fill="none" stroke="black" stroke-weight="1"></path><path id="SvgjsPath1049" d="M 110.92590983456222 264.8214600931534 L 110.92590983456222 264.8214600931534 131.15940338573694 254.72790014019475" fill="none" stroke="black" stroke-weight="1"></path><path id="SvgjsPath1050" d="M 107.69218140258148 262.7441657426717 L 107.69218140258148 262.7441657426717 133.30665911718177 252.38364243852234" fill="none" stroke="black" stroke-weight="1"></path><path id="SvgjsPath1051" d="M 104.57669787965864 260.52254105041357 L 104.57669787965864 260.52254105041357 135.38551152894485 250.00977150273002" fill="none" stroke="black" stroke-weight="1"></path><path id="SvgjsPath1052" d="M 101.58724635208853 258.1621389211098 L 101.58724635208853 258.1621389211098 137.38926382047026 247.60777092487982" fill="none" stroke="black" stroke-weight="1"></path><path id="SvgjsPath1053" d="M 98.73129889181385 255.66885913080992 L 98.73129889181385 255.66885913080992 139.31148447718002 245.17914187714436" fill="none" stroke="black" stroke-weight="1"></path><path id="SvgjsPath1054" d="M 96.01599388013656 253.04893358051478 L 96.01599388013656 253.04893358051478 141.14602423535015 242.7254021736232" fill="none" stroke="black" stroke-weight="1"></path><path id="SvgjsPath1055" d="M 93.44811816548238 250.30891071966926 L 93.44811816548238 250.30891071966926 142.8870322924699 240.2480853217584" fill="none" stroke="black" stroke-weight="1"></path><path id="SvgjsPath1056" d="M 91.03409009981411 247.45563917844908 L 91.03409009981411 247.45563917844908 144.52897172203978 237.7487395639422" fill="none" stroke="black" stroke-weight="1"></path><path id="SvgjsPath1057" d="M 88.77994349609439 244.49625064975226 L 88.77994349609439 244.49625064975226 146.06663405378652 235.22892690991603" fill="none" stroke="black" stroke-weight="1"></path><path id="SvgjsPath1058" d="M 86.69131254689569 241.43814206368077 L 86.69131254689569 241.43814206368077 147.49515298238816 232.6902221605652" fill="none" stroke="black" stroke-weight="1"></path><path id="SvgjsPath1059" d="M 84.77341774185301 238.28895709906763 L 84.77341774185301 238.28895709906763 148.8100171700137 230.13421192371968" fill="none" stroke="black" stroke-weight="1"></path><path id="SvgjsPath1060" d="M 83.03105281915867 235.05656707826054 L 83.03105281915867 235.05656707826054 150.007082110278 227.56249362257572" fill="none" stroke="black" stroke-weight="1"></path><path id="SvgjsPath1061" d="M 81.46857278371328 231.74905129291534 L 81.46857278371328 231.74905129291534 151.0825810235904 224.97667449735854" fill="none" stroke="black" stroke-weight="1"></path><path id="SvgjsPath1062" d="M 80.08988302188159 228.37467680997446 L 80.08988302188159 228.37467680997446 152.03313475632973 222.37837060084934" fill="none" stroke="black" stroke-weight="1"></path><path id="SvgjsPath1063" d="M 78.89842954006045 224.941877808305 L 78.89842954006045 224.941877808305 152.8557606588002 219.76920578840497" fill="none" stroke="black" stroke-weight="1"></path><path id="SvgjsPath1064" d="M 77.89719035145738 221.459234497644 L 77.89719035145738 221.459234497644 153.54788041950763 217.15081070310129" fill="none" stroke="black" stroke-weight="1"></path><path id="SvgjsPath1065" d="M 77.08866803260867 217.93545167254248 L 77.08866803260867 217.93545167254248 154.10732683593807 214.52482175663408" fill="none" stroke="black" stroke-weight="1"></path><path id="SvgjsPath1066" d="M 76.4748834682411 214.37933695491262 L 76.4748834682411 214.37933695491262 154.53234950471074 211.89288010661534" fill="none" stroke="black" stroke-weight="1"></path><path id="SvgjsPath1067" d="M 76.05737080011279 210.79977877955974 L 76.05737080011279 210.79977877955974 154.82161941671274 209.2566306309029" fill="none" stroke="black" stroke-weight="1"></path><path id="SvgjsPath1068" d="M 75.83717359245767 207.20572417772436 L 75.83717359245767 207.20572417772436 154.97423244559212 206.61772089960544" fill="none" stroke="black" stroke-weight="1"></path><path id="SvgjsPath1069" d="M 75.81484222361838 203.60615641416362 L 75.81484222361838 203.60615641416362 154.98971172078583 203.97780014540484" fill="none" stroke="black" stroke-weight="1"></path><path id="SvgjsPath1070" d="M 75.99043251038708 200.01007253366777 L 75.99043251038708 200.01007253366777 154.86800887908066 201.3385182328393" fill="none" stroke="black" stroke-weight="1"></path><path id="SvgjsPath1071" d="M 76.36350556849247 196.42646087313375 L 76.36350556849247 196.42646087313375 154.60950419154148 198.70152462719184" fill="none" stroke="black" stroke-weight="1"></path><path id="SvgjsPath1072" d="M 76.93312890958202 192.86427859540402 L 76.93312890958202 192.86427859540402 154.21500556548554 196.0684673636282" fill="none" stroke="black" stroke-weight="1"></path><path id="SvgjsPath1073" d="M 77.6978787719571 189.33242930102426 L 77.6978787719571 189.33242930102426 153.6857464240279 193.44099201722833" fill="none" stroke="black" stroke-weight="1"></path><path id="SvgjsPath1074" d="M 78.65584367923577 185.83974077387887 L 78.65584367923577 185.83974077387887 153.02338246855996 190.82074067455576" fill="none" stroke="black" stroke-weight="1"></path><path id="SvgjsPath1075" d="M 79.80462921804833 182.39494291632866 L 79.80462921804833 182.39494291632866 152.22998733235113 188.20935090740676" fill="none" stroke="black" stroke-weight="1"></path><path id="SvgjsPath1076" d="M 81.1413640228237 179.00664592900145 L 81.1413640228237 179.00664592900145 151.30804713626625 185.60845474938142" fill="none" stroke="black" stroke-weight="1"></path><path id="SvgjsPath1077" d="M 82.66270695270796 175.68331878977466 L 82.66270695270796 175.68331878977466 150.26045396037088 183.01967767591566" fill="none" stroke="black" stroke-weight="1"></path><path id="SvgjsPath1078" d="M 84.3648554426765 172.433268085741 L 84.3648554426765 172.433268085741 149.09049824793766 180.4446375884121" fill="none" stroke="black" stroke-weight="1"></path><path id="SvgjsPath1079" d="M 86.24355500796617 169.26461725106685 L 86.24355500796617 169.26461725106685 147.80186016107012 177.8849438031042" fill="none" stroke="black" stroke-weight="1"></path><path id="SvgjsPath1080" d="M 88.29410987807158 166.18528626263748 L 88.29410987807158 166.18528626263748 146.39859990981216 175.3421960452862" fill="none" stroke="black" stroke-weight="1"></path><path id="SvgjsPath1081" d="M 90.5113947337258 163.20297184423936 L 90.5113947337258 163.20297184423936 144.88514707921118 172.81798344953665" fill="none" stroke="black" stroke-weight="1"></path><path id="SvgjsPath1082" d="M 92.88986751752932 160.32512822875918 L 92.88986751752932 160.32512822875918 143.2662889813389 170.31388356656134" fill="none" stroke="black" stroke-weight="1"></path><path id="SvgjsPath1083" d="M 95.4235832862073 157.55894852648365 L 95.4235832862073 157.55894852648365 141.54715806174477 167.83146137727508" fill="none" stroke="black" stroke-weight="1"></path><path id="SvgjsPath1084" d="M 98.10620906987174 154.9113467460699 L 98.10620906987174 154.9113467460699 139.73321839221035 165.37226831473987" fill="none" stroke="black" stroke-weight="1"></path><path id="SvgjsPath1085" d="M 100.93103970114797 152.38894051312465 L 100.93103970114797 152.38894051312465 137.83025128399152 162.93784129456958" fill="none" stroke="black" stroke-weight="1"></path><path id="SvgjsPath1086" d="M 103.89101457460112 149.99803452958645 L 103.89101457460112 149.99803452958645 135.8443400579623 160.52970175440782" fill="none" stroke="black" stroke-weight="1"></path><path id="SvgjsPath1087" d="M 106.9787352945727 147.7446048152544 L 106.9787352945727 147.7446048152544 133.7818540102152 158.14935470307887" fill="none" stroke="black" stroke-weight="1"></path><path id="SvgjsPath1088" d="M 110.18648416731665 145.63428377085083 L 110.18648416731665 145.63428377085083 131.6494316137137 155.79828778000615" fill="none" stroke="black" stroke-weight="1"></path><path id="SvgjsPath1089" d="M 113.50624349121443 143.67234609995276 L 113.50624349121443 143.67234609995276 129.45396299853286 153.47797032548607" fill="none" stroke="black" stroke-weight="1"></path><path id="SvgjsPath1090" d="M 116.9297155968535 141.8636956249801 L 116.9297155968535 141.8636956249801 127.2025717550578 151.18985246239808" fill="none" stroke="black" stroke-weight="1"></path><path id="SvgjsPath1091" d="M 120.44834358687962 140.2128530301933 L 120.44834358687962 140.2128530301933 124.90259610623208 148.93536418992517" fill="none" stroke="black" stroke-weight="1"></path><path id="SvgjsPath1092" d="M 124.05333272378371 138.7239445623371 L 124.05333272378371 138.7239445623371 122.5615694965543 146.7159144898509" fill="none" stroke="black" stroke-weight="1"></path><path id="SvgjsPath1093" d="M 127.73567241216558 137.4006917171726 L 127.73567241216558 137.4006917171726 120.18720064700882 144.5328904459916" fill="none" stroke="black" stroke-weight="1"></path><path id="SvgjsPath1094" d="M 131.48615872052972 136.246401937676 L 131.48615872052972 136.246401937676 117.78735312647987 142.38765637731413" fill="none" stroke="black" stroke-weight="1"></path><path id="SvgjsPath1095" d="M 135.2954173863207 135.2639603471535 L 135.2954173863207 135.2639603471535 115.37002449143532 140.2815529852811" fill="none" stroke="black" stroke-weight="1"></path><path id="SvgjsPath1096" d="M 139.15392724669766 134.45582253793575 L 139.15392724669766 134.45582253793575 112.94332504677345 138.21589651595588" fill="none" stroke="black" stroke-weight="1"></path><path id="SvgjsPath1097" d="M 143.0520440364827 133.82400843367571 L 143.0520440364827 133.82400843367571 110.51545628170044 136.19197793739175" fill="none" stroke="black" stroke-weight="1"></path><path id="SvgjsPath1098" d="M 146.98002449380135 133.3700972405917 L 146.98002449380135 133.3700972405917 108.09468903534528 134.211062132819" fill="none" stroke="black" stroke-weight="1"></path><path id="SvgjsPath1099" d="M 150.928050713163 133.0952235002739 L 150.928050713163 133.0952235002739 105.68934144752139 132.27438711013377" fill="none" stroke="black" stroke-weight="1"></path><path id="SvgjsPath1100" d="M 154.88625468511157 133.00007425392178 L 154.88625468511157 133.00007425392178 103.3077567506063 130.38316322818383" fill="none" stroke="black" stroke-weight="1"></path><path id="SvgjsPath1101" d="M 158.84474296110992 133.08488732509835 L 158.84474296110992 133.08488732509835 100.95828095893413 128.53857244033344" fill="none" stroke="black" stroke-weight="1"></path><path id="SvgjsPath1102" d="M 162.79362138200892 133.34945072529553 L 162.79362138200892 133.34945072529553 98.64924051237611 126.7417675557809" fill="none" stroke="black" stroke-weight="1"></path><path id="SvgjsPath1103" d="M 166.72301980829246 133.79310318379473 L 166.72301980829246 133.79310318379473 96.38891993092338 124.99387151909056" fill="none" stroke="black" stroke-weight="1"></path><path id="SvgjsPath1104" d="M 170.62311679028596 134.41473580049944 L 170.62311679028596 134.41473580049944 94.1855395370824 123.29597670838886" fill="none" stroke="black" stroke-weight="1"></path><path id="SvgjsPath1105" d="M 174.48416411666568 135.21279481760797 L 174.48416411666568 135.21279481760797 92.04723330274726 121.6491442526637" fill="none" stroke="black" stroke-weight="1"></path><path id="SvgjsPath1106" d="M 178.29651117991025 136.18528550319854 L 178.29651117991025 136.18528550319854 89.98202687692334 120.05440336859316" fill="none" stroke="black" stroke-weight="1"></path><path id="SvgjsPath1107" d="M 182.05062909779355 137.32977713702064 L 182.05062909779355 137.32977713702064 87.99781585024901 118.51275071731865" fill="none" stroke="black" stroke-weight="1"></path><path id="SvgjsPath1108" d="M 185.73713453062766 138.6434090860294 L 185.73713453062766 138.6434090860294 86.1023443116885 117.02514978156434" fill="none" stroke="black" stroke-weight="1"></path><path id="SvgjsPath1109" d="M 189.3468131347254 140.12289795447856 L 189.3468131347254 140.12289795447856 84.3031837520615 115.59253026349158" fill="none" stroke="black" stroke-weight="1"></path><path id="SvgjsPath1110" d="M 192.87064259346084 141.7645457906999 L 192.87064259346084 141.7645457906999 82.60771236822696 114.21578750366538" fill="none" stroke="black" stroke-weight="1"></path><path id="SvgjsPath1111" d="M 196.29981516836202 143.5642493300566 L 196.29981516836202 143.5642493300566 81.02309482075685 112.89578192149565" fill="none" stroke="black" stroke-weight="1"></path><path id="SvgjsPath1112" d="M 199.62575971387025 145.51751025096772 L 199.62575971387025 145.51751025096772 79.55626249682105 111.63333847750329" fill="none" stroke="black" stroke-weight="1"></path><path id="SvgjsPath1113" d="M 202.8401631007402 147.6194464183696 L 202.8401631007402 147.6194464183696 78.21389432875763 110.42924615774648" fill="none" stroke="black" stroke-weight="1"></path><path id="SvgjsPath1114" d="M 205.93499099453362 149.8648040865109 L 205.93499099453362 149.8648040865109 77.00239821743382 109.28425748073016" fill="none" stroke="black" stroke-weight="1"></path><path id="SvgjsPath1115" d="M 208.9025079372712 152.24797103058097 L 208.9025079372712 152.24797103058097 75.92789310800583 108.19908802710641" fill="none" stroke="black" stroke-weight="1"></path><path id="SvgjsPath1116" d="M 211.7352966820491 154.76299057434898 L 211.7352966820491 154.76299057434898 74.99619176407076 107.17441599246004" fill="none" stroke="black" stroke-weight="1"></path><path id="SvgjsPath1117" d="M 214.4262767322932 157.40357647875237 L 214.4262767322932 157.40357647875237 74.21278428447391 106.21088176345818" fill="none" stroke="black" stroke-weight="1"></path><path id="SvgjsPath1118" d="M 216.9687220393132 160.1631286542207 L 216.9687220393132 160.1631286542207 73.58282240519199 105.30908751762954" fill="none" stroke="black" stroke-weight="1"></path><path id="SvgjsPath1119" d="M 219.3562778139215 163.03474965746227 L 219.3562778139215 163.03474965746227 73.11110462676439 104.46959684702308" fill="none" stroke="black" stroke-weight="1"></path><path id="SvgjsPath1120" d="M 221.5829764100966 166.0112619314803 L 221.5829764100966 166.0112619314803 72.80206220569332 103.69293440598133" fill="none" stroke="black" stroke-weight="1"></path><path id="SvgjsPath1121" d="M 223.6432522409902 169.08522574572734 L 223.6432522409902 169.08522574572734 72.6597460460864 102.97958558324854" fill="none" stroke="black" stroke-weight="1"></path><path id="SvgjsPath1122" d="M 225.53195568999604 172.2489577915572 L 225.53195568999604 172.2489577915572 72.68781452557575 102.32999619861837" fill="none" stroke="black" stroke-weight="1"></path><path id="SvgjsPath1123" d="M 227.24436598210934 175.49455038649512 L 227.24436598210934 175.49455038649512 72.88952228722349 101.74457222431114" fill="none" stroke="black" stroke-weight="1"></path><path id="SvgjsPath1124" d="M 228.77620298340588 178.8138912393257 L 228.77620298340588 178.8138912393257 73.26771002671738 101.22367953125446" fill="none" stroke="black" stroke-weight="1"></path><path id="SvgjsPath1125" d="M 230.12363789914764 182.19868372659613 L 230.12363789914764 182.19868372659613 73.82479530168249 100.7676436604257" fill="none" stroke="black" stroke-weight="1"></path><path id="SvgjsPath1126" d="M 231.28330284377586 185.6404676298541 L 231.28330284377586 185.6404676298541 74.56276438738675 100.37674961939952" fill="none" stroke="black" stroke-weight="1"></path><path id="SvgjsPath1127" d="M 232.25229925887078 189.1306402817879 L 232.25229925887078 189.1306402817879 75.4831652005109 100.0512417042274" fill="none" stroke="black" stroke-weight="1"></path><path id="SvgjsPath1128" d="M 233.02820515803822 192.66047806841445 L 233.02820515803822 192.66047806841445 76.58710130998874 99.79132334676055" fill="none" stroke="black" stroke-weight="1"></path><path id="SvgjsPath1129" d="M 233.60908118061428 196.22115823357117 L 233.60908118061428 196.22115823357117 77.87522705121314 99.59715698751174" fill="none" stroke="black" stroke-weight="1"></path></svg></svg>