<svg id="SvgjsSvg1378" width="300" height="400" xmlns="http://www.w3.org/2000/svg" version="1.1" xmlns:xlink="http://www.w3.org/1999/xlink" xmlns:svgjs="http://svgjs.com/svgjs"><defs id="SvgjsDefs1379"></defs><svg id="SvgjsSvg1380" style="overflow: visible;"><path id="SvgjsPath1381" d="M 155.91571935640508 134.2425507197059 L 155.91571935640508 134.2425507197059 161.57671578775924 1.882046972688812" fill="none" stroke="black" stroke-weight="1"></path><path id="SvgjsPath1382" d="M 155.4904913615161 133.66532979722365 L 155.4904913615161 133.66532979722365 159.81249729780234 1.4718208979346912" fill="none" stroke="black" stroke-weight="1"></path><path id="SvgjsPath1383" d="M 155.19644587581664 133.26640839987022 L 155.19644587581664 133.26640839987022 158.0452711536878 1.1887933099911834" fill="none" stroke="black" stroke-weight="1"></path><path id="SvgjsPath1384" d="M 155.0345019879674 133.04678362338484 L 155.0345019879674 133.04678362338484 156.27614181423007 1.0331410918877282" fill="none" stroke="black" stroke-weight="1"></path><path id="SvgjsPath1385" d="M 155.0051657353663 133.0070044153303 L 155.0051657353663 133.0070044153303 154.50621492767868 1.0049615211939624" fill="none" stroke="black" stroke-weight="1"></path><path id="SvgjsPath1386" d="M 155.10852877603304 133.1471702030101 L 155.10852877603304 133.1471702030101 152.73659664072406 1.1042722092243764" fill="none" stroke="black" stroke-weight="1"></path><path id="SvgjsPath1387" d="M 155.34426814805462 133.46693064495201 L 155.34426814805462 133.46693064495201 150.96839290719208 1.3310110900314953" fill="none" stroke="black" stroke-weight="1"></path><path id="SvgjsPath1388" d="M 155.71164711719967 133.96548650657917 L 155.71164711719967 133.96548650657917 149.2027087968586 1.6850364591956009" fill="none" stroke="black" stroke-weight="1"></path><path id="SvgjsPath1389" d="M 156.20951711055858 134.64159165788038 L 156.20951711055858 134.64159165788038 147.4406478048171 2.1661270623849305" fill="none" stroke="black" stroke-weight="1"></path><path id="SvgjsPath1390" d="M 156.8363207313181 135.4935561880862 L 156.8363207313181 135.4935561880862 145.68331116183006 2.7739822336327222" fill="none" stroke="black" stroke-weight="1"></path><path id="SvgjsPath1391" d="M 157.5900958470452 136.5192506295656 L 157.5900958470452 136.5192506295656 143.93179714609556 3.5082220832434814" fill="none" stroke="black" stroke-weight="1"></path><path id="SvgjsPath1392" d="M 158.4684807411397 137.71611128038626 L 158.4684807411397 137.71611128038626 142.18720039685923 4.368387735211627" fill="none" stroke="black" stroke-weight="1"></path><path id="SvgjsPath1393" d="M 159.4687203144247 139.08114661223408 L 159.4687203144247 139.08114661223408 140.45061123030018 5.3539416140044125" fill="none" stroke="black" stroke-weight="1"></path><path id="SvgjsPath1394" d="M 160.5876733211882 140.6109447476761 L 160.5876733211882 140.6109447476761 138.72311495811917 6.464267780528701" fill="none" stroke="black" stroke-weight="1"></path><path id="SvgjsPath1395" d="M 161.82182062137014 142.30168198807718 L 161.82182062137014 142.30168198807718 137.00579120925386 7.698672317073118" fill="none" stroke="black" stroke-weight="1"></path><path id="SvgjsPath1396" d="M 163.16727442801917 144.14913237085528 L 163.16727442801917 144.14913237085528 135.29971325514595 9.056383760983891" fill="none" stroke="black" stroke-weight="1"></path><path id="SvgjsPath1397" d="M 164.6197885266225 146.14867823218702 L 164.6197885266225 146.14867823218702 133.6059473389816 10.53655358680399" fill="none" stroke="black" stroke-weight="1"></path><path id="SvgjsPath1398" d="M 166.17476944045242 148.29532174876235 L 166.17476944045242 148.29532174876235 131.92555200932387 12.138256736573908" fill="none" stroke="black" stroke-weight="1"></path><path id="SvgjsPath1399" d="M 167.82728851367713 150.58369742974025 L 167.82728851367713 150.58369742974025 130.25957745855462 13.86049219796277" fill="none" stroke="black" stroke-weight="1"></path><path id="SvgjsPath1400" d="M 169.5720948816578 153.00808552768126 L 169.5720948816578 153.00808552768126 128.6090648665383 15.702183629868216" fill="none" stroke="black" stroke-weight="1"></path><path id="SvgjsPath1401" d="M 171.4036292956064 155.56242633493744 L 171.4036292956064 155.56242633493744 126.97504574991831 17.66218003509522" fill="none" stroke="black" stroke-weight="1"></path><path id="SvgjsPath1402" d="M 173.31603876661205 158.2403353297656 L 173.31603876661205 158.2403353297656 125.35854131745302 19.739256479690965" fill="none" stroke="black" stroke-weight="1"></path><path id="SvgjsPath1403" d="M 175.30319199196515 161.03511913430674 L 175.30319199196515 161.03511913430674 123.76056183179317 21.932114858489314" fill="none" stroke="black" stroke-weight="1"></path><path id="SvgjsPath1404" d="M 177.35869552472397 163.93979224454483 L 177.35869552472397 163.93979224454483 122.18210597810082 24.23938470638427" fill="none" stroke="black" stroke-weight="1"></path><path id="SvgjsPath1405" d="M 179.4759106455801 166.9470944904287 L 179.4759106455801 166.9470944904287 120.62416023990363 26.659624054825713" fill="none" stroke="black" stroke-weight="1"></path><path id="SvgjsPath1406" d="M 181.64797089429499 170.04950918251637 L 181.64797089429499 170.04950918251637 119.0876982825746 29.191320333002977" fill="none" stroke="black" stroke-weight="1"></path><path id="SvgjsPath1407" d="M 183.86780021630133 173.23928189978403 L 183.86780021630133 173.23928189978403 117.57368034482309 31.83289131315263" fill="none" stroke="black" stroke-weight="1"></path><path id="SvgjsPath1408" d="M 186.12813167849777 176.50843987163998 L 186.12813167849777 176.50843987163998 116.08305263857676 34.582686099398785" fill="none" stroke="black" stroke-weight="1"></path><path id="SvgjsPath1409" d="M 188.42152670681355 179.8488119056992 L 188.42152670681355 179.8488119056992 114.61674675762998 37.43898615950985" fill="none" stroke="black" stroke-weight="1"></path><path id="SvgjsPath1410" d="M 190.740394796788 183.2520488115086 L 190.740394796788 183.2520488115086 113.17567909542805 40.40000639892472" fill="none" stroke="black" stroke-weight="1"></path><path id="SvgjsPath1411" d="M 193.07701364720043 186.70964426917516 L 193.07701364720043 186.70964426917516 111.76075027235109 43.46389627637919" fill="none" stroke="black" stroke-weight="1"></path><path id="SvgjsPath1412" d="M 195.42354966570034 190.2129560907357 L 195.42354966570034 190.2129560907357 110.37284457285554 46.62874096043379" fill="none" stroke="black" stroke-weight="1"></path><path id="SvgjsPath1413" d="M 197.77207879443242 193.7532278211258 L 197.77207879443242 193.7532278211258 109.01282939282535 49.89256252618105" fill="none" stroke="black" stroke-weight="1"></path><path id="SvgjsPath1414" d="M 200.114607602825 197.3216106247573 L 200.114607602825 197.3216106247573 107.68155469747762 53.25332119138443" fill="none" stroke="black" stroke-weight="1"></path><path id="SvgjsPath1415" d="M 202.4430945940162 200.90918540299907 L 202.4430945940162 200.90918540299907 106.37985249016211 56.70891659127554" fill="none" stroke="black" stroke-weight="1"></path><path id="SvgjsPath1416" d="M 204.74947167083366 204.50698508727825 L 204.74947167083366 204.50698508727825 105.10853629238609 60.257189091214" fill="none" stroke="black" stroke-weight="1"></path><path id="SvgjsPath1417" d="M 207.02566570682038 208.1060170520821 L 207.02566570682038 208.1060170520821 103.86840063539007 63.89592113638858" fill="none" stroke="black" stroke-weight="1"></path><path id="SvgjsPath1418" d="M 209.26362016751165 211.69728559183812 L 209.26362016751165 211.69728559183812 102.66022056359155 67.62283863771685" fill="none" stroke="black" stroke-weight="1"></path><path id="SvgjsPath1419" d="M 211.4553167270203 215.27181440549344 L 211.4553167270203 215.27181440549344 101.48475115020742 71.4356123930769" fill="none" stroke="black" stroke-weight="1"></path><path id="SvgjsPath1420" d="M 213.59279682497498 218.82066903259263 L 213.59279682497498 218.82066903259263 100.34272702535783 75.33185954298284" fill="none" stroke="black" stroke-weight="1"></path><path id="SvgjsPath1421" d="M 215.66818310898304 222.33497918477548 L 215.66818310898304 222.33497918477548 99.23486191694641 79.30914505979409" fill="none" stroke="black" stroke-weight="1"></path><path id="SvgjsPath1422" d="M 217.67370070805538 225.80596091687917 L 217.67370070805538 225.80596091687917 98.16184820460325 83.36498326952918" fill="none" stroke="black" stroke-weight="1"></path><path id="SvgjsPath1423" d="M 219.60169828282883 229.22493858222552 L 219.60169828282883 229.22493858222552 97.12435648697053 87.49683940532994" fill="none" stroke="black" stroke-weight="1"></path><path id="SvgjsPath1424" d="M 221.4446687989632 232.58336651722055 L 221.4446687989632 232.58336651722055 96.1230351625999 91.70213119160954" fill="none" stroke="black" stroke-weight="1"></path><path id="SvgjsPath1425" d="M 223.1952699707572 235.872850401062 L 223.1952699707572 235.872850401062 95.15851002472473 95.97823045788938" fill="none" stroke="black" stroke-weight="1"></path><path id="SvgjsPath1426" d="M 224.84634432283758 239.08516823717062 L 224.84634432283758 239.08516823717062 94.23138387015952 100.32246478132141" fill="none" stroke="black" stroke-weight="1"></path><path id="SvgjsPath1427" d="M 226.39093881870627 242.21229090389863 L 226.39093881870627 242.21229090389863 93.34223612257162 104.73211915686412" fill="none" stroke="black" stroke-weight="1"></path><path id="SvgjsPath1428" d="M 227.82232400600088 245.2464022231535 L 227.82232400600088 245.2464022231535 92.49162247036024 109.2044376940735" fill="none" stroke="black" stroke-weight="1"></path><path id="SvgjsPath1429" d="M 229.13401262950848 248.17991849677145 L 229.13401262950848 248.17991849677145 91.68007451936938 113.73662533944376" fill="none" stroke="black" stroke-weight="1"></path><path id="SvgjsPath1430" d="M 230.31977766429202 251.0055074618144 L 230.31977766429202 251.0055074618144 90.90809946065136 118.32584962322596" fill="none" stroke="black" stroke-weight="1"></path><path id="SvgjsPath1431" d="M 231.3736697227174 253.7161066174079 L 231.3736697227174 253.7161066174079 90.17617975348901 122.9692424296281" fill="none" stroke="black" stroke-weight="1"></path><path id="SvgjsPath1432" d="M 232.2900337907227 256.3049408773158 L 232.2900337907227 256.3049408773158 89.48477282387428 127.66390178929547" fill="none" stroke="black" stroke-weight="1"></path><path id="SvgjsPath1433" d="M 233.06352525033003 258.765539504127 L 233.06352525033003 258.765539504127 88.83431077863195 132.4068936929457" fill="none" stroke="black" stroke-weight="1"></path><path id="SvgjsPath1434" d="M 233.68912514717368 261.0917522827297 L 233.68912514717368 261.0917522827297 88.22520013536678 137.19525392503033" fill="none" stroke="black" stroke-weight="1"></path><path id="SvgjsPath1435" d="M 234.16215466368925 263.2777648926454 L 234.16215466368925 263.2777648926454 87.65782156840346 142.02598991627193" fill="none" stroke="black" stroke-weight="1"></path><path id="SvgjsPath1436" d="M 234.47828876058458 265.3181134408028 L 234.47828876058458 265.3181134408028 87.13252967087735 146.8960826139235" fill="none" stroke="black" stroke-weight="1"></path><path id="SvgjsPath1437" d="M 234.6335689512777 267.2076981184243 L 234.6335689512777 267.2076981184243 86.64965273312542 151.80248836857703" fill="none" stroke="black" stroke-weight="1"></path><path id="SvgjsPath1438" d="M 234.62441517614678 268.94179594789273 L 234.62441517614678 268.94179594789273 86.20949253751543 156.74214083634664" fill="none" stroke="black" stroke-weight="1"></path><path id="SvgjsPath1439" d="M 234.44763674567253 270.516072587735 L 234.44763674567253 270.516072587735 85.81232416984183 161.71195289523223" fill="none" stroke="black" stroke-weight="1"></path><path id="SvgjsPath1440" d="M 234.10044232387708 271.92659316621894 L 234.10044232387708 271.92659316621894 85.45839584740598 166.7088185744717" fill="none" stroke="black" stroke-weight="1"></path><path id="SvgjsPath1441" d="M 233.5804489258485 273.1698321164833 L 233.5804489258485 273.1698321164833 85.14792876388859 171.7296149956702" fill="none" stroke="black" stroke-weight="1"></path><path id="SvgjsPath1442" d="M 232.88568990559997 274.2426819886187 L 232.88568990559997 274.2426819886187 84.88111695111068 176.7712043244988" fill="none" stroke="black" stroke-weight="1"></path><path id="SvgjsPath1443" d="M 232.01462191302863 275.14246121667423 L 232.01462191302863 275.14246121667423 84.65812715777018 181.83043573173742" fill="none" stroke="black" stroke-weight="1"></path><path id="SvgjsPath1444" d="M 230.9661308013086 275.8669208211757 L 230.9661308013086 275.8669208211757 84.47909874522925 186.90414736244205" fill="none" stroke="black" stroke-weight="1"></path><path id="SvgjsPath1445" d="M 229.73953646867312 276.4142500304032 L 229.73953646867312 276.4142500304032 84.34414360041812 191.98916831199952" fill="none" stroke="black" stroke-weight="1"></path><path id="SvgjsPath1446" d="M 228.33459662119645 276.7830808063771 L 228.33459662119645 276.7830808063771 84.25334606590933 197.08232060784132" fill="none" stroke="black" stroke-weight="1"></path><path id="SvgjsPath1447" d="M 226.75150944588364 276.9724912642409 L 226.75150944588364 276.9724912642409 84.20676288720634 202.18042119557145" fill="none" stroke="black" stroke-weight="1"></path><path id="SvgjsPath1448" d="M 224.99091518609185 276.9820079764929 L 224.99091518609185 276.9820079764929 84.20442317727951 207.28028392827326" fill="none" stroke="black" stroke-weight="1"></path><path id="SvgjsPath1449" d="M 223.0538966140545 276.8116071563088 L 223.0538966140545 276.8116071563088 84.24632839837138 212.3787215577462" fill="none" stroke="black" stroke-weight="1"></path><path id="SvgjsPath1450" d="M 220.94197839802894 276.46171471699597 L 220.94197839802894 276.46171471699597 84.33245236108282 217.47254772643345" fill="none" stroke="black" stroke-weight="1"></path><path id="SvgjsPath1451" d="M 218.6571253643556 275.93320520743225 L 218.6571253643556 275.93320520743225 84.46274124074061 222.55857895879046" fill="none" stroke="black" stroke-weight="1"></path><path id="SvgjsPath1452" d="M 216.2017396574754 275.22739962614907 L 216.2017396574754 275.22739962614907 84.63711361103604 227.63363665085484" fill="none" stroke="black" stroke-weight="1"></path><path id="SvgjsPath1453" d="M 213.5786568037114 274.34606211952325 L 213.5786568037114 274.34606211952325 84.85546049491377 232.69454905676892" fill="none" stroke="black" stroke-weight="1"></path><path id="SvgjsPath1454" d="M 210.79114068735862 273.2913955723296 L 210.79114068735862 273.2913955723296 85.11764543267884 237.7381532710192" fill="none" stroke="black" stroke-weight="1"></path><path id="SvgjsPath1455" d="M 207.84287745035212 272.06603610167645 L 207.84287745035212 272.06603610167645 85.42350456727964 242.76129720514777" fill="none" stroke="black" stroke-weight="1"></path><path id="SvgjsPath1456" d="M 204.73796832947215 270.6730464680855 L 204.73796832947215 270.6730464680855 85.77284674671321 247.7608415577066" fill="none" stroke="black" stroke-weight="1"></path><path id="SvgjsPath1457" d="M 201.48092144771124 269.1159084201858 L 201.48092144771124 269.1159084201858 86.16545364348896 252.7336617762172" fill="none" stroke="black" stroke-weight="1"></path><path id="SvgjsPath1458" d="M 198.07664257904077 267.39851399215524 L 198.07664257904077 267.39851399215524 86.60107989107632 257.6766500099156" fill="none" stroke="black" stroke-weight="1"></path><path id="SvgjsPath1459" d="M 194.5304249083933 265.5251557756622 L 194.5304249083933 265.5251557756622 87.0794532372508 262.58671705205654" fill="none" stroke="black" stroke-weight="1"></path><path id="SvgjsPath1460" d="M 190.8479378111885 263.50051619062174 L 190.8479378111885 263.50051619062174 87.60027471424277 267.4607942705687" fill="none" stroke="black" stroke-weight="1"></path><path id="SvgjsPath1461" d="M 187.03521467919524 261.3296557815847 L 187.03521467919524 261.3296557815847 88.16321882558256 272.2958355258483" fill="none" stroke="black" stroke-weight="1"></path><path id="SvgjsPath1462" d="M 183.09863982190768 259.01800056901124 L 183.09863982190768 259.01800056901124 88.76793374952521 277.08881907449836" fill="none" stroke="black" stroke-weight="1"></path><path id="SvgjsPath1463" d="M 179.04493447494056 256.5713284870462 L 179.04493447494056 256.5713284870462 89.4140415589276 281.836749457819" fill="none" stroke="black" stroke-weight="1"></path><path id="SvgjsPath1464" d="M 174.88114194918253 253.99575494169213 L 174.88114194918253 253.99575494169213 90.10113845744056 286.5366593738729" fill="none" stroke="black" stroke-weight="1"></path><path id="SvgjsPath1465" d="M 170.61461195661343 251.29771752547984 L 170.61461195661343 251.29771752547984 90.82879503186844 291.18561153195077" fill="none" stroke="black" stroke-weight="1"></path><path id="SvgjsPath1466" d="M 166.25298415075184 248.48395992683893 L 166.25298415075184 248.48395992683893 91.59655652053854 295.7807004882841" fill="none" stroke="black" stroke-weight="1"></path><path id="SvgjsPath1467" d="M 161.80417092168366 245.56151507438958 L 161.80417092168366 245.56151507438958 92.40394309751213 300.31905446185147" fill="none" stroke="black" stroke-weight="1"></path><path id="SvgjsPath1468" d="M 157.276339487489 242.53768755828287 L 157.276339487489 242.53768755828287 93.25045017246015 304.7978371291495" fill="none" stroke="black" stroke-weight="1"></path><path id="SvgjsPath1469" d="M 152.67789332566684 239.42003537253032 L 152.67789332566684 239.42003537253032 94.13554870601575 309.2142493968015" fill="none" stroke="black" stroke-weight="1"></path><path id="SvgjsPath1470" d="M 148.01745298981098 236.21635102395422 L 148.01745298981098 236.21635102395422 95.05868554040671 313.5655311509009" fill="none" stroke="black" stroke-weight="1"></path><path id="SvgjsPath1471" d="M 143.30383635835264 232.93464205497972 L 143.30383635835264 232.93464205497972 96.01928374516088 317.8489629819914" fill="none" stroke="black" stroke-weight="1"></path><path id="SvgjsPath1472" d="M 138.54603836361045 229.58311102894797 L 138.54603836361045 229.58311102894797 97.01674297766917 322.0618678846106" fill="none" stroke="black" stroke-weight="1"></path><path id="SvgjsPath1473" d="M 133.75321025071352 226.17013502798073 L 133.75321025071352 226.17013502798073 98.05043985837986 326.2016129303301" fill="none" stroke="black" stroke-weight="1"></path><path id="SvgjsPath1474" d="M 128.9346384171467 222.7042447146366 L 128.9346384171467 222.7042447146366 99.11972836039092 330.2656109132511" fill="none" stroke="black" stroke-weight="1"></path><path id="SvgjsPath1475" d="M 124.09972288474196 219.1941030096984 L 124.09972288474196 219.1941030096984 100.2239402131953 334.2513219669229" fill="none" stroke="black" stroke-weight="1"></path><path id="SvgjsPath1476" d="M 119.25795545686871 215.6484834393818 L 119.25795545686871 215.6484834393818 101.3623853203288 338.15625515167756" fill="none" stroke="black" stroke-weight="1"></path><path id="SvgjsPath1477" d="M 114.41889761438982 212.07624820608984 L 114.41889761438982 212.07624820608984 102.53435219065729 341.97797001138554" fill="none" stroke="black" stroke-weight="1"></path><path id="SvgjsPath1478" d="M 109.59215820461527 208.48632603752134 L 109.59215820461527 208.48632603752134 103.73910838303613 345.71407809866196" fill="none" stroke="black" stroke-weight="1"></path><path id="SvgjsPath1479" d="M 104.78737097803165 204.88768986950268 L 104.78737097803165 204.88768986950268 104.97590096406145 349.3622444675675" fill="none" stroke="black" stroke-weight="1"></path><path id="SvgjsPath1480" d="M 100.01417202797782 201.28933441832012 L 100.01417202797782 201.28933441832012 106.24395697862957 352.92018913287484" fill="none" stroke="black" stroke-weight="1"></path><path id="SvgjsPath1481" d="M 95.28217718871187 197.70025369861466 L 95.28217718871187 197.70025369861466 107.5424839330083 356.3856884949841" fill="none" stroke="black" stroke-weight="1"></path><path id="SvgjsPath1482" d="M 90.60095944742984 194.12941854302812 L 90.60095944742984 194.12941854302812 108.8706702901201 359.75657672960097" fill="none" stroke="black" stroke-weight="1"></path><path id="SvgjsPath1483" d="M 85.98002642579598 190.58575417979475 L 85.98002642579598 190.58575417979475 110.22768597672602 363.0307471413057" fill="none" stroke="black" stroke-weight="1"></path><path id="SvgjsPath1484" d="M 81.42879798638272 187.07811792431767 L 81.42879798638272 187.07811792431767 111.61268290219482 366.2061534801702" fill="none" stroke="black" stroke-weight="1"></path><path id="SvgjsPath1485" d="M 76.95658401914173 183.61527704049416 L 76.95658401914173 183.61527704049416 113.02479548853154 369.2808112205962" fill="none" stroke="black" stroke-weight="1"></path><path id="SvgjsPath1486" d="M 72.5725624625908 180.20588682712088 L 72.5725624625908 180.20588682712088 114.46314121133611 372.2527988015808" fill="none" stroke="black" stroke-weight="1"></path><path id="SvgjsPath1487" d="M 68.28575761385055 176.85846898415537 L 68.28575761385055 176.85846898415537 115.92682115135182 375.1202588276278" fill="none" stroke="black" stroke-weight="1"></path><path id="SvgjsPath1488" d="M 64.10501878095816 173.58139031290332 L 64.10501878095816 173.58139031290332 117.41492055626111 377.8813992295612" fill="none" stroke="black" stroke-weight="1"></path><path id="SvgjsPath1489" d="M 60.038999330066275 170.3828418033735 L 60.038999330066275 170.3828418033735 118.92650941237552 380.53449438450855" fill="none" stroke="black" stroke-weight="1"></path><path id="SvgjsPath1490" d="M 56.09613617916415 167.27081816106767 L 56.09613617916415 167.27081816106767 120.46064302586446 383.07788619435996" fill="none" stroke="black" stroke-weight="1"></path><path id="SvgjsPath1491" d="M 52.28462978887977 164.2530978243812 L 52.28462978887977 164.2530978243812 122.01636261315757 385.5099851220254" fill="none" stroke="black" stroke-weight="1"></path><path id="SvgjsPath1492" d="M 48.61242469969649 161.33722352255725 L 48.61242469969649 161.33722352255725 123.59269590015376 387.8292711848432" fill="none" stroke="black" stroke-weight="1"></path><path id="SvgjsPath1493" d="M 45.087190663589055 158.5304834227926 L 45.087190663589055 158.5304834227926 125.18865772986042 390.03429490452015" fill="none" stroke="black" stroke-weight="1"></path><path id="SvgjsPath1494" d="M 41.71630441661806 155.83989291361448 L 41.71630441661806 155.83989291361448 126.8032506780849 392.12367821300813" fill="none" stroke="black" stroke-weight="1"></path><path id="SvgjsPath1495" d="M 38.50683213745653 153.27217707006355 L 38.50683213745653 153.27217707006355 128.4354656767917 394.0961153137516" fill="none" stroke="black" stroke-weight="1"></path><path id="SvgjsPath1496" d="M 35.46551263512892 150.83375384450795 L 35.46551263512892 150.83375384450795 130.08428264473764 395.9503734977683" fill="none" stroke="black" stroke-weight="1"></path><path id="SvgjsPath1497" d="M 32.59874130745732 148.53071802510547 L 32.59874130745732 148.53071802510547 131.74867112498896 397.6852939140518" fill="none" stroke="black" stroke-weight="1"></path><path id="SvgjsPath1498" d="M 29.912554909805635 146.36882600200664 L 29.912554909805635 146.36882600200664 133.4275909289238 399.2997922938161" fill="none" stroke="black" stroke-weight="1"></path><path id="SvgjsPath1499" d="M 27.41261717172401 144.35348137937768 L 27.41261717172401 144.35348137937768 135.11999278631578 400.792859628128" fill="none" stroke="black" stroke-weight="1"></path><path id="SvgjsPath1500" d="M 25.104205297000675 142.4897214692039 L 25.104205297000675 142.4897214692039 136.82481900109417 402.16356279850515" fill="none" stroke="black" stroke-weight="1"></path><path id="SvgjsPath1501" d="M 22.992197380456417 140.78220470063343 L 22.992197380456417 140.78220470063343 138.54100411236917 403.41104516008414" fill="none" stroke="black" stroke-weight="1"></path></svg></svg>