<svg id="SvgjsSvg1130" width="350" height="300" xmlns="http://www.w3.org/2000/svg" version="1.1" xmlns:xlink="http://www.w3.org/1999/xlink" xmlns:svgjs="http://svgjs.com/svgjs"><defs id="SvgjsDefs1131"></defs><svg id="SvgjsSvg1132" style="overflow: visible;"><path id="SvgjsPath1133" d="M 275.09107256021707 202.4630221075753 L 275.09107256021707 202.4630221075753 247.6830919460324 53.77401953267217" fill="none" stroke="black" stroke-weight="1"></path><path id="SvgjsPath1134" d="M 272.7212791593817 203.25102808093033 L 272.7212791593817 203.25102808093033 246.4696844594509 56.296702830335605" fill="none" stroke="black" stroke-weight="1"></path><path id="SvgjsPath1135" d="M 270.11973084895664 203.91843161273263 L 270.11973084895664 203.91843161273263 245.21473558376383 59.066092967239754" fill="none" stroke="black" stroke-weight="1"></path><path id="SvgjsPath1136" d="M 267.2929301448577 204.46356454172982 L 267.2929301448577 204.46356454172982 243.91902962116825 62.07526791031276" fill="none" stroke="black" stroke-weight="1"></path><path id="SvgjsPath1137" d="M 264.24794257667577 204.88506431949915 L 264.24794257667577 204.88506431949915 242.58337634571362 65.31670628934513" fill="none" stroke="black" stroke-weight="1"></path><path id="SvgjsPath1138" d="M 260.99237902753254 205.181877416109 L 260.99237902753254 205.181877416109 241.2086104972198 68.7823061964976" fill="none" stroke="black" stroke-weight="1"></path><path id="SvgjsPath1139" d="M 257.53437671083606 205.3532619533951 L 257.53437671083606 205.3532619533951 239.79559125959148 72.4634054368519" fill="none" stroke="black" stroke-weight="1"></path><path id="SvgjsPath1140" d="M 253.88257883148532 205.39878955926963 L 253.88257883148532 205.39878955926963 238.3452017238564 76.35080317938663" fill="none" stroke="black" stroke-weight="1"></path><path id="SvgjsPath1141" d="M 250.04611298235912 205.3183464384282 L 250.04611298235912 205.3183464384282 236.85834833626228 80.43478295426283" fill="none" stroke="black" stroke-weight="1"></path><path id="SvgjsPath1142" d="M 246.03456833008744 205.11213365677892 L 246.03456833008744 205.11213365677892 235.33596033177707 84.70513693893916" fill="none" stroke="black" stroke-weight="1"></path><path id="SvgjsPath1143" d="M 241.85797164712895 204.78066663888242 L 241.85797164712895 204.78066663888242 233.7789891533478 89.15119147241111" fill="none" stroke="black" stroke-weight="1"></path><path id="SvgjsPath1144" d="M 237.52676225006152 204.32477387965872 L 237.52676225006152 204.32477387965872 232.18840785727934 93.76183373380547" fill="none" stroke="black" stroke-weight="1"></path><path id="SvgjsPath1145" d="M 233.05176590672752 203.74559487358155 L 233.05176590672752 203.74559487358155 230.56521050510608 98.52553951864492" fill="none" stroke="black" stroke-weight="1"></path><path id="SvgjsPath1146" d="M 228.44416777745235 203.04457726653547 L 228.44416777745235 203.04457726653547 228.91041154233585 103.43040204335713" fill="none" stroke="black" stroke-weight="1"></path><path id="SvgjsPath1147" d="M 223.71548445796833 202.2234732374552 L 223.71548445796833 202.2234732374552 227.2250451644542 108.46416170603368" fill="none" stroke="black" stroke-weight="1"></path><path id="SvgjsPath1148" d="M 218.87753519392368 201.28433511879075 L 218.87753519392368 201.28433511879075 225.51016467058636 113.61423672904898" fill="none" stroke="black" stroke-weight="1"></path><path id="SvgjsPath1149" d="M 213.94241233892308 200.22951026674508 L 213.94241233892308 200.22951026674508 223.76684180521926 118.86775460695279" fill="none" stroke="black" stroke-weight="1"></path><path id="SvgjsPath1150" d="M 208.92245112994186 199.06163519410615 L 208.92245112994186 199.06163519410615 221.99616608839602 124.21158428102967" fill="none" stroke="black" stroke-weight="1"></path><path id="SvgjsPath1151" d="M 203.8301988556571 197.78362898033797 L 203.8301988556571 197.78362898033797 220.1992441348018 129.63236896010696" fill="none" stroke="black" stroke-weight="1"></path><path id="SvgjsPath1152" d="M 198.6783834947609 196.39868597540217 L 198.6783834947609 196.39868597540217 218.3771989621652 135.1165595055771" fill="none" stroke="black" stroke-weight="1"></path><path id="SvgjsPath1153" d="M 193.4798819026419 194.91026781554677 L 193.4798819026419 194.91026781554677 216.53116928940904 140.65044829718767" fill="none" stroke="black" stroke-weight="1"></path><path id="SvgjsPath1154" d="M 188.24768762595298 193.32209477101816 L 188.24768762595298 193.32209477101816 214.66230882498786 146.2202034949532" fill="none" stroke="black" stroke-weight="1"></path><path id="SvgjsPath1155" d="M 182.9948784255119 191.63813644732318 L 182.9948784255119 191.63813644732318 212.7717855458579 151.81190361155186" fill="none" stroke="black" stroke-weight="1"></path><path id="SvgjsPath1156" d="M 177.7345835887096 189.86260186328246 L 177.7345835887096 189.86260186328246 210.86078096752948 157.41157230879298" fill="none" stroke="black" stroke-weight="1"></path><path id="SvgjsPath1157" d="M 172.4799511131295 187.99992893067565 L 172.4799511131295 187.99992893067565 208.93048940565814 163.00521333118473" fill="none" stroke="black" stroke-weight="1"></path><path id="SvgjsPath1158" d="M 167.24411484340075 186.05477336177287 L 167.24411484340075 186.05477336177287 206.98211722963632 168.5788454892831" fill="none" stroke="black" stroke-weight="1"></path><path id="SvgjsPath1159" d="M 162.04016164342693 184.031997032479 L 162.04016164342693 184.031997032479 205.01688210865183 174.11853760538423" fill="none" stroke="black" stroke-weight="1"></path><path id="SvgjsPath1160" d="M 156.88109868604158 181.9366558301757 L 156.88109868604158 181.9366558301757 203.0360122506841 179.61044333421378" fill="none" stroke="black" stroke-weight="1"></path><path id="SvgjsPath1161" d="M 151.77982094185006 179.77398701663617 L 151.77982094185006 179.77398701663617 201.04074563491426 185.04083577157894" fill="none" stroke="black" stroke-weight="1"></path><path id="SvgjsPath1162" d="M 146.74907894851876 177.54939613759802 L 146.74907894851876 177.54939613759802 199.03232923802844 190.39614176447998" fill="none" stroke="black" stroke-weight="1"></path><path id="SvgjsPath1163" d="M 141.80144694107122 175.2684435117144 L 141.80144694107122 175.2684435117144 197.01201825489787 195.66297583692418" fill="none" stroke="black" stroke-weight="1"></path><path id="SvgjsPath1164" d="M 136.94929142284917 172.93683033265282 L 136.94929142284917 172.93683033265282 194.98107531412313 200.82817364664442" fill="none" stroke="black" stroke-weight="1"></path><path id="SvgjsPath1165" d="M 132.2047402556944 170.56038441908026 L 132.2047402556944 170.56038441908026 192.9407696889321 205.87882488909952" fill="none" stroke="black" stroke-weight="1"></path><path id="SvgjsPath1166" d="M 127.57965234661023 168.14504564815155 L 127.57965234661023 168.14504564815155 190.8923765039257 210.80230556651173" fill="none" stroke="black" stroke-weight="1"></path><path id="SvgjsPath1167" d="M 123.08558800667024 165.69685110890987 L 123.08558800667024 165.69685110890987 188.83717593816655 215.5863095412865" fill="none" stroke="black" stroke-weight="1"></path><path id="SvgjsPath1168" d="M 118.73378005626083 163.22192001270832 L 118.73378005626083 163.22192001270832 186.77645242510852 220.21887929494815" fill="none" stroke="black" stroke-weight="1"></path><path id="SvgjsPath1169" d="M 114.5351057488802 160.72643839836817 L 114.5351057488802 160.72643839836817 184.71149384986788 224.68843581570815" fill="none" stroke="black" stroke-weight="1"></path><path id="SvgjsPath1170" d="M 110.5000595836695 158.21664367030354 L 110.5000595836695 158.21664367030354 182.6435907443368 228.9838075399647" fill="none" stroke="black" stroke-weight="1"></path><path id="SvgjsPath1171" d="M 106.63872707463034 155.6988090082588 L 106.63872707463034 155.6988090082588 180.57403548064306 233.09425827539349" fill="none" stroke="black" stroke-weight="1"></path><path id="SvgjsPath1172" d="M 102.96075954209225 153.1792276876261 L 102.96075954209225 153.1792276876261 178.50412146345963 237.00951403583727" fill="none" stroke="black" stroke-weight="1"></path><path id="SvgjsPath1173" d="M 99.4753499894381 150.6641973495345 L 99.4753499894381 150.6641973495345 176.43514232166856 240.7197887209207" fill="none" stroke="black" stroke-weight="1"></path><path id="SvgjsPath1174" d="M 96.19121012538332 148.16000426002665 L 96.19121012538332 148.16000426002665 174.36839109988534 244.21580857620484" fill="none" stroke="black" stroke-weight="1"></path><path id="SvgjsPath1175" d="M 93.11654858924105 145.67290759766783 L 93.11654858924105 145.67290759766783 172.3051594503479 247.48883537274338" fill="none" stroke="black" stroke-weight="1"></path><path id="SvgjsPath1176" d="M 90.25905043359889 143.209123808859 L 90.25905043359889 143.209123808859 170.24673682567615 250.5306882481044" fill="none" stroke="black" stroke-weight="1"></path><path id="SvgjsPath1177" d="M 87.62585791568966 140.77481106995845 L 87.62585791568966 140.77481106995845 168.1944096730059 253.33376415426585" fill="none" stroke="black" stroke-weight="1"></path><path id="SvgjsPath1178" d="M 85.22355264546799 138.3760538950478 L 85.22355264546799 138.3760538950478 166.14946063000147 255.891056861276" fill="none" stroke="black" stroke-weight="1"></path><path id="SvgjsPath1179" d="M 83.05813913501301 136.01884792781573 L 83.05813913501301 136.01884792781573 164.11316772324878 258.1961744691797" fill="none" stroke="black" stroke-weight="1"></path><path id="SvgjsPath1180" d="M 81.13502979037536 133.70908495557126 L 81.13502979037536 133.70908495557126 162.08680356953036 260.24335538443916" fill="none" stroke="black" stroke-weight="1"></path><path id="SvgjsPath1181" d="M 79.45903138338056 131.45253818284363 L 79.45903138338056 131.45253818284363 160.07163458048123 262.0274827209175" fill="none" stroke="black" stroke-weight="1"></path><path id="SvgjsPath1182" d="M 78.03433303720307 129.25484780137782 L 78.03433303720307 129.25484780137782 158.06892017112304 263.544097089429" fill="none" stroke="black" stroke-weight="1"></path><path id="SvgjsPath1183" d="M 76.86449575573977 127.1215068925925 L 76.86449575573977 127.1215068925925 156.07991197277042 264.7894077438899" fill="none" stroke="black" stroke-weight="1"></path><path id="SvgjsPath1184" d="M 75.9524435229548 125.05784769773717 L 75.9524435229548 125.05784769773717 154.10585305080232 265.7603020562094" fill="none" stroke="black" stroke-weight="1"></path><path id="SvgjsPath1185" d="M 75.30045599444253 123.06902829006602 L 75.30045599444253 123.06902829006602 152.14797712778662 266.4543532962386" fill="none" stroke="black" stroke-weight="1"></path><path id="SvgjsPath1186" d="M 74.9101627994757 121.16001968234109 L 74.9101627994757 121.16001968234109 150.20750781244357 266.8698266973323" fill="none" stroke="black" stroke-weight="1"></path><path id="SvgjsPath1187" d="M 74.78253946778096 119.33559340188924 L 74.78253946778096 119.33559340188924 148.28565783493025 267.0056837923622" fill="none" stroke="black" stroke-weight="1"></path><path id="SvgjsPath1188" d="M 74.91790499122261 117.60030956426877 L 74.91790499122261 117.60030956426877 146.38362828892372 266.8615850093437" fill="none" stroke="black" stroke-weight="1"></path><path id="SvgjsPath1189" d="M 75.31592102648902 115.9585054753554 L 75.31592102648902 115.9585054753554 144.50260788097643 266.43789052018906" fill="none" stroke="black" stroke-weight="1"></path><path id="SvgjsPath1190" d="M 75.97559274077481 114.4142847903363 L 75.97559274077481 114.4142847903363 142.6437721876136 265.73565934046553" fill="none" stroke="black" stroke-weight="1"></path><path id="SvgjsPath1191" d="M 76.89527129834461 112.97150725670949 L 76.89527129834461 112.97150725670949 140.80828292063575 264.7566466824074" fill="none" stroke="black" stroke-weight="1"></path><path id="SvgjsPath1192" d="M 78.07265798176384 111.633779066925 L 78.07265798176384 111.633779066925 138.99728720108706 263.5032995677998" fill="none" stroke="black" stroke-weight="1"></path><path id="SvgjsPath1193" d="M 79.50480993749508 110.40444384478192 L 79.50480993749508 110.40444384478192 137.2119168423418 261.9787507116988" fill="none" stroke="black" stroke-weight="1"></path><path id="SvgjsPath1194" d="M 81.18814753149937 109.28657428811022 L 81.18814753149937 109.28657428811022 135.4532876427578 260.1868106922749" fill="none" stroke="black" stroke-weight="1"></path><path id="SvgjsPath1195" d="M 83.11846329645688 108.28296448862635 L 83.11846329645688 108.28296448862635 133.722498688339 258.13195842635236" fill="none" stroke="black" stroke-weight="1"></path><path id="SvgjsPath1196" d="M 85.29093244824433 107.39612294815913 L 85.29093244824433 107.39612294815913 132.0206316658423 255.8193299744496" fill="none" stroke="black" stroke-weight="1"></path><path id="SvgjsPath1197" d="M 87.70012494538227 106.62826630870161 L 87.70012494538227 106.62826630870161 130.3487501867586 253.25470570330276" fill="none" stroke="black" stroke-weight="1"></path><path id="SvgjsPath1198" d="M 90.34001906131103 105.9813138119604 L 90.34001906131103 105.9813138119604 128.70789912259022 250.44449583795924" fill="none" stroke="black" stroke-weight="1"></path><path id="SvgjsPath1199" d="M 93.20401643557109 105.45688250225103 L 93.20401643557109 105.45688250225103 127.09910395184026 247.39572443955336" fill="none" stroke="black" stroke-weight="1"></path><path id="SvgjsPath1200" d="M 96.28495856626782 105.05628318472921 L 96.28495856626782 105.05628318472921 125.52337011912189 244.1160118488117" fill="none" stroke="black" stroke-weight="1"></path><path id="SvgjsPath1201" d="M 99.57514470259808 104.78051714906066 L 99.57514470259808 104.78051714906066 123.98168240678822 240.6135556391698" fill="none" stroke="black" stroke-weight="1"></path><path id="SvgjsPath1202" d="M 103.0663510927169 104.63027366671837 L 103.0663510927169 104.63027366671837 122.47500431947537 236.89711012710785" fill="none" stroke="black" stroke-weight="1"></path><path id="SvgjsPath1203" d="M 106.7498515388341 104.6059282681629 L 106.7498515388341 104.6059282681629 121.0042774819434 232.97596449091856" fill="none" stroke="black" stroke-weight="1"></path><path id="SvgjsPath1204" d="M 110.61643920816434 104.70754180421181 L 110.61643920816434 104.70754180421181 119.57042105059156 228.85991955259925" fill="none" stroke="black" stroke-weight="1"></path><path id="SvgjsPath1205" d="M 114.65644964521424 104.9348602939443 L 114.65644964521424 104.9348602939443 118.17433113901537 224.559263280901" fill="none" stroke="black" stroke-weight="1"></path><path id="SvgjsPath1206" d="M 118.8597849278879 105.28731555952118 L 118.8597849278879 105.28731555952118 116.81688025796493 220.0847450767646" fill="none" stroke="black" stroke-weight="1"></path><path id="SvgjsPath1207" d="M 123.21593890703338 105.76402664633369 L 123.21593890703338 105.76402664633369 115.49891677005387 215.4475489054161" fill="none" stroke="black" stroke-weight="1"></path><path id="SvgjsPath1208" d="M 127.71402346634393 106.36380202493112 L 127.71402346634393 106.36380202493112 114.22126435956065 210.65926534227899" fill="none" stroke="black" stroke-weight="1"></path><path id="SvgjsPath1209" d="M 132.34279573697842 107.08514256922396 L 132.34279573697842 107.08514256922396 112.98472151765246 205.73186260257137" fill="none" stroke="black" stroke-weight="1"></path><path id="SvgjsPath1210" d="M 137.09068619887827 107.92624530351837 L 137.09068619887827 107.92624530351837 111.79006104335427 200.67765662700066" fill="none" stroke="black" stroke-weight="1"></path><path id="SvgjsPath1211" d="M 141.94582759854228 108.88500790901645 L 141.94582759854228 108.88500790901645 110.63802956057458 195.50928029832596" fill="none" stroke="black" stroke-weight="1"></path><path id="SvgjsPath1212" d="M 146.8960846109801 109.95903397851839 L 146.8960846109801 109.95903397851839 109.52934705148992 190.2396518657308" fill="none" stroke="black" stroke-weight="1"></path><path id="SvgjsPath1213" d="M 151.92908417170455 111.14563900619237 L 151.92908417170455 111.14563900619237 108.46470640657934 184.88194265592742" fill="none" stroke="black" stroke-weight="1"></path><path id="SvgjsPath1214" d="M 157.03224640294943 112.44185709744116 L 157.03224640294943 112.44185709744116 107.44477299159031 179.44954415169911" fill="none" stroke="black" stroke-weight="1"></path><path id="SvgjsPath1215" d="M 162.19281605681206 113.84444838209399 L 162.19281605681206 113.84444838209399 106.47018423170692 173.95603452016783" fill="none" stroke="black" stroke-weight="1"></path><path id="SvgjsPath1216" d="M 167.39789439673052 115.34990711239462 L 167.39789439673052 115.34990711239462 105.5415492131799 168.41514467444804" fill="none" stroke="black" stroke-weight="1"></path><path id="SvgjsPath1217" d="M 172.6344714376075 116.95447042554508 L 172.6344714376075 116.95447042554508 104.65944830266746 162.84072395351464" fill="none" stroke="black" stroke-weight="1"></path><path id="SvgjsPath1218" d="M 177.88945846399727 118.65412774890288 L 177.88945846399727 118.65412774890288 103.82443278452503 157.24670550606754" fill="none" stroke="black" stroke-weight="1"></path><path id="SvgjsPath1219" d="M 183.14972074507827 120.44463082432408 L 183.14972074507827 120.44463082432408 103.0370245162705 151.6470714649167" fill="none" stroke="black" stroke-weight="1"></path><path id="SvgjsPath1220" d="M 188.40211036463944 122.32150432659608 L 188.40211036463944 122.32150432659608 102.29771560244029 146.05581799893213" fill="none" stroke="black" stroke-weight="1"></path><path id="SvgjsPath1221" d="M 193.6334990840235 124.28005704942004 L 193.6334990840235 124.28005704942004 101.60696808704004 140.48692032991048" fill="none" stroke="black" stroke-weight="1"></path><path id="SvgjsPath1222" d="M 198.83081115588658 126.31539363098344 L 198.83081115588658 126.31539363098344 100.96521366478206 134.95429780179828" fill="none" stroke="black" stroke-weight="1"></path><path id="SvgjsPath1223" d="M 203.9810560067568 128.42242678981515 L 203.9810560067568 128.42242678981515 100.3728534112902 129.4717790895815" fill="none" stroke="black" stroke-weight="1"></path><path id="SvgjsPath1224" d="M 209.07136070670268 130.59589004033978 L 209.07136070670268 130.59589004033978 99.83025753244075 124.0530676348003" fill="none" stroke="black" stroke-weight="1"></path><path id="SvgjsPath1225" d="M 214.08900214495378 132.8303508563488 L 214.08900214495378 132.8303508563488 99.33776513299581 118.71170739408149" fill="none" stroke="black" stroke-weight="1"></path><path id="SvgjsPath1226" d="M 219.02143883105163 135.1202242494868 L 219.02143883105163 135.1202242494868 98.89568400467364 113.4610489863" fill="none" stroke="black" stroke-weight="1"></path><path id="SvgjsPath1227" d="M 223.85634224204432 137.45978672881407 L 223.85634224204432 137.45978672881407 98.50429043378908 108.31421632298509" fill="none" stroke="black" stroke-weight="1"></path><path id="SvgjsPath1228" d="M 228.58162763737343 139.8431906065528 L 228.58162763737343 139.8431906065528 98.16382902858355 103.28407380537661" fill="none" stroke="black" stroke-weight="1"></path><path id="SvgjsPath1229" d="M 233.1854842644317 142.2644786142614 L 233.1854842644317 142.2644786142614 97.87451256635282 98.38319417012113" fill="none" stroke="black" stroke-weight="1"></path><path id="SvgjsPath1230" d="M 237.65640487929363 144.71759879290303 L 237.65640487929363 144.71759879290303 97.63652186046808 93.62382706397787" fill="none" stroke="black" stroke-weight="1"></path><path id="SvgjsPath1231" d="M 241.98321450883253 147.19641961959138 L 241.98321450883253 147.19641961959138 97.4500056473736 89.01786842608152" fill="none" stroke="black" stroke-weight="1"></path><path id="SvgjsPath1232" d="M 246.15509838233345 149.69474533320465 L 246.15509838233345 149.69474533320465 97.31508049363119 84.57683075429011" fill="none" stroke="black" stroke-weight="1"></path><path id="SvgjsPath1233" d="M 250.16162896278777 152.20633142056167 L 250.16162896278777 152.20633142056167 97.23183072306996 80.3118143299356" fill="none" stroke="black" stroke-weight="1"></path><path id="SvgjsPath1234" d="M 253.99279201030512 154.72490022445282 L 253.99279201030512 154.72490022445282 97.2003083640866 76.23347947290107" fill="none" stroke="black" stroke-weight="1"></path><path id="SvgjsPath1235" d="M 257.6390116124979 157.24415663451367 L 257.6390116124979 157.24415663451367 97.22053311712936 72.35201989637324" fill="none" stroke="black" stroke-weight="1"></path><path id="SvgjsPath1236" d="M 261.091174119275 159.7578038217224 L 261.091174119275 159.7578038217224 97.29249234238596 68.67713722786847" fill="none" stroke="black" stroke-weight="1"></path><path id="SvgjsPath1237" d="M 264.3406509222211 162.25955897719317 L 264.3406509222211 162.25955897719317 97.41614106768294 65.21801676021632" fill="none" stroke="black" stroke-weight="1"></path><path id="SvgjsPath1238" d="M 267.3793200216234 164.74316901592616 L 267.3793200216234 164.74316901592616 97.59140201659201 61.983304493110595" fill="none" stroke="black" stroke-weight="1"></path><path id="SvgjsPath1239" d="M 270.19958632724195 167.20242620626368 L 270.19958632724195 167.20242620626368 97.81816565672503 58.98108552261343" fill="none" stroke="black" stroke-weight="1"></path><path id="SvgjsPath1240" d="M 272.7944006420788 169.63118368598626 L 272.7944006420788 169.63118368598626 98.09629026818843 56.21886383262574" fill="none" stroke="black" stroke-weight="1"></path><path id="SvgjsPath1241" d="M 275.15727728170015 172.02337082626704 L 275.15727728170015 172.02337082626704 98.42560203215334 53.70354353883533" fill="none" stroke="black" stroke-weight="1"></path><path id="SvgjsPath1242" d="M 277.28231028506923 174.37300840508232 L 277.28231028506923 174.37300840508232 98.80589513948686 51.44141163202312" fill="none" stroke="black" stroke-weight="1"></path><path id="SvgjsPath1243" d="M 279.16418817637344 176.6742235521526 L 279.16418817637344 176.6742235521526 99.23693191937603 49.438122263860535" fill="none" stroke="black" stroke-weight="1"></path><path id="SvgjsPath1244" d="M 280.7982072409476 178.92126442805994 L 280.7982072409476 178.92126442805994 99.71844298786424 47.6986826144751" fill="none" stroke="black" stroke-weight="1"></path><path id="SvgjsPath1245" d="M 282.18028328211096 181.1085146008508 L 282.18028328211096 181.1085146008508 100.25012741620753 46.22744037710771" fill="none" stroke="black" stroke-weight="1"></path><path id="SvgjsPath1246" d="M 283.3069618295318 183.2305070841911 L 283.3069618295318 183.2305070841911 100.83165291894527 45.02807289114355" fill="none" stroke="black" stroke-weight="1"></path><path id="SvgjsPath1247" d="M 284.1754267736046 185.2819380019848 L 284.1754267736046 185.2819380019848 101.46265606156773 44.103577950678996" fill="none" stroke="black" stroke-weight="1"></path><path id="SvgjsPath1248" d="M 284.7835074042568 187.257679845302 L 284.7835074042568 187.257679845302 102.14274248765082 43.4562663115976" fill="none" stroke="black" stroke-weight="1"></path><path id="SvgjsPath1249" d="M 285.1296838365941 189.15279428848083 L 285.1296838365941 189.15279428848083 102.87148716531597 43.08775591588372" fill="none" stroke="black" stroke-weight="1"></path><path id="SvgjsPath1250" d="M 285.21309080982087 190.96254453236992 L 285.21309080982087 190.96254453236992 103.64843465286133 42.99896784761002" fill="none" stroke="black" stroke-weight="1"></path><path id="SvgjsPath1251" d="M 285.03351984994157 192.6824071438592 L 285.03351984994157 192.6824071438592 104.47309938339792 43.190124030707366" fill="none" stroke="black" stroke-weight="1"></path><path id="SvgjsPath1252" d="M 284.5914197908371 194.30808336210708 L 284.5914197908371 194.30808336210708 105.34496596831316 43.66074667427017" fill="none" stroke="black" stroke-weight="1"></path><path id="SvgjsPath1253" d="M 283.88789565241404 195.83550984320382 L 283.88789565241404 195.83550984320382 106.26348951937192 44.409659466785044" fill="none" stroke="black" stroke-weight="1"></path></svg></svg>