<svg id="SvgjsSvg1130" width="300" height="300" xmlns="http://www.w3.org/2000/svg" version="1.1" xmlns:xlink="http://www.w3.org/1999/xlink" xmlns:svgjs="http://svgjs.com/svgjs"><defs id="SvgjsDefs1131"></defs><svg id="SvgjsSvg1132" style="overflow: visible;"><path id="SvgjsPath1133" d="M 171.75658150649397 161.04800179680097 C 171.75658150649397 161.04800179680097 208.57410141056425 77.88308623540941 268.5579769498137 68.26869570618952" fill="none" stroke="black" stroke-weight="1"></path><path id="SvgjsPath1134" d="M 170.00266502352957 164.0372822385123 C 170.00266502352957 164.0372822385123 204.25434144404136 78.85244915682347 272.4946730425405 74.29626775250047" fill="none" stroke="black" stroke-weight="1"></path><path id="SvgjsPath1135" d="M 168.23624752604033 166.9914767851026 C 168.23624752604033 166.9914767851026 199.79897387902315 79.86627698156177 276.12519624665345 80.51305970368854" fill="none" stroke="black" stroke-weight="1"></path><path id="SvgjsPath1136" d="M 166.45843296746278 169.90320148872024 C 166.45843296746278 169.90320148872024 195.2191348141116 80.92393610023534 279.4404721448823 86.90353281751857" fill="none" stroke="black" stroke-weight="1"></path><path id="SvgjsPath1137" d="M 164.67033242402567 172.76517855400303 C 164.67033242402567 172.76517855400303 190.52627146183517 82.0247655103233 282.43221427404353 93.4517142392998" fill="none" stroke="black" stroke-weight="1"></path><path id="SvgjsPath1138" d="M 162.87306340036352 175.57025452877656 C 162.87306340036352 175.57025452877656 185.73211353657828 83.1680772292779 285.0929448368837 100.14123692570485" fill="none" stroke="black" stroke-weight="1"></path><path id="SvgjsPath1139" d="M 161.06774913111244 178.3114181839593 C 161.06774913111244 178.3114181839593 180.84864393640478 84.35315672449124 287.4160133926772 106.95538055385379" fill="none" stroke="black" stroke-weight="1"></path><path id="SvgjsPath1140" d="M 159.2555178789252 180.98181803798371 C 159.2555178789252 180.98181803798371 175.88806879205347 85.57926335985479 289.39561347986546 113.87711331341364" fill="none" stroke="black" stroke-weight="1"></path><path id="SvgjsPath1141" d="M 157.4375022293437 183.57477948193213 C 157.4375022293437 183.57477948193213 170.86278695796764 86.84563085863293 291.0267971291861 120.88913447725436" fill="none" stroke="black" stroke-weight="1"></path><path id="SvgjsPath1142" d="M 155.61483838297002 186.08382146258282 C 155.61483838297002 186.08382146258282 165.78535902161647 88.15146778236092 292.3054872310199 127.97391764425612" fill="none" stroke="black" stroke-weight="1"></path><path id="SvgjsPath1143" d="M 153.7886654453779 188.502672681668 C 153.7886654453779 188.502672681668 160.6684759085673 89.4959580254683 293.22848772604135 135.1137545461853" fill="none" stroke="black" stroke-weight="1"></path><path id="SvgjsPath1144" d="M 151.9601247152088 190.82528727085332 C 151.9601247152088 190.82528727085332 155.5249271617814 90.87826132531822 293.79349159370213 142.29079930914224" fill="none" stroke="black" stroke-weight="1"></path><path id="SvgjsPath1145" d="M 150.13035897089748 193.0458599032601 C 150.13035897089748 193.0458599032601 150.36756897441748 92.29751378734416 293.9990866185814 149.48711305895225" fill="none" stroke="black" stroke-weight="1"></path><path id="SvgjsPath1146" d="M 148.3005117564727 195.15884030375923 C 148.3005117564727 195.15884030375923 145.20929205604375 93.752828424956 293.8447589201888 156.68470875900863" fill="none" stroke="black" stroke-weight="1"></path><path id="SvgjsPath1147" d="M 146.47172666687942 197.1589471217683 C 146.47172666687942 197.1589471217683 140.0629894125776 95.2432957138777 293.330894237398 163.86559616849638" fill="none" stroke="black" stroke-weight="1"></path><path id="SvgjsPath1148" d="M 144.64514663326912 199.0411811318779 C 144.64514663326912 199.0411811318779 134.94152412048493 96.76798416057056 292.45877696430045 171.0118268086258" fill="none" stroke="black" stroke-weight="1"></path><path id="SvgjsPath1149" d="M 142.82191320870498 200.80083772931118 C 142.82191320870498 200.80083772931118 129.85769717578825 98.32594088438623 291.230586939889 178.1055388244815" fill="none" stroke="black" stroke-weight="1"></path><path id="SvgjsPath1150" d="M 141.0031658547286 202.43351868898606 C 141.0031658547286 202.43351868898606 124.82421549824357 99.9161922130859 289.6493939995957 185.1290016303578" fill="none" stroke="black" stroke-weight="1"></path><path id="SvgjsPath1151" d="M 139.1900412292334 203.9351431587871 C 139.1900412292334 203.9351431587871 119.85366017065819 101.5377442913541 287.71915030230184 192.06466022698848" fill="none" stroke="black" stroke-weight="1"></path><path id="SvgjsPath1152" d="M 137.38367247609062 205.30195785957073 C 137.38367247609062 205.30195785957073 114.95845499273602 103.1895837019256 285.44468045199926 198.89517907990324" fill="none" stroke="black" stroke-weight="1"></path><path id="SvgjsPath1153" d="M 135.58518851697107 206.53054646640837 C 135.58518851697107 206.53054646640837 110.15083542804817 104.87067809893857 282.8316694387927 205.60348544923525" fill="none" stroke="black" stroke-weight="1"></path><path id="SvgjsPath1154" d="M 133.79571334580606 207.61783814761944 C 133.79571334580606 207.61783814761944 105.44281802174629 106.57997685311693 279.8866484293852 212.1728120626796" fill="none" stroke="black" stroke-weight="1"></path><path id="SvgjsPath1155" d="M 132.0163653263276 208.56111524025152 C 132.0163653263276 208.56111524025152 100.84617036545828 108.31641170837932 276.61697844256315 218.58673902494195" fill="none" stroke="black" stroke-weight="1"></path><path id="SvgjsPath1156" d="M 130.2482564931276 209.35802004282223 C 130.2482564931276 209.35802004282223 96.37238168443699 110.07889744946459 273.03083195048237 224.82923485892508" fill="none" stroke="black" stroke-weight="1"></path><path id="SvgjsPath1157" d="M 128.49249185667242 210.00656070834512 C 128.49249185667242 210.00656070834512 92.03263412048102 111.86633258015591 269.13717245174405 230.884696576073" fill="none" stroke="black" stroke-weight="1"></path><path id="SvgjsPath1158" d="M 126.75016871270718 210.50511622290986 C 126.75016871270718 210.50511622290986 87.83777478240316 113.67760001168025 264.9457320673163 236.73798867571654" fill="none" stroke="black" stroke-weight="1"></path><path id="SvgjsPath1159" d="M 125.02237595648184 210.8524404573727 C 125.02237595648184 210.8524404573727 83.79828863390836 115.51156776085205 260.4669872153004 242.37448097594194" fill="none" stroke="black" stroke-weight="1"></path><path id="SvgjsPath1160" d="M 123.31019340222694 211.0476652820305 C 123.31019340222694 211.0476652820305 79.92427228664384 117.36708965752645 255.71213242534105 247.7800851814272" fill="none" stroke="black" stroke-weight="1"></path><path id="SvgjsPath1161" d="M 121.61469110830495 211.09030273649265 C 121.61469110830495 211.09030273649265 76.22540876392921 119.24300606091782 250.6930523581326 252.94129009684286" fill="none" stroke="black" stroke-weight="1"></path><path id="SvgjsPath1162" d="M 119.93692870845857 210.98024624932822 C 119.93692870845857 210.98024624932822 72.71094329824051 121.13814458433767 245.42229209995685 257.84519539780393" fill="none" stroke="black" stroke-weight="1"></path><path id="SvgjsPath1163" d="M 118.27795474957415 210.71777090443882 C 118.27795474957415 210.71777090443882 69.38966022294346 123.05132082789842 239.91302580650012 262.4795438749626" fill="none" stroke="black" stroke-weight="1"></path><path id="SvgjsPath1164" d="M 116.63880603637415 210.30353275349214 C 116.63880603637415 210.30353275349214 66.26986101603575 124.9813391187243 234.1790237743259 266.83275207064787" fill="none" stroke="black" stroke-weight="1"></path><path id="SvgjsPath1165" d="M 115.02050698344765 209.73856717613447 C 115.02050698344765 209.73856717613447 63.35934355077441 126.92699325820848 228.23461802230395 270.8939392314776" fill="none" stroke="black" stroke-weight="1"></path><path id="SvgjsPath1166" d="M 113.42406897502482 209.0242862920808 C 113.42406897502482 209.0242862920808 60.66538260505452 128.88706727584747 222.09466646902757 274.65295450457506" fill="none" stroke="black" stroke-weight="1"></path><path id="SvgjsPath1167" d="M 111.85048973289469 208.16247543155103 C 111.85048973289469 208.16247543155103 58.19471167825263 130.86033618918347 215.77451579575524 278.1004023094149" fill="none" stroke="black" stroke-weight="1"></path><path id="SvgjsPath1168" d="M 110.30075269286132 207.15528867287404 C 110.30075269286132 207.15528867287404 55.953506160985285 132.8455667693782 209.28996308769916 281.227665821881" fill="none" stroke="black" stroke-weight="1"></path><path id="SvgjsPath1169" d="M 108.77582639012864 206.0052434584138 C 108.77582639012864 206.0052434584138 53.9473678998483 134.84151831194112 202.65721634953968 284.0269285118396" fill="none" stroke="black" stroke-weight="1"></path><path id="SvgjsPath1170" d="M 107.27666385399735 204.7152143022745 C 107.27666385399735 204.7152143022745 52.18131119571785 136.8469434121293 195.89285399385454 286.49119368039374" fill="none" stroke="black" stroke-weight="1"></path><path id="SvgjsPath1171" d="M 105.80420201225266 203.2884256055122 C 105.80420201225266 203.2884256055122 50.65975027060975 138.86058874453443 189.01378340372094 288.6143019479864" fill="none" stroke="black" stroke-weight="1"></path><path id="SvgjsPath1172" d="M 104.35936110561502 201.72844359681176 C 104.35936110561502 201.72844359681176 49.38648823442318 140.8811958463707 182.0371986730638 290.39094664964205" fill="none" stroke="black" stroke-weight="1"></path><path id="SvgjsPath1173" d="M 102.94304411261942 200.0391674187719 C 102.94304411261942 200.0391674187719 48.36470757914661 142.90750190397307 174.98053763037453 291.8166870988652" fill="none" stroke="black" stroke-weight="1"></path><path id="SvgjsPath1174" d="M 101.5561361852834 198.22481938207977 C 101.5561361852834 198.22481938207977 47.596962224285065 144.93824054201468 167.86143825322182 292.88795968704414" fill="none" stroke="black" stroke-weight="1"></path><path id="SvgjsPath1175" d="M 100.19950409591576 196.28993441193288 C 100.19950409591576 196.28993441193288 47.085171133391654 146.9721426149502 160.6976945824933 293.6020867906163" fill="none" stroke="black" stroke-weight="1"></path><path id="SvgjsPath1176" d="M 98.87399569541203 194.23934871308796 C 98.87399569541203 194.23934871308796 46.83061351765801 149.00793700019034 153.5072122465602 293.957283463733" fill="none" stroke="black" stroke-weight="1"></path><path id="SvgjsPath1177" d="M 97.58043938337539 192.07818768186775 C 97.58043938337539 192.07818768186775 46.8339256385524 151.04435139251228 146.3079637065315 293.95266189969436" fill="none" stroke="black" stroke-weight="1"></path><path id="SvgjsPath1178" d="M 96.31964359039378 189.8118530953394 C 96.31964359039378 189.8118530953394 47.09509921749748 153.08011309920897 139.11794333446113 293.58823365000353" fill="none" stroke="black" stroke-weight="1"></path><path id="SvgjsPath1179" d="M 95.09239627279715 187.44600960968498 C 95.09239627279715 187.44600960968498 47.61348145656251 155.11394983548078 131.95512243678905 292.86490959549417" fill="none" stroke="black" stroke-weight="1"></path><path id="SvgjsPath1180" d="M 93.89946442021035 184.98657060151112 C 93.89946442021035 184.98657060151112 48.38777667011804 157.14459051957164 124.83740433543433 291.78449766960273" fill="none" stroke="black" stroke-weight="1"></path><path id="SvgjsPath1181" d="M 92.74159357620968 182.43968338748732 C 92.74159357620968 182.43968338748732 49.416049523375335 159.17076606715418 117.78257961881476 290.3496983394763" fill="none" stroke="black" stroke-weight="1"></path><path id="SvgjsPath1182" d="M 91.61950737238232 179.81171385925532 C 91.61950737238232 179.81171385925532 50.69572986971541 161.19121018446606 110.80828167463997 288.5640978562111" fill="none" stroke="black" stroke-weight="1"></path><path id="SvgjsPath1183" d="M 90.53390707608008 177.10923057201555 C 90.53390707608008 177.10923057201555 52.22361917471707 163.2046601597023 103.93194261562601 286.4321592910925" fill="none" stroke="black" stroke-weight="1"></path><path id="SvgjsPath1184" d="M 89.48547115215042 174.33898832656007 C 89.48547115215042 174.33898832656007 53.99589851082719 165.20985765216903 97.17074970829248 283.9592113802411" fill="none" stroke="black" stroke-weight="1"></path><path id="SvgjsPath1185" d="M 88.47485483891776 171.5079112857884 C 88.47485483891776 171.5079112857884 56.008138102690666 167.20554947870528 90.54160241374674 281.1514352055479" fill="none" stroke="black" stroke-weight="1"></path><path id="SvgjsPath1186" d="M 87.50268973868084 168.6230756679059 C 87.50268973868084 168.6230756679059 58.25530839928196 169.1904883968822 84.06107014783178 278.01584874518795" fill="none" stroke="black" stroke-weight="1"></path><path id="SvgjsPath1187" d="M 86.56958342298194 165.6916920595639 C 86.56958342298194 165.6916920595639 60.731792645163395 171.16343388448843 77.74535086621619 274.5602893323301" fill="none" stroke="black" stroke-weight="1"></path><path id="SvgjsPath1188" d="M 85.67611905289449 162.7210873931482 C 85.67611905289449 162.7210873931482 63.43140091944825 173.12315291481642 71.61023057794121 270.7933940658861" fill="none" stroke="black" stroke-weight="1"></path><path id="SvgjsPath1189" d="M 84.8228550145663 159.718686633264 C 84.8228550145663 159.718686633264 66.34738560737952 175.06842072726369 65.67104388861888 266.72457822226113" fill="none" stroke="black" stroke-weight="1"></path><path id="SvgjsPath1190" d="M 84.01032457024635 156.69199421819079 C 84.01032457024635 156.69199421819079 69.47245826585292 176.99802159276874 59.94263567190363 262.3640117220657" fill="none" stroke="black" stroke-weight="1"></path><path id="SvgjsPath1191" d="M 83.2390355250133 153.6485753026952 C 83.2390355250133 153.6485753026952 72.79880784072878 178.9107495736019 54.439323965039705 257.72259371061097" fill="none" stroke="black" stroke-weight="1"></path><path id="SvgjsPath1192" d="M 82.50946990941392 150.5960368490842 C 82.50946990941392 150.5960368490842 76.31812019039917 180.80540927703709 49.1748641812252 252.81192531572208" fill="none" stroke="black" stroke-weight="1"></path><path id="SvgjsPath1193" d="M 81.8220836782096 147.54200861376052 C 81.8220836782096 147.54200861376052 80.02159886681223 182.68081660243342 44.162414728242126 247.64428065095967" fill="none" stroke="black" stroke-weight="1"></path><path id="SvgjsPath1194" d="M 81.1773064254194 144.49412407680532 C 81.1773064254194 144.49412407680532 83.89998710201142 184.53579948125974 39.41450411928953 242.2325761367282" fill="none" stroke="black" stroke-weight="1"></path><path id="SvgjsPath1195" d="M 80.57554111583791 141.46000136225325 C 80.57554111583791 141.46000136225325 87.9435909452345 186.36919860959915 34.942999658225645 236.59033821595182" fill="none" stroke="black" stroke-weight="1"></path><path id="SvgjsPath1196" d="M 80.01716383319534 138.4472241967502 C 80.01716383319534 138.4472241967502 92.1423034927414 188.17986817267607 30.759077777488727 230.73166954501198" fill="none" stroke="black" stroke-weight="1"></path><path id="SvgjsPath1197" d="M 79.50252354511738 135.46332295418608 C 79.50252354511738 135.46332295418608 96.48563014981042 189.96667656095337 26.873196102836417 224.67121374445054" fill="none" stroke="black" stroke-weight="1"></path><path id="SvgjsPath1198" d="M 79.03194188503181 132.51575583368142 C 79.03194188503181 132.51575583368142 100.96271486175988 191.72850707735154 23.295067314727092 218.42411879754434" fill="none" stroke="black" stroke-weight="1"></path><path id="SvgjsPath1199" d="M 78.60571295115805 129.61189021797412 C 78.60571295115805 129.61189021797412 105.56236724843066 193.46425863514798 20.033634871677492 212.00599918823627" fill="none" stroke="black" stroke-weight="1"></path><path id="SvgjsPath1200" d="M 78.22410312270547 126.75898425879959 C 78.22410312270547 126.75898425879959 110.27309057430861 195.17284644612013 17.097050656274206 205.43289687305773" fill="none" stroke="black" stroke-weight="1"></path><path id="SvgjsPath1201" d="M 77.88735089339491 123.96416873529111 C 77.88735089339491 123.96416873529111 115.08311048437616 196.85320269850305 14.492654599712296 198.7212411845914" fill="none" stroke="black" stroke-weight="1"></path><path id="SvgjsPath1202" d="M 77.59566672240791 121.2344292307456 C 77.59566672240791 121.2344292307456 119.98040443386822 198.504277224337 12.226956335789822 191.88780776669552" fill="none" stroke="black" stroke-weight="1"></path><path id="SvgjsPath1203" d="M 77.3492329028566 118.57658867230347 C 77.3492329028566 118.57658867230347 124.95273173837262 200.12503815578813 10.305618930213711 184.94967664413122" fill="none" stroke="black" stroke-weight="1"></path><path id="SvgjsPath1204" d="M 77.14820344785646 115.99729027718433 C 77.14820344785646 115.99729027718433 129.98766416916595 201.71447257003234 8.733444725884766 177.92418953139634" fill="none" stroke="black" stroke-weight="1"></path><path id="SvgjsPath1205" d="M 76.99270399427306 113.50298094810341 C 76.99270399427306 113.50298094810341 135.07261701731318 203.271587122299 7.514363339541376 170.82890648747" fill="none" stroke="black" stroke-weight="1"></path><path id="SvgjsPath1206" d="M 76.88283172420317 111.09989515937215 C 76.88283172420317 111.09989515937215 140.19488054888632 204.7954086666792 6.651421839764026 163.68156202480978" fill="none" stroke="black" stroke-weight="1"></path><path id="SvgjsPath1207" d="M 76.81865530423909 108.79403937395938 C 76.81865530423909 108.79403937395938 145.34165177267994 206.28498486431036 6.146777130890882 156.50002078230705" fill="none" stroke="black" stroke-weight="1"></path><path id="SvgjsPath1208" d="M 76.80021484255424 106.59117703046226 C 76.80021484255424 106.59117703046226 150.500066441021 207.73938477855665 6.001690561880309 149.30223287299393" fill="none" stroke="black" stroke-weight="1"></path><path id="SvgjsPath1209" d="M 76.82752186383694 104.49681413751111 C 76.82752186383694 104.49681413751111 155.65723120368892 209.1576994568144 6.216524773595182 142.1061890181085" fill="none" stroke="black" stroke-weight="1"></path><path id="SvgjsPath1210" d="M 76.90055930208776 102.51618551161505 C 76.90055930208776 102.51618551161505 160.80025583457663 210.53904249857788 6.790742792389693 134.9298755796605" fill="none" stroke="black" stroke-weight="1"></path><path id="SvgjsPath1211" d="M 77.01928151128526 100.65424169284736 C 77.01928151128526 100.65424169284736 165.9162854505426 211.88255060941074 7.722909372263871 127.79122960389401" fill="none" stroke="black" stroke-weight="1"></path><path id="SvgjsPath1212" d="M 77.18361429391327 98.9156365710734 C 77.18361429391327 98.9156365710734 170.99253264192345 213.18738414047667 9.01069458223094 120.70809398801376" fill="none" stroke="black" stroke-weight="1"></path><path id="SvgjsPath1213" d="M 77.39345494733189 97.30471575364965 C 77.39345494733189 97.30471575364965 176.01630943439898 214.4527276132929 10.650879629931552 113.69817288223396" fill="none" stroke="black" stroke-weight="1"></path><path id="SvgjsPath1214" d="M 77.64867232796338 95.82550570366824 C 77.64867232796338 95.82550570366824 180.97505900232053 215.67779022937768 12.63936490693834 106.7789874386225" fill="none" stroke="black" stroke-weight="1"></path><path id="SvgjsPath1215" d="M 77.94910693325251 94.4817036758964 C 77.94910693325251 94.4817036758964 185.85638705423534 216.86180636447347 14.971180235641953 99.96783201734601" fill="none" stroke="black" stroke-weight="1"></path><path id="SvgjsPath1216" d="M 78.29457100135056 93.276668475565 C 78.29457100135056 93.276668475565 190.64809281215997 218.00403604703726 17.640497292106545 93.28173095977678" fill="none" stroke="black" stroke-weight="1"></path><path id="SvgjsPath1217" d="M 78.68484862846026 92.21341206310474 C 78.68484862846026 92.21341206310474 195.33819950717154 219.10376542069852 20.640644173844322 86.73739603650483" fill="none" stroke="black" stroke-weight="1"></path><path id="SvgjsPath1218" d="M 79.1196959037688 91.29459202581347 C 79.1196959037688 91.29459202581347 199.91498431509302 220.1603071903965 23.96412207609724 80.35118467661435" fill="none" stroke="black" stroke-weight="1"></path><path id="SvgjsPath1219" d="M 79.59884106188397 90.5225049352722 C 79.59884106188397 90.5225049352722 204.36700765744828 221.17300105191714 27.602624034943688 74.13905908263028" fill="none" stroke="black" stroke-weight="1"></path><path id="SvgjsPath1220" d="M 80.12198465267886 89.89908060711211 C 80.12198465267886 89.89908060711211 208.68314179445014 222.14121410456147 31.54705569038164 68.11654633332537" fill="none" stroke="black" stroke-weight="1"></path><path id="SvgjsPath1221" d="M 80.6887997284382 89.4258772774805 C 80.6887997284382 89.4258772774805 212.85259863855518 223.06434124668834 35.787558017492614 62.29869957410904" fill="none" stroke="black" stroke-weight="1"></path><path id="SvgjsPath1222" d="M 81.29893204819028 89.1040777082619 C 81.29893204819028 89.1040777082619 216.86495671906445 223.94180555388303 40.313531968869896 56.700060392003095" fill="none" stroke="black" stroke-weight="1"></path><path id="SvgjsPath1223" d="M 81.95200029909599 88.93448623078936 C 81.95200029909599 88.93448623078936 220.71018723037247 224.77305863951625 45.11366496671687 51.33462246924769" fill="none" stroke="black" stroke-weight="1"></path><path id="SvgjsPath1224" d="M 82.64759633475676 88.91752673543508 C 82.64759633475676 88.91752673543508 224.37867909875823 225.55758099746785 50.17595917839974 46.215796606383876" fill="none" stroke="black" stroke-weight="1"></path><path id="SvgjsPath1225" d="M 83.38528543029288 89.05324161210507 C 83.38528543029288 89.05324161210507 227.8612630050642 226.29488232680146 55.48776150478092 41.356377202235976" fill="none" stroke="black" stroke-weight="1"></path><path id="SvgjsPath1226" d="M 84.1646065540325 89.34129164428661 C 84.1646065540325 89.34129164428661 231.14923430321943 226.98450183818647 61.035795206377855 36.76851027457754" fill="none" stroke="black" stroke-weight="1"></path><path id="SvgjsPath1227" d="M 84.98507265564133 89.78095685691281 C 84.98507265564133 89.78095685691281 234.234374777321 227.6260085418763 66.80619308829682 32.46366310141255" fill="none" stroke="black" stroke-weight="1"></path><path id="SvgjsPath1228" d="M 85.84617097051313 90.37113831592532 C 85.84617097051313 90.37113831592532 237.10897318289358 228.21900151706313 72.78453216099797 28.45259555875313" fill="none" stroke="black" stroke-weight="1"></path><path id="SvgjsPath1229" d="M 86.74736334023106 91.11036087503714 C 86.74736334023106 91.11036087503714 239.76584452098513 228.76311016244023 78.95586969025813 24.74533322653238" fill="none" stroke="black" stroke-weight="1"></path><path id="SvgjsPath1230" d="M 87.68808654889911 91.99677686283019 C 87.68808654889911 91.99677686283019 242.19834799692234 229.25799442781567 85.3047805462248 21.35114232987584" fill="none" stroke="black" stroke-weight="1"></path><path id="SvgjsPath1231" d="M 88.66775267513381 93.02817070097151 C 88.66775267513381 93.02817070097151 244.4004036188387 229.70334502663286 91.81539575820717 18.278506578364585" fill="none" stroke="black" stroke-weight="1"></path><path id="SvgjsPath1232" d="M 89.68574945949572 94.2019644420053 C 89.68574945949572 94.2019644420053 246.36650739448783 230.09888362926426 98.47144217883792 15.535105961179767" fill="none" stroke="black" stroke-weight="1"></path><path id="SvgjsPath1233" d="M 90.7414406871318 95.51522421287885 C 90.7414406871318 95.51522421287885 248.09174508835753 230.44436303695858 105.25628315846717 13.127797551128992" fill="none" stroke="black" stroke-weight="1"></path><path id="SvgjsPath1234" d="M 91.83416658538906 96.96466754809748 C 91.83416658538906 96.96466754809748 249.57180450469968 230.73956733633185 112.15296012812297 11.062598365535308" fill="none" stroke="black" stroke-weight="1"></path><path id="SvgjsPath1235" d="M 92.96324423615084 98.54667159417873 C 92.96324423615084 98.54667159417873 250.80298626577348 230.9843120343063 119.14423498710138 9.344670326827725" fill="none" stroke="black" stroke-weight="1"></path><path id="SvgjsPath1236" d="M 94.12796800263853 100.2572821648991 C 94.12796800263853 100.2572821648991 251.78221305836323 231.17844417341246 126.21263318924025 7.9783073604234005" fill="none" stroke="black" stroke-weight="1"></path><path id="SvgjsPath1237" d="M 95.32760997041134 102.0922236247005 C 95.32760997041134 102.0922236247005 252.5070373254589 231.32184242738268 133.34048742018462 6.966924662150348" fill="none" stroke="black" stroke-weight="1"></path><path id="SvgjsPath1238" d="M 96.56142040228954 104.0469095755525 C 96.56142040228954 104.0469095755525 252.975647383874 231.41441717697597 140.5099817564721 6.313050162036262" fill="none" stroke="black" stroke-weight="1"></path><path id="SvgjsPath1239" d="M 97.82862820691548 106.11645432055886 C 97.82862820691548 106.11645432055886 253.18687195250988 231.4561105659874 147.70319619606266 6.018318205800142" fill="none" stroke="black" stroke-weight="1"></path><path id="SvgjsPath1240" d="M 99.12844142066066 108.295685075655 C 99.12844142066066 108.295685075655 253.14018307994854 231.4468965374059 154.90215144901083 6.083465469839211" fill="none" stroke="black" stroke-weight="1"></path><path id="SvgjsPath1241" d="M 100.46004770257716 110.5791548988746 C 100.46004770257716 110.5791548988746 252.83569746405635 231.3867808496995 162.08885387632728 6.50832911992137" fill="none" stroke="black" stroke-weight="1"></path><path id="SvgjsPath1242" d="M 101.82261484208448 112.96115630486773 C 101.82261484208448 112.96115630486773 252.27417616029996 231.2758010732161 169.24534046470635 7.2918472181861205" fill="none" stroke="black" stroke-weight="1"></path><path id="SvgjsPath1243" d="M 103.21529127907397 115.43573553064188 C 103.21529127907397 115.43573553064188 251.4570226795041 231.11402656670344 176.35372372470343 8.432061377436156" fill="none" stroke="black" stroke-weight="1"></path><path id="SvgjsPath1244" d="M 104.63720663610603 117.99670741686847 C 104.63720663610603 117.99670741686847 250.38627947980544 230.90155843396215 183.39623640014278 9.926121656085428" fill="none" stroke="black" stroke-weight="1"></path><path id="SvgjsPath1245" d="M 106.0874722623678 120.6376708675602 C 106.0874722623678 120.6376708675602 249.06462286157102 230.63852946065904 190.35527587700523 11.770293681528784" fill="none" stroke="black" stroke-weight="1"></path><path id="SvgjsPath1246" d="M 107.56518178905111 123.35202484947762 C 107.56518178905111 123.35202484947762 247.49535627804096 230.32510403134046 197.21344818079655 13.959967984128866" fill="none" stroke="black" stroke-weight="1"></path><path id="SvgjsPath1247" d="M 109.06941169580334 126.13298489127428 C 109.06941169580334 126.13298489127428 245.68240207841575 229.9614780266973 203.95361145242458 16.489671518489644" fill="none" stroke="black" stroke-weight="1"></path><path id="SvgjsPath1248" d="M 110.59922188789756 128.97360004114154 C 110.59922188789756 128.97360004114154 243.6302917040262 229.54787870114595 210.55891879391928 19.35308134321923" fill="none" stroke="black" stroke-weight="1"></path><path id="SvgjsPath1249" d="M 112.15365628376107 131.86677024056846 C 112.15365628376107 131.86677024056846 241.34415436209002 229.08456454080158 217.01286037690414 22.54304042499072" fill="none" stroke="black" stroke-weight="1"></path><path id="SvgjsPath1250" d="M 113.73174341249556 134.80526407079043 C 113.73174341249556 134.80526407079043 238.82970420536452 228.57182510193294 223.29930470856976 26.05157552739834" fill="none" stroke="black" stroke-weight="1"></path><path id="SvgjsPath1251" d="M 115.33249702101459 137.78173682757006 C 115.33249702101459 137.78173682757006 236.09322604974122 228.00998082999888 229.4025389520042 29.86991713989599" fill="none" stroke="black" stroke-weight="1"></path><path id="SvgjsPath1252" d="M 116.95491669041955 140.7887488791323 C 116.95491669041955 140.7887488791323 233.14155966547895 227.39938285938058 235.3073082001015 33.98852139700614" fill="none" stroke="black" stroke-weight="1"></path><path id="SvgjsPath1253" d="M 118.59798846122905 143.81878426136973 C 118.59798846122905 143.81878426136973 229.9820826813403 226.74041279393384 240.99885360488554 38.39709393301352" fill="none" stroke="black" stroke-weight="1"></path><metadata>61 * Math.sin(t/2);36 * Math.cos(t/1)+36 * Math.sin(t/1);43 * Math.sin(t/1)+43 * Math.sin(t/1);48 * Math.cos(t/2)+48 * Math.sin(t/2)</metadata></svg></svg>