<svg id="SvgjsSvg1422" width="300" height="300" xmlns="http://www.w3.org/2000/svg" version="1.1" xmlns:xlink="http://www.w3.org/1999/xlink" xmlns:svgjs="http://svgjs.com/svgjs"><defs id="SvgjsDefs1423"></defs><svg id="SvgjsSvg1424" style="overflow: visible;"><path id="SvgjsPath1425" d="M 100 174.39999999999998 L 100 174.39999999999998 54.4 100.00000000000001" fill="none" stroke="black" stroke-weight="1"></path><path id="SvgjsPath1426" d="M 107.42760619852402 174.02830989668513 L 107.42760619852402 174.02830989668513 54.62781006332202 93.53079460128554" fill="none" stroke="black" stroke-weight="1"></path><path id="SvgjsPath1427" d="M 114.78099821115255 172.91695339138838 L 114.78099821115255 172.91695339138838 55.308964050439386 87.12622736448003" fill="none" stroke="black" stroke-weight="1"></path><path id="SvgjsPath1428" d="M 121.98670337560367 171.07703479094508 L 121.98670337560367 171.07703479094508 56.436656095872365 80.85029060834522" fill="none" stroke="black" stroke-weight="1"></path><path id="SvgjsPath1429" d="M 128.9727246677636 168.52693795381464 L 128.9727246677636 168.52693795381464 57.99961867346843 74.76569141839946" fill="none" stroke="black" stroke-weight="1"></path><path id="SvgjsPath1430" d="M 135.6692600721527 165.29214260464374 L 135.6692600721527 165.29214260464374 59.982235177799 68.93322509844765" fill="none" stroke="black" stroke-weight="1"></path><path id="SvgjsPath1431" d="M 142.00940002059062 161.40496974928007 L 142.00940002059062 161.40496974928007 62.36469596011867 63.41116772400171" fill="none" stroke="black" stroke-weight="1"></path><path id="SvgjsPath1432" d="M 147.9297959304842 156.90425873396595 L 147.9297959304842 156.90425873396595 65.12319625982732 58.25469386699762" fill="none" stroke="black" stroke-weight="1"></path><path id="SvgjsPath1433" d="M 153.37129316292447 151.8349791754291 L 153.37129316292447 151.8349791754291 68.23017405376925 53.51532530971094" fill="none" stroke="black" stroke-weight="1"></path><path id="SvgjsPath1434" d="M 158.27952207628476 146.24778163933743 L 158.27952207628476 146.24778163933743 71.65458544685771 49.24041625613906" fill="none" stroke="black" stroke-weight="1"></path><path id="SvgjsPath1435" d="M 162.60544126970748 140.1984915565896 L 162.60544126970748 140.1984915565896 75.36221485241283 45.472680184448315" fill="none" stroke="black" stroke-weight="1"></path><path id="SvgjsPath1436" d="M 166.30582758857076 133.74755143406296 L 166.30582758857076 133.74755143406296 79.31601686299365 42.24976306801901" fill="none" stroke="black" stroke-weight="1"></path><path id="SvgjsPath1437" d="M 169.34370799596164 126.95941693306452 L 169.34370799596164 126.95941693306452 83.47648639586369 39.60386722932373" fill="none" stroke="black" stroke-weight="1"></path><path id="SvgjsPath1438" d="M 171.68872899503916 119.9019128496693 L 171.68872899503916 119.9019128496693 87.8020534147188 37.56142958496591" fill="none" stroke="black" stroke-weight="1"></path><path id="SvgjsPath1439" d="M 173.31745991114144 112.64555543177792 L 173.31745991114144 112.64555543177792 92.24949828374902 36.14285749674777" fill="none" stroke="black" stroke-weight="1"></path><path id="SvgjsPath1440" d="M 174.21362700334166 105.26284780407708 L 174.21362700334166 105.26284780407708 96.77438360395274 35.36232486805727" fill="none" stroke="black" stroke-weight="1"></path><path id="SvgjsPath1441" d="M 174.368276066288 97.82755554078409 L 174.368276066288 97.82755554078409 101.33149821693878 35.227630522910474" fill="none" stroke="black" stroke-weight="1"></path><path id="SvgjsPath1442" d="M 173.77986189766364 90.41396962441293 L 173.77986189766364 90.41396962441293 105.87530893987594 35.74012028268004" fill="none" stroke="black" stroke-weight="1"></path><path id="SvgjsPath1443" d="M 172.45426373733773 83.09616415483428 L 172.45426373733773 83.09616415483428 110.3604155180048 36.89467351909296" fill="none" stroke="black" stroke-weight="1"></path><path id="SvgjsPath1444" d="M 170.40472652394362 75.9472562253553 L 170.40472652394362 75.9472562253553 114.74200424897576 38.67975431785555" fill="none" stroke="black" stroke-weight="1"></path><path id="SvgjsPath1445" d="M 167.6517285558307 69.03867536089257 L 167.6517285558307 69.03867536089257 118.97629574654968 41.07752674169583" fill="none" stroke="black" stroke-weight="1"></path><path id="SvgjsPath1446" d="M 164.2227768786762 62.43944981777057 L 164.2227768786762 62.43944981777057 123.02098236975351 44.06403304115299" fill="none" stroke="black" stroke-weight="1"></path><path id="SvgjsPath1447" d="M 160.15213244417748 56.215516876202244 L 160.15213244417748 56.215516876202244 126.8356509468438 47.60943303249059" fill="none" stroke="black" stroke-weight="1"></path><path id="SvgjsPath1448" d="M 155.48046778594795 50.429064016781034 L 155.48046778594795 50.429064016781034 130.38218657036 51.678302250948555" fill="none" stroke="black" stroke-weight="1"></path><path id="SvgjsPath1449" d="M 150.25446063300558 45.13790756373129 L 150.25446063300558 45.13790756373129 133.6251534286808 56.229985900285435" fill="none" stroke="black" stroke-weight="1"></path><path id="SvgjsPath1450" d="M 144.5263275213343 40.39491500330809 L 144.5263275213343 40.39491500330809 136.5321488689402 61.219005062063665" fill="none" stroke="black" stroke-weight="1"></path><path id="SvgjsPath1451" d="M 138.35330206351688 36.24747674935029 L 138.35330206351688 36.24747674935029 139.07412715362403 66.5955111059692" fill="none" stroke="black" stroke-weight="1"></path><path id="SvgjsPath1452" d="M 131.7970630893969 32.73703263393061 L 131.7970630893969 32.73703263393061 141.225689675978 72.30578376084787" fill="none" stroke="black" stroke-weight="1"></path><path id="SvgjsPath1453" d="M 124.92311837159924 29.89865785425181 L 124.92311837159924 29.89865785425181 142.9653387344908 78.2927678698974" fill="none" stroke="black" stroke-weight="1"></path><path id="SvgjsPath1454" d="M 117.80015009352019 27.76071251287044 L 117.80015009352019 27.76071251287044 144.27569233082136 84.49664346693402" fill="none" stroke="black" stroke-weight="1"></path><path id="SvgjsPath1455" d="M 110.49932859965402 26.344558252926845 L 110.49932859965402 26.344558252926845 145.1436578449803 90.8554234777207" fill="none" stroke="black" stroke-weight="1"></path><path id="SvgjsPath1456" d="M 103.09360128503671 25.664344819668003 L 103.09360128503671 25.664344819668003 145.56056285246154 97.30557307432285" fill="none" stroke="black" stroke-weight="1"></path><path id="SvgjsPath1457" d="M 95.65696372898795 25.726868680870382 L 95.65696372898795 25.726868680870382 145.52224177624072 103.78264449410725" fill="none" stroke="black" stroke-weight="1"></path><path id="SvgjsPath1458" d="M 88.26372035574221 26.531505118780473 L 88.26372035574221 26.531505118780473 145.02907750784422 110.2219209804826" fill="none" stroke="black" stroke-weight="1"></path><path id="SvgjsPath1459" d="M 80.98774200920363 28.07021447208814 L 80.98774200920363 28.07021447208814 144.0859975816234 116.5590634113388" fill="none" stroke="black" stroke-weight="1"></path><path id="SvgjsPath1460" d="M 73.90172785989216 30.3276224655648 L 73.90172785989216 30.3276224655648 142.70242494046028 122.73075315428747" fill="none" stroke="black" stroke-weight="1"></path><path id="SvgjsPath1461" d="M 67.07647901886286 33.281173824739525 L 67.07647901886286 33.281173824739525 140.89218378483707 128.6753247255065" fill="none" stroke="black" stroke-weight="1"></path><path id="SvgjsPath1462" d="M 60.58019111640798 36.90135764074571 L 60.58019111640798 36.90135764074571 138.67336144599457 134.33338193087047" fill="none" stroke="black" stroke-weight="1"></path><path id="SvgjsPath1463" d="M 54.47777291386158 41.15200223356749 L 54.47777291386158 41.15200223356749 136.06812766329733 139.6483913330883" fill="none" stroke="black" stroke-weight="1"></path><path id="SvgjsPath1464" d="M 48.83019775671224 45.99063656750969 L 48.83019775671224 45.99063656750969 133.10251307152632 144.5672471151216" fill="none" stroke="black" stroke-weight="1"></path><path id="SvgjsPath1465" d="M 43.69389434909005 51.36891460774738 L 43.69389434909005 51.36891460774738 129.80614911138065 149.0408016959538" fill="none" stroke="black" stroke-weight="1"></path><path id="SvgjsPath1466" d="M 39.120182936807794 57.23309837792488 L 39.120182936807794 57.23309837792488 126.21197196191702 153.02435679697385" fill="none" stroke="black" stroke-weight="1"></path><path id="SvgjsPath1467" d="M 35.154762532429004 63.52459489225202 L 35.154762532429004 63.52459489225202 122.35589345313586 156.47811005240055" fill="none" stroke="black" stroke-weight="1"></path><path id="SvgjsPath1468" d="M 31.83725430584053 70.18054159724988 L 31.83725430584053 70.18054159724988 118.27644224684684 159.3675527013647" fill="none" stroke="black" stroke-weight="1"></path><path id="SvgjsPath1469" d="M 29.200805702620002 77.1344344736056 L 29.200805702620002 77.1344344736056 114.01437887101592 161.66381438804063" fill="none" stroke="black" stroke-weight="1"></path><path id="SvgjsPath1470" d="M 27.27175924571678 84.31679252234999 L 27.27175924571678 84.31679252234999 109.61228845404356 163.3439516246983" fill="none" stroke="black" stroke-weight="1"></path><path id="SvgjsPath1471" d="M 26.06938932967026 91.65585199603191 L 26.06938932967026 91.65585199603191 105.1141552282385 164.3911770354485" fill="none" stroke="black" stroke-weight="1"></path><path id="SvgjsPath1472" d="M 25.605709637230902 99.07828343836087 L 25.605709637230902 99.07828343836087 100.56492305390786 164.79502709015372" fill="none" stroke="black" stroke-weight="1"></path><path id="SvgjsPath1473" d="M 25.88535310261345 106.50992436789474 L 25.88535310261345 106.50992436789474 96.0100463551613 164.55146665256248" fill="none" stroke="black" stroke-weight="1"></path><path id="SvgjsPath1474" d="M 26.905525620749643 113.8765202850395 L 26.905525620749643 113.8765202850395 91.49503595433063 163.66292929805678" fill="none" stroke="black" stroke-weight="1"></path><path id="SvgjsPath1475" d="M 28.656033965062463 121.10446659846392 L 28.656033965062463 121.10446659846392 87.06500434287696 162.1382929981714" fill="none" stroke="black" stroke-weight="1"></path><path id="SvgjsPath1476" d="M 31.11938763481666 128.1215440578456 L 31.11938763481666 128.1215440578456 82.76421493228818 159.99279141483711" fill="none" stroke="black" stroke-weight="1"></path><path id="SvgjsPath1477" d="M 34.27097361442051 134.8576403447479 L 34.27097361442051 134.8576403447479 78.63563978870292 157.247861690666" fill="none" stroke="black" stroke-weight="1"></path><path id="SvgjsPath1478" d="M 38.07930229854164 141.24545061172938 L 38.07930229854164 141.24545061172938 74.72053027023037 153.9309302561089" fill="none" stroke="black" stroke-weight="1"></path><path id="SvgjsPath1479" d="M 42.506322125834394 147.22114997013182 L 42.506322125834394 147.22114997013182 71.05800485701599 150.07513879362813" fill="none" stroke="black" stroke-weight="1"></path><path id="SvgjsPath1480" d="M 47.507799777562646 152.72503120726955 L 47.507799777562646 152.72503120726955 67.68465829231866 145.71901309696156" fill="none" stroke="black" stroke-weight="1"></path><path id="SvgjsPath1481" d="M 53.03376214229907 157.7021013611624 L 53.03376214229907 157.7021013611624 64.63419593993272 140.90607813412663" fill="none" stroke="black" stroke-weight="1"></path><path id="SvgjsPath1482" d="M 59.02899563073549 162.1026311920333 L 59.02899563073549 162.1026311920333 61.93709701133443 135.68442316032716" fill="none" stroke="black" stroke-weight="1"></path><path id="SvgjsPath1483" d="M 65.43359785161616 165.88265206043397 L 65.43359785161616 165.88265206043397 59.62031002747595 130.10622122601174" fill="none" stroke="black" stroke-weight="1"></path><path id="SvgjsPath1484" d="M 72.18357613663008 169.00439524735611 L 72.18357613663008 169.00439524735611 57.70698355807206 124.22720788099963" fill="none" stroke="black" stroke-weight="1"></path><path id="SvgjsPath1485" d="M 79.21148693399954 171.43666932678713 L 79.21148693399954 171.43666932678713 56.216234928743376 118.10612428329074" fill="none" stroke="black" stroke-weight="1"></path><path id="SvgjsPath1486" d="M 86.44710968215568 173.1551718201282 L 86.44710968215568 173.1551718201282 55.1629592070182 111.80413027683215" fill="none" stroke="black" stroke-weight="1"></path><path id="SvgjsPath1487" d="M 93.8181484303778 174.14273201852734 L 93.8181484303778 174.14273201852734 54.55768037574131 105.38419330257418" fill="none" stroke="black" stroke-weight="1"></path><path id="SvgjsPath1488" d="M 101.25095419603515 174.3894825469261 L 101.25095419603515 174.3894825469261 54.40644618091627 98.91045924861454" fill="none" stroke="black" stroke-weight="1"></path><path id="SvgjsPath1489" d="M 108.6712608408762 173.89295795560957 L 108.6712608408762 173.89295795560957 54.710767704626384 92.44761152568847" fill="none" stroke="black" stroke-weight="1"></path><path id="SvgjsPath1490" d="M 116.00492711373296 172.65811935416505 L 116.00492711373296 172.65811935416505 55.46760426680206 86.06022477191001" fill="none" stroke="black" stroke-weight="1"></path><path id="SvgjsPath1491" d="M 123.17867744539481 170.69730484171475 L 123.17867744539481 170.69730484171475 56.66939380669095 79.81211964433356" fill="none" stroke="black" stroke-weight="1"></path><path id="SvgjsPath1492" d="M 130.12083409387438 168.030106228708 L 130.12083409387438 168.030106228708 58.30412844046929 73.76572514404491" fill="none" stroke="black" stroke-weight="1"></path><path id="SvgjsPath1493" d="M 136.76203332471192 164.68317328202727 L 136.76203332471192 164.68317328202727 60.35547444004779 67.98145484621864" fill="none" stroke="black" stroke-weight="1"></path><path id="SvgjsPath1494" d="M 143.03591847048153 160.68994744932692 L 143.03591847048153 160.68994744932692 62.80293543428349 62.51710326764511" fill="none" stroke="black" stroke-weight="1"></path><path id="SvgjsPath1495" d="M 148.8798029446774 156.0903277231423 L 148.8798029446774 156.0903277231423 65.62205720194504 57.427268403022914" fill="none" stroke="black" stroke-weight="1"></path><path id="SvgjsPath1496" d="M 154.23529658536472 150.93027198334528 L 154.23529658536472 150.93027198334528 68.78467201020771 52.762806199843645" fill="none" stroke="black" stroke-weight="1"></path><path id="SvgjsPath1497" d="M 159.04888907037656 145.2613378012003 L 159.04888907037656 145.2613378012003 72.25918005732883 48.570322422575266" fill="none" stroke="black" stroke-weight="1"></path><path id="SvgjsPath1498" d="M 163.2724845747648 139.14016729315486 L 163.2724845747648 139.14016729315486 76.01086520742122 44.891706983269366" fill="none" stroke="black" stroke-weight="1"></path><path id="SvgjsPath1499" d="M 166.8638823283847 132.62792117153535 L 166.8638823283847 132.62792117153535 80.00224186260736 41.76371539140689" fill="none" stroke="black" stroke-weight="1"></path><path id="SvgjsPath1500" d="M 169.7871982720403 125.78966764692666 L 169.7871982720403 125.78966764692666 84.19342950672237 39.21760150499716" fill="none" stroke="black" stroke-weight="1"></path><path id="SvgjsPath1501" d="M 172.01322359914238 118.69373228812059 L 172.01322359914238 118.69373228812059 88.54255117824866 37.27880525235986" fill="none" stroke="black" stroke-weight="1"></path><path id="SvgjsPath1502" d="M 173.5197166004487 111.41101533561796 L 173.5197166004487 111.41101533561796 93.00615189107286 35.966698444770486" fill="none" stroke="black" stroke-weight="1"></path><path id="SvgjsPath1503" d="M 174.29162489587054 104.014283289862 L 174.29162489587054 104.014283289862 97.53963282234264 35.29439121972564" fill="none" stroke="black" stroke-weight="1"></path><path id="SvgjsPath1504" d="M 174.3212358328791 96.57744185241937 L 174.3212358328791 96.57744185241937 102.09769692916231 35.26860104878274" fill="none" stroke="black" stroke-weight="1"></path><path id="SvgjsPath1505" d="M 173.60825354877974 89.17479748464007 L 173.60825354877974 89.17479748464007 106.6348015416722 35.889585618804745" fill="none" stroke="black" stroke-weight="1"></path><path id="SvgjsPath1506" d="M 172.15980192687465 81.88031496205804 L 172.15980192687465 81.88031496205804 111.10561341035152 37.151140257238204" fill="none" stroke="black" stroke-weight="1"></path><path id="SvgjsPath1507" d="M 169.99035341697544 74.76687834280358 L 169.99035341697544 74.76687834280358 115.46546166086232 39.04065992715042" fill="none" stroke="black" stroke-weight="1"></path><path id="SvgjsPath1508" d="M 167.12158443146868 67.90556273418676 L 167.12158443146868 67.90556273418676 119.67078413065973 41.5392651725918" fill="none" stroke="black" stroke-weight="1"></path><path id="SvgjsPath1509" d="M 163.5821587617686 61.3649241337195 L 163.5821587617686 61.3649241337195 123.6795626277203 44.62199075587895" fill="none" stroke="black" stroke-weight="1"></path><path id="SvgjsPath1510" d="M 159.4074411791883 55.21031444024997 L 159.4074411791883 55.21031444024997 127.45174276242743 48.25803510199727" fill="none" stroke="black" stroke-weight="1"></path><path id="SvgjsPath1511" d="M 154.63914408183476 49.50322847939185 L 154.63914408183476 49.50322847939185 130.94963415779208 52.41106805775683" fill="none" stroke="black" stroke-weight="1"></path><path id="SvgjsPath1512" d="M 149.32491071811523 44.300689567554244 L 149.32491071811523 44.300689567554244 134.13828703924094 57.03959389067383" fill="none" stroke="black" stroke-weight="1"></path><path id="SvgjsPath1513" d="M 143.51783915114802 39.6546797538135 L 143.51783915114802 39.6546797538135 136.98584144121108 62.097365900613006" fill="none" stroke="black" stroke-weight="1"></path><path id="SvgjsPath1514" d="M 137.27595172046765 35.61162043246185 L 137.27595172046765 35.61162043246185 139.46384554139433 67.53384850152817" fill="none" stroke="black" stroke-weight="1"></path><path id="SvgjsPath1515" d="M 130.66161530198778 32.211908515780536 L 130.66161530198778 32.211908515780536 141.54753994194095 73.29472215633322" fill="none" stroke="black" stroke-weight="1"></path><path id="SvgjsPath1516" d="M 123.74091815879292 29.489512801445656 L 123.74091815879292 29.489512801445656 143.21610505717848 79.32242611976099" fill="none" stroke="black" stroke-weight="1"></path><path id="SvgjsPath1517" d="M 116.58300960905959 27.4716345675305 L 116.58300960905959 27.4716345675305 144.45286913602968 85.55673356630294" fill="none" stroke="black" stroke-weight="1"></path><path id="SvgjsPath1518" d="M 109.2594091089267 26.17843578632646 L 109.2594091089267 26.17843578632646 145.24547484063862 91.93535335674125" fill="none" stroke="black" stroke-weight="1"></path><path id="SvgjsPath1519" d="M 101.84329165373114 25.622837672580673 L 101.84329165373114 25.622837672580673 145.5860027168054 98.39455243062126" fill="none" stroke="black" stroke-weight="1"></path><path id="SvgjsPath1520" d="M 94.40875663764271 25.810391578989353 L 94.40875663764271 25.810391578989353 145.4710503225549 104.86979260592409" fill="none" stroke="black" stroke-weight="1"></path><path id="SvgjsPath1521" d="M 87.03008747701162 26.739223528916725 L 87.03008747701162 26.739223528916725 144.90176622421234 111.29637542324794" fill="none" stroke="black" stroke-weight="1"></path><path id="SvgjsPath1522" d="M 79.78100939502716 28.400052940550168 L 79.78100939502716 28.400052940550168 143.88383852030796 117.61008859142795" fill="none" stroke="black" stroke-weight="1"></path><path id="SvgjsPath1523" d="M 72.73395278365788 30.776285355405832 L 72.73395278365788 30.776285355405832 142.4274380079771 123.74784757552378" fill="none" stroke="black" stroke-weight="1"></path><path id="SvgjsPath1524" d="M 65.95932950311737 33.84417824467248 L 65.95932950311737 33.84417824467248 140.54711655971687 129.6483259166397" fill="none" stroke="black" stroke-weight="1"></path><path id="SvgjsPath1525" d="M 59.5248293498321 37.57307823671115 L 59.5248293498321 37.57307823671115 138.2616617258867 135.2525679856301" fill="none" stroke="black" stroke-weight="1"></path></svg></svg>