<svg id="SvgjsSvg1252" width="300" height="300" xmlns="http://www.w3.org/2000/svg" version="1.1" xmlns:xlink="http://www.w3.org/1999/xlink" xmlns:svgjs="http://svgjs.com/svgjs"><defs id="SvgjsDefs1253"></defs><path id="SvgjsPath1254" d="M 243.7194686980248 226.0355759440829 C 243.7194686980248 226.0355759440829 102.66695904175853 162.7176981598097 194.41247867545133 286.98004138524186" fill="none" stroke="black" stroke-weight="1"></path><path id="SvgjsPath1255" d="M 241.2120113253127 226.00419400078567 C 241.2120113253127 226.00419400078567 104.13971950044649 160.7024384957455 187.51082596679535 289.02855079187435" fill="none" stroke="black" stroke-weight="1"></path><path id="SvgjsPath1256" d="M 238.47657142658448 225.8471287141893 C 238.47657142658448 225.8471287141893 105.66692311926445 158.68049015600081 180.51541572848294 290.7295612261968" fill="none" stroke="black" stroke-weight="1"></path><path id="SvgjsPath1257" d="M 235.51998617699752 225.56352167576557 C 235.51998617699752 225.56352167576557 107.24280735344828 156.65311679247085 173.44373284297063 292.0788210479923" fill="none" stroke="black" stroke-weight="1"></path><path id="SvgjsPath1258" d="M 232.34964549991585 225.15279136966006 C 232.34964549991585 225.15279136966006 108.86152681064345 154.62158544751384 166.31345283461093 293.0729578103875" fill="none" stroke="black" stroke-weight="1"></path><path id="SvgjsPath1259" d="M 228.97347359595074 224.61463543262823 C 228.97347359595074 224.61463543262823 110.51716905284337 152.58716576209127 159.14239769004666 293.7094866892128" fill="none" stroke="black" stroke-weight="1"></path><path id="SvgjsPath1260" d="M 225.39990913658568 223.949032240352 C 225.39990913658568 223.949032240352 112.20377054089624 150.55112918228326 151.94849131252596 293.9868166937689" fill="none" stroke="black" stroke-weight="1"></path><path id="SvgjsPath1261" d="M 221.63788417189278 223.15624181565363 C 221.63788417189278 223.15624181565363 113.91533268099761 148.5147481646763 144.74971472147865 293.90425464347516" fill="none" stroke="black" stroke-weight="1"></path><path id="SvgjsPath1262" d="M 217.69680180505904 222.2368060558024 C 217.69680180505904 222.2368060558024 115.64583793234792 146.47929538111947 137.56406110933193 293.46200690045976" fill="none" stroke="black" stroke-weight="1"></path><path id="SvgjsPath1263" d="M 213.58651268952548 221.19154827779798 C 213.58651268952548 221.19154827779798 117.38926593501864 144.44604292334552 130.40949086790005 292.6611788537621" fill="none" stroke="black" stroke-weight="1"></path><path id="SvgjsPath1264" d="M 209.3172904074837 220.02157208220478 C 209.3172904074837 220.02157208220478 119.13960961703488 142.41626150795537 123.30388669675851 291.5037721564358" fill="none" stroke="black" stroke-weight="1"></path><path id="SvgjsPath1265" d="M 204.89980579127095 218.72825953780082 C 204.89980579127095 218.72825953780082 120.89089123975482 140.3912196822614 116.26500890580806 289.9926797224583" fill="none" stroke="black" stroke-weight="1"></path><path id="SvgjsPath1266" d="M 200.34510025184613 217.31326869098916 C 200.34510025184613 217.31326869098916 122.63717834079515 138.3721830314867 109.3104510237493 288.1316784959529" fill="none" stroke="black" stroke-weight="1"></path><path id="SvgjsPath1267" d="M 195.6645581810131 215.77853040559538 C 195.6645581810131 215.77853040559538 124.3725995340283 136.3604133878156 102.45759582342376 285.92542001079516" fill="none" stroke="black" stroke-weight="1"></path><path id="SvgjsPath1268" d="M 190.86987849636964 214.12624454033366 C 190.86987849636964 214.12624454033366 126.09136012655237 134.35716804178935 95.72357187393413 283.37941876420064" fill="none" stroke="black" stroke-weight="1"></path><path id="SvgjsPath1269" d="M 185.97304540010657 212.35887547287007 C 185.97304540010657 212.35887547287007 127.78775751301005 132.36369895654084 89.1252107281424 280.50003843335423" fill="none" stroke="black" stroke-weight="1"></path><path id="SvgjsPath1270" d="M 180.9862984247431 210.4791469810301 C 180.9862984247431 210.4791469810301 129.45619630821105 130.38125198535812 82.67900485255285 277.2944759695306" fill="none" stroke="black" stroke-weight="1"></path><path id="SvgjsPath1271" d="M 175.92210184067005 208.49003649329566 C 175.92210184067005 208.49003649329566 131.09120317968387 128.41106609306672 76.40106640473546 273.77074360946466" fill="none" stroke="black" stroke-weight="1"></path><path id="SvgjsPath1272" d="M 170.79311350196497 206.3947687222991 C 170.79311350196497 206.3947687222991 132.68744134255417 126.454372581717 70.3070869613225 269.93764884893227" fill="none" stroke="black" stroke-weight="1"></path><path id="SvgjsPath1273" d="M 165.61215320834918 204.19680869655684 C 165.61215320834918 204.19680869655684 134.2397246800117 124.51239432106048 64.41229829723952 265.80477242859763" fill="none" stroke="black" stroke-weight="1"></path><path id="SvgjsPath1274" d="M 160.39217066236478 201.89985420717596 C 160.39217066236478 201.89985420717596 135.74303145358272 122.58634498429592 58.73143431420003 261.38244438715117" fill="none" stroke="black" stroke-weight="1"></path><path id="SvgjsPath1275" d="M 155.14621310186223 199.50782768772112 C 155.14621310186223 199.50782768772112 137.19251756847297 120.67742828956318 53.27869421362482 256.68171824159236" fill="none" stroke="black" stroke-weight="1"></path><path id="SvgjsPath1276" d="M 149.88739268870103 197.02486754683744 C 149.88739268870103 197.02486754683744 138.58352936037812 118.78683724765851 48.06770700603326 251.71434335919452" fill="none" stroke="black" stroke-weight="1"></path><path id="SvgjsPath1277" d="M 144.62885373517332 194.4553189745813 C 144.62885373517332 194.4553189745813 139.91161587137748 116.91575341644179 43.11149744561466 246.4927355902047" fill="none" stroke="black" stroke-weight="1"></path><path id="SvgjsPath1278" d="M 139.38373985006882 191.80372424472105 C 139.38373985006882 191.80372424472105 141.17254058382454 115.06534616240107 38.42245347512599 241.02994623468464" fill="none" stroke="black" stroke-weight="1"></path><path id="SvgjsPath1279" d="M 134.16516108649768 189.07481253651883 C 134.16516108649768 189.07481253651883 142.36229258252553 113.23677192983675 34.01229526248656 235.33962942105734" fill="none" stroke="black" stroke-weight="1"></path><path id="SvgjsPath1280" d="M 128.98616117358563 186.27348930070048 C 128.98616117358563 186.27348930070048 143.47709711694824 111.43117351812157 29.892045906461973 229.4360079778973" fill="none" stroke="black" stroke-weight="1"></path><path id="SvgjsPath1281" d="M 123.85968491394392 183.40482519545057 C 123.85968491394392 183.40482519545057 144.51342553672512 109.64967936748809 26.072003884657974 223.33383788426573" fill="none" stroke="black" stroke-weight="1"></path><path id="SvgjsPath1282" d="M 118.79854582840444 180.4740446193391 C 118.79854582840444 180.4740446193391 145.46800457530472 107.89340285379028 22.561717312689595 217.04837138744801" fill="none" stroke="black" stroke-weight="1"></path><path id="SvgjsPath1283" d="M 113.81539412889069 177.4865138690875 C 113.81539412889069 177.4865138690875 146.33782495825687 106.16344159267996 19.369960078864835 210.59531888027846" fill="none" stroke="black" stroke-weight="1"></path><path id="SvgjsPath1284" d="M 108.92268509947627 174.44772895101298 C 108.92268509947627 174.44772895101298 147.12014931444878 104.46087675363259 16.504709914033214 203.9908096333402" fill="none" stroke="black" stroke-weight="1"></path><path id="SvgjsPath1285" d="M 104.13264796466115 171.3633030758513 C 104.13264796466115 171.3633030758513 147.8125193700746 102.78677238425178 13.973128451413459 197.25135148018876" fill="none" stroke="black" stroke-weight="1"></path><path id="SvgjsPath1286" d="M 99.4572553226792 168.2389538674442 C 99.4572553226792 168.2389538674442 148.41276240733737 101.1421747452739 11.781543326239898 190.393789556365" fill="none" stroke="black" stroke-weight="1"></path><path id="SvgjsPath1287" d="M 94.90819322023793 165.08049031648935 C 94.90819322023793 165.08049031648935 148.9189969714433 99.52811165668936 9.935432359970008 183.43526419532918" fill="none" stroke="black" stroke-weight="1"></path><path id="SvgjsPath1288" d="M 90.49683194348772 161.8937995111832 C 90.49683194348772 161.8937995111832 149.32963781147143 97.94559185538851 8.439409868583482 176.39316808655406" fill="none" stroke="black" stroke-weight="1"></path><path id="SvgjsPath1289" d="M 86.23419759822796 158.68483317714228 C 86.23419759822796 158.68483317714228 149.64340004261993 96.39560436473393 7.297215129195308 169.28510280285883" fill="none" stroke="black" stroke-weight="1"></path><path id="SvgjsPath1290" d="M 82.1309445503847 155.4595940594616 C 82.1309445503847 155.4595940594616 149.85930251930108 94.879117876453 6.5117030338104485 162.12883480564383" fill="none" stroke="black" stroke-weight="1"></path><path id="SvgjsPath1291" d="M 78.19732879564465 152.22412218016234 C 78.19732879564465 152.22412218016234 149.97667041055223 93.39708014523708 6.084836953580577 154.9422510379897" fill="none" stroke="black" stroke-weight="1"></path><path id="SvgjsPath1292" d="M 74.44318232480718 148.98448100458916 C 74.44318232480718 148.98448100458916 149.99513697124962 91.95041739642579 6.017683831398699 147.7433142166152" fill="none" stroke="black" stroke-weight="1"></path><path id="SvgjsPath1293" d="M 70.87788854892777 145.7467435505444 C 70.87788854892777 145.7467435505444 149.9146445046443 90.5400337471463 6.310411515097627 140.55001793444" fill="none" stroke="black" stroke-weight="1"></path><path id="SvgjsPath1294" d="M 67.51035884567695 142.51697847408934 C 67.51035884567695 142.51697847408934 149.7354445137858 89.16681064126936 6.962288337917698 133.38034168597318" fill="none" stroke="black" stroke-weight="1"></path><path id="SvgjsPath1295" d="M 64.34901028553728 139.30123616599954 C 64.34901028553728 139.30123616599954 149.45809704145154 87.83160629853586 7.971684947292772 126.25220592794066" fill="none" stroke="black" stroke-weight="1"></path><path id="SvgjsPath1296" d="M 61.401744593510614 136.1055348928353 C 61.401744593510614 136.1055348928353 149.08346920024957 86.53525517819719 9.336078377383018 119.18342728747625" fill="none" stroke="black" stroke-weight="1"></path><path id="SvgjsPath1297" d="M 58.67592839892073 132.93584701647808 C 58.67592839892073 132.93584701647808 148.61273289661435 85.27856745750553 11.052058355175546 112.19167402983231" fill="none" stroke="black" stroke-weight="1"></path><path id="SvgjsPath1298" d="M 56.178374822676446 129.79808532578716 C 56.178374822676446 129.79808532578716 148.04736175445117 84.06232852537934 13.115335824390968 105.29442189691827" fill="none" stroke="black" stroke-weight="1"></path><path id="SvgjsPath1299" d="M 53.91532644801762 126.69808951375424 C 53.91532644801762 126.69808951375424 147.38912724621082 82.88729849156094 15.520753665890425 98.50891042704691" fill="none" stroke="black" stroke-weight="1"></path><path id="SvgjsPath1300" d="M 51.89243971730811 123.64161283316996 C 51.89243971730811 123.64161283316996 146.6400940411807 81.75421171157257 18.26229958778754 91.85209986506689" fill="none" stroke="black" stroke-weight="1"></path><path id="SvgjsPath1301" d="M 50.114770793875635 120.63430896337475 C 50.114770793875635 120.63430896337475 145.8026145827594 80.66377632776818 21.333121153047074 85.34062877058322" fill="none" stroke="black" stroke-weight="1"></path><path id="SvgjsPath1302" d="M 48.58676292423668 117.68171912014063 C 48.58676292423668 117.68171912014063 144.87932290843253 79.6166738267674 24.725542907008816 78.9907724302235" fill="none" stroke="black" stroke-weight="1"></path><path id="SvgjsPath1303" d="M 47.31223533229425 114.78925944012674 C 47.31223533229425 114.78925944012674 143.8731277280839 78.61355861354872 28.431085562026993 72.81840217789738" fill="none" stroke="black" stroke-weight="1"></path><path id="SvgjsPath1304" d="M 46.29437367326706 111.96220867066974 C 46.29437367326706 111.96220867066974 142.78720477815432 77.65505760246761 32.44048719127335 66.83894572472741" fill="none" stroke="black" stroke-weight="1"></path><path id="SvgjsPath1305" d="M 45.53572207121054 109.20569619491064 C 45.53572207121054 109.20569619491064 141.62498847099306 76.74176982545542 36.743726378730784 61.067348597805776" fill="none" stroke="black" stroke-weight="1"></path><path id="SvgjsPath1306" d="M 45.03817676003176 106.52469042142752 C 45.03817676003176 106.52469042142752 140.39016286053237 75.874266057644 41.3300472675143 55.51803678416009" fill="none" stroke="black" stroke-weight="1"></path><path id="SvgjsPath1307" d="M 44.80298134389207 103.92398756663715 C 44.80298134389207 103.92398756663715 139.0866519471477 75.05308846064972 46.1879864439117 50.20488067329879" fill="none" stroke="black" stroke-weight="1"></path><path id="SvgjsPath1308" d="M 44.83072368884439 101.40820085725329 C 44.83072368884439 101.40820085725329 137.71860934624044 74.27875024374028 51.30540158994776 45.14116038846076" fill="none" stroke="black" stroke-weight="1"></path><path id="SvgjsPath1309" d="M 45.121334453474304 98.98175017904619 C 45.121334453474304 98.98175017904619 136.29040734669366 73.5517353430954 56.6695018328557 40.33953259322358" fill="none" stroke="black" stroke-weight="1"></path><path id="SvgjsPath1310" d="M 45.674087262217355 96.64885219703822 C 45.674087262217355 96.64885219703822 134.80662538689865 72.87249811936267 62.26687971559767 35.81199885643592" fill="none" stroke="black" stroke-weight="1"></path><path id="SvgjsPath1311" d="M 46.48760052091983 94.41351097110109 C 46.48760052091983 94.41351097110109 133.27203797752836 72.24146307369676 68.08354470852487 31.569875654545754" fill="none" stroke="black" stroke-weight="1"></path><path id="SvgjsPath1312" d="M 47.55984087010442 92.27950908968816 C 47.55984087010442 92.27950908968816 131.69160210163938 71.65902458246013 74.10495817841552 27.623766086302766" fill="none" stroke="black" stroke-weight="1"></path><path id="SvgjsPath1313" d="M 48.88812826731025 90.25039934314987 C 48.88812826731025 90.25039934314987 130.07044412401106 71.12554665075068 80.31606972748644 23.983533370533436" fill="none" stroke="black" stroke-weight="1"></path><path id="SvgjsPath1314" d="M 50.46914268580292 88.3294969567395 C 50.46914268580292 88.3294969567395 128.4138462428803 70.64136268491019 86.70135481154927 20.65827619323059" fill="none" stroke="black" stroke-weight="1"></path><path id="SvgjsPath1315" d="M 52.298932412912635 86.51987240202712 C 52.298932412912635 86.51987240202712 126.72723251839474 70.20677528415646 93.24485354328608 17.656305965577047" fill="none" stroke="black" stroke-weight="1"></path><path id="SvgjsPath1316" d="M 54.372923927257645 84.82434480400339 C 54.372923927257645 84.82434480400339 125.01615451318625 69.82205605146855 99.93021058365579 14.985126049746128" fill="none" stroke="black" stroke-weight="1"></path><path id="SvgjsPath1317" d="M 56.68593333016605 83.24547595967607 C 56.68593333016605 83.24547595967607 123.28627658145744 69.48744542384375 106.74071602172411 12.651413004403707" fill="none" stroke="black" stroke-weight="1"></path><path id="SvgjsPath1318" d="M 59.23217930272253 81.78556498244384 C 59.23217930272253 81.78556498244384 121.54336084387225 69.20315252203225 113.65934714073853 10.660999896788951" fill="none" stroke="black" stroke-weight="1"></path><path id="SvgjsPath1319" d="M 62.005297556055 80.44664358497947 C 62.005297556055 80.44664358497947 119.79325188634782 68.96935501984358 120.66881096605496 9.018861723083745" fill="none" stroke="black" stroke-weight="1"></path><path id="SvgjsPath1320" d="M 64.99835673874219 79.23047201176877 C 64.99835673874219 79.23047201176877 118.0418612215542 68.78619903310613 127.75158748856829 7.729102973513335" fill="none" stroke="black" stroke-weight="1"></path><path id="SvgjsPath1321" d="M 68.20387576158245 78.13853563084056 C 68.20387576158245 78.13853563084056 116.29515155254164 68.65379902834965 134.88997345561097 6.79494737325831" fill="none" stroke="black" stroke-weight="1"></path><path id="SvgjsPath1322" d="M 71.61384249642074 77.17204219258676 C 71.61384249642074 77.17204219258676 114.55912087842825 68.57223775126731 142.0661266198649 6.218729824820429" fill="none" stroke="black" stroke-weight="1"></path><path id="SvgjsPath1323" d="M 75.21973380229632 76.33191976191709 C 75.21973380229632 76.33191976191709 112.83978648249487 68.54156617500233 149.2621103356878 6.0018905719825" fill="none" stroke="black" stroke-weight="1"></path><path id="SvgjsPath1324" d="M 79.01253682885635 75.61881532832251 C 79.01253682885635 75.61881532832251 111.14316884334616 68.56180346829152 156.45993839138595 6.144971599948946" fill="none" stroke="black" stroke-weight="1"></path><path id="SvgjsPath1325" d="M 82.98277154378809 75.0330940967405 C 82.98277154378809 75.0330940967405 109.47527551000667 68.63293698348527 163.6416199653765 6.647615280664979" fill="none" stroke="black" stroke-weight="1"></path><path id="SvgjsPath1326" d="M 87.12051442796249 74.57483946042736 C 87.12051442796249 74.57483946042736 107.84208498192928 68.7549222644521 170.78920459387197 7.508565266700572" fill="none" stroke="black" stroke-weight="1"></path><path id="SvgjsPath1327" d="M 91.41542327906392 74.24385365535149 C 91.41542327906392 74.24385365535149 106.24953063489723 68.92768307436222 177.88482703769122 8.72566963146474" fill="none" stroke="black" stroke-weight="1"></path><path id="SvgjsPath1328" d="M 95.85676306170993 74.03965909393301 C 95.85676306170993 74.03965909393301 104.70348473370359 69.15111144333302 184.91075193605343 10.29588624790128" fill="none" stroke="black" stroke-weight="1"></path><path id="SvgjsPath1329" d="M 100.43343273944896 73.96150037427132 C 100.43343273944896 73.96150037427132 103.2097425722917 69.42506773590684 191.84941813574366 12.215290392222073" fill="none" stroke="black" stroke-weight="1"></path><path id="SvgjsPath1330" d="M 105.13399302157015 74.00834695932896 C 105.13399302157015 74.00834695932896 101.77400678173586 69.74938073831842 198.68348258485017 14.47908455367272" fill="none" stroke="black" stroke-weight="1"></path><path id="SvgjsPath1331" d="M 109.94669495537269 74.17889651888085 C 109.94669495537269 74.17889651888085 100.40187184603897 70.12384776549811 205.39586368136216 17.081610425810766" fill="none" stroke="black" stroke-weight="1"></path><path id="SvgjsPath1332" d="M 114.85950929242873 74.47157892539681 C 114.85950929242873 74.47157892539681 99.09880886521898 70.5482347877434 211.96978396827888 20.01636304932515" fill="none" stroke="black" stroke-weight="1"></path><path id="SvgjsPath1333" d="M 119.86015655543993 74.88456089340707 C 119.86015655543993 74.88456089340707 97.87015060455124 71.02227657697973 218.38881206851448 23.276007071046692" fill="none" stroke="black" stroke-weight="1"></path><path id="SvgjsPath1334" d="M 124.9361377305355 75.41575125030771 C 124.9361377305355 75.41575125030771 96.72107686813355 71.54567687251958 224.63690375478362 26.852395078510895" fill="none" stroke="black" stroke-weight="1"></path><path id="SvgjsPath1335" d="M 130.07476550829762 76.06280682500153 C 130.07476550829762 76.06280682500153 95.65660023414316 72.11810856621564 230.69844205181386 30.736587964246" fill="none" stroke="black" stroke-weight="1"></path><path id="SvgjsPath1336" d="M 135.2631959954274 76.82313893924253 C 135.2631959954274 76.82313893924253 94.68155218826385 72.73921390689281 236.5582762706508 34.91887726888612" fill="none" stroke="black" stroke-weight="1"></path><path id="SvgjsPath1337" d="M 140.4884608177895 77.69392048506172 C 140.4884608177895 77.69392048506172 93.80056969077847 73.40860472393105 242.20175987748993 39.38880944726394" fill="none" stroke="black" stroke-weight="1"></path><path id="SvgjsPath1338" d="M 145.73749953459327 78.67209357020575 C 145.73749953459327 78.67209357020575 93.01808221174954 74.12586266985926 247.61478710238367 44.13521199682911" fill="none" stroke="black" stroke-weight="1"></path><path id="SvgjsPath1339" d="M 150.99719228269322 79.75437771211614 C 150.99719228269322 79.75437771211614 92.338299267553 74.89053948180901 252.7838281963198 49.14622138308644" fill="none" stroke="black" stroke-weight="1"></path><path id="SvgjsPath1340" d="M 156.2543925694141 80.93727855962464 C 156.2543925694141 80.93727855962464 91.76519849078736 75.7021572616642 257.6959632485481 54.409312692253465" fill="none" stroke="black" stroke-weight="1"></path><path id="SvgjsPath1341" d="M 161.49596013193622 82.21709712023845 C 161.49596013193622 82.21709712023845 91.30251426425693 76.56020877473163 262.33891447962844 59.91133093702226" fill="none" stroke="black" stroke-weight="1"></path><path id="SvgjsPath1342" d="M 166.70879378110874 83.58993946964357 C 166.70879378110874 83.58993946964357 90.95372694832889 77.46415776674644 266.70107692948545 65.63852393717663" fill="none" stroke="black" stroke-weight="1"></path><path id="SvgjsPath1343" d="M 171.87986414760007 85.05172691886784 C 171.87986414760007 85.05172691886784 90.72205272948861 78.41343929901345 270.77154746376465 71.57657669288062" fill="none" stroke="black" stroke-weight="1"></path><path id="SvgjsPath1344" d="M 176.99624624853539 86.59820661341952 C 176.99624624853539 86.59820661341952 90.61043411637502 79.40746010147546 274.54015202599055 77.7106471647231" fill="none" stroke="black" stroke-weight="1"></path><path id="SvgjsPath1345" d="M 182.04515179322263 88.22496253765604 C 182.04515179322263 88.22496253765604 90.62153110796591 80.44559894348767 277.9974710674088 84.02540337108658" fill="none" stroke="black" stroke-weight="1"></path><path id="SvgjsPath1346" d="M 187.01396114721925 89.92742689664405 C 187.01396114721925 89.92742689664405 90.75771305691175 81.52720702206669 281.13486309095293 90.50506171011662" fill="none" stroke="black" stroke-weight="1"></path><path id="SvgjsPath1347" d="M 191.89025487484616 91.70089184684673 C 191.89025487484616 91.70089184684673 91.02105124928514 82.65160836737128 283.9444862504861 97.13342641050647" fill="none" stroke="black" stroke-weight="1"></path><path id="SvgjsPath1348" d="M 196.66184478130896 93.54052154612194 C 196.66184478130896 93.54052154612194 91.4133122202291 83.81810026516153 286.419317951333 103.89393001249076" fill="none" stroke="black" stroke-weight="1"></path><path id="SvgjsPath1349" d="M 201.31680437683747 95.44136449273549 C 201.31680437683747 95.44136449273549 91.93595182315342 85.0259536959722 288.55317240310904 110.76967477786673" fill="none" stroke="black" stroke-weight="1"></path><path id="SvgjsPath1350" d="M 205.84349868669898 97.39836612239142 C 205.84349868669898 97.39836612239142 92.59011006825017 86.27441379072636 290.3407160809745 117.74347492553963" fill="none" stroke="black" stroke-weight="1"></path><path id="SvgjsPath1351" d="M 210.23061333257567 99.40638163165467 C 210.23061333257567 99.40638163165467 93.376606744181 87.56270030250393 291.77748105666967 124.79789958702516" fill="none" stroke="black" stroke-weight="1"></path><path id="SvgjsPath1352" d="M 214.46718281261795 101.46018899559614 C 214.46718281261795 101.46018899559614 94.29593783483509 88.89000809417064 292.85987616600795 131.91531637454295" fill="none" stroke="black" stroke-weight="1"></path><path id="SvgjsPath1353" d="M 218.5426179094885 103.55450214702384 C 218.5426179094885 103.55450214702384 95.34827274107265 90.25550764156237 293.5851959849165 139.07793545280322" fill="none" stroke="black" stroke-weight="1"></path><path id="SvgjsPath1354" d="M 222.44673215789066 105.6839842842794 C 222.44673215789066 105.6839842842794 96.5334523153604 91.65834555191091 293.9516275915872 146.26785400433022" fill="none" stroke="black" stroke-weight="1"></path><path id="SvgjsPath1355" d="M 226.16976730542683 107.84326127427803 C 226.16976730542683 107.84326127427803 97.85098771517445 93.09764509718669 293.95825509783737 153.46710097718233" fill="none" stroke="black" stroke-weight="1"></path><path id="SvgjsPath1356" d="M 229.70241770314743 110.02693511725118 C 229.70241770314743 110.02693511725118 99.30006007900167 94.57250676202514 293.60506193835295 160.6576820032228" fill="none" stroke="black" stroke-weight="1"></path><path id="SvgjsPath1357" d="M 233.03585356482694 112.22959743951711 C 233.03585356482694 112.22959743951711 100.87952102671571 96.08200880589456 292.8929309120931 167.82162437466866" fill="none" stroke="black" stroke-weight="1"></path><path id="SvgjsPath1358" d="M 236.1617430368309 114.44584298055398 C 236.1617430368309 114.44584298055398 102.5878939840436 97.62520783915386 291.82364197575293 174.94102196650041" fill="none" stroke="black" stroke-weight="1"></path><path id="SvgjsPath1359" d="M 239.07227302341113 116.67028304068444 C 239.07227302341113 116.67028304068444 104.4233763287782 99.2011394126406 290.3998677947983 181.99807999244908" fill="none" stroke="black" stroke-weight="1"></path><path id="SvgjsPath1360" d="M 241.76016871537587 118.89755885579822 C 241.76016871537587 118.89755885579822 106.38384235433745 100.8088186204202 288.6251670631943 188.97515948269452" fill="none" stroke="black" stroke-weight="1"></path><path id="SvgjsPath1361" d="M 244.2187117733243 121.1223548657423 C 244.2187117733243 121.1223548657423 108.46684704422657 102.44724071531996 286.5039756085237 195.8548213721039" fill="none" stroke="black" stroke-weight="1"></path><path id="SvgjsPath1362" d="M 246.44175711999594 123.33941184329268 C 246.44175711999594 123.33941184329268 110.66963064893136 104.11538173686347 284.0415953047281 202.61987008881238" fill="none" stroke="black" stroke-weight="1"></path><path id="SvgjsPath1363" d="M 248.42374829976376 125.54353985099081 C 248.42374829976376 125.54353985099081 112.98912405476102 105.81219915121261 281.24418082018406 209.2533965341974" fill="none" stroke="black" stroke-weight="1"></path><path id="SvgjsPath1364" d="M 250.15973136687938 127.72963099357678 C 250.15973136687938 127.72963099357678 115.42195493217703 107.53663250271731 278.11872423423756 215.73882034681932" fill="none" stroke="black" stroke-weight="1"></path><path id="SvgjsPath1365" d="M 251.6453672677576 129.8926719342823 C 251.6453672677576 129.8926719342823 117.96445464919185 109.28760407666553 274.67303756064723 222.05993134468997" fill="none" stroke="black" stroke-weight="1"></path><path id="SvgjsPath1366" d="M 252.87694268635033 132.02775614385615 C 252.87694268635033 132.02775614385615 120.61266593350568 111.06401957282009 270.91573322161815 228.20093004228573" fill="none" stroke="black" stroke-weight="1"></path><path id="SvgjsPath1367" d="M 253.85137932550327 134.1300958518816 C 253.85137932550327 134.1300958518816 123.36235126517141 112.86476878932075 266.8562025212315 234.14646714103282" fill="none" stroke="black" stroke-weight="1"></path><path id="SvgjsPath1368" d="M 254.56624160109527 136.19503367070925 C 254.56624160109527 136.19503367070925 126.20900197974689 114.6887263165242 262.50459217207566 239.8816818945603" fill="none" stroke="black" stroke-weight="1"></path><path id="SvgjsPath1369" d="M 255.0197427297304 138.21805386316598 C 255.0197427297304 138.21805386316598 129.14784806011156 116.53475224034824 257.8717789337486 245.39223925282639" fill="none" stroke="black" stroke-weight="1"></path><path id="SvgjsPath1370" d="M 255.21074919476598 140.19479322610954 C 255.21074919476598 140.19479322610954 132.1738685933972 118.40169285468114 252.9693424266236 250.66436569227827" fill="none" stroke="black" stroke-weight="1"></path><path id="SvgjsPath1371" d="M 255.13878357951359 142.1210515628781 C 255.13878357951359 142.1210515628781 135.28180286781128 120.28838138241059 247.80953618882896 255.68488364248768" fill="none" stroke="black" stroke-weight="1"></path><path id="SvgjsPath1372" d="M 254.8040257605324 143.99280171872974 C 254.8040257605324 143.99280171872974 138.46616208252414 122.19363870462115 242.40525704878394 260.44124442321424" fill="none" stroke="black" stroke-weight="1"></path><path id="SvgjsPath1373" d="M 254.20731245803142 145.8061991544775 C 254.20731245803142 145.8061991544775 141.7212416422514 124.11627409750518 236.77001288984462 264.9215596095711" fill="none" stroke="black" stroke-weight="1"></path><path id="SvgjsPath1374" d="M 253.3501351445046 147.55759103469916 C 253.3501351445046 147.55759103469916 145.04113400669218 126.05508597652658 230.9178888876298 269.1146307468952" fill="none" stroke="black" stroke-weight="1"></path><metadata>62 * Math.cos(t/1)+62 * Math.sin(t/1);36 * Math.cos(t/2)+36 * Math.sin(t/1);44 * Math.cos(t/2)+44 * Math.cos(t/1);48 * Math.cos(t/2)+48 * Math.sin(t/2)</metadata></svg>