<svg id="SvgjsSvg1129" width="300" height="300" xmlns="http://www.w3.org/2000/svg" version="1.1" xmlns:xlink="http://www.w3.org/1999/xlink" xmlns:svgjs="http://svgjs.com/svgjs"><defs id="SvgjsDefs1130"></defs><path id="SvgjsPath1131" d="M 261.5995162067522 105.20952871823516 C 261.5995162067522 105.20952871823516 199.19808044433788 113.35249330645637 148.72798844204158 6.005618211694042" fill="none" stroke="black" stroke-weight="1"></path><path id="SvgjsPath1132" d="M 261.5894931589285 107.46489167343103 C 261.5894931589285 107.46489167343103 199.1583167990462 114.27198049567161 155.92629770668802 6.121999612547768" fill="none" stroke="black" stroke-weight="1"></path><path id="SvgjsPath1133" d="M 261.5484737471902 109.82657024758714 C 261.5484737471902 109.82657024758714 198.99568296291335 115.21379653407983 163.10979431342392 6.59800108415601" fill="none" stroke="black" stroke-weight="1"></path><path id="SvgjsPath1134" d="M 261.4764693655545 112.28866147420658 C 261.4764693655545 112.28866147420658 198.71058543583166 116.17735281731447 170.26052326182528 7.432432870736562" fill="none" stroke="black" stroke-weight="1"></path><path id="SvgjsPath1135" d="M 261.3735000147756 114.84501140745499 C 261.3735000147756 114.84501140745499 198.3037368131429 117.1620471540636 177.3606114535485 8.623209327386604" fill="none" stroke="black" stroke-weight="1"></path><path id="SvgjsPath1136" d="M 261.23959429678877 117.48923050382064 C 261.23959429678877 117.48923050382064 197.77615400452112 118.16726414241988 184.39231236576884 10.167354133108887" fill="none" stroke="black" stroke-weight="1"></path><path id="SvgjsPath1137" d="M 261.07478940676583 120.21470959264528 C 261.07478940676583 120.21470959264528 197.1291556922281 119.19237555448687 191.3380504082448 12.061007730064205" fill="none" stroke="black" stroke-weight="1"></path><path id="SvgjsPath1138" d="M 260.87913112278324 123.01463639560892 C 260.87913112278324 123.01463639560892 196.36435903509425 120.23674072900089 198.18046485314062 14.299436970455872" fill="none" stroke="black" stroke-weight="1"></path><path id="SvgjsPath1139" d="M 260.65267379310615 125.8820125538779 C 260.65267379310615 125.8820125538779 195.4836756264641 121.29970697172335 204.90245322780476 16.8770469469344" fill="none" stroke="black" stroke-weight="1"></path><path id="SvgjsPath1140" d="M 260.39548032109235 128.80967112035708 C 260.39548032109235 128.80967112035708 194.48930671620812 122.38060996335363 211.48721406204413 19.787394976951816" fill="none" stroke="black" stroke-weight="1"></path><path id="SvgjsPath1141" d="M 260.10762214771916 131.79029447332545 C 260.10762214771916 131.79029447332545 193.38373770874472 123.47877417470681 217.91828888305054 23.023206706113044" fill="none" stroke="black" stroke-weight="1"></path><path id="SvgjsPath1142" d="M 259.78917923173935 134.81643260667914 C 259.78917923173935 134.81643260667914 192.1697319508233 124.59351328889764 224.17960335301035 26.576394290273385" fill="none" stroke="black" stroke-weight="1"></path><path id="SvgjsPath1143" d="M 259.44024002747085 137.88052175106714 C 259.44024002747085 137.88052175106714 190.85032382459661 125.7241306302661 230.25550744657824 30.438076610936776" fill="none" stroke="black" stroke-weight="1"></path><path id="SvgjsPath1144" d="M 259.0609014602269 140.97490327937524 C 259.0609014602269 140.97490327937524 189.42881116324583 126.86991959977699 236.13081456779014 34.59860147342688" fill="none" stroke="black" stroke-weight="1"></path><path id="SvgjsPath1145" d="M 258.6512688993924 144.09184284930535 C 258.6512688993924 144.09184284930535 187.90874700811483 128.0301641166214 241.7908395086435 39.04756973234679" fill="none" stroke="black" stroke-weight="1"></path><path id="SvgjsPath1146" d="M 258.211456129156 147.22354973520342 C 258.211456129156 147.22354973520342 186.2939307279574 129.20413906574385 247.22143515447044 43.77386128402716" fill="none" stroke="black" stroke-weight="1"></path><path id="SvgjsPath1147" d="M 257.7415853169035 150.36219630081615 C 257.7415853169035 150.36219630081615 184.5883985224938 130.39111075101573 252.40902784435582 48.76566286099387" fill="none" stroke="black" stroke-weight="1"></path><path id="SvgjsPath1148" d="M 257.2417869792839 153.49993756430507 C 257.2417869792839 153.49993756430507 182.79641333401364 131.59033735377133 257.3406512982211 54.01049755898457" fill="none" stroke="black" stroke-weight="1"></path><path id="SvgjsPath1149" d="M 256.71219994595504 156.62893080661544 C 256.71219994595504 156.62893080661544 180.92245419224034 132.80106939642047 262.0039790257713 59.49525602271122" fill="none" stroke="black" stroke-weight="1"></path><path id="SvgjsPath1150" d="M 256.1529713210209 159.7413551741897 C 256.1529713210209 159.7413551741897 178.97120501908927 134.02255021084747 266.3873551363017 65.20622921242159" fill="none" stroke="black" stroke-weight="1"></path><path id="SvgjsPath1151" d="M 255.56425644217032 162.82943122702815 C 255.56425644217032 162.82943122702815 176.94754292130244 135.2540164113042 270.4798234723542 71.12914266935874" fill="none" stroke="black" stroke-weight="1"></path><path id="SvgjsPath1152" d="M 254.9462188375287 165.88544038323772 C 254.9462188375287 165.88544038323772 174.85652600022135 136.49469837150144 274.27115499440504 77.24919219447412" fill="none" stroke="black" stroke-weight="1"></path><path id="SvgjsPath1153" d="M 254.29903018023447 168.9017442114666 C 254.29903018023447 168.9017442114666 172.70338070916827 137.7438207055999 277.7518733481362 83.55108085121493" fill="none" stroke="black" stroke-weight="1"></path><path id="SvgjsPath1154" d="M 253.62287024075323 171.87080352300487 C 253.62287024075323 171.87080352300487 170.49348879003432 139.00060275280154 280.9132785503865 90.01905719989958" fill="none" stroke="black" stroke-weight="1"></path><path id="SvgjsPath1155" d="M 252.91792683694274 174.78519721582992 C 252.91792683694274 174.78519721582992 168.2323738217279 140.26425906523684 283.7474687345783 96.63695466811335" fill="none" stroke="black" stroke-weight="1"></path><path id="SvgjsPath1156" d="M 252.18439578188233 177.6376408234966 C 252.18439578188233 177.6376408234966 165.925687414104 141.53399989884429 286.24735990126896 103.38823195872004" fill="none" stroke="black" stroke-weight="1"></path><path id="SvgjsPath1157" d="M 251.42248082948186 180.42100472250968 C 251.42248082948186 180.42100472250968 163.5791950818824 142.80903170693477 288.4067036244598 110.25601439449053" fill="none" stroke="black" stroke-weight="1"></path><path id="SvgjsPath1158" d="M 250.6323936178846 183.12833195266944 C 250.6323936178846 183.12833195266944 161.1987618338643 144.0885576361323 290.2201026694073 117.22313609600708" fill="none" stroke="black" stroke-weight="1"></path><path id="SvgjsPath1159" d="M 249.8143536106801 185.75285560584928 C 249.8143536106801 185.75285560584928 158.79033751346387 145.3717780243815 291.6830244828991 124.27218288742287" fill="none" stroke="black" stroke-weight="1"></path><path id="SvgjsPath1160" d="M 248.96858803594372 188.2880157397418 C 248.96858803594372 188.2880157397418 156.35994192719903 146.65789090071036 292.7918125222764 131.3855358228321" fill="none" stroke="black" stroke-weight="1"></path><path id="SvgjsPath1161" d="M 248.09533182311918 190.72747577429803 C 248.09533182311918 190.72747577429803 153.91364979830996 147.94609248643593 293.5436953948864 138.5454152244586" fill="none" stroke="black" stroke-weight="1"></path><path id="SvgjsPath1162" d="M 247.19482753776157 193.06513832987793 C 247.19482753776157 193.06513832987793 151.4575755831146 149.23557769749982 293.93679378512064 145.73392512259147" fill="none" stroke="black" stroke-weight="1"></path><path id="SvgjsPath1163" d="M 246.26732531416002 195.29516046752354 C 246.26732531416002 195.29516046752354 148.99785818805213 150.52554064761978 293.97012515172514 152.93309798618907" fill="none" stroke="black" stroke-weight="1"></path><path id="SvgjsPath1164" d="M 245.3130827858572 197.41196829326395 C 245.3130827858572 197.41196829326395 146.54064562561408 151.8151751519421 293.6436061836422 160.12493963234908" fill="none" stroke="black" stroke-weight="1"></path><path id="SvgjsPath1165" d="M 244.33236501408635 199.41027088994701 C 244.33236501408635 199.41027088994701 144.09207964751505 153.10367523088095 292.95805300824406 167.29147420239497" fill="none" stroke="black" stroke-weight="1"></path><path id="SvgjsPath1166" d="M 243.32544441414478 201.2850735417768 C 243.32544441414478 201.2850735417768 141.6582803935118 154.3902356138295 291.91517915144004 174.41478909216042" fill="none" stroke="black" stroke-weight="1"></path><path id="SvgjsPath1167" d="M 242.29260067972456 203.03169021850215 C 242.29260067972456 203.03169021850215 139.2453310942413 155.6740522424277 290.51759125475405 181.47707972417183" fill="none" stroke="black" stroke-weight="1"></path><path id="SvgjsPath1168" d="M 241.23412070522193 204.64575528805162 C 241.23412070522193 204.64575528805162 136.85926286631178 156.95432277307282 288.76878256007797 188.46069404981918" fill="none" stroke="black" stroke-weight="1"></path><path id="SvgjsPath1169" d="M 240.15029850604606 206.12323442834017 C 240.15029850604606 206.12323442834017 134.50603963765298 158.23024707835765 286.6731241783867 195.3481766702841" fill="none" stroke="black" stroke-weight="1"></path><path id="SvgjsPath1170" d="M 239.04143513694993 207.4604347109733 C 239.04143513694993 207.4604347109733 132.1915432408014 159.5010277471247 284.23585416423646 202.12231246594718" fill="none" stroke="black" stroke-weight="1"></path><path id="SvgjsPath1171" d="M 237.90783860840605 208.65401383164493 C 237.90783860840605 208.65401383164493 129.9215587113828 160.7658705828216 281.46306442335714 208.76616962522098" fill="none" stroke="black" stroke-weight="1"></path><path id="SvgjsPath1172" d="M 236.74982380105013 209.70098846415735 C 236.74982380105013 209.70098846415735 127.70175982853574 162.0239850998484 278.36168548605986 215.26314196526124" fill="none" stroke="black" stroke-weight="1"></path><path id="SvgjsPath1173" d="M 235.56771237821584 210.59874171718312 C 235.56771237821584 210.59874171718312 125.53769493341836 163.2745850175854 274.939469184521 221.59699043877566" fill="none" stroke="black" stroke-weight="1"></path><path id="SvgjsPath1174" d="M 234.36183269658648 211.34502967513055 C 234.36183269658648 211.34502967513055 123.43477306124515 164.51688875179286 271.2049692772385 227.75188372318496" fill="none" stroke="black" stroke-weight="1"></path><path id="SvgjsPath1175" d="M 233.13251971498642 211.93798700676405 C 233.13251971498642 211.93798700676405 121.39825042151608 165.75011990307556 267.16752006909064 233.71243779068453" fill="none" stroke="black" stroke-weight="1"></path><path id="SvgjsPath1176" d="M 231.88011490133943 212.37613162756065 C 231.88011490133943 212.37613162756065 119.43321726023007 166.97350774210736 262.83721308043505 239.4637543603023" fill="none" stroke="black" stroke-weight="1"></path><path id="SvgjsPath1177" d="M 230.6049661378186 212.65836840414977 C 230.6049661378186 212.65836840414977 117.54458513692074 168.18628769131183 258.22487182356286 244.9914581358418" fill="none" stroke="black" stroke-weight="1"></path><path id="SvgjsPath1178" d="M 229.3074276242146 212.78399189157597 C 229.3074276242146 212.78399189157597 115.73707464831574 169.38770180269853 253.34202474955543 250.28173273663685" fill="none" stroke="black" stroke-weight="1"></path><path id="SvgjsPath1179" d="M 227.98785977954918 212.75268809654412 C 227.98785977954918 212.75268809654412 114.01520362930339 170.57699923155545 248.2008764331603 255.3213552313071" fill="none" stroke="black" stroke-weight="1"></path><path id="SvgjsPath1180" d="M 226.64662914196106 212.5645352622391 C 226.64662914196106 212.5645352622391 112.38327586069815 171.75343670570288 242.81427706771 260.09772918820056" fill="none" stroke="black" stroke-weight="1"></path><path id="SvgjsPath1181" d="M 225.2841082668921 212.2200036727586 C 225.2841082668921 212.2200036727586 110.84537031202993 172.91627899001415 237.19569034633156 264.5989161599125" fill="none" stroke="black" stroke-weight="1"></path><path id="SvgjsPath1182" d="M 223.90067562360224 211.7199544776477 C 223.90067562360224 211.7199544776477 109.40533094624462 174.0647993459138 231.35915980972499 268.8136655231865" fill="none" stroke="black" stroke-weight="1"></path><path id="SvgjsPath1183" d="M 222.49671549004137 211.0656375394736 C 222.49671549004137 211.0656375394736 108.06675711179876 175.19827998556525 225.3192737446254 272.73144259961333" fill="none" stroke="black" stroke-weight="1"></path><path id="SvgjsPath1184" d="M 221.07261784610807 210.2586883098201 C 221.07261784610807 210.2586883098201 106.83299454616272 176.31601252046514 219.0911287206838 276.34245498684083" fill="none" stroke="black" stroke-weight="1"></path><path id="SvgjsPath1185" d="M 219.62877826532423 209.30112374151025 C 219.62877826532423 209.30112374151025 105.7071270132194 177.41729840416292 212.6902918569047 279.63767703447985" fill="none" stroke="black" stroke-weight="1"></path><path id="SvgjsPath1186" d="M 218.1655978049562 208.19533724727484 C 218.1655978049562 208.19533724727484 104.69196859546066 178.50144936882973 206.13276191195624 282.60887240352974" fill="none" stroke="black" stroke-weight="1"></path><path id="SvgjsPath1187" d="M 216.6834828946126 206.94409271746702 C 216.6834828946126 206.94409271746702 103.79005666024668 179.56778785540322 199.43492929560517 285.2486146529365" fill="none" stroke="black" stroke-weight="1"></path><path id="SvgjsPath1188" d="M 215.1828452233496 205.55051761177572 C 215.1828452233496 205.55051761177572 103.00364551770882 180.61564743704014 192.61353510122856 287.55030580182785" fill="none" stroke="black" stroke-weight="1"></path><path id="SvgjsPath1189" d="M 213.6641016253157 204.0180951422053 C 213.6641016253157 204.0180951422053 102.3347007861484 181.64437323561123 185.68562926179897 289.50819282102907" fill="none" stroke="black" stroke-weight="1"></path><path id="SvgjsPath1190" d="M 212.12767396396714 202.35065556685953 C 212.12767396396714 202.35065556685953 101.78489447901464 182.65332233097888 178.66852793393133 291.11738201264006" fill="none" stroke="black" stroke-weight="1"></path><path id="SvgjsPath1191" d="M 210.57398901488617 200.55236661629095 C 210.57398901488617 200.55236661629095 101.35560082574179 183.64186416280123 171.5797702165096 292.37385124173136" fill="none" stroke="black" stroke-weight="1"></path><path id="SvgjsPath1192" d="M 209.00347834723513 198.62772307634526 C 209.00347834723513 198.62772307634526 101.04789283689124 184.60938092461174 164.43707431207363 293.2744599895866" fill="none" stroke="black" stroke-weight="1"></path><path id="SvgjsPath1193" d="M 207.41657820387894 196.58153555353732 C 207.41657820387894 196.58153555353732 100.86253962218386 185.55526794992835 157.25829324054047 293.8169572033643" fill="none" stroke="black" stroke-weight="1"></path><path id="SvgjsPath1194" d="M 205.81372938020917 194.41891845104027 C 205.81372938020917 194.41891845104027 100.80000446812636 186.47893409015023 150.06137021595202 293.999986922557" fill="none" stroke="black" stroke-weight="1"></path><path id="SvgjsPath1195" d="M 204.19537710170397 192.1452771853412 C 204.19537710170397 192.1452771853412 100.86044368003617 187.37980208400631 142.86429379778463 293.8230916681868" fill="none" stroke="black" stroke-weight="1"></path><path id="SvgjsPath1196" d="M 202.56197090025688 189.7662946755148 C 202.56197090025688 189.7662946755148 101.04370619135969 188.25730891832495 135.68505292891888 293.28671358626434" fill="none" stroke="black" stroke-weight="1"></path><path id="SvgjsPath1197" d="M 200.91396448931002 187.28791713888563 C 200.91396448931002 187.28791713888563 101.34933394125986 189.1109061798988 128.54159197265062 292.3921933426541" fill="none" stroke="black" stroke-weight="1"></path><path id="SvgjsPath1198" d="M 199.2518156378253 184.71633922858095 C 199.2518156378253 184.71633922858095 101.77656301952977 189.94006039822517 121.4517658611276 291.141766772108" fill="none" stroke="black" stroke-weight="1"></path><path id="SvgjsPath1199" d="M 197.57598604312943 182.05798855012483 C 197.57598604312943 182.05798855012483 102.3243255759704 190.74425337890776 114.43329546731883 289.53855928984274" fill="none" stroke="black" stroke-weight="1"></path><path id="SvgjsPath1200" d="M 195.8869412026677 179.31950959577114 C 195.8869412026677 179.31950959577114 102.99125248945981 191.5229825275112 107.50372331206037 287.5865780796298" fill="none" stroke="black" stroke-weight="1"></path><path id="SvgjsPath1201" d="M 194.18515028470185 176.50774713673349 C 194.18515028470185 176.50774713673349 103.77567679004312 192.2757611636664 100.68036971688869 285.29070207792256" fill="none" stroke="black" stroke-weight="1"></path><path id="SvgjsPath1202" d="M 192.4710859979888 173.6297291148217 C 192.4710859979888 173.6297291148217 104.67563782548919 193.00211882522973 93.98028951225761 282.6566697790561" fill="none" stroke="black" stroke-weight="1"></path><path id="SvgjsPath1203" d="M 190.7452244604757 170.69264907624793 C 190.7452244604757 170.69264907624793 105.6888861619 193.7016015623067 87.42022940934466 279.691064892" fill="none" stroke="black" stroke-weight="1"></path><path id="SvgjsPath1204" d="M 189.00804506704804 167.70384819150695 C 189.00804506704804 167.70384819150695 106.81288920612405 194.37377222095574 81.01658614199407 276.4012998845149" fill="none" stroke="black" stroke-weight="1"></path><path id="SvgjsPath1205" d="M 187.2600303563672 164.6707969062731 C 187.2600303563672 164.6707969062731 108.0448375359203 195.01821071639534 74.78536548342102 272.79559745584305" fill="none" stroke="black" stroke-weight="1"></path><path id="SvgjsPath1206" d="M 185.50166587683532 161.6010762691768 C 185.50166587683532 161.6010762691768 109.38165192205054 195.63451429554323 68.7421422401148 268.8829699842423" fill="none" stroke="black" stroke-weight="1"></path><path id="SvgjsPath1207" d="M 183.73344005172376 158.50235898313127 C 183.73344005172376 158.50235898313127 110.8199910247489 196.22229778872395 62.90202132293403 264.67319700073494" fill="none" stroke="black" stroke-weight="1"></path><path id="SvgjsPath1208" d="M 181.95584404350333 155.38239022757097 C 181.95584404350333 155.38239022757097 112.3562597453311 196.78119385038744 57.27959999269568 260.17680074537236" fill="none" stroke="black" stroke-weight="1"></path><path id="SvgjsPath1209" d="M 180.16937161741293 152.24896829953641 C 180.16937161741293 152.24896829953641 113.98661821206903 197.31085318868804 51.88893137462473 255.405019867115" fill="none" stroke="black" stroke-weight="1"></path><path id="SvgjsPath1210" d="M 178.37451900430622 149.10992512199294 C 178.37451900430622 149.10992512199294 115.7069913778702 197.81094478378049 46.74348933286022 250.36978133306283" fill="none" stroke="black" stroke-weight="1"></path><path id="SvgjsPath1211" d="M 176.57178476281254 145.97310666810245 C 176.57178476281254 145.97310666810245 117.51307920577301 198.2811560946965 41.856134792812355 245.08367061724965" fill="none" stroke="black" stroke-weight="1"></path><path id="SvgjsPath1212" d="M 174.76166964085206 142.84635335037632 C 174.76166964085206 142.84635335037632 119.40036741680007 198.7211932546728 37.23908359554636 239.55990024351198" fill="none" stroke="black" stroke-weight="1"></path><path id="SvgjsPath1213" d="M 172.9446764365417 139.7374804237271 C 172.9446764365417 139.7374804237271 121.36413877330452 199.1307812548082 32.903875964541456 233.81227676105993" fill="none" stroke="black" stroke-weight="1"></path><path id="SvgjsPath1214" d="M 171.1213098585328 136.65425845140155 C 171.1213098585328 136.65425845140155 123.39948486960755 199.50966411593538 28.861347661142503 227.85516623529497" fill="none" stroke="black" stroke-weight="1"></path><path id="SvgjsPath1215" d="M 169.29207638581724 133.60439388261966 C 169.29207638581724 133.60439388261966 125.50131840045609 199.85760504859917 25.121602900800127 221.70345834012852" fill="none" stroke="black" stroke-weight="1"></path><path id="SvgjsPath1216" d="M 167.4574841270423 130.59550979046475 C 167.4574841270423 130.59550979046475 127.66438587663666 200.17438660104273 21.69398909779389 215.37252914155124" fill="none" stroke="black" stroke-weight="1"></path><path id="SvgjsPath1217" d="M 165.61804267937222 127.6351268181705 C 165.61804267937222 127.6351268181705 129.8832807559627 200.4598107951074 18.58707350156439 208.87820266547507" fill="none" stroke="black" stroke-weight="1"></path><path id="SvgjsPath1218" d="M 163.77426298693715 124.73064438142994 C 163.77426298693715 124.73064438142994 132.152456956814 200.71369924996287 15.808621783051763 202.2367113459102" fill="none" stroke="black" stroke-weight="1"></path><path id="SvgjsPath1219" d="M 161.92665719890726 121.88932217370979 C 161.92665719890726 121.88932217370979 134.46624272045256 200.93589329358932 13.365578624562687 195.46465545233394" fill="none" stroke="black" stroke-weight="1"></path><path id="SvgjsPath1220" d="M 160.0757385272326 119.11826202079746 C 160.0757385272326 119.11826202079746 136.8188547874655 201.12625406194215 11.264050361681228 188.57896159766193" fill="none" stroke="black" stroke-weight="1"></path><path id="SvgjsPath1221" d="M 158.22202110408716 116.4243901299349 C 158.22202110408716 116.4243901299349 139.20441285290207 201.2846625857377 9.509289720609672 181.59684043053056" fill="none" stroke="black" stroke-weight="1"></path><path id="SvgjsPath1222" d="M 156.36601983905803 113.81443977790782 C 156.36601983905803 113.81443977790782 141.61695426397333 201.41101986480498 8.105682689089036 174.535743617639" fill="none" stroke="black" stroke-weight="1"></path><path id="SvgjsPath1223" d="M 154.50825027611805 111.2949344813605 C 154.50825027611805 111.2949344813605 144.05044892357887 201.50524692995768 7.056737553713759 167.41332022367163" fill="none" stroke="black" stroke-weight="1"></path><path id="SvgjsPath1224" d="M 152.64922845042275 108.8721716914014 C 152.64922845042275 108.8721716914014 146.49881436240904 201.56728489234735 6.36507613104223 160.2473725978272" fill="none" stroke="black" stroke-weight="1"></path><path id="SvgjsPath1225" d="M 150.78947074497015 106.55220705325486 C 150.78947074497015 106.55220705325486 148.95593094195095 201.59709498026686 6.03242721442075 153.05581187721668" fill="none" stroke="black" stroke-weight="1"></path><path id="SvgjsPath1226" d="M 148.92949374716466 104.34083927030197 C 148.92949374716466 104.34083927030197 151.41565715039746 201.59465856338164 6.059622252900709 145.8566132183489" fill="none" stroke="black" stroke-weight="1"></path><path id="SvgjsPath1227" d="M 147.06981410532376 102.24359561034208 C 147.06981410532376 102.24359561034208 153.87184495322794 201.55997716437298 6.446593273048819 138.66777086860117" fill="none" stroke="black" stroke-weight="1"></path><path id="SvgjsPath1228" d="M 145.21094838516825 100.26571809030179 C 145.21094838516825 100.26571809030179 156.31835516009312 201.49307245798627 7.192373048845269 131.50725318997132" fill="none" stroke="black" stroke-weight="1"></path><path id="SvgjsPath1229" d="M 143.35341292633439 98.41215037392242 C 143.35341292633439 98.41215037392242 158.74907276959385 201.3939862574852 8.295097519245218 124.39295774753018" fill="none" stroke="black" stroke-weight="1"></path><path id="SvgjsPath1230" d="M 141.49772369895024 96.68752541517546 C 141.49772369895024 96.68752541517546 161.1579222535997 201.26278048851967 9.752010447360504 117.34266657483015" fill="none" stroke="black" stroke-weight="1"></path><path id="SvgjsPath1231" d="M 139.64439616031353 95.0961538782905 C 139.64439616031353 95.0961538782905 163.53888274290512 201.09953715042434 11.559470309616358 110.37400172808258" fill="none" stroke="black" stroke-weight="1"></path><path id="SvgjsPath1232" d="M 137.79394511171267 93.64201336333957 C 137.79394511171267 93.64201336333957 165.886003076267 200.90435826497173 13.71295939766398 103.50438124019409" fill="none" stroke="black" stroke-weight="1"></path><path id="SvgjsPath1233" d="M 135.9468845554294 92.32873846430823 C 135.9468845554294 92.32873846430823 168.1934166752087 200.67736581261192 16.20709511029878 96.75097558475494" fill="none" stroke="black" stroke-weight="1"></path><path id="SvgjsPath1234" d="M 134.10372755196389 91.15961168450369 C 134.10372755196389 91.15961168450369 170.45535620741072 200.41870165623868 19.035643407160023 90.13066475879785" fill="none" stroke="black" stroke-weight="1"></path><path id="SvgjsPath1235" d="M 132.26498607752114 90.13755523200601 C 132.26498607752114 90.13755523200601 172.66616800203778 200.12852745252988 22.191534390584934 83.6599960915967" fill="none" stroke="black" stroke-weight="1"></path><path id="SvgjsPath1236" d="M 130.43117088179895 89.26512371566979 C 130.43117088179895 89.26512371566979 174.8203261809718 199.80702455091728 25.666879976671083 77.35514288496064" fill="none" stroke="black" stroke-weight="1"></path><path id="SvgjsPath1237" d="M 128.60279134611562 88.54449775993226 C 128.60279134611562 88.54449775993226 176.91244647062933 199.45439388024897 29.45299361137836 71.23186398840194" fill="none" stroke="black" stroke-weight="1"></path><path id="SvgjsPath1238" d="M 126.78035534191919 87.97747855438803 C 126.78035534191919 87.97747855438803 178.93729965984159 199.07085582321554 33.54041198239001 65.30546441021977" fill="none" stroke="black" stroke-weight="1"></path><path id="SvgjsPath1239" d="M 124.96436908971472 87.56548335175304 C 124.96436908971472 87.56548335175304 180.88982467015856 198.65665007861787 37.91891867246471 59.59075706295057" fill="none" stroke="black" stroke-weight="1"></path><path id="SvgjsPath1240" d="M 123.15533701845123 87.309541925471 C 123.15533701845123 87.309541925471 182.76514120590974 198.2120355115634 42.57756969515931 54.10202573880069" fill="none" stroke="black" stroke-weight="1"></path><path id="SvgjsPath1241" d="M 121.35376162540521 87.21029399581585 C 121.35376162540521 87.21029399581585 184.55856195240187 197.73728999168375 47.504720849095776 48.852989407604255" fill="none" stroke="black" stroke-weight="1"></path><path id="SvgjsPath1242" d="M 119.5601433366018 87.2679876309244 C 119.5601433366018 87.2679876309244 186.2656042917642 197.23271021947514 52.68805682240017 43.85676792654381" fill="none" stroke="black" stroke-weight="1"></path><path id="SvgjsPath1243" d="M 117.77498036781046 87.48247862675515 C 117.77498036781046 87.48247862675515 187.88200150715872 196.69861154087044 58.11462197456825 39.12584924734033" fill="none" stroke="black" stroke-weight="1"></path><path id="SvgjsPath1244" d="M 115.9987685861552 87.85323086752328 C 115.9987685861552 87.85323086752328 189.4037134473503 196.13532775015813 63.77085271881988 34.67205820287718" fill="none" stroke="black" stroke-weight="1"></path><path id="SvgjsPath1245" d="M 114.23200137237643 88.37931766571086 C 114.23200137237643 88.37931766571086 190.82693662498076 195.54321088137172 69.64261142400268 30.506526951275816" fill="none" stroke="black" stroke-weight="1"></path><path id="SvgjsPath1246" d="M 112.47516948378444 89.05942407830322 C 112.47516948378444 89.05942407830322 192.1481137233064 194.92263098827993 75.71522175130671 26.639667151298326" fill="none" stroke="black" stroke-weight="1"></path><path id="SvgjsPath1247" d="M 110.7287609179407 89.89185019346141 C 110.7287609179407 89.89185019346141 193.36394248763708 194.27397591311527 81.97350533746781 23.081143938623214" fill="none" stroke="black" stroke-weight="1"></path><path id="SvgjsPath1248" d="M 108.99326077710651 90.87451537941661 C 108.99326077710651 90.87451537941661 194.4713839792533 193.59765104418503 88.40181973277147 19.839851768039154" fill="none" stroke="black" stroke-weight="1"></path><path id="SvgjsPath1249" d="M 107.26915113349494 92.00496348496614 C 107.26915113349494 92.00496348496614 195.46767017117043 192.894079062517 94.98409749903105 16.923892181940204" fill="none" stroke="black" stroke-weight="1"></path><path id="SvgjsPath1250" d="M 105.55691089536549 93.28036897857214 C 105.55691089536549 93.28036897857214 196.35031086676457 192.1636996776974 101.70388636981514 14.340553560689074" fill="none" stroke="black" stroke-weight="1"></path><path id="SvgjsPath1251" d="M 103.85701567399684 94.69754401071889 C 103.85701567399684 94.69754401071889 197.11709992396706 191.4069693530669 108.54439037254492 12.096292905462292" fill="none" stroke="black" stroke-weight="1"></path><metadata>93 * Math.sin(t/3);37 * Math.sin(t/1)+37 * Math.cos(t/1);41 * Math.sin(t/1);43 * Math.cos(t/2)</metadata></svg>