<svg id="SvgjsSvg1621" width="300" height="300" xmlns="http://www.w3.org/2000/svg" version="1.1" xmlns:xlink="http://www.w3.org/1999/xlink" xmlns:svgjs="http://svgjs.com/svgjs"><defs id="SvgjsDefs1622"></defs><path id="SvgjsPath1623" d="M 337.7569958119997 144.22624025544792 C 337.7569958119997 144.22624025544792 199.97204334567994 102.10200282250268 7.222733298057307 131.27429272037162" fill="none" stroke="black" stroke-weight="1"></path><path id="SvgjsPath1624" d="M 336.74486823281643 142.03322345434944 C 336.74486823281643 142.03322345434944 199.58202795112177 102.19515196106528 8.337062996794913 124.16180579789008" fill="none" stroke="black" stroke-weight="1"></path><path id="SvgjsPath1625" d="M 335.6808682798902 139.86011944559806 C 335.6808682798902 139.86011944559806 199.0680833085068 102.31817757353724 9.805476261409126 117.11390090464235" fill="none" stroke="black" stroke-weight="1"></path><path id="SvgjsPath1626" d="M 334.5652915019218 137.71235985748498 C 334.5652915019218 137.71235985748498 198.43149401178437 102.47100277291543 11.624302823473272 110.14819413238374" fill="none" stroke="black" stroke-weight="1"></path><path id="SvgjsPath1627" d="M 333.3984477741767 135.5953129704489 C 333.3984477741767 135.5953129704489 197.67385120266692 102.65353204842488 13.788996563808752 103.28209612037483" fill="none" stroke="black" stroke-weight="1"></path><path id="SvgjsPath1628" d="M 332.1806612124095 133.51427029917073 C 332.1806612124095 133.51427029917073 196.79704859360461 102.86565132521002 16.294146875415407 96.53276853785104" fill="none" stroke="black" stroke-weight="1"></path><path id="SvgjsPath1629" d="M 330.912270082835 131.47443336654257 C 330.912270082835 131.47443336654257 195.80327773449005 103.10722803562761 19.1334921871713 89.91708118878674" fill="none" stroke="black" stroke-weight="1"></path><path id="SvgjsPath1630" d="M 329.59362670816677 129.48090070256944 C 329.59362670816677 129.48090070256944 194.69502253492516 103.37811120209733 22.29993561449953 83.4515698461712" fill="none" stroke="black" stroke-weight="1"></path><path id="SvgjsPath1631" d="M 328.2250973697521 127.53865510069957 C 328.2250973697521 127.53865510069957 193.47505305574077 103.67813153145772 25.78556269788355 77.15239492118783" fill="none" stroke="black" stroke-weight="1"></path><path id="SvgjsPath1632" d="M 326.80706220583 125.65255116343565 C 326.80706220583 125.65255116343565 192.14641858528694 104.00710152076906 29.5816611848945 71.03530107060212" fill="none" stroke="black" stroke-weight="1"></path><path id="SvgjsPath1633" d="M 325.3399151059391 123.8273031683569 C 325.3399151059391 123.8273031683569 190.7124400178004 104.36481557449645 33.6787428062846 65.11557784331971" fill="none" stroke="black" stroke-weight="1"></path><path id="SvgjsPath1634" d="M 323.82406360150674 122.06747328488026 C 323.82406360150674 122.06747328488026 189.17670155289824 104.75105013300038 38.06656699171934 59.40802146447653" fill="none" stroke="black" stroke-weight="1"></path><path id="SvgjsPath1635" d="M 322.25992875264836 120.3774601712127 C 322.25992875264836 120.3774601712127 187.54304173694555 105.1655638122543 42.73416646586979 53.92689785258173" fill="none" stroke="black" stroke-weight="1"></path><path id="SvgjsPath1636" d="M 320.64794503120913 118.76148797999659 C 320.64794503120913 118.76148797999659 185.81554386868876 105.60809755470166 47.66987466088932 48.68590696215112" fill="none" stroke="black" stroke-weight="1"></path><path id="SvgjsPath1637" d="M 318.9885602000799 117.22359580012792 C 318.9885602000799 117.22359580012792 183.99852579313483 106.07837479115852 52.8613548767576 43.69814854095543" fill="none" stroke="black" stroke-weight="1"></path><path id="SvgjsPath1638" d="M 317.2822351888218 115.76762756113762 C 317.2822351888218 115.76762756113762 182.09652910918805 106.57610161366028 58.29563111660552 38.97608938747335" fill="none" stroke="black" stroke-weight="1"></path><path id="SvgjsPath1639" d="M 315.52944396563294 114.39722242536953 C 315.52944396563294 114.39722242536953 180.11430781801755 107.10096695914461 63.95912051994985 34.53153219038765" fill="none" stroke="black" stroke-weight="1"></path><path id="SvgjsPath1640" d="M 313.7306734056938 113.11580569196987 C 313.7306734056938 113.11580569196987 178.0568164405303 107.65264280385568 69.83766731277056 30.37558602801039" fill="none" stroke="black" stroke-weight="1"></path><path id="SvgjsPath1641" d="M 311.88642315592716 111.92658023542324 C 311.88642315592716 111.92658023542324 175.92919763364932 108.23078436834835 75.91657818957343 26.518638601372672" fill="none" stroke="black" stroke-weight="1"></path><path id="SvgjsPath1642" d="M 309.99720549621065 110.83251850003435 C 309.99720549621065 110.83251850003435 173.73676933634925 108.83503033296412 82.18065903900211 22.970330270381666" fill="none" stroke="black" stroke-weight="1"></path><path id="SvgjsPath1643" d="M 308.06354519707975 109.83635507036533 C 308.06354519707975 109.83635507036533 171.48501147757887 109.4650030636442 88.61425292120329 19.739529957941585" fill="none" stroke="black" stroke-weight="1"></path><path id="SvgjsPath1644" d="M 306.0859793739621 108.94057983619845 C 306.0859793739621 108.94057983619845 169.17955227929218 110.12030884793839 95.20127920202239 16.83431298226523" fill="none" stroke="black" stroke-weight="1"></path><path id="SvgjsPath1645" d="M 304.06505733798156 108.14743176910841 C 304.06505733798156 108.14743176910841 166.82615418882494 110.80053814106265 101.92527374621444 14.261940872784038" fill="none" stroke="black" stroke-weight="1"></path><path id="SvgjsPath1646" d="M 302.0013404433761 107.45889332619943 C 302.0013404433761 107.45889332619943 164.43069947577743 111.50526582185115 108.7694300692074 12.028843220106268" fill="none" stroke="black" stroke-weight="1"></path><path id="SvgjsPath1647" d="M 299.89540193156876 106.87668549499489 C 299.89540193156876 106.87668549499489 161.99917552940343 112.23405145844333 115.71664134456161 10.14060160538881" fill="none" stroke="black" stroke-weight="1"></path><path id="SvgjsPath1648" d="M 297.74782677193843 106.40226349186477 C 297.74782677193843 106.40226349186477 159.53765989325572 112.98643958353928 122.7495431621265 8.601935649291164" fill="none" stroke="black" stroke-weight="1"></path><path id="SvgjsPath1649" d="M 295.55921149933175 106.03681312474278 C 295.55921149933175 106.03681312474278 157.05230507449218 113.76195997905211 129.85055693002238 7.416691215381974" fill="none" stroke="black" stroke-weight="1"></path><path id="SvgjsPath1650" d="M 293.33016404836275 105.78124782922379 C 293.33016404836275 105.78124782922379 154.54932316581187 114.56012796997891 137.00193381196607 6.587830797482553" fill="none" stroke="black" stroke-weight="1"></path><path id="SvgjsPath1651" d="M 291.0613035845462 105.63620638545078 C 291.0613035845462 105.63620638545078 152.03497031845876 115.38044472730684 144.18579909011788 6.11742611497553" fill="none" stroke="black" stroke-weight="1"></path><path id="SvgjsPath1652" d="M 288.7532603323111 105.60205132149707 C 288.7532603323111 105.60205132149707 149.51553110510153 116.22239757976503 151.38419684256706 6.006652934585105" fill="none" stroke="black" stroke-weight="1"></path><path id="SvgjsPath1653" d="M 286.4066753999423 105.67886800723493 C 286.4066753999423 105.67886800723493 146.99730281167498 117.08546033422746 158.57913482378575 6.255788131572729" fill="none" stroke="black" stroke-weight="1"></path><path id="SvgjsPath1654" d="M 284.0222006014993 105.86646444095535 C 284.0222006014993 105.86646444095535 144.48657969744482 117.96909360456647 165.7526294358719 6.8642089976930265" fill="none" stroke="black" stroke-weight="1"></path><path id="SvgjsPath1655" d="M 281.6004982757607 106.16437172927237 C 281.6004982757607 106.16437172927237 141.9896372626373 118.8727451487516 172.88675067817917 7.830394797640167" fill="none" stroke="black" stroke-weight="1"></path><path id="SvgjsPath1656" d="M 279.14224110224524 106.57184525911234 C 279.14224110224524 106.57184525911234 139.51271656295683 119.7958502139829 179.96366696298048 9.151930570094123" fill="none" stroke="black" stroke-weight="1"></path><path id="SvgjsPath1657" d="M 276.6481119143615 107.08786655885875 C 276.6481119143615 107.08786655885875 137.06200861019744 120.73783188964292 186.9656896851503 10.82551316386622" fill="none" stroke="black" stroke-weight="1"></path><path id="SvgjsPath1658" d="M 274.11880350973547 107.71114584400092 C 274.11880350973547 107.71114584400092 134.6436388979368 121.69810146784725 193.87531743446627 12.846959494057074" fill="none" stroke="black" stroke-weight="1"></path><path id="SvgjsPath1659" d="M 271.55501845777167 108.4401252409236 C 271.55501845777167 108.4401252409236 132.26365209099308 122.67605881136761 200.6752797400197 15.211216997590071" fill="none" stroke="black" stroke-weight="1"></path><path id="SvgjsPath1660" d="M 268.9574689044995 109.2729826807796 C 268.9574689044995 109.2729826807796 129.9279969169105 123.67109272869814 207.34858023739858 17.9123762619879" fill="none" stroke="black" stroke-weight="1"></path><path id="SvgjsPath1661" d="M 266.3268763747592 110.20763645371306 C 266.3268763747592 110.20763645371306 127.64251129723844 124.68258135603035 213.87853915074732 20.943685795826156" fill="none" stroke="black" stroke-weight="1"></path><path id="SvgjsPath1662" d="M 263.66397157178346 111.24175041204991 C 263.66397157178346 111.24175041204991 125.41290775576834 125.70989254589746 220.24883498351915 24.297568903945646" fill="none" stroke="black" stroke-weight="1"></path><path id="SvgjsPath1663" d="M 260.9694941742284 112.37273980945044 C 260.9694941742284 112.37273980945044 123.24475914019862 126.75238426224628 226.44354531371823 27.96564262524464" fill="none" stroke="black" stroke-weight="1"></path><path id="SvgjsPath1664" d="M 258.24419263071223 113.59777776142903 C 258.24419263071223 113.59777776142903 121.14348469291834 127.80940498168864 232.44718659166182 31.938738685715805" fill="none" stroke="black" stroke-weight="1"></path><path id="SvgjsPath1665" d="M 255.48882395191794 114.9138023110932 C 255.48882395191794 114.9138023110932 119.11433650572316 128.88029410068236 238.24475284079097 36.206926414356346" fill="none" stroke="black" stroke-weight="1"></path><path id="SvgjsPath1666" d="M 252.7041535003171 116.31752408244111 C 252.7041535003171 116.31752408244111 117.16238639232108 129.96438234838706 243.82175316479706 40.75953756467389" fill="none" stroke="black" stroke-weight="1"></path><path id="SvgjsPath1667" d="M 249.89095477757422 117.80543450208856 C 249.89095477757422 117.80543450208856 115.29251321143954 131.06099220493653 249.16424796731565 45.585192979746694" fill="none" stroke="black" stroke-weight="1"></path><path id="SvgjsPath1668" d="M 247.05000920969013 119.3738145688752 C 247.05000920969013 119.3738145688752 113.5093906722197 132.1694383248666 254.2588837936579 50.67183103418985" fill="none" stroke="black" stroke-weight="1"></path><path id="SvgjsPath1669" d="M 244.18210592994424 121.0187441494306 C 244.18210592994424 121.0187441494306 111.81747565237742 133.28902796543375 259.0929267074931 56.00673778193709" fill="none" stroke="black" stroke-weight="1"></path><path id="SvgjsPath1670" d="M 241.28804155969587 122.73611177646615 C 241.28804155969587 122.73611177646615 110.22099705832989 134.4190614195569 263.6542941190575 61.57657873448481" fill="none" stroke="black" stroke-weight="1"></path><path id="SvgjsPath1671" d="M 238.36861998710583 124.52162492530202 C 238.36861998710583 124.52162492530202 108.72394525513224 135.5588324531114 267.9315849853365 67.36743219016873" fill="none" stroke="black" stroke-weight="1"></path><path id="SvgjsPath1672" d="M 235.42465214383907 126.37082074294341 C 235.42465214383907 126.37082074294341 107.330062092643 136.70762874630242 271.91410830673425 73.3648240311678" fill="none" stroke="black" stroke-weight="1"></path><path id="SvgjsPath1673" d="M 232.45695577981132 128.27907720288874 C 232.45695577981132 128.27907720288874 106.04283155284813 137.86473233884158 275.5919098490054 79.55376390126084" fill="none" stroke="black" stroke-weight="1"></path><path id="SvgjsPath1674" d="M 229.4663552360414 130.24162465778898 C 229.4663552360414 130.24162465778898 104.86547104172031 139.02942007864897 278.95579702365626 85.91878267391017" fill="none" stroke="black" stroke-weight="1"></path><path id="SvgjsPath1675" d="M 226.45368121567316 132.25355776108177 C 226.45368121567316 132.25355776108177 103.8009233473799 140.20096407379947 281.99736186462894 92.4439711170219" fill="none" stroke="black" stroke-weight="1"></path><path id="SvgjsPath1676" d="M 223.41977055322963 134.30984772780337 C 223.41977055322963 134.30984772780337 102.85184928465699 141.37863214743143 284.70900204383713 99.11301965774067" fill="none" stroke="black" stroke-weight="1"></path><path id="SvgjsPath1677" d="M 220.36546598216466 136.40535490393214 C 220.36546598216466 136.40535490393214 102.02062104444028 142.56168829533357 287.0839398730278 105.90925914788804" fill="none" stroke="black" stroke-weight="1"></path><path id="SvgjsPath1678" d="M 217.29161590077553 138.53484161284678 C 217.29161590077553 138.53484161284678 101.30931626443491 143.74939314592365 289.1162392444717 112.81570252815172" fill="none" stroke="black" stroke-weight="1"></path><path id="SvgjsPath1679" d="M 214.1990741365422 140.69298524679022 C 214.1990741365422 140.69298524679022 100.71971283615053 144.9410044223315 290.8008204681413 119.81508728688725" fill="none" stroke="black" stroke-weight="1"></path><path id="SvgjsPath1680" d="M 211.08869970895879 142.87439157061715 C 211.08869970895879 142.87439157061715 100.25328446109836 146.135777406298 292.13347296829033 126.88991860740691" fill="none" stroke="black" stroke-weight="1"></path><path id="SvgjsPath1681" d="M 207.96135659092207 145.07360820457234 C 207.96135659092207 145.07360820457234 99.91119696730485 147.33296540359964 293.1108658077004 134.0225130959103" fill="none" stroke="black" stroke-weight="1"></path><path id="SvgjsPath1682" d="M 204.817913468745 147.28513825240088 C 204.817913468745 147.28513825240088 99.6943053953487 148.5318202107083 293.7305560132894 141.19504298075964" fill="none" stroke="black" stroke-weight="1"></path><path id="SvgjsPath1683" d="M 201.6592435008603 149.50345404072576 C 201.6592435008603 149.50345404072576 99.60315186120488 149.731592582394 293.9909946822718 148.3895806726241" fill="none" stroke="black" stroke-weight="1"></path><path id="SvgjsPath1684" d="M 198.48622407528228 151.72301093535268 C 198.48622407528228 151.72301093535268 99.63796420123691 150.93153269997867 293.8915308536088 155.5881435741168" fill="none" stroke="black" stroke-weight="1"></path><path id="SvgjsPath1685" d="M 195.2997365658933 153.93826119996797 C 195.2997365658933 153.93826119996797 99.79865540272462 152.1308906399485 293.43241313507247 162.77273902692315" fill="none" stroke="black" stroke-weight="1"></path><path id="SvgjsPath1686" d="M 192.1006660876236 156.14366786259012 C 192.1006660876236 156.14366786259012 100.08482382135067 153.32891684263183 292.61478908185524 169.92540928407607" fill="none" stroke="black" stroke-weight="1"></path><path id="SvgjsPath1687" d="M 188.88990125059166 158.33371855511615 C 188.88990125059166 158.33371855511615 100.4957541851021 154.5248625806495 291.4407023282797 177.02827639497136" fill="none" stroke="black" stroke-weight="1"></path><path id="SvgjsPath1688" d="M 185.66833391327367 160.50293929137115 C 185.66833391327367 160.50293929137115 101.03041938207794 155.71798042684492 289.91308747977735 184.06358689093344" fill="none" stroke="black" stroke-weight="1"></path><path id="SvgjsPath1689" d="M 182.43685893477092 162.64590814922275 C 182.43685893477092 162.64590814922275 101.68748302773399 156.90752472140178 288.0357627779029 191.01375615964133" fill="none" stroke="black" stroke-weight="1"></path><path id="SvgjsPath1690" d="M 179.19637392624358 164.75726882256293 C 179.19637392624358 164.75726882256293 102.46530280514824 158.09275203785742 285.8134205567193 197.8614123975014" fill="none" stroke="black" stroke-weight="1"></path><path id="SvgjsPath1691" d="M 175.94777900158002 166.83174400928377 C 175.94777900158002 166.83174400928377 103.3619345699579 159.2729216477199 283.25161551440596 204.58944003010947" fill="none" stroke="black" stroke-weight="1"></path><path id="SvgjsPath1692" d="M 172.69197652737085 168.8641486017842 C 172.69197652737085 168.8641486017842 104.37513720970773 160.44729598339916 280.3567508294065 211.18102249227306" fill="none" stroke="black" stroke-weight="1"></path><path id="SvgjsPath1693" d="M 169.42987087225757 170.84940264703886 C 169.42987087225757 170.84940264703886 105.50237824546403 161.61514109916294 277.136062155817 217.61968426066653" fill="none" stroke="black" stroke-weight="1"></path><path id="SvgjsPath1694" d="M 166.16236815572455 172.7825440438349 C 166.16236815572455 172.7825440438349 106.74084016169326 162.77572712982888 273.5975995380192 223.88933203405912" fill="none" stroke="black" stroke-weight="1"></path><path id="SvgjsPath1695" d="M 162.8903759964053 174.65874094544094 C 162.8903759964053 174.65874094544094 108.08742744858336 163.9283287469066 269.7502072897619 229.97429495818682" fill="none" stroke="black" stroke-weight="1"></path><path id="SvgjsPath1696" d="M 159.614803259972 176.4733038367074 C 159.614803259972 176.4733038367074 109.53877433920616 165.0722256119042 265.6035018879825 235.85936379472673" fill="none" stroke="black" stroke-weight="1"></path><path id="SvgjsPath1697" d="M 156.33655980667834 178.22169725541224 C 156.33655980667834 178.22169725541224 111.0912532221819 166.20670282651642 261.1678479366231 241.5298289364721" fill="none" stroke="black" stroke-weight="1"></path><path id="SvgjsPath1698" d="M 153.0565562386268 179.89955112855432 C 153.0565562386268 179.89955112855432 112.7409837088186 167.33105137941303 256.4543322605182 246.97151717368973" fill="none" stroke="black" stroke-weight="1"></path><path id="SvgjsPath1699" d="M 149.77570364682924 181.50267169526026 C 149.77570364682924 181.50267169526026 114.48384233206274 168.4445685893476 251.47473619410647 252.17082711976298" fill="none" stroke="black" stroke-weight="1"></path><path id="SvgjsPath1700" d="M 146.494913358132 183.0270519890023 C 146.494913358132 183.0270519890023 116.31547285301936 169.54655854431047 246.24150613423052 257.11476320757504" fill="none" stroke="black" stroke-weight="1"></path><path id="SvgjsPath1701" d="M 143.21509668207545 184.468881852928 C 143.21509668207545 184.468881852928 118.23129714928073 170.63633253645105 240.76772243062646 261.79096817165845" fill="none" stroke="black" stroke-weight="1"></path><path id="SvgjsPath1702" d="M 139.93716465775813 185.82455746326806 C 139.93716465775813 185.82455746326806 120.2265266578483 171.71320949249798 235.06706669186187 266.1877539349235" fill="none" stroke="black" stroke-weight="1"></path><path id="SvgjsPath1703" d="M 136.6620278007765 187.0906903370188 C 136.6620278007765 187.0906903370188 122.29617434404615 172.7765163994076 229.15378758843957 270.2941308227637" fill="none" stroke="black" stroke-weight="1"></path><path id="SvgjsPath1704" d="M 133.39059585030952 188.26411580138512 C 133.39059585030952 188.26411580138512 124.43506716651038 173.8255887249752 223.04266523854187 274.0998350315193" fill="none" stroke="black" stroke-weight="1"></path><path id="SvgjsPath1705" d="M 130.1237775164193 189.34190090381426 C 130.1237775164193 189.34190090381426 126.63785900709863 174.85977083314606 216.74897426543248 277.5953542826408" fill="none" stroke="black" stroke-weight="1"></path><path id="SvgjsPath1706" d="M 126.8624802276374 190.32135174284977 C 126.8624802276374 190.32135174284977 128.89904403340128 175.87841639376668 210.28844561885336 280.77195159843166" fill="none" stroke="black" stroke-weight="1"></path><path id="SvgjsPath1707" d="M 123.6076098789074 191.20002020148223 C 123.6076098789074 191.20002020148223 131.2129704604551 176.88088878652005 203.6772272558426 283.6216871399423" fill="none" stroke="black" stroke-weight="1"></path><path id="SvgjsPath1708" d="M 120.36007057995283 191.9757100661667 C 120.36007057995283 191.9757100661667 133.57385467726192 177.86656149879252 196.9318437792518 286.1374380524325" fill="none" stroke="black" stroke-weight="1"></path><path id="SvgjsPath1709" d="M 117.12076440414191 192.64648251621298 C 117.12076440414191 192.64648251621298 135.97579570280436 178.83481851722397 190.06915513484464 288.31291626879886" fill="none" stroke="black" stroke-weight="1"></path><path id="SvgjsPath1710" d="M 113.8905911379169 193.21066096982747 C 113.8905911379169 193.21066096982747 138.41278993542542 179.78505471269602 183.10631447021296 290.14268422646745" fill="none" stroke="black" stroke-weight="1"></path><path id="SvgjsPath1711" d="M 110.67044803085969 193.6668352746946 C 110.67044803085969 193.6668352746946 140.87874615870564 180.71667621851805 176.060725260841 291.622168458469" fill="none" stroke="black" stroke-weight="1"></path><path id="SvgjsPath1712" d="M 107.46122954646113 194.0138652326232 C 107.46122954646113 194.0138652326232 143.36750076633194 181.62910080157445 168.9499978104803 292.7476710247239" fill="none" stroke="black" stroke-weight="1"></path><path id="SvgjsPath1713" d="M 104.26382711366503 194.25088344944814 C 104.26382711366503 194.25088344944814 145.87283316790348 182.52175822620154 161.7919052345615 293.5163787549669" fill="none" stroke="black" stroke-weight="1"></path><path id="SvgjsPath1714" d="M 101.07912887925461 194.37729750306406 C 101.07912887925461 194.37729750306406 148.38848133716832 183.39409061056617 154.60433903666183 293.9263702802077" fill="none" stroke="black" stroke-weight="1"></path><path id="SvgjsPath1715" d="M 97.90801946115079 194.3927914241721 C 97.90801946115079 194.3927914241721 150.90815746382765 184.2455527753238 147.4052643890639 293.97662083515274" fill="none" stroke="black" stroke-weight="1"></path><path id="SvgjsPath1716" d="M 94.7513797026906 194.29732648603854 C 94.7513797026906 194.29732648603854 153.42556366978664 185.07561258433773 140.21267522918112 293.66700481958446" fill="none" stroke="black" stroke-weight="1"></path><path id="SvgjsPath1717" d="M 91.61008642795427 194.09114130129157 C 91.61008642795427 194.09114130129157 155.9344077505702 185.8837512772469 133.0445492840852 292.998296112297" fill="none" stroke="black" stroke-weight="1"></path><path id="SvgjsPath1718" d="M 88.48501219820864 193.7747512255139 C 88.48501219820864 193.7747512255139 158.4284189025571 186.6694637936743 125.91880313555114 291.9721661368018" fill="none" stroke="black" stroke-weight="1"></path><path id="SvgjsPath1719" d="M 85.37702506953421 193.34894706912215 C 85.37702506953421 193.34894706912215 160.9013633967234 187.43225908887325 118.85324743793308 290.5911796836394" fill="none" stroke="black" stroke-weight="1"></path><path id="SvgjsPath1720" d="M 82.28698835170482 192.8147931207528 C 82.28698835170482 192.8147931207528 163.34706015971824 188.17166044061432 111.86554240080503 288.8587884997388" fill="none" stroke="black" stroke-weight="1"></path><path id="SvgjsPath1721" d="M 79.21576036838448 192.17362448709483 C 79.21576036838448 192.17362448709483 165.75939622332822 188.88720574712113 104.97315364763358 286.77932266084804" fill="none" stroke="black" stroke-weight="1"></path><path id="SvgjsPath1722" d="M 76.16419421870931 191.42704375581815 C 76.16419421870931 191.42704375581815 168.13234200371483 189.5784478158692 98.19330856081481 284.3579797485994" fill="none" stroke="black" stroke-weight="1"></path><path id="SvgjsPath1723" d="M 73.1331375403215 190.57691698993924 C 73.1331375403215 190.57691698993924 170.45996637223337 190.24495464306645 91.54295322219039 281.6008118592624" fill="none" stroke="black" stroke-weight="1"></path><path id="SvgjsPath1724" d="M 70.12343227391995 189.62536906363533 C 70.12343227391995 189.62536906363533 172.7364514801658 190.88630968364163 85.03871005666909 278.5147104766551" fill="none" stroke="black" stroke-weight="1"></path><path id="SvgjsPath1725" d="M 67.13591442939317 188.57477835116566 C 67.13591442939317 188.57477835116566 174.95610730031282 191.50211211157134 78.6968362848205 275.1073892470237" fill="none" stroke="black" stroke-weight="1"></path><path id="SvgjsPath1726" d="M 64.17141385359923 187.42777078217426 C 64.17141385359923 187.42777078217426 177.11338584909848 192.09197707038336 72.53318328829008 271.3873646989436" fill="none" stroke="black" stroke-weight="1"></path><path id="SvgjsPath1727" d="M 61.23075399985848 186.18721327823363 C 61.23075399985848 186.18721327823363 179.20289505363985 192.65553591367944 66.56315698960043 267.36393495643347" fill="none" stroke="black" stroke-weight="1"></path><path id="SvgjsPath1728" d="M 58.314751699222015 184.85620658703377 C 58.314751699222015 184.85620658703377 181.21941222912085 193.1924364355271 60.80167934536898 263.04715649848794" fill="none" stroke="black" stroke-weight="1"></path><path id="SvgjsPath1729" d="M 55.42421693357923 183.43807753212786 C 55.42421693357923 183.43807753212786 183.1578971327846 193.70234309057702 55.26315104918689 258.44781902311735" fill="none" stroke="black" stroke-weight="1"></path><path id="SvgjsPath1730" d="M 52.55995261066771 181.93637069760575 C 52.55995261066771 181.93637069760575 185.01350456191537 194.18493720376802 49.96141553738465 253.57741847872137" fill="none" stroke="black" stroke-weight="1"></path><path id="SvgjsPath1731" d="M 49.72275434104867 180.35483956847992 C 49.72275434104867 180.35483956847992 186.7815964643221 194.63991716948846 44.90972438765114 248.44812833020518" fill="none" stroke="black" stroke-weight="1"></path><path id="SvgjsPath1732" d="M 46.91341021710963 178.69743714892775 C 46.91341021710963 178.69743714892775 188.45775353105319 195.06699864007 40.12070419699094 243.0727691316576" fill="none" stroke="black" stroke-weight="1"></path><path id="SvgjsPath1733" d="M 44.13270059415444 176.96830608183967 C 44.13270059415444 176.96830608183967 190.03778624236742 195.46591470349563 35.60632502180739 237.46477648164222" fill="none" stroke="black" stroke-weight="1"></path><path id="SvgjsPath1734" d="M 41.381397873642726 175.17176829436931 C 41.381397873642726 175.17176829436931 191.51774533935173 195.836416050211 31.377870458995048 231.6381674411977" fill="none" stroke="black" stroke-weight="1"></path><path id="SvgjsPath1735" d="M 38.66026628863925 173.31231419536644 C 38.66026628863925 173.31231419536644 192.89393169501153 196.1782711289347 27.445909442824245 225.6075054984858" fill="none" stroke="black" stroke-weight="1"></path><path id="SvgjsPath1736" d="M 35.97006169153205 171.3945914516937 C 35.97006169153205 171.3945914516937 194.16290556016156 196.4912662913705 23.820269828109815 219.3878641676553" fill="none" stroke="black" stroke-weight="1"></path><path id="SvgjsPath1737" d="M 33.31153134407805 169.42339337147965 C 33.31153134407805 169.42339337147965 195.32149516100776 196.77520592573018 20.510013825692084 212.994789312907" fill="none" stroke="black" stroke-weight="1"></path><path id="SvgjsPath1738" d="M 30.68541370983486 167.40364692334464 C 30.68541370983486 167.40364692334464 196.36680462692988 197.02991257898498 17.523415351628955 206.44426029192852" fill="none" stroke="black" stroke-weight="1"></path><path id="SvgjsPath1739" d="M 28.092438249037116 165.34040042154527 C 28.092438249037116 165.34040042154527 197.29622122864973 197.25522706776763 14.867939346715076 199.75265001582247" fill="none" stroke="black" stroke-weight="1"></path><path id="SvgjsPath1740" d="M 25.533325215973477 163.23881090781813 C 25.533325215973477 163.23881090781813 198.10742190869382 197.451008577857 12.55022311801767 192.93668402535613" fill="none" stroke="black" stroke-weight="1"></path><path id="SvgjsPath1741" d="M 23.008785458920443 161.104131261461 C 23.008785458920443 161.104131261461 198.79837908782716 197.6171347521822 10.576059749065251 186.0133986858194" fill="none" stroke="black" stroke-weight="1"></path><path id="SvgjsPath1742" d="M 20.519520222688698 158.94169706986995 C 20.519520222688698 158.94169706986995 199.36736573294547 197.75350176729194 8.950383620155748 179.0000986049836" fill="none" stroke="black" stroke-weight="1"></path><path id="SvgjsPath1743" d="M 18.066220953837927 156.75691329234996 C 18.066220953837927 156.75691329234996 199.81295967375854 197.8600243982407 7.677258074975612 171.91431338059448" fill="none" stroke="black" stroke-weight="1"></path><metadata>116 * Math.sin(t/3)+116 * Math.cos(t/3);37 * Math.sin(t/1);42 * Math.cos(t/1);40 * Math.cos(t/2)</metadata></svg>