<svg id="SvgjsSvg1375" width="300" height="300" xmlns="http://www.w3.org/2000/svg" version="1.1" xmlns:xlink="http://www.w3.org/1999/xlink" xmlns:svgjs="http://svgjs.com/svgjs"><defs id="SvgjsDefs1376"></defs><path id="SvgjsPath1377" d="M 157.11107972542456 200.26541461731335 C 157.11107972542456 200.26541461731335 199.1246094943716 150.38348563781892 292.69402234345705 169.349831716193" fill="none" stroke="black" stroke-weight="1"></path><path id="SvgjsPath1378" d="M 159.7425907293986 202.36832596161742 C 159.7425907293986 202.36832596161742 197.70351306547818 150.71958477193596 291.54860345763007 176.45737816176413" fill="none" stroke="black" stroke-weight="1"></path><path id="SvgjsPath1379" d="M 162.36801293130176 204.4232171180076 C 162.36801293130176 204.4232171180076 196.2526034937352 151.1591568767779 290.04938678024666 183.49879494066704" fill="none" stroke="black" stroke-weight="1"></path><path id="SvgjsPath1380" d="M 164.98570552771906 206.42473408734188 C 164.98570552771906 206.42473408734188 194.7727875503959 151.7008265335308 288.2001195722234 190.45648217805342" fill="none" stroke="black" stroke-weight="1"></path><path id="SvgjsPath1381" d="M 167.59403254598735 208.36760462114418 C 167.59403254598735 208.36760462114418 193.26499007225473 152.34289751431476 286.00542403850045 197.3130492793233" fill="none" stroke="black" stroke-weight="1"></path><path id="SvgjsPath1382" d="M 170.19136386662484 210.2466515679077 C 170.19136386662484 210.2466515679077 191.73015338365462 153.08335723581905 283.47078577493687 204.05135839755462" fill="none" stroke="black" stroke-weight="1"></path><path id="SvgjsPath1383" d="M 172.77607624210296 212.05680601388383 C 172.77607624210296 212.05680601388383 190.1692367075649 153.9198820445366 280.6025400571775 210.65456726919535" fill="none" stroke="black" stroke-weight="1"></path><path id="SvgjsPath1384" d="M 175.34655431132305 213.7931201853865 C 175.34655431132305 213.7931201853865 188.583215566098 154.8498433202283 277.40785600576316 217.10617131095108" fill="none" stroke="black" stroke-weight="1"></path><path id="SvgjsPath1385" d="M 177.90119160916453 215.4507800802171 C 177.90119160916453 215.4507800802171 186.9730811708402 155.87031438217727 273.8947186670632 223.39004487264785" fill="none" stroke="black" stroke-weight="1"></path><path id="SvgjsPath1386" d="M 180.43839157047327 217.02511779647344 C 180.43839157047327 217.02511779647344 185.33983980337635 156.97807818076026 270.0719090548177 229.49048154295951" fill="none" stroke="black" stroke-weight="1"></path><path id="SvgjsPath1387" d="M 182.95656852786288 218.5116235277407 C 182.95656852786288 218.5116235277407 183.68451218639686 158.16963575487696 265.9489822021766 235.3922334072563" fill="none" stroke="black" stroke-weight="1"></path><path id="SvgjsPath1388" d="M 185.4541487027052 219.90595719447913 C 185.4541487027052 219.90595719447913 182.00813284577904 159.44121543383693 261.5362432790926 241.0805491594504" fill="none" stroke="black" stroke-weight="1"></path><path id="SvgjsPath1389" d="M 187.9295711886907 221.2039596823106 C 187.9295711886907 221.2039596823106 180.31174946404235 160.78878276041962 256.84472183476356 246.54121097257897" fill="none" stroke="black" stroke-weight="1"></path><path id="SvgjsPath1390" d="M 190.3812889273441 222.40166365887046 C 190.3812889273441 222.40166365887046 178.59642222558065 162.20805110999484 251.88614422950303 251.7605700359668" fill="none" stroke="black" stroke-weight="1"></path><path id="SvgjsPath1391" d="M 192.8077696748856 223.4953039419252 C 192.8077696748856 223.4953039419252 176.86322315408168 163.69449297882724 246.67290432494696 256.7255806701451" fill="none" stroke="black" stroke-weight="1"></path><path id="SvgjsPath1392" d="M 195.20749695983335 224.4813273925583 C 195.20749695983335 224.4813273925583 175.11323544254708 165.24335191299053 241.21803250585378 261.42383293425604" fill="none" stroke="black" stroke-weight="1"></path><path id="SvgjsPath1393" d="M 197.57897103074876 225.35640230839533 C 197.57897103074876 225.35640230839533 173.347552776332 166.84965504769372 235.53516311092898 265.84358364444176" fill="none" stroke="black" stroke-weight="1"></path><path id="SvgjsPath1394" d="M 199.9207097935323 226.11742729306968 C 199.9207097935323 226.11742729306968 171.56727864962735 168.5082262252698 229.6385003540787 269.97378572568846" fill="none" stroke="black" stroke-weight="1"></path><path id="SvgjsPath1395" d="M 202.23124973768415 226.7615395794216 C 202.23124973768415 226.7615395794216 169.7735256758119 170.2136996586093 223.54278282127243 273.8041158237607" fill="none" stroke="black" stroke-weight="1"></path><path id="SvgjsPath1396" d="M 204.50914685095051 227.2861227852697 C 204.50914685095051 227.2861227852697 167.96741489210513 171.96053410543303 217.26324663175387 277.3250001082107" fill="none" stroke="black" stroke-weight="1"></path><path id="SvgjsPath1397" d="M 206.75297752178437 227.68881408199388 C 206.75297752178437 227.68881408199388 166.1500750589554 173.7430275174998 210.81558735567765 280.52763820196833" fill="none" stroke="black" stroke-weight="1"></path><path id="SvgjsPath1398" d="M 208.96133942905627 227.96751075761978 C 208.96133942905627 227.96751075761978 164.32264195460147 175.55533212763387 204.21592078335783 283.40402517770093" fill="none" stroke="black" stroke-weight="1"></path><path id="SvgjsPath1399" d="M 211.13285241845944 228.12037615758868 C 211.13285241845944 228.12037615758868 162.48625766524802 177.3914699363407 197.48074264418534 285.9469715659626" fill="none" stroke="black" stroke-weight="1"></path><path id="SvgjsPath1400" d="M 213.26615936506136 228.1458449879365 C 213.26615936506136 228.1458449879365 160.642069871299 179.24534855875913 190.62688737589514 288.15012132512345" fill="none" stroke="black" stroke-weight="1"></path><path id="SvgjsPath1401" d="M 215.35992702146245 228.0426279671815 C 215.35992702146245 228.0426279671815 158.79123113009476 181.11077739177426 183.67148604723914 290.00796772816386" fill="none" stroke="black" stroke-weight="1"></path><path id="SvgjsPath1402" d="M 217.41284685103267 227.80971581483055 C 217.41284685103267 227.80971581483055 156.93489815560116 182.9814840602959 176.631923539236 291.51586712662396" fill="none" stroke="black" stroke-weight="1"></path><path id="SvgjsPath1403" d="M 219.4236358457038 227.44638256605708 C 219.4236358457038 227.44638256605708 155.07423109550098 184.85113110098632 169.5257950920224 292.67005055730635" fill="none" stroke="black" stroke-weight="1"></path><path id="SvgjsPath1404" d="M 221.3910373278083 226.9521882037697 C 221.3910373278083 226.9521882037697 153.21039280613945 186.71333284110813 162.37086232591628 293.4676331627215" fill="none" stroke="black" stroke-weight="1"></path><path id="SvgjsPath1405" d="M 223.31382173546154 226.32698060098267 C 223.31382173546154 226.32698060098267 151.34454812577687 188.56167242965557 155.18500884661591 293.9066214017288" fill="none" stroke="black" stroke-weight="1"></path><path id="SvgjsPath1406" d="M 225.190787390998 225.57089676810594 C 225.190787390998 225.57089676810594 149.47786314660263 190.38971897753035 147.9861955454994 293.9859180323515" fill="none" stroke="black" stroke-weight="1"></path><path id="SvgjsPath1407" d="M 227.02076125198087 224.68436340149628 C 227.02076125198087 224.68436340149628 147.61150448596547 192.19104476323332 140.7924157067501 293.70532485430977" fill="none" stroke="black" stroke-weight="1"></path><path id="SvgjsPath1408" d="M 228.80259964431525 223.66809673134046 C 228.80259964431525 223.66809673134046 145.74663855727567 193.95924246035824 133.6216500335167 293.0655432044187" fill="none" stroke="black" stroke-weight="1"></path><path id="SvgjsPath1409" d="M 230.5351889770073 222.52310166867983 C 230.5351889770073 222.52310166867983 143.8844308410347 195.68794234310258 126.4918217055197 292.0681722036112" fill="none" stroke="black" stroke-weight="1"></path><path id="SvgjsPath1410" d="M 232.2174464381223 221.25067025312273 C 232.2174464381223 221.25067025312273 142.02604515644776 197.37082942604692 119.42075158043633 290.7157047599685" fill="none" stroke="black" stroke-weight="1"></path><path id="SvgjsPath1411" d="M 233.84832067150683 219.85237940452467 C 233.84832067150683 219.85237940452467 140.17264293407456 199.0016604945994 112.42611365103717 289.0115213377482" fill="none" stroke="black" stroke-weight="1"></path><path id="SvgjsPath1412" d="M 235.42679243385237 218.33008798364244 C 235.42679243385237 218.33008798364244 138.32538248997332 200.57428098276057 105.52539086940867 286.9598815079844" fill="none" stroke="black" stroke-weight="1"></path><path id="SvgjsPath1413" d="M 236.95187523168886 216.68593316848373 C 236.95187523168886 216.68593316848373 136.48541830179056 202.0826416552264 98.73583144867796 284.56591330177804" fill="none" stroke="black" stroke-weight="1"></path><path id="SvgjsPath1414" d="M 238.4226159379113 214.92232615476914 C 238.4226159379113 214.92232615476914 134.65390028725062 203.52081505132168 92.07440575146268 281.8356003928901" fill="none" stroke="black" stroke-weight="1"></path><path id="SvgjsPath1415" d="M 239.83809538745294 213.0419471906029 C 239.83809538745294 213.0419471906029 132.83197308549404 204.88301164883487 85.5577638728024 278.77576714167344" fill="none" stroke="black" stroke-weight="1"></path><path id="SvgjsPath1416" d="M 241.19742895173363 211.0477399570991 C 241.19742895173363 211.0477399570991 131.0207753417156 206.1635957065106 79.20219402359236 275.3940615377257" fill="none" stroke="black" stroke-weight="1"></path><path id="SvgjsPath1417" d="M 242.49976709152395 208.94290530833405 C 242.49976709152395 208.94290530833405 129.2214389955482 207.3571007447445 73.02358181853874 271.69893608389845" fill="none" stroke="black" stroke-weight="1"></path><path id="SvgjsPath1418" d="M 243.7442958878795 206.73089438558588 C 243.7442958878795 206.73089438558588 127.43508857363716 208.45824462491603 67.03737057039514 267.6996266694422" fill="none" stroke="black" stroke-weight="1"></path><path id="SvgjsPath1419" d="M 244.93023755081364 204.41540112237556 C 244.93023755081364 204.41540112237556 125.6628404868481 209.46194418878213 61.25852268972339 263.40612948509295" fill="none" stroke="black" stroke-weight="1"></path><path id="SvgjsPath1420" d="M 246.05685090539117 202.00035415833582 C 246.05685090539117 202.00035415833582 123.90580233254595 210.36332942044524 55.70148228665933 258.82917603780146" fill="none" stroke="black" stroke-weight="1"></path><path id="SvgjsPath1421" d="M 247.1234318549383 199.4899081814022 C 247.1234318549383 199.4899081814022 122.16507220238321 211.1577570945857 50.38013906815996 253.98020632755475" fill="none" stroke="black" stroke-weight="1"></path><path id="SvgjsPath1422" d="M 248.1293138210803 196.88843471924045 C 248.1293138210803 196.88843471924045 120.44173799602794 211.84082387592403 45.30779362096955 248.87134025333376" fill="none" stroke="black" stroke-weight="1"></path><path id="SvgjsPath1423" d="M 249.07386816033113 194.20051240219226 C 249.07386816033113 194.20051240219226 118.73687674126222 212.4083788362371 40.497124167079605 243.51534731967809" fill="none" stroke="black" stroke-weight="1"></path><path id="SvgjsPath1424" d="M 249.9565045569754 191.43091672133258 C 249.9565045569754 191.43091672133258 117.05155392087457 212.85653535669795 35.96015487477665 237.92561471957458" fill="none" stroke="black" stroke-weight="1"></path><path id="SvgjsPath1425" d="M 250.77667139199627 188.58460930648755 C 250.77667139199627 188.58460930648755 115.38682280676821 213.18168238483526 31.708225804483504 232.11611387344715" fill="none" stroke="black" stroke-weight="1"></path><path id="SvgjsPath1426" d="M 251.53385608781934 185.66672675025342 C 251.53385608781934 185.66672675025342 113.7437238017 213.38049501701204 27.751964564514054 226.1013655078815" fill="none" stroke="black" stroke-weight="1"></path><path id="SvgjsPath1427" d="M 252.22758542865728 182.68256900518395 C 252.22758542865728 182.68256900518395 112.12328378906307 213.44994437899976 24.101259747587193 219.8964033613711" fill="none" stroke="black" stroke-weight="1"></path><path id="SvgjsPath1428" d="M 252.85742585625383 179.6375873823759 C 252.85742585625383 179.6375873823759 110.52651549111755 213.38730677897033 20.765236214494934 213.5167366078005" fill="none" stroke="black" stroke-weight="1"></path><path id="SvgjsPath1429" d="M 253.42298374084396 176.53737218067062 C 253.42298374084396 176.53737218067062 108.95441683607277 213.19017210903968 17.752232286702508 206.9783110915874" fill="none" stroke="black" stroke-weight="1"></path><path id="SvgjsPath1430" d="M 253.92390562715954 173.38763997660843 C 253.92390562715954 173.38763997660843 107.40797033441399 212.856451473367 15.069778904887329 200.29746947137608" fill="none" stroke="black" stroke-weight="1"></path><path id="SvgjsPath1431" d="M 254.35987845532728 170.194220606115 C 254.35987845532728 170.194220606115 105.88814246486581 212.38438402274113 12.724580805509163 193.49091037190206" fill="none" stroke="black" stroke-weight="1"></path><path id="SvgjsPath1432" d="M 254.73062975652113 166.96304386966517 C 254.73062975652113 166.96304386966517 104.39588307037411 211.77254297756258 10.722499762460956 186.57564664612656" fill="none" stroke="black" stroke-weight="1"></path><path id="SvgjsPath1433" d="M 255.03592782324634 163.700125993356 C 255.03592782324634 163.700125993356 102.9321247644854 211.01984082315386 9.06853993568663 179.5689628519643" fill="none" stroke="black" stroke-weight="1"></path><path id="SvgjsPath1434" d="M 255.27558185414904 160.41155587892854 C 255.27558185414904 160.41155587892854 101.49778234849333 210.12553366339344 7.766835363387514 172.4883720498903" fill="none" stroke="black" stroke-weight="1"></path><path id="SvgjsPath1435" d="M 255.44944207326103 157.10348117630048 C 255.44944207326103 157.10348117630048 100.09375223971819 209.0892247207708 6.8206396290797215 165.3515720294093" fill="none" stroke="black" stroke-weight="1"></path><path id="SvgjsPath1436" d="M 255.55739982360473 153.78209421261494 C 255.55739982360473 153.78209421261494 98.72091191127467 207.9108669730872 6.2323177293298215 158.17640107379898" fill="none" stroke="black" stroke-weight="1"></path><path id="SvgjsPath1437" d="M 255.59938763510038 150.45361781216536 C 255.59938763510038 150.45361781216536 97.38011934368029 206.59076491918563 6.003340162494993 150.98079337369154" fill="none" stroke="black" stroke-weight="1"></path><path id="SvgjsPath1438" d="M 255.57537926673257 147.1242910418287 C 255.57537926673257 147.1242910418287 96.072212488645 205.12957546826448 6.134279253243221 143.78273420093714" fill="none" stroke="black" stroke-weight="1"></path><path id="SvgjsPath1439" d="M 255.48538972294995 143.80035491682418 C 255.48538972294995 143.80035491682418 94.79800874537908 203.52830794952263 6.62480772203935 136.600214954791" fill="none" stroke="black" stroke-weight="1"></path><path id="SvgjsPath1440" d="M 255.32947524428818 140.48803810171222 C 255.32947524428818 140.48803810171222 93.55830444974487 201.7883232410778 7.473699503173634 129.45118819278468" fill="none" stroke="black" stroke-weight="1"></path><path id="SvgjsPath1441" d="M 255.10773327222114 137.19354264156252 C 255.10773327222114 137.19354264156252 92.35387437657313 199.9113320193048 8.67883280928757 122.35352275868213" fill="none" stroke="black" stroke-weight="1"></path><path id="SvgjsPath1442" d="M 254.82030238826337 133.92302975814223 C 254.82030238826337 133.92302975814223 91.18547125545359 197.89939213193645 10.237195434737203 115.32495911967584" fill="none" stroke="black" stroke-weight="1"></path><path id="SvgjsPath1443" d="M 254.4673622273611 130.68260574581603 C 254.4673622273611 130.68260574581603 90.05382530030388 195.75490510046342 12.1448922845384 108.38306502445818" fill="none" stroke="black" stroke-weight="1"></path><path id="SvgjsPath1444" d="M 254.04913336562615 127.4783080016009 C 254.04913336562615 127.4783080016009 88.9596437530092 193.48061175954552 14.397155110076 101.5451915929986" fill="none" stroke="black" stroke-weight="1"></path><path id="SvgjsPath1445" d="M 253.56587718248318 124.31609122348516 C 253.56587718248318 124.31609122348516 87.90361044141959 191.0795870433092 16.988354427242 94.82842994778014" fill="none" stroke="black" stroke-weight="1"></path><path id="SvgjsPath1446" d="M 253.017895697316 121.20181381070397 C 253.017895697316 121.20181381070397 86.8863853519793 188.5552339305371 19.912013587213977 88.24956849489396" fill="none" stroke="black" stroke-weight="1"></path><path id="SvgjsPath1447" d="M 252.40553138071522 118.14122449916047 C 252.40553138071522 118.14122449916047 85.90860421725722 185.91127656286733 23.160824964704204 81.8250509617675" fill="none" stroke="black" stroke-weight="1"></path><path id="SvgjsPath1448" d="M 251.72916694044545 115.1399492645985 C 251.72916694044545 115.1399492645985 84.97087811863433 183.15175255218568 26.726668223217317 75.5709352964095" fill="none" stroke="black" stroke-weight="1"></path><path id="SvgjsPath1449" d="M 250.98922508226525 112.20347852546705 C 250.98922508226525 112.20347852546705 84.07379310439802 180.28100449543098 30.60063061166224 69.50285353090291" fill="none" stroke="black" stroke-weight="1"></path><path id="SvgjsPath1450" d="M 250.18616824574985 109.33715467667221 C 250.18616824574985 109.33715467667221 83.21790982348077 177.30367071701534 34.77302924158849 63.63597270946559" fill="none" stroke="black" stroke-weight="1"></path><path id="SvgjsPath1451" d="M 249.32049831528138 106.54615998458999 C 249.32049831528138 106.54615998458999 82.40376317507298 174.22467526100374 39.233435289364394 57.984956978738666" fill="none" stroke="black" stroke-weight="1"></path><path id="SvgjsPath1452" d="M 248.39275630638764 103.83550487281641 C 248.39275630638764 103.83550487281641 81.63186197432827 171.0492171570726 43.97070006280518 52.56393093505683" fill="none" stroke="black" stroke-weight="1"></path><path id="SvgjsPath1453" d="M 247.4035220276249 101.21001662715972 C 247.4035220276249 101.21001662715972 80.90268863437068 167.7827589860978 48.97298286709699 47.386444320313515" fill="none" stroke="black" stroke-weight="1"></path><path id="SvgjsPath1454" d="M 246.35341371821636 98.6743285473394 C 246.35341371821636 98.6743285473394 80.21669886480197 164.43101477297216 54.22778060036758 42.46543815466272" fill="none" stroke="black" stroke-weight="1"></path><path id="SvgjsPath1455" d="M 245.24308766167297 96.23286957174525 C 245.24308766167297 96.23286957174525 79.57432138689828 160.9999372359526 59.72195900492966 37.813212390707974" fill="none" stroke="black" stroke-weight="1"></path><path id="SvgjsPath1456" d="M 244.07323777563738 93.88985440043692 C 244.07323777563738 93.88985440043692 78.97595766567298 157.49570442344515 65.44178549608448 33.44139517002698" fill="none" stroke="black" stroke-weight="1"></path><path id="SvgjsPath1457" d="M 242.8445951782081 91.6492741403244 C 242.8445951782081 91.6492741403244 78.42198165897425 153.92470577068553 71.37296348643227 29.360913758872968" fill="none" stroke="black" stroke-weight="1"></path><path id="SvgjsPath1458" d="M 241.55792773101444 89.51488749517551 C 241.55792773101444 89.51488749517551 77.91273958377359 150.2935276102275 77.50066811989494 25.581967235700205" fill="none" stroke="black" stroke-weight="1"></path><path id="SvgjsPath1459" d="M 240.21403955932817 87.49021252174151 C 240.21403955932817 87.49021252174151 77.44854969979144 146.60893817153038 83.80958332613571 22.114000998779275" fill="none" stroke="black" stroke-weight="1"></path><path id="SvgjsPath1460" d="M 238.81377054951102 85.57851897188709 C 238.81377054951102 85.57851897188709 77.02970211059527 142.8778721062261 90.28394010275852 18.965683157620646" fill="none" stroke="black" stroke-weight="1"></path><path id="SvgjsPath1461" d="M 237.35799582411346 83.7828212391561 C 237.35799582411346 83.7828212391561 76.65645858229425 139.10741457684156 96.90755592960161 16.144882867214903" fill="none" stroke="black" stroke-weight="1"></path><path id="SvgjsPath1462" d="M 235.84762519495138 82.10587192670303 C 235.84762519495138 82.10587192670303 76.32905237994396 135.30478494785922 103.66387521661035 13.658650659243733" fill="none" stroke="black" stroke-weight="1"></path><path id="SvgjsPath1463" d="M 234.28360259450324 80.55015605197839 C 234.28360259450324 80.55015605197839 76.04768812176333 131.4773201190036 110.53601068419025 11.513200819422309" fill="none" stroke="black" stroke-weight="1"></path><path id="SvgjsPath1464" d="M 232.66690548598325 79.11788590197536 C 232.66690548598325 79.11788590197536 75.81254165125495 127.63245754155122 117.50678557261136 9.713895855021548" fill="none" stroke="black" stroke-weight="1"></path><path id="SvgjsPath1465" d="M 230.9985442524585 77.81099655123003 C 230.9985442524585 77.81099655123003 75.6237599273085 123.77771795926733 124.55877657496198 8.265233091392531" fill="none" stroke="black" stroke-weight="1"></path><path id="SvgjsPath1466" d="M 229.27956156539233 76.6311420531238 C 229.27956156539233 76.6311420531238 75.48146093235637 119.92068791627665 131.67435738634217 7.170833430995316" fill="none" stroke="black" stroke-weight="1"></path><path id="SvgjsPath1467" d="M 227.51103173300893 75.57969231336452 C 227.51103173300893 75.57969231336452 75.38573359863835 116.06900207477321 138.83574276044632 6.43343230302861" fill="none" stroke="black" stroke-weight="1"></path><path id="SvgjsPath1468" d="M 225.69406002888542 74.657730652832 C 225.69406002888542 74.657730652832 75.33663775262197 112.23032538596578 146.02503296341658 6.054872826281212" fill="none" stroke="black" stroke-weight="1"></path><path id="SvgjsPath1469" d="M 223.82978200119186 73.866052065262 C 223.82978200119186 73.866052065262 75.33420407761284 108.4123351580387 153.2242585138555 6.036101202295043" fill="none" stroke="black" stroke-weight="1"></path><path id="SvgjsPath1470" d="M 221.91936276301072 73.20516217352069 C 221.91936276301072 73.20516217352069 75.37843409457862 104.62270306518255 160.41542509717112 6.377164350354036" fill="none" stroke="black" stroke-weight="1"></path><path id="SvgjsPath1471" d="M 219.963996264179 72.6752768864888 C 219.963996264179 72.6752768864888 75.46930016119848 100.86907714191364 167.5805585419924 7.077209790210219" fill="none" stroke="black" stroke-weight="1"></path><path id="SvgjsPath1472" d="M 217.9649045451086 72.27632275683729 C 217.9649045451086 72.27632275683729 75.60674548913858 97.15906380695654 174.70174974623654 8.134487772840629" fill="none" stroke="black" stroke-weight="1"></path><path id="SvgjsPath1473" d="M 215.9233369730506 72.00793803823979 C 215.9233369730506 72.00793803823979 75.79068417954298 93.50020996090774 181.7611994405377 9.546355653908421" fill="none" stroke="black" stroke-weight="1"></path><path id="SvgjsPath1474" d="M 213.84056946128172 71.86947443883327 C 213.84056946128172 71.86947443883327 76.02100127671767 89.89998520173391 188.74126267715042 11.309284498997442" fill="none" stroke="black" stroke-weight="1"></path><path id="SvgjsPath1475" d="M 211.7179036716998 71.85999956601331 C 211.7179036716998 71.85999956601331 76.29755283997405 86.3657642018816 195.62449293312983 13.418867904110641" fill="none" stroke="black" stroke-weight="1"></path><path id="SvgjsPath1476" d="M 209.55666620132752 71.97830005593806 C 209.55666620132752 71.97830005593806 76.62016603358721 82.90480929039316 202.39368571755304 15.869833009384962" fill="none" stroke="black" stroke-weight="1"></path><path id="SvgjsPath1477" d="M 207.3582077532326 72.22288537941948 C 207.3582077532326 72.22288537941948 76.98863923481271 79.52425328292972 209.0319215737864 18.656053678495198" fill="none" stroke="black" stroke-weight="1"></path><path id="SvgjsPath1478" d="M 205.12390229238216 72.59199231420591 C 205.12390229238216 72.59199231420591 77.40274215989402 76.23108260200284 215.52260836931572 21.7705658108043" fill="none" stroke="black" stroke-weight="1"></path><path id="SvgjsPath1479" d="M 202.85514618695944 73.08359007201089 C 202.85514618695944 73.08359007201089 77.86221600798265 73.03212072901316 221.8495227674366 25.205584747987984" fill="none" stroke="black" stroke-weight="1"></path><path id="SvgjsPath1480" d="M 200.5533573356792 73.69538606702339 C 200.5533573356792 73.69538606702339 78.36677362288007 69.9340120288862 227.99685077714696 28.952524731626596" fill="none" stroke="black" stroke-weight="1"></path><path id="SvgjsPath1481" d="M 198.21997428164696 74.42483231104846 C 198.21997428164696 74.42483231104846 78.91609967250103 66.94320598718546 233.9492272798891 33.002020363129674" fill="none" stroke="black" stroke-weight="1"></path><path id="SvgjsPath1482" d="M 195.8564553133166 75.26913241887807 C 195.8564553133166 75.26913241887807 79.5098508459458 64.06594189857272 239.69177443434396 37.34395001235502" fill="none" stroke="black" stroke-weight="1"></path><path id="SvgjsPath1483" d="M 193.46427755310748 76.22524920598453 C 193.46427755310748 76.22524920598453 80.14765606805847 61.30823404438212 245.2101388632861 41.96746111641282" fill="none" stroke="black" stroke-weight="1"></path><path id="SvgjsPath1484" d="M 191.04493603425098 77.28991285916614 C 191.04493603425098 77.28991285916614 80.82911673133665 58.67585739587375 250.4905275295518 46.86099730542092" fill="none" stroke="black" stroke-weight="1"></path><path id="SvgjsPath1485" d="M 188.5999427664434 78.45962965936067 C 188.5999427664434 78.45962965936067 81.55380694504832 56.17433387844068 255.5197422114487 52.012327287411225" fill="none" stroke="black" stroke-weight="1"></path><path id="SvgjsPath1486" d="M 186.1308257908892 79.73069123448039 C 186.1308257908892 79.73069123448039 82.32127380139953 53.808919230664856 260.28521249143637 57.408575420189536" fill="none" stroke="black" stroke-weight="1"></path><path id="SvgjsPath1487" d="M 183.6391282253248 81.0991843188163 C 183.6391282253248 81.0991843188163 83.13103765858722 51.584590490654946 264.77502717562385 63.03625389373563" fill="none" stroke="black" stroke-weight="1"></path><path id="SvgjsPath1488" d="M 181.1264072996205 82.56100099431144 C 181.1264072996205 82.56100099431144 83.98259244055964 49.50603414055436 268.97796406555085 68.88129644270393" fill="none" stroke="black" stroke-weight="1"></path><path id="SvgjsPath1489" d="M 178.59423338256224 84.11184938781813 C 178.59423338256224 84.11184938781813 84.87540595329735 47.57763493848661 272.88351800783994 74.92909350476131" fill="none" stroke="black" stroke-weight="1"></path><path id="SvgjsPath1490" d="M 176.04418900042234 85.74726479733287 C 176.04418900042234 85.74726479733287 85.80892021741715 45.80346546551088 276.4819271516085 81.16452873688445" fill="none" stroke="black" stroke-weight="1"></path><path id="SvgjsPath1491" d="M 173.47786784793212 87.46262121915 C 173.47786784793212 87.46262121915 86.78255181689121 44.18727641339885 279.7641973480123 87.57201679834495" fill="none" stroke="black" stroke-weight="1"></path><path id="SvgjsPath1492" d="M 170.89687379227453 89.25314324689218 C 170.89687379227453 89.25314324689218 87.795692263663 42.73248763721644 282.7221246309336 94.13554230594443" fill="none" stroke="black" stroke-weight="1"></path><path id="SvgjsPath1493" d="M 168.3028198707194 91.11391831246655 C 168.3028198707194 91.11391831246655 88.84770837793235 41.442179994806935 285.34831572262397 100.83869986413191" fill="none" stroke="black" stroke-weight="1"></path><path id="SvgjsPath1494" d="M 165.69732728252754 93.0399092381594 C 165.69732728252754 93.0399092381594 89.93794268387245 40.31908799333054 287.6362065130479 107.66473506994885" fill="none" stroke="black" stroke-weight="1"></path><path id="SvgjsPath1495" d="M 163.08202437575417 95.0259670683253 C 163.08202437575417 95.0259670683253 91.06571382053076 39.365593261023136 289.58007846674 114.59658639031116" fill="none" stroke="black" stroke-weight="1"></path><path id="SvgjsPath1496" d="M 160.45854562958425 97.06684414844717 C 160.45854562958425 97.06684414844717 92.23031696765746 38.58371886030052 291.1750729161649 121.61692780695633" fill="none" stroke="black" stroke-weight="1"></path><path id="SvgjsPath1497" d="M 157.8285306328362 99.15720741874554 C 157.8285306328362 99.15720741874554 93.431024286195 37.975124456255216 292.417203205856 128.70821212246585" fill="none" stroke="black" stroke-weight="1"></path><metadata>88 * Math.sin(t/2);37 * Math.cos(t/2)+37 * Math.sin(t/1);44 * Math.cos(t/2)+44 * Math.sin(t/2);47 * Math.cos(t/1)+47 * Math.sin(t/2)</metadata></svg>