<svg id="SvgjsSvg1129" width="300" height="300" xmlns="http://www.w3.org/2000/svg" version="1.1" xmlns:xlink="http://www.w3.org/1999/xlink" xmlns:svgjs="http://svgjs.com/svgjs"><defs id="SvgjsDefs1130"></defs><path id="SvgjsPath1131" d="M 230.1702918277977 201.06166995935254 C 230.1702918277977 201.06166995935254 208.5418757119166 205.35182183970187 291.4769855784665 176.83770764484876" fill="none" stroke="black" stroke-weight="1"></path><path id="SvgjsPath1132" d="M 229.31001491679604 203.0583639169366 C 229.31001491679604 203.0583639169366 208.38600853361444 201.82775997842958 289.95884985316945 183.87506970882816" fill="none" stroke="black" stroke-weight="1"></path><path id="SvgjsPath1133" d="M 228.25150427235968 205.00284835921994 C 228.25150427235968 205.00284835921994 208.1936520005254 198.30146958211733 288.09088989239945 190.82776174033077" fill="none" stroke="black" stroke-weight="1"></path><path id="SvgjsPath1134" d="M 226.99740561983805 206.8899981758257 C 226.99740561983805 206.8899981758257 207.96492632922119 194.78134509639602 285.8777746232436 197.67840563016983" fill="none" stroke="black" stroke-weight="1"></path><path id="SvgjsPath1135" d="M 225.5508535527405 208.71478147578435 C 225.5508535527405 208.71478147578435 207.699974465801 191.27568625044313 283.32503568130676 204.40987833636711" fill="none" stroke="black" stroke-weight="1"></path><path id="SvgjsPath1136" d="M 223.91546369788503 210.47227236150474 C 223.91546369788503 210.47227236150474 207.39896199655493 187.79267762368414 280.439053584503 211.00535468284036" fill="none" stroke="black" stroke-weight="1"></path><path id="SvgjsPath1137" d="M 222.0953236782142 212.15766346899684 C 222.0953236782142 212.15766346899684 207.06207704447792 184.34036854967638 277.2270417850839 217.448349413581" fill="none" stroke="black" stroke-weight="1"></path><path id="SvgjsPath1138" d="M 220.09498289586656 213.76627824285984 C 220.09498289586656 213.76627824285984 206.68953015169885 180.92665340717946 273.69702863976454 223.7227583972091" fill="none" stroke="black" stroke-weight="1"></path><path id="SvgjsPath1139" d="M 217.9194411610407 215.29358291519188 C 217.9194411610407 215.29358291519188 206.28155414789887 177.55925234741838 269.857837343013 229.8128988789145" fill="none" stroke="black" stroke-weight="1"></path><path id="SvgjsPath1140" d="M 215.5741361950734 216.73519815830005 C 215.5741361950734 216.73519815830005 205.8384040048001 174.2456925054238 265.71906387365897 235.70354867917683" fill="none" stroke="black" stroke-weight="1"></path><path id="SvgjsPath1141" d="M 213.06493003896838 218.08691038188408 C 213.06493003896838 218.08691038188408 205.36035667681685 170.9932897420942 261.2910530099442 241.3799842412866" fill="none" stroke="black" stroke-weight="1"></path><path id="SvgjsPath1142" d="M 210.3980944013466 219.34468264623695 C 210.3980944013466 219.34468264623695 204.847710927968 167.80913096226806 256.5848724729646 246.8280174325689" fill="none" stroke="black" stroke-weight="1"></path><path id="SvgjsPath1143" d="M 207.58029498244096 220.5046651639476 C 207.58029498244096 220.5046651639476 204.30078714515923 164.7000570526235 251.61228526313113 252.03403100732652" fill="none" stroke="black" stroke-weight="1"></path><path id="SvgjsPath1144" d="M 204.61857481331714 221.56320536359857 C 204.61857481331714 221.56320536359857 203.71992713795166 161.6726464816456 246.38572025879495 256.98501264286193" fill="none" stroke="black" stroke-weight="1"></path><path id="SvgjsPath1145" d="M 201.52033665196393 222.51685749003008 C 201.52033665196393 222.51685749003008 203.10549392494198 158.73319960221536 240.91824115052458 261.6685874635076" fill="none" stroke="black" stroke-weight="1"></path><path id="SvgjsPath1146" d="M 198.29332448025346 223.3623917168797 C 198.29332448025346 223.3623917168797 202.45787150688764 155.88772369559064 235.22351378868257 266.0730489713708" fill="none" stroke="black" stroke-weight="1"></path><path id="SvgjsPath1147" d="M 194.94560414801953 224.09680274830916 C 194.94560414801953 224.09680274830916 201.77746462671894 153.14191879366612 229.31577202591683 270.1873883064808" fill="none" stroke="black" stroke-weight="1"></path><path id="SvgjsPath1148" d="M 191.48554321263373 224.71731788808762 C 191.48554321263373 224.71731788808762 201.06469851658778 150.50116431442603 223.20978213994186 274.0013217632064" fill="none" stroke="black" stroke-weight="1"></path><path id="SvgjsPath1149" d="M 187.92179002446957 225.22140455551477 C 187.92179002446957 225.22140455551477 200.32001863211144 147.97050654344255 216.92080592553455 277.50531649416405" fill="none" stroke="black" stroke-weight="1"></path><path id="SvgjsPath1150" d="M 184.26325211053071 225.6067772290315 C 184.26325211053071 225.6067772290315 199.54389037397735 145.55464699213042 210.4645625479954 280.6906143373714" fill="none" stroke="black" stroke-weight="1"></path><path id="SvgjsPath1151" d="M 180.51907391027228 225.87140379978013 C 180.51907391027228 225.87140379978013 198.73679879708277 143.25793166124816 203.85718925342167 283.54925370709157" fill="none" stroke="black" stroke-weight="1"></path><path id="SvgjsPath1152" d="M 176.6986139192646 226.01351131883172 C 176.6986139192646 226.01351131883172 197.89924830739128 141.08434123584857 197.11520103399639 286.07408949365083" fill="none" stroke="black" stroke-weight="1"></path><path id="SvgjsPath1153" d="M 172.81142129782813 226.0315911232994 C 172.81142129782813 226.0315911232994 197.03176234669553 139.03748223552338 190.25544934910846 288.2588109224919" fill="none" stroke="black" stroke-weight="1"></path><path id="SvgjsPath1154" d="M 168.86721200310564 225.92440332808968 C 168.86721200310564 225.92440332808968 196.13488306548302 137.12057914137634 183.29508000548051 290.09795732782345" fill="none" stroke="black" stroke-weight="1"></path><path id="SvgjsPath1155" d="M 164.8758445042294 225.69098067161516 C 164.8758445042294 225.69098067161516 195.2091709841099 135.33646751868812 176.25149030158133 291.58693180144127" fill="none" stroke="black" stroke-weight="1"></path><path id="SvgjsPath1156" d="M 160.8472951412827 225.33063170538887 C 160.8472951412827 225.33063170538887 194.2552046424937 133.68758815172515 169.14228554344004 292.72201268260415" fill="none" stroke="black" stroke-weight="1"></path><path id="SvgjsPath1157" d="M 156.79163318964487 224.84294331904624 C 156.79163318964487 224.84294331904624 193.2735802385451 132.17598220458783 161.98523504054978 293.5003628602478" fill="none" stroke="black" stroke-weight="1"></path><path id="SvgjsPath1158" d="M 152.71899569204714 224.227782593985 C 152.71899569204714 224.227782593985 192.26491125556322 130.80328741940548 154.79822769184787 293.92003686428507" fill="none" stroke="black" stroke-weight="1"></path><path id="SvgjsPath1159" d="M 148.63956212124486 223.48529798047713 C 148.63956212124486 223.48529798047713 191.22982807882886 129.57073536056748 147.59922727278501 293.979985728268" fill="none" stroke="black" stroke-weight="1"></path><path id="SvgjsPath1160" d="M 144.5635289366371 222.6159197947818 C 144.5635289366371 222.6159197947818 190.16897760163408 128.47914971104345 140.40622753524195 293.6800596112573" fill="none" stroke="black" stroke-weight="1"></path><path id="SvgjsPath1161" d="M 140.50108409842835 221.62036003447588 C 140.50108409842835 221.62036003447588 189.08302282099493 127.52894562419051 133.23720723252063 293.02100817234697" fill="none" stroke="black" stroke-weight="1"></path><path id="SvgjsPath1162" d="M 136.4623816030338 220.49961151190473 C 136.4623816030338 220.49961151190473 187.97264242329996 126.72013013178753 126.11008518182433 292.004478696907" fill="none" stroke="black" stroke-weight="1"></path><path id="SvgjsPath1163" d="M 132.45751610337626 219.25494630735034 C 132.45751610337626 219.25494630735034 186.83853036015333 126.05230360637178 119.04267547654634 290.6330119792276" fill="none" stroke="black" stroke-weight="1"></path><path id="SvgjsPath1164" d="M 128.4964976775113 217.8879135451977 C 128.4964976775113 217.8879135451977 185.68139541467752 125.52466227329893 112.05264296031402 288.9100359718569" fill="none" stroke="black" stroke-weight="1"></path><path id="SvgjsPath1165" d="M 124.58922680864501 216.4003364980616 C 124.58922680864501 216.4003364980616 184.5019607585471 125.13600176530116 105.15745907407941 286.8398572175049" fill="none" stroke="black" stroke-weight="1"></path><path id="SvgjsPath1166" d="M 120.74546963908224 214.7943090255007 C 120.74546963908224 214.7943090255007 183.3009635000299 124.88472170969341 98.37435818661575 284.42765008492916" fill="none" stroke="black" stroke-weight="1"></path><path id="SvgjsPath1167" d="M 116.97483355995692 213.07219135559927 C 116.97483355995692 213.07219135559927 182.07915422331828 124.76883133577638 91.72029451757103 281.67944383570784" fill="none" stroke="black" stroke-weight="1"></path><path id="SvgjsPath1168" d="M 113.28674319775749 211.23660521932476 C 113.28674319775749 211.23660521932476 180.8372965194387 124.78595608741625 85.2118997607485 278.60210755422594" fill="none" stroke="black" stroke-weight="1"></path><path id="SvgjsPath1169" d="M 109.69041685766913 209.2904283491776 C 109.69041685766913 209.2904283491776 179.57616650903176 124.9333452232502 78.86544151353377 275.2033329785414" fill="none" stroke="black" stroke-weight="1"></path><path id="SvgjsPath1170" d="M 106.1948434826115 207.23678835522577 C 106.1948434826115 207.23678835522577 178.29655235730246 125.20788038448063 72.69678261637324 271.49161527504583" fill="none" stroke="black" stroke-weight="1"></path><path id="SvgjsPath1171" d="M 102.80876018556287 205.07905599316382 C 102.80876018556287 205.07905599316382 176.99925378144243 125.60608510778525 66.72134150393445 267.4762318049727" fill="none" stroke="black" stroke-weight="1"></path><path id="SvgjsPath1172" d="M 99.54063041132773 202.82083784054322 C 99.54063041132773 202.82083784054322 175.68508155083262 126.12413525849199 60.954053667048925 263.1672189358261" fill="none" stroke="black" stroke-weight="1"></path><path id="SvgjsPath1173" d="M 96.39862278233258 200.46596839879226 C 96.39862278233258 200.46596839879226 174.35485698033906 126.75787035685066 55.40933432176337 258.5753469556882" fill="none" stroke="black" stroke-weight="1"></path><path id="SvgjsPath1174" d="M 93.39059068132397 198.01850164006794 C 93.39059068132397 198.01850164006794 173.00941141701756 127.5028057679877 50.10104237880702 253.71209315310864" fill="none" stroke="black" stroke-weight="1"></path><path id="SvgjsPath1175" d="M 90.5240526220016 195.48270201936154 C 90.5240526220016 195.48270201936154 171.64958572054914 128.3541457239551 45.042445803532246 248.58961312986037" fill="none" stroke="black" stroke-weight="1"></path><path id="SvgjsPath1176" d="M 87.80617345664962 192.86303497360763 C 87.80617345664962 192.86303497360763 170.27622973772978 129.3067971441933 40.246188452911085 243.2207104182654" fill="none" stroke="black" stroke-weight="1"></path><path id="SvgjsPath1177" d="M 85.24374646773728 190.16415693081964 C 85.24374646773728 190.16415693081964 168.89020177134415 130.35538421871712 35.72425847247753 237.61880447903224" fill="none" stroke="black" stroke-weight="1"></path><path id="SvgjsPath1178" d="M 82.84317638825068 187.390904853493 C 82.84317638825068 187.390904853493 167.49236804375397 131.4942637164175 31.487958332207086 231.79789715959276" fill="none" stroke="black" stroke-weight="1"></path><path id="SvgjsPath1179" d="M 80.61046339319583 184.54828534167262 C 80.61046339319583 184.54828534167262 166.08360215553768 132.71754097904477 27.54787657622792 225.77253769677566" fill="none" stroke="black" stroke-weight="1"></path><path id="SvgjsPath1180" d="M 78.55118810228589 181.64146332217615 C 78.55118810228589 181.64146332217615 164.664784539518 134.01908655971874 23.913861356975104 219.55778635129138" fill="none" stroke="black" stroke-weight="1"></path><path id="SvgjsPath1181" d="M 76.67049763129832 178.67575035149216 C 76.67049763129832 178.67575035149216 163.23680191052048 135.39255346318498 20.59499581993819 213.1691767649238" fill="none" stroke="black" stroke-weight="1"></path><path id="SvgjsPath1182" d="M 74.97309272696592 175.65659256083194 C 74.97309272696592 175.65659256083194 161.80054671120533 136.83139494352787 17.599575400528067 206.62267713451516" fill="none" stroke="black" stroke-weight="1"></path><path id="SvgjsPath1183" d="M 73.46321601755811 172.58955827270293 C 73.46321601755811 172.58955827270293 160.35691655432012 138.32888281364535 14.935087089808405 199.93465029979046" fill="none" stroke="black" stroke-weight="1"></path><path id="SvgjsPath1184" d="M 72.14464140851986 169.48032531918776 C 72.14464140851986 169.48032531918776 158.9068136617206 139.87812621950684 12.608190720917378 193.1218128447794" fill="none" stroke="black" stroke-weight="1"></path><path id="SvgjsPath1185" d="M 71.02066464967334 166.33466809285397 C 71.02066464967334 166.33466809285397 157.45114430051186 141.47209083104275 10.624702322952942 186.20119331506245" fill="none" stroke="black" stroke-weight="1"></path><path id="SvgjsPath1186" d="M 70.09409509755993 163.15844436188402 C 70.09409509755993 163.15844436188402 155.99081821666044 143.10361840047193 8.98957958392927 179.19008965527485" fill="none" stroke="black" stroke-weight="1"></path><path id="SvgjsPath1187" d="M 69.3672486935118 159.9575818816006 C 69.3672486935118 159.9575818816006 154.52674806643324 144.76544663794306 7.706909459138444 172.10602597325388" fill="none" stroke="black" stroke-weight="1"></path><path id="SvgjsPath1188" d="M 68.84194217500477 156.73806483506854 C 68.84194217500477 156.73806483506854 153.05984884601648 146.4502293535744 6.77989795589076 164.96670873889553" fill="none" stroke="black" stroke-weight="1"></path><path id="SvgjsPath1189" d="M 68.51948853476075 153.50592013587956 C 68.51948853476075 153.50592013587956 151.59103731967338 148.15055681430147 6.210862120166041 157.7899825272012" fill="none" stroke="black" stroke-weight="1"></path><path id="SvgjsPath1190" d="M 68.4006937389498 150.2672036265676 C 68.4006937389498 150.2672036265676 150.12123144679592 149.8589762634054 6.0012242452055204 150.59378541613336" fill="none" stroke="black" stroke-weight="1"></path><path id="SvgjsPath1191" d="M 68.48585471269426 147.02798620636304 C 68.48585471269426 147.02798620636304 148.6513498082105 151.56801255018365 6.151508316519283 143.3961041507626" fill="none" stroke="black" stroke-weight="1"></path><path id="SvgjsPath1192" d="M 68.77475859791075 143.79433992216855 C 68.77475859791075 143.79433992216855 147.1823110320945 153.27018881694966 6.661338702195451 136.21492918577252" fill="none" stroke="black" stroke-weight="1"></path><path id="SvgjsPath1193" d="M 69.26668328534448 140.57232405673193 C 69.26668328534448 140.57232405673193 145.71503321986373 154.95804719040157 7.529441091784378 129.06820971869186" fill="none" stroke="black" stroke-weight="1"></path><path id="SvgjsPath1194" d="M 69.9603992194663 137.36797124799705 C 69.9603992194663 137.36797124799705 144.25043337238878 156.62416942439225 8.753645681411115 121.97380882624884" fill="none" stroke="black" stroke-weight="1"></path><path id="SvgjsPath1195" d="M 70.85417247172116 134.18727367353722 C 70.85417247172116 134.18727367353722 142.7894268168997 158.26119744125103 10.330892597154985 114.94945881598198" fill="none" stroke="black" stroke-weight="1"></path><path id="SvgjsPath1196" d="M 71.94576907444655 131.0361693338136 C 71.94576907444655 131.0361693338136 141.3329266349357 159.8618537190673 12.25723954314094 108.0127169047062" fill="none" stroke="black" stroke-weight="1"></path><path id="SvgjsPath1197" d="M 73.23246060462814 127.92052846775533 C 73.23246060462814 127.92052846775533 139.8818430916995 161.418961472729 14.527871655226136 101.18092133461433" fill="none" stroke="black" stroke-weight="1"></path><path id="SvgjsPath1198" d="M 74.71103100353652 124.84614013382966 C 74.71103100353652 124.84614013382966 138.4370830671707 162.92546457703082 17.137113535652674 94.47114803670124" fill="none" stroke="black" stroke-weight="1"></path><path id="SvgjsPath1199" d="M 76.37778461519898 121.81869898935875 C 76.37778461519898 121.81869898935875 136.99954948933578 164.3744471808135 20.07844343858642 87.9001679498293" fill="none" stroke="black" stroke-weight="1"></path><path id="SvgjsPath1200" d="M 78.22855542361484 118.84379230034759 C 78.22855542361484 118.84379230034759 135.57014076988708 165.75915296187398 23.344509571085013 81.48440510211547" fill="none" stroke="black" stroke-weight="1"></path><path id="SvgjsPath1201" d="M 80.25871746562589 115.92688721351449 C 80.25871746562589 115.92688721351449 134.149750242745 167.07300397328765 26.927148468751582 75.23989555941432" fill="none" stroke="black" stroke-weight="1"></path><path id="SvgjsPath1202" d="M 82.46319639341506 113.07331832156407 C 82.46319639341506 113.07331832156407 132.73926560575327 168.30961903281352 30.81740540014421 69.18224734350486" fill="none" stroke="black" stroke-weight="1"></path><path id="SvgjsPath1203" d="M 84.8364821577333 110.28827555201443 C 84.8364821577333 110.28827555201443 131.33956836589687 169.4628316081997 35.0055567489411 63.32660142016471" fill="none" stroke="black" stroke-weight="1"></path><path id="SvgjsPath1204" d="M 87.37264278015314 107.57679240908575 C 87.37264278015314 107.57679240908575 129.95153328838842 170.5267071524771 39.48113431791732 57.68759385464074" fill="none" stroke="black" stroke-weight="1"></path><path id="SvgjsPath1205" d="M 90.06533917992546 104.94373459728118 C 90.06533917992546 104.94373459728118 128.57602784996902 171.4955598447089 44.23295149398612 52.279319229108395" fill="none" stroke="black" stroke-weight="1"></path><path id="SvgjsPath1206" d="M 92.90784101838 102.3937890543418 C 92.90784101838 102.3937890543418 127.21391169676296 172.36396869316246 49.249131208905894 47.11529541355655" fill="none" stroke="black" stroke-weight="1"></path><path id="SvgjsPath1207" d="M 95.89304352126697 99.93145342024127 C 95.89304352126697 99.93145342024127 125.86603610702727 173.12679295947052 54.51713562576528 42.20842977815245" fill="none" stroke="black" stroke-weight="1"></path><path id="SvgjsPath1208" d="M 99.01348523699255 97.5610259678021 C 99.01348523699255 97.5610259678021 124.53324345913023 173.7791868640585 60.02379747704565 37.57098693153843" fill="none" stroke="black" stroke-weight="1"></path><path id="SvgjsPath1209" d="M 102.26136668636207 95.28659601936903 C 102.26136668636207 95.28659601936903 123.21636670509253 174.31661353492177 65.75535297593306 33.21455806569739" fill="none" stroke="black" stroke-weight="1"></path><path id="SvgjsPath1210" d="M 105.62856985721606 93.11203487276805 C 105.62856985721606 93.11203487276805 121.91622885001924 174.73485816374023 71.6974762186166 29.150031984009686" fill="none" stroke="black" stroke-weight="1"></path><path id="SvgjsPath1211" d="M 109.10667849523293 91.04098725851426 C 109.10667849523293 91.04098725851426 120.63364243774846 175.0300403353114 77.83531499158751 25.387567884915242" fill="none" stroke="black" stroke-weight="1"></path><path id="SvgjsPath1212" d="M 112.68699914018154 89.07686334891282 C 112.68699914018154 89.07686334891282 119.3694090430379 175.19862549836395 84.15352789443801 21.93656996920842" fill="none" stroke="black" stroke-weight="1"></path><path id="SvgjsPath1213" d="M 116.36058285504451 87.22283133832678 C 116.36058285504451 87.22283133832678 118.12431877060666 175.23743554797224 90.63632268537266 18.80566393443351" fill="none" stroke="black" stroke-weight="1"></path><path id="SvgjsPath1214" d="M 120.11824759370009 85.48181061246729 C 120.11824759370009 85.48181061246729 116.89914976134558 175.1436584920301 97.26749575358838 16.002675415133098" fill="none" stroke="black" stroke-weight="1"></path><path id="SvgjsPath1215" d="M 123.95060115125558 83.85646552309935 C 123.95060115125558 83.85646552309935 115.69466770600448 174.9148571765453 104.03047261986279 13.534610422837204" fill="none" stroke="black" stroke-weight="1"></path><path id="SvgjsPath1216" d="M 127.84806463966828 82.34919978305336 C 127.84806463966828 82.34919978305336 114.51162536666033 174.54897704688545 110.9083493641205 11.407637834683186" fill="none" stroke="black" stroke-weight="1"></path><path id="SvgjsPath1217" d="M 131.8008964299769 80.96215149489312 C 131.8008964299769 80.96215149489312 113.35076210626556 174.04435292453368 117.8839348764298 9.627073974435547" fill="none" stroke="black" stroke-weight="1"></path><path id="SvgjsPath1218" d="M 135.79921650130063 79.69718882501776 C 135.79921650130063 79.69718882501776 112.2128034265702 173.3997147813886 124.93979382582464 8.197369324445106" fill="none" stroke="black" stroke-weight="1"></path><path id="SvgjsPath1219" d="M 139.83303113574604 78.55590633337421 C 139.83303113574604 78.55590633337421 111.09846051470689 172.61419249616944 132.05829023955184 7.122097401761124" fill="none" stroke="black" stroke-weight="1"></path><path id="SvgjsPath1220" d="M 143.89225789749707 77.53962196732913 C 143.89225789749707 77.53962196732913 110.00842979872209 171.6873195800483 139.22163158381835 6.403945826199475" fill="none" stroke="black" stroke-weight="1"></path><path id="SvgjsPath1221" d="M 147.96675083365375 76.64937472660232 C 147.96675083365375 76.64937472660232 108.9433925123313 170.6190358612287 146.41191323585952 6.044709602692961" fill="none" stroke="black" stroke-weight="1"></path><path id="SvgjsPath1222" d="M 152.04632583383056 75.88592300449824 C 152.04632583383056 75.88592300449824 107.90401426917003 169.4096891208108 153.6111632361716 6.045286634713733" fill="none" stroke="black" stroke-weight="1"></path><path id="SvgjsPath1223" d="M 156.12078608512874 75.24974360899579 C 156.12078608512874 75.24974360899579 106.89094464680704 168.0600356749268 160.80138720905072 6.405675479982307" fill="none" stroke="black" stroke-weight="1"></path><path id="SvgjsPath1224" d="M 160.17994755885786 74.74103146556989 C 160.17994755885786 74.74103146556989 105.90481678077948 166.5712399007836 167.9646133391609 7.124975354072319" fill="none" stroke="black" stroke-weight="1"></path><path id="SvgjsPath1225" d="M 164.21366446530402 74.35970000192867 C 164.21366446530402 74.35970000192867 104.94624696890375 164.94487270691283 175.082937291713 8.201388381902717" fill="none" stroke="black" stroke-weight="1"></path><path id="SvgjsPath1226" d="M 168.2118546129203 74.10538221315979 C 168.2118546129203 74.10538221315979 104.01583428610951 163.1829089505885 182.13856696397698 9.632224091489007" fill="none" stroke="black" stroke-weight="1"></path><path id="SvgjsPath1227" d="M 172.16452460855479 73.97743240409291 C 172.16452460855479 73.97743240409291 103.1141602100372 161.2877238080279 189.11386695627317 11.413906138721984" fill="none" stroke="black" stroke-weight="1"></path><path id="SvgjsPath1228" d="M 176.0617948357292 73.97492860400791 C 176.0617948357292 73.97492860400791 102.24178825763366 159.26208810563173 195.9914026512868 13.541981246365708" fill="none" stroke="black" stroke-weight="1"></path><path id="SvgjsPath1229" d="M 179.8939241485346 74.09667564715281 C 179.8939241485346 74.09667564715281 101.39926363297221 157.10916262314072 202.75398379153168 16.011130334931153" fill="none" stroke="black" stroke-weight="1"></path><path id="SvgjsPath1230" d="M 183.65133421942346 74.34120891088642 C 183.65133421942346 74.34120891088642 100.5871128865179 154.83249138217894 209.3847074460414 18.815181817604866" fill="none" stroke="black" stroke-weight="1"></path><path id="SvgjsPath1231" d="M 187.32463348003984 74.70679870163366 C 187.32463348003984 74.70679870163366 99.80584358605057 152.43599393621813 215.86700025889382 21.947127026001937" fill="none" stroke="black" stroke-weight="1"></path><path id="SvgjsPath1232" d="M 190.90464059524945 75.1914552772369 C 190.90464059524945 75.1914552772369 99.05594399945164 149.9239566805141 222.18465987396962 25.39913772818697" fill="none" stroke="black" stroke-weight="1"></path><path id="SvgjsPath1233" d="M 194.38240741169594 75.79293449271407 C 194.38240741169594 75.79293449271407 98.33788278955248 147.30102320304593 228.3218954324046 29.16258569517686" fill="none" stroke="black" stroke-weight="1"></path><path id="SvgjsPath1234" d="M 197.7492413235242 76.50874405489114 C 197.7492413235242 76.50874405489114 97.65210872123534 144.5721836999087 234.26336704151325 33.228064267019974" fill="none" stroke="black" stroke-weight="1"></path><path id="SvgjsPath1235" d="M 200.99672699936775 77.33615036987267 C 200.99672699936775 77.33615036987267 96.99905038096998 141.74276348097874 239.9942241165313 37.58541186454701" fill="none" stroke="black" stroke-weight="1"></path><path id="SvgjsPath1236" d="M 204.11674741629494 78.27218596584892 C 204.11674741629494 78.27218596584892 96.37911590896113 138.8184105939685 245.500142499344 42.223737388026905" fill="none" stroke="black" stroke-weight="1"></path><path id="SvgjsPath1237" d="M 207.1015041481386 79.31365747231747 C 207.1015041481386 79.31365747231747 95.79269274407407 135.8050825972207 250.76736026142106 47.1314474392442" fill="none" stroke="black" stroke-weight="1"></path><path id="SvgjsPath1238" d="M 209.94353685750042 80.45715413542432 C 209.94353685750042 80.45715413542432 95.24014738169794 132.70903251374622 255.78271210147133 52.29627529895684" fill="none" stroke="black" stroke-weight="1"></path><path id="SvgjsPath1239" d="M 212.635741942709 81.6990568478067 C 212.635741942709 81.6990568478067 94.7218251446981 129.53679400108666 260.5336622518394 57.7053115873059" fill="none" stroke="black" stroke-weight="1"></path><path id="SvgjsPath1240" d="M 215.17139029312463 83.03554767005284 C 215.17139029312463 83.03554767005284 94.23804996760055 126.29516577356857 265.00833581139636 63.345036530542146" fill="none" stroke="black" stroke-weight="1"></path><path id="SvgjsPath1241" d="M 217.5441441084114 84.46261981968222 C 217.5441441084114 84.46261981968222 93.78912419414341 122.99119531541506 269.19554842660835 69.20135375341944" fill="none" stroke="black" stroke-weight="1"></path><path id="SvgjsPath1242" d="M 219.74807273973738 85.97608810240058 C 219.74807273973738 85.97608810240058 93.37532838832196 119.63216192498221 273.0848342465954 75.25962551279169" fill="none" stroke="black" stroke-weight="1"></path><path id="SvgjsPath1243" d="M 221.77766751330813 87.57159975929657 C 221.77766751330813 87.57159975929657 92.99692115904517 116.22555913208959 276.6664720823085 81.50470928434736" fill="none" stroke="black" stroke-weight="1"></path><path id="SvgjsPath1244" d="M 223.6278554991822 89.24464570262646 C 223.6278554991822 89.24464570262646 92.65413899851364 112.77907653200921 279.93150970443924 87.92099561103433" fill="none" stroke="black" stroke-weight="1"></path><path id="SvgjsPath1245" d="M 225.29401219095425 90.99057211188033 C 225.29401219095425 90.99057211188033 92.34719613441972 109.30058108116597 282.87178621933106 94.49244711857321" fill="none" stroke="black" stroke-weight="1"></path><path id="SvgjsPath1246" d="M 226.77197306461244 92.80459236094252 C 226.77197306461244 92.80459236094252 92.076284396062 105.79809790097849 285.47995246696314 101.20263860054095" fill="none" stroke="black" stroke-weight="1"></path><path id="SvgjsPath1247" d="M 228.05804398767975 94.68179924634987 C 228.05804398767975 94.68179924634987 91.8415730944584 102.27979063752952 287.7494893900231 108.03479807283276" fill="none" stroke="black" stroke-weight="1"></path><path id="SvgjsPath1248" d="M 229.14901045262133 96.6171774859186 C 229.14901045262133 96.6171774859186 91.64320891653223 98.75394142589428 289.67472432815526 114.97184869488784" fill="none" stroke="black" stroke-weight="1"></path><path id="SvgjsPath1249" d="M 230.04214561143914 98.60561645635397 C 230.04214561143914 98.60561645635397 91.48131583343769 95.22893050897486 291.25084519665734 121.99645145289713" fill="none" stroke="black" stroke-weight="1"></path><path id="SvgjsPath1250" d="M 230.73521709137202 100.64192313787908 C 230.73521709137202 100.64192313787908 91.35599502308185 91.71321556158264 292.4739125141859 129.09104849830803" fill="none" stroke="black" stroke-weight="1"></path><path id="SvgjsPath1251" d="M 231.2264925746647 102.72083523342123 C 231.2264925746647 102.72083523342123 91.2673248068918 88.21531077128034 293.34086924940823 136.23790703330172" fill="none" stroke="black" stroke-weight="1"></path><metadata>68 * Math.cos(t/1);36 * Math.cos(t/2)+36 * Math.sin(t/1);49 * Math.sin(t/2);57 * Math.sin(t/2)+57 * Math.sin(t/1)</metadata></svg>