<svg id="SvgjsSvg1129" width="300" height="300" xmlns="http://www.w3.org/2000/svg" version="1.1" xmlns:xlink="http://www.w3.org/1999/xlink" xmlns:svgjs="http://svgjs.com/svgjs"><defs id="SvgjsDefs1130"></defs><path id="SvgjsPath1131" d="M 170.08618531116565 163.72035455024766 C 170.08618531116565 163.72035455024766 131.60330691126887 129.97569876450342 286.9521383465021 194.49844718999242" fill="none" stroke="black" stroke-weight="1"></path><path id="SvgjsPath1132" d="M 173.2500580305146 165.81367352862816 C 173.2500580305146 165.81367352862816 128.70555432719226 126.92058457984001 284.55698841082545 201.2875898225778" fill="none" stroke="black" stroke-weight="1"></path><path id="SvgjsPath1133" d="M 176.39940022041657 167.86746655878903 C 176.39940022041657 167.86746655878903 125.82111007849699 123.92315691419981 281.82551608004667 207.94854019066713" fill="none" stroke="black" stroke-weight="1"></path><path id="SvgjsPath1134" d="M 179.5322436445183 169.87660022774963 C 179.5322436445183 169.87660022774963 122.95177684894585 120.99090777571675 278.7645486124693 214.46464938729613" fill="none" stroke="black" stroke-weight="1"></path><path id="SvgjsPath1135" d="M 182.64663037765828 171.83605274767416 C 182.64663037765828 171.83605274767416 120.09934787840643 118.1311662601512 275.3817368326414 220.81963053299728" fill="none" stroke="black" stroke-weight="1"></path><path id="SvgjsPath1136" d="M 185.7406140295059 173.74092650772596 C 185.7406140295059 173.74092650772596 117.26560584213479 115.35108023196754 271.6855360082782 226.9975994845166" fill="none" stroke="black" stroke-weight="1"></path><path id="SvgjsPath1137" d="M 188.8122609609923 175.58646031554395 C 188.8122609609923 175.58646031554395 114.45232173666128 112.65759845839537 267.68518471649634 232.98311453689922" fill="none" stroke="black" stroke-weight="1"></path><path id="SvgjsPath1138" d="M 191.8596514927717 177.36804129774399 C 191.8596514927717 177.36804129774399 111.66125377297544 110.0574532411304 263.3906817521827 238.76121501971022" fill="none" stroke="black" stroke-weight="1"></path><path id="SvgjsPath1139" d="M 194.88088110495858 179.08121642970005 C 194.88088110495858 179.08121642970005 108.89414627770148 107.5571435890864 258.812761136214 244.31745869091912" fill="none" stroke="black" stroke-weight="1"></path><path id="SvgjsPath1140" d="M 197.87406162739063 180.72170366578663 C 197.87406162739063 180.72170366578663 106.15272860295062 105.16291897425734 253.96286528599535 249.63795783498367" fill="none" stroke="black" stroke-weight="1"></path><path id="SvgjsPath1141" d="M 200.83732241967354 182.2854026422627 C 200.83732241967354 182.2854026422627 103.43871404553265 102.88076371129225 248.85311641537527 254.7094139749061" fill="none" stroke="black" stroke-weight="1"></path><path id="SvgjsPath1142" d="M 203.76881154027043 183.7684049260458 C 203.76881154027043 183.7684049260458 100.75379877620094 100.71638199982505 243.4962862354246 259.51915111149987" fill="none" stroke="black" stroke-weight="1"></path><path id="SvgjsPath1143" d="M 206.666696903905 185.1670037837591 C 206.666696903905 185.1670037837591 98.09966077960104 98.6751836669462 237.90576403180995 264.05514740678626" fill="none" stroke="black" stroke-weight="1"></path><path id="SvgjsPath1144" d="M 209.52916742655526 186.4777034466345 C 209.52916742655526 186.4777034466345 95.47795880558488 96.7622706454523 232.0955231985527 268.3060652323282" fill="none" stroke="black" stroke-weight="1"></path><path id="SvgjsPath1145" d="M 212.35443415732198 187.6972278481141 C 212.35443415732198 187.6972278481141 92.89033133254622 94.98242422167135 226.08008631182105 272.26127950739703" fill="none" stroke="black" stroke-weight="1"></path><path id="SvgjsPath1146" d="M 215.14073139646482 188.82252881231008 C 215.14073139646482 188.82252881231008 90.33839554342477 93.34009308473662 219.8744888310529 275.91090425614084" fill="none" stroke="black" stroke-weight="1"></path><path id="SvgjsPath1147" d="M 217.8863177989072 189.8507936728575 C 217.8863177989072 189.8507936728575 87.82374631501956 91.83938220718096 213.4942415181374 279.24581731737567" fill="none" stroke="black" stroke-weight="1"></path><path id="SvgjsPath1148" d="M 220.5894774625203 190.77945230311488 C 220.5894774625203 190.77945230311488 85.34795522124313 90.48404258464316 206.95529166858833 282.2576831452375" fill="none" stroke="black" stroke-weight="1"></path><path id="SvgjsPath1149" d="M 223.24852100050603 191.60618354014272 C 223.24852100050603 191.60618354014272 82.91256955093841 89.27746186033225 200.27398325161022 284.9389736437061" fill="none" stroke="black" stroke-weight="1"></path><path id="SvgjsPath1150" d="M 225.86178659720866 192.3289209864017 C 225.86178659720866 192.3289209864017 80.51911134087429 88.222655857684 193.46701605868753 287.2829869829244" fill="none" stroke="black" stroke-weight="1"></path><path id="SvgjsPath1151" d="M 228.42764104669584 192.94585817467058 C 228.42764104669584 192.94585817467058 78.16907642452156 87.32226104237267 186.55140396280242 289.283864350283" fill="none" stroke="black" stroke-weight="1"></path><path id="SvgjsPath1152" d="M 230.9444807734588 193.45545308327337 C 230.9444807734588 193.45545308327337 75.86393349720596 86.57852793251993 179.54443239261354 290.93660459440014" fill="none" stroke="black" stroke-weight="1"></path><path id="SvgjsPath1153" d="M 233.41073283459485 193.85643199033046 C 233.41073283459485 193.85643199033046 73.6051231982215 85.99331547357177 172.46361512788604 292.23707672539604" fill="none" stroke="black" stroke-weight="1"></path><path id="SvgjsPath1154" d="M 235.8248559028459 194.14779265739998 C 235.8248559028459 194.14779265739998 71.3940572104776 85.56808639190275 165.32665052416345 293.18203024021614" fill="none" stroke="black" stroke-weight="1"></path><path id="SvgjsPath1155" d="M 238.1853412298773 194.32880683455193 C 238.1853412298773 194.32880683455193 69.23211737824323 85.30390353876204 158.15137727609576 293.76910324719546" fill="none" stroke="black" stroke-weight="1"></path><path id="SvgjsPath1156" d="M 240.49071358919684 194.39902208061383 C 240.49071358919684 194.39902208061383 67.12065484353938 85.20142723369872 150.95572982999303 293.99682836955844" fill="none" stroke="black" stroke-weight="1"></path><path id="SvgjsPath1157" d="M 242.73953219812296 194.35826289403792 C 242.73953219812296 194.35826289403792 65.06098920171917 85.26091361410681 143.75769355704978 293.864636413096" fill="none" stroke="black" stroke-weight="1"></path><path id="SvgjsPath1158" d="M 244.93039161822736 194.20663115156364 C 244.93039161822736 194.20663115156364 63.05440767676373 85.4822139950152 136.57525979928357 293.3728577888551" fill="none" stroke="black" stroke-weight="1"></path><path id="SvgjsPath1159" d="M 247.06192263368803 193.94450585357893 C 247.06192263368803 193.94450585357893 61.10216431680912 85.86477524072265 129.42638090054962 292.522721687283" fill="none" stroke="black" stroke-weight="1"></path><path id="SvgjsPath1160" d="M 249.1327931070046 193.57254217681648 C 249.1327931070046 193.57254217681648 59.205479210407006 86.40764114734893 122.32892533503058 291.3163530058913" fill="none" stroke="black" stroke-weight="1"></path><path id="SvgjsPath1161" d="M 251.14170881154098 193.0916698367533 C 251.14170881154098 193.0916698367533 57.3655377240092 87.10945483284652 115.30063304535685 289.7567670381188" fill="none" stroke="black" stroke-weight="1"></path><path id="SvgjsPath1162" d="M 253.08741424037493 192.50309076380609 C 253.08741424037493 192.50309076380609 55.58348976115195 87.96846212849925 108.35907110198877 287.8478619366683" fill="none" stroke="black" stroke-weight="1"></path><path id="SvgjsPath1163" d="M 254.96869339094883 191.8082760991311 C 254.96869339094883 191.8082760991311 53.86044904380391 88.9825159634303 101.52158979468916 285.59440897015486" fill="none" stroke="black" stroke-weight="1"></path><path id="SvgjsPath1164" d="M 256.7843705250318 191.00896251753755 C 256.7843705250318 191.00896251753755 52.19749241632603 90.14908173116139 94.80527926583486 283.00204059741907" fill="none" stroke="black" stroke-weight="1"></path><path id="SvgjsPath1165" d="M 258.533310903518 190.107147886705 C 258.533310903518 190.107147886705 50.59565917247885 91.46524362480892 88.22692679396104 280.0772363893135" fill="none" stroke="black" stroke-weight="1"></path><path id="SvgjsPath1166" d="M 260.21442149560124 189.10508627355455 C 260.21442149560124 189.10508627355455 49.05595040589792 92.92771192508256 81.80297483430776 276.8273068331498" fill="none" stroke="black" stroke-weight="1"></path><path id="SvgjsPath1167" d="M 261.82665166188406 188.00528231025544 C 261.82665166188406 188.00528231025544 47.57932838444266 94.53283122287046 75.54947992124458 273.26037506028786" fill="none" stroke="black" stroke-weight="1"></path><path id="SvgjsPath1168" d="M 263.36899381099283 186.81048493394906 C 263.36899381099283 186.81048493394906 46.16671594881031 96.27658955585812 69.4820725352969 269.3853565425375" fill="none" stroke="black" stroke-weight="1"></path><path id="SvgjsPath1169" d="M 264.84048402928977 185.5236805158378 C 264.84048402928977 185.5236805158378 44.81899593579068 98.15462843634481 63.61591803508499 265.21193680812263" fill="none" stroke="black" stroke-weight="1"></path><path id="SvgjsPath1170" d="M 266.2402026832875 184.14808539681215 C 266.2402026832875 184.14808539681215 43.53701062652169 100.16225374519308 57.965678751825195 260.75054723290424" fill="none" stroke="black" stroke-weight="1"></path><path id="SvgjsPath1171" d="M 267.5672749943902 182.68713784827355 C 267.5672749943902 182.68713784827355 42.32156122009124 102.29444746468187 52.545477341137854 256.01233896737364" fill="none" stroke="black" stroke-weight="1"></path><path id="SvgjsPath1172" d="M 268.82087158560137 181.14448947824656 C 268.82087158560137 181.14448947824656 41.17340733281374 104.54588022093745 47.368861483763425 251.00915506458344" fill="none" stroke="black" stroke-weight="1"></path><path id="SvgjsPath1173" d="M 270.0002089998578 179.52399610426053 C 270.0002089998578 179.52399610426053 40.093266523494705 106.91092460459274 42.448770023415875 245.75350087868281" fill="none" stroke="black" stroke-weight="1"></path><path id="SvgjsPath1174" d="M 271.1045501896648 177.8297081158138 C 271.1045501896648 177.8297081158138 39.08181384497989 109.38366923637986 37.79750062641199 240.25851280804477" fill="none" stroke="black" stroke-weight="1"></path><path id="SvgjsPath1175" d="M 272.13320497772656 176.06586035050935 C 272.13320497772656 176.06586035050935 38.13968142226912 111.95793354249987 33.426679043909985 234.5379254611114" fill="none" stroke="black" stroke-weight="1"></path><path id="SvgjsPath1176" d="M 273.0855304882847 174.23686150916626 C 273.0855304882847 174.23686150916626 37.26745805745891 114.62728320283841 29.347230053586273 228.60603732702572" fill="none" stroke="black" stroke-weight="1"></path><path id="SvgjsPath1177" d="M 273.96093154889456 172.34728313636376 C 273.96093154889456 172.34728313636376 36.46568886176013 117.38504623341507 25.569350153380654 222.47767503685537" fill="none" stroke="black" stroke-weight="1"></path><path id="SvgjsPath1178" d="M 274.7588610623889 170.40184819396038 C 274.7588610623889 170.40184819396038 35.734874914821376 120.22432966286861 22.10248207556188 216.16815630473639" fill="none" stroke="black" stroke-weight="1"></path><path id="SvgjsPath1179" d="M 275.4788203487955 168.4054192561493 C 275.4788203487955 168.4054192561493 35.075472951570475 123.13803676129565 18.955291184814456 209.6932516415652" fill="none" stroke="black" stroke-weight="1"></path><path id="SvgjsPath1180" d="M 276.120359456996 166.36298635555485 C 276.120359456996 166.36298635555485 34.48789507677 126.11888477837941 16.13564381933992 203.0691449369346" fill="none" stroke="black" stroke-weight="1"></path><path id="SvgjsPath1181" d="M 276.68307744593085 164.27965451075008 C 276.68307744593085 164.27965451075008 33.97250850746522 129.15942314647285 13.650587629108031 196.3123930078381" fill="none" stroke="black" stroke-weight="1"></path><path id="SvgjsPath1182" d="M 277.1666226351741 162.16063096636876 C 277.1666226351741 162.16063096636876 33.52963534348537 132.2520521031375 11.506333960402117 189.43988421525" fill="none" stroke="black" stroke-weight="1"></path><path id="SvgjsPath1183" d="M 277.5706928247227 160.0112121777057 C 277.5706928247227 160.0112121777057 33.15955236614184 135.3890416865917 9.708242330688194 182.46879625201842" fill="none" stroke="black" stroke-weight="1"></path><path id="SvgjsPath1184" d="M 277.89503548386114 157.83677057233686 C 277.89503548386114 157.83677057233686 32.8624908652487 138.56255105658943 8.260807032612519 175.416553207579" fill="none" stroke="black" stroke-weight="1"></path><path id="SvgjsPath1185" d="M 278.13944790898523 155.64274112184842 C 278.13944790898523 155.64274112184842 32.63863649457426 141.76464809243743 7.167645900610609 168.30078201680567" fill="none" stroke="black" stroke-weight="1"></path><path id="SvgjsPath1186" d="M 278.3037773502854 153.43460775723813 C 278.3037773502854 153.43460775723813 32.4881291558134 144.98732921916599 6.431491268205093 161.13926840185337" fill="none" stroke="black" stroke-weight="1"></path><path id="SvgjsPath1187" d="M 278.38792110720976 151.21788966194387 C 278.38792110720976 151.21788966194387 32.411062911153664 148.22253941229815 6.054183138595107 153.94991241711526" fill="none" stroke="black" stroke-weight="1"></path><path id="SvgjsPath1188" d="M 278.3918265926494 148.99812747675944 C 278.3918265926494 148.99812747675944 32.40748592448931 151.46219233121593 6.036664585606388 146.75068370840899" fill="none" stroke="black" stroke-weight="1"></path><path id="SvgjsPath1189" d="M 278.31549136580304 146.78086945111798 C 278.31549136580304 146.78086945111798 32.477400431320575 154.6981905308008 6.378979396497897 139.55957659822047" fill="none" stroke="black" stroke-weight="1"></path><path id="SvgjsPath1190" d="M 278.15896313370257 144.57165757535796 C 278.15896313370257 144.57165757535796 32.6207627373565 157.92244570082894 7.080271962516548 132.39456510926902" fill="none" stroke="black" stroke-weight="1"></path><path id="SvgjsPath1191" d="M 277.92233972139786 142.37601372863344 C 277.92233972139786 142.37601372863344 32.8374832458225 161.126898882535 8.13878941747339 125.27355803881113" fill="none" stroke="black" stroke-weight="1"></path><path id="SvgjsPath1192" d="M 277.60576901081924 140.19942587709204 C 277.60576901081924 140.19942587709204 33.127426513455276 164.3035406118116 9.55188601899627 118.21435419597418" fill="none" stroke="black" stroke-weight="1"></path><path id="SvgjsPath1193" d="M 277.2094488483559 138.04733435681757 C 277.2094488483559 138.04733435681757 33.49041133515064 167.44443093869864 11.316029761507878 111.23459791400296" fill="none" stroke="black" stroke-weight="1"></path><path id="SvgjsPath1194" d="M 276.7336269212087 135.92511827582314 C 276.7336269212087 135.92511827582314 33.926210857210734 170.54171927312296 13.426811204400167 104.3517349486156" fill="none" stroke="black" stroke-weight="1"></path><path id="SvgjsPath1195" d="M 276.1786006025933 133.83808206908245 C 276.1786006025933 133.83808206908245 34.43455271912012 173.58766400728507 15.878954493339705 97.58296887269981" fill="none" stroke="black" stroke-weight="1"></path><path id="SvgjsPath1196" d="M 275.54471676589213 131.7914422402049 C 275.54471676589213 131.7914422402049 35.015119223762355 176.5746518656469 18.66633054715564 90.9452180763402" fill="none" stroke="black" stroke-weight="1"></path><path id="SvgjsPath1197" d="M 274.83237156786913 129.79031432289327 C 274.83237156786913 129.79031432289327 35.6675475359703 179.49521693415576 21.781972377350854 84.45507347965382" fill="none" stroke="black" stroke-weight="1"></path><path id="SvgjsPath1198" d="M 274.0420102010854 127.83970009477356 C 274.0420102010854 127.83970009477356 36.39142990928627 182.34205932114128 25.21809250194474 78.12875706413045" fill="none" stroke="black" stroke-weight="1"></path><path id="SvgjsPath1199" d="M 273.17412661566766 125.94447507555583 C 273.17412661566766 125.94447507555583 37.186313940790356 185.10806340324285 28.96610241012256 71.98208132612702" fill="none" stroke="black" stroke-weight="1"></path><path id="SvgjsPath1200" d="M 272.22926321060606 124.109376340774 C 272.22926321060606 124.109376340774 38.051702853837426 187.78631561076224 33.01663402903972 66.03040975386163" fill="none" stroke="black" stroke-weight="1"></path><path id="SvgjsPath1201" d="M 271.2080104947721 122.3389906815641 C 271.2080104947721 122.3389906815641 38.98705580852648 190.37012170798752 37.35956313912503 60.288618426694384" fill="none" stroke="black" stroke-weight="1"></path><path id="SvgjsPath1202" d="M 270.11100671787 120.63774314007512 C 270.11100671787 120.63774314007512 39.99178823970786 192.85302352529578 41.98403467935701 54.77105883267605" fill="none" stroke="black" stroke-weight="1"></path><path id="SvgjsPath1203" d="M 268.93893747155124 119.00988594916817 C 268.93893747155124 119.00988594916817 41.06527222231756 195.22881510121402 46.87848987926331 49.491521997302144" fill="none" stroke="black" stroke-weight="1"></path><path id="SvgjsPath1204" d="M 267.6925352609423 117.4594879040489 C 267.6925352609423 117.4594879040489 42.20683686380987 197.4915581940908 52.03069514982714 44.463204013131545" fill="none" stroke="black" stroke-weight="1"></path><path id="SvgjsPath1205" d="M 266.37257904685265 115.9904241923984 C 266.37257904685265 115.9904241923984 43.415768723443335 199.63559712460773 57.42777266108877 39.698673056427225" fill="none" stroke="black" stroke-weight="1"></path><path id="SvgjsPath1206" d="M 264.97989375894974 114.60636670842221 C 264.97989375894974 114.60636670842221 44.69131225815818 201.65557291203243 63.05623253001362 35.20983797326123" fill="none" stroke="black" stroke-weight="1"></path><path id="SvgjsPath1207" d="M 263.5153497802046 113.31077487502708 C 263.5153497802046 113.31077487502708 46.03267029476589 203.54643666887938 68.90200653817466 31.007918513601368" fill="none" stroke="black" stroke-weight="1"></path><path id="SvgjsPath1208" d="M 261.97986240293096 112.10688699706532 C 261.97986240293096 112.10688699706532 47.439004528156715 205.30346222049926 74.95048329497172 27.103417287779394" fill="none" stroke="black" stroke-weight="1"></path><path id="SvgjsPath1209" d="M 260.37439125675735 110.99771216725912 C 260.37439125675735 110.99771216725912 48.90943604521293 206.92225791805424 81.18654475849858 23.506093515434983" fill="none" stroke="black" stroke-weight="1"></path><path id="SvgjsPath1210" d="M 258.69993970888976 109.98602274503591 C 258.69993970888976 109.98602274503591 50.44304587410096 208.39877761535297 87.59460402277453 20.22493863254894" fill="none" stroke="black" stroke-weight="1"></path><path id="SvgjsPath1211" d="M 256.95755423704 109.07434742707363 C 256.95755423704 109.07434742707363 52.03887555859892 209.72933078210878 94.15864427689156 17.268153817536074" fill="none" stroke="black" stroke-weight="1"></path><path id="SvgjsPath1212" d="M 255.14832377541066 108.26496492687579 C 255.14832377541066 108.26496492687579 53.695927757100506 210.91059172834343 100.86225883870048 14.643129492570154" fill="none" stroke="black" stroke-weight="1"></path><path id="SvgjsPath1213" d="M 253.27337903414744 107.55989827917469 C 253.27337903414744 107.55989827917469 55.41316686592104 211.9396079168802 107.68869216297176 12.356426851377364" fill="none" stroke="black" stroke-weight="1"></path><path id="SvgjsPath1214" d="M 251.33389179268147 106.96090978339792 C 251.33389179268147 106.96090978339792 57.18951966651605 212.81380734314897 114.62088172153244 10.413761459668962" fill="none" stroke="black" stroke-weight="1"></path><path id="SvgjsPath1215" d="M 249.33107416740563 106.46949659883778 C 249.33107416740563 106.46949659883778 59.023875996207906 213.53100496385838 121.64150065070068 8.81998896920362" fill="none" stroke="black" stroke-weight="1"></path><path id="SvgjsPath1216" d="M 247.26617785414123 106.08688700253262 C 247.26617785414123 106.08688700253262 60.9150894420015 214.08940815846591 128.7330010594212 7.579092981186847" fill="none" stroke="black" stroke-weight="1"></path><path id="SvgjsPath1217" d="M 245.14049334586875 105.81403731921395 C 245.14049334586875 105.81403731921395 62.8619780570548 214.48762120979583 135.87765788985422 6.694175089342565" fill="none" stroke="black" stroke-weight="1"></path><path id="SvgjsPath1218" d="M 242.95534912621184 105.65162953099275 C 242.95534912621184 105.65162953099275 64.86332509935737 214.7246487926052 143.05761322078905 6.167447127544051" fill="none" stroke="black" stroke-weight="1"></path><path id="SvgjsPath1219" d="M 240.71211083917828 105.6000695727592 C 240.71211083917828 105.6000695727592 66.91787979215448 214.79989846137846 150.25492090314674 6.000225641381149" fill="none" stroke="black" stroke-weight="1"></path><path id="SvgjsPath1220" d="M 238.41218043567693 105.65948631755697 C 238.41218043567693 105.65948631755697 69.0243581056417 214.71318213113307 157.45159141600678 6.192928597482052" fill="none" stroke="black" stroke-weight="1"></path><path id="SvgjsPath1221" d="M 236.05699529734397 105.82973125446773 C 236.05699529734397 105.82973125446773 71.18144355944197 214.4647165475336 164.6296368310406 6.74507433881422" fill="none" stroke="black" stroke-weight="1"></path><path id="SvgjsPath1222" d="M 233.6480273382263 106.11037885981102 C 233.6480273382263 106.11037885981102 73.38778804536284 214.05512274514066 171.7711157729644 7.655282788576301" fill="none" stroke="black" stroke-weight="1"></path><path id="SvgjsPath1223" d="M 231.18678208488308 106.50072766073197 C 231.18678208488308 106.50072766073197 75.64201266992023 213.48542449514792 178.85817826363373 8.921278899671279" fill="none" stroke="black" stroke-weight="1"></path><path id="SvgjsPath1224" d="M 228.67479773548058 106.99980198851799 C 228.67479773548058 106.99980198851799 77.94270861610187 212.75704574648728 185.87311033769265 10.539898341139434" fill="none" stroke="black" stroke-weight="1"></path><path id="SvgjsPath1225" d="M 226.1136441984687 107.60635441726248 C 226.1136441984687 107.60635441726248 80.28843802383237 211.871807066698 192.79837831826208 12.507095407337772" fill="none" stroke="black" stroke-weight="1"></path><path id="SvgjsPath1226" d="M 223.50492211143882 108.31886888177999 C 223.50492211143882 108.31886888177999 82.67773488858873 210.83192109145622 199.6166726420004 14.817953130097294" fill="none" stroke="black" stroke-weight="1"></path><path id="SvgjsPath1227" d="M 220.85026184077782 109.13556446697962 C 220.85026184077782 109.13556446697962 85.10910597760542 209.63998699413784 206.3109511239973 17.466695568582537" fill="none" stroke="black" stroke-weight="1"></path><path id="SvgjsPath1228" d="M 218.15132246274186 110.05439985922513 C 218.15132246274186 110.05439985922513 87.58103176309623 208.298983989239 212.86448155436065 20.4467022461356" fill="none" stroke="black" stroke-weight="1"></path><path id="SvgjsPath1229" d="M 215.40979072658803 111.07307844855622 C 215.40979072658803 111.07307844855622 90.09196737190999 206.81226388589096 219.26088352002722 23.750524698020143" fill="none" stroke="black" stroke-weight="1"></path><path id="SvgjsPath1230" d="M 212.62738000041068 112.18905406901703 C 212.62738000041068 112.18905406901703 92.64034355102572 205.18354271008323 225.48416934726455 27.369905088703916" fill="none" stroke="black" stroke-weight="1"></path><path id="SvgjsPath1231" d="M 209.8058292003423 113.39953736274535 C 209.8058292003423 113.39953736274535 95.22456764828468 203.4168914165338 231.51878406252922 31.295796852147106" fill="none" stroke="black" stroke-weight="1"></path><path id="SvgjsPath1232" d="M 206.9469017037875 114.70150275191433 C 206.9469017037875 114.70150275191433 97.84302460774603 201.51672571342232 237.34964427179955 35.518387303505946" fill="none" stroke="black" stroke-weight="1"></path><path id="SvgjsPath1233" d="M 204.05238424736947 116.09169600110152 C 204.05238424736947 116.09169600110152 100.49407797904475 199.48779502541944 242.96217586120576 40.02712216573468" fill="none" stroke="black" stroke-weight="1"></path><path id="SvgjsPath1234" d="M 201.1240858102779 117.56664235118262 C 201.1240858102779 117.56664235118262 103.1760709401193 197.33517062259835 248.34235042472426 44.81073194978144" fill="none" stroke="black" stroke-weight="1"></path><path id="SvgjsPath1235" d="M 198.16383648371573 119.1226552044196 C 198.16383648371573 119.1226552044196 105.88732733267162 195.06423294490108 253.476720327887 49.85726012244196" fill="none" stroke="black" stroke-weight="1"></path><path id="SvgjsPath1236" d="M 195.1734863271518 120.75584533903523 C 195.1734863271518 120.75584533903523 108.62615270971142 192.68065815384048 258.3524523198642 55.15409299146562" fill="none" stroke="black" stroke-weight="1"></path><path id="SvgjsPath1237" d="M 192.1549042120939 122.46213063024194 C 192.1549042120939 122.46213063024194 111.39083539453077 190.19040394505234 262.95735960990805 60.68799123321712" fill="none" stroke="black" stroke-weight="1"></path><path id="SvgjsPath1238" d="M 189.10997665410477 124.23724625342791 C 189.10997665410477 124.23724625342791 114.1796475504461 187.59969465715926 267.2799323279829 66.44512298409056" fill="none" stroke="black" stroke-weight="1"></path><path id="SvgjsPath1239" d="M 186.04060663379153 126.07675534399753 C 186.04060663379153 126.07675534399753 116.99084626063959 184.91500571416572 271.30936629344575 72.41109841296499" fill="none" stroke="black" stroke-weight="1"></path><path id="SvgjsPath1240" d="M 182.94871240750456 127.9760600872222 C 182.94871240750456 127.9760600872222 119.82267461742573 182.14304744027032 275.03559001987173 78.57100568828818" fill="none" stroke="black" stroke-weight="1"></path><path id="SvgjsPath1241" d="M 179.83622630848976 129.9304132103826 C 179.83622630848976 129.9304132103826 122.67336282026164 179.29074828754977 278.44928988852445 84.90944824988955" fill="none" stroke="black" stroke-weight="1"></path><path id="SvgjsPath1242" d="M 176.70509353924328 131.93492984847833 C 176.70509353924328 131.93492984847833 125.54112928181456 176.36523751843706 281.5419334275529 91.41058329236213" fill="none" stroke="black" stroke-weight="1"></path><path id="SvgjsPath1243" d="M 173.55727095582307 133.98459975384617 C 173.55727095582307 133.98459975384617 128.42418174139573 173.3738273862785 284.3057906387271 98.05816136382543" fill="none" stroke="black" stroke-weight="1"></path><path id="SvgjsPath1244" d="M 170.39472584487777 136.0742998191702 C 170.39472584487777 136.0742998191702 131.32071838506522 170.32399485850837 286.7339533184081 104.83556698109254" fill="none" stroke="black" stroke-weight="1"></path><path id="SvgjsPath1245" d="M 167.21943469415638 138.19880688258183 C 167.21943469415638 138.19880688258183 134.22892897170718 167.22336292812386 288.82035232445946 111.7258601597249" fill="none" stroke="black" stroke-weight="1"></path><path id="SvgjsPath1246" d="M 164.03338195726795 140.35281078284447 C 164.03338195726795 140.35281078284447 137.1469959643714 164.07968156017296 290.5597727459416 118.71181875517122" fill="none" stroke="black" stroke-weight="1"></path><path id="SvgjsPath1247" d="M 160.83855881346253 142.53092763199095 C 160.83855881346253 142.53092763199095 140.07309566617454 160.90080832087804 291.94786693767344 125.77598150915982" fill="none" stroke="black" stroke-weight="1"></path><path id="SvgjsPath1248" d="M 157.63696192320901 144.72771327223975 C 157.63696192320901 144.72771327223975 143.00539936005157 157.69468873781224 292.9811653870811 132.90069169375056" fill="none" stroke="black" stroke-weight="1"></path><path id="SvgjsPath1249" d="M 154.43059218034733 146.93767688355413 C 154.43059218034733 146.93767688355413 145.94207445164443 154.46933644021837 293.6570853861725 140.06814124395933" fill="none" stroke="black" stroke-weight="1"></path><path id="SvgjsPath1250" d="M 151.22145346159493 149.15529470783255 C 151.22145346159493 149.15529470783255 148.881285614614 151.23281312910925 293.9739374869623 147.2604152686461" fill="none" stroke="black" stroke-weight="1"></path><path id="SvgjsPath1251" d="M 148.01155137418908 151.3750238554274 C 148.01155137418908 151.3750238554274 151.82119593765867 147.99320842721403 293.93092972421186 154.45953682841318" fill="none" stroke="black" stroke-weight="1"></path><metadata>107 * Math.sin(t/2);37 * Math.sin(t/1);49 * Math.cos(t/2)+49 * Math.cos(t/2);54 * Math.sin(t/1)</metadata></svg>