<svg id="SvgjsSvg1867" width="300" height="300" xmlns="http://www.w3.org/2000/svg" version="1.1" xmlns:xlink="http://www.w3.org/1999/xlink" xmlns:svgjs="http://svgjs.com/svgjs"><defs id="SvgjsDefs1868"></defs><path id="SvgjsPath1869" d="M 172.83111578291135 123.9023347982142 C 172.83111578291135 123.9023347982142 130.82856928968835 227.58765330260644 65.3589236698839 266.4984471899924" fill="none" stroke="black" stroke-weight="1"></path><path id="SvgjsPath1870" d="M 165.59808598994854 122.13968060368617 C 165.59808598994854 122.13968060368617 131.25913136193478 232.8279765836357 59.642207363306525 262.1225637854589" fill="none" stroke="black" stroke-weight="1"></path><path id="SvgjsPath1871" d="M 158.32606910533696 120.44666269827508 C 158.32606910533696 120.44666269827508 131.78022151624174 237.86127305918217 54.15133848089212 257.4664323637641" fill="none" stroke="black" stroke-weight="1"></path><path id="SvgjsPath1872" d="M 151.03324138409505 118.82751274503775 C 151.03324138409505 118.82751274503775 132.3882410983077 242.6749621093473 48.900041335257555 252.54169082859602" fill="none" stroke="black" stroke-weight="1"></path><path id="SvgjsPath1873" d="M 143.73783109749456 117.28627777562029 C 143.73783109749456 117.28627777562029 133.07934830846202 247.25701201842617 43.90144143444418 247.36064846903662" fill="none" stroke="black" stroke-weight="1"></path><path id="SvgjsPath1874" d="M 136.45807297187588 115.82681007478661 C 136.45807297187588 115.82681007478661 133.84946925537997 251.5959700479317 39.16803267498358 241.9362551927502" fill="none" stroke="black" stroke-weight="1"></path><path id="SvgjsPath1875" d="M 129.21216261132827 114.45275755171268 C 129.21216261132827 114.45275755171268 134.69430960516507 255.6809910624758 34.71164611366274 236.28206915795806" fill="none" stroke="black" stroke-weight="1"></path><path id="SvgjsPath1876" d="M 122.0182110181558 113.16755462211346 C 122.0182110181558 113.16755462211346 135.6093667957655 259.5018646369599 30.543420396043643 230.41222288510397" fill="none" stroke="black" stroke-weight="1"></path><path id="SvgjsPath1877" d="M 114.89419932480402 111.97441362399223 C 114.89419932480402 111.97441362399223 136.5899427852699 263.0490405773204 26.67377391565047 224.34138793291328" fill="none" stroke="black" stroke-weight="1"></path><path id="SvgjsPath1878" d="M 107.85793385039261 110.87631678846844 C 107.85793385039261 110.87631678846844 137.6311573012839 266.3136527910398 23.112378773411166 218.08473822713665" fill="none" stroke="black" stroke-weight="1"></path><path id="SvgjsPath1879" d="M 100.9270015941915 109.87600878575316 C 100.9270015941915 109.87600878575316 138.72796155733025 269.2875414477609 19.86813660244269 211.6579121336385" fill="none" stroke="black" stroke-weight="1"></path><path id="SvgjsPath1880" d="M 94.11872627728138 108.97598986490283 C 94.11872627728138 108.97598986490283 139.87515240103846 271.9632733746132 16.94915631860374 205.0769733706261" fill="none" stroke="black" stroke-weight="1"></path><path id="SvgjsPath1881" d="M 87.45012504227324 108.17850960449874 C 87.45012504227324 108.17850960449874 141.06738685780658 274.334160635274 14.362733852428363 198.35837085772033" fill="none" stroke="black" stroke-weight="1"></path><path id="SvgjsPath1882" d="M 80.93786591931429 107.48556128987227 C 80.93786591931429 107.48556128987227 142.2991970326214 276.3942772463257 12.11533391309925 191.51889760222303" fill="none" stroke="black" stroke-weight="1"></path><path id="SvgjsPath1883" d="M 74.59822616469287 106.89887693092945 C 74.59822616469287 106.89887693092945 143.5650053318234 278.13847398912867 10.212573830041435 184.57564872534397" fill="none" stroke="black" stroke-weight="1"></path><path id="SvgjsPath1884" d="M 68.44705157617508 106.41992293302832 C 68.44705157617508 106.41992293302832 144.85913996579848 279.56239128018603 8.659209512524285 177.54597873330138" fill="none" stroke="black" stroke-weight="1"></path><path id="SvgjsPath1885" d="M 62.49971688676226 106.04989643172922 C 62.49971688676226 106.04989643172922 146.1758506928715 280.66247006783203 7.459123562365079 170.4474581400939" fill="none" stroke="black" stroke-weight="1"></path><path id="SvgjsPath1886" d="M 56.771087335866085 105.78972230057934 C 56.771087335866085 105.78972230057934 147.50932476407098 281.43596072800733 6.615315569446551 163.29782955036657" fill="none" stroke="black" stroke-weight="1"></path><path id="SvgjsPath1887" d="M 51.27548151395105 105.64005083941049 C 51.27548151395105 105.64005083941049 148.8537030279283 281.8809299368877 6.129894614304277 156.11496331213903" fill="none" stroke="black" stroke-weight="1"></path><path id="SvgjsPath1888" d="M 46.026635573515875 105.60125614892817 C 46.026635573515875 105.60125614892817 150.2030961540732 281.9962655031865 6.0040739965238 148.91681285024254" fill="none" stroke="black" stroke-weight="1"></path><path id="SvgjsPath1889" d="M 41.03766889586544 105.6734351956547 C 41.03766889586544 105.6734351956547 151.55160093408827 281.78167914805357 6.238168202123376 141.72136979210745" fill="none" stroke="black" stroke-weight="1"></path><path id="SvgjsPath1890" d="M 36.321051299490264 105.85640756956343 C 36.321051299490264 105.85640756956343 152.8933166178913 281.2377072256222 6.831592117503021 134.5466189980648" fill="none" stroke="black" stroke-weight="1"></path><path id="SvgjsPath1891" d="M 31.888571872014325 106.14971593500971 C 31.888571872014325 106.14971593500971 154.22236124382363 280.36570938240357 7.782862491923396 127.41049360856172" fill="none" stroke="black" stroke-weight="1"></path><path id="SvgjsPath1892" d="M 27.75130950361573 106.55262717383201 C 27.75130950361573 106.55262717383201 155.53288792064114 279.1678651588778 9.08960164486055 120.33083022064979" fill="none" stroke="black" stroke-weight="1"></path><path id="SvgjsPath1893" d="M 23.919605195570824 107.06413421776534 C 23.919605195570824 107.06413421776534 156.81910101972232 277.6471685417787 10.748543408968686 113.32532430578131" fill="none" stroke="black" stroke-weight="1"></path><path id="SvgjsPath1894" d="M 20.40303621313663 107.68295856558763 C 20.40303621313663 107.68295856558763 158.0752722360361 275.80742048068544 12.755541293797705 106.41148598034644" fill="none" stroke="black" stroke-weight="1"></path><path id="SvgjsPath1895" d="M 17.210392147375615 108.4075534787068 C 17.210392147375615 108.4075534787068 159.29575647674076 273.65321938762844 15.105578849859882 99.60659623950144" fill="none" stroke="black" stroke-weight="1"></path><path id="SvgjsPath1896" d="M 14.349652945755253 109.23610784720178 C 14.349652945755253 109.23610784720178 160.47500753671872 271.18994964345416 17.792782207140903 92.92766376368039" fill="none" stroke="black" stroke-weight="1"></path><path id="SvgjsPath1897" d="M 11.827968966435463 110.16655071665411 C 11.827968966435463 110.16655071665411 161.60759352088883 268.42376813967695 20.810434756716035 86.391382405752" fill="none" stroke="black" stroke-weight="1"></path><path id="SvgjsPath1898" d="M 9.65164310609677 111.19655646445545 C 9.65164310609677 111.19655646445545 162.68821197377258 265.3615888894567 24.150993938774462 80.01408946508151" fill="none" stroke="black" stroke-weight="1"></path><path id="SvgjsPath1899" d="M 7.826115045981567 112.32355061265292 C 7.826115045981567 112.32355061265292 163.71170467752867 262.011065746167 27.806110095090574 73.8117248527907" fill="none" stroke="black" stroke-weight="1"></path><path id="SvgjsPath1900" d="M 6.355947655523465 113.54471626280322 C 6.355947655523465 113.54471626280322 164.6730720805029 258.3805732727472 31.766647338821258 67.79979125028129" fill="none" stroke="black" stroke-weight="1"></path><path id="SvgjsPath1901" d="M 5.244815587550278 114.85700113675173 C 5.244815587550278 114.85700113675173 165.56748731926962 254.479185809657 36.022706389465114 61.993315360605024" fill="none" stroke="black" stroke-weight="1"></path><path id="SvgjsPath1902" d="M 4.495496093565436 116.25712520573839 C 4.495496093565436 116.25712520573839 166.3903097981636 250.31665479375079 40.56364931590831 56.40681034953184" fill="none" stroke="black" stroke-weight="1"></path><path id="SvgjsPath1903" d="M 4.109862082065945 117.74158888876121 C 4.109862082065945 117.74158888876121 167.13709829141376 245.90338438476397 45.37812612571206 51.0542395701939" fill="none" stroke="black" stroke-weight="1"></path><path id="SvgjsPath1904" d="M 4.088877437246168 119.30668179970638 C 4.088877437246168 119.30668179970638 167.80362353419085 241.2504054603324 50.45410313418283 45.94898166197463" fill="none" stroke="black" stroke-weight="1"></path><path id="SvgjsPath1905" d="M 4.432594609789675 120.94849202138116 C 4.432594609789675 120.94849202138116 168.38588027016655 236.3693480445425 55.77889304231728 41.10379711087759" fill="none" stroke="black" stroke-weight="1"></path><path id="SvgjsPath1906" d="M 5.140154485769443 122.66291588326963 C 5.140154485769443 122.66291588326963 168.88009872454893 231.27241223892813 61.33918664844205 36.53079635495716" fill="none" stroke="black" stroke-weight="1"></path><path id="SvgjsPath1907" d="M 6.2097885339856305 124.44566821857171 C 6.2097885339856305 124.44566821857171 169.2827554730031 225.9723377285706 67.12108611428664 32.24140951453049" fill="none" stroke="black" stroke-weight="1"></path><path id="SvgjsPath1908" d="M 7.638823226372324 126.29229307488865 C 7.638823226372324 126.29229307488865 169.59058367838762 220.48237193952025 73.11013970234156 28.24635782282911" fill="none" stroke="black" stroke-weight="1"></path><path id="SvgjsPath1909" d="M 9.423686720425422 128.19817485178328 C 9.423686720425422 128.19817485178328 169.80058266882546 214.81623692713083 79.29137789767546 24.55562682849954" fill="none" stroke="black" stroke-weight="1"></path><path id="SvgjsPath1910" d="M 11.559917786948802 130.1585498373774 C 11.559917786948802 130.1585498373774 169.91002683228686 208.98809507806726 85.64935082392664 21.178441436932133" fill="none" stroke="black" stroke-weight="1"></path><path id="SvgjsPath1911" d="M 14.042176960803687 132.16851811515056 C 14.042176960803687 132.16851811515056 169.91647380458082 203.01251371171458 92.16816685994775 18.12324285280158" fill="none" stroke="black" stroke-weight="1"></path><path id="SvgjsPath1912" d="M 16.864259886791075 134.22305581117962 C 16.864259886791075 134.22305581117962 169.81777192942963 196.90442866946603 98.83153236058251 15.397667481451549" fill="none" stroke="black" stroke-weight="1"></path><path id="SvgjsPath1913" d="M 20.01911282730842 136.317027651207 C 20.01911282730842 136.317027651207 169.6120669711335 190.67910698289808 105.62279238229303 13.008527841858239" fill="none" stroke="black" stroke-weight="1"></path><path id="SvgjsPath1914" d="M 23.498850293020013 138.44519979615217 C 23.498850293020013 138.44519979615217 169.2978080622125 184.35210871414222 112.52497231184485 10.96179553888075" fill="none" stroke="black" stroke-weight="1"></path><path id="SvgjsPath1915" d="M 27.294774752473828 140.60225292398331 C 27.294774752473828 140.60225292398331 168.87375287033976 177.93924806383345 119.5208202939999 9.262586337358925" fill="none" stroke="black" stroke-weight="1"></path><path id="SvgjsPath1916" d="M 31.397398371400485 142.78279552525242 C 31.397398371400485 142.78279552525242 168.33897197084403 171.45655384384415 126.59285035217002 7.915147375365535" fill="none" stroke="black" stroke-weight="1"></path><path id="SvgjsPath1917" d="M 35.79646672735775 144.98137737906097 C 35.79646672735775 144.98137737906097 167.69285241306133 164.9202294136025 133.72338609425185 6.922846548572949" fill="none" stroke="black" stroke-weight="1"></path><path id="SvgjsPath1918" d="M 40.48098444044625 147.19250317577377 C 40.48098444044625 147.19250317577377 166.93510047084416 158.3466121801321 140.89460489440137 6.288164092267834" fill="none" stroke="black" stroke-weight="1"></path><path id="SvgjsPath1919" d="M 45.4392426560329 149.410646252431 C 45.4392426560329 149.410646252431 166.0657435695921 151.752132763043 148.08858244031677 6.01268638205471" fill="none" stroke="black" stroke-weight="1"></path><path id="SvgjsPath1920" d="M 50.65884831078971 151.63026240652766 C 50.65884831078971 151.63026240652766 165.08513138424166 145.15327392653933 155.28733753468438 6.097101968743118" fill="none" stroke="black" stroke-weight="1"></path><path id="SvgjsPath1921" d="M 56.126755108897854 153.84580375363228 C 56.126755108897854 153.84580375363228 163.9939361047422 138.5665293810932 162.47287703880744 6.541199857329104" fill="none" stroke="black" stroke-weight="1"></path><path id="SvgjsPath1922" d="M 61.82929613099289 156.0517325942087 C 61.82929613099289 156.0517325942087 162.7931518676417 132.00836255775795 169.62724084608226 7.343870034372941" fill="none" stroke="black" stroke-weight="1"></path><path id="SvgjsPath1923" d="M 67.75221799434551 158.242535254981 C 67.75221799434551 158.242535254981 161.48409335450904 125.49516545816478 176.7325467729113 8.503106242454521" fill="none" stroke="black" stroke-weight="1"></path><path id="SvgjsPath1924" d="M 73.88071647889542 160.4127358702452 C 73.88071647889542 160.4127358702452 160.068393560018 119.04321768305482 183.7710352548493 10.016010994772245" fill="none" stroke="black" stroke-weight="1"></path><path id="SvgjsPath1925" d="M 80.1994735300916 162.55691006868182 C 80.1994735300916 162.55691006868182 158.54800073461425 112.66864574175666 190.72511373626534 11.878802817350845" fill="none" stroke="black" stroke-weight="1"></path><path id="SvgjsPath1926" d="M 86.69269554605108 164.66969853145906 C 86.69269554605108 164.66969853145906 156.92517450876548 106.38738274431087 197.57740064256998 14.086825700757089" fill="none" stroke="black" stroke-weight="1"></path><path id="SvgjsPath1927" d="M 93.34415285333858 166.745820387739 C 93.34415285333858 166.745820387739 155.2024812078618 100.2151285769923 204.31076882509944 16.634560737698592" fill="none" stroke="black" stroke-weight="1"></path><path id="SvgjsPath1928" d="M 100.13722027269796 168.78008641410423 C 100.13722027269796 168.78008641410423 153.38278836887451 94.16731066077121 210.90838837006777 19.51563991741773" fill="none" stroke="black" stroke-weight="1"></path><path id="SvgjsPath1929" d="M 107.05491867334189 170.76741200491415 C 107.05491867334189 170.76741200491415 151.46925847189758 88.25904539079568 217.35376866458643 22.72286204240224" fill="none" stroke="black" stroke-weight="1"></path><path id="SvgjsPath1930" d="M 114.07995741193645 172.70282988117089 C 114.07995741193645 172.70282988117089 149.46534190167665 82.50510035327578 223.63079961460824 26.248210727628646" fill="none" stroke="black" stroke-weight="1"></path><path id="SvgjsPath1931" d="M 121.19477755020463 174.58150250612994 C 121.19477755020463 174.58150250612994 147.37476915617793 76.91985741420845 229.7237919117727 30.08287443735003" fill="none" stroke="black" stroke-weight="1"></path><path id="SvgjsPath1932" d="M 128.38159574312743 176.39873417662267 C 128.38159574312743 176.39873417662267 145.2015423211506 71.51727677220289 235.61751624850595 34.21726850934628" fill="none" stroke="black" stroke-weight="1"></path><path id="SvgjsPath1933" d="M 135.62244868804515 178.14998275986886 C 135.62244868804515 178.14998275986886 142.94992583149306 66.31086206525468 241.29724138335843 38.641059111588234" fill="none" stroke="black" stroke-weight="1"></path><path id="SvgjsPath1934" d="M 142.89923802355872 179.83087104644298 C 142.89923802355872 179.83087104644298 140.6244365420359 61.31362661868303 246.74877096143672 43.34318907143593" fill="none" stroke="black" stroke-weight="1"></path><path id="SvgjsPath1935" d="M 150.19377556600807 181.43719769101833 C 150.19377556600807 181.43719769101833 138.2298331321047 56.538060918594255 251.95847899789726 48.31190551281168" fill="none" stroke="black" stroke-weight="1"></path><path id="SvgjsPath1936" d="M 157.4878287704588 182.9649477135422 C 157.4878287704588 182.9649477135422 135.77110486991108 51.99610139217188 256.91334393581246 53.53478923226953" fill="none" stroke="black" stroke-weight="1"></path><path id="SvgjsPath1937" d="M 164.76316630256918 184.41030253459508 C 164.76316630256918 184.41030253459508 133.25345976444436 47.699100572825344 261.60098119328137 58.99878574053609" fill="none" stroke="black" stroke-weight="1"></path><path id="SvgjsPath1938" d="M 172.00160360743152 185.76964951985065 C 172.00160360743152 185.76964951985065 130.68231213408745 43.6577987247684 266.0096741184345 64.69023789193507" fill="none" stroke="black" stroke-weight="1"></path><path id="SvgjsPath1939" d="M 179.18504836148898 187.0395910097799 C 179.18504836148898 187.0395910097799 128.0632696226638 39.882296997951656 270.1284032749619 70.59492002013899" fill="none" stroke="black" stroke-weight="1"></path><path id="SvgjsPath1940" d="M 186.29554569392204 188.21695281203085 C 186.29554569392204 188.21695281203085 125.4021196950259 36.38203218044883 273.9468739849649 76.6980734949263" fill="none" stroke="black" stroke-weight="1"></path><path id="SvgjsPath1941" d="M 193.3153230644751 189.29879213525598 C 193.3153230644751 189.29879213525598 122.70481564561842 33.1657531114011 277.45554206028964 82.98444361107094" fill="none" stroke="black" stroke-weight="1"></path><path id="SvgjsPath1942" d="M 200.22683468555115 190.28240494455827 C 200.22683468555115 190.28240494455827 119.97746215469117 30.241498813475417 280.6456376580268 89.43831771716081" fill="none" stroke="black" stroke-weight="1"></path><path id="SvgjsPath1943" d="M 207.01280537754315 191.1653327201701 C 207.01280537754315 191.1653327201701 117.22630042799128 27.616578399494273 283.50918720055176 96.04356448904335" fill="none" stroke="black" stroke-weight="1"></path><path id="SvgjsPath1944" d="M 213.6562737477864 191.9453686024724 C 213.6562737477864 191.9453686024724 114.45769295682916 25.29755280346042 286.0390333053159 102.78367424973487" fill="none" stroke="black" stroke-weight="1"></path><path id="SvgjsPath1945" d="M 220.14063458520667 192.62056290799418 C 220.14063458520667 192.62056290799418 111.67810793638483 23.29021838163888 288.2288526745757 109.64180023501495" fill="none" stroke="black" stroke-weight="1"></path><path id="SvgjsPath1946" d="M 226.44968036470027 193.18922800260606 C 226.44968036470027 193.18922800260606 108.89410338099968 21.599592424684715 290.07317190034394 116.60080070156339" fill="none" stroke="black" stroke-weight="1"></path><path id="SvgjsPath1947" d="M 232.567641757506 193.64994251972655 C 232.567641757506 193.64994251972655 106.11231097598096 20.229900617029188 291.5673811450591 123.64328177239115" fill="none" stroke="black" stroke-weight="1"></path><path id="SvgjsPath1948" d="M 238.47922704631452 194.00155491299836 C 238.47922704631452 194.00155491299836 103.33941970612938 19.18456647486977 292.70774566377844 130.75164091247441" fill="none" stroke="black" stroke-weight="1"></path><path id="SvgjsPath1949" d="M 244.169660346598 194.24318633455448 C 244.169660346598 194.24318633455448 100.58215930178204 18.466202789162395 293.4914151390956 137.90811092592486" fill="none" stroke="black" stroke-weight="1"></path><path id="SvgjsPath1950" d="M 249.62471853862598 194.37423283168022 C 249.62471853862598 194.37423283168022 97.84728354364313 18.076605095004766 293.91643080544935 145.09480436472643" fill="none" stroke="black" stroke-weight="1"></path><path id="SvgjsPath1951" d="M 254.83076681785786 194.3943668563805 C 254.83076681785786 194.3943668563805 95.14155346805373 18.016747183733656 293.9817303450178 152.2937582380397" fill="none" stroke="black" stroke-weight="1"></path><path id="SvgjsPath1952" d="M 259.7747927748531 194.30353808407912 C 259.7747927748531 194.30353808407912 92.47172051462537 18.28677866895393 293.68715054295933 159.48697891032398" fill="none" stroke="black" stroke-weight="1"></path><path id="SvgjsPath1953" d="M 264.44443891951806 194.10197353940418 C 264.44443891951806 194.10197353940418 89.84450965832964 18.886024612582162 293.03342769536494 166.6564870760556" fill="none" stroke="black" stroke-weight="1"></path><path id="SvgjsPath1954" d="M 268.8280335683959 193.79017702874455 C 268.8280335683959 193.79017702874455 87.26660256820014 19.812987211840493 292.02219576890127 173.7843626986279" fill="none" stroke="black" stroke-weight="1"></path><path id="SvgjsPath1955" d="M 272.9146200177963 193.3689278809964 C 272.9146200177963 193.3689278809964 84.74462083476192 21.065349542983654 290.65598231674505 180.85278980111025" fill="none" stroke="black" stroke-weight="1"></path><path id="SvgjsPath1956" d="M 276.6939839298489 192.83927899964678 C 276.6939839298489 192.83927899964678 82.28510930815624 22.639981352401463 288.9382021610166 187.84410099691212" fill="none" stroke="black" stroke-weight="1"></path><path id="SvgjsPath1957" d="M 280.1566788630282 192.20255423106326 C 280.1566788630282 192.20255423106326 79.89451958867603 24.532946880622774 286.8731488575025 194.74082164904854" fill="none" stroke="black" stroke-weight="1"></path><path id="SvgjsPath1958" d="M 283.29404988333795 191.46034505556744 C 283.29404988333795 191.46034505556744 77.57919371107074 26.739514699664326 284.46598396400253 201.52571354763182" fill="none" stroke="black" stroke-weight="1"></path><path id="SvgjsPath1959" d="M 286.0982551971386 190.61450660956302 C 286.0982551971386 190.61450660956302 75.34534806352077 29.254169539136896 281.72272413912333 208.18181799641889" fill="none" stroke="black" stroke-weight="1"></path><path id="SvgjsPath1960" d="M 288.5622857515475 189.66715304866085 C 288.5622857515475 189.66715304866085 73.199057581619 32.0706260715488 278.6502261037649 214.69249820071997" fill="none" stroke="black" stroke-weight="1"></path><path id="SvgjsPath1961" d="M 290.6799827534211 188.62065226339098 C 290.6799827534211 188.62065226339098 71.14624025703372 35.18184462235118 275.2561695028897 221.0414808507211" fill="none" stroke="black" stroke-weight="1"></path><path id="SvgjsPath1962" d="M 292.44605306312974 187.47761996070952 C 292.44605306312974 187.47761996070952 69.19264199976489 38.580048765458145 271.54903771040927 227.21289679628336" fill="none" stroke="black" stroke-weight="1"></path><path id="SvgjsPath1963" d="M 293.85608242465094 186.24091312609346 C 293.85608242465094 186.24091312609346 67.34382189204636 42.256744760262606 267.538096625168 233.19132071155423" fill="none" stroke="black" stroke-weight="1"></path><path id="SvgjsPath1964" d="M 294.90654649890996 184.91362288256488 C 294.90654649890996 184.91362288256488 65.60513787099285 46.20274278156391 263.2333715110212 238.96180965024854" fill="none" stroke="black" stroke-weight="1"></path><path id="SvgjsPath1965" d="M 295.5948196727923 183.49906676449316 C 295.5948196727923 183.49906676449316 63.98173287604037 50.40817988934471 258.64562193889674 244.50994039523206" fill="none" stroke="black" stroke-weight="1"></path><path id="SvgjsPath1966" d="M 295.919181621809 182.00078042548694 C 295.919181621809 182.00078042548694 62.478521496092554 54.86254468098474 253.78631489347117 249.821845509053" fill="none" stroke="black" stroke-weight="1"></path><path id="SvgjsPath1967" d="M 295.87882161001187 180.4225088011013 C 295.87882161001187 180.4225088011013 61.10017715005955 59.55470356429336 248.66759611167987 254.88424799531347" fill="none" stroke="black" stroke-weight="1"></path><path id="SvgjsPath1968" d="M 295.4738405164114 178.76819674844918 C 295.4738405164114 178.76819674844918 59.851119833166194 64.47292858569159 243.30225972470006 259.6844944842461" fill="none" stroke="black" stroke-weight="1"></path><path id="SvgjsPath1969" d="M 294.70525058283147 177.0419791861132 C 294.70525058283147 177.0419791861132 58.735504460015136 69.60492674398786 237.70371627928608 264.2105868595486" fill="none" stroke="black" stroke-weight="1"></path><path id="SvgjsPath1970" d="M 293.5749728838322 175.24817075900245 C 293.5749728838322 175.24817075900245 57.75720983392138 74.93787071647918 231.88595921838635 268.45121224742604" fill="none" stroke="black" stroke-weight="1"></path><path id="SvgjsPath1971" d="M 292.08583252502376 173.39125505398732 C 292.08583252502376 173.39125505398732 56.91982827049338 80.45843092057807 225.8635299048238 272.39577129288375" fill="none" stroke="black" stroke-weight="1"></path><path id="SvgjsPath1972" d="M 290.2415515817738 171.4758733932674 C 290.2415515817738 171.4758733932674 56.226655901822085 86.15280883082664 219.65148127546183 276.03440465259473" fill="none" stroke="black" stroke-weight="1"></path><path id="SvgjsPath1973" d="M 288.0467397959577 169.50681323348294 C 288.0467397959577 169.50681323348294 55.68068368595982 92.00677146802377 213.26534021670145 279.35801763812333" fill="none" stroke="black" stroke-weight="1"></path><path id="SvgjsPath1974" d="M 285.506883054004 167.48899619956674 C 285.506883054004 167.48899619956674 55.2845891446314 98.00568697426104 206.72106875535158 282.3583029479098" fill="none" stroke="black" stroke-weight="1"></path><path id="SvgjsPath1975" d="M 282.62832967503573 165.42746578324474 C 282.62832967503573 165.42746578324474 55.04072885031948 104.1345611849479 200.03502416187487 285.02776143119826" fill="none" stroke="black" stroke-weight="1"></path><path id="SvgjsPath1976" d="M 279.41827454337874 163.32737473693354 C 279.41827454337874 163.32737473693354 54.95113168201645 110.37807510641383 193.22391806573035 287.3597208320075" fill="none" stroke="black" stroke-weight="1"></path><path id="SvgjsPath1977" d="M 275.88474112509783 161.19397219454257 C 275.88474112509783 161.19397219454257 55.01749286703253 116.72062320541411 186.30477468500288 289.34835246629643" fill="none" stroke="black" stroke-weight="1"></path><path id="SvgjsPath1978" d="M 272.03656141350996 159.03259055137326 C 272.03656141350996 159.03259055137326 55.241168824307564 123.14635241483626 179.29488827472406 290.98868579063867" fill="none" stroke="black" stroke-weight="1"></path><path id="SvgjsPath1979" d="M 267.8833538538009 156.84863213590774 C 267.8833538538009 156.84863213590774 55.62317282269025 129.639201758112 172.2117799002413 292.2766208259925" fill="none" stroke="black" stroke-weight="1"></path><path id="SvgjsPath1980" d="M 263.4354993019212 154.64755570680114 C 263.4354993019212 154.64755570680114 56.16417146563076 136.18294249329392 165.07315364367932 293.2089384055131" fill="none" stroke="black" stroke-weight="1"></path><path id="SvgjsPath1981" d="M 258.70411507785275 152.43486280882775 C 258.70411507785275 152.43486280882775 56.86448201168811 142.7612186764582 157.8968523529548 293.7833082207933" fill="none" stroke="black" stroke-weight="1"></path><path id="SvgjsPath1982" d="M 253.70102717809846 150.21608402188428 C 253.70102717809846 150.21608402188428 57.7240705381824 149.35758804304663 150.7008130439491 293.99829464642085" fill="none" stroke="black" stroke-weight="1"></path><path id="SvgjsPath1983" d="M 248.43874071684982 147.99676513742054 C 248.43874071684982 147.99676513742054 58.74255095323416 155.9555631049658 143.50302206730987 293.8533603282945" fill="none" stroke="black" stroke-weight="1"></path><path id="SvgjsPath1984" d="M 242.9304086697142 145.7824532968487 C 242.9304086697142 145.7824532968487 59.91918485933053 162.53865236072008 136.3214701519417 293.34886752672924" fill="none" stroke="black" stroke-weight="1"></path><path id="SvgjsPath1985" d="M 237.18979899812555 143.57868312657885 C 237.18979899812555 143.57868312657885 61.252882269447454 169.09040151557647 129.17410743755306 292.48607721099427" fill="none" stroke="black" stroke-weight="1"></path><path id="SvgjsPath1986" d="M 231.23126023661115 141.3909629043354 C 231.23126023661115 141.3909629043354 62.74220317464432 175.5944346087326 122.07879860865532 291.26714590754625" fill="none" stroke="black" stroke-weight="1"></path><path id="SvgjsPath1987" d="M 225.06968562892786 139.22476079133128 C 225.06968562892786 139.22476079133128 64.38535995993566 182.03449494469078 115.05327824215547 289.69512030983685" fill="none" stroke="black" stroke-weight="1"></path><path id="SvgjsPath1988" d="M 218.72047590270853 137.08549116471266 C 218.72047590270853 137.08549116471266 66.18022066314067 188.39448572652992 108.11510648014914 287.77392966316506" fill="none" stroke="black" stroke-weight="1"></path><path id="SvgjsPath1989" d="M 212.19950077566443 134.97850108443606 C 212.19950077566443 134.97850108443606 68.12431306932135 194.65851028951437 101.28162513871158 285.5083759436109" fill="none" stroke="black" stroke-weight="1"></path><metadata>86 * Math.sin(t/1)+86 * Math.cos(t/1);37 * Math.cos(t/1);45 * Math.sin(t/1)+45 * Math.sin(t/2);55 * Math.cos(t/1)+55 * Math.cos(t/1)</metadata></svg>