<svg id="SvgjsSvg2851" width="300" height="300" xmlns="http://www.w3.org/2000/svg" version="1.1" xmlns:xlink="http://www.w3.org/1999/xlink" xmlns:svgjs="http://svgjs.com/svgjs"><defs id="SvgjsDefs2852"></defs><path id="SvgjsPath2853" d="M 150 106.80000000000001 C 150 106.80000000000001 150.00000000000006 150.00000000000006 149.99999999999997 6" fill="none" stroke="black" stroke-weight="1"></path><path id="SvgjsPath2854" d="M 152.5584594584243 106.85398875093745 C 152.5584594584243 106.85398875093745 142.92294963127202 143.88254968126904 157.19700037497762 6.1799625031248695" fill="none" stroke="black" stroke-weight="1"></path><path id="SvgjsPath2855" d="M 155.1076804462137 107.01582005998928 C 155.1076804462137 107.01582005998928 135.86358820280924 137.78038980242832 164.37601199714317 6.719400199964298" fill="none" stroke="black" stroke-weight="1"></path><path id="SvgjsPath2856" d="M 157.63844837398435 107.28508943316297 C 157.63844837398435 107.28508943316297 128.83956044173834 131.70877258523146 171.51909107619832 7.616964777209915" fill="none" stroke="black" stroke-weight="1"></path><path id="SvgjsPath2857" d="M 160.1415963549441 107.66112383725836 C 160.1415963549441 107.66112383725836 121.86842275941923 125.68287391068442 178.6083836344888 8.870412790861224" fill="none" stroke="black" stroke-weight="1"></path><path id="SvgjsPath2858" d="M 162.60802890656353 108.14298338210014 C 162.60802890656353 108.14298338210014 114.9675993695596 119.71775538724643 185.62617013265128 10.476611273667146" fill="none" stroke="black" stroke-weight="1"></path><path id="SvgjsPath2859" d="M 165.02874547311447 108.72946366977382 C 165.02874547311447 108.72946366977382 108.15433873675451 113.8283267046522 192.55490975923283 12.431545565912728" fill="none" stroke="black" stroke-weight="1"></path><path id="SvgjsPath2860" d="M 167.3948637100648 109.41909880499323 C 167.3948637100648 109.41909880499323 101.44567046430818 108.02930836745284 199.3772842735849 14.73032934997741" fill="none" stroke="black" stroke-weight="1"></path><path id="SvgjsPath2861" d="M 169.69764247191063 110.21016505907536 C 169.69764247191063 110.21016505907536 94.85836272909509 102.33519490142118 206.07624129244567 17.36721686358456" fill="none" stroke="black" stroke-weight="1"></path><path id="SvgjsPath2862" d="M 171.92850444577005 111.10068517836436 C 171.92850444577005 111.10068517836436 88.40888036984971 96.76021862478534 212.63503691201714 20.335617261214537" fill="none" stroke="black" stroke-weight="1"></path><path id="SvgjsPath2863" d="M 174.0790583739485 112.08843332633589 C 174.0790583739485 112.08843332633589 82.1133437336449 91.31831407484559 219.0372775590052 23.628111087786323" fill="none" stroke="black" stroke-weight="1"></path><path id="SvgjsPath2864" d="M 176.14112080971267 113.17094064702934 C 176.14112080971267 113.17094064702934 75.98748838341882 86.02308317888748 225.2669609660149 27.236468823431153" fill="none" stroke="black" stroke-weight="1"></path><path id="SvgjsPath2865" d="M 178.106737351678 114.3455014359019 C 178.106737351678 114.3455014359019 70.04662576726308 80.88776125644775 231.30851616888503 31.151671453006287" fill="none" stroke="black" stroke-weight="1"></path><path id="SvgjsPath2866" d="M 179.96820330351792 115.6091799026808 C 179.96820330351792 115.6091799026808 64.3056049477768 75.92518393790876 237.1468424259897 35.36393300893597" fill="none" stroke="black" stroke-weight="1"></path><path id="SvgjsPath2867" d="M 181.71808370714055 116.95881750931011 C 181.71808370714055 116.95881750931011 58.778775487142866 71.14775508210654 242.7673469622275 39.862725031033676" fill="none" stroke="black" stroke-weight="1"></path><path id="SvgjsPath2868" d="M 183.3492326990447 118.39104086465093 C 183.3492326990447 118.39104086465093 53.479951580695925 66.56741577314394 248.15598144336008 44.636802882169775" fill="none" stroke="black" stroke-weight="1"></path><path id="SvgjsPath2869" d="M 184.85481214125986 119.90227015620243 C 184.85481214125986 119.90227015620243 48.422377528627706 62.195614473898544 253.29927708953124 49.674233854008136" fill="none" stroke="black" stroke-weight="1"></path><path id="SvgjsPath2870" d="M 186.22830948008843 121.48872809776879 C 186.22830948008843 121.48872809776879 43.61869463213462 58.043278410828236 258.1843783402022 54.96242699256263" fill="none" stroke="black" stroke-weight="1"></path><path id="SvgjsPath2871" d="M 187.46355478779986 123.1464493707073 C 187.46355478779986 123.1464493707073 39.080909596748356 54.120786261596024 262.7990749863576 60.48816456902435" fill="none" stroke="black" stroke-weight="1"></path><path id="SvgjsPath2872" d="M 188.55473694446908 124.87129053516023 C 188.55473694446908 124.87129053516023 34.820364521824615 50.4379422137806 267.1318326896698 66.23763511720078" fill="none" stroke="black" stroke-weight="1"></path><path id="SvgjsPath2873" d="M 189.49641891930196 126.65894038649635 C 189.49641891930196 126.65894038649635 30.84770855120189 47.00395145951349 271.17182181233704 72.19646795498787" fill="none" stroke="black" stroke-weight="1"></path><path id="SvgjsPath2874" d="M 190.28355211304185 128.50493073107742 C 190.28355211304185 128.50493073107742 27.172871255887188 43.827397187292306 274.9089444855385 78.34976910359138" fill="none" stroke="black" stroke-weight="1"></path><path id="SvgjsPath2875" d="M 190.91148972540043 130.40464755441508 C 190.91148972540043 130.40464755441508 23.805037815300793 40.91621912848035 278.3338598488467 84.6821585147169" fill="none" stroke="black" stroke-weight="1"></path><path id="SvgjsPath2876" d="M 191.3759991138927 132.3533425538044 C 191.3759991138927 132.3533425538044 20.752626059110213 38.277693712112224 281.43800739751504 91.17780851268137" fill="none" stroke="black" stroke-weight="1"></path><path id="SvgjsPath2877" d="M 191.67327311297862 134.34614500660768 C 191.67327311297862 134.34614500660768 18.023265427040712 35.91841587761145 284.2136283792806 97.82048335535902" fill="none" stroke="black" stroke-weight="1"></path><path id="SvgjsPath2878" d="M 191.79994028501466 136.37807394452437 C 191.79994028501466 136.37807394452437 15.623777899249006 33.84428259087626 286.6537851872044 104.59357981508128" fill="none" stroke="black" stroke-weight="1"></path><path id="SvgjsPath2879" d="M 191.75307407718813 138.44405060341785 C 191.75307407718813 138.44405060341785 13.560160944925457 32.06047810493557 288.7523787000758 111.48016867805948" fill="none" stroke="black" stroke-weight="1"></path><path id="SvgjsPath2880" d="M 191.53020086134492 140.53891111758062 C 191.53020086134492 140.53891111758062 11.83757253174511 30.571461002016946 290.50416352703894 118.46303705860205" fill="none" stroke="black" stroke-weight="1"></path><path id="SvgjsPath2881" d="M 191.12930683641298 142.6574194267096 C 191.12930683641298 142.6574194267096 10.460318233634041 29.380953049412483 291.9047611183383 125.52473142236533" fill="none" stroke="black" stroke-weight="1"></path><path id="SvgjsPath2882" d="M 190.54884377596957 144.7942803633298 C 190.54884377596957 144.7942803633298 9.431840469077457 28.491929896999167 292.95067070941275 132.64760121109936" fill="none" stroke="black" stroke-weight="1"></path><path id="SvgjsPath2883" d="M 189.78773360638857 146.94415288795528 C 189.78773360638857 146.94415288795528 8.754709896865876 27.906613639663718 293.63927807098383 139.8138429598509" fill="none" stroke="black" stroke-weight="1"></path><path id="SvgjsPath2884" d="M 188.84537180392658 149.10166343890643 C 188.84537180392658 149.10166343890643 8.430618990787053 27.626467263222708 293.96886204326745 147.00554479635474" fill="none" stroke="black" stroke-weight="1"></path><path id="SvgjsPath2885" d="M 187.72162960206364 151.26141936341568 C 187.72162960206364 151.26141936341568 8.460377809322864 27.652190987719763 293.93859883797677 154.20473121138562" fill="none" stroke="black" stroke-weight="1"></path><path id="SvgjsPath2886" d="M 186.41685500338633 153.4180223964509 C 186.41685500338633 153.4180223964509 8.843911970925092 27.983720517240343 293.5485640973643 161.3934079881697" fill="none" stroke="black" stroke-weight="1"></path><path id="SvgjsPath2887" d="M 184.93187259329335 155.5660821535667 C 184.93187259329335 155.5660821535667 9.580262839930441 28.620227200617848 292.79973270515546 168.5536071785557" fill="none" stroke="black" stroke-weight="1"></path><path id="SvgjsPath2888" d="M 183.26798215579907 157.70022960405808 C 183.26798215579907 157.70022960405808 10.667589922650592 29.56012010263018 291.69397634984693 175.66743201352696" fill="none" stroke="black" stroke-weight="1"></path><path id="SvgjsPath2889" d="M 181.42695609470667 159.81513049074138 C 181.42695609470667 159.81513049074138 12.103175467647588 30.80104998050892 290.2340588464601 182.71710163580462" fill="none" stroke="black" stroke-weight="1"></path><path id="SvgjsPath2890" d="M 179.41103566641073 161.905498662819 C 179.41103566641073 161.905498662819 13.883431258697584 32.33991515582332 288.42362922844313 189.68499554273" fill="none" stroke="black" stroke-weight="1"></path><path id="SvgjsPath2891" d="M 177.22292603356115 163.9661092885034 C 177.22292603356115 163.9661092885034 16.00390758346211 34.17286926706048 286.26721262698766 196.55369762834462" fill="none" stroke="black" stroke-weight="1"></path><path id="SvgjsPath2892" d="M 174.8657901517693 165.99181191437563 C 174.8657901517693 165.99181191437563 18.45930435545216 36.29533088352645 283.77019896055714 203.30603971458544" fill="none" stroke="black" stroke-weight="1"></path><path id="SvgjsPath2893" d="M 172.3432415044565 167.97754333883657 C 172.3432415044565 167.97754333883657 21.24348436148358 38.70199495653664 280.9388294628981 209.92514446278858" fill="none" stroke="black" stroke-weight="1"></path><path id="SvgjsPath2894" d="M 169.6593357038266 169.918340267474 C 169.6593357038266 169.918340267474 24.349488601514082 41.386846079274875 277.780181083206 216.39446755824673" fill="none" stroke="black" stroke-weight="1"></path><path id="SvgjsPath2895" d="M 166.8185609787788 171.80935171871386 C 166.8185609787788 171.80935171871386 27.769553682519444 44.34317352217782 274.3021487974378 222.6978390623795" fill="none" stroke="black" stroke-weight="1"></path><path id="SvgjsPath2896" d="M 163.82582757336368 173.6458511487477 C 163.82582757336368 173.6458511487477 31.495131222932727 47.563588006263885 270.5134258749836 228.81950382915903" fill="none" stroke="black" stroke-weight="1"></path><path id="SvgjsPath2897" d="M 160.68645608210872 175.42324826543094 C 160.68645608210872 175.42324826543094 35.516909219146086 51.04004017248222 266.42348215002096 234.74416088476977" fill="none" stroke="black" stroke-weight="1"></path><path id="SvgjsPath2898" d="M 157.4061647512003 177.1371005016223 C 157.4061647512003 177.1371005016223 39.82483532067032 54.76384070091842 262.0425403518607 240.4570016720744" fill="none" stroke="black" stroke-weight="1"></path><path id="SvgjsPath2899" d="M 153.9910557770957 178.7831241192884 C 153.9910557770957 178.7831241192884 44.40814195577629 58.72568202956934 257.38155055344777 245.94374706429466" fill="none" stroke="black" stroke-weight="1"></path><path id="SvgjsPath2900" d="M 150.44760063664742 180.35720491661752 C 150.44760063664742 180.35720491661752 49.25537324481637 62.91566161840059 252.45216280188163 251.1906830553917" fill="none" stroke="black" stroke-weight="1"></path><path id="SvgjsPath2901" d="M 146.7826244852451 181.85540851138177 C 146.7826244852451 181.85540851138177 54.35441363395704 67.32330670053913 247.26669799936582 256.18469503793926" fill="none" stroke="black" stroke-weight="1"></path><path id="SvgjsPath2902" d="M 143.00328966181195 183.27399017484365 C 143.00328966181195 183.27399017484365 59.69251817775415 71.93760045873665 241.83811710736865 260.91330058281216" fill="none" stroke="black" stroke-weight="1"></path><path id="SvgjsPath2903" d="M 139.1170783417283 184.6094041916275 C 139.1170783417283 184.6094041916275 65.25634439487952 76.74700956167551 236.17998875096984 265.3646806387584" fill="none" stroke="black" stroke-weight="1"></path><path id="SvgjsPath2904" d="M 135.13177438088644 185.85831272216157 C 135.13177438088644 185.85831272216157 71.03198561737523 81.73951299129044 230.30645530436416 269.5277090738719" fill="none" stroke="black" stroke-weight="1"></path><path id="SvgjsPath2905" d="M 131.05544439610568 187.01759414553848 C 131.05544439610568 187.01759414553848 77.00500575008058 86.9026320890527 224.23219754229103 273.3919804851283" fill="none" stroke="black" stroke-weight="1"></path><path id="SvgjsPath2906" d="M 126.89641812904796 188.0843508619419 C 126.89641812904796 188.0843508619419 83.16047535335241 92.22346174611819 217.9723979457433 276.947836206473" fill="none" stroke="black" stroke-weight="1"></path><path id="SvgjsPath2907" d="M 122.66326814256757 189.05591653513702 C 122.66326814256757 189.05591653513702 89.48300895888933 97.68870265937892 211.54270275367173 280.18638845045666" fill="none" stroke="black" stroke-weight="1"></path><path id="SvgjsPath2908" d="M 118.36478890010049 189.92986275692238 C 118.36478890010049 189.92986275692238 95.95680352538956 103.28469457279436 204.95918285553603 283.09954252307466" fill="none" stroke="black" stroke-weight="1"></path><path id="SvgjsPath2909" d="M 114.00997528024291 190.70400511688598 C 114.00997528024291 190.70400511688598 102.56567793792368 108.99745042091709 198.23829362245058 285.68001705628666" fill="none" stroke="black" stroke-weight="1"></path><path id="SvgjsPath2910" d="M 109.60800058008373 191.37640866229347 C 109.60800058008373 191.37640866229347 109.29311345229536 114.81269128927227 191.39683377732672 287.9213622076449" fill="none" stroke="black" stroke-weight="1"></path><path id="SvgjsPath2911" d="M 105.16819406213625 191.94539273446227 C 105.16819406213625 191.94539273446227 116.12229498329962 120.71588210420815 184.4519034068138 289.81797578154095" fill="none" stroke="black" stroke-weight="1"></path><path id="SvgjsPath2912" d="M 100.7000181008581 192.4095351695332 C 100.7000181008581 192.4095351695332 123.03615313367816 126.69226796300994 177.4208612199883 291.3651172317773" fill="none" stroke="black" stroke-weight="1"></path><path id="SvgjsPath2913" d="M 96.21304498575161 192.76767585313922 C 96.21304498575161 192.76767585313922 130.0174068587225 132.726911013472 170.32128116062128 292.5589195104641" fill="none" stroke="black" stroke-weight="1"></path><path id="SvgjsPath2914" d="M 91.71693343889942 193.01891962008744 C 91.71693343889942 193.01891962008744 137.04860665988647 138.80472779074933 163.17090848147137 293.3963987336248" fill="none" stroke="black" stroke-weight="1"></path><path id="SvgjsPath2915" d="M 87.22140490550547 193.16263849180567 C 87.22140490550547 193.16263849180567 144.11217819944545 144.91052691816472 155.9876153903943 293.87546163935224" fill="none" stroke="black" stroke-weight="1"></path><path id="SvgjsPath2916" d="M 82.73621967658279 193.19847324596196 C 82.73621967658279 193.19847324596196 151.19046622718776 151.02904707773857 148.78935637913108 293.9949108198732" fill="none" stroke="black" stroke-weight="1"></path><path id="SvgjsPath2917" d="M 78.27115290335223 193.12633431433335 C 78.27115290335223 193.12633431433335 158.26577870934491 157.14499515553544 141.594123346429 293.7544477144445" fill="none" stroke="black" stroke-weight="1"></path><path id="SvgjsPath2918" d="M 73.83597056318918 192.94640200667962 C 73.83597056318918 192.94640200667962 165.3204310494628 163.2430844664848 134.41990062766493 293.1546733555987" fill="none" stroke="black" stroke-weight="1"></path><path id="SvgjsPath2919" d="M 69.44040543708073 192.659126060063 C 69.44040543708073 192.659126060063 172.33679029068327 169.30807296313301 127.28462004337291 292.19708686687665" fill="none" stroke="black" stroke-weight="1"></path><path id="SvgjsPath2920" d="M 65.0941331585286 192.2652245147396 C 65.0941331585286 192.2652245147396 179.2973191889528 175.32480133282363 120.20611607903103 290.88408171579863" fill="none" stroke="black" stroke-weight="1"></path><path id="SvgjsPath2921" d="M 60.80674839366077 191.76568191943275 C 60.80674839366077 191.76568191943275 186.18462004699884 181.27823088808373 113.20208130813677 289.2189397314425" fill="none" stroke="black" stroke-weight="1"></path><path id="SvgjsPath2922" d="M 56.58774121198499 191.16174687047402 C 56.58774121198499 191.16174687047402 192.98147819951296 187.1534811555112 106.29002216998681 287.20582290158006" fill="none" stroke="black" stroke-weight="1"></path><path id="SvgjsPath2923" d="M 52.44647370674926 190.4549288909625 C 52.44647370674926 190.4549288909625 199.67090504084942 192.93586706920883 99.48721521269549 284.849762969875" fill="none" stroke="black" stroke-weight="1"></path><path id="SvgjsPath2924" d="M 48.39215692325129 189.6469946577432 C 48.39215692325129 189.6469946577432 206.23618048769129 198.61093567580093 92.8106639108224 282.156648859144" fill="none" stroke="black" stroke-weight="1"></path><path id="SvgjsPath2925" d="M 44.43382815267266 188.73996358563522 C 44.43382815267266 188.73996358563522 212.66089477055056 204.16450225928946 86.27705616554178 279.13321195211745" fill="none" stroke="black" stroke-weight="1"></path><path id="SvgjsPath2926" d="M 40.580328648102764 187.73610277994624 C 40.580328648102764 187.73610277994624 218.9289894496464 209.58268579545705 79.90272259357992 275.7870092664874" fill="none" stroke="black" stroke-weight="1"></path><path id="SvgjsPath2927" d="M 36.84028181836645 186.63792136988977 C 36.84028181836645 186.63792136988977 225.02479755264187 214.8519436471989 73.70359570917773 272.12640456629924" fill="none" stroke="black" stroke-weight="1"></path><path id="SvgjsPath2928" d="M 33.22207195407937 185.44816423706916 C 33.22207195407937 185.44816423706916 230.93308273391523 219.95910541406232 67.69517010110316 268.1605474568972" fill="none" stroke="black" stroke-weight="1"></path><path id="SvgjsPath2929" d="M 29.733823539026076 184.1698051547029 C 29.733823539026076 184.1698051547029 236.63907735748847 224.89140585138833 61.89246370424901 263.8993505156764" fill="none" stroke="black" stroke-weight="1"></path><path id="SvgjsPath2930" d="M 26.38338119849672 182.8060393547405 C 26.38338119849672 182.8060393547405 242.12851940842705 229.63651677677592 56.30998026261656 259.3534645158017" fill="none" stroke="black" stroke-weight="1"></path><path id="SvgjsPath2931" d="M 23.17829033463083 181.36027554144624 C 23.17829033463083 181.36027554144624 247.38768814044997 234.18257788411776 50.96167307750851 254.53425180482088" fill="none" stroke="black" stroke-weight="1"></path><path id="SvgjsPath2932" d="M 20.125778497103028 179.83612737141414 C 20.125778497103028 179.83612737141414 252.4034383706495 238.51822638818854 45.86091013154291 249.45375790471377" fill="none" stroke="black" stroke-weight="1"></path><path id="SvgjsPath2933" d="M 17.232737535649022 178.2374044213082 C 17.232737535649022 178.2374044213082 257.1632333356021 242.63262542568995 41.02044067565886 244.12468140436073" fill="none" stroke="black" stroke-weight="1"></path><path id="SvgjsPath2934" d="M 14.505706578981147 176.56810266590503 C 14.505706578981147 176.56810266590503 261.6551760267486 246.51549114176578 36.45236336262849 238.56034221968343" fill="none" stroke="black" stroke-weight="1"></path><path id="SvgjsPath2935" d="M 11.95085588258064 174.83239449023748 C 11.95085588258064 174.83239449023748 265.8680389267199 250.1571183942833 32.16809600672552 232.77464830079163" fill="none" stroke="black" stroke-weight="1"></path><path id="SvgjsPath2936" d="M 9.57397158568537 173.03461826080533 C 9.57397158568537 173.03461826080533 269.79129207228266 253.54840501163415 28.178347045136277 226.78206086935114" fill="none" stroke="black" stroke-weight="1"></path><path id="SvgjsPath2937" d="M 7.3804414155229665 171.17926748191846 C 7.3804414155229665 171.17926748191846 273.41512937376365 256.6808745434228 24.49308877244377 220.5975582730615" fill="none" stroke="black" stroke-weight="1"></path><path id="SvgjsPath2938" d="M 5.375241374474001 169.27097956427613 C 5.375241374474001 169.27097956427613 276.73049312516696 259.5466974471782 21.12153241508443 214.2365985475871" fill="none" stroke="black" stroke-weight="1"></path><path id="SvgjsPath2939" d="M 3.5629234433989154 167.31452423385525 C 3.5629234433989154 167.31452423385525 279.7290966437223 262.1387106581329 18.072105108078944 207.71508077951754" fill="none" stroke="black" stroke-weight="1"></path><path id="SvgjsPath2940" d="M 1.9476043318245502 165.3147916100796 C 1.9476043318245502 165.3147916100796 282.403444982276 264.4504354931538 15.352428831583723 201.04930536693197" fill="none" stroke="black" stroke-weight="1"></path><path id="SvgjsPath2941" d="M 0.5329553030730381 163.27677998306802 C 0.5329553030730381 163.27677998306802 284.74685366275514 266.4760938440765 12.96930135991002 194.2559332768934" fill="none" stroke="black" stroke-weight="1"></path><path id="SvgjsPath2942" d="M -0.6778069002665461 161.20558332051218 C -0.6778069002665461 161.20558332051218 286.75346538388214 268.21062261996593 10.928679270628322 187.3519444017073" fill="none" stroke="black" stroke-weight="1"></path><path id="SvgjsPath2943" d="M -1.6819280078706527 159.10637853541007 C -1.6819280078706527 159.10637853541007 288.41826466137746 269.64968640220764 9.235663056226315 180.35459511803356" fill="none" stroke="black" stroke-weight="1"></path><path id="SvgjsPath2944" d="M -2.477123030367551 156.9844125464796 C -2.477123030367551 156.9844125464796 289.7370903640581 270.789688280796 7.894484375534148 173.28137515493202" fill="none" stroke="black" stroke-weight="1"></path><path id="SvgjsPath2945" d="M -3.061581908180159 154.84498916359468 C -3.061581908180159 154.84498916359468 290.7066461144984 271.62777884473593 6.9084954767812405 166.14996387864895" fill="none" stroke="black" stroke-weight="1"></path><path id="SvgjsPath2946" d="M -3.4339739864244905 152.69345583102245 C -3.4339739864244905 152.69345583102245 291.3245085282572 272.16186330408675 6.280160818721441 158.9781861034081" fill="none" stroke="black" stroke-weight="1"></path><path id="SvgjsPath2947" d="M -3.593451304691058 150.5351902615973 C -3.593451304691058 150.5351902615973 291.58913327107666 272.39060672584594 6.011050910769512 151.7839675386577" fill="none" stroke="black" stroke-weight="1"></path><path id="SvgjsPath2948" d="M -3.5396506934978333 148.37558699523981 C -3.5396506934978333 148.37558699523981 291.49985891891356 272.3134373705863 6.101838387545513 144.5852899841327" fill="none" stroke="black" stroke-weight="1"></path><path id="SvgjsPath2949" d="M -3.272694672180222 146.22004391541628 C -3.272694672180222 146.22004391541628 291.0569086111551 271.930548121507 6.552296327638857 137.4001463847209" fill="none" stroke="black" stroke-weight="1"></path><path id="SvgjsPath2950" d="M -2.793191145977204 144.0739487572412 C -2.793191145977204 144.0739487572412 290.2613894928868 271.24289600232584 7.36129882079311 130.24649585747065" fill="none" stroke="black" stroke-weight="1"></path><path id="SvgjsPath2951" d="M -2.102231903069395 141.9426656409452 C -2.102231903069395 141.9426656409452 289.1152899476058 270.2521997852185 8.526823782095846 123.14221880315063" fill="none" stroke="black" stroke-weight="1"></path><path id="SvgjsPath2952" d="M -1.2013899153209877 139.83152166436813 C -1.2013899153209877 139.83152166436813 287.62147462729814 268.96093569478313 10.045958006137454 116.10507221456042" fill="none" stroke="black" stroke-weight="1"></path><path id="SvgjsPath2953" d="M -0.09271544946480503 137.745793587989 C -0.09271544946480503 137.745793587989 285.7836772923008 267.37233121876847 11.914904448507713 109.15264529329667" fill="none" stroke="black" stroke-weight="1"></path><path id="SvgjsPath2954" d="M 1.2212690015623764 135.69069464577265 C 1.2212690015623764 135.69069464577265 283.6064914788449 265.4903570410354 14.12899171642897 102.30231548590882" fill="none" stroke="black" stroke-weight="1"></path><path id="SvgjsPath2955" d="M 2.737574954480209 133.67136151479968 C 2.737574954480209 133.67136151479968 281.0953590176075 263.31971711691494 16.68268574480595 95.57120504933229" fill="none" stroke="black" stroke-weight="1"></path><path id="SvgjsPath2956" d="M 4.452755323153468 131.69284147624913 C 4.452755323153468 131.69284147624913 278.2565564319692 260.86583691577 19.569603628505888 88.97613825416374" fill="none" stroke="black" stroke-weight="1"></path><path id="SvgjsPath2957" d="M 6.3629129392674315 129.7600797998241 C 6.3629129392674315 129.7600797998241 275.0971792499744 258.1348498601473 22.78252957629728 82.53359933274696" fill="none" stroke="black" stroke-weight="1"></path><path id="SvgjsPath2958" d="M 8.46371018491891 127.87790738315289 C 8.46371018491891 127.87790738315289 271.62512426920625 255.13358199541557 26.313432946569947 76.25969127717629" fill="none" stroke="black" stroke-weight="1"></path><path id="SvgjsPath2959" d="M 10.750379713077052 126.05102867706067 C 10.750379713077052 126.05102867706067 267.8490698189054 251.8695349282063 30.153488319757273 70.17009559020227" fill="none" stroke="black" stroke-weight="1"></path><path id="SvgjsPath2960" d="M 13.217736229150887 124.2840099268926 C 13.217736229150887 124.2840099268926 263.7784540686662 248.35086707630467 34.29309755728863 64.28003308964198" fill="none" stroke="black" stroke-weight="1"></path><path id="SvgjsPath2961" d="M 15.86018930425422 122.58126775927855 C 15.86018930425422 122.58126775927855 259.42345143792875 244.5863732768537 38.72191379193687 58.60422586426182" fill="none" stroke="black" stroke-weight="1"></path><path id="SvgjsPath2962" d="M 18.671757188181886 120.94705814286664 C 18.671757188181886 120.94705814286664 254.79494716522856 240.58546280384164 43.428867289598074 53.156860476222164" fill="none" stroke="black" stroke-weight="1"></path><path id="SvgjsPath2963" d="M 21.646081587617147 119.38546575061795 C 21.646081587617147 119.38546575061795 249.9045101007688 236.35813584981707 48.40219311786228 47.951552502059855" fill="none" stroke="black" stroke-weight="1"></path><path id="SvgjsPath2964" d="M 24.776443372679296 117.90039375025142 C 24.776443372679296 117.90039375025142 244.76436379031992 231.91495853061554 53.62946055221701 43.00131250083811" fill="none" stroke="black" stroke-weight="1"></path><path id="SvgjsPath2965" d="M 28.055779172605625 116.49555404835752 C 28.055779172605625 116.49555404835752 239.38735592272192 227.2670364755732 59.097604146384484 38.31851349452505" fill="none" stroke="black" stroke-weight="1"></path><path id="SvgjsPath2966" d="M 31.476698819142882 115.1744580125646 C 31.476698819142882 115.1744580125646 233.7869262173524 222.4259870692368 64.79295638913318 33.91486004188201" fill="none" stroke="black" stroke-weight="1"></path><path id="SvgjsPath2967" d="M 35.03150359410701 113.94040769494862 C 35.03150359410701 113.94040769494862 227.9770728318271 217.40391041395225 70.70128186593855 29.80135898316206" fill="none" stroke="black" stroke-weight="1"></path><path id="SvgjsPath2968" d="M 38.71220523556353 112.79648757862259 C 38.71220523556353 112.79648757862259 221.97231737389652 212.21335908591055 76.80781284010524 25.988291928741944" fill="none" stroke="black" stroke-weight="1"></path><path id="SvgjsPath2969" d="M 42.51054565518896 111.74555686813525 C 42.51054565518896 111.74555686813525 215.7876686049895 206.86730676024519 83.09728616441744 22.485189560450863" fill="none" stroke="black" stroke-weight="1"></path><path id="SvgjsPath2970" d="M 46.418017317600615 110.79024234294879 C 46.418017317600615 110.79024234294879 209.43858492612577 201.37911578360024 89.55398143105856 19.30080780982928" fill="none" stroke="black" stroke-weight="1"></path><path id="SvgjsPath2971" d="M 50.42588423078807 109.93293179185788 C 50.42588423078807 109.93293179185788 202.94093573996332 195.76250377522254 96.1617602644441 16.443105972859627" fill="none" stroke="black" stroke-weight="1"></path><path id="SvgjsPath2972" d="M 54.525203495257884 109.17576804476155 C 54.525203495257884 109.17576804476155 196.31096178555708 190.03150934005782 102.90410665875551 13.919226815871895" fill="none" stroke="black" stroke-weight="1"></path><path id="SvgjsPath2973" d="M 58.70684735810909 108.52064361670435 C 58.70684735810909 108.52064361670435 189.56523454496966 184.20045697955004 109.76416825935294 11.735478722347807" fill="none" stroke="black" stroke-weight="1"></path><metadata>64 * Math.cos(t/3)+64 * Math.cos(t/1);36 * Math.sin(t/1);59 * Math.cos(t/1)+59 * Math.cos(t/1);51 * Math.cos(t/1)+51 * Math.cos(t/1)</metadata></svg>