<svg id="SvgjsSvg3220" width="300" height="300" xmlns="http://www.w3.org/2000/svg" version="1.1" xmlns:xlink="http://www.w3.org/1999/xlink" xmlns:svgjs="http://svgjs.com/svgjs"><defs id="SvgjsDefs3221"></defs><path id="SvgjsPath3222" d="M 75.81759172897803 198.29906831399546 C 75.81759172897803 198.29906831399546 131.45898033750314 133.68390269700276 266.4984471899924 65.35892366988384" fill="none" stroke="black" stroke-weight="1"></path><path id="SvgjsPath3223" d="M 75.23825215227625 198.49327214209336 C 75.23825215227625 198.49327214209336 132.8912102808854 134.94426504717916 270.5831451477694 71.28719858706606" fill="none" stroke="black" stroke-weight="1"></path><path id="SvgjsPath3224" d="M 74.70563623437934 198.58935889648214 C 74.70563623437934 198.58935889648214 134.3341326609269 136.21403674161567 274.366448041165 77.41221451494609" fill="none" stroke="black" stroke-weight="1"></path><path id="SvgjsPath3225" d="M 74.22007684289859 198.5851409723368 C 74.22007684289859 198.5851409723368 135.78684569810937 137.49242421433624 277.8388995832519 83.71866210355095" fill="none" stroke="black" stroke-weight="1"></path><path id="SvgjsPath3226" d="M 73.78187743664806 198.47866826034561 C 73.78187743664806 198.47866826034561 137.24844149407232 138.77862851478363 280.99182045359237 90.19077851824333" fill="none" stroke="black" stroke-weight="1"></path><path id="SvgjsPath3227" d="M 73.39131187599264 198.26823424631138 C 73.39131187599264 198.26823424631138 138.71800659902038 140.07184580713795 283.81732999202023 96.81238683859969" fill="none" stroke="black" stroke-weight="1"></path><path id="SvgjsPath3228" d="M 73.04862425169426 197.95238150938437 C 73.04862425169426 197.95238150938437 140.19462258259935 141.37126787268744 286.3083658961863 103.56693649228609" fill="none" stroke="black" stroke-weight="1"></path><path id="SvgjsPath3229" d="M 72.7540287323632 197.52990660441355 C 72.7540287323632 197.52990660441355 141.6773666078853 142.67608261493905 288.4587018736366 110.43754462286975" fill="none" stroke="black" stroke-weight="1"></path><path id="SvgjsPath3230" d="M 72.50770943060945 196.99986431543812 C 72.50770943060945 196.99986431543812 143.16531200812796 143.9854745671526 290.26296320430083 117.40703828816791" fill="none" stroke="black" stroke-weight="1"></path><path id="SvgjsPath3231" d="M 72.30982028797867 196.3615712689095 C 72.30982028797867 196.3615712689095 144.6575288658868 145.2986254019804 291.71664017449336 124.45799738365918" fill="none" stroke="black" stroke-weight="1"></path><path id="SvgjsPath3232" d="M 72.16048497874336 195.61460889683107 C 72.16048497874336 195.61460889683107 146.15308459419958 146.6147144428956 292.8160993488492 131.57279818367348" fill="none" stroke="black" stroke-weight="1"></path><path id="SvgjsPath3233" d="M 72.05979683261074 194.7588257416246 C 72.05979683261074 194.7588257416246 147.65104451941846 147.93291917708825 293.5585926520197 138.73365739152743" fill="none" stroke="black" stroke-weight="1"></path><path id="SvgjsPath3234" d="M 72.00781877639461 193.79433909617632 C 72.00781877639461 193.79433909617632 149.15047246535084 149.25241576950876 293.94226423742987 145.92267658850474" fill="none" stroke="black" stroke-weight="1"></path><path id="SvgjsPath3235" d="M 72.00458329468815 192.72153597417434 C 72.00458329468815 192.72153597417434 150.65043133833916 150.57237957773845 293.9661551259285 153.12188697058193" fill="none" stroke="black" stroke-weight="1"></path><path id="SvgjsPath3236" d="M 72.05009240956208 191.5410734075233 C 72.05009240956208 191.5410734075233 152.14998371291338 151.89198566736377 293.63020560273657 160.31329426107985" fill="none" stroke="black" stroke-weight="1"></path><path id="SvgjsPath3237" d="M 72.14431767930103 190.25387806930135 C 72.14431767930103 190.25387806930135 153.6481924176521 153.21040932753385 292.93525536670285 167.47892368698487" fill="none" stroke="black" stroke-weight="1"></path><path id="SvgjsPath3238" d="M 72.28720021617855 188.86114522241218 C 72.28720021617855 188.86114522241218 155.14412112088354 154.52682658637752 291.8830414314944 174.60086490651994" fill="none" stroke="black" stroke-weight="1"></path><path id="SvgjsPath3239" d="M 72.47865072326013 187.3643369957688 C 72.47865072326013 187.3643369957688 156.63683491586283 155.8404147259593 290.4761937839668 181.6613167756716" fill="none" stroke="black" stroke-weight="1"></path><path id="SvgjsPath3240" d="M 72.71854955021082 185.76517999152827 C 72.71854955021082 185.76517999152827 158.12540090505794 157.150352796451 288.71822881056664 188.64263184177898" fill="none" stroke="black" stroke-weight="1"></path><path id="SvgjsPath3241" d="M 73.00674676807282 184.0656622285691 C 73.00674676807282 184.0656622285691 159.60888878318062 158.45582212919894 286.61354050819716 195.52736045297556" fill="none" stroke="black" stroke-weight="1"></path><path id="SvgjsPath3242" d="M 73.34306226296619 182.2680294290645 C 73.34306226296619 182.2680294290645 161.08637141859668 159.7560068483651 284.16738950151375 202.29829437323065" fill="none" stroke="black" stroke-weight="1"></path><path id="SvgjsPath3243" d="M 73.72728584865418 180.37478065664843 C 73.72728584865418 180.37478065664843 162.5569254327531 161.05009438082274 281.38588989410226 208.938509793978" fill="none" stroke="black" stroke-weight="1"></path><path id="SvgjsPath3244" d="M 74.15917739790272 178.38866331629436 C 74.15917739790272 178.38866331629436 164.0196317772596 162.33727596398847 278.2759939864043 215.4314096348228" fill="none" stroke="black" stroke-weight="1"></path><path id="SvgjsPath3245" d="M 74.63846699255224 176.31266752762585 C 74.63846699255224 176.31266752762585 165.473576308264 163.6167471512723 274.8454748985865 221.76076502759997" fill="none" stroke="black" stroke-weight="1"></path><path id="SvgjsPath3246" d="M 75.1648550922076 174.15001988494768 C 75.1648550922076 174.15001988494768 166.91785035776238 164.8877083148309 271.1029071417887 227.9107558800921" fill="none" stroke="black" stroke-weight="1"></path><path id="SvgjsPath3247" d="M 75.73801272144122 171.90417661882273 C 75.73801272144122 171.90417661882273 168.351551301487 166.14936514530856 267.0576451863112 233.86601041802132" fill="none" stroke="black" stroke-weight="1"></path><path id="SvgjsPath3248" d="M 76.35758167539193 169.5788161755211 C 76.35758167539193 169.5788161755211 169.77378312301698 167.40092914825493 262.7198000803111 239.61164360647948" fill="none" stroke="black" stroke-weight="1"></path><path id="SvgjsPath3249" d="M 77.02317474363129 167.17783123212737 C 77.02317474363129 167.17783123212737 171.1836569737595 168.64161813690836 258.1002141774473 245.13329435476317" fill="none" stroke="black" stroke-weight="1"></path><path id="SvgjsPath3250" d="M 77.73437595215768 164.70532016650813 C 77.73437595215768 164.70532016650813 172.58029172845116 169.87065672103702 253.21043403664316 250.41716141162186" fill="none" stroke="black" stroke-weight="1"></path><path id="SvgjsPath3251" d="M 78.49074082336637 162.16557800271107 C 78.49074082336637 162.16557800271107 173.96281453583282 171.08727679153287 248.06268156170233 255.45003786119835" fill="none" stroke="black" stroke-weight="1"></path><path id="SvgjsPath3252" d="M 79.29179665383357 159.56308685368433 C 79.29179665383357 159.56308685368433 175.33036136415282 172.2907180004545 242.6698234529146 260.21934413343985" fill="none" stroke="black" stroke-weight="1"></path><path id="SvgjsPath3253" d="M 80.13704280974076 156.90250588446713 C 80.13704280974076 156.90250588446713 176.68207754115915 173.48022823622003 237.04533904700568 264.7131594464725" fill="none" stroke="black" stroke-weight="1"></path><path id="SvgjsPath3254" d="M 81.02595103975445 154.1886608202109 C 81.02595103975445 154.1886608202109 178.01711828824133 174.65506409365238 231.2032866258155 268.92025160234755" fill="none" stroke="black" stroke-weight="1"></path><path id="SvgjsPath3255" d="M 81.95796580516604 151.42653302453374 C 81.95796580516604 151.42653302453374 179.33464924838992 175.8144913385831 225.15826827791494 272.8301050616866" fill="none" stroke="black" stroke-weight="1"></path><path id="SvgjsPath3256" d="M 82.93250462708562 148.6212481747942 C 82.93250462708562 148.6212481747942 180.63384700764234 176.95778536672526 218.92539340098898 276.43294722705355" fill="none" stroke="black" stroke-weight="1"></path><path id="SvgjsPath3257" d="M 83.94895845047203 145.77806456188688 C 83.94895845047203 145.77806456188688 181.9138996096897 178.08423165652695 212.5202409362116 279.71977286935885" fill="none" stroke="black" stroke-weight="1"></path><path id="SvgjsPath3258" d="M 85.00669202477269 142.9023610431089 C 85.00669202477269 142.9023610431089 183.17400706332336 179.19312621572456 205.95882042900575 282.68236663624253" fill="none" stroke="black" stroke-weight="1"></path><path id="SvgjsPath3259" d="M 86.10504430093437 139.99962467752513 C 86.10504430093437 139.99962467752513 184.41338184240297 180.2837760213146 199.25753201351756 285.31332358617647" fill="none" stroke="black" stroke-weight="1"></path><path id="SvgjsPath3260" d="M 87.24332884453737 137.07543807406157 C 87.24332884453737 137.07543807406157 185.631249378035 181.3554994526708 192.4331254208225 287.6060676969615" fill="none" stroke="black" stroke-weight="1"></path><path id="SvgjsPath3261" d="M 88.4208342647947 134.13546648328582 C 88.4208342647947 134.13546648328582 186.82684854265295 182.4076267175346 185.5026581133199 289.55486830235884" fill="none" stroke="black" stroke-weight="1"></path><path id="SvgjsPath3262" d="M 89.63682465914815 131.1854446644861 C 89.63682465914815 131.1854446644861 187.99943212569744 183.43950027061373 178.48345264996095 291.1548544157707" fill="none" stroke="black" stroke-weight="1"></path><path id="SvgjsPath3263" d="M 90.89054007318347 128.23116356023095 C 90.89054007318347 128.23116356023095 189.1482673005983 184.45047522452649 171.39305338887243 292.4020269051703" fill="none" stroke="black" stroke-weight="1"></path><path id="SvgjsPath3264" d="M 92.18119697557705 125.27845681108705 C 92.18119697557705 125.27845681108705 190.2726360827674 185.43991975283532 164.2491826355986 293.293268488849" fill="none" stroke="black" stroke-weight="1"></path><path id="SvgjsPath3265" d="M 93.50798874777763 122.33318714358273 C 93.50798874777763 122.33318714358273 191.3718357783156 186.40721548491774 157.06969634656662 293.8263515269971" fill="none" stroke="black" stroke-weight="1"></path><path id="SvgjsPath3266" d="M 94.87008618811649 119.40123266483452 C 94.87008618811649 119.40123266483452 192.4451794232138 187.35175789242814 149.87253949849492 293.99994358964364" fill="none" stroke="black" stroke-weight="1"></path><path id="SvgjsPath3267" d="M 96.26663803003161 116.48847309750067 C 96.26663803003161 116.48847309750067 193.49199621262272 188.272956667108 142.6757012352968 293.81361078703696" fill="none" stroke="black" stroke-weight="1"></path><path id="SvgjsPath3268" d="M 97.69677147408153 113.60077598888729 C 97.69677147408153 113.60077598888729 194.51163192012436 189.17023608970942 135.49716990458938 293.26781885414346" fill="none" stroke="black" stroke-weight="1"></path><path id="SvgjsPath3269" d="M 99.15959273341656 110.7439829281115 C 99.15959273341656 110.7439829281115 195.50344930659205 190.043035389801 128.3548880961926 292.3639319865522" fill="none" stroke="black" stroke-weight="1"></path><path id="SvgjsPath3270" d="M 100.6541875923665 107.92389580521981 C 100.6541875923665 107.92389580521981 196.46682851844432 190.890809096231 121.26670779499912 291.1042094306971" fill="none" stroke="black" stroke-weight="1"></path><path id="SvgjsPath3271" d="M 102.1796219777957 105.14626314606869 C 102.1796219777957 105.14626314606869 197.40116747503316 191.71302737802918 114.25034576030856 289.4917998369169" fill="none" stroke="black" stroke-weight="1"></path><path id="SvgjsPath3272" d="M 103.73494254286831 102.41676655660136 C 103.73494254286831 102.41676655660136 198.30588224492473 192.50917637553377 107.32333924315722 287.53073338946956" fill="none" stroke="black" stroke-weight="1"></path><path id="SvgjsPath3273" d="M 105.31917726285894 99.74100730989386 C 105.31917726285894 99.74100730989386 199.18040741083752 193.27875852153701 100.50300215232295 285.2259117331699" fill="none" stroke="black" stroke-weight="1"></path><path id="SvgjsPath3274" d="M 106.9313360426367 97.12449310900377 C 106.9313360426367 97.12449310900377 200.02419642300993 194.02129285224873 93.80638177856969 282.5830957218308" fill="none" stroke="black" stroke-weight="1"></path><path id="SvgjsPath3275" d="M 108.57041133544234 94.57262505823113 C 108.57041133544234 94.57262505823113 200.83672194077585 194.73631530788276 87.25021618529914 279.6088910191284" fill="none" stroke="black" stroke-weight="1"></path><path id="SvgjsPath3276" d="M 110.235378772572 92.09068487489532 C 110.235378772572 92.09068487489532 201.61747616213552 195.42337902267926 80.85089237210967 276.3107315878839" fill="none" stroke="black" stroke-weight="1"></path><path id="SvgjsPath3277" d="M 111.92519780357446 89.68382237314637 C 111.92519780357446 89.68382237314637 202.3659711411152 196.0820546041814 74.62440531583105 272.69686110902705" fill="none" stroke="black" stroke-weight="1"></path><path id="SvgjsPath3278" d="M 113.63881234656137 87.35704325066689 C 113.63881234656137 87.35704325066689 203.08173909271767 196.71193040159153 68.586317991412 268.77631237668777" fill="none" stroke="black" stroke-weight="1"></path><path id="SvgjsPath3279" d="M 115.37515144822397 85.11519720838037 C 115.37515144822397 85.11519720838037 203.76433268527236 197.31261276303968 62.75172247258823 264.5588847209143" fill="none" stroke="black" stroke-weight="1"></path><path id="SvgjsPath3280" d="M 117.13312995314398 82.96296643246511 C 117.13312995314398 82.96296643246511 204.41332532000337 197.88372628160295 57.13520220955843 260.0551195144524" fill="none" stroke="black" stroke-weight="1"></path><path id="SvgjsPath3281" d="M 118.9116491819804 80.90485446708547 C 118.9116491819804 80.90485446708547 205.02831139763953 198.42491402992277 51.750795577953156 255.27627382480273" fill="none" stroke="black" stroke-weight="1"></path><path id="SvgjsPath3282" d="M 120.70959761810857 78.94517550529318 C 120.70959761810857 78.94517550529318 205.60890657190106 198.93583778327292 46.61196079020645 250.23429227741468" fill="none" stroke="black" stroke-weight="1"></path><path id="SvgjsPath3283" d="M 122.52585160228173 77.08804412452395 C 122.52585160228173 77.08804412452395 206.1547479897032 199.4161782309388 41.73154225703409 244.94177720034318" fill="none" stroke="black" stroke-weight="1"></path><path id="SvgjsPath3284" d="M 124.35927603488133 75.33736549202095 C 124.35927603488133 75.33736549202095 206.6654945179277 199.8656351757764 37.121738483096365 239.41195712499257" fill="none" stroke="black" stroke-weight="1"></path><path id="SvgjsPath3285" d="M 126.20872508531748 73.69682606436025 C 126.20872508531748 73.69682606436025 207.14082695661997 200.2839277218256 32.79407157708884 233.65865372167679" fill="none" stroke="black" stroke-weight="1"></path><path id="SvgjsPath3286" d="M 128.07304290813587 72.16988480403673 C 128.07304290813587 72.16988480403673 207.5804482384786 200.67079444986115 28.759358452471048 227.69624725264146" fill="none" stroke="black" stroke-weight="1"></path><path id="SvgjsPath3287" d="M 129.95106436538347 70.7597649347958 C 129.95106436538347 70.7597649347958 207.98408361451266 201.02599358077114 25.027683790816383 221.53964062889764" fill="none" stroke="black" stroke-weight="1"></path><path id="SvgjsPath3288" d="M 131.84161575478169 69.46944625606743 C 131.84161575478169 69.46944625606743 208.35148082575105 201.3493031266609 21.608374835360593 215.2042221607062" fill="none" stroke="black" stroke-weight="1"></path><path id="SvgjsPath3289" d="M 133.7435155432522 68.30165803548006 C 133.7435155432522 68.30165803548006 208.68241026089603 201.6405210295885 18.509978077750702 208.7058270948157" fill="none" stroke="black" stroke-weight="1"></path><path id="SvgjsPath3290" d="M 135.6555751053367 67.25887249700757 C 135.6555751053367 67.25887249700757 208.97666509982287 201.89946528784412 15.740237896266791 202.0606980345919" fill="none" stroke="black" stroke-weight="1"></path><path id="SvgjsPath3291" d="M 137.5765994660493 66.34329892083122 C 137.5765994660493 66.34329892083122 209.23406144283564 202.12597406969536 13.306077198909662 195.2854443419688" fill="none" stroke="black" stroke-weight="1"></path><path id="SvgjsPath3292" d="M 139.50538804769647 65.55687836948995 C 139.50538804769647 65.55687836948995 209.4544384255986 202.31990581452675 11.213580119736434 188.39700062269424" fill="none" stroke="black" stroke-weight="1"></path><path id="SvgjsPath3293" d="M 141.4407354201994 64.90127905334496 C 141.4407354201994 64.90127905334496 209.63765831967106 202.4811393213105 9.467976811693717 181.41258439863458" fill="none" stroke="black" stroke-weight="1"></path><path id="SvgjsPath3294" d="M 143.38143205444857 64.3778923468077 C 143.38143205444857 64.3778923468077 209.78360661858326 202.60957382435328 8.07363037395885 174.34965307293604" fill="none" stroke="black" stroke-weight="1"></path><path id="SvgjsPath3295" d="M 145.32626507822016 63.98782946517187 C 145.32626507822016 63.98782946517187 209.8921921093993 202.70512905627137 7.034025946464595 167.2258602956091" fill="none" stroke="black" stroke-weight="1"></path><path id="SvgjsPath3296" d="M 147.27401903418115 63.73191881025946 C 147.27401903418115 63.73191881025946 209.96334692972198 202.76774529815532 6.3517619988642195 160.0590118385977" fill="none" stroke="black" stroke-weight="1"></path><path id="SvgjsPath3297" d="M 149.22347663951126 63.61070399143773 C 149.22347663951126 63.61070399143773 209.99702661010474 202.7973834168922 6.028543835710536 152.86702109062225" fill="none" stroke="black" stroke-weight="1"></path><path id="SvgjsPath3298" d="M 151.17341954666472 63.62444252689728 C 151.17341954666472 63.62444252689728 209.99321010184377 202.7940248896225 6.065179334082615 145.6678642830359" fill="none" stroke="black" stroke-weight="1"></path><path id="SvgjsPath3299" d="M 153.12262910479802 63.773105228398876 C 153.12262910479802 63.773105228398876 209.9518997901324 202.7576718153165 6.461576924313931 138.47953555860906" fill="none" stroke="black" stroke-weight="1"></path><path id="SvgjsPath3300" d="M 155.06988712138684 64.05637627100968 C 155.06988712138684 64.05637627100968 209.87312149257076 202.68834691346228 7.216745818868844 131.32000199554378" fill="none" stroke="black" stroke-weight="1"></path><path id="SvgjsPath3301" d="M 157.01397662355663 64.47365394765657 C 157.01397662355663 64.47365394765657 209.75692444303053 202.58609350986686 8.328798488795229 124.20715869913502" fill="none" stroke="black" stroke-weight="1"></path><path id="SvgjsPath3302" d="M 158.9536826186515 65.02405210663186 C 158.9536826186515 65.02405210663186 209.60338126088527 202.45097550957902 9.794955381564137 117.15878407332632" fill="none" stroke="black" stroke-weight="1"></path><path id="SvgjsPath3303" d="M 160.88779285356475 65.70640226850051 C 160.88779285356475 65.70640226850051 209.41258790562574 202.28307735695066 11.611551868503454 110.19249538395945" fill="none" stroke="black" stroke-weight="1"></path><path id="SvgjsPath3304" d="M 162.81509857235747 66.51925641717861 C 162.81509857235747 66.51925641717861 209.18466361688843 202.08250398286182 13.774047404460987 103.32570472478503" fill="none" stroke="black" stroke-weight="1"></path><path id="SvgjsPath3305" d="M 164.73439527169185 67.46089045828792 C 164.73439527169185 67.46089045828792 208.91975083993455 201.84938073914242 16.27703687680261 96.57557549629578" fill="none" stroke="black" stroke-weight="1"></path><path id="SvgjsPath3306" d="M 166.6444834536067 68.52930833624279 C 166.6444834536067 68.52930833624279 208.61801513662638 201.5838533202312 19.114264115379285 89.95897950616339" fill="none" stroke="black" stroke-weight="1"></path><path id="SvgjsPath3307" d="M 168.54416937516444 69.7222467998995 C 168.54416937516444 69.7222467998995 208.27964508195657 201.28608767212177 22.278637529694052 83.49245479850633" fill="none" stroke="black" stroke-weight="1"></path><path id="SvgjsPath3308" d="M 170.4322657945015 71.03718080499515 C 170.4322657945015 71.03718080499515 207.90485214619486 200.9562698886515 25.762247834184862 77.19216431739304" fill="none" stroke="black" stroke-weight="1"></path><path id="SvgjsPath3309" d="M 172.30759271281585 72.47132954003304 C 172.30759271281585 72.47132954003304 207.49387056272613 200.594606095199 29.556387817319518 71.07385550789864" fill="none" stroke="black" stroke-weight="1"></path><path id="SvgjsPath3310" d="M 174.16897811182818 74.02166306073045 C 174.16897811182818 74.02166306073045 207.04695718166195 200.20132231986253 33.651574105090205 65.15282095569304" fill="none" stroke="black" stroke-weight="1"></path><path id="SvgjsPath3311" d="M 176.01525868625492 75.68490951664397 C 176.01525868625492 75.68490951664397 206.56439130931784 199.7766643521997 38.03757086450943 59.44386016354136" fill="none" stroke="black" stroke-weight="1"></path><path id="SvgjsPath3312" d="M 177.84528057083594 77.45756295212625 C 177.84528057083594 77.45756295212625 206.04647453365584 199.32089758961712 42.70341538786148 53.96124256025486" fill="none" stroke="black" stroke-weight="1"></path><path id="SvgjsPath3313" d="M 179.65790006146315 79.3358916623515 C 179.65790006146315 79.3358916623515 205.4935305358018 198.8343068715056 47.637445493762655 48.71867183454994" fill="none" stroke="black" stroke-weight="1"></path><path id="SvgjsPath3314" d="M 181.45198432995826 81.31594708377867 C 181.45198432995826 81.31594708377867 204.9059048877553 198.31719630122467 52.82732867654158 43.72925168296254" fill="none" stroke="black" stroke-weight="1"></path><path id="SvgjsPath3315" d="M 183.2264121320535 83.39357319710295 C 183.2264121320535 83.39357319710295 204.28396483641828 197.76988905604807 58.260092931080365 39.00545305743172" fill="none" stroke="black" stroke-weight="1"></path><path id="SvgjsPath3316" d="M 184.98007450813262 85.56441641948543 C 184.98007450813262 85.56441641948543 203.62809907407782 197.1927271851885 63.922159176071474 34.55908299441475" fill="none" stroke="black" stroke-weight="1"></path><path id="SvgjsPath3317" d="M 186.71187547629467 87.8239359616448 C 186.71187547629467 87.8239359616448 202.9387174954861 196.58607139602776 69.79937519464927 30.401255103444512" fill="none" stroke="black" stroke-weight="1"></path><path id="SvgjsPath3318" d="M 188.42073271730717 90.16741462425244 C 188.42073271730717 90.16741462425244 202.2162509416893 195.95030082868658 75.87705100756247 26.54236178889333" fill="none" stroke="black" stroke-weight="1"></path><path id="SvgjsPath3319" d="M 190.10557825102023 92.58997000698969 C 190.10557825102023 92.58997000698969 201.46115093076628 195.28581281907435 82.13999559047137 22.992048274374753" fill="none" stroke="black" stroke-weight="1"></path><path id="SvgjsPath3320" d="M 191.76535910381935 95.0865661026152 C 191.76535910381935 95.0865661026152 200.6738893756443 194.593022650567 88.57255484359698 19.759188494707615" fill="none" stroke="black" stroke-weight="1"></path><path id="SvgjsPath3321" d="M 193.39903796669964 97.6520252474439 C 193.39903796669964 97.6520252474439 199.8549582891689 193.87236329446864 95.15865071881835 16.851862915700423" fill="none" stroke="black" stroke-weight="1"></path><path id="SvgjsPath3322" d="M 195.00559384355043 100.28104039876561 C 195.00559384355043 100.28104039876561 199.0048694766117 193.1242851394183 101.88182140642009 14.277338337194607" fill="none" stroke="black" stroke-weight="1"></path><path id="SvgjsPath3323" d="M 196.58402268924436 102.96818770893046 C 196.58402268924436 102.96818770893046 198.12415421580894 192.34925570991186 108.72526248104302 12.042049729849907" fill="none" stroke="black" stroke-weight="1"></path><path id="SvgjsPath3324" d="M 198.13333803713292 105.70793936510495 C 198.13333803713292 105.70793936510495 197.21336292513016 191.54775937411455 115.67186890399559 10.151584151069017" fill="none" stroke="black" stroke-weight="1"></path><path id="SvgjsPath3325" d="M 199.65257161555598 108.49467666305401 C 199.65257161555598 108.49467666305401 196.2730648194845 190.72029704114635 122.70427777694283 8.610666780263443" fill="none" stroke="black" stroke-weight="1"></path><path id="SvgjsPath3326" d="M 201.14077395298034 111.32270328273555 C 201.14077395298034 111.32270328273555 195.30384755457996 189.86738584803035 129.8049117401104 7.423149108365891" fill="none" stroke="black" stroke-weight="1"></path><path id="SvgjsPath3327" d="M 202.59701497138815 114.18625873300527 C 202.59701497138815 114.18625873300527 194.30631685965767 188.98955883649873 136.95602290652928 6.591999311108822" fill="none" stroke="black" stroke-weight="1"></path><path id="SvgjsPath3328" d="M 204.02038456754562 117.07953193232268 C 204.02038456754562 117.07953193232268 193.28109615893095 188.08736461985922 144.1397372225099 6.119294830131025" fill="none" stroke="black" stroke-weight="1"></path><path id="SvgjsPath3329" d="M 205.40999318178774 119.99667489202533 C 205.40999318178774 119.99667489202533 192.22882618196542 187.16136704012956 151.33809914346813 6.006217180455138" fill="none" stroke="black" stroke-weight="1"></path><path id="SvgjsPath3330" d="M 206.7649723539644 122.93181646849533 C 206.7649723539644 122.93181646849533 191.1501645632438 186.21214481565454 158.53311651343623 6.253048997315716" fill="none" stroke="black" stroke-weight="1"></path><path id="SvgjsPath3331" d="M 208.08447526619943 125.87907615038526 C 208.08447526619943 125.87907615038526 190.04578543116583 185.24029117942592 165.7068055360822 6.859173329718061" fill="none" stroke="black" stroke-weight="1"></path><path id="SvgjsPath3332" d="M 209.36767727212444 128.83257784699748 C 209.36767727212444 128.83257784699748 188.91637898673991 184.24641350833113 172.84123572483412 7.8230751824946765" fill="none" stroke="black" stroke-weight="1"></path><path id="SvgjsPath3333" d="M 210.61377641225562 131.78646364392205 C 210.61377641225562 131.78646364392205 187.7626510722302 183.23113294356256 179.91857471975936 9.142345303003964" fill="none" stroke="black" stroke-weight="1"></path><path id="SvgjsPath3334" d="M 211.82199391519273 134.7349074921334 C 211.82199391519273 134.7349074921334 186.58532273002766 182.19508400242435 186.92113285917767 10.813686203007194" fill="none" stroke="black" stroke-weight="1"></path><path id="SvgjsPath3335" d="M 212.99157468432566 137.6721287969246 C 212.99157468432566 137.6721287969246 185.3851297520225 181.1389141817798 193.8314073946026 12.832920400672009" fill="none" stroke="black" stroke-weight="1"></path><path id="SvgjsPath3336" d="M 214.1217877697452 140.59240587332326 C 214.1217877697452 140.59240587332326 184.162822219758 180.06328355338704 200.6321262384967 15.195000862101068" fill="none" stroke="black" stroke-weight="1"></path><path id="SvgjsPath3337" d="M 215.21192682506285 143.49008923497786 C 215.21192682506285 143.49008923497786 182.9191640356541 178.9688643513756 207.30629113549594 17.894023616288365" fill="none" stroke="black" stroke-weight="1"></path><path id="SvgjsPath3338" d="M 216.2613105488547 146.3596146839319 C 216.2613105488547 146.3596146839319 181.65493244559292 177.85634055212176 213.83722014919596 20.923242511972404" fill="none" stroke="black" stroke-weight="1"></path><path id="SvgjsPath3339" d="M 217.26928311045233 149.1955161692121 C 217.26928311045233 149.1955161692121 180.37091755316573 176.72640744678586 220.20858935830478 24.275086079500795" fill="none" stroke="black" stroke-weight="1"></path><path id="SvgjsPath3340" d="M 218.23521455981563 151.9924383827469 C 218.23521455981563 151.9924383827469 179.06792182588387 175.57977120677782 226.40447365794432 27.941176455561006" fill="none" stroke="black" stroke-weight="1"></path><path id="SvgjsPath3341" d="M 219.1585012212311 154.74514906179877 C 219.1585012212311 154.74514906179877 177.7467595936626 174.41714844242307 232.40938656411947 31.912350323475735" fill="none" stroke="black" stroke-weight="1"></path><path id="SvgjsPath3342" d="M 220.0385660705897 157.44855096783726 C 220.0385660705897 157.44855096783726 176.40825653989128 173.23926575510433 238.2083189218632 36.178681816722616" fill="none" stroke="black" stroke-weight="1"></path><metadata>65 * Math.cos(t/2);36 * Math.sin(t/2)+36 * Math.cos(t/1);50 * Math.cos(t/2);44 * Math.cos(t/2)</metadata></svg>