<svg id="SvgjsSvg1001" width="600" height="600" xmlns="http://www.w3.org/2000/svg" version="1.1" xmlns:xlink="http://www.w3.org/1999/xlink" xmlns:svgjs="http://svgjs.com/svgjs"><defs id="SvgjsDefs1002"></defs><metadata>90 * Math.cos(t/1);32 * Math.sin(t/1)+32 * Math.sin(t/2);35 * Math.cos(t/2);43 * Math.sin(t/2)</metadata><path id="SvgjsPath1008" d="M 258 150 C 258 150 276 150 150 201.6 " fill="none" stroke="black" stroke-width="1"></path><path id="SvgjsPath1009" d="M 257.7355080273542 154.02953095456778 C 257.7355080273542 154.02953095456778 275.69142603191324 158.81279876452913 148.5303001066179 201.56839822621203 " fill="none" stroke="black" stroke-width="1"></path><path id="SvgjsPath1010" d="M 256.9433275909648 158.04426094009995 C 256.9433275909648 158.04426094009995 274.7672155227923 167.5824324451738 147.0624004118236 201.47363161306924 " fill="none" stroke="black" stroke-width="1"></path><path id="SvgjsPath1011" d="M 255.627338790208 162.0294554371193 C 255.627338790208 162.0294554371193 273.23189525524265 176.26594738060854 145.59809890918694 201.31581623782247 " fill="none" stroke="black" stroke-width="1"></path><path id="SvgjsPath1012" d="M 253.79398733756324 165.97051250720065 C 253.79398733756324 165.97051250720065 271.0929852271571 184.82081171907834 144.13918918494207 201.09514540457207 " fill="none" stroke="black" stroke-width="1"></path><path id="SvgjsPath1013" d="M 251.45225298751694 169.8530282898834 C 251.45225298751694 169.8530282898834 268.36096181876974 193.20512373938686 142.68745822106897 200.81188940749456 " fill="none" stroke="black" stroke-width="1"></path><path id="SvgjsPath1014" d="M 248.6136055537293 173.66286155157772 C 248.6136055537293 173.66286155157772 265.04920647935086 201.37781708550585 141.24468420646383 200.46639519976605 " fill="none" stroke="black" stroke-width="1"></path><path id="SvgjsPath1015" d="M 245.29194872989314 177.38619697765364 C 245.29194872989314 177.38619697765364 261.1739401848753 209.29886190956591 139.81263435887996 200.059085968588 " fill="none" stroke="black" stroke-width="1"></path><path id="SvgjsPath1016" d="M 241.50355198944894 181.0096069050239 C 241.50355198944894 181.0096069050239 256.75414398769044 216.9294609380313 138.39306276030723 199.5904606168358 " fill="none" stroke="black" stroke-width="1"></path><path id="SvgjsPath1017" d="M 237.26697089771238 184.5201112001231 C 237.26697089771238 184.5201112001231 251.81146604733112 224.23223950072597 136.98770820844067 199.06109315196514 " fill="none" stroke="black" stroke-width="1"></path><path id="SvgjsPath1018" d="M 232.60295622672473 187.90523499621668 C 232.60295622672473 187.90523499621668 246.37011559784554 231.1714285919491 135.59829208687103 198.47163198292475 " fill="none" stroke="black" stroke-width="1"></path><path id="SvgjsPath1019" d="M 227.53435231798187 191.15306401439454 C 227.53435231798187 191.15306401439454 240.45674437097884 237.71304006704696 134.22651625660495 197.8227991259363 " fill="none" stroke="black" stroke-width="1"></path><path id="SvgjsPath1020" d="M 222.08598519086127 194.25229720436852 C 222.08598519086127 194.25229720436852 234.10031605600477 243.8250331163283 132.87406097149807 197.1153893201151 " fill="none" stroke="black" stroke-width="1"></path><path id="SvgjsPath1021" d="M 216.28454094479162 197.19229645423889 C 216.28454094479162 197.19229645423889 227.3319644355902 249.4774712009338 131.54258282015417 196.35026905401375 " fill="none" stroke="black" stroke-width="1"></path><path id="SvgjsPath1022" d="M 210.15843505075145 199.96313313266415 C 210.15843505075145 199.96313313266415 220.18484089254332 254.6426686819883 130.23371269681135 195.52837550428228 " fill="none" stroke="black" stroke-width="1"></path><path id="SvgjsPath1023" d="M 203.73767317230647 202.5556312422841 C 203.73767317230647 202.5556312422841 212.69395203435755 259.29532642484617 128.94905380370048 194.65071538774376 " fill="none" stroke="black" stroke-width="1"></path><path id="SvgjsPath1024" d="M 197.05370419788485 204.96140697973973 C 197.05370419788485 204.96140697973973 204.89598823086567 263.41265571423963 127.69017968732288 193.71836372829225 " fill="none" stroke="black" stroke-width="1"></path><path id="SvgjsPath1025" d="M 190.1392662041375 207.1729045151198 C 190.1392662041375 207.1729045151198 196.82914390482708 266.97448987339504 126.45863231105274 192.73246254012284 " fill="none" stroke="black" stroke-width="1"></path><path id="SvgjsPath1026" d="M 183.02822610485518 209.18342782205897 C 183.02822610485518 209.18342782205897 188.53293045566437 269.963383040405 125.25592016642467 191.69421942890705 " fill="none" stroke="black" stroke-width="1"></path><path id="SvgjsPath1027" d="M 175.75541377084204 210.98716840892666 C 175.75541377084204 210.98716840892666 180.04798273264905 272.36469561805166 124.08351642542034 190.6049061126269 " fill="none" stroke="black" stroke-width="1"></path><path id="SvgjsPath1028" d="M 168.35645143322594 212.57922882148424 C 168.35645143322594 212.57922882148424 171.41586000543026 274.166665978546 122.94285713601698 189.4658568638796 " fill="none" stroke="black" stroke-width="1"></path><path id="SvgjsPath1029" d="M 160.86757920578853 213.95564180795463 C 160.86757920578853 213.95564180795463 162.6788424067533 275.3604680719752 121.83533946320804 188.27846687556013 " fill="none" stroke="black" stroke-width="1"></path><path id="SvgjsPath1030" d="M 153.32547758090624 215.11338505854093 C 153.32547758090624 215.11338505854093 153.87972384439064 275.94025465629034 120.762319977651 187.04419055192466 " fill="none" stroke="black" stroke-width="1"></path><path id="SvgjsPath1031" d="M 145.76708776851723 216.05039145294677 C 145.76708776851723 216.05039145294677 145.06160239660343 275.9031859370952 119.72511299403784 185.76453972712713 " fill="none" stroke="black" stroke-width="1"></path><path id="SvgjsPath1032" d="M 138.2294307580938 216.7655547712871 C 138.2294307580938 216.7655547712871 136.2676692177761 275.24944347695754 118.72498896122389 184.44108181341147 " fill="none" stroke="black" stroke-width="1"></path><path id="SvgjsPath1033" d="M 130.74942598985473 217.2587308458226 C 130.74942598985473 217.2587308458226 127.54099698816385 273.98222930611604 117.76317290608685 183.07543788122757 " fill="none" stroke="black" stroke-width="1"></path><path id="SvgjsPath1034" d="M 123.36371052336581 217.53073415310362 C 123.36371052336581 217.53073415310362 118.92432894392678 272.10775023893746 116.84084293302207 181.66928067362267 " fill="none" stroke="black" stroke-width="1"></path><path id="SvgjsPath1035" d="M 116.10845958924058 217.5833298682537 C 116.10845958924058 217.5833298682537 110.45986952078067 269.63518747294336 115.95912878091198 180.22433255734038 " fill="none" stroke="black" stroke-width="1"></path><path id="SvgjsPath1036" d="M 109.01920940287918 217.41922142515733 C 109.01920940287918 217.41922142515733 102.18907763669239 266.57665161930913 115.11911043933722 178.7423634131368 " fill="none" stroke="black" stroke-width="1"></path><path id="SvgjsPath1037" d="M 102.13068310810331 217.0420336481289 C 102.13068310810331 217.0420336481289 94.15246362612052 262.94712338509646 114.32181682572448 177.22518846789777 " fill="none" stroke="black" stroke-width="1"></path><path id="SvgjsPath1038" d="M 95.4766207032153 216.45629154212696 C 95.4766207032153 216.45629154212696 86.38939082041784 258.76438019775804 113.56822452505128 175.6746660712131 " fill="none" stroke="black" stroke-width="1"></path><path id="SvgjsPath1039" d="M 89.08961378250365 215.6673948496311 C 89.08961378250365 215.6673948496311 78.93788274625425 254.04890913130657 112.8592565936515 174.09269541913056 " fill="none" stroke="black" stroke-width="1"></path><path id="SvgjsPath1040" d="M 83.00094590263055 214.68158850281952 C 83.00094590263055 214.68158850281952 71.8344368864023 248.82380656063685 112.1957814285868 172.48121422787835 " fill="none" stroke="black" stroke-width="1"></path><path id="SvgjsPath1041" d="M 77.24043935578739 213.50592911956932 C 77.24043935578739 213.50592911956932 65.11384591508528 243.11466503549326 111.5786117039688 170.84219636040484 " fill="none" stroke="black" stroke-width="1"></path><path id="SvgjsPath1042" d="M 71.83630910012256 212.14824771095434 C 71.83630910012256 212.14824771095434 58.809027283476325 236.94944792817392 111.008503375535 169.1776494086435 " fill="none" stroke="black" stroke-width="1"></path><path id="SvgjsPath1043" d="M 66.81502456289081 210.61710878624163 C 66.81502456289081 210.61710878624163 52.95086199003927 230.35835246894746 110.48615475469737 167.48961223446366 " fill="none" stroke="black" stroke-width="1"></path><path id="SvgjsPath1044" d="M 62.201179993211895 208.92176605880053 C 62.201179993211895 208.92176605880053 47.56804332541387 223.37366184003432 110.01220565319835 165.78015247231974 " fill="none" stroke="black" stroke-width="1"></path><path id="SvgjsPath1045" d="M 58.017373999450925 207.07211497274903 C 58.017373999450925 207.07211497274903 42.68693633269275 216.02958705259678 109.58723659942133 164.05136399665759 " fill="none" stroke="black" stroke-width="1"></path><path id="SvgjsPath1046" d="M 54.284098861245994 205.07864228549337 C 54.284098861245994 205.07864228549337 38.33144867145367 208.36209938122354 109.21176812731613 162.3053643571801 " fill="none" stroke="black" stroke-width="1"></path><path id="SvgjsPath1047" d="M 51.01964015833295 202.95237295549418 C 51.01964015833295 202.95237295549418 34.52291351805509 200.40875417664492 108.88626013880986 160.54429218511373 " fill="none" stroke="black" stroke-width="1"></path><path id="SvgjsPath1048" d="M 48.23998720778495 200.70481459754365 C 48.23998720778495 200.70481459754365 31.279985075749096 192.2085069196441 108.61111134048468 158.77030457365248 " fill="none" stroke="black" stroke-width="1"></path><path id="SvgjsPath1049" d="M 45.958754748345754 198.34789977950356 C 45.958754748345754 198.34789977950356 28.618547206403377 183.80152241713196 108.38665875521198 156.98557443578852 " fill="none" stroke="black" stroke-width="1"></path><path id="SvgjsPath1050" d="M 44.18711625544613 195.89392644477513 C 44.18711625544613 195.89392644477513 26.551635631353818 175.2289780749432 108.2131773093416 155.1922878427657 " fill="none" stroke="black" stroke-width="1"></path><path id="SvgjsPath1051" d="M 42.93374921352682 193.35549675369722 C 42.93374921352682 193.35549675369722 25.08937408244796 166.53286221092333 108.09087949595144 153.39264134641542 " fill="none" stroke="black" stroke-width="1"></path><path id="SvgjsPath1052" d="M 42.20479261372428 190.74545464455912 C 42.20479261372428 190.74545464455912 24.238924716011667 157.75576839616923 108.01991511456988 151.58883928865532 " fill="none" stroke="black" stroke-width="1"></path><path id="SvgjsPath1053" d="M 42.00381688509508 188.07682242092758 C 42.00381688509508 188.07682242092758 24.00445303261091 148.94068683173944 108.00037108769027 149.78309110144613 " fill="none" stroke="black" stroke-width="1"></path><path id="SvgjsPath1054" d="M 42.33180640665621 185.36273667650022 C 42.33180640665621 185.36273667650022 24.38710747443224 140.1307937826712 108.0322713543016 147.97760860051386 " fill="none" stroke="black" stroke-width="1"></path><path id="SvgjsPath1055" d="M 43.18715468589721 182.6163838716822 C 43.18715468589721 182.6163838716822 25.38501380021343 131.3692401006561 108.11557684056629 146.17460327615208 " fill="none" stroke="black" stroke-width="1"></path><path id="SvgjsPath1056" d="M 44.56567222737969 179.85093587753082 C 44.56567222737969 179.85093587753082 26.993284265276316 122.69893987119039 108.25018550768081 144.3762835844227 " fill="none" stroke="black" stroke-width="1"></path><path id="SvgjsPath1057" d="M 46.46060705288373 177.07948580261336 C 46.46060705288373 177.07948580261336 29.204041561697693 114.16236022040599 108.4359324768603 142.58485224207368 " fill="none" stroke="black" stroke-width="1"></path><path id="SvgjsPath1058" d="M 48.86267777259391 174.31498441667787 C 48.86267777259391 174.31498441667787 32.00645740135957 105.80131331110816 108.67259023129463 140.80250352848626 " fill="none" stroke="black" stroke-width="1"></path><path id="SvgjsPath1059" d="M 51.760119045341895 171.5701774818558 C 51.760119045341895 171.5701774818558 35.38680555289889 97.65675154682327 108.95986889482799 139.03142059795735 " fill="none" stroke="black" stroke-width="1"></path><path id="SvgjsPath1060" d="M 55.13873920524149 168.85754429741246 C 55.13873920524149 168.85754429741246 39.32852907278172 89.76856698694709 109.29741658702082 137.27377280560825 " fill="none" stroke="black" stroke-width="1"></path><path id="SvgjsPath1061" d="M 58.98198977246095 166.18923775786038 C 58.98198977246095 166.18923775786038 43.81232140120444 82.17539595545807 109.68481985415954 135.531713050196 " fill="none" stroke="black" stroke-width="1"></path><path id="SvgjsPath1062" d="M 63.2710465076689 163.57702621658376 C 63.2710465076689 163.57702621658376 48.816220925613706 74.91442980022204 110.1216041756855 133.80737513708175 " fill="none" stroke="black" stroke-width="1"></path><path id="SvgjsPath1063" d="M 67.98490161314893 161.03223743802485 C 67.98490161314893 161.03223743802485 54.31571854867376 68.02123272978922 110.60723454542341 132.10287116458576 " fill="none" stroke="black" stroke-width="1"></path><path id="SvgjsPath1064" d="M 73.10046662898228 158.56570491100285 C 73.10046662898228 158.56570491100285 60.28387773381266 61.529567619918794 111.14111612689692 130.4202889369313 " fill="none" stroke="black" stroke-width="1"></path><path id="SvgjsPath1065" d="M 78.59268552031268 156.18771678392181 C 78.59268552031268 156.18771678392181 66.69146644036479 55.47123064303051 111.722594981929 128.76168940694544 " fill="none" stroke="black" stroke-width="1"></path><path id="SvgjsPath1066" d="M 84.43465740179262 153.90796766953594 C 84.43465740179262 153.90796766953594 73.50710030209139 49.8758955305682 112.35095887163445 127.12910415164949 " fill="none" stroke="black" stroke-width="1"></path><path id="SvgjsPath1067" d="M 90.59776829810585 151.73551355264254 C 90.59776829810585 151.73551355264254 80.69739634779016 44.77096823107841 113.02543812882337 125.52453288383138 " fill="none" stroke="black" stroke-width="1"></path><path id="SvgjsPath1068" d="M 97.05183129520421 149.67873001863504 C 97.05183129520421 149.67873001863504 88.22713651107159 40.18145267588807 113.74520660074728 123.9499410026474 " fill="none" stroke="black" stroke-width="1"></path><path id="SvgjsPath1069" d="M 103.7652343957973 147.74527400434675 C 103.7652343957973 147.74527400434675 96.05944012843017 36.12982830986162 114.50938266103294 122.40725718625407 " fill="none" stroke="black" stroke-width="1"></path><path id="SvgjsPath1070" d="M 110.70509535489911 145.94204925513088 C 110.70509535489911 145.94204925513088 104.15594458071564 32.63593998709153 115.31703028956444 120.89837102941848 " fill="none" stroke="black" stroke-width="1"></path><path id="SvgjsPath1071" d="M 117.83742273704745 144.27517565374194 C 117.83742273704745 144.27517565374194 112.47699319322203 29.716900770812813 116.16716021899069 119.42513072900113 " fill="none" stroke="black" stroke-width="1"></path><path id="SvgjsPath1072" d="M 125.12728240633747 142.74996256739507 C 125.12728240633747 142.74996256739507 120.98182947406039 27.387008113628156 117.05873114645433 117.98934082014577 " fill="none" stroke="black" stroke-width="1"></path><path id="SvgjsPath1073" d="M 132.53896863380177 141.3708863394803 C 132.53896863380177 141.3708863394803 129.6287967394354 25.65767382859221 117.99065100905749 116.59275996594955 " fill="none" stroke="black" stroke-width="1"></path><path id="SvgjsPath1074" d="M 140.03617898405264 140.14157203189347 C 140.03617898405264 140.14157203189347 138.3755421480614 24.53736819415711 118.96177832150221 115.23709880332068 " fill="none" stroke="black" stroke-width="1"></path><path id="SvgjsPath1075" d="M 147.58219212459238 139.06477950291836 C 147.58219212459238 139.06477950291836 147.17922414535775 24.031578466752777 119.97092357426729 113.92401784766201 " fill="none" stroke="black" stroke-width="1"></path><path id="SvgjsPath1076" d="M 155.14004768688108 138.14239388415444 C 155.14004768688108 138.14239388415444 155.99672230136127 24.142782004207817 121.01685069060866 112.65512545894745 " fill="none" stroke="black" stroke-width="1"></path><path id="SvgjsPath1077" d="M 162.6727272982032 137.3754204982417 C 162.6727272982032 137.3754204982417 164.7848485145704 24.870434131652146 122.09827854059884 111.43197587168203 " fill="none" stroke="black" stroke-width="1"></path><path id="SvgjsPath1078" d="M 170.14333589763817 136.76398423719058 C 170.14333589763817 136.76398423719058 173.50055854724454 26.2109708093341 123.21388251035084 110.25606729115894 " fill="none" stroke="black" stroke-width="1"></path><path id="SvgjsPath1079" d="M 177.51528244805033 136.30733339909227 C 177.51528244805033 136.30733339909227 182.10116285605872 28.15782608928552 124.36229612450465 109.12884005834553 " fill="none" stroke="black" stroke-width="1"></path><path id="SvgjsPath1080" d="M 184.75245915897005 136.00384795896855 C 184.75245915897005 136.00384795896855 190.54453568546506 30.70146427533132 125.54211271998858 108.05167488564567 " fill="none" stroke="black" stroke-width="1"></path><path id="SvgjsPath1081" d="M 191.8194183425333 135.85105222762905 C 191.8194183425333 135.85105222762905 198.7893213996222 33.82942662892479 126.75188716900564 107.02589116569962 " fill="none" stroke="black" stroke-width="1"></path><path id="SvgjsPath1082" d="M 198.68154603623884 135.8456318307472 C 198.68154603623884 135.8456318307472 206.79513704227864 37.52639239204254 127.99013764913443 106.05274535529321 " fill="none" stroke="black" stroke-width="1"></path><path id="SvgjsPath1083" d="M 205.30523154211895 135.9834549190463 C 205.30523154211895 135.9834549190463 214.5227701324721 41.77425382824953 129.2553474583763 105.13342943635519 " fill="none" stroke="black" stroke-width="1"></path><path id="SvgjsPath1084" d="M 211.65803205192114 136.2595974996134 C 211.65803205192114 136.2595974996134 221.93437072724134 46.552204914383 130.54596687292553 104.26906945592862 " fill="none" stroke="black" stroke-width="1"></path><path id="SvgjsPath1085" d="M 217.70883155196645 136.66837275802857 C 217.70883155196645 136.66837275802857 228.99363681062755 51.836843248443415 131.8604150453874 103.46072414690391 " fill="none" stroke="black" stroke-width="1"></path><path id="SvgjsPath1086" d="M 223.42799322936878 137.20336422131572 C 223.42799322936878 137.20336422131572 235.66599210093023 57.602284674547505 133.19708194111843 102.70938363120348 " fill="none" stroke="black" stroke-width="1"></path><path id="SvgjsPath1087" d="M 228.78750463312926 137.8574625927797 C 228.78750463312926 137.8574625927797 241.91875540531748 63.82029006351077 134.55433031031748 102.01596820700621 " fill="none" stroke="black" stroke-width="1"></path><metadata>90 * Math.cos(t/1);32 * Math.sin(t/1)+32 * Math.sin(t/2);35 * Math.cos(t/2);43 * Math.sin(t/2)</metadata><path id="SvgjsPath1088" d="M 450 215.5529003975634 C 450 215.5529003975634 450 276 420.301515190165 186.48670990922585 " fill="none" stroke="black" stroke-width="1"></path><path id="SvgjsPath1089" d="M 442.44617248754645 216.39238684918786 C 442.44617248754645 216.39238684918786 441.18720123547087 275.69142603191324 419.2804688943385 185.1875899458387 " fill="none" stroke="black" stroke-width="1"></path><path id="SvgjsPath1090" d="M 434.9293436184224 217.00984837321033 C 434.9293436184224 217.00984837321033 432.4175675548262 274.7672155227923 418.29705018273194 183.84536958486967 " fill="none" stroke="black" stroke-width="1"></path><path id="SvgjsPath1091" d="M 427.48633081662126 217.40556324399608 C 427.48633081662126 217.40556324399608 423.7340526193915 273.23189525524265 417.3524636202935 182.4616928784203 " fill="none" stroke="black" stroke-width="1"></path><path id="SvgjsPath1092" d="M 420.15358995507574 217.58076544147013 C 420.15358995507574 217.58076544147013 415.17918828092166 271.09298522715716 416.44786620744446 181.03825465743148 " fill="none" stroke="black" stroke-width="1"></path><path id="SvgjsPath1093" d="M 412.96703679481124 217.53763472154657 C 412.96703679481124 217.53763472154657 406.79487626061314 268.36096181876974 415.58436596289835 179.57679845572721 " fill="none" stroke="black" stroke-width="1"></path><path id="SvgjsPath1094" d="M 405.9618710695664 217.27928221864246 C 405.9618710695664 217.27928221864246 398.62218291449415 265.04920647935086 414.7630205664767 178.0791143744039 " fill="none" stroke="black" stroke-width="1"></path><path id="SvgjsPath1095" d="M 399.1724040775149 216.80973165535238 C 399.1724040775149 216.80973165535238 390.7011380904341 261.1739401848753 413.98483606358343 176.54703688918033 " fill="none" stroke="black" stroke-width="1"></path><path id="SvgjsPath1096" d="M 392.6318906245446 216.13389625566964 C 392.6318906245446 216.13389625566964 383.0705390619687 256.75414398769044 413.2507656329248 174.9824426033942 " fill="none" stroke="black" stroke-width="1"></path><path id="SvgjsPath1097" d="M 386.3723661422349 215.25755147897155 C 386.3723661422349 215.25755147897155 375.76776049927406 251.81146604733115 412.56170841898523 173.38724794939787 " fill="none" stroke="black" stroke-width="1"></path><path id="SvgjsPath1098" d="M 380.42448977832936 214.18730371223893 C 380.42448977832936 214.18730371223893 368.82857140805095 246.37011559784554 411.9185084306872 171.7634068411682 " fill="none" stroke="black" stroke-width="1"></path><path id="SvgjsPath1099" d="M 374.81739422824546 212.9305550775529 C 374.81739422824546 212.9305550775529 362.286959932953 240.4567443709788 411.32195350758616 170.1129082810063 " fill="none" stroke="black" stroke-width="1"></path><path id="SvgjsPath1100" d="M 369.5785430431472 211.4954645307149 C 369.5785430431472 211.4954645307149 356.1749668836717 234.10031605600477 410.77277435486553 168.4377739232586 " fill="none" stroke="black" stroke-width="1"></path><path id="SvgjsPath1101" d="M 364.73359611348536 209.89090544476883 C 364.73359611348536 209.89090544476883 350.52252879906627 227.33196443559024 410.2716436483142 166.74005559804277 " fill="none" stroke="black" stroke-width="1"></path><path id="SvgjsPath1102" d="M 360.3062839868672 208.12641988918705 C 360.3062839868672 208.12641988918705 345.3573313180117 220.18484089254332 409.8191752103828 165.02183279801267 " fill="none" stroke="black" stroke-width="1"></path><path id="SvgjsPath1103" d="M 356.31829163584615 206.21216983142813 C 356.31829163584615 206.21216983142813 340.70467357515383 212.69395203435752 409.415923258328 163.2852101312398 " fill="none" stroke="black" stroke-width="1"></path><path id="SvgjsPath1104" d="M 352.78915224493744 204.15888550240572 C 352.78915224493744 204.15888550240572 336.58734428576037 204.89598823086567 409.06238172536564 161.53231474333154 " fill="none" stroke="black" stroke-width="1"></path><path id="SvgjsPath1105" d="M 349.73615153709 201.97781118105425 C 349.73615153709 201.97781118105425 333.025510126605 196.8291439048271 408.7589836556643 159.7652937119438 " fill="none" stroke="black" stroke-width="1"></path><path id="SvgjsPath1106" d="M 347.1742431082243 199.68064866557057 C 347.1742431082243 199.68064866557057 330.036616959595 188.53293045566437 408.5061006739203 157.9863114168794 " fill="none" stroke="black" stroke-width="1"></path><path id="SvgjsPath1107" d="M 345.1159751845272 197.27949870999058 C 345.1159751845272 197.27949870999058 327.63530438194834 180.04798273264902 408.3040425301641 156.19754688899337 " fill="none" stroke="black" stroke-width="1"></path><path id="SvgjsPath1108" d="M 343.57142916124633 194.78680071447317 C 343.57142916124633 194.78680071447317 325.833334021454 171.41586000543026 408.15305672035504 154.40119114115288 " fill="none" stroke="black" stroke-width="1"></path><path id="SvgjsPath1109" d="M 342.54817022402125 192.21527096596236 C 342.54817022402125 192.21527096596236 324.6395319280248 162.67884240675332 408.0533281832298 152.59944448452012 " fill="none" stroke="black" stroke-width="1"></path><path id="SvgjsPath1110" d="M 342.05121029460827 189.57783973274334 C 342.05121029460827 189.57783973274334 324.05974534370966 153.87972384439064 408.00497907377553 150.79451383344647 " fill="none" stroke="black" stroke-width="1"></path><path id="SvgjsPath1111" d="M 342.0829834824898 186.88758752176366 C 342.0829834824898 186.88758752176366 324.0968140629048 145.0616023966034 408.0080686136055 148.98861000227842 " fill="none" stroke="black" stroke-width="1"></path><path id="SvgjsPath1112" d="M 342.6433341626078 184.15768081143378 C 342.6433341626078 184.15768081143378 324.75055652304246 136.2676692177761 408.06259301841965 147.1839449973863 " fill="none" stroke="black" stroke-width="1"></path><path id="SvgjsPath1113" d="M 343.72951773761486 181.40130757493117 C 343.72951773761486 181.40130757493117 326.01777069388396 127.5409969881639 408.16848550264035 145.38272930773326 " fill="none" stroke="black" stroke-width="1"></path><path id="SvgjsPath1114" d="M 345.33621408091074 178.6316129097994 C 345.33621408091074 178.6316129097994 327.89224976106254 118.92432894392678 408.3256163612158 143.58716919730244 " fill="none" stroke="black" stroke-width="1"></path><path id="SvgjsPath1115" d="M 347.45555359461997 175.86163508885372 C 347.45555359461997 175.86163508885372 330.36481252705664 110.45986952078066 408.53379312849313 141.79946400269986 " fill="none" stroke="black" stroke-width="1"></path><path id="SvgjsPath1116" d="M 350.0771557548779 173.10424234508184 C 350.0771557548779 173.10424234508184 333.42334838069087 102.18907763669239 408.7927608139642 140.02180343924175 " fill="none" stroke="black" stroke-width="1"></path><path id="SvgjsPath1117" d="M 353.1881799556316 170.3720706993762 C 353.1881799556316 170.3720706993762 337.05287661490354 94.15246362612054 409.10220221459747 138.25636491882722 " fill="none" stroke="black" stroke-width="1"></path><path id="SvgjsPath1118" d="M 356.7733884019217 167.67746313456828 C 356.7733884019217 167.67746313456828 341.23561980224196 86.38939082041787 409.46173830337193 136.50531088288108 " fill="none" stroke="black" stroke-width="1"></path><path id="SvgjsPath1119" d="M 360.8152207445944 165.03241041238599 C 360.8152207445944 165.03241041238599 345.9510908686934 78.93788274625425 409.87092869353756 134.7707861536333 " fill="none" stroke="black" stroke-width="1"></path><path id="SvgjsPath1120" d="M 365.2938800908827 162.44849382165285 C 365.2938800908827 162.44849382165285 351.17619343936315 71.8344368864023 410.3292721780346 133.0549153069802 " fill="none" stroke="black" stroke-width="1"></path><path id="SvgjsPath1121" d="M 370.1874299695772 159.9368301363378 C 370.1874299695772 159.9368301363378 356.8853349645067 65.11384591508528 410.836207343409 131.35980007014442 " fill="none" stroke="black" stroke-width="1"></path><path id="SvgjsPath1122" d="M 375.4719017758509 157.5080190509882 C 375.4719017758509 157.5080190509882 363.050552071826 58.809027283476325 411.39111325747376 129.68751674732204 " fill="none" stroke="black" stroke-width="1"></path><path id="SvgjsPath1123" d="M 381.1214121694736 155.17209334869898 C 381.1214121694736 155.17209334869898 369.6416475310525 52.95086199003927 411.9933102298736 128.0401136764696 " fill="none" stroke="black" stroke-width="1"></path><path id="SvgjsPath1124" d="M 387.10828985139915 152.9384720431401 C 387.10828985139915 152.9384720431401 376.6263381599656 47.568043325413896 412.64206064462013 126.41960872034606 " fill="none" stroke="black" stroke-width="1"></path><path id="SvgjsPath1125" d="M 393.40321109777415 150.81591672135738 C 393.40321109777415 150.81591672135738 383.9704129474032 42.68693633269275 413.3365698635796 124.82798679488343 " fill="none" stroke="black" stroke-width="1"></path><path id="SvgjsPath1126" d="M 399.9753433875227 148.812491298145 C 399.9753433875227 148.812491298145 391.6379006187765 38.33144867145366 414.0759871998051 123.26719743791293 " fill="none" stroke="black" stroke-width="1"></path><path id="SvgjsPath1127" d="M 406.79249642001867 146.9355253758446 C 406.79249642001867 146.9355253758446 399.59124582335505 34.52291351805509 414.85940695952166 121.73915242122482 " fill="none" stroke="black" stroke-width="1"></path><path id="SvgjsPath1128" d="M 413.82127978316214 145.19158138553468 C 413.82127978316214 145.19158138553468 407.79149308035585 31.27998507574914 415.6858695514878 120.24572340888716 " fill="none" stroke="black" stroke-width="1"></path><path id="SvgjsPath1129" d="M 421.0272664996012 143.58642566682755 C 421.0272664996012 143.58642566682755 416.198477582868 28.618547206403377 416.5543626623752 118.78873966469125 " fill="none" stroke="black" stroke-width="1"></path><path id="SvgjsPath1130" d="M 428.3751616500487 142.12500362397807 C 428.3751616500487 142.12500362397807 424.77102192505686 26.551635631353804 417.46382249672524 117.36998581153235 " fill="none" stroke="black" stroke-width="1"></path><path id="SvgjsPath1131" d="M 435.82897524778 140.81141907582457 C 435.82897524778 140.81141907582457 433.4671377890767 25.08937408244796 418.4131350799662 115.99119964546969 " fill="none" stroke="black" stroke-width="1"></path><path id="SvgjsPath1132" d="M 443.35219851756915 139.64891789633072 C 443.35219851756915 139.64891789633072 442.2442316038307 24.238924716011667 419.4011376228922 114.65407000714364 " fill="none" stroke="black" stroke-width="1"></path><path id="SvgjsPath1133" d="M 450.9079827156519 138.6398760212743 C 450.9079827156519 138.6398760212743 451.05931316826053 24.00445303261091 420.4266199459349 113.36023471315714 " fill="none" stroke="black" stroke-width="1"></path><path id="SvgjsPath1134" d="M 458.4593196148533 137.78579187504337 C 458.4593196148533 137.78579187504337 459.86920621732884 24.38710747443224 421.4883259614821 112.11127854995512 " fill="none" stroke="black" stroke-width="1"></path><path id="SvgjsPath1135" d="M 465.96922277086617 137.08728324965492 C 465.96922277086617 137.08728324965492 468.6307598993439 25.38501380021343 422.58495521242776 110.90873133265934 " fill="none" stroke="black" stroke-width="1"></path><path id="SvgjsPath1136" d="M 473.40090868183677 136.54408864611568 C 473.40090868183677 136.54408864611568 477.3010601288096 26.9932842652763 423.71516446506973 109.75406603123605 " fill="none" stroke="black" stroke-width="1"></path><path id="SvgjsPath1137" d="M 480.71797695393775 136.15507306620628 C 480.71797695393775 136.15507306620628 485.837639779594 29.204041561697693 424.8775693544028 108.6486969662921 " fill="none" stroke="black" stroke-width="1"></path><path id="SvgjsPath1138" d="M 487.88458859047876 135.91823822079436 C 487.88458859047876 135.91823822079436 494.1986866888919 32.00645740135958 426.0707460797927 107.59397807670902 " fill="none" stroke="black" stroke-width="1"></path><path id="SvgjsPath1139" d="M 494.86564153129433 135.8307370989827 C 494.86564153129433 135.8307370989827 502.3432484531767 35.38680555289889 427.29323314895396 106.59120126123712 " fill="none" stroke="black" stroke-width="1"></path><path id="SvgjsPath1140" d="M 501.6269425826167 135.888892820875 C 501.6269425826167 135.888892820875 510.2314330130529 39.328529072781706 428.5435331680952 105.64159479608114 " fill="none" stroke="black" stroke-width="1"></path><path id="SvgjsPath1141" d="M 508.13537489532166 136.08822167560737 C 508.13537489532166 136.08822167560737 517.824604044542 43.81232140120444 429.8201146760392 104.74632183041547 " fill="none" stroke="black" stroke-width="1"></path><path id="SvgjsPath1142" d="M 514.3590601712383 136.4234602256455 C 514.3590601712383 136.4234602256455 525.085570199778 48.81622092561375 431.1214140200715 103.90647896167187 " fill="none" stroke="black" stroke-width="1"></path><path id="SvgjsPath1143" d="M 520.2675148030378 136.88859633829082 C 520.2675148030378 136.88859633829082 531.9787672702107 54.31571854867376 432.445837271219 103.1230948923448 " fill="none" stroke="black" stroke-width="1"></path><path id="SvgjsPath1144" d="M 525.8317991829267 137.47690398597175 C 525.8317991829267 137.47690398597175 538.4704323800811 60.2838777338126 433.79176217661427 102.39712916995927 " fill="none" stroke="black" stroke-width="1"></path><path id="SvgjsPath1145" d="M 531.024659448831 138.18098163831118 C 531.024659448831 138.18098163831118 544.5287693569695 66.69146644036479 435.15754014655204 101.72947101174545 " fill="none" stroke="black" stroke-width="1"></path><path id="SvgjsPath1146" d="M 535.8206609737987 138.9927940512532 C 535.8206609737987 138.9927940512532 550.1241044694318 73.50710030209137 436.5414982738056 101.1209382154585 " fill="none" stroke="black" stroke-width="1"></path><path id="SvgjsPath1147" d="M 540.19631294479 139.90371724178402 C 540.19631294479 139.90371724178402 555.2290317689216 80.69739634779015 437.94194138272877 100.5722761576787 " fill="none" stroke="black" stroke-width="1"></path><path id="SvgjsPath1148" d="M 544.1301834206674 140.90458642107996 C 544.1301834206674 140.90458642107996 559.8185473241119 88.22713651107158 439.3571541056343 100.0841568808183 " fill="none" stroke="black" stroke-width="1"></path><path id="SvgjsPath1149" d="M 547.6030043058329 141.98574664433247 C 547.6030043058329 141.98574664433247 563.8701716901384 96.05944012843017 440.78540298390476 99.65717826995359 " fill="none" stroke="black" stroke-width="1"></path><path id="SvgjsPath1150" d="M 550.5977657253501 143.13710592211152 C 550.5977657253501 143.13710592211152 567.3640600129085 104.15594458071563 442.2249385912624 99.2918633204905 " fill="none" stroke="black" stroke-width="1"></path><path id="SvgjsPath1151" d="M 553.0997993393033 144.34819052599727 C 553.0997993393033 144.34819052599727 570.2830992291872 112.47699319322201 443.6739976765978 98.98865949756063 " fill="none" stroke="black" stroke-width="1"></path><path id="SvgjsPath1152" d="M 555.0968501883187 145.6082022103968 C 555.0968501883187 145.6082022103968 572.6129918863719 120.98182947406039 445.1308053237319 98.74793818793229 " fill="none" stroke="black" stroke-width="1"></path><path id="SvgjsPath1153" d="M 556.5791367183494 146.90607706302052 C 556.5791367183494 146.90607706302052 574.3423261714078 129.6287967394354 446.5935771254664 98.56999424510835 " fill="none" stroke="black" stroke-width="1"></path><path id="SvgjsPath1154" d="M 557.5393986907225 148.23054568846732 C 557.5393986907225 148.23054568846732 575.4626318058429 138.3755421480614 448.06052136925933 98.4550456281674 " fill="none" stroke="black" stroke-width="1"></path><path id="SvgjsPath1155" d="M 557.9729327427833 149.57019442279952 C 557.9729327427833 149.57019442279952 575.9684215332472 147.17922414535775 449.52984123184893 98.40323313479121 " fill="none" stroke="black" stroke-width="1"></path><path id="SvgjsPath1156" d="M 557.8776154249647 150.9135272719081 C 557.8776154249647 150.9135272719081 575.8572179957922 155.99672230136127 450.99973698013764 98.41462022880515 " fill="none" stroke="black" stroke-width="1"></path><path id="SvgjsPath1157" d="M 557.253913601441 152.24902826290324 C 557.253913601441 152.24902826290324 575.1295658683479 164.7848485145704 452.4684081756397 98.48919296244301 " fill="none" stroke="black" stroke-width="1"></path><path id="SvgjsPath1158" d="M 556.1048821634279 153.5652238957299 C 556.1048821634279 153.5652238957299 573.7890291906659 173.50055854724454 453.9340558797936 98.6268599934312 " fill="none" stroke="black" stroke-width="1"></path><path id="SvgjsPath1159" d="M 554.4361490663267 154.85074538171398 C 554.4361490663267 154.85074538171398 571.8421739107145 182.1011628560587 455.3948848574366 98.82745269687153 " fill="none" stroke="black" stroke-width="1"></path><path id="SvgjsPath1160" d="M 552.2558877640017 156.09439035679554 C 552.2558877640017 156.09439035679554 569.2985357246687 190.54453568546504 456.8491057757432 99.09072537178585 " fill="none" stroke="black" stroke-width="1"></path><path id="SvgjsPath1161" d="M 549.5747771752074 157.2851837597923 C 549.5747771752074 157.2851837597923 566.1705733710752 198.78932139962217 458.29493739593454 99.41635554206886 " fill="none" stroke="black" stroke-width="1"></path><path id="SvgjsPath1162" d="M 546.4059493782493 158.41243757015178 C 546.4059493782493 158.41243757015178 562.4736076079574 206.79513704227864 459.7306087550727 99.80394435148096 " fill="none" stroke="black" stroke-width="1"></path><path id="SvgjsPath1163" d="M 542.7649252900719 159.46580910526927 C 542.7649252900719 159.46580910526927 558.2257461717504 214.5227701324721 461.15436133526913 100.2530170521975 " fill="none" stroke="black" stroke-width="1"></path><path id="SvgjsPath1164" d="M 538.6695386448146 160.43535758454686 C 538.6695386448146 160.43535758454686 553.447795085617 221.93437072724134 462.564451217649 100.76302358631526 " fill="none" stroke="black" stroke-width="1"></path><path id="SvgjsPath1165" d="M 534.1398486441914 161.31159867590884 C 534.1398486441914 161.31159867590884 548.1631567515566 228.99363681062755 463.9591512184339 101.33333925960471 " fill="none" stroke="black" stroke-width="1"></path><path id="SvgjsPath1166" d="M 529.1980417075307 162.0855567504313 C 529.1980417075307 162.0855567504313 542.3977153254525 235.66599210093023 465.33675300452586 101.96326550668233 " fill="none" stroke="black" stroke-width="1"></path><path id="SvgjsPath1167" d="M 523.868322802705 162.74881458203788 C 523.868322802705 162.74881458203788 536.1797099364892 241.91875540531746 466.6955691860019 102.65203074666583 " fill="none" stroke="black" stroke-width="1"></path><metadata>90 * Math.cos(t/1);32 * Math.sin(t/1)+32 * Math.sin(t/2);35 * Math.cos(t/2);43 * Math.sin(t/2)</metadata><path id="SvgjsPath1168" d="M 42 488.4 C 42 488.4 24 450 108 450 " fill="none" stroke="black" stroke-width="1"></path><path id="SvgjsPath1169" d="M 42.264491972645814 485.6906770631407 C 42.264491972645814 485.6906770631407 24.308573968086776 441.1872012354709 108.02572237401347 448.1943687024162 " fill="none" stroke="black" stroke-width="1"></path><path id="SvgjsPath1170" d="M 43.05667240903519 482.94750280738725 C 43.05667240903519 482.94750280738725 25.23278447720773 432.4175675548262 108.10285798936226 446.3909490773833 " fill="none" stroke="black" stroke-width="1"></path><path id="SvgjsPath1171" d="M 44.372661209792 480.1836542554521 C 44.372661209792 480.1836542554521 26.768104744757323 423.7340526193915 108.23131236456311 444.59195008842966 " fill="none" stroke="black" stroke-width="1"></path><path id="SvgjsPath1172" d="M 46.20601266243675 477.41223734970333 C 46.20601266243675 477.41223734970333 28.90701477284287 415.17918828092166 108.41092815906924 442.7995752843574 " fill="none" stroke="black" stroke-width="1"></path><path id="SvgjsPath1173" d="M 48.54774701248307 474.6462232876601 C 48.54774701248307 474.6462232876601 31.639038181230262 406.79487626061314 108.64148536599279 441.01602010017046 " fill="none" stroke="black" stroke-width="1"></path><path id="SvgjsPath1174" d="M 51.3863944462707 471.8983857279198 C 51.3863944462707 471.8983857279198 34.95079352064914 398.6221829144942 108.92270158158578 439.24346916794127 " fill="none" stroke="black" stroke-width="1"></path><path id="SvgjsPath1175" d="M 54.70805127010688 469.1812391731767 C 54.70805127010688 469.1812391731767 38.826059815124694 390.7011380904341 109.25423235114931 437.4840936409097 " fill="none" stroke="black" stroke-width="1"></path><path id="SvgjsPath1176" d="M 58.49644801055105 466.50697883097166 C 58.49644801055105 466.50697883097166 43.24585601230956 383.0705390619687 109.63567159094762 435.7400485340917 " fill="none" stroke="black" stroke-width="1"></path><path id="SvgjsPath1177" d="M 62.7330291022876 463.88742224531654 C 62.7330291022876 463.88742224531654 48.18853395266885 375.76776049927406 110.06655208560977 434.0134700846557 " fill="none" stroke="black" stroke-width="1"></path><path id="SvgjsPath1178" d="M 67.39704377327526 461.333952983412 C 67.39704377327526 461.333952983412 53.62988440215446 368.82857140805095 110.54634606041009 432.3064731352987 " fill="none" stroke="black" stroke-width="1"></path><path id="SvgjsPath1179" d="M 72.46564768201814 458.8574666513598 C 72.46564768201814 458.8574666513598 59.54325562902116 362.28695993295304 111.07446582772624 430.62114854382895 " fill="none" stroke="black" stroke-width="1"></path><path id="SvgjsPath1180" d="M 77.91401480913873 456.46831950111164 C 77.91401480913873 456.46831950111164 65.89968394399519 356.1749668836717 111.65026450688305 428.9595606221262 " fill="none" stroke="black" stroke-width="1"></path><path id="SvgjsPath1181" d="M 83.71545905520836 454.17627987796266 C 83.71545905520836 454.17627987796266 72.66803556440975 350.52252879906627 112.27303681650044 427.323744607618 " fill="none" stroke="black" stroke-width="1"></path><path id="SvgjsPath1182" d="M 89.84156494924855 451.990482743737 C 89.84156494924855 451.990482743737 79.81515910745665 345.3573313180117 112.9420199383749 425.7157041703682 " fill="none" stroke="black" stroke-width="1"></path><path id="SvgjsPath1183" d="M 96.26232682769356 449.9193874955107 C 96.26232682769356 449.9193874955107 87.30604796564248 340.70467357515383 113.65639445183648 424.137408958832 " fill="none" stroke="black" stroke-width="1"></path><path id="SvgjsPath1184" d="M 102.94629580211517 447.97073928333737 C 102.94629580211517 447.97073928333737 95.10401176913436 336.5873442857603 114.41528533743653 422.59079218728243 " fill="none" stroke="black" stroke-width="1"></path><path id="SvgjsPath1185" d="M 109.86073379586247 446.15153401307225 C 109.86073379586247 446.15153401307225 103.1708560951729 333.025510126605 115.21776304873723 421.07774826786476 " fill="none" stroke="black" stroke-width="1"></path><path id="SvgjsPath1186" d="M 116.97177389514482 444.4679872021108 C 116.97177389514482 444.4679872021108 111.46706954433562 330.036616959595 116.06284465088963 419.6001304901789 " fill="none" stroke="black" stroke-width="1"></path><path id="SvgjsPath1187" d="M 124.24458622915799 442.92550683676353 C 124.24458622915799 442.92550683676353 119.95201726735098 327.63530438194834 116.94949502460601 418.1597487512307 " fill="none" stroke="black" stroke-width="1"></path><path id="SvgjsPath1188" d="M 131.643548566774 441.5286703601675 C 131.643548566774 441.5286703601675 128.58413999456968 325.833334021454 117.87662813405149 416.75836733853515 " fill="none" stroke="black" stroke-width="1"></path><path id="SvgjsPath1189" d="M 139.13242079421144 440.2812058991903 C 139.13242079421144 440.2812058991903 137.32115759324665 324.6395319280248 118.84310835710222 415.39770276908416 " fill="none" stroke="black" stroke-width="1"></path><path id="SvgjsPath1190" d="M 146.67452241909376 439.1859778178098 C 146.67452241909376 439.1859778178098 146.12027615560936 324.05974534370966 119.8477518763404 414.07942168682837 " fill="none" stroke="black" stroke-width="1"></path><path id="SvgjsPath1191" d="M 154.23291223148277 438.2449766630574 C 154.23291223148277 438.2449766630574 154.9383976033966 324.0968140629048 120.88932812908256 412.8051388212465 " fill="none" stroke="black" stroke-width="1"></path><path id="SvgjsPath1192" d="M 161.77056924190623 437.4593135479001 C 161.77056924190623 437.4593135479001 163.73233078222393 324.75055652304246 121.96656131466509 411.57641500950365 " fill="none" stroke="black" stroke-width="1"></path><path id="SvgjsPath1193" d="M 169.25057401014521 436.8292189935125 C 169.25057401014521 436.8292189935125 172.4590030118361 326.01777069388396 123.07813195714034 410.394755284621 " fill="none" stroke="black" stroke-width="1"></path><path id="SvgjsPath1194" d="M 176.63628947663418 436.3540462313608 C 176.63628947663418 436.3540462313608 181.0756710560732 327.89224976106254 124.22267852146992 409.26160703199855 " fill="none" stroke="black" stroke-width="1"></path><path id="SvgjsPath1195" d="M 183.89154041075943 436.032278943498 C 183.89154041075943 436.032278943498 189.54013047921933 330.36481252705664 125.39879908123456 408.178358216549 " fill="none" stroke="black" stroke-width="1"></path><path id="SvgjsPath1196" d="M 190.98079059712074 435.86154339755706 C 190.98079059712074 435.86154339755706 197.81092236330755 333.42334838069087 126.60505303581888 407.14633568261434 " fill="none" stroke="black" stroke-width="1"></path><path id="SvgjsPath1197" d="M 197.8693168918967 435.8386249112389 C 197.8693168918967 435.8386249112389 205.84753637387945 337.05287661490354 127.83996287496693 406.1668035287472 " fill="none" stroke="black" stroke-width="1"></path><path id="SvgjsPath1198" d="M 204.52337929678473 435.95948855972557 C 204.52337929678473 435.95948855972557 213.61060917958218 341.235619802242 129.1020159885475 405.2409615593487 " fill="none" stroke="black" stroke-width="1"></path><path id="SvgjsPath1199" d="M 210.91038621749635 436.21930401851625 C 210.91038621749635 436.21930401851625 221.06211725374575 345.9510908686934 130.38966651931236 404.3699438150575 " fill="none" stroke="black" stroke-width="1"></path><path id="SvgjsPath1200" d="M 216.9990540973694 436.612474413784 C 216.9990540973694 436.612474413784 228.1655631135976 351.1761934393631 131.70133725637808 403.55481718369236 " fill="none" stroke="black" stroke-width="1"></path><path id="SvgjsPath1201" d="M 222.7595606442126 437.13266903258506 C 222.7595606442126 437.13266903258506 234.88615408491472 356.8853349645067 133.03542156711234 402.7965800934474 " fill="none" stroke="black" stroke-width="1"></path><path id="SvgjsPath1202" d="M 228.16369089987745 437.77285972621814 C 228.16369089987745 437.77285972621814 241.1909727165237 363.0505520718261 134.39028536505762 402.096161289943 " fill="none" stroke="black" stroke-width="1"></path><path id="SvgjsPath1203" d="M 233.1849754371092 438.52536082182195 C 233.1849754371092 438.52536082182195 247.04913800996073 369.6416475310525 135.76426911148306 401.4544186986282 " fill="none" stroke="black" stroke-width="1"></path><path id="SvgjsPath1204" d="M 237.7988200067881 439.38187234000156 C 237.7988200067881 439.38187234000156 252.4319566745861 376.6263381599656 137.15568984811182 400.8721383739294 " fill="none" stroke="black" stroke-width="1"></path><path id="SvgjsPath1205" d="M 241.9826260005491 440.33352629997705 C 241.9826260005491 440.33352629997705 257.31306366730723 383.9704129474032 138.5628432585345 400.3500335364319 " fill="none" stroke="black" stroke-width="1"></path><path id="SvgjsPath1206" d="M 245.71590113875402 441.37093587852974 C 245.71590113875402 441.37093587852974 261.66855132854636 391.6379006187765 139.98400575578364 399.8887436992741 " fill="none" stroke="black" stroke-width="1"></path><path id="SvgjsPath1207" d="M 248.98035984166705 442.4842471749543 C 248.98035984166705 442.4842471749543 265.4770864819449 399.59124582335505 141.4174365935121 399.4888338848235 " fill="none" stroke="black" stroke-width="1"></path><path id="SvgjsPath1208" d="M 251.76001279221504 443.6631933213825 C 251.76001279221504 443.6631933213825 268.72001492425085 407.79149308035585 142.86137999818985 399.15079393259543 " fill="none" stroke="black" stroke-width="1"></path><path id="SvgjsPath1209" d="M 254.04124525165423 444.8971506662848 C 254.04124525165423 444.8971506662848 271.3814527935966 416.198477582868 144.31406731970702 398.8750378992604 " fill="none" stroke="black" stroke-width="1"></path><path id="SvgjsPath1210" d="M 255.81288374455386 446.17519674874217 C 255.81288374455386 446.17519674874217 273.4483643686462 424.77102192505686 145.77371919774885 398.6619035514768 " fill="none" stroke="black" stroke-width="1"></path><path id="SvgjsPath1211" d="M 257.0662507864732 447.4861697722537 C 257.0662507864732 447.4861697722537 274.910625917552 433.4671377890767 147.23854774128978 398.5116519521689 " fill="none" stroke="black" stroke-width="1"></path><path id="SvgjsPath1212" d="M 257.7952073862757 448.818729279458 C 257.7952073862757 448.818729279458 275.76107528398836 442.2442316038307 148.70675871853638 398.4244671407573 " fill="none" stroke="black" stroke-width="1"></path><path id="SvgjsPath1213" d="M 257.9961831149049 450.16141772323044 C 257.9961831149049 450.16141772323044 275.9955469673891 451.05931316826053 150.17655375463687 398.4004559077338 " fill="none" stroke="black" stroke-width="1"></path><path id="SvgjsPath1214" d="M 257.6681935933438 451.5027226251985 C 257.6681935933438 451.5027226251985 275.61289252556776 459.86920621732884 151.64613253446544 398.43964766385625 " fill="none" stroke="black" stroke-width="1"></path><path id="SvgjsPath1215" d="M 256.8128453141028 452.83113900982687 C 256.8128453141028 452.83113900982687 274.6149861997866 468.6307598993439 153.1136950077832 398.54199440412435 " fill="none" stroke="black" stroke-width="1"></path><path id="SvgjsPath1216" d="M 255.4343277726203 454.1352318008643 C 255.4343277726203 454.1352318008643 273.0067157347237 477.3010601288096 154.57744359407454 398.7073707665793 " fill="none" stroke="black" stroke-width="1"></path><path id="SvgjsPath1217" d="M 253.53939294711626 455.4036978671293 C 253.53939294711626 455.4036978671293 270.7959584383023 485.837639779594 156.03558538435863 398.9355741858569 " fill="none" stroke="black" stroke-width="1"></path><path id="SvgjsPath1218" d="M 251.13732222740606 456.62542740634086 C 251.13732222740606 456.62542740634086 267.99354259864043 494.1986866888919 157.4863343372786 399.22632514130487 " fill="none" stroke="black" stroke-width="1"></path><path id="SvgjsPath1219" d="M 248.23988095465813 457.7895643589608 C 248.23988095465813 457.7895643589608 264.61319444710114 502.3432484531767 158.92791346677888 399.57926749936007 " fill="none" stroke="black" stroke-width="1"></path><path id="SvgjsPath1220" d="M 244.86126079475855 458.8855655487939 C 244.86126079475855 458.8855655487939 260.6714709272183 510.2314330130529 160.35855701869096 399.99396894976843 " fill="none" stroke="black" stroke-width="1"></path><path id="SvgjsPath1221" d="M 241.01801022753907 459.9032582533662 C 241.01801022753907 459.9032582533662 256.18767859879557 517.824604044542 161.77651263356137 400.4699215351103 " fill="none" stroke="black" stroke-width="1"></path><path id="SvgjsPath1222" d="M 236.72895349233107 460.832895914837 C 236.72895349233107 460.832895914837 251.18377907438625 525.085570199778 163.18004349307301 401.00654227298503 " fill="none" stroke="black" stroke-width="1"></path><path id="SvgjsPath1223" d="M 232.01509838685107 461.66521171136617 C 232.01509838685107 461.66521171136617 245.68428145132623 531.9787672702107 164.5674304474302 401.6031738700916 " fill="none" stroke="black" stroke-width="1"></path><path id="SvgjsPath1224" d="M 226.89953337101778 462.3914697193978 C 226.89953337101778 462.3914697193978 239.71612226618743 538.4704323800811 165.93697412110242 402.2590855273305 " fill="none" stroke="black" stroke-width="1"></path><path id="SvgjsPath1225" d="M 221.40731447968733 463.00351340919747 C 221.40731447968733 463.00351340919747 233.3085335596352 544.5287693569695 167.28699699434674 402.9734738349414 " fill="none" stroke="black" stroke-width="1"></path><path id="SvgjsPath1226" d="M 215.5653425982074 463.4938112291208 C 215.5653425982074 463.4938112291208 226.49289969790863 550.1241044694318 168.61584545795972 403.7454637565795 " fill="none" stroke="black" stroke-width="1"></path><path id="SvgjsPath1227" d="M 209.40223170189415 463.85549904844066 C 209.40223170189415 463.85549904844066 219.30260365220985 555.2290317689216 169.92189183874189 404.57410970112585 " fill="none" stroke="black" stroke-width="1"></path><path id="SvgjsPath1228" d="M 202.9481687047958 464.08241924404723 C 202.9481687047958 464.08241924404723 211.77286348892844 559.8185473241119 171.20353639319396 405.4583966809181 " fill="none" stroke="black" stroke-width="1"></path><path id="SvgjsPath1229" d="M 196.23476560420272 464.169156232878 C 196.23476560420272 464.169156232878 203.94055987156983 563.8701716901384 172.4592092670025 406.39724155498334 " fill="none" stroke="black" stroke-width="1"></path><path id="SvgjsPath1230" d="M 189.2949046451009 464.11106826945917 C 189.2949046451009 464.11106826945917 195.8440554192844 567.3640600129085 173.68737241791518 407.38949435575057 " fill="none" stroke="black" stroke-width="1"></path><path id="SvgjsPath1231" d="M 182.16257726295257 463.90431534635775 C 182.16257726295257 463.90431534635775 187.52300680677797 570.2830992291872 174.88652149965026 408.4339396976171 " fill="none" stroke="black" stroke-width="1"></path><path id="SvgjsPath1232" d="M 174.87271759366254 463.5458830545598 C 174.87271759366254 463.5458830545598 179.01817052593964 572.6129918863719 176.05518770453253 409.5292982656439 " fill="none" stroke="black" stroke-width="1"></path><path id="SvgjsPath1233" d="M 167.46103136619826 463.03360228071926 C 167.46103136619826 463.03360228071926 170.3712032605646 574.3423261714078 177.1919395625992 410.67422838255635 " fill="none" stroke="black" stroke-width="1"></path><path id="SvgjsPath1234" d="M 159.96382101594736 462.3661646387591 C 159.96382101594736 462.3661646387591 161.6244578519386 575.4626318058429 178.29538469497155 411.8673276521313 " fill="none" stroke="black" stroke-width="1"></path><path id="SvgjsPath1235" d="M 152.41780787540765 461.5431335543505 C 152.41780787540765 461.5431335543505 152.82077585464225 575.9684215332472 179.36417151934486 413.10713467695695 " fill="none" stroke="black" stroke-width="1"></path><path id="SvgjsPath1236" d="M 144.85995231311892 460.5649509422533 C 144.85995231311892 460.5649509422533 144.00327769863875 575.8572179957922 180.3969909055079 414.3921308484621 " fill="none" stroke="black" stroke-width="1"></path><path id="SvgjsPath1237" d="M 137.32727270179683 459.4329394382499 C 137.32727270179683 459.4329394382499 135.21515148542963 575.1295658683479 181.39257777886348 415.72074220702143 " fill="none" stroke="black" stroke-width="1"></path><path id="SvgjsPath1238" d="M 129.85666410236183 458.14930016935773 C 129.85666410236183 458.14930016935773 126.49944145275548 573.7890291906659 182.3497126699869 417.0913413698596 " fill="none" stroke="black" stroke-width="1"></path><path id="SvgjsPath1239" d="M 122.48471755194969 456.71710606803634 C 122.48471755194969 456.71710606803634 117.89883714394131 571.8421739107145 183.2672232083234 418.50224952439146 " fill="none" stroke="black" stroke-width="1"></path><path id="SvgjsPath1240" d="M 115.24754084102997 455.1402907581204 C 115.24754084102997 455.1402907581204 109.45546431453496 569.2985357246687 184.1439855581954 419.9517384845574 " fill="none" stroke="black" stroke-width="1"></path><path id="SvgjsPath1241" d="M 108.18058165746672 453.4236330620931 C 108.18058165746672 453.4236330620931 101.21067860037783 566.1705733710752 184.97892579536077 421.4380328076355 " fill="none" stroke="black" stroke-width="1"></path><path id="SvgjsPath1242" d="M 101.31845396376117 451.57273720096003 C 101.31845396376117 451.57273720096003 93.20486295772136 562.4736076079574 185.77102122243576 422.9593119689366 " fill="none" stroke="black" stroke-width="1"></path><path id="SvgjsPath1243" d="M 94.69476845788105 449.59400877928726 C 94.69476845788105 449.59400877928726 85.47722986752791 558.2257461717504 186.51930162157137 424.51371259171947 " fill="none" stroke="black" stroke-width="1"></path><path id="SvgjsPath1244" d="M 88.34196794807886 447.4946266688215 C 88.34196794807886 447.4946266688215 78.06562927275867 553.447795085617 187.2228504428488 426.0993307295942 " fill="none" stroke="black" stroke-width="1"></path><path id="SvgjsPath1245" d="M 82.29116844803356 445.28251092441616 C 82.29116844803356 445.28251092441616 71.00636318937248 548.1631567515566 187.88080592693868 427.7142241986188 " fill="none" stroke="black" stroke-width="1"></path><path id="SvgjsPath1246" d="M 76.57200677063123 442.9662868856404 C 76.57200677063123 442.9662868856404 64.33400789906977 542.3977153254525 188.49236216064833 429.3564149562312 " fill="none" stroke="black" stroke-width="1"></path><path id="SvgjsPath1247" d="M 71.21249536687075 440.55524563635663 C 71.21249536687075 440.55524563635663 58.081244594682545 536.1797099364892 189.05677006406472 431.02389152410433 " fill="none" stroke="black" stroke-width="1"></path><metadata>90 * Math.cos(t/1);32 * Math.sin(t/1)+32 * Math.sin(t/2);35 * Math.cos(t/2);43 * Math.sin(t/2)</metadata><path id="SvgjsPath1248" d="M 450 438.7529003975634 C 450 438.7529003975634 450 324 420.301515190165 413.51329009077415 " fill="none" stroke="black" stroke-width="1"></path><path id="SvgjsPath1249" d="M 457.55382751245355 437.8801550383401 C 457.55382751245355 437.8801550383401 458.81279876452913 324.30857396808676 421.3589384161778 412.258861784473 " fill="none" stroke="black" stroke-width="1"></path><path id="SvgjsPath1250" d="M 465.07065638157746 437.1629575295238 C 465.07065638157746 437.1629575295238 467.5824324451737 325.2327844772077 422.4514433611526 411.0506616530707 " fill="none" stroke="black" stroke-width="1"></path><path id="SvgjsPath1251" d="M 472.51366918337874 436.601151760859 C 472.51366918337874 436.601151760859 476.2659473806085 326.76810474475735 423.5776918431462 409.89016959064634 " fill="none" stroke="black" stroke-width="1"></path><path id="SvgjsPath1252" d="M 479.84641004492426 436.19370719300144 C 479.84641004492426 436.19370719300144 484.82081171907834 328.9070147728429 424.7363043486023 408.77880705486035 " fill="none" stroke="black" stroke-width="1"></path><path id="SvgjsPath1253" d="M 487.0329632051887 435.93872853789946 C 487.0329632051887 435.93872853789946 493.2051237393868 331.63903818123026 425.9258617220825 407.7179353258466 " fill="none" stroke="black" stroke-width="1"></path><path id="SvgjsPath1254" d="M 494.0381289304336 435.8334698078428 C 494.0381289304336 435.8334698078428 501.3778170855058 334.95079352064914 427.14490690455494 406.7088538388143 " fill="none" stroke="black" stroke-width="1"></path><path id="SvgjsPath1255" d="M 500.8275959224851 435.8743526585288 C 500.8275959224851 435.8743526585288 509.2988619095659 338.8260598151247 428.391946718109 405.7527985924025 " fill="none" stroke="black" stroke-width="1"></path><path id="SvgjsPath1256" d="M 507.36810937545545 436.0569889303084 C 507.36810937545545 436.0569889303084 516.9294609380313 343.24585601230956 429.66545369491166 404.8509406347362 " fill="none" stroke="black" stroke-width="1"></path><path id="SvgjsPath1257" d="M 513.6276338577651 436.376207271063 C 513.6276338577651 436.376207271063 524.2322395007259 348.1885339526688 430.96386794816453 404.004384629039 " fill="none" stroke="black" stroke-width="1"></path><path id="SvgjsPath1258" d="M 519.5755102216706 436.82608370402875 C 519.5755102216706 436.82608370402875 531.171428591949 353.62988440215446 432.2855990827701 403.2141675005585 " fill="none" stroke="black" stroke-width="1"></path><path id="SvgjsPath1259" d="M 525.1826057717545 437.39997598443284 C 525.1826057717545 437.39997598443284 537.7130400670469 359.54325562902113 433.629028143367 402.48125716646297 " fill="none" stroke="black" stroke-width="1"></path><path id="SvgjsPath1260" d="M 530.4214569568528 438.0905615701188 C 530.4214569568528 438.0905615701188 543.8250331163283 365.89968394399517 434.99250959734763 401.80655135026336 " fill="none" stroke="black" stroke-width="1"></path><path id="SvgjsPath1261" d="M 535.2664038865146 438.8898790135219 C 535.2664038865146 438.8898790135219 549.4774712009337 372.66803556440976 436.3743733504303 401.19087648221455 " fill="none" stroke="black" stroke-width="1"></path><path id="SvgjsPath1262" d="M 539.6937160131329 439.78937256548903 C 539.6937160131329 439.78937256548903 554.6426686819883 379.8151591074567 437.7729267923153 400.6349866870417 " fill="none" stroke="black" stroke-width="1"></path><path id="SvgjsPath1263" d="M 543.6817083641538 440.7799397656013 C 543.6817083641538 440.7799397656013 559.2953264248462 387.30604796564245 439.1864568699211 400.13956286023154 " fill="none" stroke="black" stroke-width="1"></path><path id="SvgjsPath1264" d="M 547.2108477550626 441.85198177894193 C 547.2108477550626 441.85198177894193 563.4126557142397 395.10401176913433 440.61323218566037 399.70521183402064 " fill="none" stroke="black" stroke-width="1"></path><path id="SvgjsPath1265" d="M 550.26384846291 442.99545622571185 C 550.26384846291 442.99545622571185 566.974489873395 403.1708560951729 442.0515051181852 399.3324656341018 " fill="none" stroke="black" stroke-width="1"></path><path id="SvgjsPath1266" d="M 552.8257568917757 444.1999322378118 C 552.8257568917757 444.1999322378118 569.963383040405 411.4670695443356 443.49951396300514 399.0217808279593 " fill="none" stroke="black" stroke-width="1"></path><path id="SvgjsPath1267" d="M 554.8840248154728 445.45464746553546 C 554.8840248154728 445.45464746553546 572.3646956180517 419.952017267351 444.9554850903542 398.7735379656302 " fill="none" stroke="black" stroke-width="1"></path><path id="SvgjsPath1268" d="M 556.4285708387537 446.7485667479073 C 556.4285708387537 446.7485667479073 574.166665978546 428.5841399945697 446.41763511766624 398.58804111357904 " fill="none" stroke="black" stroke-width="1"></path><path id="SvgjsPath1269" d="M 557.4518297759787 448.07044215200335 C 557.4518297759787 448.07044215200335 575.3604680719752 437.32115759324665 447.8841730939953 398.46551748225374 " fill="none" stroke="black" stroke-width="1"></path><path id="SvgjsPath1270" d="M 557.9487897053917 449.4088740798446 C 557.9487897053917 449.4088740798446 575.9402546562903 446.12027615560936 449.3533026937064 398.40611714778134 " fill="none" stroke="black" stroke-width="1"></path><path id="SvgjsPath1271" d="M 557.9170165175102 450.7523731361969 C 557.9170165175102 450.7523731361969 575.9031859370953 454.93839760339654 450.8232244167501 398.40991286814386 " fill="none" stroke="black" stroke-width="1"></path><path id="SvgjsPath1272" d="M 557.3566658373923 452.0894224468567 C 557.3566658373923 452.0894224468567 575.2494434769576 463.7323307822239 452.2921377928251 398.47689999405844 " fill="none" stroke="black" stroke-width="1"></path><path id="SvgjsPath1273" d="M 556.2704822623853 453.40854011478854 C 556.2704822623853 453.40854011478854 573.9822293061161 472.4590030118361 453.7582435867288 398.6069964746724 " fill="none" stroke="black" stroke-width="1"></path><path id="SvgjsPath1274" d="M 554.6637859190893 454.6983415007958 C 554.6637859190893 454.6983415007958 572.1077502389375 481.0756710560732 455.2197460021957 398.80004295806515 " fill="none" stroke="black" stroke-width="1"></path><path id="SvgjsPath1275" d="M 552.5444464053801 455.94760101627406 C 552.5444464053801 455.94760101627406 569.6351874729434 489.54013047921933 456.6748548815234 399.0558029864344 " fill="none" stroke="black" stroke-width="1"></path><path id="SvgjsPath1276" d="M 549.9228442451222 457.14531311799857 C 549.9228442451222 457.14531311799857 566.5766516193091 497.81092236330755 458.1217878982916 399.3739632857274 " fill="none" stroke="black" stroke-width="1"></path><path id="SvgjsPath1277" d="M 546.8118200443685 458.28075219883004 C 546.8118200443685 458.28075219883004 562.9471233850965 505.84753637387945 459.5587727404895 399.7541341493626 " fill="none" stroke="black" stroke-width="1"></path><path id="SvgjsPath1278" d="M 543.2266115980783 459.34353107366235 C 543.2266115980783 459.34353107366235 558.764380197758 513.6106091795822 460.98404928137586 400.19584991557116 " fill="none" stroke="black" stroke-width="1"></path><path id="SvgjsPath1279" d="M 539.1847792554056 460.3236577668576 C 539.1847792554056 460.3236577668576 554.0489091313066 521.0621172537458 462.39587173541474 400.69856953777474 " fill="none" stroke="black" stroke-width="1"></path><path id="SvgjsPath1280" d="M 534.7061199091174 461.21159031578384 C 534.7061199091174 461.21159031578384 548.823806560637 528.1655631135976 463.792510796644 401.26167724729964 " fill="none" stroke="black" stroke-width="1"></path><path id="SvgjsPath1281" d="M 529.8125700304229 461.9982893148456 C 529.8125700304229 461.9982893148456 543.1146650354933 534.8861540849148 465.17225575685916 401.88448330761673 " fill="none" stroke="black" stroke-width="1"></path><path id="SvgjsPath1282" d="M 524.5280982241491 462.6752679355346 C 524.5280982241491 462.6752679355346 536.9494479281739 541.1909727165237 466.53341660101694 402.56622485918206 " fill="none" stroke="black" stroke-width="1"></path><path id="SvgjsPath1283" d="M 518.8785878305264 463.23463917046377 C 518.8785878305264 463.23463917046377 530.3583524689475 547.0491380099606 467.8743260772922 403.3060668538447 " fill="none" stroke="black" stroke-width="1"></path><path id="SvgjsPath1284" d="M 512.8917101486009 463.66916006303285 C 512.8917101486009 463.66916006303285 523.3736618400344 552.4319566745861 469.1933417392532 404.10310307767617 " fill="none" stroke="black" stroke-width="1"></path><path id="SvgjsPath1285" d="M 506.59678890222585 463.97227269922996 C 506.59678890222585 463.97227269922996 516.0295870525968 557.3130636673072 470.48884795765304 404.95635726096924 " fill="none" stroke="black" stroke-width="1"></path><path id="SvgjsPath1286" d="M 500.0246566124773 464.1381417540348 C 500.0246566124773 464.1381417540348 508.3620993812235 561.6685513285463 471.7592578993732 405.8647842740463 " fill="none" stroke="black" stroke-width="1"></path><path id="SvgjsPath1287" d="M 493.20750357998133 464.1616884018763 C 493.20750357998133 464.1616884018763 500.40875417664495 565.477086481945 473.0030154710961 406.82727140741235 " fill="none" stroke="black" stroke-width="1"></path><path id="SvgjsPath1288" d="M 486.17872021683786 464.0386204185227 C 486.17872021683786 464.0386204185227 492.20850691964415 568.7200149242508 474.2185972253244 407.84263973468506 " fill="none" stroke="black" stroke-width="1"></path><path id="SvgjsPath1289" d="M 478.9727335003988 463.76545832056513 C 478.9727335003988 463.76545832056513 483.801522417132 571.3814527935966 475.4045142264141 408.90964555663237 " fill="none" stroke="black" stroke-width="1"></path><path id="SvgjsPath1290" d="M 471.6248383499513 463.3395574081962 C 471.6248383499513 463.3395574081962 475.22897807494314 573.4483643686463 476.5593138743341 410.0269819245482 " fill="none" stroke="black" stroke-width="1"></path><path id="SvgjsPath1291" d="M 464.17102475222 462.75912559719376 C 464.17102475222 462.75912559719376 466.5328622109233 574.910625917552 477.68158168392006 411.1932802411013 " fill="none" stroke="black" stroke-width="1"></path><path id="SvgjsPath1292" d="M 456.64780148243085 462.0232369467931 C 456.64780148243085 462.0232369467931 457.7557683961693 575.7610752839884 478.7699430174412 412.4071119366961 " fill="none" stroke="black" stroke-width="1"></path><path id="SvgjsPath1293" d="M 449.0920172843481 461.13184081136995 C 449.0920172843481 461.13184081136995 448.94068683173947 575.9955469673891 479.8230647683605 413.66699021929145 " fill="none" stroke="black" stroke-width="1"></path><path id="SvgjsPath1294" d="M 441.54068038514674 460.08576656545523 C 441.54068038514674 460.08576656545523 440.13079378267116 575.6128925255678 480.8396569942226 414.97137189553507 " fill="none" stroke="black" stroke-width="1"></path><path id="SvgjsPath1295" d="M 434.0307772291339 458.8867238734533 C 434.0307772291339 458.8867238734533 431.3692401006562 574.6149861997866 481.8184744966726 416.3186592609826 " fill="none" stroke="black" stroke-width="1"></path><path id="SvgjsPath1296" d="M 426.59909131816323 457.5372984974381 C 426.59909131816323 457.5372984974381 422.6989398711905 573.0067157347237 482.7583183466683 417.7072020570857 " fill="none" stroke="black" stroke-width="1"></path><path id="SvgjsPath1297" d="M 419.2820230460623 456.0409436584375 C 419.2820230460623 456.0409436584375 414.162360220406 570.7959584383023 483.658037353018 419.135299492552 " fill="none" stroke="black" stroke-width="1"></path><path id="SvgjsPath1298" d="M 412.11541140952124 454.4019669885873 C 412.11541140952124 454.4019669885873 405.8013133111082 567.9935425986405 484.5165294724461 420.60120232660245 " fill="none" stroke="black" stroke-width="1"></path><path id="SvgjsPath1299" d="M 405.1343584687056 452.6255131333262 C 405.1343584687056 452.6255131333262 397.6567515468232 564.613194447101 485.3327431594582 422.103115011572 " fill="none" stroke="black" stroke-width="1"></path><path id="SvgjsPath1300" d="M 398.3730574173833 450.7175420843156 C 398.3730574173833 450.7175420843156 389.7685669869472 560.6714709272183 486.1056786543526 423.63919789223127 " fill="none" stroke="black" stroke-width="1"></path><path id="SvgjsPath1301" d="M 391.86462510467834 448.68480334488123 C 391.86462510467834 448.68480334488123 382.1753959554581 556.1876785987956 486.83438920780134 425.20756945913394 " fill="none" stroke="black" stroke-width="1"></path><path id="SvgjsPath1302" d="M 385.6409398287617 446.53480605040374 C 385.6409398287617 446.53480605040374 374.914429800222 551.1837790743863 487.51798224049963 426.80630865323064 " fill="none" stroke="black" stroke-width="1"></path><path id="SvgjsPath1303" d="M 379.7324851969623 444.27578518611375 C 379.7324851969623 444.27578518611375 368.0212327297893 545.6842814513263 488.15562043646355 428.43345721892615 " fill="none" stroke="black" stroke-width="1"></path><path id="SvgjsPath1304" d="M 374.1682008170733 441.91666406408353 C 374.1682008170733 441.91666406408353 361.52956761991885 539.7161222661874 488.7465227686378 430.0870221026975 " fill="none" stroke="black" stroke-width="1"></path><path id="SvgjsPath1305" d="M 368.97534055116904 439.4670132397614 C 368.97534055116904 439.4670132397614 355.47123064303054 533.3085335596352 489.28996545555606 431.7649778943354 " fill="none" stroke="black" stroke-width="1"></path><path id="SvgjsPath1306" d="M 364.1793390262013 436.93700606606046 C 364.1793390262013 436.93700606606046 349.87589553056824 526.4928996979086 489.7852828478826 433.4652693078183 " fill="none" stroke="black" stroke-width="1"></path><path id="SvgjsPath1307" d="M 359.80368705521005 434.33737109972117 C 359.80368705521005 434.33737109972117 344.7709682310784 519.3026036522099 490.2318682437499 435.1858136987811 " fill="none" stroke="black" stroke-width="1"></path><path id="SvgjsPath1308" d="M 355.8698165793326 431.6793415903245 C 355.8698165793326 431.6793415903245 340.18145267588807 511.77286348892846 490.62917463189206 436.92450361549356 " fill="none" stroke="black" stroke-width="1"></path><path id="SvgjsPath1309" d="M 352.3969956941671 428.97460229686027 C 352.3969956941671 428.97460229686027 336.12982830986164 503.94055987156986 490.9767153616657 438.67920938022587 " fill="none" stroke="black" stroke-width="1"></path><path id="SvgjsPath1310" d="M 349.4022342746499 426.23523389009597 C 349.4022342746499 426.23523389009597 332.63593998709155 495.84405541928436 491.2740647391356 440.44778169783666 " fill="none" stroke="black" stroke-width="1"></path><path id="SvgjsPath1311" d="M 346.90020066069667 423.4736552110587 C 346.90020066069667 423.4736552110587 329.7169007708128 487.52300680677797 491.52085854849713 442.2280542883916 " fill="none" stroke="black" stroke-width="1"></path><path id="SvgjsPath1312" d="M 344.90314981168126 420.7025636666989 C 344.90314981168126 420.7025636666989 327.38700811362816 479.01817052593964 491.71679449819464 444.01784654058497 " fill="none" stroke="black" stroke-width="1"></path><path id="SvgjsPath1313" d="M 343.4208632816505 417.93487405317853 C 343.4208632816505 417.93487405317853 325.65767382859224 470.37120326056464 491.86163259119087 445.8149661827159 " fill="none" stroke="black" stroke-width="1"></path><path id="SvgjsPath1314" d="M 342.46060130927754 415.1836561051849 C 342.46060130927754 415.1836561051849 324.5373681941571 461.6244578519386 491.9551954189335 447.6172119679472 " fill="none" stroke="black" stroke-width="1"></path><path id="SvgjsPath1315" d="M 342.02706725721663 412.4620710761653 C 342.02706725721663 412.4620710761653 324.03157846675276 452.82077585464225 491.99736837865834 449.4223763705573 " fill="none" stroke="black" stroke-width="1"></path><path id="SvgjsPath1316" d="M 342.12238457503526 409.78330765938256 C 342.12238457503526 409.78330765938256 324.1427820042078 444.0032776986387 491.98809981376326 451.22824828988337 " fill="none" stroke="black" stroke-width="1"></path><path id="SvgjsPath1317" d="M 342.746086398559 407.16051756318046 C 342.746086398559 407.16051756318046 324.87043413165213 435.2151514854296 491.9274010770813 453.0326157586431 " fill="none" stroke="black" stroke-width="1"></path><path id="SvgjsPath1318" d="M 343.8951178365721 404.6067510557963 C 343.8951178365721 404.6067510557963 326.21097080933407 426.4994414527555 491.8153465169746 454.8332686523179 " fill="none" stroke="black" stroke-width="1"></path><path id="SvgjsPath1319" d="M 345.5638509336733 402.134892795471 C 345.5638509336733 402.134892795471 328.1578260892855 417.8988371439413 491.6520733862674 456.6280013962792 " fill="none" stroke="black" stroke-width="1"></path><path id="SvgjsPath1320" d="M 347.7441122359983 399.7575982604652 C 347.7441122359983 399.7575982604652 330.7014642753313 409.455464314535 491.4377816741278 458.41461566734165 " fill="none" stroke="black" stroke-width="1"></path><path id="SvgjsPath1321" d="M 350.4252228247927 397.4872310909128 C 350.4252228247927 397.4872310909128 333.8294266289248 401.21067860037783 491.17273386110674 460.1909230864339 " fill="none" stroke="black" stroke-width="1"></path><path id="SvgjsPath1322" d="M 353.59405062175074 395.3358016502327 C 353.59405062175074 395.3358016502327 337.5263923920425 393.2048629577214 490.85725459763177 461.95474789908934 " fill="none" stroke="black" stroke-width="1"></path><path id="SvgjsPath1323" d="M 357.23507470992814 393.31490710810675 C 357.23507470992814 393.31490710810675 341.7742538282495 385.4772298675279 490.49173030635086 463.70392964047346 " fill="none" stroke="black" stroke-width="1"></path><path id="SvgjsPath1324" d="M 361.33046135518543 391.4356733398306 C 361.33046135518543 391.4356733398306 346.55220491438297 378.06562927275866 490.0766087088132 465.436325781683 " fill="none" stroke="black" stroke-width="1"></path><path id="SvgjsPath1325" d="M 365.8601513558086 389.70869892820565 C 365.8601513558086 389.70869892820565 351.8368432484434 371.00636318937245 489.61239827706595 467.1498143540759 " fill="none" stroke="black" stroke-width="1"></path><path id="SvgjsPath1326" d="M 370.8019582924693 388.1440015440914 C 370.8019582924693 388.1440015440914 357.6022846745475 364.3340078990698 489.09966761083996 468.8422965484175 " fill="none" stroke="black" stroke-width="1"></path><path id="SvgjsPath1327" d="M 376.13167719729495 386.75096697033894 C 376.13167719729495 386.75096697033894 363.82029006351075 358.0812445946825 488.53904474108595 470.51169928565946 " fill="none" stroke="black" stroke-width="1"></path></svg>