<svg id="SvgjsSvg1315" width="300" height="300" xmlns="http://www.w3.org/2000/svg" version="1.1" xmlns:xlink="http://www.w3.org/1999/xlink" xmlns:svgjs="http://svgjs.com/svgjs"><defs id="SvgjsDefs1316"></defs><svg id="SvgjsSvg1317" style="overflow: visible;"><path id="SvgjsPath1318" d="M 109.66788670986449 93.14982303911026 L 109.66788670986449 93.14982303911026 235.52192849625268 113.91598424918371" fill="none" stroke="black" stroke-weight="1"></path><path id="SvgjsPath1319" d="M 107.68447691446661 92.26501674078739 L 107.68447691446661 92.26501674078739 236.67384612991833 110.46104188714756" fill="none" stroke="black" stroke-weight="1"></path><path id="SvgjsPath1320" d="M 105.7590227181854 91.68748635868916 L 105.7590227181854 91.68748635868916 237.42572530661224 107.01573564847885" fill="none" stroke="black" stroke-weight="1"></path><path id="SvgjsPath1321" d="M 103.89388256163903 91.42006063633453 L 103.89388256163903 91.42006063633453 237.77388332250786 103.6032496542241" fill="none" stroke="black" stroke-weight="1"></path><path id="SvgjsPath1322" d="M 102.09134100828913 91.46404942477614 L 102.09134100828913 91.46404942477614 237.71661489981977 100.24685494976023" fill="none" stroke="black" stroke-weight="1"></path><path id="SvgjsPath1323" d="M 100.35360594613627 91.81923726695047 L 100.35360594613627 91.81923726695047 237.2542005392532 96.96978749209975" fill="none" stroke="black" stroke-weight="1"></path><path id="SvgjsPath1324" d="M 98.68280588333295 92.48388445298649 L 98.68280588333295 92.48388445298649 236.38890514611194 93.7951260155215" fill="none" stroke="black" stroke-weight="1"></path><path id="SvgjsPath1325" d="M 97.08098734102767 93.45473554130368 L 97.08098734102767 93.45473554130368 235.12496693679333 90.74567038393786" fill="none" stroke="black" stroke-weight="1"></path><path id="SvgjsPath1326" d="M 95.55011234663218 94.72703530376324 L 95.55011234663218 94.72703530376324 233.46857668000638 87.84382103637178" fill="none" stroke="black" stroke-weight="1"></path><path id="SvgjsPath1327" d="M 94.09205603058334 96.29455201677314 L 94.09205603058334 96.29455201677314 231.42784737438973 85.11146012689768" fill="none" stroke="black" stroke-weight="1"></path><path id="SvgjsPath1328" d="M 92.70860432954274 98.1496079842671 L 92.70860432954274 98.1496079842671 229.01277451104852 82.5698349524214" fill="none" stroke="black" stroke-weight="1"></path><path id="SvgjsPath1329" d="M 91.4014517988477 100.28311714305606 L 91.4014517988477 100.28311714305606 226.23518711564404 80.23944425077606" fill="none" stroke="black" stroke-weight="1"></path><path id="SvgjsPath1330" d="M 90.1721995368929 102.68462956636095 L 90.1721995368929 102.68462956636095 223.10868980983196 78.13992793784364" fill="none" stroke="black" stroke-weight="1"></path><path id="SvgjsPath1331" d="M 89.02235322398491 105.34238264754902 L 89.02235322398491 105.34238264754902 219.64859617583244 76.2899608358479" fill="none" stroke="black" stroke-weight="1"></path><path id="SvgjsPath1332" d="M 87.95332127807225 108.24335871337486 L 87.95332127807225 108.24335871337486 215.87185375051197 74.7071509256782" fill="none" stroke="black" stroke-weight="1"></path><path id="SvgjsPath1333" d="M 86.96641312960944 111.3733487845376 L 86.96641312960944 111.3733487845376 211.7969610163567 73.4079426341943" fill="none" stroke="black" stroke-weight="1"></path><path id="SvgjsPath1334" d="M 86.06283761766849 114.71702217125419 L 86.06283761766849 114.71702217125419 207.44387679591438 72.40752564303335" fill="none" stroke="black" stroke-weight="1"></path><path id="SvgjsPath1335" d="M 85.24370150926214 118.25800156297022 L 85.24370150926214 118.25800156297022 202.83392249349154 71.7197496786146" fill="none" stroke="black" stroke-weight="1"></path><path id="SvgjsPath1336" d="M 84.51000814369266 121.97894324441887 L 84.51000814369266 121.97894324441887 197.9896776629263 71.35704571394203" fill="none" stroke="black" stroke-weight="1"></path><path id="SvgjsPath1337" d="M 83.86265620358675 125.86162204512925 L 83.86265620358675 125.86162204512925 192.93486941294486 71.33035398158587" fill="none" stroke="black" stroke-weight="1"></path><path id="SvgjsPath1338" d="M 83.30243861412166 129.8870206063022 L 83.30243861412166 129.8870206063022 187.69425619179523 71.64905916403174" fill="none" stroke="black" stroke-weight="1"></path><path id="SvgjsPath1339" d="M 82.83004157179094 134.03542252782438 L 82.83004157179094 134.03542252782438 182.29350652037962 72.32093309258342" fill="none" stroke="black" stroke-weight="1"></path><path id="SvgjsPath1340" d="M 82.44604370389963 138.2865089391854 L 82.44604370389963 138.2865089391854 176.75907326785295 73.3520852493639" fill="none" stroke="black" stroke-weight="1"></path><path id="SvgjsPath1341" d="M 82.15091535981814 142.619458021296 L 82.15091535981814 142.619458021296 171.1180640854826 74.74692132885816" fill="none" stroke="black" stroke-weight="1"></path><path id="SvgjsPath1342" d="M 81.94501803486305 147.01304699174676 L 81.94501803486305 147.01304699174676 165.3981086333863 76.50811007606688" fill="none" stroke="black" stroke-weight="1"></path><path id="SvgjsPath1343" d="M 81.82860392751058 151.44575605398603 L 81.82860392751058 151.44575605398603 159.6272232504711 78.63655857788441" fill="none" stroke="black" stroke-weight="1"></path><path id="SvgjsPath1344" d="M 81.80181563048502 155.8958738012725 L 81.80181563048502 155.8958738012725 153.8336737304189 81.13139614297938" fill="none" stroke="black" stroke-weight="1"></path><path id="SvgjsPath1345" d="M 81.86468595610044 160.34160355913417 L 81.86468595610044 160.34160355913417 148.0458368758443 83.9899668634355" fill="none" stroke="black" stroke-weight="1"></path><path id="SvgjsPath1346" d="M 82.01713789606968 164.76117014546898 L 82.01713789606968 164.76117014546898 142.2920615087291 87.20783090892186" fill="none" stroke="black" stroke-weight="1"></path><path id="SvgjsPath1347" d="M 82.25898471582995 169.13292652537592 L 82.25898471582995 169.13292652537592 136.60052961790683 90.77877456140206" fill="none" stroke="black" stroke-weight="1"></path><path id="SvgjsPath1348" d="M 82.58993018326926 173.43545983832075 L 82.58993018326926 173.43545983832075 130.99911832369563 94.69482895557712" fill="none" stroke="black" stroke-weight="1"></path><path id="SvgjsPath1349" d="M 83.0095689315737 177.6476962783161 L 83.0095689315737 177.6476962783161 125.51526333577709 98.94629744759621" fill="none" stroke="black" stroke-weight="1"></path><path id="SvgjsPath1350" d="M 83.51738695575118 181.74900431341263 L 83.51738695575118 181.74900431341263 120.17582457310431 103.52179149226808" fill="none" stroke="black" stroke-weight="1"></path><path id="SvgjsPath1351" d="M 84.11276224222318 185.7192957389321 L 84.11276224222318 185.7192957389321 115.00695460403182 108.40827486727694" fill="none" stroke="black" stroke-weight="1"></path><path id="SvgjsPath1352" d="M 84.79496553071368 189.5391240694834 L 84.79496553071368 189.5391240694834 110.03397055104995 113.59111604194646" fill="none" stroke="black" stroke-weight="1"></path><path id="SvgjsPath1353" d="M 85.5631612075017 193.1897797878384 L 85.5631612075017 193.1897797878384 105.28123008753118 119.05414844811669" fill="none" stroke="black" stroke-weight="1"></path><path id="SvgjsPath1354" d="M 86.41640832894372 196.653381984138 L 86.41640832894372 196.653381984138 100.77201213385808 124.77973837188296" fill="none" stroke="black" stroke-weight="1"></path><path id="SvgjsPath1355" d="M 87.35366177401197 199.9129659365792 L 87.35366177401197 199.9129659365792 96.52840283728365 130.74886014749325" fill="none" stroke="black" stroke-weight="1"></path><path id="SvgjsPath1356" d="M 88.37377352443696 202.95256620461416 L 88.37377352443696 202.95256620461416 92.57118739399289 136.94117829879576" fill="none" stroke="black" stroke-weight="1"></path><path id="SvgjsPath1357" d="M 89.47549407088627 205.75729482766965 L 89.47549407088627 205.75729482766965 88.91974824322249 143.33513623943674" fill="none" stroke="black" stroke-weight="1"></path><path id="SvgjsPath1358" d="M 90.65747394345736 208.31341424637083 L 90.65747394345736 208.31341424637083 85.59197013208329 149.90805111070998" fill="none" stroke="black" stroke-weight="1"></path><path id="SvgjsPath1359" d="M 91.91826536460934 210.60840458909968 L 91.91826536460934 210.60840458909968 82.60415251607779 156.63621430570632" fill="none" stroke="black" stroke-weight="1"></path><path id="SvgjsPath1360" d="M 93.25632402250945 212.63102499432006 L 93.25632402250945 212.63102499432006 79.97092972437575 163.4949972003479" fill="none" stroke="black" stroke-weight="1"></path><path id="SvgjsPath1361" d="M 94.67001096262192 214.3713686683118 L 94.67001096262192 214.3713686683118 77.70519928087712 170.45896158617128" fill="none" stroke="black" stroke-weight="1"></path><path id="SvgjsPath1362" d="M 96.15759459522242 215.82091140864122 L 96.15759459522242 215.82091140864122 75.81805873214633 177.50197427644926" fill="none" stroke="black" stroke-weight="1"></path><path id="SvgjsPath1363" d="M 97.71725281637887 216.97255335570054 L 97.71725281637887 216.97255335570054 74.31875129163514 184.59732533654613" fill="none" stroke="black" stroke-weight="1"></path><path id="SvgjsPath1364" d="M 99.34707523980086 217.8206537678164 L 99.34707523980086 217.8206537678164 73.2146205664277 191.7178493713845" fill="none" stroke="black" stroke-weight="1"></path><path id="SvgjsPath1365" d="M 101.04506553682407 218.3610586495999 L 101.04506553682407 218.3610586495999 72.51107458825676 198.83604928763737" fill="none" stroke="black" stroke-weight="1"></path><path id="SvgjsPath1366" d="M 102.80914388166323 218.59112109821373 L 102.80914388166323 218.59112109821373 72.21155932496703 205.92422193584355" fill="none" stroke="black" stroke-weight="1"></path><path id="SvgjsPath1367" d="M 104.63714949893857 218.50971426790122 L 104.63714949893857 218.50971426790122 72.31754180216636 212.9545850281229" fill="none" stroke="black" stroke-weight="1"></path><path id="SvgjsPath1368" d="M 106.5268433103555 218.11723688927592 L 106.5268433103555 218.11723688927592 72.82850291773512 219.8994047205914" fill="none" stroke="black" stroke-weight="1"></path><path id="SvgjsPath1369" d="M 108.47591067729547 217.4156113163396 L 108.47591067729547 217.4156113163396 73.74193998438807 226.7311232459859" fill="none" stroke="black" stroke-weight="1"></path><path id="SvgjsPath1370" d="M 110.48196423595905 216.408274110793 L 110.48196423595905 216.408274110793 75.05337898783552 233.42248598140606" fill="none" stroke="black" stroke-weight="1"></path><path id="SvgjsPath1371" d="M 112.54254682158782 215.10015920975871 L 112.54254682158782 215.10015920975871 76.75639650050282 239.94666733848317" fill="none" stroke="black" stroke-weight="1"></path><path id="SvgjsPath1372" d="M 114.65513447818395 213.49767375935926 L 114.65513447818395 213.49767375935926 78.84265114347566 246.27739486868197" fill="none" stroke="black" stroke-weight="1"></path><path id="SvgjsPath1373" d="M 116.81713955004082 211.60866673251903 L 116.81713955004082 211.60866673251903 81.30192444256956 252.3890709847899" fill="none" stroke="black" stroke-weight="1"></path><path id="SvgjsPath1374" d="M 119.02591385129756 209.4423904846986 L 119.02591385129756 209.4423904846986 84.12217087841127 258.2568917109292" fill="none" stroke="black" stroke-weight="1"></path><path id="SvgjsPath1375" d="M 121.27875190963579 207.00945543586235 L 121.27875190963579 207.00945543586235 87.28957688538674 263.8569618875722" fill="none" stroke="black" stroke-weight="1"></path><path id="SvgjsPath1376" d="M 123.57289428014457 204.32177810064712 L 123.57289428014457 204.32177810064712 90.78862851047828 269.16640627498225" fill="none" stroke="black" stroke-weight="1"></path><path id="SvgjsPath1377" d="M 125.90553092529562 201.3925227212793 L 125.90553092529562 201.3925227212793 94.60218740059864 274.1634760181673" fill="none" stroke="black" stroke-weight="1"></path><path id="SvgjsPath1378" d="M 128.27380465688776 198.23603678912323 L 128.27380465688776 198.23603678912323 98.71157474623578 278.8276499587115" fill="none" stroke="black" stroke-weight="1"></path><path id="SvgjsPath1379" d="M 130.6748146357453 194.86778077067564 L 130.6748146357453 194.86778077067564 103.09666277025246 283.1397303036474" fill="none" stroke="black" stroke-weight="1"></path><path id="SvgjsPath1380" d="M 133.10561992488311 191.30425238220866 L 133.10561992488311 191.30425238220866 107.73597331372835 287.0819321887145" fill="none" stroke="black" stroke-weight="1"></path><path id="SvgjsPath1381" d="M 135.56324309178692 187.56290578396386 L 135.56324309178692 187.56290578396386 112.60678303597156 290.63796670279623" fill="none" stroke="black" stroke-weight="1"></path><path id="SvgjsPath1382" d="M 138.0446738553956 183.66206608968426 L 138.0446738553956 183.66206608968426 117.68523471342992 293.79311697188615" fill="none" stroke="black" stroke-weight="1"></path><path id="SvgjsPath1383" d="M 140.5468727733191 179.62083961021642 L 140.5468727733191 179.62083961021642 122.94645409235976 296.5343069344552" fill="none" stroke="black" stroke-weight="1"></path><path id="SvgjsPath1384" d="M 143.06677496477545 175.45902027080965 L 143.06677496477545 175.45902027080965 128.3646717229082 298.8501624754094" fill="none" stroke="black" stroke-weight="1"></path><path id="SvgjsPath1385" d="M 145.60129386468623 171.19699266048013 L 145.60129386468623 171.19699266048013 133.91334917786548 300.73106462277264" fill="none" stroke="black" stroke-weight="1"></path><path id="SvgjsPath1386" d="M 148.14732500433297 166.85563218830433 L 148.14732500433297 166.85563218830433 139.56530903786793 302.16919454961516" fill="none" stroke="black" stroke-weight="1"></path><path id="SvgjsPath1387" d="M 150.7017498139431 162.4562028356758 L 150.7017498139431 162.4562028356758 145.2928680063843 303.1585701633952" fill="none" stroke="black" stroke-weight="1"></path><path id="SvgjsPath1388" d="M 153.26143944254795 158.02025300533512 L 153.26143944254795 158.02025300533512 151.0679725024882 303.695074105591" fill="none" stroke="black" stroke-weight="1"></path><path id="SvgjsPath1389" d="M 155.82325859043397 153.56950997730428 L 155.82325859043397 153.56950997730428 156.8623360672831 303.7764730260735" fill="none" stroke="black" stroke-weight="1"></path><path id="SvgjsPath1390" d="M 158.38406934949268 149.12577348867995 L 158.38406934949268 149.12577348867995 162.64757791096383 303.40242803890715" fill="none" stroke="black" stroke-weight="1"></path><path id="SvgjsPath1391" d="M 160.94073504676592 144.71080895853243 L 160.94073504676592 144.71080895853243 168.39536192191062 302.5744963089584" fill="none" stroke="black" stroke-weight="1"></path><path id="SvgjsPath1392" d="M 163.49012408647783 140.34624088089393 L 163.49012408647783 140.34624088089393 174.07753545694942 301.2961237616297" fill="none" stroke="black" stroke-weight="1"></path><path id="SvgjsPath1393" d="M 166.02911378584815 136.0534469079978 L 166.02911378584815 136.0534469079978 179.66626723298396 299.57262895101553" fill="none" stroke="black" stroke-weight="1"></path><path id="SvgjsPath1394" d="M 168.55459419998814 131.8534531425488 L 168.55459419998814 131.8534531425488 185.13418364460628 297.4111781645785" fill="none" stroke="black" stroke-weight="1"></path><path id="SvgjsPath1395" d="M 171.0634719311942 127.76683115188246 L 171.0634719311942 127.76683115188246 190.45450284000208 294.82075188486965" fill="none" stroke="black" stroke-weight="1"></path><path id="SvgjsPath1396" d="M 173.55267391797312 123.81359720843899 L 173.55267391797312 123.81359720843899 195.60116589844733 291.8121027706487" fill="none" stroke="black" stroke-weight="1"></path><path id="SvgjsPath1397" d="M 176.01915119915833 120.01311425007083 L 176.01915119915833 120.01311425007083 200.5489644668889 288.39770536080346" fill="none" stroke="black" stroke-weight="1"></path><path id="SvgjsPath1398" d="M 178.45988264850592 116.38399704038292 L 178.45988264850592 116.38399704038292 205.2736642304449 284.59169774451516" fill="none" stroke="black" stroke-weight="1"></path><path id="SvgjsPath1399" d="M 180.87187867519646 112.94402099362989 L 180.87187867519646 112.94402099362989 209.75212361206673 280.4098154799752" fill="none" stroke="black" stroke-weight="1"></path><path id="SvgjsPath1400" d="M 183.2521848857101 109.71003511074625 L 183.2521848857101 109.71003511074625 213.96240711997186 275.8693180814404" fill="none" stroke="black" stroke-weight="1"></path><path id="SvgjsPath1401" d="M 185.5978857025891 106.69787945294813 L 185.5978857025891 106.69787945294813 217.8838927876713 270.9889084303333" fill="none" stroke="black" stroke-weight="1"></path><path id="SvgjsPath1402" d="M 187.9061079356555 103.92230755712158 L 187.9061079356555 103.92230755712158 221.49737318035113 265.78864550027475" fill="none" stroke="black" stroke-weight="1"></path><path id="SvgjsPath1403" d="M 190.1740243013101 101.3969141730064 L 190.1740243013101 101.3969141730064 224.78514947287846 260.2898508182167" fill="none" stroke="black" stroke-weight="1"></path><path id="SvgjsPath1404" d="M 192.398856885601 99.13406867611866 L 192.398856885601 99.13406867611866 227.73111813863795 254.51500911405896" fill="none" stroke="black" stroke-weight="1"></path><path id="SvgjsPath1405" d="M 194.577880546821 97.14485448255593 L 194.577880546821 97.14485448255593 230.32084982459702 248.48766363914308" fill="none" stroke="black" stroke-weight="1"></path><path id="SvgjsPath1406" d="M 196.7084262534655 95.43901476243059 L 196.7084262534655 95.43901476243059 232.5416600262696 242.23230665967827" fill="none" stroke="black" stroke-weight="1"></path><path id="SvgjsPath1407" d="M 198.78788435346212 94.02490471782768 L 198.78788435346212 94.02490471782768 234.38267121641303 235.77426565434968" fill="none" stroke="black" stroke-weight="1"></path><path id="SvgjsPath1408" d="M 200.81370777066832 92.90945065902937 L 200.81370777066832 92.90945065902937 235.83486612315045 229.13958576596568" fill="none" stroke="black" stroke-weight="1"></path><path id="SvgjsPath1409" d="M 202.7834151247211 92.09811607945062 L 202.7834151247211 92.09811607945062 236.89113189656427 222.35490907492812" fill="none" stroke="black" stroke-weight="1"></path><path id="SvgjsPath1410" d="M 204.69459377041775 91.59487489545117 L 204.69459377041775 91.59487489545117 237.54629494743148 215.4473512774622" fill="none" stroke="black" stroke-weight="1"></path><path id="SvgjsPath1411" d="M 206.54490275290436 91.40219198209537 L 206.54490275290436 91.40219198209537 237.79714628746075 208.4443763638529" fill="none" stroke="black" stroke-weight="1"></path><path id="SvgjsPath1412" d="M 208.33207567505292 91.52101110019524 L 208.33207567505292 91.52101110019524 237.64245724691563 201.3736699013376" fill="none" stroke="black" stroke-weight="1"></path><path id="SvgjsPath1413" d="M 210.0539234735144 91.95075027377047 L 210.0539234735144 91.95075027377047 237.08298549263844 194.26301153276003" fill="none" stroke="black" stroke-weight="1"></path><path id="SvgjsPath1414" d="M 211.70833710004754 92.6893046405666 L 211.70833710004754 92.6893046405666 236.12147131699822 187.14014730556232" fill="none" stroke="black" stroke-weight="1"></path><path id="SvgjsPath1415" d="M 213.29329010483926 93.73305676166918 L 213.29329010483926 93.73305676166918 234.76262421594012 180.03266244616628" fill="none" stroke="black" stroke-weight="1"></path><path id="SvgjsPath1416" d="M 214.80684111865224 95.0768943397178 L 214.80684111865224 95.0768943397178 233.01309982187684 172.96785519226987" fill="none" stroke="black" stroke-weight="1"></path><path id="SvgjsPath1417" d="M 216.2471362307596 96.71423525893586 L 216.2471362307596 96.71423525893586 230.88146730440428 165.9726122900721" fill="none" stroke="black" stroke-weight="1"></path></svg></svg>