<svg id="SvgjsSvg1001" width="600" height="600" xmlns="http://www.w3.org/2000/svg" version="1.1" xmlns:xlink="http://www.w3.org/1999/xlink" xmlns:svgjs="http://svgjs.com/svgjs"><defs id="SvgjsDefs1002"></defs><metadata>72 * Math.cos(t/1);32 * Math.sin(t/1);37 * Math.cos(t/2)+37 * Math.cos(t/2);45 * Math.sin(t/2)+45 * Math.cos(t/2)</metadata><path id="SvgjsPath1008" d="M 236.39999999999998 150 C 236.39999999999998 150 276 150 150 204 " fill="none" stroke="black" stroke-width="1"></path><path id="SvgjsPath1009" d="M 236.18840642188334 152.68580533776125 C 236.18840642188334 152.68580533776125 275.69142603191324 158.81279876452913 146.89263451113496 202.07731422763425 " fill="none" stroke="black" stroke-width="1"></path><path id="SvgjsPath1010" d="M 235.55466207277186 155.35845560233867 C 235.55466207277186 155.35845560233867 274.7672155227923 167.5824324451738 143.7890751564271 200.09084025745034 " fill="none" stroke="black" stroke-width="1"></path><path id="SvgjsPath1011" d="M 234.5018710321664 158.00486015409024 C 234.5018710321664 158.00486015409024 273.23189525524265 176.26594738060854 140.69312340799524 198.04301127165922 " fill="none" stroke="black" stroke-width="1"></path><path id="SvgjsPath1012" d="M 233.0351898700506 160.61205690486196 C 233.0351898700506 160.61205690486196 271.0929852271571 184.82081171907834 137.60857141959178 195.93633560469362 " fill="none" stroke="black" stroke-width="1"></path><path id="SvgjsPath1013" d="M 231.16180239001352 163.16727580628935 C 231.16180239001352 163.16727580628935 268.36096181876974 193.20512373938686 134.53919738168867 193.77339367081223 " fill="none" stroke="black" stroke-width="1"></path><path id="SvgjsPath1014" d="M 228.89088444298343 165.6580013974875 C 228.89088444298343 165.6580013974875 265.04920647935086 201.37781708550585 131.48876089366638 191.55683480341463 " fill="none" stroke="black" stroke-width="1"></path><path id="SvgjsPath1015" d="M 226.2335589839145 168.07203410577247 C 226.2335589839145 168.07203410577247 261.1739401848753 209.29886190956591 128.46099835877482 189.28937400993942 " fill="none" stroke="black" stroke-width="1"></path><path id="SvgjsPath1016" d="M 223.20284159155915 170.3975500001619 C 223.20284159155915 170.3975500001619 256.75414398769044 216.9294609380313 125.45961840750671 186.9737886463195 " fill="none" stroke="black" stroke-width="1"></path><path id="SvgjsPath1017" d="M 219.8135767181699 172.62315870498315 C 219.8135767181699 172.62315870498315 251.81146604733112 224.23223950072597 122.48829735498887 184.61291501506832 " fill="none" stroke="black" stroke-width="1"></path><path id="SvgjsPath1018" d="M 216.08236498137978 174.73795918992735 C 216.08236498137978 174.73795918992735 246.37011559784554 231.1714285919491 119.55067469795591 182.2096448911641 " fill="none" stroke="black" stroke-width="1"></path><path id="SvgjsPath1019" d="M 212.02748185438548 176.7315931632905 C 212.02748185438548 176.7315931632905 240.45674437097884 237.71304006704696 116.65034865682188 179.76692197998688 " fill="none" stroke="black" stroke-width="1"></path><path id="SvgjsPath1020" d="M 207.668788152689 178.594295806881 C 207.668788152689 178.594295806881 234.10031605600477 243.8250331163283 113.79087176831015 177.28773831164784 " fill="none" stroke="black" stroke-width="1"></path><path id="SvgjsPath1021" d="M 203.02763275583328 180.3169436040941 C 203.02763275583328 180.3169436040941 227.3319644355902 249.4774712009338 110.97574653404024 174.77513057612623 " fill="none" stroke="black" stroke-width="1"></path><path id="SvgjsPath1022" d="M 198.12674804060114 181.89109902689168 C 198.12674804060114 181.89109902689168 220.18484089254332 254.6426686819883 108.20842113040115 172.23217640370402 " fill="none" stroke="black" stroke-width="1"></path><path id="SvgjsPath1023" d="M 192.99013853784518 183.30905186281026 C 192.99013853784518 183.30905186281026 212.69395203435755 259.29532642484617 105.49228518496673 169.6619905952537 " fill="none" stroke="black" stroke-width="1"></path><path id="SvgjsPath1024" d="M 187.6429633583079 184.5638569795778 C 187.6429633583079 184.5638569795778 204.89598823086567 263.41265571423963 102.83066562462554 167.06772130699673 " fill="none" stroke="black" stroke-width="1"></path><path id="SvgjsPath1025" d="M 182.11141296331 185.649368342368 C 182.11141296331 185.649368342368 196.82914390482708 266.97448987339504 100.2268226005115 164.45254619440567 " fill="none" stroke="black" stroke-width="1"></path><path id="SvgjsPath1026" d="M 176.42258088388414 186.56026911707582 C 176.42258088388414 186.56026911707582 188.53293045566437 269.963383040405 97.68394549472646 161.81966851997362 " fill="none" stroke="black" stroke-width="1"></path><path id="SvgjsPath1027" d="M 170.60433101667363 187.29209771216813 C 170.60433101667363 187.29209771216813 180.04798273264905 272.36469561805166 95.20514901374588 159.17231322961845 " fill="none" stroke="black" stroke-width="1"></path><path id="SvgjsPath1028" d="M 164.68516114658075 187.84126963155688 C 164.68516114658075 187.84126963155688 171.41586000543026 274.166665978546 92.79346937329302 156.51372300252706 " fill="none" stroke="black" stroke-width="1"></path><path id="SvgjsPath1029" d="M 158.69406336463084 188.2050950314591 C 158.69406336463084 188.2050950314591 162.6788424067533 275.3604680719752 90.45186057935413 153.8471542792789 " fill="none" stroke="black" stroke-width="1"></path><path id="SvgjsPath1030" d="M 152.660382064725 188.3817918952504 C 152.660382064725 188.3817918952504 153.87972384439064 275.94025465629034 88.1831908098907 151.17587327311364 " fill="none" stroke="black" stroke-width="1"></path><path id="SvgjsPath1031" d="M 146.6136702148138 188.3704947617814 C 146.6136702148138 188.3704947617814 145.06160239660343 275.9031859370952 85.99023890168002 148.5031519692282 " fill="none" stroke="black" stroke-width="1"></path><path id="SvgjsPath1032" d="M 140.58354460647504 188.17125896440612 C 140.58354460647504 188.17125896440612 136.2676692177761 275.24944347695754 83.87569094658765 145.83226411700417 " fill="none" stroke="black" stroke-width="1"></path><path id="SvgjsPath1033" d="M 134.59954079188378 187.78506035995918 C 134.59954079188378 187.78506035995918 127.54099698816385 273.98222930611604 81.84213700144078 143.16648122007408 " fill="none" stroke="black" stroke-width="1"></path><path id="SvgjsPath1034" d="M 128.69096841869265 187.2137905490095 C 128.69096841869265 187.2137905490095 118.92432894392678 272.10775023893746 79.89206791553238 140.50906852913846 " fill="none" stroke="black" stroke-width="1"></path><path id="SvgjsPath1035" d="M 122.88676767139246 186.4602476108018 C 122.88676767139246 186.4602476108018 110.45986952078067 269.63518747294336 78.02787227964247 137.86328104244237 " fill="none" stroke="black" stroke-width="1"></path><path id="SvgjsPath1036" d="M 117.21536752230335 185.52812239826562 C 117.21536752230335 185.52812239826562 102.18907763669239 266.57665161930913 76.25183350031301 135.2323595188093 " fill="none" stroke="black" stroke-width="1"></path><path id="SvgjsPath1037" d="M 111.70454648648266 184.42198046021988 C 111.70454648648266 184.42198046021988 94.15246362612052 262.94712338509646 74.56612700296034 132.61952650811685 " fill="none" stroke="black" stroke-width="1"></path><path id="SvgjsPath1038" d="M 106.38129656257223 183.14723967931673 C 106.38129656257223 183.14723967931673 86.38939082041784 258.76438019775804 72.97281756725127 130.02798240407628 " fill="none" stroke="black" stroke-width="1"></path><path id="SvgjsPath1039" d="M 101.27169102600291 181.71014373525531 C 101.27169102600291 181.71014373525531 78.93788274625425 254.04890913130657 71.47385679800601 127.46090152415036 " fill="none" stroke="black" stroke-width="1"></path><path id="SvgjsPath1040" d="M 96.40075672210443 180.1177315232417 C 96.40075672210443 180.1177315232417 71.8344368864023 248.82380656063685 70.07108073472635 124.92142822141119 " fill="none" stroke="black" stroke-width="1"></path><path id="SvgjsPath1041" d="M 91.7923514846299 178.37780267748366 C 91.7923514846299 178.37780267748366 65.11384591508528 243.11466503549326 68.7662076026769 122.41267303310116 " fill="none" stroke="black" stroke-width="1"></path><path id="SvgjsPath1042" d="M 87.46904728009804 176.49887936858636 C 87.46904728009804 176.49887936858636 58.809027283476325 236.94944792817392 67.56083570827398 119.93770887061376 " fill="none" stroke="black" stroke-width="1"></path><path id="SvgjsPath1043" d="M 83.45201965031264 174.49016456196495 C 83.45201965031264 174.49016456196495 52.95086199003927 230.35835246894746 66.45644148136016 117.49956725556125 " fill="none" stroke="black" stroke-width="1"></path><path id="SvgjsPath1044" d="M 79.7609439945695 172.36149694172474 C 79.7609439945695 172.36149694172474 47.56804332541387 223.37366184003432 65.45437766676221 115.1012346065398 " fill="none" stroke="black" stroke-width="1"></path><path id="SvgjsPath1045" d="M 76.41389919956075 170.1233027207914 C 76.41389919956075 170.1233027207914 42.68693633269275 216.02958705259678 64.55587166734796 112.74564858114019 " fill="none" stroke="black" stroke-width="1"></path><path id="SvgjsPath1046" d="M 73.4272790889968 167.78654457332527 C 73.4272790889968 167.78654457332527 38.33144867145367 208.36209938122354 63.76202404061125 110.43569447768465 " fill="none" stroke="black" stroke-width="1"></path><path id="SvgjsPath1047" d="M 70.81571212666636 165.36266793954894 C 70.81571212666636 165.36266793954894 34.52291351805509 200.40875417664492 63.07380715062658 108.17420170109718 " fill="none" stroke="black" stroke-width="1"></path><path id="SvgjsPath1048" d="M 68.59198976622795 162.86354496598676 C 68.59198976622795 162.86354496598676 31.279985075749096 192.2085069196441 62.49206397702474 105.9639402972362 " fill="none" stroke="black" stroke-width="1"></path><path id="SvgjsPath1049" d="M 66.76700379867661 160.30141635569737 C 66.76700379867661 160.30141635569737 28.618547206403377 183.80152241713196 62.01750708244818 103.80761755993493 " fill="none" stroke="black" stroke-width="1"></path><path id="SvgjsPath1050" d="M 65.3496930043569 157.68883141331602 C 65.3496930043569 157.68883141331602 26.551635631353818 175.2289780749432 61.65071773975082 101.70787471490496 " fill="none" stroke="black" stroke-width="1"></path><path id="SvgjsPath1051" d="M 64.34699937082146 155.0385865785671 C 64.34699937082146 155.0385865785671 25.08937408244796 166.53286221092333 61.3921452200116 99.66728368456496 " fill="none" stroke="black" stroke-width="1"></path><path id="SvgjsPath1052" d="M 63.76383409097943 152.36366274930873 C 63.76383409097943 152.36366274930873 24.238924716011667 157.75576839616923 61.24210624223346 97.68834393775735 " fill="none" stroke="black" stroke-width="1"></path><path id="SvgjsPath1053" d="M 63.60305350807606 149.67716170110154 C 63.60305350807606 149.67716170110154 24.00445303261091 148.94068683173944 61.20078458540229 95.77347942821152 " fill="none" stroke="black" stroke-width="1"></path><path id="SvgjsPath1054" d="M 63.86544512532497 146.99224191471885 C 63.86544512532497 146.99224191471885 24.38710747443224 140.1307937826712 61.26823086338052 93.92503562550361 " fill="none" stroke="black" stroke-width="1"></path><path id="SvgjsPath1055" d="M 64.54972374871777 144.32205412591424 C 64.54972374871777 144.32205412591424 25.38501380021343 131.3692401006561 61.44436246291163 92.14527664214972 " fill="none" stroke="black" stroke-width="1"></path><path id="SvgjsPath1056" d="M 65.65253778190376 141.6796769131247 C 65.65253778190376 141.6796769131247 26.993284265276316 122.69893987119039 61.72896364481086 90.43638246035093 " fill="none" stroke="black" stroke-width="1"></path><path id="SvgjsPath1057" d="M 67.16848564230699 139.07805263859993 C 67.16848564230699 139.07805263859993 29.204041561697693 114.16236022040599 62.12168580821894 88.80044626178784 " fill="none" stroke="black" stroke-width="1"></path><path id="SvgjsPath1058" d="M 69.09014221807514 136.52992405671867 C 69.09014221807514 136.52992405671867 32.00645740135957 105.80131331110816 62.6220479175944 87.23947186373488 " fill="none" stroke="black" stroke-width="1"></path><path id="SvgjsPath1059" d="M 71.40809523627352 134.04777189998424 C 71.40809523627352 134.04777189998424 35.38680555289889 97.65675154682327 63.22943709192202 85.75537126463453 " fill="none" stroke="black" stroke-width="1"></path><path id="SvgjsPath1060" d="M 74.11099136419318 131.64375374840293 C 74.11099136419318 131.64375374840293 39.32852907278172 89.76856698694709 63.943109355415444 84.3499623021384 " fill="none" stroke="black" stroke-width="1"></path><path id="SvgjsPath1061" d="M 77.18559181796876 129.32964448166342 C 77.18559181796876 129.32964448166342 43.81232140120444 82.17539595545807 64.76219054879445 83.02496642648335 " fill="none" stroke="black" stroke-width="1"></path><path id="SvgjsPath1062" d="M 80.61683720613512 127.11677860578195 C 80.61683720613512 127.11677860578195 48.816220925613706 74.91442980022204 65.68567740002078 81.78200659193034 " fill="none" stroke="black" stroke-width="1"></path><path id="SvgjsPath1063" d="M 84.38792129051915 125.01599473669766 C 84.38792129051915 125.01599473669766 54.31571854867376 68.02123272978922 66.7124387531809 80.6226052688484 " fill="none" stroke="black" stroke-width="1"></path><path id="SvgjsPath1064" d="M 88.48037330318581 123.03758251273716 C 88.48037330318581 123.03758251273716 60.28387773381266 61.529567619918794 67.84121695401059 79.54818257887862 " fill="none" stroke="black" stroke-width="1"></path><path id="SvgjsPath1065" d="M 92.87414841625014 121.1912321959712 C 92.87414841625014 121.1912321959712 66.69146644036479 55.47123064303051 69.07062939036419 78.56005455546291 " fill="none" stroke="black" stroke-width="1"></path><path id="SvgjsPath1066" d="M 97.5477259214341 119.48598720931602 C 97.5477259214341 119.48598720931602 73.50710030209139 49.8758955305682 70.39917018574143 77.65943153186753 " fill="none" stroke="black" stroke-width="1"></path><path id="SvgjsPath1067" d="M 102.47821463848467 117.93019984185247 C 102.47821463848467 117.93019984185247 80.69739634779016 44.77096823107841 71.82521204379798 76.84741665867618 " fill="none" stroke="black" stroke-width="1"></path><path id="SvgjsPath1068" d="M 107.64146503616337 116.53149033931827 C 107.64146503616337 116.53149033931827 88.22713651107159 40.18145267588807 73.34700824157996 76.12500455256854 " fill="none" stroke="black" stroke-width="1"></path><path id="SvgjsPath1069" d="M 113.01218751663784 115.2967095801483 C 113.01218751663784 115.2967095801483 96.05944012843017 36.12982830986162 74.9626947690411 75.49308007803914 " fill="none" stroke="black" stroke-width="1"></path><path id="SvgjsPath1070" d="M 118.56407628391929 114.23190551987551 C 118.56407628391929 114.23190551987551 104.15594458071564 32.63593998709153 76.67029261222196 74.95241726354904 " fill="none" stroke="black" stroke-width="1"></path><path id="SvgjsPath1071" d="M 124.26993818963795 113.34229356824771 C 124.26993818963795 113.34229356824771 112.47699319322203 29.716900770812813 78.46771017729462 74.50367835343772 " fill="none" stroke="black" stroke-width="1"></path><path id="SvgjsPath1072" d="M 130.10182592507 112.63223104415334 C 130.10182592507 112.63223104415334 120.98182947406039 27.387008113628156 80.35274585250346 74.14741299675663 " fill="none" stroke="black" stroke-width="1"></path><path id="SvgjsPath1073" d="M 136.03117490704142 112.10519583347573 C 136.03117490704142 112.10519583347573 129.6287967394354 25.65767382859221 82.3230907048644 73.8840575740178 " fill="none" stroke="black" stroke-width="1"></path><path id="SvgjsPath1074" d="M 142.02894318724213 111.76376935440979 C 142.02894318724213 111.76376935440979 138.3755421480614 24.53736819415711 84.37633130831897 73.71393466268229 " fill="none" stroke="black" stroke-width="1"></path><path id="SvgjsPath1075" d="M 148.0657536996739 111.60962391367704 C 148.0657536996739 111.60962391367704 147.17922414535775 24.031578466752777 86.50995269987942 73.63725264204312 " fill="none" stroke="black" stroke-width="1"></path><path id="SvgjsPath1076" d="M 154.11203814950488 111.6435145155681 C 154.11203814950488 111.6435145155681 155.99672230136127 24.142782004207817 88.72134146014403 73.65410543798673 " fill="none" stroke="black" stroke-width="1"></path><path id="SvgjsPath1077" d="M 160.13818183856256 111.86527516393208 C 160.13818183856256 111.86527516393208 164.7848485145704 24.870434131652146 91.00778891440898 73.76447240794546 " fill="none" stroke="black" stroke-width="1"></path><path id="SvgjsPath1078" d="M 166.11466871811055 112.27381967522564 C 166.11466871811055 112.27381967522564 173.50055854724454 26.2109708093341 93.36649445045609 73.96821836618221 " fill="none" stroke="black" stroke-width="1"></path><path id="SvgjsPath1079" d="M 172.01222595844027 112.86714699863938 C 172.01222595844027 112.86714699863938 182.10116285605872 28.15782608928552 95.7945689489527 74.26509374937591 " fill="none" stroke="black" stroke-width="1"></path><path id="SvgjsPath1080" d="M 177.80196732717604 113.64235101724384 C 177.80196732717604 113.64235101724384 190.54453568546506 30.70146427533132 98.28903832226156 74.65473492230552 " fill="none" stroke="black" stroke-width="1"></path><path id="SvgjsPath1081" d="M 183.45553467402664 114.59563478214851 C 183.45553467402664 114.59563478214851 198.7893213996222 33.82942662892479 100.84684715732621 75.13666462325769 " fill="none" stroke="black" stroke-width="1"></path><path id="SvgjsPath1082" d="M 188.94523682899109 115.72232910995582 C 188.94523682899109 115.72232910995582 206.79513704227864 37.52639239204254 103.46486245816993 75.71029254861257 " fill="none" stroke="black" stroke-width="1"></path><path id="SvgjsPath1083" d="M 194.24418523369516 117.0169154524189 C 194.24418523369516 117.0169154524189 214.5227701324721 41.77425382824953 106.13987748342414 76.37491607589205 " fill="none" stroke="black" stroke-width="1"></path><path id="SvgjsPath1084" d="M 199.3264256415369 118.47305292628815 C 199.3264256415369 118.47305292628815 221.93437072724134 46.552204914383 108.86861567418542 77.12972112438437 " fill="none" stroke="black" stroke-width="1"></path><path id="SvgjsPath1085" d="M 204.16706524157317 120.08360937095418 C 204.16706524157317 120.08360937095418 228.99363681062755 51.836843248443415 111.64773466739052 77.97378315229122 " fill="none" stroke="black" stroke-width="1"></path><path id="SvgjsPath1086" d="M 208.742394583495 121.84069628176687 C 208.742394583495 121.84069628176687 235.66599210093023 57.602284674547505 114.47383038979325 78.90606828917585 " fill="none" stroke="black" stroke-width="1"></path><path id="SvgjsPath1087" d="M 213.0300037065034 123.7357074479271 C 213.0300037065034 123.7357074479271 241.91875540531748 63.82029006351077 117.34344122752836 79.92543460232496 " fill="none" stroke="black" stroke-width="1"></path><metadata>72 * Math.cos(t/1);32 * Math.sin(t/1);37 * Math.cos(t/2)+37 * Math.cos(t/2);45 * Math.sin(t/2)+45 * Math.cos(t/2)</metadata><path id="SvgjsPath1088" d="M 450 188.4 C 450 188.4 450 276 387.2089178306346 150 " fill="none" stroke="black" stroke-width="1"></path><path id="SvgjsPath1089" d="M 443.9569379900372 188.30595840972592 C 443.9569379900372 188.30595840972592 441.18720123547087 275.69142603191324 385.0501342337443 147.32768204334948 " fill="none" stroke="black" stroke-width="1"></path><path id="SvgjsPath1090" d="M 437.94347489473796 188.02429425456526 C 437.94347489473796 188.02429425456526 432.4175675548262 274.7672155227923 382.9709061006332 144.65863734203057 " fill="none" stroke="black" stroke-width="1"></path><path id="SvgjsPath1091" d="M 431.989064653297 187.5563871254073 C 431.989064653297 187.5563871254073 423.7340526193915 273.23189525524265 380.9737802257634 141.99613514204646 " fill="none" stroke="black" stroke-width="1"></path><path id="SvgjsPath1092" d="M 426.12287196406055 186.9045288311336 C 426.12287196406055 186.9045288311336 415.17918828092166 271.09298522715716 379.06120283859684 139.3434366756542 " fill="none" stroke="black" stroke-width="1"></path><path id="SvgjsPath1093" d="M 420.373629435849 186.07191217333934 C 420.373629435849 186.07191217333934 406.79487626061314 268.36096181876974 377.2355166072709 136.70379116676327 " fill="none" stroke="black" stroke-width="1"></path><path id="SvgjsPath1094" d="M 414.76949685565313 185.06261530799264 C 414.76949685565313 185.06261530799264 398.62218291449415 265.04920647935086 375.4989577691223 134.0804318510423 " fill="none" stroke="black" stroke-width="1"></path><path id="SvgjsPath1095" d="M 409.33792326201194 183.88158177062866 C 409.33792326201194 183.88158177062866 390.7011380904341 261.1739401848753 373.85365339157636 131.47657201560992 " fill="none" stroke="black" stroke-width="1"></path><path id="SvgjsPath1096" d="M 404.10551249963567 182.5345962629152 C 404.10551249963567 182.5345962629152 383.0705390619687 256.75414398769044 372.3016187667553 128.89540106315974 " fill="none" stroke="black" stroke-width="1"></path><path id="SvgjsPath1097" d="M 399.0978929137879 181.02825631918662 C 399.0978929137879 181.02825631918662 375.76776049927406 251.81146604733115 370.8447549429973 126.34008060534093 " fill="none" stroke="black" stroke-width="1"></path><path id="SvgjsPath1098" d="M 394.33959182266346 179.36993999172435 C 394.33959182266346 179.36993999172435 368.82857140805095 246.37011559784554 369.48484639631005 123.81374059017914 " fill="none" stroke="black" stroke-width="1"></path><path id="SvgjsPath1099" d="M 389.85391538259637 177.56776971306022 C 389.85391538259637 177.56776971306022 362.286959932953 240.4567443709788 368.2235588446107 121.3194754682818 " fill="none" stroke="black" stroke-width="1"></path><path id="SvgjsPath1100" d="M 385.6628344345178 175.63057251230623 C 385.6628344345178 175.63057251230623 356.1749668836717 234.10031605600477 367.0624372074299 118.86034040252295 " fill="none" stroke="black" stroke-width="1"></path><path id="SvgjsPath1101" d="M 381.7868768907883 173.56783678037036 C 381.7868768907883 173.56783678037036 350.52252879906627 227.33196443559024 366.0029037135785 116.43934752585068 " fill="none" stroke="black" stroke-width="1"></path><path id="SvgjsPath1102" d="M 378.2450271894937 171.38966579582274 C 378.2450271894937 171.38966579582274 345.3573313180117 220.18484089254332 365.04625615909504 114.05946225180108 " fill="none" stroke="black" stroke-width="1"></path><path id="SvgjsPath1103" d="M 375.0546333086769 169.1067282390423 C 375.0546333086769 169.1067282390423 340.70467357515383 212.69395203435752 364.1936663176077 111.72359964223745 " fill="none" stroke="black" stroke-width="1"></path><path id="SvgjsPath1104" d="M 372.23132179594995 166.73020593702574 C 372.23132179594995 166.73020593702574 336.58734428576037 204.89598823086567 363.4461785050588 109.43462083676391 " fill="none" stroke="black" stroke-width="1"></path><path id="SvgjsPath1105" d="M 369.788921229672 164.27173909480445 C 369.788921229672 164.27173909480445 333.025510126605 196.8291439048271 362.80470830054736 107.19532954818732 " fill="none" stroke="black" stroke-width="1"></path><path id="SvgjsPath1106" d="M 367.73939448657944 161.7433692817263 C 367.73939448657944 161.7433692817263 330.036616959595 188.53293045566437 362.2700414248601 105.00846862831952 " fill="none" stroke="black" stroke-width="1"></path><path id="SvgjsPath1107" d="M 366.09278014762174 159.15748045185495 C 366.09278014762174 159.15748045185495 327.63530438194834 180.04798273264902 361.8428327780613 102.87671670832702 " fill="none" stroke="black" stroke-width="1"></path><path id="SvgjsPath1108" d="M 364.85714332899704 156.52673828736923 C 364.85714332899704 156.52673828736923 325.833334021454 171.41586000543026 361.52360563732213 100.80268491774274 " fill="none" stroke="black" stroke-width="1"></path><path id="SvgjsPath1109" d="M 364.038536179217 153.86402816205816 C 364.038536179217 153.86402816205816 324.6395319280248 162.67884240675332 361.3127510159715 98.78891368615865 " fill="none" stroke="black" stroke-width="1"></path><path id="SvgjsPath1110" d="M 363.6409682356866 151.18239202876669 C 363.6409682356866 151.18239202876669 324.05974534370966 153.87972384439064 361.21052718455394 96.83786963151749 " fill="none" stroke="black" stroke-width="1"></path><path id="SvgjsPath1111" d="M 363.66638678599185 148.49496453991725 C 363.66638678599185 148.49496453991725 324.0968140629048 145.0616023966034 361.2170593544801 94.95194253881402 " fill="none" stroke="black" stroke-width="1"></path><path id="SvgjsPath1112" d="M 364.11466733008626 145.81490871398893 C 364.11466733008626 145.81490871398893 324.75055652304246 136.2676692177761 361.3323395246587 93.13344243290729 " fill="none" stroke="black" stroke-width="1"></path><path id="SvgjsPath1113" d="M 364.9836141900919 143.15535146305947 C 364.9836141900919 143.15535146305947 326.01777069388396 127.5409969881639 361.5562264912967 91.38459674902919 " fill="none" stroke="black" stroke-width="1"></path><path id="SvgjsPath1114" d="M 366.2689712647286 140.52931929719674 C 366.2689712647286 140.52931929719674 327.89224976106254 118.92432894392678 361.88844602085635 89.70754760445448 " fill="none" stroke="black" stroke-width="1"></path><path id="SvgjsPath1115" d="M 367.96444287569597 137.94967452061888 C 367.96444287569597 137.94967452061888 330.36481252705664 110.45986952078066 362.3285911859569 88.1043491746754 " fill="none" stroke="black" stroke-width="1"></path><path id="SvgjsPath1116" d="M 370.06172460390235 135.42905223213484 C 370.06172460390235 135.42905223213484 333.42334838069087 102.18907763669239 362.87612286381 86.57696517729335 " fill="none" stroke="black" stroke-width="1"></path><path id="SvgjsPath1117" d="M 372.55054396450527 132.97979843843672 C 372.55054396450527 132.97979843843672 337.05287661490354 94.15246362612054 363.5303703965775 85.12726646671031 " fill="none" stroke="black" stroke-width="1"></path><path id="SvgjsPath1118" d="M 375.41871072153737 130.61390958336546 C 375.41871072153737 130.61390958336546 341.23561980224196 86.38939082041787 364.29053241284345 83.7570287425663 " fill="none" stroke="black" stroke-width="1"></path><path id="SvgjsPath1119" d="M 378.65217659567554 128.34297378933462 C 378.65217659567554 128.34297378933462 345.9510908686934 78.93788274625425 365.1556778091937 82.46793037472936 " fill="none" stroke="black" stroke-width="1"></path><path id="SvgjsPath1120" d="M 382.2351040727061 126.17811409871308 C 382.2351040727061 126.17811409871308 351.17619343936315 71.8344368864023 366.1247468907018 81.26155034750221 " fill="none" stroke="black" stroke-width="1"></path><path id="SvgjsPath1121" d="M 386.14994397566176 124.12993399316885 C 386.14994397566176 124.12993399316885 356.8853349645067 65.11384591508528 367.19655266892187 80.13936632556401 " fill="none" stroke="black" stroke-width="1"></path><path id="SvgjsPath1122" d="M 390.37752142068075 122.20846545782135 C 390.37752142068075 122.20846545782135 363.050552071826 58.809027283476325 368.3697823158017 79.10275284401592 " fill="none" stroke="black" stroke-width="1"></path><path id="SvgjsPath1123" d="M 394.8971297355789 120.4231198445834 C 394.8971297355789 120.4231198445834 369.6416475310525 52.95086199003927 369.6429987717327 78.1529796247475 " fill="none" stroke="black" stroke-width="1"></path><path id="SvgjsPath1124" d="M 399.6866318811193 118.78264177536424 C 399.6866318811193 118.78264177536424 376.6263381599656 47.568043325413896 371.0146425057683 77.29121002118605 " fill="none" stroke="black" stroke-width="1"></path><path id="SvgjsPath1125" d="M 404.72256887821936 117.29506631091589 C 404.72256887821936 117.29506631091589 383.9704129474032 42.68693633269275 372.48303342585405 76.51849959333421 " fill="none" stroke="black" stroke-width="1"></path><path id="SvgjsPath1126" d="M 409.9802747100182 115.96767959510969 C 409.9802747100182 115.96767959510969 391.6379006187765 38.33144867145366 374.04637293673085 75.83579481484107 " fill="none" stroke="black" stroke-width="1"></path><path id="SvgjsPath1127" d="M 415.4339971360149 114.80698316740727 C 415.4339971360149 114.80698316740727 399.59124582335505 34.52291351805509 375.70274614298864 75.24393191369003 " fill="none" stroke="black" stroke-width="1"></path><path id="SvgjsPath1128" d="M 421.05702382652976 113.81866211832354 C 421.05702382652976 113.81866211832354 407.79149308035585 31.27998507574914 377.4501241945743 74.74363584792442 " fill="none" stroke="black" stroke-width="1"></path><path id="SvgjsPath1129" d="M 426.82181319968095 113.00755724385627 C 426.82181319968095 113.00755724385627 416.198477582868 28.618547206403377 379.28636677187893 74.33551941766424 " fill="none" stroke="black" stroke-width="1"></path><path id="SvgjsPath1130" d="M 432.70012932003897 112.37764133526973 C 432.70012932003897 112.37764133526973 424.77102192505686 26.551635631353804 381.20922470736195 74.02008251450286 " fill="none" stroke="black" stroke-width="1"></path><path id="SvgjsPath1131" d="M 438.663180198224 111.9319997203651 C 438.663180198224 111.9319997203651 433.4671377890767 25.08937408244796 383.2163427404999 73.7977115092022 " fill="none" stroke="black" stroke-width="1"></path><path id="SvgjsPath1132" d="M 444.68175881405534 111.67281515154642 C 444.68175881405534 111.67281515154642 442.2442316038307 24.238924716011667 385.3052624026863 73.66867877843694 " fill="none" stroke="black" stroke-width="1"></path><path id="SvgjsPath1133" d="M 450.72638617252153 111.60135711470048 C 450.72638617252153 111.60135711470048 451.05931316826053 24.00445303261091 387.47342502854804 73.63314237116711 " fill="none" stroke="black" stroke-width="1"></path><path id="SvgjsPath1134" d="M 456.7674556918827 111.71797561125554 C 456.7674556918827 111.71797561125554 459.86920621732884 24.38710747443224 389.7181748899906 73.69114581504789 " fill="none" stroke="black" stroke-width="1"></path><path id="SvgjsPath1135" d="M 462.77537821669296 112.02209944387457 C 462.77537821669296 112.02209944387457 468.6307598993439 25.38501380021343 392.0367624491329 73.8426180631137 " fill="none" stroke="black" stroke-width="1"></path><path id="SvgjsPath1136" d="M 468.72072694546944 112.51223901417944 C 468.72072694546944 112.51223901417944 477.3010601288096 26.9932842652763 394.4263477261474 74.0873735808018 " fill="none" stroke="black" stroke-width="1"></path><path id="SvgjsPath1137" d="M 474.57438156315015 113.18599361880311 C 474.57438156315015 113.18599361880311 485.837639779594 29.204041561697693 396.88400377788014 74.42511257320895 " fill="none" stroke="black" stroke-width="1"></path><path id="SvgjsPath1138" d="M 480.307670872383 114.04006320803339 C 480.307670872383 114.04006320803339 494.1986866888919 32.00645740135958 399.40672028299025 74.8554213523027 " fill="none" stroke="black" stroke-width="1"></path><path id="SvgjsPath1139" d="M 485.8925132250355 115.07026454945489 C 485.8925132250355 115.07026454945489 502.3432484531767 35.38680555289889 401.991407229217 75.37777284363749 " fill="none" stroke="black" stroke-width="1"></path><path id="SvgjsPath1140" d="M 491.3015540660934 116.27155171741919 C 491.3015540660934 116.27155171741919 510.2314330130529 39.328529072781706 404.63489869825844 75.99152723195485 " fill="none" stroke="black" stroke-width="1"></path><path id="SvgjsPath1141" d="M 496.50829991625733 117.63804080798612 C 496.50829991625733 117.63804080798612 517.824604044542 43.81232140120444 407.33395674362583 76.69593274487728 " fill="none" stroke="black" stroke-width="1"></path><path id="SvgjsPath1142" d="M 501.4872481369906 119.16303875828228 C 501.4872481369906 119.16303875828228 525.085570199778 48.81622092561375 410.08527535672255 77.49012657373522 " fill="none" stroke="black" stroke-width="1"></path><path id="SvgjsPath1143" d="M 506.2140118424303 120.83907612911962 C 506.2140118424303 120.83907612911962 531.9787672702107 54.31571854867376 412.8854845162915 78.37313593039983 " fill="none" stroke="black" stroke-width="1"></path><path id="SvgjsPath1144" d="M 510.6654393463414 122.65794369030479 C 510.6654393463414 122.65794369030479 538.4704323800811 60.2838777338126 415.73115431627014 79.34387923882689 " fill="none" stroke="black" stroke-width="1"></path><path id="SvgjsPath1145" d="M 514.8197275590649 124.61073262944451 C 514.8197275590649 124.61073262944451 544.5287693569695 66.69146644036479 418.6187991669958 80.40116745985205 " fill="none" stroke="black" stroke-width="1"></path><path id="SvgjsPath1146" d="M 518.6565287790389 126.68787818730404 C 518.6565287790389 126.68787818730404 550.1241044694318 73.50710030209137 421.5448820646176 81.54370554761526 " fill="none" stroke="black" stroke-width="1"></path><path id="SvgjsPath1147" d="M 522.1570503558319 128.87920650599318 C 522.1570503558319 128.87920650599318 555.2290317689216 80.69739634779015 424.5058189234837 82.77009403582998 " fill="none" stroke="black" stroke-width="1"></path><path id="SvgjsPath1148" d="M 525.3041467365339 131.17398446051703 C 525.3041467365339 131.17398446051703 559.8185473241119 88.22713651107158 427.49798296619826 84.0788307519543 " fill="none" stroke="black" stroke-width="1"></path><path id="SvgjsPath1149" d="M 528.0824034446663 133.56097222961682 C 528.0824034446663 133.56097222961682 563.8701716901384 96.05944012843017 430.51770916597 85.46831265716452 " fill="none" stroke="black" stroke-width="1"></path><path id="SvgjsPath1150" d="M 530.4782125802801 136.02847834840856 C 530.4782125802801 136.02847834840856 567.3640600129085 104.15594458071563 433.56129873581193 86.93683780987728 " fill="none" stroke="black" stroke-width="1"></path><path id="SvgjsPath1151" d="M 532.4798394714426 138.56441697317243 C 532.4798394714426 138.56441697317243 570.2830992291872 112.47699319322201 436.62502365909256 88.48260745041514 " fill="none" stroke="black" stroke-width="1"></path><path id="SvgjsPath1152" d="M 534.077480150655 141.15636707780888 C 534.077480150655 141.15636707780888 572.6129918863719 120.98182947406039 439.7051312558904 90.10372820426227 " fill="none" stroke="black" stroke-width="1"></path><path id="SvgjsPath1153" d="M 535.2633093746797 143.7916332920184 C 535.2633093746797 143.7916332920184 574.3423261714078 129.6287967394354 442.7978487795576 91.79821440121142 " fill="none" stroke="black" stroke-width="1"></path><path id="SvgjsPath1154" d="M 536.0315189525779 146.45730808321872 C 536.0315189525779 146.45730808321872 575.4626318058429 138.3755421480614 445.8993880378626 93.56399050756175 " fill="none" stroke="black" stroke-width="1"></path><path id="SvgjsPath1155" d="M 536.3783461942267 149.14033497763285 C 536.3783461942267 149.14033497763285 575.9684215332472 147.17922414535775 449.00595003305205 95.39889366838794 " fill="none" stroke="black" stroke-width="1"></path><path id="SvgjsPath1156" d="M 536.3020923399718 151.82757251089106 C 536.3020923399718 151.82757251089106 575.8572179957922 155.99672230136127 452.11372961514815 97.30067635676704 " fill="none" stroke="black" stroke-width="1"></path><path id="SvgjsPath1157" d="M 535.8031308811528 154.50585859491667 C 535.8031308811528 154.50585859491667 575.1295658683479 164.7848485145704 455.2189201427811 99.26700912671801 " fill="none" stroke="black" stroke-width="1"></path><path id="SvgjsPath1158" d="M 534.8839057307423 157.1620749858269 C 534.8839057307423 157.1620749858269 573.7890291906659 173.50055854724454 458.31771814584937 101.29548346648158 " fill="none" stroke="black" stroke-width="1"></path><path id="SvgjsPath1159" d="M 533.5489192530613 159.78321153708455 C 533.5489192530613 159.78321153708455 571.8421739107145 182.1011628560587 461.4063279842945 103.38361474864614 " fill="none" stroke="black" stroke-width="1"></path><path id="SvgjsPath1160" d="M 531.8047102112014 162.35642992318935 C 531.8047102112014 162.35642992318935 569.2985357246687 190.54453568546504 464.48096649728564 105.52884527350555 " fill="none" stroke="black" stroke-width="1"></path><path id="SvgjsPath1161" d="M 529.6598217401659 164.8691265217896 C 529.6598217401659 164.8691265217896 566.1705733710752 198.78932139962217 467.5378676371188 107.72854740192146 " fill="none" stroke="black" stroke-width="1"></path><path id="SvgjsPath1162" d="M 527.1247595025993 167.30899414621825 C 527.1247595025993 167.30899414621825 562.4736076079574 206.79513704227864 470.57328708215374 109.98002677385264 " fill="none" stroke="black" stroke-width="1"></path><path id="SvgjsPath1163" d="M 524.2119402320575 169.66408232608674 C 524.2119402320575 169.66408232608674 558.2257461717504 214.5227701324721 473.5835068231404 112.28052560860917 " fill="none" stroke="black" stroke-width="1"></path><path id="SvgjsPath1164" d="M 520.9356309158517 171.92285584068307 C 520.9356309158517 171.92285584068307 553.447795085617 221.93437072724134 476.56483971731495 114.62722608278892 " fill="none" stroke="black" stroke-width="1"></path><path id="SvgjsPath1165" d="M 517.3118789153531 174.07425121847697 C 517.3118789153531 174.07425121847697 548.1631567515566 228.99363681062755 479.51363400468875 117.01725378175878 " fill="none" stroke="black" stroke-width="1"></path><path id="SvgjsPath1166" d="M 513.3584333660245 176.10773092599777 C 513.3584333660245 176.10773092599777 542.3977153254525 235.66599210093023 482.4262777809975 119.44768122045328 " fill="none" stroke="black" stroke-width="1"></path><path id="SvgjsPath1167" d="M 509.0946582421641 178.01333498066816 C 509.0946582421641 178.01333498066816 536.1797099364892 241.91875540531746 485.29920342183254 121.91553142917762 " fill="none" stroke="black" stroke-width="1"></path><metadata>72 * Math.cos(t/1);32 * Math.sin(t/1);37 * Math.cos(t/2)+37 * Math.cos(t/2);45 * Math.sin(t/2)+45 * Math.cos(t/2)</metadata><path id="SvgjsPath1168" d="M 63.60000000000001 450 C 63.60000000000001 450 24 450 61.2 396 " fill="none" stroke="black" stroke-width="1"></path><path id="SvgjsPath1169" d="M 63.81159357811666 447.3141946622387 C 63.81159357811666 447.3141946622387 24.308573968086776 441.1872012354709 61.25438444791422 394.1434574750975 " fill="none" stroke="black" stroke-width="1"></path><path id="SvgjsPath1170" d="M 64.44533792722815 444.64154439766133 C 64.44533792722815 444.64154439766133 25.23278447720773 432.4175675548262 61.41747117750877 392.3553322300961 " fill="none" stroke="black" stroke-width="1"></path><path id="SvgjsPath1171" d="M 65.4981289678336 441.99513984590976 C 65.4981289678336 441.99513984590976 26.768104744757323 423.7340526193915 61.68906042793343 390.6378144948215 " fill="none" stroke="black" stroke-width="1"></path><path id="SvgjsPath1172" d="M 66.96481012994938 439.38794309513804 C 66.96481012994938 439.38794309513804 28.90701477284287 415.17918828092166 62.06881953631782 388.99300801372885 " fill="none" stroke="black" stroke-width="1"></path><path id="SvgjsPath1173" d="M 68.83819760998647 436.83272419371065 C 68.83819760998647 436.83272419371065 31.639038181230262 406.79487626061314 62.556283345241894 387.4229274690794 " fill="none" stroke="black" stroke-width="1"></path><path id="SvgjsPath1174" d="M 71.10911555701657 434.3419986025125 C 71.10911555701657 434.3419986025125 34.95079352064914 398.6221829144942 63.150854772495634 385.92949601320663 " fill="none" stroke="black" stroke-width="1"></path><path id="SvgjsPath1175" d="M 73.76644101608551 431.92796589422755 C 73.76644101608551 431.92796589422755 38.826059815124694 390.7011380904341 63.851805542429986 384.5145429128948 " fill="none" stroke="black" stroke-width="1"></path><path id="SvgjsPath1176" d="M 76.79715840844085 429.6024499998381 C 76.79715840844085 429.6024499998381 43.24585601230956 383.0705390619687 64.65827707800355 383.1798013087562 " fill="none" stroke="black" stroke-width="1"></path><path id="SvgjsPath1177" d="M 80.18642328183007 427.37684129501685 C 80.18642328183007 427.37684129501685 48.18853395266885 375.76776049927406 65.56928155243206 381.9269060923506 " fill="none" stroke="black" stroke-width="1"></path><path id="SvgjsPath1178" d="M 83.9176350186202 425.2620408100727 C 83.9176350186202 425.2620408100727 53.62988440215446 368.82857140805095 66.58370309915276 380.75739190364715 " fill="none" stroke="black" stroke-width="1"></path><path id="SvgjsPath1179" d="M 87.97251814561452 423.26840683670946 C 87.97251814561452 423.26840683670946 59.54325562902116 362.28695993295304 67.70029917862121 379.67269125128297 " fill="none" stroke="black" stroke-width="1"></path><path id="SvgjsPath1180" d="M 92.331211847311 421.405704193119 C 92.331211847311 421.405704193119 65.89968394399519 356.1749668836717 68.91770210026702 378.6741327579186 " fill="none" stroke="black" stroke-width="1"></path><path id="SvgjsPath1181" d="M 96.97236724416669 419.6830563959059 C 96.97236724416669 419.6830563959059 72.66803556440975 350.52252879906627 70.23442069774377 377.76293953284164 " fill="none" stroke="black" stroke-width="1"></path><path id="SvgjsPath1182" d="M 101.87325195939884 418.10890097310835 C 101.87325195939884 418.10890097310835 79.81515910745665 345.3573313180117 71.6488421554212 376.9402276738109 " fill="none" stroke="black" stroke-width="1"></path><path id="SvgjsPath1183" d="M 107.00986146215483 416.6909481371897 C 107.00986146215483 416.6909481371897 87.30604796564248 340.70467357515383 73.15923398388283 376.2070048999761 " fill="none" stroke="black" stroke-width="1"></path><path id="SvgjsPath1184" d="M 112.35703664169213 415.4361430204222 C 112.35703664169213 415.4361430204222 95.10401176913436 336.5873442857603 74.76374614200867 375.5641693175478 " fill="none" stroke="black" stroke-width="1"></path><path id="SvgjsPath1185" d="M 117.88858703668998 414.350631657632 C 117.88858703668998 414.350631657632 103.1708560951729 333.025510126605 76.4604133030444 375.01250831972993 " fill="none" stroke="black" stroke-width="1"></path><path id="SvgjsPath1186" d="M 123.57741911611585 413.4397308829242 C 123.57741911611585 413.4397308829242 111.46706954433562 330.036616959595 78.24715726188093 374.55269762226123 " fill="none" stroke="black" stroke-width="1"></path><path id="SvgjsPath1187" d="M 129.3956689833264 412.70790228783187 C 129.3956689833264 412.70790228783187 119.95201726735098 327.63530438194834 80.12178948059557 374.18530043574816 " fill="none" stroke="black" stroke-width="1"></path><path id="SvgjsPath1188" d="M 135.3148388534192 412.1587303684431 C 135.3148388534192 412.1587303684431 128.58413999456968 325.833334021454 82.08201376913743 373.9107667758023 " fill="none" stroke="black" stroke-width="1"></path><path id="SvgjsPath1189" d="M 141.30593663536916 411.7949049685409 C 141.30593663536916 411.7949049685409 137.32115759324665 324.6395319280248 84.12542909787328 373.7294329118275 " fill="none" stroke="black" stroke-width="1"></path><path id="SvgjsPath1190" d="M 147.339617935275 411.6182081047496 C 147.339617935275 411.6182081047496 146.12027615560936 324.05974534370966 86.24953253854825 373.6415209551318 " fill="none" stroke="black" stroke-width="1"></path><path id="SvgjsPath1191" d="M 153.3863297851862 411.6295052382186 C 153.3863297851862 411.6295052382186 154.9383976033966 324.0968140629048 88.45172233006026 373.6471385868691 " fill="none" stroke="black" stroke-width="1"></path><path id="SvgjsPath1192" d="M 159.41645539352498 411.8287410355939 C 159.41645539352498 411.8287410355939 163.73233078222393 324.75055652304246 90.72930106529188 373.74627892614296 " fill="none" stroke="black" stroke-width="1"></path><path id="SvgjsPath1193" d="M 165.4004592081162 412.2149396400408 C 165.4004592081162 412.2149396400408 172.4590030118361 326.01777069388396 93.07947899509674 373.938820538435 " fill="none" stroke="black" stroke-width="1"></path><path id="SvgjsPath1194" d="M 171.30903158130735 412.7862094509905 C 171.30903158130735 412.7862094509905 181.0756710560732 327.89224976106254 95.49937744539353 374.22452758434684 " fill="none" stroke="black" stroke-width="1"></path><path id="SvgjsPath1195" d="M 177.11323232860755 413.5397523891982 C 177.11323232860755 413.5397523891982 189.54013047921933 330.36481252705664 97.98603234318165 374.6030501084741 " fill="none" stroke="black" stroke-width="1"></path><path id="SvgjsPath1196" d="M 182.78463247769662 414.4718776017344 C 182.78463247769662 414.4718776017344 197.81092236330755 333.42334838069087 100.53639784715992 375.07392446805784 " fill="none" stroke="black" stroke-width="1"></path><path id="SvgjsPath1197" d="M 188.29545351351734 415.57801953978014 C 188.29545351351734 415.57801953978014 205.84753637387945 337.05287661490354 103.14735007850152 375.63657390088895 " fill="none" stroke="black" stroke-width="1"></path><path id="SvgjsPath1198" d="M 193.61870343742777 416.8527603206833 C 193.61870343742777 416.8527603206833 213.61060917958218 341.235619802242 105.81569094721469 376.29030923176987 " fill="none" stroke="black" stroke-width="1"></path><path id="SvgjsPath1199" d="M 198.7283089739971 418.2898562647447 C 198.7283089739971 418.2898562647447 221.06211725374575 345.9510908686934 108.53815206940325 377.0343297166678 " fill="none" stroke="black" stroke-width="1"></path><path id="SvgjsPath1200" d="M 203.59924327789554 419.88226847675827 C 203.59924327789554 419.88226847675827 228.1655631135976 351.1761934393631 111.31139877062796 377.8677240235263 " fill="none" stroke="black" stroke-width="1"></path><path id="SvgjsPath1201" d="M 208.20764851537007 421.62219732251634 C 208.20764851537007 421.62219732251634 234.88615408491472 356.8853349645067 114.13203417046608 378.7894713485329 " fill="none" stroke="black" stroke-width="1"></path><path id="SvgjsPath1202" d="M 212.53095271990196 423.50112063141364 C 212.53095271990196 423.50112063141364 241.1909727165237 363.0505520718261 116.9966033432647 379.7984426664762 " fill="none" stroke="black" stroke-width="1"></path><path id="SvgjsPath1203" d="M 216.54798034968735 425.50983543803505 C 216.54798034968735 425.50983543803505 247.04913800996073 369.6416475310525 119.90159754999274 380.89340211366056 " fill="none" stroke="black" stroke-width="1"></path><path id="SvgjsPath1204" d="M 220.23905600543048 427.6385030582752 C 220.23905600543048 427.6385030582752 252.4319566745861 376.6263381599656 122.84345853600789 382.0730085016845 " fill="none" stroke="black" stroke-width="1"></path><path id="SvgjsPath1205" d="M 223.58610080043925 429.8766972792086 C 223.58610080043925 429.8766972792086 257.31306366730723 383.9704129474032 125.81858288947299 383.33581696022895 " fill="none" stroke="black" stroke-width="1"></path><path id="SvgjsPath1206" d="M 226.57272091100322 432.2134554266747 C 226.57272091100322 432.2134554266747 261.66855132854636 391.6379006187765 128.82332645508538 384.68028070684255 " fill="none" stroke="black" stroke-width="1"></path><path id="SvgjsPath1207" d="M 229.18428787333363 434.63733206045106 C 229.18428787333363 434.63733206045106 265.4770864819449 399.59124582335505 131.8540087977113 386.1047529415568 " fill="none" stroke="black" stroke-width="1"></path><path id="SvgjsPath1208" d="M 231.40801023377202 437.13645503401324 C 231.40801023377202 437.13645503401324 268.72001492425085 407.79149308035585 134.90691771045854 387.6074888640101 " fill="none" stroke="black" stroke-width="1"></path><path id="SvgjsPath1209" d="M 233.23299620132337 439.69858364430263 C 233.23299620132337 439.69858364430263 271.3814527935966 416.198477582868 137.97831376166627 389.1866478106101 " fill="none" stroke="black" stroke-width="1"></path><path id="SvgjsPath1210" d="M 234.65030699564312 442.311168586684 C 234.65030699564312 442.311168586684 273.4483643686462 424.77102192505686 141.06443487524044 390.84029550911634 " fill="none" stroke="black" stroke-width="1"></path><path id="SvgjsPath1211" d="M 235.65300062917854 444.9614134214329 C 235.65300062917854 444.9614134214329 274.910625917552 433.4671377890767 144.16150093872693 392.56640644788155 " fill="none" stroke="black" stroke-width="1"></path><path id="SvgjsPath1212" d="M 236.23616590902057 447.63633725069127 C 236.23616590902057 447.63633725069127 275.76107528398836 442.2442316038307 147.26571843347693 394.3628663568509 " fill="none" stroke="black" stroke-width="1"></path><path id="SvgjsPath1213" d="M 236.39694649192393 450.32283829889843 C 236.39694649192393 450.32283829889843 275.9955469673891 451.05931316826053 150.37328508123227 396.22747479727775 " fill="none" stroke="black" stroke-width="1"></path><path id="SvgjsPath1214" d="M 236.13455487467502 453.0077580852812 C 236.13455487467502 453.0077580852812 275.61289252556776 459.86920621732884 153.48039450144125 398.1579478569862 " fill="none" stroke="black" stroke-width="1"></path><path id="SvgjsPath1215" d="M 235.45027625128222 455.67794587408576 C 235.45027625128222 455.67794587408576 274.6149861997866 468.6307598993439 156.58324087359875 400.1519209478779 " fill="none" stroke="black" stroke-width="1"></path><path id="SvgjsPath1216" d="M 234.34746221809627 458.3203230868753 C 234.34746221809627 458.3203230868753 273.0067157347237 477.3010601288096 159.67802359890044 402.2069517022569 " fill="none" stroke="black" stroke-width="1"></path><path id="SvgjsPath1217" d="M 232.831514357693 460.92194736140004 C 232.831514357693 460.92194736140004 270.7959584383023 485.837639779594 162.76095195550113 404.32052296442436 " fill="none" stroke="black" stroke-width="1"></path><path id="SvgjsPath1218" d="M 230.90985778192487 463.47007594328136 C 230.90985778192487 463.47007594328136 267.99354259864043 494.1986866888919 165.82824974167482 406.4900458738799 " fill="none" stroke="black" stroke-width="1"></path><path id="SvgjsPath1219" d="M 228.59190476372652 465.95222810001576 C 228.59190476372652 465.95222810001576 264.61319444710114 502.3432484531767 168.87615990118962 408.7128630363517 " fill="none" stroke="black" stroke-width="1"></path><path id="SvgjsPath1220" d="M 225.88900863580682 468.35624625159704 C 225.88900863580682 468.35624625159704 260.6714709272183 510.2314330130529 171.90094912523233 410.98625177877227 " fill="none" stroke="black" stroke-width="1"></path><path id="SvgjsPath1221" d="M 222.81440818203126 470.6703555183366 C 222.81440818203126 470.6703555183366 256.18767859879557 517.824604044542 174.89891242524408 413.3074274842126 " fill="none" stroke="black" stroke-width="1"></path><path id="SvgjsPath1222" d="M 219.38316279386487 472.883221394218 C 219.38316279386487 472.883221394218 251.18377907438625 525.085570199778 177.86637767106865 415.6735470026895 " fill="none" stroke="black" stroke-width="1"></path><path id="SvgjsPath1223" d="M 215.61207870948084 474.9840052633023 C 215.61207870948084 474.9840052633023 245.68428145132623 531.9787672702107 180.79971008885244 418.08171213366893 " fill="none" stroke="black" stroke-width="1"></path><path id="SvgjsPath1224" d="M 211.5196266968142 476.9624174872628 C 211.5196266968142 476.9624174872628 239.71612226618743 538.4704323800811 183.69531671318796 420.5289731759991 " fill="none" stroke="black" stroke-width="1"></path><path id="SvgjsPath1225" d="M 207.12585158374986 478.8087678040288 C 207.12585158374986 478.8087678040288 233.3085335596352 544.5287693569695 186.54965078804742 423.01233254092597 " fill="none" stroke="black" stroke-width="1"></path><path id="SvgjsPath1226" d="M 202.45227407856592 480.514012790684 C 202.45227407856592 480.514012790684 226.49289969790863 550.1241044694318 189.35921611111485 425.52874842376394 " fill="none" stroke="black" stroke-width="1"></path><path id="SvgjsPath1227" d="M 197.52178536151533 482.06980015814753 C 197.52178536151533 482.06980015814753 219.30260365220985 555.2290317689216 192.12057131619713 428.07513852972676 " fill="none" stroke="black" stroke-width="1"></path><path id="SvgjsPath1228" d="M 192.35853496383663 483.4685096606817 C 192.35853496383663 483.4685096606817 211.77286348892844 559.8185473241119 194.83033408846723 430.648383849353 " fill="none" stroke="black" stroke-width="1"></path><path id="SvgjsPath1229" d="M 186.98781248336218 484.70329041985167 C 186.98781248336218 484.70329041985167 203.94055987156983 563.8701716901384 197.4851853073767 433.2453324789027 " fill="none" stroke="black" stroke-width="1"></path><path id="SvgjsPath1230" d="M 181.4359237160807 485.7680944801245 C 181.4359237160807 485.7680944801245 195.8440554192844 567.3640600129085 200.08187311216352 435.86280348104526 " fill="none" stroke="black" stroke-width="1"></path><path id="SvgjsPath1231" d="M 175.73006181036206 486.6577064317523 C 175.73006181036206 486.6577064317523 187.52300680677797 570.2830992291872 202.61721688497482 438.4975907811098 " fill="none" stroke="black" stroke-width="1"></path><path id="SvgjsPath1232" d="M 169.89817407493 487.36776895584666 C 169.89817407493 487.36776895584666 179.01817052593964 572.6129918863719 205.0881111467259 441.14646709412597 " fill="none" stroke="black" stroke-width="1"></path><path id="SvgjsPath1233" d="M 163.96882509295858 487.8948041665243 C 163.96882509295858 487.8948041665243 170.3712032605646 574.3423261714078 207.491529360924 443.8061878778443 " fill="none" stroke="black" stroke-width="1"></path><path id="SvgjsPath1234" d="M 157.9710568127579 488.23623064559024 C 157.9710568127579 488.23623064559024 161.6244578519386 575.4626318058429 209.824527640797 446.47349530689485 " fill="none" stroke="black" stroke-width="1"></path><path id="SvgjsPath1235" d="M 151.9342463003261 488.39037608632293 C 151.9342463003261 488.39037608632293 152.82077585464225 575.9684215332472 212.08424835518628 449.1451222632156 " fill="none" stroke="black" stroke-width="1"></path><path id="SvgjsPath1236" d="M 145.88796185049515 488.3564854844319 C 145.88796185049515 488.3564854844319 144.00327769863875 575.8572179957922 214.26792362878808 451.81779633786414 " fill="none" stroke="black" stroke-width="1"></path><path id="SvgjsPath1237" d="M 139.86181816143744 488.1347248360679 C 139.86181816143744 488.1347248360679 135.21515148542963 575.1295658683479 216.37287873245418 454.48824383930867 " fill="none" stroke="black" stroke-width="1"></path><path id="SvgjsPath1238" d="M 133.88533128188948 487.72618032477436 C 133.88533128188948 487.72618032477436 126.49944145275548 573.7890291906659 218.3965353594009 457.1531938032914 " fill="none" stroke="black" stroke-width="1"></path><path id="SvgjsPath1239" d="M 127.98777404155975 487.1328530013606 C 127.98777404155975 487.1328530013606 117.89883714394131 571.8421739107145 220.3364147833123 459.80938199935036 " fill="none" stroke="black" stroke-width="1"></path><path id="SvgjsPath1240" d="M 122.19803267282397 486.3576489827562 C 122.19803267282397 486.3576489827562 109.45546431453496 569.2985357246687 222.19014089447023 462.4535549290937 " fill="none" stroke="black" stroke-width="1"></path><path id="SvgjsPath1241" d="M 116.54446532597336 485.4043652178515 C 116.54446532597336 485.4043652178515 101.21067860037783 566.1705733710752 223.95544311019134 465.0824738113282 " fill="none" stroke="black" stroke-width="1"></path><path id="SvgjsPath1242" d="M 111.05476317100894 484.2776708900442 C 111.05476317100894 484.2776708900442 93.20486295772136 562.4736076079574 225.63015915600704 467.6929185491617 " fill="none" stroke="black" stroke-width="1"></path><path id="SvgjsPath1243" d="M 105.75581476630484 482.9830845475811 C 105.75581476630484 482.9830845475811 85.47722986752791 558.2257461717504 227.21223771417945 470.2816916742184 " fill="none" stroke="black" stroke-width="1"></path><path id="SvgjsPath1244" d="M 100.6735743584631 481.5269470737119 C 100.6735743584631 481.5269470737119 78.06562927275867 553.447795085617 228.6997409363089 472.8456222631384 " fill="none" stroke="black" stroke-width="1"></path><path id="SvgjsPath1245" d="M 95.83293475842683 479.91639062904585 C 95.83293475842683 479.91639062904585 71.00636318937248 548.1631567515566 230.09084681695606 475.38156982156215 " fill="none" stroke="black" stroke-width="1"></path><path id="SvgjsPath1246" d="M 91.25760541650499 478.1593037182331 C 91.25760541650499 478.1593037182331 64.33400789906977 542.3977153254525 231.38385142537075 477.886428130843 " fill="none" stroke="black" stroke-width="1"></path><path id="SvgjsPath1247" d="M 86.9699962934966 476.2642925520729 C 86.9699962934966 476.2642925520729 58.081244594682545 536.1797099364892 232.57717099259398 480.35712905277705 " fill="none" stroke="black" stroke-width="1"></path><metadata>72 * Math.cos(t/1);32 * Math.sin(t/1);37 * Math.cos(t/2)+37 * Math.cos(t/2);45 * Math.sin(t/2)+45 * Math.cos(t/2)</metadata><path id="SvgjsPath1248" d="M 450 411.6 C 450 411.6 450 324 387.20891783063456 373.6324676318529 " fill="none" stroke="black" stroke-width="1"></path><path id="SvgjsPath1249" d="M 456.04306200996285 411.6940415902741 C 456.04306200996285 411.6940415902741 458.81279876452913 324.30857396808676 389.44461265134737 373.67923797066385 " fill="none" stroke="black" stroke-width="1"></path><path id="SvgjsPath1250" d="M 462.056525105262 411.97570574543477 C 462.056525105262 411.97570574543477 467.5824324451737 325.2327844772077 391.75448024929403 373.8194916992801 " fill="none" stroke="black" stroke-width="1"></path><path id="SvgjsPath1251" d="M 468.010935346703 412.4436128745927 C 468.010935346703 412.4436128745927 476.2659473806085 326.76810474475735 394.1356913255092 374.0530570244225 " fill="none" stroke="black" stroke-width="1"></path><path id="SvgjsPath1252" d="M 473.87712803593945 413.0954711688664 C 473.87712803593945 413.0954711688664 484.82081171907834 328.9070147728429 396.5853291941877 374.3796478577744 " fill="none" stroke="black" stroke-width="1"></path><path id="SvgjsPath1253" d="M 479.626370564151 413.92808782666066 C 479.626370564151 413.92808782666066 493.2051237393868 331.63903818123026 399.10039335526017 374.798864166404 " fill="none" stroke="black" stroke-width="1"></path><path id="SvgjsPath1254" d="M 485.2305031443468 414.93738469200736 C 485.2305031443468 414.93738469200736 501.3778170855058 334.95079352064914 401.67780316963047 375.310192462755 " fill="none" stroke="black" stroke-width="1"></path><path id="SvgjsPath1255" d="M 490.66207673798806 416.11841822937134 C 490.66207673798806 416.11841822937134 509.2988619095659 338.8260598151247 404.31440163257344 375.9130064336046 " fill="none" stroke="black" stroke-width="1"></path><path id="SvgjsPath1256" d="M 495.89448750036433 417.46540373708484 C 495.89448750036433 417.46540373708484 516.9294609380313 343.24585601230956 407.0069592406704 376.6065677072184 " fill="none" stroke="black" stroke-width="1"></path><path id="SvgjsPath1257" d="M 500.902107086212 418.97174368081335 C 500.902107086212 418.97174368081335 524.2322395007259 348.1885339526688 409.75217794754786 377.39002675776396 " fill="none" stroke="black" stroke-width="1"></path><path id="SvgjsPath1258" d="M 505.66040817733654 420.6300600082757 C 505.66040817733654 420.6300600082757 531.171428591949 353.62988440215446 412.54669520357106 378.2624239458736 " fill="none" stroke="black" stroke-width="1"></path><path id="SvgjsPath1259" d="M 510.14608461740363 422.4322302869398 C 510.14608461740363 422.4322302869398 537.7130400670469 359.54325562902113 415.3870880745473 379.22269069408253 " fill="none" stroke="black" stroke-width="1"></path><path id="SvgjsPath1260" d="M 514.3371655654822 424.36942748769377 C 514.3371655654822 424.36942748769377 543.8250331163283 365.89968394399517 418.2698774343922 380.26965079570266 " fill="none" stroke="black" stroke-width="1"></path><path id="SvgjsPath1261" d="M 518.2131231092117 426.4321632196296 C 518.2131231092117 426.4321632196296 549.4774712009337 372.66803556440976 421.1915322266241 381.40202185552863 " fill="none" stroke="black" stroke-width="1"></path><path id="SvgjsPath1262" d="M 521.7549728105063 428.61033420417726 C 521.7549728105063 428.61033420417726 554.6426686819883 379.8151591074567 424.14847378946655 382.6184168606118 " fill="none" stroke="black" stroke-width="1"></path><path id="SvgjsPath1263" d="M 524.9453666913231 430.8932717609577 C 524.9453666913231 430.8932717609577 559.2953264248462 387.30604796564245 427.1370802392617 383.9173458791774 " fill="none" stroke="black" stroke-width="1"></path><path id="SvgjsPath1264" d="M 527.76867820405 433.26979406297426 C 527.76867820405 433.26979406297426 563.4126557142397 395.10401176913433 430.1536909068248 385.2972178856049 " fill="none" stroke="black" stroke-width="1"></path><path id="SvgjsPath1265" d="M 530.211078770328 435.72826090519555 C 530.211078770328 435.72826090519555 566.974489873395 403.1708560951729 433.19461082130596 386.7563427092351 " fill="none" stroke="black" stroke-width="1"></path><path id="SvgjsPath1266" d="M 532.2606055134206 438.2566307182737 C 532.2606055134206 438.2566307182737 569.963383040405 411.4670695443356 436.256115236068 388.29293310461844 " fill="none" stroke="black" stroke-width="1"></path><path id="SvgjsPath1267" d="M 533.9072198523783 440.84251954814505 C 533.9072198523783 440.84251954814505 572.3646956180517 419.952017267351 439.3344541910346 389.9051069406664 " fill="none" stroke="black" stroke-width="1"></path><path id="SvgjsPath1268" d="M 535.142856671003 443.47326171263074 C 535.142856671003 443.47326171263074 574.166665978546 428.5841399945697 442.42585710592294 391.5908895060274 " fill="none" stroke="black" stroke-width="1"></path><path id="SvgjsPath1269" d="M 535.961463820783 446.13597183794184 C 535.961463820783 446.13597183794184 575.3604680719752 437.32115759324665 445.52653739873284 393.34821592786074 " fill="none" stroke="black" stroke-width="1"></path><path id="SvgjsPath1270" d="M 536.3590317643134 448.8176079712333 C 536.3590317643134 448.8176079712333 575.9402546562903 446.12027615560936 448.6326971238363 395.17493370104813 " fill="none" stroke="black" stroke-width="1"></path><path id="SvgjsPath1271" d="M 536.3336132140082 451.50503546008275 C 536.3336132140082 451.50503546008275 575.9031859370953 454.93839760339654 451.740531623986 397.0688053247429 " fill="none" stroke="black" stroke-width="1"></path><path id="SvgjsPath1272" d="M 535.8853326699137 454.18509128601113 C 535.8853326699137 454.18509128601113 575.2494434769576 463.7323307822239 454.84623419054446 399.027511043029 " fill="none" stroke="black" stroke-width="1"></path><path id="SvgjsPath1273" d="M 535.0163858099081 456.84464853694055 C 535.0163858099081 456.84464853694055 573.9822293061161 472.4590030118361 457.94600072622654 401.0486516863317 " fill="none" stroke="black" stroke-width="1"></path><path id="SvgjsPath1274" d="M 533.7310287352714 459.4706807028033 C 533.7310287352714 459.4706807028033 572.1077502389375 481.0756710560732 461.0360344046423 403.1297516101005 " fill="none" stroke="black" stroke-width="1"></path><path id="SvgjsPath1275" d="M 532.035557124304 462.0503254793811 C 532.035557124304 462.0503254793811 569.6351874729434 489.54013047921933 464.11255032093516 405.2682617271641 " fill="none" stroke="black" stroke-width="1"></path><path id="SvgjsPath1276" d="M 529.9382753960977 464.57094776786516 C 529.9382753960977 464.57094776786516 566.5766516193091 497.81092236330755 467.17178012781653 407.4615626300432 " fill="none" stroke="black" stroke-width="1"></path><path id="SvgjsPath1277" d="M 527.4494560354947 467.0202015615632 C 527.4494560354947 467.0202015615632 562.9471233850965 505.84753637387945 470.2099766513206 409.7069677993975 " fill="none" stroke="black" stroke-width="1"></path><path id="SvgjsPath1278" d="M 524.5812892784627 469.3860904166346 C 524.5812892784627 469.3860904166346 558.764380197758 513.6106091795822 473.2234184806233 412.0017268946757 " fill="none" stroke="black" stroke-width="1"></path><path id="SvgjsPath1279" d="M 521.3478234043246 471.6570262106654 C 521.3478234043246 471.6570262106654 554.0489091313066 521.0621172537458 476.20841452630543 414.3430291229387 " fill="none" stroke="black" stroke-width="1"></path><path id="SvgjsPath1280" d="M 517.7648959272939 473.8218859012869 C 517.7648959272939 473.8218859012869 548.823806560637 528.1655631135976 479.16130854147593 416.72800668172965 " fill="none" stroke="black" stroke-width="1"></path><path id="SvgjsPath1281" d="M 513.8500560243383 475.87006600683117 C 513.8500560243383 475.87006600683117 543.1146650354933 534.8861540849148 482.0784836002166 419.15373827177336 " fill="none" stroke="black" stroke-width="1"></path><path id="SvgjsPath1282" d="M 509.62247857931925 477.7915345421786 C 509.62247857931925 477.7915345421786 536.9494479281739 541.1909727165237 484.95636652786436 421.61725267520234 " fill="none" stroke="black" stroke-width="1"></path><path id="SvgjsPath1283" d="M 505.10287026442114 479.5768801554166 C 505.10287026442114 479.5768801554166 530.3583524689475 547.0491380099606 487.7914322777035 424.1155323949274 " fill="none" stroke="black" stroke-width="1"></path><path id="SvgjsPath1284" d="M 500.3133681188807 481.21735822463575 C 500.3133681188807 481.21735822463575 523.3736618400344 552.4319566745861 490.58020824870675 426.64551735069426 " fill="none" stroke="black" stroke-width="1"></path><path id="SvgjsPath1285" d="M 495.27743112178064 482.7049336890841 C 495.27743112178064 482.7049336890841 516.0295870525968 557.3130636673072 493.3192785390378 429.2041086272991 " fill="none" stroke="black" stroke-width="1"></path><path id="SvgjsPath1286" d="M 490.0197252899818 484.0323204048903 C 490.0197252899818 484.0323204048903 508.3620993812235 561.6685513285463 496.00528813010334 431.7881722703722 " fill="none" stroke="black" stroke-width="1"></path><path id="SvgjsPath1287" d="M 484.5660028639851 485.1930168325927 C 484.5660028639851 485.1930168325927 500.40875417664495 565.477086481945 498.63494699603166 434.3945431250799 " fill="none" stroke="black" stroke-width="1"></path><path id="SvgjsPath1288" d="M 478.9429761734703 486.1813378816764 C 478.9429761734703 486.1813378816764 492.20850691964415 568.7200149242508 501.205034133543 437.0200287130443 " fill="none" stroke="black" stroke-width="1"></path><path id="SvgjsPath1289" d="M 473.17818680031905 486.99244275614376 C 473.17818680031905 486.99244275614376 483.801522417132 571.3814527935966 503.7124015072755 439.6614131427291 " fill="none" stroke="black" stroke-width="1"></path><path id="SvgjsPath1290" d="M 467.29987067996103 487.62235866473026 C 467.29987067996103 487.62235866473026 475.22897807494314 573.4483643686463 506.153977905735 442.3154610485049 " fill="none" stroke="black" stroke-width="1"></path><path id="SvgjsPath1291" d="M 461.336819801776 488.06800027963493 C 461.336819801776 488.06800027963493 466.5328622109233 574.910625917552 508.5267727031452 444.978921553568 " fill="none" stroke="black" stroke-width="1"></path><path id="SvgjsPath1292" d="M 455.31824118594466 488.3271848484536 C 455.31824118594466 488.3271848484536 457.7557683961693 575.7610752839884 510.82787952259 447.6485322518572 " fill="none" stroke="black" stroke-width="1"></path><path id="SvgjsPath1293" d="M 449.27361382747847 488.3986428852995 C 449.27361382747847 488.3986428852995 448.94068683173947 575.9955469673891 513.0544797959622 450.32102320409405 " fill="none" stroke="black" stroke-width="1"></path><path id="SvgjsPath1294" d="M 443.2325443081174 488.28202438874445 C 443.2325443081174 488.28202438874445 440.13079378267116 575.6128925255678 515.2038462163563 452.9931209430488 " fill="none" stroke="black" stroke-width="1"></path><path id="SvgjsPath1295" d="M 437.22462178330716 487.9779005561254 C 437.22462178330716 487.9779005561254 431.3692401006562 574.6149861997866 517.2733460786792 455.661552483129 " fill="none" stroke="black" stroke-width="1"></path><path id="SvgjsPath1296" d="M 431.2792730545306 487.48776098582056 C 431.2792730545306 487.48776098582056 422.6989398711905 573.0067157347237 519.2604445043844 458.3230493293775 " fill="none" stroke="black" stroke-width="1"></path><path id="SvgjsPath1297" d="M 425.42561843684985 486.8140063811969 C 425.42561843684985 486.8140063811969 414.162360220406 570.7959584383023 521.162707546381 460.97435148096963 " fill="none" stroke="black" stroke-width="1"></path><path id="SvgjsPath1298" d="M 419.692329127617 485.9599367919666 C 419.692329127617 485.9599367919666 405.8013133111082 567.9935425986405 522.9778051703147 463.6122114243071 " fill="none" stroke="black" stroke-width="1"></path><path id="SvgjsPath1299" d="M 414.1074867749645 484.9297354505451 C 414.1074867749645 484.9297354505451 397.6567515468232 564.613194447101 524.7035141085687 466.2333981108156 " fill="none" stroke="black" stroke-width="1"></path><path id="SvgjsPath1300" d="M 408.69844593390667 483.7284482825808 C 408.69844593390667 483.7284482825808 389.7685669869472 560.6714709272183 526.3377205834882 468.8347009145757 " fill="none" stroke="black" stroke-width="1"></path><path id="SvgjsPath1301" d="M 403.49170008374267 482.3619591920139 C 403.49170008374267 482.3619591920139 382.1753959554581 556.1876785987956 527.8784228964943 471.41293356493793 " fill="none" stroke="black" stroke-width="1"></path><path id="SvgjsPath1302" d="M 398.5127518630094 480.83696124171774 C 398.5127518630094 480.83696124171774 374.914429800222 551.1837790743863 529.3237338799136 473.9649380493057 " fill="none" stroke="black" stroke-width="1"></path><path id="SvgjsPath1303" d="M 393.7859881575698 479.1609238708804 C 393.7859881575698 479.1609238708804 368.0212327297893 545.6842814513263 530.6718832085229 476.4875884813061 " fill="none" stroke="black" stroke-width="1"></path><path id="SvgjsPath1304" d="M 389.3345606536586 477.3420563096952 C 389.3345606536586 477.3420563096952 361.52956761991885 539.7161222661874 531.921219567977 478.9777949296098 " fill="none" stroke="black" stroke-width="1"></path><path id="SvgjsPath1305" d="M 385.18027244093525 475.3892673705555 C 385.18027244093525 475.3892673705555 355.47123064303054 533.3085335596352 533.0702126774613 481.43250720271044 " fill="none" stroke="black" stroke-width="1"></path><path id="SvgjsPath1306" d="M 381.3434712209611 473.312121812696 C 381.3434712209611 473.312121812696 349.87589553056824 526.4928996979086 534.1174551640946 483.8487185850277 " fill="none" stroke="black" stroke-width="1"></path><path id="SvgjsPath1307" d="M 377.8429496441681 471.1207934940068 C 377.8429496441681 471.1207934940068 344.7709682310784 519.3026036522099 535.0616642867855 486.2234695197583 " fill="none" stroke="black" stroke-width="1"></path><path id="SvgjsPath1308" d="M 374.6958532634661 468.82601553948297 C 374.6958532634661 468.82601553948297 340.18145267588807 511.77286348892846 535.901683507429 488.5538512339625 " fill="none" stroke="black" stroke-width="1"></path><path id="SvgjsPath1309" d="M 371.9175965553337 466.4390277703832 C 371.9175965553337 466.4390277703832 336.12982830986164 503.94055987156986 536.6364839075218 490.83700930144767 " fill="none" stroke="black" stroke-width="1"></path><path id="SvgjsPath1310" d="M 369.5217874197199 463.97152165159144 C 369.5217874197199 463.97152165159144 332.63593998709155 495.84405541928436 537.2651654484582 493.0701471390832 " fill="none" stroke="black" stroke-width="1"></path><path id="SvgjsPath1311" d="M 367.52016052855737 461.43558302682754 C 367.52016052855737 461.43558302682754 329.7169007708128 487.52300680677797 537.7869580739655 495.250529432265 " fill="none" stroke="black" stroke-width="1"></path><path id="SvgjsPath1312" d="M 365.922519849345 458.8436329221911 C 365.922519849345 458.8436329221911 327.38700811362816 479.01817052593964 538.2012226533259 497.3754854853342 " fill="none" stroke="black" stroke-width="1"></path><path id="SvgjsPath1313" d="M 364.73669062532036 456.2083667079816 C 364.73669062532036 456.2083667079816 325.65767382859224 470.37120326056464 538.5074517642322 499.4424124928451 " fill="none" stroke="black" stroke-width="1"></path><path id="SvgjsPath1314" d="M 363.968481047422 453.5426919167813 C 363.968481047422 453.5426919167813 324.5373681941571 461.6244578519386 538.7052703143165 501.44877872767654 " fill="none" stroke="black" stroke-width="1"></path><path id="SvgjsPath1315" d="M 363.62165380577335 450.85966502236715 C 363.62165380577335 450.85966502236715 324.03157846675276 452.82077585464225 538.7944360005919 503.3921266420808 " fill="none" stroke="black" stroke-width="1"></path><path id="SvgjsPath1316" d="M 363.6979076600282 448.17242748910894 C 363.6979076600282 448.17242748910894 324.1427820042078 444.0032776986387 538.7748396062423 505.27007587787256 " fill="none" stroke="black" stroke-width="1"></path><path id="SvgjsPath1317" d="M 364.1968691188472 445.4941414050833 C 364.1968691188472 445.4941414050833 324.87043413165213 435.2151514854296 538.6465051344004 507.0803261820698 " fill="none" stroke="black" stroke-width="1"></path><path id="SvgjsPath1318" d="M 365.1160942692577 442.8379250141731 C 365.1160942692577 442.8379250141731 326.21097080933407 426.4994414527555 538.4095897787463 508.8206602244163 " fill="none" stroke="black" stroke-width="1"></path><path id="SvgjsPath1319" d="M 366.4510807469386 440.2167884629155 C 366.4510807469386 440.2167884629155 328.1578260892855 417.8988371439413 538.0643837309652 510.4889463133336 " fill="none" stroke="black" stroke-width="1"></path><path id="SvgjsPath1320" d="M 368.1952897887986 437.64357007681065 C 368.1952897887986 437.64357007681065 330.7014642753313 409.455464314535 537.6113098252988 512.083141006977 " fill="none" stroke="black" stroke-width="1"></path><path id="SvgjsPath1321" d="M 370.34017825983415 435.1308734782104 C 370.34017825983415 435.1308734782104 333.8294266289248 401.21067860037783 537.0509230206258 513.601291616196 " fill="none" stroke="black" stroke-width="1"></path><path id="SvgjsPath1322" d="M 372.87524049740057 432.69100585378175 C 372.87524049740057 432.69100585378175 337.5263923920425 393.2048629577214 536.3839097207072 515.0415385963342 " fill="none" stroke="black" stroke-width="1"></path><path id="SvgjsPath1323" d="M 375.7880597679425 430.3359176739133 C 375.7880597679425 430.3359176739133 341.7742538282495 385.4772298675279 535.6110869334275 516.40211782494 " fill="none" stroke="black" stroke-width="1"></path><path id="SvgjsPath1324" d="M 379.0643690841483 428.07714415931696 C 379.0643690841483 428.07714415931696 346.55220491438297 378.06562927275866 534.7334012700621 517.6813627625942 " fill="none" stroke="black" stroke-width="1"></path><path id="SvgjsPath1325" d="M 382.6881210846469 425.92574878152305 C 382.6881210846469 425.92574878152305 351.8368432484434 371.00636318937245 533.7519277857966 518.8777064942141 " fill="none" stroke="black" stroke-width="1"></path><path id="SvgjsPath1326" d="M 386.64156663397546 423.89226907400223 C 386.64156663397546 423.89226907400223 357.6022846745475 364.3340078990698 532.6678686629187 519.9896836483274 " fill="none" stroke="black" stroke-width="1"></path><path id="SvgjsPath1327" d="M 390.9053417578359 421.98666501933184 C 390.9053417578359 421.98666501933184 363.82029006351075 358.0812445946825 531.482551738296 521.01593219197 " fill="none" stroke="black" stroke-width="1"></path></svg>