<svg id="SvgjsSvg1001" width="600" height="600" xmlns="http://www.w3.org/2000/svg" version="1.1" xmlns:xlink="http://www.w3.org/1999/xlink" xmlns:svgjs="http://svgjs.com/svgjs"><defs id="SvgjsDefs1002"></defs><metadata>65 * Math.cos(t/1);31 * Math.sin(t/1);52 * Math.cos(t/1);48 * Math.sin(t/2)+48 * Math.cos(t/2)</metadata><path id="SvgjsPath1008" d="M 228 150 C 228 150 276 150 87.6 207.6 " fill="none" stroke="black" stroke-width="1"></path><path id="SvgjsPath1009" d="M 227.80897801975578 152.60187392095622 C 227.80897801975578 152.60187392095622 275.69142603191324 158.81279876452913 87.75281758419536 205.54913517614318 " fill="none" stroke="black" stroke-width="1"></path><path id="SvgjsPath1010" d="M 227.2368477045857 155.1910038647656 C 227.2368477045857 155.1910038647656 274.7672155227923 167.5824324451738 88.21052183633145 203.430229607947 " fill="none" stroke="black" stroke-width="1"></path><path id="SvgjsPath1011" d="M 226.28641134848357 157.7547082742749 C 226.28641134848357 157.7547082742749 273.23189525524265 176.26594738060854 88.97087092121315 201.24587868976982 " fill="none" stroke="black" stroke-width="1"></path><path id="SvgjsPath1012" d="M 224.96232418824013 160.28043012658503 C 224.96232418824013 160.28043012658503 271.0929852271571 184.82081171907834 90.0301406494079 198.99875797833988 " fill="none" stroke="black" stroke-width="1"></path><path id="SvgjsPath1013" d="M 223.27107160209556 162.75579843734278 C 223.27107160209556 162.75579843734278 268.36096181876974 193.20512373938686 91.38314271832355 196.69161991553304 " fill="none" stroke="black" stroke-width="1"></path><path id="SvgjsPath1014" d="M 221.22093734436004 165.168688853816 C 221.22093734436004 165.168688853816 265.04920647935086 201.37781708550585 93.02325012451195 194.32729045697562 " fill="none" stroke="black" stroke-width="1"></path><path id="SvgjsPath1015" d="M 218.82196297158947 167.5072830399671 C 218.82196297158947 167.5072830399671 261.1739401848753 209.29886190956591 94.94242962272843 191.90866561060204 " fill="none" stroke="black" stroke-width="1"></path><path id="SvgjsPath1016" d="M 216.08589865904645 169.76012656265686 C 216.08589865904645 169.76012656265686 256.75414398769044 216.9294609380313 97.13128107276283 189.43870788940745 " fill="none" stroke="black" stroke-width="1"></path><path id="SvgjsPath1017" d="M 213.02614564834784 171.91618499545243 C 213.02614564834784 171.91618499545243 251.81146604733112 224.23223950072597 99.57908348132172 186.92044268273955 " fill="none" stroke="black" stroke-width="1"></path><path id="SvgjsPath1018" d="M 209.65769060819008 173.9648979652421 C 209.65769060819008 173.9648979652421 246.37011559784554 231.1714285919491 102.27384751344792 184.356954550575 " fill="none" stroke="black" stroke-width="1"></path><path id="SvgjsPath1019" d="M 205.99703222965357 175.8962308769377 C 205.99703222965357 175.8962308769377 240.45674437097884 237.71304006704696 105.20237421627715 181.75138344531936 " fill="none" stroke="black" stroke-width="1"></path><path id="SvgjsPath1020" d="M 202.062100415622 177.70072406291598 C 202.062100415622 177.70072406291598 234.10031605600477 243.8250331163283 108.35031966750239 179.1069208657577 " fill="none" stroke="black" stroke-width="1"></path><path id="SvgjsPath1021" d="M 197.87216846012728 179.36953911646617 C 197.87216846012728 179.36953911646617 227.3319644355902 249.4774712009338 111.70226523189817 176.426805947868 " fill="none" stroke="black" stroke-width="1"></path><path id="SvgjsPath1022" d="M 193.44775864776494 180.89450218230132 C 193.44775864776494 180.89450218230132 220.18484089254332 254.6426686819883 115.24179308178805 173.7143214972843 " fill="none" stroke="black" stroke-width="1"></path><path id="SvgjsPath1023" d="M 188.81054173555466 182.26814399209744 C 188.81054173555466 182.26814399209744 212.69395203435755 259.29532642484617 118.95156661155627 170.97278996827063 " fill="none" stroke="black" stroke-width="1"></path><path id="SvgjsPath1024" d="M 183.98323080958352 183.483736448966 C 183.98323080958352 183.483736448966 204.89598823086567 263.41265571423963 122.81341535233321 168.20556939412984 " fill="none" stroke="black" stroke-width="1"></path><path id="SvgjsPath1025" d="M 178.98947003632153 184.535325581669 C 178.98947003632153 184.535325581669 196.82914390482708 266.97448987339504 126.80842397094275 165.4160492740327 " fill="none" stroke="black" stroke-width="1"></path><path id="SvgjsPath1026" d="M 173.8537188535065 185.4177607071672 C 173.8537188535065 185.4177607071672 188.53293045566437 269.963383040405 130.9170249171948 162.60764642130522 " fill="none" stroke="black" stroke-width="1"></path><path id="SvgjsPath1027" d="M 168.60113216783037 186.12671965866286 C 168.60113216783037 186.12671965866286 180.04798273264905 272.36469561805166 135.11909426573573 159.78380077825966 " fill="none" stroke="black" stroke-width="1"></path><path id="SvgjsPath1028" d="M 163.25743714621873 186.65872995557072 C 163.25743714621873 186.65872995557072 171.41586000543026 274.166665978546 139.39405028302497 156.94797120269553 " fill="none" stroke="black" stroke-width="1"></path><path id="SvgjsPath1029" d="M 157.84880720418062 187.01118581172602 C 157.84880720418062 187.01118581172602 162.6788424067533 275.3604680719752 143.7209542366555 154.10363123123082 " fill="none" stroke="black" stroke-width="1"></path><path id="SvgjsPath1030" d="M 152.40173380843228 187.18236089852383 C 152.40173380843228 187.18236089852383 153.87972384439064 275.94025465629034 148.07861295325415 151.25426482465457 " fill="none" stroke="black" stroke-width="1"></path><path id="SvgjsPath1031" d="M 146.9428967217069 187.17141680047573 C 146.9428967217069 187.17141680047573 145.06160239660343 275.9031859370952 152.44568262263448 148.4033621005101 " fill="none" stroke="black" stroke-width="1"></path><path id="SvgjsPath1032" d="M 141.49903332529 186.9784071217684 C 141.49903332529 186.9784071217684 136.2676692177761 275.24944347695754 156.80077333976806 145.5544150581378 " fill="none" stroke="black" stroke-width="1"></path><path id="SvgjsPath1033" d="M 136.09680765933953 186.60427722371045 C 136.09680765933953 186.60427722371045 127.54099698816385 273.98222930611604 161.12255387252836 142.71091330141235 " fill="none" stroke="black" stroke-width="1"></path><path id="SvgjsPath1034" d="M 130.76267982243087 186.05085959435297 C 130.76267982243087 186.05085959435297 118.92432894392678 272.10775023893746 165.3898561420553 139.87633976441435 " fill="none" stroke="black" stroke-width="1"></path><path id="SvgjsPath1035" d="M 125.52277637000708 185.32086487296425 C 125.52277637000708 185.32086487296425 110.45986952078067 269.63518747294336 169.58177890399435 137.05416644527185 " fill="none" stroke="black" stroke-width="1"></path><path id="SvgjsPath1036" d="M 120.40276234652386 184.41786857331982 C 120.40276234652386 184.41786857331982 102.18907763669239 266.57665161930913 173.6777901227809 134.2478501533966 " fill="none" stroke="black" stroke-width="1"></path><path id="SvgjsPath1037" d="M 115.42771557807461 183.34629357083801 C 115.42771557807461 183.34629357083801 94.15246362612052 262.94712338509646 177.6578275375403 131.46082827532464 " fill="none" stroke="black" stroke-width="1"></path><path id="SvgjsPath1038" d="M 110.62200384121105 182.1113884393381 C 110.62200384121105 182.1113884393381 86.38939082041784 258.76438019775804 181.50239692703119 128.69651456434806 " fill="none" stroke="black" stroke-width="1"></path><path id="SvgjsPath1039" d="M 106.00916550958596 180.7192017435286 C 106.00916550958596 180.7192017435286 78.93788274625425 254.04890913130657 185.19266759233125 125.9582949590937 " fill="none" stroke="black" stroke-width="1"></path><path id="SvgjsPath1040" d="M 101.61179426301095 179.1765524131404 C 101.61179426301095 179.1765524131404 71.8344368864023 248.82380656063685 188.71056458959123 123.24952343617193 " fill="none" stroke="black" stroke-width="1"></path><path id="SvgjsPath1041" d="M 97.45142842362424 177.4909963438123 C 97.45142842362424 177.4909963438123 65.11384591508528 243.11466503549326 192.03885726110062 120.57351790197458 " fill="none" stroke="black" stroke-width="1"></path><path id="SvgjsPath1042" d="M 93.54844546119963 175.670789388318 C 93.54844546119963 175.670789388318 58.809027283476325 236.94944792817392 195.16124363104032 117.93355612865467 " fill="none" stroke="black" stroke-width="1"></path><path id="SvgjsPath1043" d="M 89.92196218431002 173.72484691940355 C 89.92196218431002 173.72484691940355 52.95086199003927 230.35835246894746 198.062430252552 115.33287173926533 " fill="none" stroke="black" stroke-width="1"></path><path id="SvgjsPath1044" d="M 86.58974110620858 171.66270016229583 C 86.58974110620858 171.66270016229583 47.56804332541387 223.37366184003432 200.72820711503311 112.77465024697577 " fill="none" stroke="black" stroke-width="1"></path><path id="SvgjsPath1045" d="M 83.56810344404789 169.49444951076669 C 83.56810344404789 169.49444951076669 42.68693633269275 216.02958705259678 203.1455172447617 110.2620251532162 " fill="none" stroke="black" stroke-width="1"></path><path id="SvgjsPath1046" d="M 80.87184917756656 167.23071505540884 C 80.87184917756656 167.23071505540884 38.33144867145367 208.36209938122354 205.30252065794676 107.79807410953029 " fill="none" stroke="black" stroke-width="1"></path><path id="SvgjsPath1047" d="M 78.51418455879602 164.88258456643803 C 78.51418455879602 164.88258456643803 34.52291351805509 200.40875417664492 207.18865235296317 105.38581514783698 " fill="none" stroke="black" stroke-width="1"></path><path id="SvgjsPath1048" d="M 76.50665742784469 162.46155918579967 C 76.50665742784469 162.46155918579967 31.279985075749096 192.2085069196441 208.79467405772425 103.02820298371861 " fill="none" stroke="black" stroke-width="1"></path><path id="SvgjsPath1049" d="M 74.85910065158305 159.9794970945818 C 74.85910065158305 159.9794970945818 28.618547206403377 183.80152241713196 210.11271947873357 100.72812539726394 " fill="none" stroke="black" stroke-width="1"></path><path id="SvgjsPath1050" d="M 73.57958396226664 157.44855543164988 C 73.57958396226664 157.44855543164988 26.551635631353818 175.2289780749432 211.1363328301867 98.48839969589864 " fill="none" stroke="black" stroke-width="1"></path><path id="SvgjsPath1051" d="M 72.6743744319916 154.8811307479869 C 72.6743744319916 154.8811307479869 25.08937408244796 166.53286221092333 211.86050045440672 96.31176926353595 " fill="none" stroke="black" stroke-width="1"></path><path id="SvgjsPath1052" d="M 72.14790577657864 152.28979828839283 C 72.14790577657864 152.28979828839283 24.238924716011667 157.75576839616923 212.28167537873708 94.2009002002745 " fill="none" stroke="black" stroke-width="1"></path><path id="SvgjsPath1053" d="M 72.00275663923533 149.68725039794214 C 72.00275663923533 149.68725039794214 24.00445303261091 148.94068683173944 212.39779468861173 92.15837805675895 " fill="none" stroke="black" stroke-width="1"></path><path id="SvgjsPath1054" d="M 72.23963796036281 147.08623435488386 C 72.23963796036281 147.08623435488386 24.38710747443224 140.1307937826712 212.20828963170976 90.18670466720386 " fill="none" stroke="black" stroke-width="1"></path><path id="SvgjsPath1055" d="M 72.85738949537021 144.4994899344794 C 72.85738949537021 144.4994899344794 25.38501380021343 131.3692401006561 211.71408840370384 88.2882950849597 " fill="none" stroke="black" stroke-width="1"></path><path id="SvgjsPath1056" d="M 73.852985497552 141.93968700958953 C 73.852985497552 141.93968700958953 26.993284265276316 122.69893987119039 210.9176116019584 86.46547462437431 " fill="none" stroke="black" stroke-width="1"></path><path id="SvgjsPath1057" d="M 75.22154953819381 139.4193634936437 C 75.22154953819381 139.4193634936437 29.204041561697693 114.16236022040599 209.82276036944495 84.7204760125737 " fill="none" stroke="black" stroke-width="1"></path><path id="SvgjsPath1058" d="M 76.95637839131783 136.95086392994622 C 76.95637839131783 136.95086392994622 32.00645740135957 105.80131331110816 208.43489728694573 83.05543665465053 " fill="none" stroke="black" stroke-width="1"></path><path id="SvgjsPath1059" d="M 79.04897486608026 134.54627902810972 C 79.04897486608026 134.54627902810972 35.38680555289889 97.65675154682327 206.7608201071358 81.47239601561017 " fill="none" stroke="black" stroke-width="1"></path><path id="SvgjsPath1060" d="M 81.48908942600774 132.21738644376535 C 81.48908942600774 132.21738644376535 39.32852907278172 89.76856698694709 204.80872845919382 79.97329312228095 " fill="none" stroke="black" stroke-width="1"></path><path id="SvgjsPath1061" d="M 84.26477039122179 129.97559309161142 C 84.26477039122179 129.97559309161142 43.81232140120444 82.17539595545807 202.58818368702256 78.55996418824888 " fill="none" stroke="black" stroke-width="1"></path><path id="SvgjsPath1062" d="M 87.36242247776087 127.83187927435127 C 87.36242247776087 127.83187927435127 48.816220925613706 74.91442980022204 200.11006201779128 77.2341403647257 " fill="none" stroke="black" stroke-width="1"></path><path id="SvgjsPath1063" d="M 90.76687338727423 125.79674490117586 C 90.76687338727423 125.79674490117586 54.31571854867376 68.02123272978922 197.3865012901806 75.99744562010497 " fill="none" stroke="black" stroke-width="1"></path><path id="SvgjsPath1064" d="M 94.46144812093164 123.88015805921412 C 94.46144812093164 123.88015805921412 60.28387773381266 61.529567619918794 194.43084150325473 74.85139475080388 " fill="none" stroke="black" stroke-width="1"></path><path id="SvgjsPath1065" d="M 98.42805065355915 122.09150618984711 C 98.42805065355915 122.09150618984711 66.69146644036479 55.47123064303051 191.25755947715268 73.79739152582711 " fill="none" stroke="black" stroke-width="1"></path><path id="SvgjsPath1066" d="M 102.64725256796133 120.4395501090249 C 102.64725256796133 120.4395501090249 73.50710030209139 49.8758955305682 187.88219794563094 72.83672696732535 " fill="none" stroke="black" stroke-width="1"></path><path id="SvgjsPath1067" d="M 107.09838821529866 118.93238109679459 C 107.09838821529866 118.93238109679459 80.69739634779016 44.77096823107841 184.3212894277611 71.97057776925459 " fill="none" stroke="black" stroke-width="1"></path><path id="SvgjsPath1068" d="M 111.75965593542526 117.57738126621456 C 111.75965593542526 117.57738126621456 88.22713651107159 40.18145267588807 180.5922752516598 71.20000485607311 " fill="none" stroke="black" stroke-width="1"></path><path id="SvgjsPath1069" d="M 116.60822484140915 116.38118740576867 C 116.60822484140915 116.38118740576867 96.05944012843017 36.12982830986162 176.71342012687268 70.52595208324175 " fill="none" stroke="black" stroke-width="1"></path><path id="SvgjsPath1070" d="M 121.62034664520492 115.3496584723794 C 121.62034664520492 115.3496584723794 104.15594458071564 32.63593998709153 172.70372268383608 69.94924508111897 " fill="none" stroke="black" stroke-width="1"></path><path id="SvgjsPath1071" d="M 126.77147197675649 114.48784689423996 C 126.77147197675649 114.48784689423996 112.47699319322203 29.716900770812813 168.58282241859482 69.47059024366689 " fill="none" stroke="black" stroke-width="1"></path><path id="SvgjsPath1072" d="M 132.03637062679928 113.79997382402355 C 132.03637062679928 113.79997382402355 120.98182947406039 27.387008113628156 164.37090349856058 69.09057386320708 " fill="none" stroke="black" stroke-width="1"></path><path id="SvgjsPath1073" d="M 137.3892551244124 113.2894084636796 C 137.3892551244124 113.2894084636796 129.6287967394354 25.65767382859221 160.0885959004701 68.80966141228565 " fill="none" stroke="black" stroke-width="1"></path><path id="SvgjsPath1074" d="M 142.80390704403803 112.95865156208447 C 142.80390704403803 112.95865156208447 138.3755421480614 24.53736819415711 155.7568743647696 68.62819697352778 " fill="none" stroke="black" stroke-width="1"></path><path id="SvgjsPath1075" d="M 148.25380542331672 112.80932316637463 C 148.25380542331672 112.80932316637463 147.17922414535775 24.031578466752777 151.39695566134662 68.54640281817932 " fill="none" stroke="black" stroke-width="1"></path><path id="SvgjsPath1076" d="M 153.71225666274745 112.8421546869566 C 153.71225666274745 112.8421546869566 155.99672230136127 24.142782004207817 147.03019466980203 68.5643791338525 " fill="none" stroke="black" stroke-width="1"></path><path id="SvgjsPath1077" d="M 159.1525252709245 113.0569853150592 C 159.1525252709245 113.0569853150592 164.7848485145704 24.870434131652146 142.67797978326038 68.6821039018085 " fill="none" stroke="black" stroke-width="1"></path><path id="SvgjsPath1078" d="M 164.5479648149609 113.45276281037484 C 164.5479648149609 113.45276281037484 173.50055854724454 26.2109708093341 138.3616281480313 68.89943292392769 " fill="none" stroke="black" stroke-width="1"></path><path id="SvgjsPath1079" d="M 169.87214843470304 114.0275486549319 C 169.87214843470304 114.0275486549319 182.10116285605872 28.15782608928552 134.1022812522376 69.2160999993343 " fill="none" stroke="black" stroke-width="1"></path><path id="SvgjsPath1080" d="M 175.09899828147837 114.77852754795497 C 175.09899828147837 114.77852754795497 190.54453568546506 30.70146427533132 129.9208013748173 69.63171725045923 " fill="none" stroke="black" stroke-width="1"></path><path id="SvgjsPath1081" d="M 180.20291324738517 115.70202119520637 C 180.20291324738517 115.70202119520637 198.7893213996222 33.82942662892479 125.83766940209188 70.14577559814153 " fill="none" stroke="black" stroke-width="1"></path><path id="SvgjsPath1082" d="M 185.15889435950584 116.7935063252697 C 185.15889435950584 116.7935063252697 206.79513704227864 37.52639239204254 121.87288451239534 70.75764538518673 " fill="none" stroke="black" stroke-width="1"></path><path id="SvgjsPath1083" d="M 189.94266722486367 118.04763684453081 C 189.94266722486367 118.04763684453081 214.5227701324721 41.77425382824953 118.04586622010906 71.46657714761817 " fill="none" stroke="black" stroke-width="1"></path><path id="SvgjsPath1084" d="M 194.53080092638749 119.45827002234165 C 194.53080092638749 119.45827002234165 221.93437072724134 46.552204914383 114.37535925889 72.27170253267666 " fill="none" stroke="black" stroke-width="1"></path><path id="SvgjsPath1085" d="M 198.90082278753133 121.01849657811186 C 198.90082278753133 121.01849657811186 228.99363681062755 51.836843248443415 110.87934176997494 73.17203536244398 " fill="none" stroke="black" stroke-width="1"></path><path id="SvgjsPath1086" d="M 203.031328443433 122.72067452296164 C 203.031328443433 122.72067452296164 235.66599210093023 57.602284674547505 107.57493724525361 74.16647284178757 " fill="none" stroke="black" stroke-width="1"></path><path id="SvgjsPath1087" d="M 206.90208667948224 124.55646659017937 C 206.90208667948224 124.55646659017937 241.91875540531748 63.82029006351077 104.47833065641422 75.25379690914663 " fill="none" stroke="black" stroke-width="1"></path><metadata>65 * Math.cos(t/1);31 * Math.sin(t/1);52 * Math.cos(t/1);48 * Math.sin(t/2)+48 * Math.cos(t/2)</metadata><path id="SvgjsPath1088" d="M 450 187.2 C 450 187.2 450 276 450 150 " fill="none" stroke="black" stroke-width="1"></path><path id="SvgjsPath1089" d="M 444.54445790767244 187.108897209422 C 444.54445790767244 187.108897209422 441.18720123547087 275.69142603191324 454.36443367386204 147.1495275129061 " fill="none" stroke="black" stroke-width="1"></path><path id="SvgjsPath1090" d="M 439.11563705774955 186.8360350591101 C 439.11563705774955 186.8360350591101 432.4175675548262 274.7672155227923 458.7074903538004 144.30254649816595 " fill="none" stroke="black" stroke-width="1"></path><path id="SvgjsPath1091" d="M 433.74012781200423 186.38275002773833 C 433.74012781200423 186.38275002773833 423.7340526193915 273.23189525524265 463.0078977503966 141.46254415151623 " fill="none" stroke="black" stroke-width="1"></path><path id="SvgjsPath1092" d="M 428.44425941199916 185.75126230516068 C 428.44425941199916 185.75126230516068 415.17918828092166 271.09298522715716 467.2445924704007 138.63299912069783 " fill="none" stroke="black" stroke-width="1"></path><path id="SvgjsPath1093" d="M 423.2539710184748 184.9446649179225 C 423.2539710184748 184.9446649179225 406.79487626061314 268.36096181876974 471.3968231852201 135.8173772445475 " fill="none" stroke="black" stroke-width="1"></path><path id="SvgjsPath1094" d="M 418.19468466135356 183.96690857961786 C 418.19468466135356 183.96690857961786 398.62218291449415 265.04920647935086 475.44425227091716 133.01912730777846 " fill="none" stroke="black" stroke-width="1"></path><path id="SvgjsPath1095" d="M 413.29118072264964 182.82278234029653 C 413.29118072264964 182.82278234029653 390.7011380904341 261.1739401848753 479.36705542188025 130.24167681665057 " fill="none" stroke="black" stroke-width="1"></path><path id="SvgjsPath1096" d="M 408.5674765621711 181.51789012969908 C 408.5674765621711 181.51789012969908 383.0705390619687 256.75414398769044 483.1460187502631 127.48842780070373 " fill="none" stroke="black" stroke-width="1"></path><path id="SvgjsPath1097" d="M 404.046708880503 180.05862330921207 C 404.046708880503 180.05862330921207 375.76776049927406 251.81146604733115 486.76263289559756 124.76275264569699 " fill="none" stroke="black" stroke-width="1"></path><path id="SvgjsPath1098" d="M 399.7510203954601 178.45212936698297 C 399.7510203954601 178.45212936698297 368.82857140805095 246.37011559784554 490.19918368363193 122.06798996285774 " fill="none" stroke="black" stroke-width="1"></path><path id="SvgjsPath1099" d="M 395.7014513870662 176.70627690952708 C 395.7014513870662 176.70627690952708 362.286959932953 240.4567443709788 493.43883889034703 119.40744049950058 " fill="none" stroke="black" stroke-width="1"></path><path id="SvgjsPath1100" d="M 391.91783664227296 174.82961712129665 C 391.91783664227296 174.82961712129665 356.1749668836717 234.10031605600477 496.4657306861816 116.78436309602448 " fill="none" stroke="black" stroke-width="1"></path><path id="SvgjsPath1101" d="M 388.41870830418384 172.83134188098379 C 388.41870830418384 172.83134188098379 350.52252879906627 227.33196443559024 499.2650333566529 114.20197069424071 " fill="none" stroke="black" stroke-width="1"></path><path id="SvgjsPath1102" d="M 385.2212051016263 170.72123873970327 C 385.2212051016263 170.72123873970327 345.3573313180117 220.18484089254332 501.82303591869896 111.66342640192116 " fill="none" stroke="black" stroke-width="1"></path><path id="SvgjsPath1103" d="M 382.34098840366664 168.50964298157223 C 382.34098840366664 168.50964298157223 340.70467357515383 212.69395203435752 504.12720927706664 109.17183961838661 " fill="none" stroke="black" stroke-width="1"></path><path id="SvgjsPath1104" d="M 379.7921655102326 166.20738700149366 C 379.7921655102326 166.20738700149366 336.58734428576037 204.89598823086567 506.16626759181395 106.73026222588149 " fill="none" stroke="black" stroke-width="1"></path><path id="SvgjsPath1105" d="M 377.58722055456496 163.82574724809183 C 377.58722055456496 163.82574724809183 333.025510126605 196.8291439048271 507.930223556348 104.3416848513998 " fill="none" stroke="black" stroke-width="1"></path><path id="SvgjsPath1106" d="M 375.73695335593976 161.37638899167234 C 375.73695335593976 161.37638899167234 330.036616959595 188.53293045566437 509.4104373152482 102.00903320354081 " fill="none" stroke="black" stroke-width="1"></path><path id="SvgjsPath1107" d="M 374.2504265221585 158.87130918773448 C 374.2504265221585 158.87130918773448 327.63530438194834 180.04798273264902 510.5996587822732 99.73516448888216 " fill="none" stroke="black" stroke-width="1"></path><path id="SvgjsPath1108" d="M 373.13492106090007 156.32277771588895 C 373.13492106090007 156.32277771588895 325.833334021454 171.41586000543026 511.4920631512799 97.52286391225891 " fill="none" stroke="black" stroke-width="1"></path><path id="SvgjsPath1109" d="M 372.3959007173487 153.74327728199384 C 372.3959007173487 153.74327728199384 324.6395319280248 162.67884240675332 512.0832794261211 95.37484126523589 " fill="none" stroke="black" stroke-width="1"></path><path id="SvgjsPath1110" d="M 372.0369852127726 151.14544227786772 C 372.0369852127726 151.14544227786772 324.05974534370966 153.87972384439064 512.3704118297819 93.29372760695199 " fill="none" stroke="black" stroke-width="1"></path><path id="SvgjsPath1111" d="M 372.05993251513155 148.54199689804483 C 372.05993251513155 148.54199689804483 324.0968140629048 145.0616023966034 512.3520539878948 91.28207204140162 " fill="none" stroke="black" stroke-width="1"></path><path id="SvgjsPath1112" d="M 372.4646302285501 145.94569281667674 C 372.4646302285501 145.94569281667674 324.75055652304246 136.2676692177761 512.0282958171599 89.34233859510113 " fill="none" stroke="black" stroke-width="1"></path><path id="SvgjsPath1113" d="M 373.24909614383296 143.36924672983886 C 373.24909614383296 143.36924672983886 326.01777069388396 127.5409969881639 511.40072308493365 87.47690319896446 " fill="none" stroke="black" stroke-width="1"></path><path id="SvgjsPath1114" d="M 374.40948794732446 140.82527806915934 C 374.40948794732446 140.82527806915934 327.89224976106254 118.92432894392678 510.47240964214046 85.68805077808479 " fill="none" stroke="black" stroke-width="1"></path><path id="SvgjsPath1115" d="M 375.9401220405589 138.32624719184952 C 375.9401220405589 138.32624719184952 330.36481252705664 110.45986952078066 509.2479023675529 83.9779724529871 " fill="none" stroke="black" stroke-width="1"></path><path id="SvgjsPath1116" d="M 377.8335013785229 135.8843943498806 C 377.8335013785229 135.8843943498806 333.42334838069087 102.18907763669239 507.7331988971817 82.34876285577957 " fill="none" stroke="black" stroke-width="1"></path><path id="SvgjsPath1117" d="M 380.08035219017836 133.5116797372356 C 380.08035219017836 133.5116797372356 337.05287661490354 94.15246362612054 505.9357182478573 80.802417564491 " fill="none" stroke="black" stroke-width="1"></path><path id="SvgjsPath1118" d="M 382.66966940138786 131.21972490888527 C 382.66966940138786 131.21972490888527 341.23561980224196 86.38939082041787 503.8642644788897 79.34083065873739 " fill="none" stroke="black" stroke-width="1"></path><path id="SvgjsPath1119" d="M 385.5887705377626 129.0197558584179 C 385.5887705377626 129.0197558584179 345.9510908686934 78.93788274625425 501.52898356978994 77.96579239971132 " fill="none" stroke="black" stroke-width="1"></path><path id="SvgjsPath1120" d="M 388.82335784341524 126.9225480331283 C 388.82335784341524 126.9225480331283 351.17619343936315 71.8344368864023 498.94131372526783 76.6789870373357 " fill="none" stroke="black" stroke-width="1"></path><path id="SvgjsPath1121" d="M 392.35758831136127 124.93837355588232 C 392.35758831136127 124.93837355588232 356.8853349645067 65.11384591508528 496.113929350911 75.48199074726828 " fill="none" stroke="black" stroke-width="1"></path><path id="SvgjsPath1122" d="M 396.17415128255897 123.07695091226444 C 396.17415128255897 123.07695091226444 363.050552071826 58.809027283476325 493.0606789739528 74.37626970028366 " fill="none" stroke="black" stroke-width="1"></path><path id="SvgjsPath1123" d="M 400.2543532335087 121.34739734944017 C 400.2543532335087 121.34739734944017 369.6416475310525 52.95086199003927 489.79651741319304 73.36317826639734 " fill="none" stroke="black" stroke-width="1"></path><path id="SvgjsPath1124" d="M 404.5782093371216 119.7581842198841 C 404.5782093371216 119.7581842198841 376.6263381599656 47.568043325413896 486.33743253030275 72.44395735593177 " fill="none" stroke="black" stroke-width="1"></path><path id="SvgjsPath1125" d="M 409.1245413483924 118.31709548869976 C 409.1245413483924 118.31709548869976 383.9704129474032 42.68693633269275 482.70036692128605 71.61973289955648 " fill="none" stroke="black" stroke-width="1"></path><path id="SvgjsPath1126" d="M 413.8710813354331 117.03118960776251 C 413.8710813354331 117.03118960776251 391.6379006187765 38.33144867145366 478.90313493165354 70.89151446916378 " fill="none" stroke="black" stroke-width="1"></path><path id="SvgjsPath1127" d="M 418.79458074779126 115.9067649434258 C 418.79458074779126 115.9067649434258 399.59124582335505 34.52291351805509 474.964335401767 70.26019404126939 " fill="none" stroke="black" stroke-width="1"></path><path id="SvgjsPath1128" d="M 423.87092428783933 114.94932892712593 C 423.87092428783933 114.94932892712593 407.79149308035585 31.27998507574914 470.90326056972856 69.72654490445272 " fill="none" stroke="black" stroke-width="1"></path><path id="SvgjsPath1129" d="M 429.07524802748975 114.16357107998576 C 429.07524802748975 114.16357107998576 416.198477582868 28.618547206403377 466.7398015780082 69.29122071217519 " fill="none" stroke="black" stroke-width="1"></path><path id="SvgjsPath1130" d="M 434.38206119170184 113.55334004354255 C 434.38206119170184 113.55334004354255 424.77102192505686 26.551635631353804 462.4943510466385 68.95475468213637 " fill="none" stroke="black" stroke-width="1"></path><path id="SvgjsPath1131" d="M 439.7653710122855 113.12162472910367 C 439.7653710122855 113.12162472910367 433.4671377890767 25.08937408244796 458.18770319017153 68.717558943149 " fill="none" stroke="black" stroke-width="1"></path><path id="SvgjsPath1132" d="M 445.19881004046664 112.8705396780606 C 445.19881004046664 112.8705396780606 442.2442316038307 24.238924716011667 453.8409519676267 68.57992403033272 " fill="none" stroke="black" stroke-width="1"></path><path id="SvgjsPath1133" d="M 450.6557652946375 112.80131470486609 C 450.6557652946375 112.80131470486609 451.05931316826053 24.00445303261091 449.47538776429 68.54201852924491 " fill="none" stroke="black" stroke-width="1"></path><path id="SvgjsPath1134" d="M 456.1095086107274 112.9142888734038 C 456.1095086107274 112.9142888734038 459.86920621732884 24.38710747443224 445.1123931114181 68.60388886938442 " fill="none" stroke="black" stroke-width="1"></path><path id="SvgjsPath1135" d="M 461.5333275567367 113.20890883625349 C 461.5333275567367 113.20890883625349 468.6307598993439 25.38501380021343 440.7733379546107 68.76545926732128 " fill="none" stroke="black" stroke-width="1"></path><path id="SvgjsPath1136" d="M 466.90065627021545 113.68373154498633 C 466.90065627021545 113.68373154498633 477.3010601288096 26.9932842652763 436.4794749838277 69.02653181952194 " fill="none" stroke="black" stroke-width="1"></path><path id="SvgjsPath1137" d="M 472.18520557784393 114.3364313182155 C 472.18520557784393 114.3364313182155 485.837639779594 29.204041561697693 432.2518355377249 69.38678674475621 " fill="none" stroke="black" stroke-width="1"></path><path id="SvgjsPath1138" d="M 477.3610917597902 115.16381123278235 C 477.3610917597902 115.16381123278235 494.1986866888919 32.00645740135958 428.1111265921678 69.84578277578954 " fill="none" stroke="black" stroke-width="1"></path><path id="SvgjsPath1139" d="M 482.402963328157 116.16181878228443 C 482.402963328157 116.16181878228443 502.3432484531767 35.38680555289889 424.0776293374744 70.40295769987998 " fill="none" stroke="black" stroke-width="1"></path><path id="SvgjsPath1140" d="M 487.28612519855653 117.32556572624983 C 487.28612519855653 117.32556572624983 510.2314330130529 39.328529072781706 420.1710998411548 71.0576290474185 " fill="none" stroke="black" stroke-width="1"></path><path id="SvgjsPath1141" d="M 491.9866596466212 118.64935203273654 C 491.9866596466212 118.64935203273654 517.824604044542 43.81232140120444 416.41067228270305 71.8089949278691 " fill="none" stroke="black" stroke-width="1"></path><path id="SvgjsPath1142" d="M 496.48154345700544 120.12669379708596 C 496.48154345700544 120.12669379708596 525.085570199778 48.81622092561375 412.8147652343956 72.65613501198423 " fill="none" stroke="black" stroke-width="1"></path><path id="SvgjsPath1143" d="M 500.74876069108285 121.75035500008462 C 500.74876069108285 121.75035500008462 531.9787672702107 54.31571854867376 409.4009914471337 73.59801165909315 " fill="none" stroke="black" stroke-width="1"></path><path id="SvgjsPath1144" d="M 504.7674105210026 123.51238294998277 C 504.7674105210026 123.51238294998277 538.4704323800811 60.2838777338126 406.18607158319793 74.633471188082 " fill="none" stroke="black" stroke-width="1"></path><path id="SvgjsPath1145" d="M 508.5178096019335 125.40414723477437 C 508.5178096019335 125.40414723477437 544.5287693569695 66.69146644036479 403.1857523184532 75.76124529050885 " fill="none" stroke="black" stroke-width="1"></path><path id="SvgjsPath1146" d="M 511.9815884810768 127.4163819939508 C 511.9815884810768 127.4163819939508 550.1241044694318 73.50710030209137 400.41472921513855 76.97995258412296 " fill="none" stroke="black" stroke-width="1"></path><path id="SvgjsPath1147" d="M 515.1417815712372 129.5392313026809 C 515.1417815712372 129.5392313026809 555.2290317689216 80.69739634779015 397.88657474301027 78.28810030488532 " fill="none" stroke="black" stroke-width="1"></path><path id="SvgjsPath1148" d="M 517.9829102482597 131.7622974461259 C 517.9829102482597 131.7622974461259 559.8185473241119 88.22713651107158 395.6136718013922 79.68408613541791 " fill="none" stroke="black" stroke-width="1"></path><path id="SvgjsPath1149" d="M 520.4910586653237 134.07469184744127 C 520.4910586653237 134.07469184744127 563.8701716901384 96.05944012843017 393.607153067741 81.16620016764215 " fill="none" stroke="black" stroke-width="1"></path><path id="SvgjsPath1150" d="M 522.6539419127529 136.46508840002082 C 522.6539419127529 136.46508840002082 567.3640600129085 104.15594458071563 391.87684646979767 82.73262699720243 " fill="none" stroke="black" stroke-width="1"></path><path id="SvgjsPath1151" d="M 524.4609661894968 138.9217789427608 C 524.4609661894968 138.9217789427608 570.2830992291872 112.47699319322201 390.43122704840255 84.38144794710946 " fill="none" stroke="black" stroke-width="1"></path><path id="SvgjsPath1152" d="M 525.9032806915635 141.43273060662736 C 525.9032806915635 141.43273060662736 572.6129918863719 120.98182947406039 389.27737544674915 86.11064341787974 " fill="none" stroke="black" stroke-width="1"></path><path id="SvgjsPath1153" d="M 526.9738209632524 143.98564475164284 C 526.9738209632524 143.98564475164284 574.3423261714078 129.6287967394354 388.42094322939806 87.91809536129219 " fill="none" stroke="black" stroke-width="1"></path><path id="SvgjsPath1154" d="M 527.6673434988552 146.56801720561813 C 527.6673434988552 146.56801720561813 575.4626318058429 138.3755421480614 387.8661252009159 89.80158987473254 " fill="none" stroke="black" stroke-width="1"></path><path id="SvgjsPath1155" d="M 527.9804514253435 149.16719950958182 C 527.9804514253435 149.16719950958182 575.9684215332472 147.17922414535775 387.6156388597252 91.75881991294715 " fill="none" stroke="black" stroke-width="1"></path><path id="SvgjsPath1156" d="M 527.9116111402523 151.7704608699257 C 527.9116111402523 151.7704608699257 575.8572179957922 155.99672230136127 387.67071108779817 93.78738811388487 " fill="none" stroke="black" stroke-width="1"></path><path id="SvgjsPath1157" d="M 527.461159823263 154.36505051382554 C 527.461159823263 154.36505051382554 575.1295658683479 164.7848485145704 388.03107214138964 95.88480973516587 " fill="none" stroke="black" stroke-width="1"></path><path id="SvgjsPath1158" d="M 526.6313037846979 156.93826014251982 C 526.6313037846979 156.93826014251982 573.7890291906659 173.50055854724454 388.69495697224164 98.04851569758034 " fill="none" stroke="black" stroke-width="1"></path><path id="SvgjsPath1159" d="M 525.4261076590137 159.47748617655066 C 525.4261076590137 159.47748617655066 571.8421739107145 182.1011628560587 389.659113872789 100.27585573188922 " fill="none" stroke="black" stroke-width="1"></path><path id="SvgjsPath1160" d="M 523.8514744962235 161.97029148808969 C 523.8514744962235 161.97029148808969 569.2985357246687 190.54453568546504 390.9188204030212 102.5641016250726 " fill="none" stroke="black" stroke-width="1"></path><path id="SvgjsPath1161" d="M 521.9151168487608 164.4044663179837 C 521.9151168487608 164.4044663179837 566.1705733710752 198.78932139962217 392.46790652099133 104.91045056204956 " fill="none" stroke="black" stroke-width="1"></path><path id="SvgjsPath1162" d="M 519.6265189954022 166.76808807914892 C 519.6265189954022 166.76808807914892 562.4736076079574 206.79513704227864 394.2987848036782 107.31202855877615 " fill="none" stroke="black" stroke-width="1"></path><path id="SvgjsPath1163" d="M 516.9968904872741 169.04957975339653 C 516.9968904872741 169.04957975339653 558.2257461717504 214.5227701324721 396.40248761018074 109.76589398251645 " fill="none" stroke="black" stroke-width="1"></path><path id="SvgjsPath1164" d="M 514.0391112434772 171.23776659566172 C 514.0391112434772 171.23776659566172 553.447795085617 221.93437072724134 398.7687110052183 112.26904115497484 " fill="none" stroke="black" stroke-width="1"></path><path id="SvgjsPath1165" d="M 510.7676684652493 173.32193086789957 C 510.7676684652493 173.32193086789957 548.1631567515566 228.99363681062755 401.38586522780054 114.81840403387604 " fill="none" stroke="black" stroke-width="1"></path><path id="SvgjsPath1166" d="M 507.1985856776611 175.29186433456036 C 507.1985856776611 175.29186433456036 542.3977153254525 235.66599210093023 404.2411314578711 117.41085996848349 " fill="none" stroke="black" stroke-width="1"></path><path id="SvgjsPath1167" d="M 503.3493442463981 177.1379182625223 C 503.3493442463981 177.1379182625223 536.1797099364892 241.91875540531746 407.3205246028815 120.04323352445613 " fill="none" stroke="black" stroke-width="1"></path><metadata>65 * Math.cos(t/1);31 * Math.sin(t/1);52 * Math.cos(t/1);48 * Math.sin(t/2)+48 * Math.cos(t/2)</metadata><path id="SvgjsPath1168" d="M 72 450 C 72 450 24 450 212.4 392.4 " fill="none" stroke="black" stroke-width="1"></path><path id="SvgjsPath1169" d="M 72.1910219802442 447.3981260790438 C 72.1910219802442 447.3981260790438 24.308573968086776 441.1872012354709 212.24718241580464 390.4196879734373 " fill="none" stroke="black" stroke-width="1"></path><path id="SvgjsPath1170" d="M 72.7631522954143 444.8089961352344 C 72.7631522954143 444.8089961352344 25.23278447720773 432.4175675548262 211.78947816366855 388.5123543787692 " fill="none" stroke="black" stroke-width="1"></path><path id="SvgjsPath1171" d="M 73.71358865151643 442.2452917257251 C 73.71358865151643 442.2452917257251 26.768104744757323 423.7340526193915 211.02912907878687 386.68033546114293 " fill="none" stroke="black" stroke-width="1"></path><path id="SvgjsPath1172" d="M 75.03767581175987 439.71956987341497 C 75.03767581175987 439.71956987341497 28.90701477284287 415.17918828092166 209.96985935059212 384.92587521464407 " fill="none" stroke="black" stroke-width="1"></path><path id="SvgjsPath1173" d="M 76.72892839790445 437.2442015626572 C 76.72892839790445 437.2442015626572 31.639038181230262 406.79487626061314 208.61685728167646 383.2511226336847 " fill="none" stroke="black" stroke-width="1"></path><path id="SvgjsPath1174" d="M 78.77906265563995 434.831311146184 C 78.77906265563995 434.831311146184 34.95079352064914 398.6221829144942 206.97674987548805 381.6581290807537 " fill="none" stroke="black" stroke-width="1"></path><path id="SvgjsPath1175" d="M 81.17803702841053 432.4927169600329 C 81.17803702841053 432.4927169600329 38.826059815124694 390.7011380904341 205.0575703772716 380.1488457737545 " fill="none" stroke="black" stroke-width="1"></path><path id="SvgjsPath1176" d="M 83.91410134095354 430.23987343734314 C 83.91410134095354 430.23987343734314 43.24585601230956 383.0705390619687 202.86871892723715 378.7251213960066 " fill="none" stroke="black" stroke-width="1"></path><path id="SvgjsPath1177" d="M 86.97385435165215 428.08381500454755 C 86.97385435165215 428.08381500454755 48.18853395266885 375.76776049927406 200.4209165186783 377.38869983184065 " fill="none" stroke="black" stroke-width="1"></path><path id="SvgjsPath1178" d="M 90.34230939180992 426.03510203475787 C 90.34230939180992 426.03510203475787 53.62988440215446 368.82857140805095 197.72615248655208 376.14121803055696 " fill="none" stroke="black" stroke-width="1"></path><path id="SvgjsPath1179" d="M 94.00296777034643 424.1037691230623 C 94.00296777034643 424.1037691230623 59.54325562902116 362.28695993295304 194.79762578372285 374.9842040013685 " fill="none" stroke="black" stroke-width="1"></path><path id="SvgjsPath1180" d="M 97.93789958437799 422.299275937084 C 97.93789958437799 422.299275937084 65.89968394399519 356.1749668836717 191.64968033249764 373.9190749417798 " fill="none" stroke="black" stroke-width="1"></path><path id="SvgjsPath1181" d="M 102.12783153987269 420.63046088353383 C 102.12783153987269 420.63046088353383 72.66803556440975 350.52252879906627 188.29773476810186 372.94713550169774 " fill="none" stroke="black" stroke-width="1"></path><path id="SvgjsPath1182" d="M 106.55224135223506 419.1054978176987 C 106.55224135223506 419.1054978176987 79.81515910745665 345.3573313180117 184.75820691821195 372.0695761853983 " fill="none" stroke="black" stroke-width="1"></path><path id="SvgjsPath1183" d="M 111.18945826444534 417.7318560079026 C 111.18945826444534 417.7318560079026 87.30604796564248 340.70467357515383 181.04843338844373 371.28747189330784 " fill="none" stroke="black" stroke-width="1"></path><path id="SvgjsPath1184" d="M 116.01676919041651 416.516263551034 C 116.01676919041651 416.516263551034 95.10401176913436 336.5873442857603 177.1865846476668 370.60178060538436 " fill="none" stroke="black" stroke-width="1"></path><path id="SvgjsPath1185" d="M 121.01052996367845 415.464674418331 C 121.01052996367845 415.464674418331 103.1708560951729 333.025510126605 173.19157602905725 370.01334220771196 " fill="none" stroke="black" stroke-width="1"></path><path id="SvgjsPath1186" d="M 126.14628114649348 414.5822392928328 C 126.14628114649348 414.5822392928328 111.46706954433562 330.036616959595 169.08297508280523 369.5228774637453 " fill="none" stroke="black" stroke-width="1"></path><path id="SvgjsPath1187" d="M 131.39886783216966 413.87328034133714 C 131.39886783216966 413.87328034133714 119.95201726735098 327.63530438194834 164.88090573426427 369.13098713146474 " fill="none" stroke="black" stroke-width="1"></path><path id="SvgjsPath1188" d="M 136.74256285378124 413.3412700444293 C 136.74256285378124 413.3412700444293 128.58413999456968 325.833334021454 160.60594971697503 368.8381512275225 " fill="none" stroke="black" stroke-width="1"></path><path id="SvgjsPath1189" d="M 142.15119279581938 412.988814188274 C 142.15119279581938 412.988814188274 137.32115759324665 324.6395319280248 156.27904576334453 368.64472843928263 " fill="none" stroke="black" stroke-width="1"></path><path id="SvgjsPath1190" d="M 147.5982661915677 412.8176391014762 C 147.5982661915677 412.8176391014762 146.12027615560936 324.05974534370966 151.92138704674585 368.5509556854739 " fill="none" stroke="black" stroke-width="1"></path><path id="SvgjsPath1191" d="M 153.0571032782931 412.82858319952425 C 153.0571032782931 412.82858319952425 154.9383976033966 324.0968140629048 147.55431737736552 368.5569478259937 " fill="none" stroke="black" stroke-width="1"></path><path id="SvgjsPath1192" d="M 158.50096667471007 413.02159287823156 C 158.50096667471007 413.02159287823156 163.73233078222393 324.75055652304246 143.19922666023194 368.6626975212192 " fill="none" stroke="black" stroke-width="1"></path><path id="SvgjsPath1193" d="M 163.90319234066044 413.3957227762895 C 163.90319234066044 413.3957227762895 172.4590030118361 326.01777069388396 138.8774461274717 368.8680752409973 " fill="none" stroke="black" stroke-width="1"></path><path id="SvgjsPath1194" d="M 169.23732017756913 413.94914040564703 C 169.23732017756913 413.94914040564703 181.0756710560732 327.89224976106254 134.61014385794476 369.1728294233033 " fill="none" stroke="black" stroke-width="1"></path><path id="SvgjsPath1195" d="M 174.47722362999292 414.67913512703575 C 174.47722362999292 414.67913512703575 189.54013047921933 330.36481252705664 130.4182210960057 369.5765867823724 " fill="none" stroke="black" stroke-width="1"></path><path id="SvgjsPath1196" d="M 179.5972376534761 415.5821314266801 C 179.5972376534761 415.5821314266801 197.81092236330755 333.42334838069087 126.32220987721912 370.0788527659284 " fill="none" stroke="black" stroke-width="1"></path><path id="SvgjsPath1197" d="M 184.57228442192536 416.65370642916196 C 184.57228442192536 416.65370642916196 205.84753637387945 337.05287661490354 122.3421724624597 370.6790121609482 " fill="none" stroke="black" stroke-width="1"></path><path id="SvgjsPath1198" d="M 189.37799615878896 417.88861156066196 C 189.37799615878896 417.88861156066196 213.61060917958218 341.235619802242 118.49760307296884 371.3763298472212 " fill="none" stroke="black" stroke-width="1"></path><path id="SvgjsPath1199" d="M 193.99083449041404 419.28079825647137 C 193.99083449041404 419.28079825647137 221.06211725374575 345.9510908686934 114.80733240766872 372.16995169777897 " fill="none" stroke="black" stroke-width="1"></path><path id="SvgjsPath1200" d="M 198.38820573698902 420.8234475868596 C 198.38820573698902 420.8234475868596 228.1655631135976 351.1761934393631 111.2894354104088 373.05890562509467 " fill="none" stroke="black" stroke-width="1"></path><path id="SvgjsPath1201" d="M 202.54857157637576 422.5090036561877 C 202.54857157637576 422.5090036561877 234.88615408491472 356.8853349645067 107.96114273889938 374.04210277176844 " fill="none" stroke="black" stroke-width="1"></path><path id="SvgjsPath1202" d="M 206.4515545388004 424.329210611682 C 206.4515545388004 424.329210611682 241.1909727165237 363.0505520718261 104.8387563689597 375.1183388442413 " fill="none" stroke="black" stroke-width="1"></path><path id="SvgjsPath1203" d="M 210.07803781568998 426.27515308059645 C 210.07803781568998 426.27515308059645 247.04913800996073 369.6416475310525 101.93756974744807 376.2862955879046 " fill="none" stroke="black" stroke-width="1"></path><path id="SvgjsPath1204" d="M 213.4102588937914 428.3372998377041 C 213.4102588937914 428.3372998377041 252.4319566745861 376.6263381599656 99.27179288496689 377.54454240179683 " fill="none" stroke="black" stroke-width="1"></path><path id="SvgjsPath1205" d="M 216.4318965559521 430.5055504892333 C 216.4318965559521 430.5055504892333 257.31306366730723 383.9704129474032 96.85448275523831 378.8915380909109 " fill="none" stroke="black" stroke-width="1"></path><path id="SvgjsPath1206" d="M 219.12815082243344 432.76928494459116 C 219.12815082243344 432.76928494459116 261.66855132854636 391.6379006187765 94.69747934205324 380.32563275396535 " fill="none" stroke="black" stroke-width="1"></path><path id="SvgjsPath1207" d="M 221.48581544120398 435.117415433562 C 221.48581544120398 435.117415433562 265.4770864819449 399.59124582335505 92.8113476470368 381.84506980432724 " fill="none" stroke="black" stroke-width="1"></path><path id="SvgjsPath1208" d="M 223.4933425721553 437.53844081420027 C 223.4933425721553 437.53844081420027 268.72001492425085 407.79149308035585 91.20532594227575 383.4479881216108 " fill="none" stroke="black" stroke-width="1"></path><path id="SvgjsPath1209" d="M 225.14089934841695 440.0205029054182 C 225.14089934841695 440.0205029054182 271.3814527935966 416.198477582868 89.88728052126645 385.13242433131745 " fill="none" stroke="black" stroke-width="1"></path><path id="SvgjsPath1210" d="M 226.42041603773336 442.5514445683501 C 226.42041603773336 442.5514445683501 273.4483643686462 424.77102192505686 88.86366716981331 386.8963152097241 " fill="none" stroke="black" stroke-width="1"></path><path id="SvgjsPath1211" d="M 227.3256255680084 445.1188692520131 C 227.3256255680084 445.1188692520131 274.910625917552 433.4671377890767 88.1394995455933 388.73750021107367 " fill="none" stroke="black" stroke-width="1"></path><path id="SvgjsPath1212" d="M 227.85209422342137 447.71020171160717 C 227.85209422342137 447.71020171160717 275.76107528398836 442.2442316038307 87.71832462126292 390.6537241139743 " fill="none" stroke="black" stroke-width="1"></path><path id="SvgjsPath1213" d="M 227.99724336076468 450.31274960205786 C 227.99724336076468 450.31274960205786 275.9955469673891 451.05931316826053 87.60220531138826 392.64263978376295 " fill="none" stroke="black" stroke-width="1"></path><path id="SvgjsPath1214" d="M 227.7603620396372 452.91376564511614 C 227.7603620396372 452.91376564511614 275.61289252556776 459.86920621732884 87.79171036829025 394.70181104745194 " fill="none" stroke="black" stroke-width="1"></path><path id="SvgjsPath1215" d="M 227.14261050462977 455.5005100655206 C 227.14261050462977 455.5005100655206 274.6149861997866 468.6307598993439 88.28591159629619 396.82871567773645 " fill="none" stroke="black" stroke-width="1"></path><path id="SvgjsPath1216" d="M 226.147014502448 458.06031299041047 C 226.147014502448 458.06031299041047 273.0067157347237 477.3010601288096 89.0823883980416 399.0207484824073 " fill="none" stroke="black" stroke-width="1"></path><path id="SvgjsPath1217" d="M 224.7784504618062 460.5806365063563 C 224.7784504618062 460.5806365063563 270.7959584383023 485.837639779594 90.17723963055504 401.275224495386 " fill="none" stroke="black" stroke-width="1"></path><path id="SvgjsPath1218" d="M 223.04362160868217 463.0491360700538 C 223.04362160868217 463.0491360700538 267.99354259864043 494.1986866888919 91.56510271305427 403.58938226547195 " fill="none" stroke="black" stroke-width="1"></path><path id="SvgjsPath1219" d="M 220.95102513391976 465.4537209718903 C 220.95102513391976 465.4537209718903 264.61319444710114 502.3432484531767 93.23917989286417 405.9603872387751 " fill="none" stroke="black" stroke-width="1"></path><path id="SvgjsPath1220" d="M 218.51091057399228 467.78261355623465 C 218.51091057399228 467.78261355623465 260.6714709272183 510.2314330130529 95.19127154080617 408.38533523069043 " fill="none" stroke="black" stroke-width="1"></path><path id="SvgjsPath1221" d="M 215.7352296087782 470.0244069083886 C 215.7352296087782 470.0244069083886 256.18767859879557 517.824604044542 97.41181631297744 410.8612559831601 " fill="none" stroke="black" stroke-width="1"></path><path id="SvgjsPath1222" d="M 212.6375775222391 472.16812072564875 C 212.6375775222391 472.16812072564875 251.18377907438625 525.085570199778 99.88993798220869 413.3851168028688 " fill="none" stroke="black" stroke-width="1"></path><path id="SvgjsPath1223" d="M 209.23312661272575 474.2032550988241 C 209.23312661272575 474.2032550988241 245.68428145132623 531.9787672702107 102.6134987098194 415.9538262759135 " fill="none" stroke="black" stroke-width="1"></path><path id="SvgjsPath1224" d="M 205.5385518790684 476.1198419407859 C 205.5385518790684 476.1198419407859 239.71612226618743 538.4704323800811 105.56915849674527 418.5642380543991 " fill="none" stroke="black" stroke-width="1"></path><path id="SvgjsPath1225" d="M 201.57194934644085 477.9084938101529 C 201.57194934644085 477.9084938101529 233.3085335596352 544.5287693569695 108.74244052284732 421.213154710321 " fill="none" stroke="black" stroke-width="1"></path><path id="SvgjsPath1226" d="M 197.35274743203868 479.56044989097506 C 197.35274743203868 479.56044989097506 226.49289969790863 550.1241044694318 112.11780205436905 423.8973316520148 " fill="none" stroke="black" stroke-width="1"></path><path id="SvgjsPath1227" d="M 192.90161178470134 481.0676189032054 C 192.90161178470134 481.0676189032054 219.30260365220985 555.2290317689216 115.67871057223891 426.61348109837525 " fill="none" stroke="black" stroke-width="1"></path><path id="SvgjsPath1228" d="M 188.24034406457474 482.42261873378544 C 188.24034406457474 482.42261873378544 211.77286348892844 559.8185473241119 119.4077247483402 429.35827610597653 " fill="none" stroke="black" stroke-width="1"></path><path id="SvgjsPath1229" d="M 183.39177515859086 483.6188125942313 C 183.39177515859086 483.6188125942313 203.94055987156983 563.8701716901384 123.28657987312731 432.12835464416287 " fill="none" stroke="black" stroke-width="1"></path><path id="SvgjsPath1230" d="M 178.3796533547951 484.6503415276206 C 178.3796533547951 484.6503415276206 195.8440554192844 567.3640600129085 127.29627731616392 434.9203237131149 " fill="none" stroke="black" stroke-width="1"></path><path id="SvgjsPath1231" d="M 173.2285280232435 485.51215310576004 C 173.2285280232435 485.51215310576004 187.52300680677797 570.2830992291872 131.41717758140518 437.7307634998504 " fill="none" stroke="black" stroke-width="1"></path><path id="SvgjsPath1232" d="M 167.96362937320072 486.20002617597646 C 167.96362937320072 486.20002617597646 179.01817052593964 572.6129918863719 135.62909650143942 440.5562315670677 " fill="none" stroke="black" stroke-width="1"></path><path id="SvgjsPath1233" d="M 162.6107448755876 486.7105915363204 C 162.6107448755876 486.7105915363204 170.3712032605646 574.3423261714078 139.91140409952988 443.39326706970064 " fill="none" stroke="black" stroke-width="1"></path><path id="SvgjsPath1234" d="M 157.196092955962 487.04134843791553 C 157.196092955962 487.04134843791553 161.6244578519386 575.4626318058429 144.2431256352304 446.2383949940211 " fill="none" stroke="black" stroke-width="1"></path><path id="SvgjsPath1235" d="M 151.7461945766833 487.1906768336254 C 151.7461945766833 487.1906768336254 152.82077585464225 575.9684215332472 148.60304433865338 449.08813041409667 " fill="none" stroke="black" stroke-width="1"></path><path id="SvgjsPath1236" d="M 146.28774333725255 487.15784531304337 C 146.28774333725255 487.15784531304337 144.00327769863875 575.8572179957922 152.96980533019794 451.9389827603884 " fill="none" stroke="black" stroke-width="1"></path><path id="SvgjsPath1237" d="M 140.8474747290755 486.9430146849408 C 140.8474747290755 486.9430146849408 135.21515148542963 575.1295658683479 157.3220202167396 454.7874600952626 " fill="none" stroke="black" stroke-width="1"></path><path id="SvgjsPath1238" d="M 135.4520351850391 486.54723718962515 C 135.4520351850391 486.54723718962515 126.49944145275548 573.7890291906659 161.6383718519687 457.6300733901775 " fill="none" stroke="black" stroke-width="1"></path><path id="SvgjsPath1239" d="M 130.127851565297 485.97245134506807 C 130.127851565297 485.97245134506807 117.89883714394131 571.8421739107145 165.89771874776238 460.46334079930705 " fill="none" stroke="black" stroke-width="1"></path><path id="SvgjsPath1240" d="M 124.90100171852164 485.2214724520451 C 124.90100171852164 485.2214724520451 109.45546431453496 569.2985357246687 170.0791986251827 463.2837919243666 " fill="none" stroke="black" stroke-width="1"></path><path id="SvgjsPath1241" d="M 119.79708675261485 484.2979788047936 C 119.79708675261485 484.2979788047936 101.21067860037783 566.1705733710752 174.16233059790812 466.0879720654168 " fill="none" stroke="black" stroke-width="1"></path><path id="SvgjsPath1242" d="M 114.84110564049418 483.20649367473027 C 114.84110564049418 483.20649367473027 93.20486295772136 562.4736076079574 178.12711548760464 468.87244645243914 " fill="none" stroke="black" stroke-width="1"></path><path id="SvgjsPath1243" d="M 110.05733277513633 481.9523631554692 C 110.05733277513633 481.9523631554692 85.47722986752791 558.2257461717504 181.95413377989092 471.6338044524996 " fill="none" stroke="black" stroke-width="1"></path><path id="SvgjsPath1244" d="M 105.46919907361251 480.54172997765835 C 105.46919907361251 480.54172997765835 78.06562927275867 553.447795085617 185.62464074111 474.3686637473477 " fill="none" stroke="black" stroke-width="1"></path><path id="SvgjsPath1245" d="M 101.09917721246867 478.98150342188814 C 101.09917721246867 478.98150342188814 71.00636318937248 548.1631567515566 189.12065823002507 477.07367447633294 " fill="none" stroke="black" stroke-width="1"></path><path id="SvgjsPath1246" d="M 96.968671556567 477.27932547703836 C 96.968671556567 477.27932547703836 64.33400789906977 542.3977153254525 192.4250627547464 479.7455233395658 " fill="none" stroke="black" stroke-width="1"></path><path id="SvgjsPath1247" d="M 93.09791332051776 475.44353340982065 C 93.09791332051776 475.44353340982065 58.081244594682545 536.1797099364892 195.52166934358578 482.3809376562956 " fill="none" stroke="black" stroke-width="1"></path><metadata>65 * Math.cos(t/1);31 * Math.sin(t/1);52 * Math.cos(t/1);48 * Math.sin(t/2)+48 * Math.cos(t/2)</metadata><path id="SvgjsPath1248" d="M 450 412.8 C 450 412.8 450 324 450 368.5412988073097 " fill="none" stroke="black" stroke-width="1"></path><path id="SvgjsPath1249" d="M 455.45554209232756 412.891102790578 C 455.45554209232756 412.891102790578 458.81279876452913 324.30857396808676 445.63556632613796 368.5911871687081 " fill="none" stroke="black" stroke-width="1"></path><path id="SvgjsPath1250" d="M 460.8843629422504 413.1639649408899 C 460.8843629422504 413.1639649408899 467.5824324451737 325.2327844772077 441.2925096461997 368.7407911458988 " fill="none" stroke="black" stroke-width="1"></path><path id="SvgjsPath1251" d="M 466.25987218799577 413.6172499722617 C 466.25987218799577 413.6172499722617 476.2659473806085 326.76810474475735 436.9921022496035 368.98992749271736 " fill="none" stroke="black" stroke-width="1"></path><path id="SvgjsPath1252" d="M 471.55574058800084 414.2487376948393 C 471.55574058800084 414.2487376948393 484.82081171907834 328.9070147728429 432.7554075295993 369.33829104829266 " fill="none" stroke="black" stroke-width="1"></path><path id="SvgjsPath1253" d="M 476.74602898152517 415.0553350820775 C 476.74602898152517 415.0553350820775 493.2051237393868 331.63903818123026 428.6031768147799 369.7854551108309 " fill="none" stroke="black" stroke-width="1"></path><path id="SvgjsPath1254" d="M 481.80531533864644 416.0330914203821 C 481.80531533864644 416.0330914203821 501.3778170855058 334.95079352064914 424.55574772908284 370.3308719602721 " fill="none" stroke="black" stroke-width="1"></path><path id="SvgjsPath1255" d="M 486.70881927735036 417.1772176597035 C 486.70881927735036 417.1772176597035 509.2988619095659 338.8260598151247 420.63294457811975 370.97387352917826 " fill="none" stroke="black" stroke-width="1"></path><path id="SvgjsPath1256" d="M 491.43252343782893 418.4821098703009 C 491.43252343782893 418.4821098703009 516.9294609380313 343.24585601230956 416.8539812497369 371.71367222103294 " fill="none" stroke="black" stroke-width="1"></path><path id="SvgjsPath1257" d="M 495.953291119497 419.94137669078793 C 495.953291119497 419.94137669078793 524.2322395007259 348.1885339526688 413.2373671044024 372.5493618749482 " fill="none" stroke="black" stroke-width="1"></path><path id="SvgjsPath1258" d="M 500.2489796045399 421.54787063301706 C 500.2489796045399 421.54787063301706 531.171428591949 353.62988440215446 409.800816316368 373.4799188755985 " fill="none" stroke="black" stroke-width="1"></path><path id="SvgjsPath1259" d="M 504.2985486129338 423.2937230904729 C 504.2985486129338 423.2937230904729 537.7130400670469 359.54325562902113 406.56116110965286 374.5042034070214 " fill="none" stroke="black" stroke-width="1"></path><path id="SvgjsPath1260" d="M 508.08216335772704 425.1703828787033 C 508.08216335772704 425.1703828787033 543.8250331163283 365.89968394399517 403.5342693138184 375.62096084874946 " fill="none" stroke="black" stroke-width="1"></path><path id="SvgjsPath1261" d="M 511.5812916958161 427.1686581190162 C 511.5812916958161 427.1686581190162 549.4774712009337 372.66803556440976 400.7349666433471 376.8288233125638 " fill="none" stroke="black" stroke-width="1"></path><path id="SvgjsPath1262" d="M 514.7787948983737 429.27876126029673 C 514.7787948983737 429.27876126029673 554.6426686819883 379.8151591074567 398.17696408130104 378.1263113179859 " fill="none" stroke="black" stroke-width="1"></path><path id="SvgjsPath1263" d="M 517.6590115963334 431.49035701842774 C 517.6590115963334 431.49035701842774 559.2953264248462 387.30604796564245 395.87279072293336 379.5118356044559 " fill="none" stroke="black" stroke-width="1"></path><path id="SvgjsPath1264" d="M 520.2078344897675 433.79261299850634 C 520.2078344897675 433.79261299850634 563.4126557142397 395.10401176913433 393.83373240818605 380.98369907797854 " fill="none" stroke="black" stroke-width="1"></path><path id="SvgjsPath1265" d="M 522.412779445435 436.17425275190817 C 522.412779445435 436.17425275190817 566.974489873395 403.1708560951729 392.069776443652 382.5400988898508 " fill="none" stroke="black" stroke-width="1"></path><path id="SvgjsPath1266" d="M 524.2630466440603 438.62361100832766 C 524.2630466440603 438.62361100832766 569.963383040405 411.4670695443356 390.58956268475185 384.1791286449263 " fill="none" stroke="black" stroke-width="1"></path><path id="SvgjsPath1267" d="M 525.7495734778415 441.1286908122655 C 525.7495734778415 441.1286908122655 572.3646956180517 419.952017267351 389.4003412177268 385.8987807367109 " fill="none" stroke="black" stroke-width="1"></path><path id="SvgjsPath1268" d="M 526.8650789390999 443.67722228411105 C 526.8650789390999 443.67722228411105 574.166665978546 428.5841399945697 388.5079368487201 387.6969488064292 " fill="none" stroke="black" stroke-width="1"></path><path id="SvgjsPath1269" d="M 527.6040992826513 446.25672271800613 C 527.6040992826513 446.25672271800613 575.3604680719752 437.32115759324665 387.91672057387893 389.57143032305146 " fill="none" stroke="black" stroke-width="1"></path><path id="SvgjsPath1270" d="M 527.9630147872274 448.8545577221323 C 527.9630147872274 448.8545577221323 575.9402546562903 446.12027615560936 387.6295881702181 391.519929281118 " fill="none" stroke="black" stroke-width="1"></path><path id="SvgjsPath1271" d="M 527.9400674848685 451.45800310195517 C 527.9400674848685 451.45800310195517 575.9031859370953 454.93839760339654 387.64794601210525 393.54005901305914 " fill="none" stroke="black" stroke-width="1"></path><path id="SvgjsPath1272" d="M 527.53536977145 454.05430718332326 C 527.53536977145 454.05430718332326 575.2494434769576 463.7323307822239 387.9717041828401 395.62934511256424 " fill="none" stroke="black" stroke-width="1"></path><path id="SvgjsPath1273" d="M 526.750903856167 456.6307532701611 C 526.750903856167 456.6307532701611 573.9822293061161 472.4590030118361 388.59927691506635 397.78522846542046 " fill="none" stroke="black" stroke-width="1"></path><path id="SvgjsPath1274" d="M 525.5905120526755 459.17472193084063 C 525.5905120526755 459.17472193084063 572.1077502389375 481.0756710560732 389.52759035785954 400.00506838410723 " fill="none" stroke="black" stroke-width="1"></path><path id="SvgjsPath1275" d="M 524.0598779594411 461.6737528081505 C 524.0598779594411 461.6737528081505 569.6351874729434 489.54013047921933 390.7520976324471 402.2861458423084 " fill="none" stroke="black" stroke-width="1"></path><path id="SvgjsPath1276" d="M 522.1664986214771 464.1156056501194 C 522.1664986214771 464.1156056501194 566.5766516193091 497.81092236330755 392.2668011028183 404.6256668053794 " fill="none" stroke="black" stroke-width="1"></path><path id="SvgjsPath1277" d="M 519.9196478098216 466.48832026276443 C 519.9196478098216 466.48832026276443 562.9471233850965 505.84753637387945 394.0642817521427 407.02076565269067 " fill="none" stroke="black" stroke-width="1"></path><path id="SvgjsPath1278" d="M 517.3303305986121 468.78027509111473 C 517.3303305986121 468.78027509111473 558.764380197758 513.6106091795822 396.1357355211103 409.4685086876541 " fill="none" stroke="black" stroke-width="1"></path><path id="SvgjsPath1279" d="M 514.4112294622374 470.9802441415821 C 514.4112294622374 470.9802441415821 554.0489091313066 521.0621172537458 398.47101643021006 411.96589773113453 " fill="none" stroke="black" stroke-width="1"></path><path id="SvgjsPath1280" d="M 511.17664215658476 473.07745196687165 C 511.17664215658476 473.07745196687165 548.823806560637 528.1655631135976 401.05868627473217 414.509873793845 " fill="none" stroke="black" stroke-width="1"></path><path id="SvgjsPath1281" d="M 507.64241168863873 475.0616264441177 C 507.64241168863873 475.0616264441177 543.1146650354933 534.8861540849148 403.886070649089 417.0973208232249 " fill="none" stroke="black" stroke-width="1"></path><path id="SvgjsPath1282" d="M 503.825848717441 476.92304908773554 C 503.825848717441 476.92304908773554 536.9494479281739 541.1909727165237 406.9393210260472 419.7250695202158 " fill="none" stroke="black" stroke-width="1"></path><path id="SvgjsPath1283" d="M 499.7456467664913 478.65260265055986 C 499.7456467664913 478.65260265055986 530.3583524689475 547.0491380099606 410.203482586807 422.38990122125597 " fill="none" stroke="black" stroke-width="1"></path><path id="SvgjsPath1284" d="M 495.42179066287844 480.24181578011587 C 495.42179066287844 480.24181578011587 523.3736618400344 552.4319566745861 413.66256746969725 425.0885518407406 " fill="none" stroke="black" stroke-width="1"></path><path id="SvgjsPath1285" d="M 490.8754586516076 481.68290451130025 C 490.8754586516076 481.68290451130025 516.0295870525968 557.3130636673072 417.29963307871395 427.81771586911907 " fill="none" stroke="black" stroke-width="1"></path><path id="SvgjsPath1286" d="M 486.1289186645669 482.9688103922375 C 486.1289186645669 482.9688103922375 508.3620993812235 561.6685513285463 421.09686506834646 430.5740504217303 " fill="none" stroke="black" stroke-width="1"></path><path id="SvgjsPath1287" d="M 481.2054192522088 484.0932350565742 C 481.2054192522088 484.0932350565742 500.40875417664495 565.477086481945 425.0356645982329 433.3541793334186 " fill="none" stroke="black" stroke-width="1"></path><path id="SvgjsPath1288" d="M 476.12907571216067 485.0506710728741 C 476.12907571216067 485.0506710728741 492.20850691964415 568.7200149242508 429.09673943027144 436.15469729391396 " fill="none" stroke="black" stroke-width="1"></path><path id="SvgjsPath1289" d="M 470.9247519725103 485.8364289200142 C 470.9247519725103 485.8364289200142 483.801522417132 571.3814527935966 433.2601984219918 438.972174018911 " fill="none" stroke="black" stroke-width="1"></path><path id="SvgjsPath1290" d="M 465.61793880829816 486.44665995645744 C 465.61793880829816 486.44665995645744 475.22897807494314 573.4483643686463 437.50564895336146 441.80315845173857 " fill="none" stroke="black" stroke-width="1"></path><path id="SvgjsPath1291" d="M 460.2346289877145 486.8783752708963 C 460.2346289877145 486.8783752708963 466.5328622109233 574.910625917552 441.81229680982847 444.64418299047253 " fill="none" stroke="black" stroke-width="1"></path><path id="SvgjsPath1292" d="M 454.80118995953336 487.1294603219394 C 454.80118995953336 487.1294603219394 457.7557683961693 575.7610752839884 446.1590480323733 447.4917677353144 " fill="none" stroke="black" stroke-width="1"></path><path id="SvgjsPath1293" d="M 449.3442347053625 487.19868529513394 C 449.3442347053625 487.19868529513394 448.94068683173947 575.9955469673891 450.52461223571 450.3424247510336 " fill="none" stroke="black" stroke-width="1"></path><path id="SvgjsPath1294" d="M 443.8904913892726 487.0857111265962 C 443.8904913892726 487.0857111265962 440.13079378267116 575.6128925255678 454.8876068885819 453.1926623392521 " fill="none" stroke="black" stroke-width="1"></path><path id="SvgjsPath1295" d="M 438.4666724432634 486.7910911637465 C 438.4666724432634 486.7910911637465 431.3692401006562 574.6149861997866 459.2266620453893 456.03898931533763 " fill="none" stroke="black" stroke-width="1"></path><path id="SvgjsPath1296" d="M 433.09934372978455 486.31626845501364 C 433.09934372978455 486.31626845501364 422.6989398711905 573.0067157347237 463.5205250161723 458.87791928466936 " fill="none" stroke="black" stroke-width="1"></path><path id="SvgjsPath1297" d="M 427.81479442215607 485.6635686817845 C 427.81479442215607 485.6635686817845 414.162360220406 570.7959584383023 467.7481644622751 461.70597491303425 " fill="none" stroke="black" stroke-width="1"></path><path id="SvgjsPath1298" d="M 422.6389082402098 484.83618876721766 C 422.6389082402098 484.83618876721766 405.8013133111082 567.9935425986405 471.8888734078322 464.5196921859275 " fill="none" stroke="black" stroke-width="1"></path><path id="SvgjsPath1299" d="M 417.59703667184294 483.83818121771554 C 417.59703667184294 483.83818121771554 397.6567515468232 564.613194447101 475.9223706625256 467.31562465153667 " fill="none" stroke="black" stroke-width="1"></path><path id="SvgjsPath1300" d="M 412.71387480144347 482.6744342737502 C 412.71387480144347 482.6744342737502 389.7685669869472 560.6714709272183 479.8289001588452 470.09034764221406 " fill="none" stroke="black" stroke-width="1"></path><path id="SvgjsPath1301" d="M 408.0133403533788 481.35064796726346 C 408.0133403533788 481.35064796726346 382.1753959554581 556.1876785987956 483.58932771729695 472.8404624692671 " fill="none" stroke="black" stroke-width="1"></path><path id="SvgjsPath1302" d="M 403.5184565429946 479.873306202914 C 403.5184565429946 479.873306202914 374.914429800222 551.1837790743863 487.1852347656043 475.5626005859261 " fill="none" stroke="black" stroke-width="1"></path><path id="SvgjsPath1303" d="M 399.2512393089172 478.2496449999154 C 399.2512393089172 478.2496449999154 368.0212327297893 545.6842814513263 490.5990085528662 478.2534277133932 " fill="none" stroke="black" stroke-width="1"></path><path id="SvgjsPath1304" d="M 395.2325894789974 476.4876170500172 C 395.2325894789974 476.4876170500172 361.52956761991885 539.7161222661874 493.81392841680207 480.9096479249171 " fill="none" stroke="black" stroke-width="1"></path><path id="SvgjsPath1305" d="M 391.4821903980665 474.59585276522563 C 391.4821903980665 474.59585276522563 355.47123064303054 533.3085335596352 496.8142476815468 483.5280076828911 " fill="none" stroke="black" stroke-width="1"></path><path id="SvgjsPath1306" d="M 388.0184115189232 472.5836180060492 C 388.0184115189232 472.5836180060492 349.87589553056824 526.4928996979086 499.58527078486145 486.10529982402954 " fill="none" stroke="black" stroke-width="1"></path><path id="SvgjsPath1307" d="M 384.8582184287628 470.4607686973191 C 384.8582184287628 470.4607686973191 344.7709682310784 519.3026036522099 502.11342525698973 488.63836748774213 " fill="none" stroke="black" stroke-width="1"></path><path id="SvgjsPath1308" d="M 382.01708975174023 468.2377025538741 C 382.01708975174023 468.2377025538741 340.18145267588807 511.77286348892846 504.3863281986078 491.12410798289335 " fill="none" stroke="black" stroke-width="1"></path><path id="SvgjsPath1309" d="M 379.50894133467625 465.9253081525587 C 379.50894133467625 465.9253081525587 336.12982830986164 503.94055987156986 506.392846932259 493.5594765882109 " fill="none" stroke="black" stroke-width="1"></path><path id="SvgjsPath1310" d="M 377.3460580872471 463.5349115999792 C 377.3460580872471 463.5349115999792 332.63593998709155 495.84405541928436 508.1231535302023 495.94149028168874 " fill="none" stroke="black" stroke-width="1"></path><path id="SvgjsPath1311" d="M 375.53903381050316 461.0782210572392 C 375.53903381050316 461.0782210572392 329.7169007708128 487.52300680677797 509.56877295159745 498.267231394416 " fill="none" stroke="black" stroke-width="1"></path><path id="SvgjsPath1312" d="M 374.0967193084365 458.56726939337267 C 374.0967193084365 458.56726939337267 327.38700811362816 479.01817052593964 510.72262455325085 500.5338511843565 " fill="none" stroke="black" stroke-width="1"></path><path id="SvgjsPath1313" d="M 373.0261790367476 456.01435524835716 C 373.0261790367476 456.01435524835716 325.65767382859224 470.37120326056464 511.57905677060194 502.73857332570145 " fill="none" stroke="black" stroke-width="1"></path><path id="SvgjsPath1314" d="M 372.33265650114487 453.43198279438184 C 372.33265650114487 453.43198279438184 324.5373681941571 461.6244578519386 512.1338747990841 504.8786973095216 " fill="none" stroke="black" stroke-width="1"></path><path id="SvgjsPath1315" d="M 372.0195485746565 450.8328004904182 C 372.0195485746565 450.8328004904182 324.03157846675276 452.82077585464225 512.3843611402748 506.95160175155286 " fill="none" stroke="black" stroke-width="1"></path><path id="SvgjsPath1316" d="M 372.0883888597477 448.2295391300743 C 372.0883888597477 448.2295391300743 324.1427820042078 444.0032776986387 512.3292889122018 508.95474760306405 " fill="none" stroke="black" stroke-width="1"></path><path id="SvgjsPath1317" d="M 372.53884017673704 445.6349494861745 C 372.53884017673704 445.6349494861745 324.87043413165213 435.2151514854296 511.96892785861036 510.88568126087443 " fill="none" stroke="black" stroke-width="1"></path><path id="SvgjsPath1318" d="M 373.36869621530207 443.0617398574802 C 373.36869621530207 443.0617398574802 326.21097080933407 426.4994414527555 511.30504302775836 512.7420375727107 " fill="none" stroke="black" stroke-width="1"></path><path id="SvgjsPath1319" d="M 374.5738923409863 440.52251382344934 C 374.5738923409863 440.52251382344934 328.1578260892855 417.8988371439413 510.340886127211 514.5215427342225 " fill="none" stroke="black" stroke-width="1"></path><path id="SvgjsPath1320" d="M 376.1485255037765 438.0297085119103 C 376.1485255037765 438.0297085119103 330.7014642753313 409.455464314535 509.0811795969788 516.2220170741089 " fill="none" stroke="black" stroke-width="1"></path><path id="SvgjsPath1321" d="M 378.0848831512392 435.5955336820163 C 378.0848831512392 435.5955336820163 333.8294266289248 401.21067860037783 507.53209347900867 517.8413777239423 " fill="none" stroke="black" stroke-width="1"></path><path id="SvgjsPath1322" d="M 380.37348100459775 433.2319119208511 C 380.37348100459775 433.2319119208511 337.5263923920425 393.2048629577214 505.7012151963218 519.3776411694232 " fill="none" stroke="black" stroke-width="1"></path><path id="SvgjsPath1323" d="M 383.00310951272587 430.95042024660347 C 383.00310951272587 430.95042024660347 341.7742538282495 385.4772298675279 503.59751238981926 520.828925679936 " fill="none" stroke="black" stroke-width="1"></path><path id="SvgjsPath1324" d="M 385.9608887565228 428.7622334043383 C 385.9608887565228 428.7622334043383 346.55220491438297 378.06562927275866 501.2312889947818 522.1934536134338 " fill="none" stroke="black" stroke-width="1"></path><path id="SvgjsPath1325" d="M 389.2323315347507 426.67806913210046 C 389.2323315347507 426.67806913210046 351.8368432484434 371.00636318937245 498.61413477219946 523.4695535938283 " fill="none" stroke="black" stroke-width="1"></path><path id="SvgjsPath1326" d="M 392.8014143223389 424.70813566543967 C 392.8014143223389 424.70813566543967 357.6022846745475 364.3340078990698 495.7588685421289 524.6556625582159 " fill="none" stroke="black" stroke-width="1"></path><path id="SvgjsPath1327" d="M 396.6506557536019 422.8620817374777 C 396.6506557536019 422.8620817374777 363.82029006351075 358.0812445946825 492.6794753971185 525.7503276714347 " fill="none" stroke="black" stroke-width="1"></path></svg>