<svg id="SvgjsSvg1212" width="300" height="300" xmlns="http://www.w3.org/2000/svg" version="1.1" xmlns:xlink="http://www.w3.org/1999/xlink" xmlns:svgjs="http://svgjs.com/svgjs"><defs id="SvgjsDefs1213"></defs><svg id="SvgjsSvg1214" style="overflow: visible;"><path id="SvgjsPath1215" d="M 97.05437459736525 168.04452788792526 L 97.05437459736525 168.04452788792526 141.14018911907937 216.49331675381646" fill="none" stroke="black" stroke-weight="1"></path><path id="SvgjsPath1216" d="M 96.49774904882936 162.71902163813536 L 96.49774904882936 162.71902163813536 146.79853950948115 217.08402141756883" fill="none" stroke="black" stroke-weight="1"></path><path id="SvgjsPath1217" d="M 96.22766749581746 157.35570762427201 L 96.22766749581746 157.35570762427201 152.497060649211 217.3706385758672" fill="none" stroke="black" stroke-weight="1"></path><path id="SvgjsPath1218" d="M 96.24545279763937 151.9808553556583 L 96.24545279763937 151.9808553556583 158.2078411846131 217.35176437801536" fill="none" stroke="black" stroke-weight="1"></path><path id="SvgjsPath1219" d="M 96.5510178418958 146.6207908559832 L 96.5510178418958 146.6207908559832 163.90290971551786 217.02749126982488" fill="none" stroke="black" stroke-weight="1"></path><path id="SvgjsPath1220" d="M 97.14286597115475 141.3017677184509 L 97.14286597115475 141.3017677184509 169.55437179914594 216.39940754081536" fill="none" stroke="black" stroke-weight="1"></path><path id="SvgjsPath1221" d="M 98.01809831357892 136.04983851569466 L 98.01809831357892 136.04983851569466 175.13454657707436 215.4705895447734" fill="none" stroke="black" stroke-weight="1"></path><path id="SvgjsPath1222" d="M 99.1724279815985 130.89072719428918 L 99.1724279815985 130.89072719428918 180.6161023560677 214.24558663177305" fill="none" stroke="black" stroke-weight="1"></path><path id="SvgjsPath1223" d="M 100.60020106908422 125.8497030788733 L 100.60020106908422 125.8497030788733 185.9721904786971 212.73039886546164" fill="none" stroke="black" stroke-weight="1"></path><path id="SvgjsPath1224" d="M 102.29442434417686 120.95145710301074 L 102.29442434417686 120.95145710301074 191.17657682805108 210.9324476347511" fill="none" stroke="black" stroke-weight="1"></path><path id="SvgjsPath1225" d="M 104.24679950213323 116.21998087301006 L 104.24679950213323 116.21998087301006 196.20377032242683 208.86053930385862" fill="none" stroke="black" stroke-weight="1"></path><path id="SvgjsPath1226" d="M 106.44776381041865 111.67844915704902 L 106.44776381041865 111.67844915704902 201.02914777063543 206.52482207873942" fill="none" stroke="black" stroke-weight="1"></path><path id="SvgjsPath1227" d="M 108.88653694696606 107.34910637517177 L 108.88653694696606 107.34910637517177 205.62907447638 203.93673630117888" fill="none" stroke="black" stroke-weight="1"></path><path id="SvgjsPath1228" d="M 111.55117380218806 103.25315764613094 L 111.55117380218806 103.25315764613094 209.98102000098586 201.10895841400452" fill="none" stroke="black" stroke-weight="1"></path><path id="SvgjsPath1229" d="M 114.4286229861175 99.41066492472655 L 114.4286229861175 99.41066492472655 214.06366851747802 198.05533887187534" fill="none" stroke="black" stroke-weight="1"></path><path id="SvgjsPath1230" d="M 117.50479075410914 95.84044873836157 L 117.50479075410914 95.84044873836157 217.85702321549084 194.79083430176172" fill="none" stroke="black" stroke-weight="1"></path><path id="SvgjsPath1231" d="M 120.76461003799365 92.55999600410824 L 120.76461003799365 92.55999600410824 221.34250424563498 191.33143424539452" fill="none" stroke="black" stroke-weight="1"></path><path id="SvgjsPath1232" d="M 124.19211424456981 89.58537437779727 L 124.19211424456981 89.58537437779727 224.5030397235904 187.69408284249735" fill="none" stroke="black" stroke-weight="1"></path><path id="SvgjsPath1233" d="M 127.77051545997004 86.93115355464744 L 127.77051545997004 86.93115355464744 227.3231493481871 183.89659583839915" fill="none" stroke="black" stroke-weight="1"></path><path id="SvgjsPath1234" d="M 131.48228667685396 84.61033390690609 L 131.48228667685396 84.61033390690609 229.78902022391225 179.95757332252234" fill="none" stroke="black" stroke-weight="1"></path><path id="SvgjsPath1235" d="M 135.30924764168157 82.63428280803217 L 135.30924764168157 82.63428280803217 231.8885745164658 175.89630862515426" fill="none" stroke="black" stroke-weight="1"></path><path id="SvgjsPath1236" d="M 139.2326539015857 81.012678955307 L 139.2326539015857 81.012678955307 233.61152860998632 171.73269381872538" fill="none" stroke="black" stroke-weight="1"></path><path id="SvgjsPath1237" d="M 143.23328861469273 79.75346496357977 L 143.23328861469273 79.75346496357977 234.9494434761965 167.48712228644854" fill="none" stroke="black" stroke-weight="1"></path><path id="SvgjsPath1238" d="M 147.2915566742045 78.8628084623441 L 147.2915566742045 78.8628084623441 235.89576600875938 163.1803888355381" fill="none" stroke="black" stroke-weight="1"></path><path id="SvgjsPath1239" d="M 151.38758068522122 78.3450718866919 L 151.38758068522122 78.3450718866919 236.44586112038985 158.83358784425502" fill="none" stroke="black" stroke-weight="1"></path><path id="SvgjsPath1240" d="M 155.50129832421183 78.20279111010841 L 155.50129832421183 78.20279111010841 236.59703444550982 154.46800994165275" fill="none" stroke="black" stroke-weight="1"></path><path id="SvgjsPath1241" d="M 159.61256060426442 78.43666302376529 L 159.61256060426442 78.43666302376529 236.34854553724938 150.10503772608675" fill="none" stroke="black" stroke-weight="1"></path><path id="SvgjsPath1242" d="M 163.70123056481376 79.0455421231479 L 163.70123056481376 79.0455421231479 235.70161149415537 145.7660410332588" fill="none" stroke="black" stroke-weight="1"></path><path id="SvgjsPath1243" d="M 167.7472819024644 80.02644611873592 L 167.7472819024644 80.02644611873592 234.65940099884307 141.47227226677242" fill="none" stroke="black" stroke-weight="1"></path><path id="SvgjsPath1244" d="M 171.73089705981397 81.37457054325581 L 171.73089705981397 81.37457054325581 233.22701879779072 137.24476230387089" fill="none" stroke="black" stroke-weight="1"></path><path id="SvgjsPath1245" d="M 175.63256429183983 83.08331228395922 L 175.63256429183983 83.08331228395922 231.41148069829333 133.1042174862108" fill="none" stroke="black" stroke-weight="1"></path><path id="SvgjsPath1246" d="M 179.43317323441585 85.14430192466574 L 179.43317323441585 85.14430192466574 229.22167920504265 129.07091820021174" fill="none" stroke="black" stroke-weight="1"></path><path id="SvgjsPath1247" d="M 183.1141085068665 87.54744473915918 L 183.1141085068665 87.54744473915918 226.6683399646434 125.16461954373355" fill="none" stroke="black" stroke-weight="1"></path><path id="SvgjsPath1248" d="M 186.657340890092 90.2809701351515 L 186.657340890092 90.2809701351515 223.76396923140155 121.40445456561666" fill="none" stroke="black" stroke-weight="1"></path><path id="SvgjsPath1249" d="M 190.04551563367417 93.33148930663788 L 190.04551563367417 93.33148930663788 220.52279261169727 117.80884055201925" fill="none" stroke="black" stroke-weight="1"></path><path id="SvgjsPath1250" d="M 193.26203745943525 96.68406081226158 L 193.26203745943525 96.68406081226158 216.96068538697207 114.39538881855853" fill="none" stroke="black" stroke-weight="1"></path><path id="SvgjsPath1251" d="M 196.29115184510195 100.32226375848632 L 196.29115184510195 100.32226375848632 213.09509475660826 111.18081845009587" fill="none" stroke="black" stroke-weight="1"></path><path id="SvgjsPath1252" d="M 199.11802218994774 104.22827822912447 L 199.11802218994774 104.22827822912447 208.94495438155525 108.18087441066771" fill="none" stroke="black" stroke-weight="1"></path><path id="SvgjsPath1253" d="M 201.7288024844556 108.38297256727753 L 201.7288024844556 108.38297256727753 204.53059164726764 105.41025042465935" fill="none" stroke="black" stroke-weight="1"></path><path id="SvgjsPath1254" d="M 204.11070512806552 112.7659970821818 L 204.11070512806552 112.7659970821818 199.87362810018183 102.8825170069509" fill="none" stroke="black" stroke-weight="1"></path><path id="SvgjsPath1255" d="M 206.2520635628356 117.35588372198347 L 206.2520635628356 117.35588372198347 194.99687354539265 100.61005499454185" fill="none" stroke="black" stroke-weight="1"></path><path id="SvgjsPath1256" d="M 208.1423894162371 122.13015122424588 L 208.1423894162371 122.13015122424588 189.92421432423876 98.60399490521777" fill="none" stroke="black" stroke-weight="1"></path><path id="SvgjsPath1257" d="M 209.77242387319768 127.06541522916147 L 209.77242387319768 127.06541522916147 184.68049631901593 96.87416242028002" fill="none" stroke="black" stroke-weight="1"></path><path id="SvgjsPath1258" d="M 211.1341830257728 132.13750281613412 L 211.1341830257728 132.13750281613412 179.2914032578575 95.42903025836354" fill="none" stroke="black" stroke-weight="1"></path><path id="SvgjsPath1259" d="M 212.22099697832297 137.32157090273205 L 212.22099697832297 137.32157090273205 173.78333091584713 94.27567667606542" fill="none" stroke="black" stroke-weight="1"></path><path id="SvgjsPath1260" d="M 213.02754251665914 142.59222792609324 L 213.02754251665914 142.59222792609324 168.1832578285259 93.41975079864744" fill="none" stroke="black" stroke-weight="1"></path><path id="SvgjsPath1261" d="M 213.5498691811431 147.92365821078724 L 213.5498691811431 147.92365821078724 162.51861315103855 92.86544495062365" fill="none" stroke="black" stroke-weight="1"></path><path id="SvgjsPath1262" d="M 213.7854186160368 153.2897484139802 L 213.7854186160368 153.2897484139802 156.81714231014604 92.61547412175688" fill="none" stroke="black" stroke-weight="1"></path><path id="SvgjsPath1263" d="M 213.7330371003274 158.6642154285751 L 213.7330371003274 158.6642154285751 151.10677110713905 92.6710626690403" fill="none" stroke="black" stroke-weight="1"></path><path id="SvgjsPath1264" d="M 213.3929811986524 164.02073511785693 L 213.3929811986524 164.02073511785693 145.415468937277 93.03193831979745" fill="none" stroke="black" stroke-weight="1"></path><path id="SvgjsPath1265" d="M 212.76691650464588 169.33307125110113 L 212.76691650464588 169.33307125110113 139.77111179570505 93.69633350527376" fill="none" stroke="black" stroke-weight="1"></path><path id="SvgjsPath1266" d="M 211.85790948286197 174.575204008618 L 211.85790948286197 174.575204008618 134.2013457408434 94.6609940181873" fill="none" stroke="black" stroke-weight="1"></path><path id="SvgjsPath1267" d="M 210.6704124492329 179.72145742681658 L 210.6704124492329 179.72145742681658 128.73345148400733 95.92119495183448" fill="none" stroke="black" stroke-weight="1"></path><path id="SvgjsPath1268" d="M 209.21024176362786 184.74662515906147 L 209.21024176362786 184.74662515906147 123.39421076849719 97.47076384268064" fill="none" stroke="black" stroke-weight="1"></path><path id="SvgjsPath1269" d="M 207.48454934132525 189.6260939363458 L 207.48454934132525 189.6260939363458 118.2097751926326 99.30211090308342" fill="none" stroke="black" stroke-weight="1"></path><path id="SvgjsPath1270" d="M 205.50178762293535 194.33596412307006 L 205.50178762293535 194.33596412307006 113.20553811923807 101.40626619606861" fill="none" stroke="black" stroke-weight="1"></path><path id="SvgjsPath1271" d="M 203.27166817435045 198.85316677744544 L 203.27166817435045 198.85316677744544 108.40601029896428 103.77292357007701" fill="none" stroke="black" stroke-weight="1"></path><path id="SvgjsPath1272" d="M 200.80511411950008 203.15557664315915 L 200.80511411950008 203.15557664315915 103.83469981664342 106.3904911384897" fill="none" stroke="black" stroke-weight="1"></path><path id="SvgjsPath1273" d="M 198.11420663889538 207.22212051886834 L 198.11420663889538 207.22212051886834 99.5139969487024 109.24614805668247" fill="none" stroke="black" stroke-weight="1"></path><path id="SvgjsPath1274" d="M 195.21212579601323 211.03288047472972 L 195.21212579601323 211.03288047472972 95.46506449559968 112.32590731851657" fill="none" stroke="black" stroke-weight="1"></path><path id="SvgjsPath1275" d="M 192.11308598135204 214.56919141040984 L 192.11308598135204 214.56919141040984 91.70773412643955 115.61468426468764" fill="none" stroke="black" stroke-weight="1"></path><path id="SvgjsPath1276" d="M 188.83226629035414 217.81373247673707 L 188.83226629035414 217.81373247673707 88.26040924346685 119.09637046737926" fill="none" stroke="black" stroke-weight="1"></path><path id="SvgjsPath1277" d="M 185.38573617620415 220.75061191321214 L 185.38573617620415 220.75061191321214 85.13997484221211 122.75391262933437" fill="none" stroke="black" stroke-weight="1"></path><path id="SvgjsPath1278" d="M 181.79037674165528 223.36544488584286 L 181.79037674165528 223.36544488584286 82.36171480879197 126.56939611089643" fill="none" stroke="black" stroke-weight="1"></path><path id="SvgjsPath1279" d="M 178.0637980553967 225.64542394405385 L 178.0637980553967 225.64542394405385 79.93923705944279 130.52413267590555" fill="none" stroke="black" stroke-weight="1"></path><path id="SvgjsPath1280" d="M 174.22425289794595 227.57938175157295 L 174.22425289794595 227.57938175157295 77.88440688895375 134.59875202666962" fill="none" stroke="black" stroke-weight="1"></path><path id="SvgjsPath1281" d="M 170.2905473595393 229.15784578403859 L 170.2905473595393 229.15784578403859 76.20728885445901 138.7732966796726" fill="none" stroke="black" stroke-weight="1"></path><path id="SvgjsPath1282" d="M 166.28194872791116 230.37308472541935 L 166.28194872791116 230.37308472541935 74.91609747924194 143.02731971731876" fill="none" stroke="black" stroke-weight="1"></path><path id="SvgjsPath1283" d="M 162.2180911171287 231.2191463359959 L 162.2180911171287 231.2191463359959 74.01715701800433 147.33998493692462" fill="none" stroke="black" stroke-weight="1"></path><path id="SvgjsPath1284" d="M 158.11887929971095 231.69188660642828 L 158.11887929971095 231.69188660642828 73.51487048066994 151.6901689064292" fill="none" stroke="black" stroke-weight="1"></path><path id="SvgjsPath1285" d="M 154.0043912130631 231.78899005511136 L 154.0043912130631 231.78899005511136 73.41169806644419 156.05656442695346" fill="none" stroke="black" stroke-weight="1"></path><path id="SvgjsPath1286" d="M 149.89477961774932 231.50998106940264 L 149.89477961774932 231.50998106940264 73.7081451137597 160.4177848954497" fill="none" stroke="black" stroke-weight="1"></path><path id="SvgjsPath1287" d="M 145.81017338928172 230.8562262351728 L 145.81017338928172 230.8562262351728 74.40275962512888 164.75246905627245" fill="none" stroke="black" stroke-weight="1"></path><path id="SvgjsPath1288" d="M 141.77057892689822 229.83092764326875 L 141.77057892689822 229.83092764326875 75.49213937902692 169.03938562859778" fill="none" stroke="black" stroke-weight="1"></path><path id="SvgjsPath1289" d="M 137.7957821622293 228.4391072056743 L 137.7957821622293 228.4391072056743 76.97094859397106 173.25753729722604" fill="none" stroke="black" stroke-weight="1"></path><path id="SvgjsPath1290" d="M 133.90525164781482 226.68758205818767 L 133.90525164781482 226.68758205818767 78.8319440631756 177.386263557421" fill="none" stroke="black" stroke-weight="1"></path><path id="SvgjsPath1291" d="M 130.11804320014363 224.58493117009405 L 130.11804320014363 224.58493117009405 81.06601063177507 181.40534191005167" fill="none" stroke="black" stroke-weight="1"></path><path id="SvgjsPath1292" d="M 126.45270656427392 222.14145332437818 L 126.45270656427392 222.14145332437818 83.66220584284818 185.29508691138278" fill="none" stroke="black" stroke-weight="1"></path><path id="SvgjsPath1293" d="M 122.92719455719151 219.36911667429064 L 122.92719455719151 219.36911667429064 86.60781353356622 189.03644659236818" fill="none" stroke="black" stroke-weight="1"></path><path id="SvgjsPath1294" d="M 119.55877513492122 216.28150012333916 L 119.55877513492122 216.28150012333916 89.88840611895215 192.61109577518565" fill="none" stroke="black" stroke-weight="1"></path><path id="SvgjsPath1295" d="M 116.363946814087 212.89372681582626 L 116.363946814087 212.89372681582626 93.48791525818459 196.0015258299485" fill="none" stroke="black" stroke-weight="1"></path><path id="SvgjsPath1296" d="M 113.35835786218595 209.22239006369608 L 113.35835786218595 209.22239006369608 97.38871055732292 199.19113043196595" fill="none" stroke="black" stroke-weight="1"></path><path id="SvgjsPath1297" d="M 110.55672965238195 205.2854720725007 L 110.55672965238195 205.2854720725007 101.57168592296799 202.16428689951303" fill="none" stroke="black" stroke-weight="1"></path><path id="SvgjsPath1298" d="M 107.97278455822743 201.10225586456684 L 107.97278455822743 201.10225586456684 106.01635314389773 204.9064327137178" fill="none" stroke="black" stroke-weight="1"></path><path id="SvgjsPath1299" d="M 105.61917874148466 196.69323083076182 L 105.61917874148466 196.69323083076182 110.70094224231556 207.40413684577138" fill="none" stroke="black" stroke-weight="1"></path><path id="SvgjsPath1300" d="M 103.50744016225178 192.0799923734678 L 103.50744016225178 192.0799923734678 115.60250810319044 209.64516554210013" fill="none" stroke="black" stroke-weight="1"></path><path id="SvgjsPath1301" d="M 101.6479121150202 187.28513613231178 L 101.6479121150202 187.28513613231178 120.69704285941873 211.6185422452847" fill="none" stroke="black" stroke-weight="1"></path><path id="SvgjsPath1302" d="M 100.04970256722324 182.332147310734 L 100.04970256722324 182.332147310734 125.95959348234513 213.31460135723248" fill="none" stroke="black" stroke-weight="1"></path><path id="SvgjsPath1303" d="M 98.72063954841644 177.2452856454736 L 98.72063954841644 177.2452856454736 131.3643840016843 214.72503558127232" fill="none" stroke="black" stroke-weight="1"></path><path id="SvgjsPath1304" d="M 97.66723280859269 172.0494665823902 L 97.66723280859269 172.0494665823902 136.8849417562104 215.8429366112894" fill="none" stroke="black" stroke-weight="1"></path><path id="SvgjsPath1305" d="M 96.89464193343001 166.77013924062285 L 96.89464193343001 166.77013924062285 142.4942270568382 216.66282896860488" fill="none" stroke="black" stroke-weight="1"></path><path id="SvgjsPath1306" d="M 96.40665107264358 161.43316176281718 L 96.40665107264358 161.43316176281718 148.16476562700672 217.18069682086804" fill="none" stroke="black" stroke-weight="1"></path><path id="SvgjsPath1307" d="M 96.20565040522237 156.06467466195602 L 96.20565040522237 156.06467466195602 153.8687831716717 217.39400365160077" fill="none" stroke="black" stroke-weight="1"></path><path id="SvgjsPath1308" d="M 96.29262443233355 150.6909727851399 L 96.29262443233355 150.6909727851399 159.57834141578883 217.3017046840542" fill="none" stroke="black" stroke-weight="1"></path><path id="SvgjsPath1309" d="M 96.66714715523642 145.33837652143941 L 96.66714715523642 145.33837652143941 165.2654749459706 216.90425199852461" fill="none" stroke="black" stroke-weight="1"></path><path id="SvgjsPath1310" d="M 97.32738416182389 140.03310288464272 L 97.32738416182389 140.03310288464272 170.9023281850671 216.20359231806447" fill="none" stroke="black" stroke-weight="1"></path><path id="SvgjsPath1311" d="M 98.27010161157216 134.80113710233545 L 98.27010161157216 134.80113710233545 176.4612918287686 215.20315747343363" fill="none" stroke="black" stroke-weight="1"></path><path id="SvgjsPath1312" d="M 99.49068207488989 129.668105340269 L 99.49068207488989 129.668105340269 181.9151380759642 213.9078475939944" fill="none" stroke="black" stroke-weight="1"></path><path id="SvgjsPath1313" d="M 100.98314714928608 124.65914918541381 L 100.98314714928608 124.65914918541381 187.23715399049783 212.3240071068801" fill="none" stroke="black" stroke-weight="1"></path><path id="SvgjsPath1314" d="M 102.74018674158233 119.79880250247903 L 102.74018674158233 119.79880250247903 192.40127234111603 210.45939366199426" fill="none" stroke="black" stroke-weight="1"></path></svg></svg>