<svg id="SvgjsSvg1418" width="300" height="300" xmlns="http://www.w3.org/2000/svg" version="1.1" xmlns:xlink="http://www.w3.org/1999/xlink" xmlns:svgjs="http://svgjs.com/svgjs"><defs id="SvgjsDefs1419"></defs><svg id="SvgjsSvg1420" style="overflow: visible;"><path id="SvgjsPath1421" d="M 125.15695956382643 155.28322779088586 L 125.15695956382643 155.28322779088586 184.83357810422797 196.2258131677959" fill="none" stroke="black" stroke-weight="1"></path><path id="SvgjsPath1422" d="M 123.35379446425709 152.0908977918895 L 123.35379446425709 152.0908977918895 185.09226548643483 191.1994679419247" fill="none" stroke="black" stroke-weight="1"></path><path id="SvgjsPath1423" d="M 121.58939200920672 149.10754611076382 L 121.58939200920672 149.10754611076382 185.045473949869 185.99581774041116" fill="none" stroke="black" stroke-weight="1"></path><path id="SvgjsPath1424" d="M 119.86591337104952 146.34343565414136 L 119.86591337104952 146.34343565414136 184.68461869631165 180.64035003930624" fill="none" stroke="black" stroke-weight="1"></path><path id="SvgjsPath1425" d="M 118.18546959560143 143.80752229356904 L 118.18546959560143 143.80752229356904 184.00285764432607 175.15929591669718" fill="none" stroke="black" stroke-weight="1"></path><path id="SvgjsPath1426" d="M 116.55011901635304 141.50741661293705 L 116.55011901635304 141.50741661293705 182.99513548739182 169.57950157290006" fill="none" stroke="black" stroke-weight="1"></path><path id="SvgjsPath1427" d="M 114.96186473326819 139.4493525238815 L 114.96186473326819 139.4493525238815 181.65821873709416 163.9282968377842" fill="none" stroke="black" stroke-weight="1"></path><path id="SvgjsPath1428" d="M 113.4226521592373 137.63816289566523 L 113.4226521592373 137.63816289566523 179.99072156713308 158.23336130927956" fill="none" stroke="black" stroke-weight="1"></path><path id="SvgjsPath1429" d="M 111.9343666371897 136.0772623113515 L 111.9343666371897 136.0772623113515 177.99312231931145 152.52258877871998" fill="none" stroke="black" stroke-weight="1"></path><path id="SvgjsPath1430" d="M 110.49883113078427 134.76863702685864 L 110.49883113078427 134.76863702685864 175.66777057875237 146.82395060706733" fill="none" stroke="black" stroke-weight="1"></path><path id="SvgjsPath1431" d="M 109.11780399150695 133.7128421738889 L 109.11780399150695 133.7128421738889 173.01888477215488 141.16535872119948" fill="none" stroke="black" stroke-weight="1"></path><path id="SvgjsPath1432" d="M 107.79297680491014 132.9090062119417 L 107.79297680491014 132.9090062119417 170.05254028969821 135.5745289013072" fill="none" stroke="black" stroke-weight="1"></path><path id="SvgjsPath1433" d="M 106.52597231863177 132.35484259882116 L 106.52597231863177 132.35484259882116 166.77664817801363 130.0788450290163" fill="none" stroke="black" stroke-weight="1"></path><path id="SvgjsPath1434" d="M 105.31834245473244 132.0466686134101 L 105.31834245473244 132.0466686134101 163.20092449823557 124.7052249611491" fill="none" stroke="black" stroke-weight="1"></path><path id="SvgjsPath1435" d="M 104.17156640878497 131.97943122917854 L 104.17156640878497 131.97943122917854 159.33685048928746 119.4799886860761" fill="none" stroke="black" stroke-weight="1"></path><path id="SvgjsPath1436" d="M 103.08704883804475 132.14673990210133 L 103.08704883804475 132.14673990210133 155.19762372202584 114.42872940842571" fill="none" stroke="black" stroke-weight="1"></path><path id="SvgjsPath1437" d="M 102.06611814092032 132.54090610254312 L 102.06611814092032 132.54090610254312 150.79810047443908 109.57618819358112" fill="none" stroke="black" stroke-weight="1"></path><path id="SvgjsPath1438" d="M 101.11002482985135 133.15298938740222 L 101.11002482985135 133.15298938740222 146.15472960155256 104.94613278595463" fill="none" stroke="black" stroke-weight="1"></path><path id="SvgjsPath1439" d="M 100.21993999958733 133.97284977654598 L 100.21993999958733 133.97284977654598 141.28547821581606 100.56124119458717" fill="none" stroke="black" stroke-weight="1"></path><path id="SvgjsPath1440" d="M 99.39695389274287 134.98920616648104 L 99.39695389274287 134.98920616648104 136.20974953434146 96.44299061627217" fill="none" stroke="black" stroke-weight="1"></path><path id="SvgjsPath1441" d="M 98.642074564387 136.18970048443276 L 98.642074564387 136.18970048443276 130.94829328820646 92.61155224025609" fill="none" stroke="black" stroke-weight="1"></path><path id="SvgjsPath1442" d="M 97.95622664730152 137.56096725770752 L 97.95622664730152 137.56096725770752 125.52310912597034 89.08569244976378" fill="none" stroke="black" stroke-weight="1"></path><path id="SvgjsPath1443" d="M 97.34025021942168 139.08870824651368 L 97.34025021942168 139.08870824651368 119.95734347836287 85.88268090426305" fill="none" stroke="black" stroke-weight="1"></path><path id="SvgjsPath1444" d="M 96.79489977484562 140.75777176346043 L 96.79489977484562 140.75777176346043 114.27518038364494 83.01820595268123" fill="none" stroke="black" stroke-weight="1"></path><path id="SvgjsPath1445" d="M 96.32084329967354 142.55223627985146 L 96.32084329967354 142.55223627985146 108.50172680323868 80.50629779188016" fill="none" stroke="black" stroke-weight="1"></path><path id="SvgjsPath1446" d="M 95.91866145380821 144.4554978977651 L 95.91866145380821 144.4554978977651 102.66289298473373 78.35925974675897" fill="none" stroke="black" stroke-weight="1"></path><path id="SvgjsPath1447" d="M 95.58884685971915 146.45036124785986 L 95.58884685971915 146.45036124785986 96.78526845416482 76.5876080085751" fill="none" stroke="black" stroke-weight="1"></path><path id="SvgjsPath1448" d="M 95.33180349904185 148.51913335596404 L 95.33180349904185 148.51913335596404 90.89599424139742 75.2000201266447" fill="none" stroke="black" stroke-weight="1"></path><path id="SvgjsPath1449" d="M 95.14784621775061 150.64372000687837 L 95.14784621775061 150.64372000687837 85.02263196144713 74.20329250571064" fill="none" stroke="black" stroke-weight="1"></path><path id="SvgjsPath1450" d="M 95.03720034051173 152.80572412151608 L 95.03720034051173 152.80572412151608 79.1930303904998 73.60230711715526" fill="none" stroke="black" stroke-weight="1"></path><path id="SvgjsPath1451" d="M 95.00000139468887 154.98654565358498 L 95.00000139468887 154.98654565358498 73.43519018821873 73.4000075871073" fill="none" stroke="black" stroke-weight="1"></path><path id="SvgjsPath1452" d="M 95.03629494433906 157.16748250452804 L 95.03629494433906 157.16748250452804 67.7771274275475 73.59738477856247" fill="none" stroke="black" stroke-weight="1"></path><path id="SvgjsPath1453" d="M 95.14603653440237 159.3298319504239 L 95.14603653440237 159.3298319504239 62.24673659961137 74.193471938137" fill="none" stroke="black" stroke-weight="1"></path><path id="SvgjsPath1454" d="M 95.32909174515385 161.45499207202406 L 95.32909174515385 161.45499207202406 56.87165376444169 75.18534943122525" fill="none" stroke="black" stroke-weight="1"></path><path id="SvgjsPath1455" d="M 95.58523635685081 163.52456267908977 L 95.58523635685081 163.52456267908977 51.67912051808052 76.56815904236852" fill="none" stroke="black" stroke-weight="1"></path><path id="SvgjsPath1456" d="M 95.91415662437404 165.5204452226827 L 95.91415662437404 165.5204452226827 46.695849443178574 78.33512777079193" fill="none" stroke="black" stroke-weight="1"></path><path id="SvgjsPath1457" d="M 96.3154496615263 167.42494119404958 L 96.3154496615263 167.42494119404958 41.94789170348133 80.47760100455862" fill="none" stroke="black" stroke-weight="1"></path><path id="SvgjsPath1458" d="M 96.78862393451757 169.22084851619763 L 96.78862393451757 169.22084851619763 37.460507432644135 82.98508491085505" fill="none" stroke="black" stroke-weight="1"></path><path id="SvgjsPath1459" d="M 97.33309986403245 170.89155544414888 L 97.33309986403245 170.89155544414888 33.258039554678774 85.8452978347783" fill="none" stroke="black" stroke-weight="1"></path><path id="SvgjsPath1460" d="M 97.94821053514232 172.42113150213635 L 97.94821053514232 172.42113150213635 29.36379165706458 89.04423045487576" fill="none" stroke="black" stroke-weight="1"></path><path id="SvgjsPath1461" d="M 98.63320251419285 173.79441500060622 L 98.63320251419285 173.79441500060622 25.799910518248765 92.56621440079482" fill="none" stroke="black" stroke-weight="1"></path><path id="SvgjsPath1462" d="M 99.38723677166584 174.99709669274446 L 99.38723677166584 174.99709669274446 22.58727386899764 96.3939989969524" fill="none" stroke="black" stroke-weight="1"></path><path id="SvgjsPath1463" d="M 100.20938970988561 176.01579914927055 L 100.20938970988561 176.01579914927055 19.745383941952014 100.5088357563355" fill="none" stroke="black" stroke-weight="1"></path><path id="SvgjsPath1464" d="M 101.09865429431059 176.83815145134466 L 101.09865429431059 176.83815145134466 17.292267335916364 104.89057021058107" fill="none" stroke="black" stroke-weight="1"></path><path id="SvgjsPath1465" d="M 102.05394128702468 177.45285882450932 L 102.05394128702468 177.45285882450932 15.244381690996903 109.5177406265517" fill="none" stroke="black" stroke-weight="1"></path><path id="SvgjsPath1466" d="M 103.07408058091758 177.84976686152464 L 103.07408058091758 177.84976686152464 13.61652963785562 114.36768312589416" fill="none" stroke="black" stroke-weight="1"></path><path id="SvgjsPath1467" d="M 104.1578226329196 178.01992000863066 L 104.1578226329196 178.01992000863066 12.421780449222268 119.4166426927033" fill="none" stroke="black" stroke-weight="1"></path><path id="SvgjsPath1468" d="M 105.30383999453568 177.9556140180541 L 105.30383999453568 177.9556140180541 11.671399784573964 124.63988952557838" fill="none" stroke="black" stroke-weight="1"></path><path id="SvgjsPath1469" d="M 106.51072893780389 177.65044209932694 L 106.51072893780389 177.65044209932694 11.374787879738761 130.01184016417812" fill="none" stroke="black" stroke-weight="1"></path><path id="SvgjsPath1470" d="M 107.77701117468652 177.0993345330599 L 107.77701117468652 177.0993345330599 11.539426492293586 135.50618279699572" fill="none" stroke="black" stroke-weight="1"></path><path id="SvgjsPath1471" d="M 109.10113566778816 176.29859154305743 L 109.10113566778816 176.29859154305743 12.170834871206353 141.09600613659887" fill="none" stroke="black" stroke-weight="1"></path><path id="SvgjsPath1472" d="M 110.4814805301825 175.24590925591778 L 110.4814805301825 175.24590925591778 13.272534975428414 146.75393123110177" fill="none" stroke="black" stroke-weight="1"></path><path id="SvgjsPath1473" d="M 111.91635501202106 173.9403986113677 L 111.91635501202106 173.9403986113677 14.846026121287423 152.4522455662575" fill="none" stroke="black" stroke-weight="1"></path><path id="SvgjsPath1474" d="M 113.40400157149037 172.3825971213678 L 113.40400157149037 172.3825971213678 16.890769192781562 158.1630388013392" fill="none" stroke="black" stroke-weight="1"></path><path id="SvgjsPath1475" d="M 114.94259802758071 170.57447341132314 L 114.94259802758071 170.57447341132314 19.404180502458075 163.85833947397424" fill="none" stroke="black" stroke-weight="1"></path><path id="SvgjsPath1476" d="M 116.53025979203022 168.51942451236866 L 116.53025979203022 168.51942451236866 22.381635343700196 169.51025200435285" fill="none" stroke="black" stroke-weight="1"></path><path id="SvgjsPath1477" d="M 118.16504217770981 166.22226590949808 L 118.16504217770981 166.22226590949808 25.816481228172762 175.0910933277646" fill="none" stroke="black" stroke-weight="1"></path><path id="SvgjsPath1478" d="M 119.84494278062155 163.68921438609033 L 119.84494278062155 163.68921438609033 29.700060755120347 180.57352848623432" fill="none" stroke="black" stroke-weight="1"></path><path id="SvgjsPath1479" d="M 121.56790393259342 160.92786374098333 L 121.56790393259342 160.92786374098333 34.02174401240397 185.93070451513293" fill="none" stroke="black" stroke-weight="1"></path><path id="SvgjsPath1480" d="M 123.3318152216653 157.94715348948003 L 123.3318152216653 157.94715348948003 38.768970362828384 191.13638196898467" fill="none" stroke="black" stroke-weight="1"></path><path id="SvgjsPath1481" d="M 125.13451607707987 154.75733069436748 L 125.13451607707987 154.75733069436748 43.92729942368048 196.16506344225752" fill="none" stroke="black" stroke-weight="1"></path><path id="SvgjsPath1482" d="M 126.97379841571151 151.36990510702108 L 126.97379841571151 151.36990510702108 49.480471002694614 200.99211845564272" fill="none" stroke="black" stroke-weight="1"></path><path id="SvgjsPath1483" d="M 128.84740934669213 147.7975978317825 L 128.84740934669213 147.7975978317825 55.410473710098685 205.59390409612996" fill="none" stroke="black" stroke-weight="1"></path><path id="SvgjsPath1484" d="M 130.75305393092066 144.05428375888104 L 130.75305393092066 144.05428375888104 61.69762192418982 209.9478808199831" fill="none" stroke="black" stroke-weight="1"></path><path id="SvgjsPath1485" d="M 132.68839799207646 140.15492804205496 L 132.68839799207646 140.15492804205496 68.32064074724745 214.03272285141435" fill="none" stroke="black" stroke-weight="1"></path><path id="SvgjsPath1486" d="M 134.6510709756936 136.11551692657065 L 134.6510709756936 136.11551692657065 75.25675854971182 217.8284226362229" fill="none" stroke="black" stroke-weight="1"></path><path id="SvgjsPath1487" d="M 136.63866885279347 131.95298326138837 L 136.63866885279347 131.95298326138837 82.48180666362929 221.3163888387856" fill="none" stroke="black" stroke-weight="1"></path><path id="SvgjsPath1488" d="M 138.6487570645197 127.68512705564639 L 138.6487570645197 127.68512705564639 89.97032575157063 224.47953740240905" fill="none" stroke="black" stroke-weight="1"></path><path id="SvgjsPath1489" d="M 140.6788735041684 123.33053146429786 L 140.6788735041684 123.33053146429786 97.6956783447374 227.302375227031" fill="none" stroke="black" stroke-weight="1"></path><path id="SvgjsPath1490" d="M 142.7265315329609 118.90847461052016 L 142.7265315329609 118.90847461052016 105.63016701394116 229.77107605441637" fill="none" stroke="black" stroke-weight="1"></path><path id="SvgjsPath1491" d="M 144.7892230258654 114.43883767330868 L 144.7892230258654 114.43883767330868 113.74515760971957 231.87354818916322" fill="none" stroke="black" stroke-weight="1"></path><path id="SvgjsPath1492" d="M 146.86442144373643 109.94200968736496 L 146.86442144373643 109.94200968736496 122.01120698317413 233.5994937238205" fill="none" stroke="black" stroke-weight="1"></path><path id="SvgjsPath1493" d="M 148.94958492800936 105.43878951890198 L 148.94958492800936 105.43878951890198 130.39819457730047 234.9404589780338" fill="none" stroke="black" stroke-weight="1"></path><path id="SvgjsPath1494" d="M 151.04215941415936 100.95028549523343 L 151.04215941415936 100.95028549523343 138.87545725973524 235.8898759046673" fill="none" stroke="black" stroke-weight="1"></path><path id="SvgjsPath1495" d="M 153.13958176011104 96.49781317792099 L 153.13958176011104 96.49781317792099 147.411926752063 236.44309426009522" fill="none" stroke="black" stroke-weight="1"></path><path id="SvgjsPath1496" d="M 155.23928288576687 92.10279177876384 L 155.23928288576687 92.10279177876384 155.97626899818175 236.59740438109293" fill="none" stroke="black" stroke-weight="1"></path><path id="SvgjsPath1497" d="M 157.33869091980927 87.78663972498082 L 157.33869091980927 87.78663972498082 164.5370248047841 236.35205045676594" fill="none" stroke="black" stroke-weight="1"></path><path id="SvgjsPath1498" d="M 159.43523434992113 83.5706698845232 L 159.43523434992113 83.5706698845232 173.06275108081726 235.70823423051135" fill="none" stroke="black" stroke-weight="1"></path><path id="SvgjsPath1499" d="M 161.52634517256698 79.47598496454208 L 161.52634517256698 79.47598496454208 181.5221619998676 234.6691091138792" fill="none" stroke="black" stroke-weight="1"></path><path id="SvgjsPath1500" d="M 163.60946203847615 75.523373595607 L 163.60946203847615 75.523373595607 189.88426940979073 233.23976474116438" fill="none" stroke="black" stroke-weight="1"></path><path id="SvgjsPath1501" d="M 165.6820333899754 71.73320761133493 L 165.6820333899754 71.73320761133493 198.1185218175746 231.42720204038042" fill="none" stroke="black" stroke-weight="1"></path><path id="SvgjsPath1502" d="M 167.74152058632794 68.1253410276532 L 167.74152058632794 68.1253410276532 206.1949412843594 229.24029894271757" fill="none" stroke="black" stroke-weight="1"></path><path id="SvgjsPath1503" d="M 169.78540101325083 64.71901121801442 L 169.78540101325083 64.71901121801442 214.0842575757158 226.68976689844038" fill="none" stroke="black" stroke-weight="1"></path><path id="SvgjsPath1504" d="M 171.8111711728022 61.53274277054203 L 171.8111711728022 61.53274277054203 221.7580389256463 223.78809841220973" fill="none" stroke="black" stroke-weight="1"></path><path id="SvgjsPath1505" d="M 173.81634974985303 58.58425450036388 L 173.81634974985303 58.58425450036388 229.18881878926356 220.54950585480134" fill="none" stroke="black" stroke-weight="1"></path><path id="SvgjsPath1506" d="M 175.79848065138796 55.89037007534827 L 175.79848065138796 55.89037007534827 236.35021797862913 216.9898518509208" fill="none" stroke="black" stroke-weight="1"></path><path id="SvgjsPath1507" d="M 177.75513601491207 53.46693269616718 L 177.75513601491207 53.46693269616718 243.21706159871428 213.12657158407598" fill="none" stroke="black" stroke-weight="1"></path><path id="SvgjsPath1508" d="M 179.68391918227886 51.32872425215744 L 179.68391918227886 51.32872425215744 249.76549022575918 208.9785873990569" fill="none" stroke="black" stroke-weight="1"></path><path id="SvgjsPath1509" d="M 181.58246763529687 49.489389352927844 L 181.58246763529687 49.489389352927844 255.9730647983335 204.5662161203006" fill="none" stroke="black" stroke-weight="1"></path><path id="SvgjsPath1510" d="M 183.44845588951884 47.96136461217421 L 183.44845588951884 47.96136461217421 261.81886472200824 199.91106954009527" fill="none" stroke="black" stroke-weight="1"></path><path id="SvgjsPath1511" d="M 185.27959834266954 46.755813534828874 L 185.27959834266954 46.755813534828874 267.28357872157676 195.03594856403265" fill="none" stroke="black" stroke-weight="1"></path><path id="SvgjsPath1512" d="M 187.07365207422276 45.88256733160971 L 187.07365207422276 45.88256733160971 272.34958801006053 189.964731532184" fill="none" stroke="black" stroke-weight="1"></path><path id="SvgjsPath1513" d="M 188.82841959269828 45.350071956378756 L 188.82841959269828 45.350071956378756 277.0010413811226 184.7222572630024" fill="none" stroke="black" stroke-weight="1"></path><path id="SvgjsPath1514" d="M 190.54175152731435 45.16534163161272 L 190.54175152731435 45.16534163161272 281.2239218708112 179.33420339280272" fill="none" stroke="black" stroke-weight="1"></path><path id="SvgjsPath1515" d="M 192.21154926069806 45.33391909587168 L 192.21154926069806 45.33391909587168 285.00610467556885 173.8269606067118" fill="none" stroke="black" stroke-weight="1"></path><path id="SvgjsPath1516" d="M 193.83576749942915 45.859842774584905 L 193.83576749942915 45.859842774584905 288.3374060559773 168.22750337710616" fill="none" stroke="black" stroke-weight="1"></path><path id="SvgjsPath1517" d="M 195.41241677926877 46.74562104190899 L 195.41241677926877 46.74562104190899 291.2096229995483 162.56325784265997" fill="none" stroke="black" stroke-weight="1"></path><path id="SvgjsPath1518" d="M 196.93956590200435 47.99221370702192 L 196.93956590200435 47.99221370702192 293.6165634608067 156.86196747513165" fill="none" stroke="black" stroke-weight="1"></path><path id="SvgjsPath1519" d="M 198.4153443009259 49.599020823161254 L 198.4153443009259 49.599020823161254 295.5540670427232 151.15155719185336" fill="none" stroke="black" stroke-weight="1"></path><path id="SvgjsPath1520" d="M 199.83794433203641 51.563878882168666 L 199.83794433203641 51.563878882168666 297.0200160300154 145.4599965794999" fill="none" stroke="black" stroke-weight="1"></path></svg></svg>