<svg id="SvgjsSvg1315" width="300" height="500" xmlns="http://www.w3.org/2000/svg" version="1.1" xmlns:xlink="http://www.w3.org/1999/xlink" xmlns:svgjs="http://svgjs.com/svgjs"><defs id="SvgjsDefs1316"></defs><svg id="SvgjsSvg1317" style="overflow: visible;"><path id="SvgjsPath1318" d="M 118.57439606898889 312.2235364826883 L 118.57439606898889 312.2235364826883 110.41291769260573 364.20498398043594" fill="none" stroke="black" stroke-weight="1"></path><path id="SvgjsPath1319" d="M 114.07988346093576 305.3365477571884 L 114.07988346093576 305.3365477571884 115.40201347449324 368.8187457709305" fill="none" stroke="black" stroke-weight="1"></path><path id="SvgjsPath1320" d="M 109.84452809283148 298.38790305511907 L 109.84452809283148 298.38790305511907 120.58506017432404 372.87502340229497" fill="none" stroke="black" stroke-weight="1"></path><path id="SvgjsPath1321" d="M 105.8809673518389 291.38611359733335 L 105.8809673518389 291.38611359733335 125.93667123198779 376.3539492287457" fill="none" stroke="black" stroke-weight="1"></path><path id="SvgjsPath1322" d="M 102.20044536814814 284.3397557003644 L 102.20044536814814 284.3397557003644 131.43063445923497 379.238483473347" fill="none" stroke="black" stroke-weight="1"></path><path id="SvgjsPath1323" d="M 98.81276794771182 277.2574602715103 L 98.81276794771182 277.2574602715103 137.04004042696153 381.5144976888299" fill="none" stroke="black" stroke-weight="1"></path><path id="SvgjsPath1324" d="M 95.72626461358581 270.1479022370517 L 95.72626461358581 270.1479022370517 142.73741426757897 383.17084395872007" fill="none" stroke="black" stroke-weight="1"></path><path id="SvgjsPath1325" d="M 92.94775792946211 263.0197899165521 L 92.94775792946211 263.0197899165521 148.4948502469022 384.1994094998265" fill="none" stroke="black" stroke-weight="1"></path><path id="SvgjsPath1326" d="M 90.48254024325021 255.88185435625522 L 90.48254024325021 255.88185435625522 154.28414844642074 384.5951563986499" fill="none" stroke="black" stroke-weight="1"></path><path id="SvgjsPath1327" d="M 88.33435795217062 248.74283863464515 L 88.33435795217062 248.74283863464515 160.0769528864862 384.3561462870804" fill="none" stroke="black" stroke-weight="1"></path><path id="SvgjsPath1328" d="M 86.50540335395306 241.61148715326848 L 86.50540335395306 241.61148715326848 165.8448904138854 383.48354983652325" fill="none" stroke="black" stroke-weight="1"></path><path id="SvgjsPath1329" d="M 84.99631411155693 234.49653492593603 L 84.99631411155693 234.49653492593603 171.55970967353096 381.9816410239514" fill="none" stroke="black" stroke-weight="1"></path><path id="SvgjsPath1330" d="M 83.80618032153866 227.40669687942298 L 83.80618032153866 227.40669687942298 177.19341948358405 379.85777619796784" fill="none" stroke="black" stroke-weight="1"></path><path id="SvgjsPath1331" d="M 82.93255913896195 220.35065717877353 L 82.93255913896195 220.35065717877353 182.71842593624876 377.1223580474146" fill="none" stroke="black" stroke-weight="1"></path><path id="SvgjsPath1332" d="M 82.3714968747632 213.33705859028444 L 82.3714968747632 213.33705859028444 188.10766755271882 373.78878464900725" fill="none" stroke="black" stroke-weight="1"></path><path id="SvgjsPath1333" d="M 82.11755844492846 206.37449189519737 L 82.11755844492846 206.37449189519737 193.33474783028666 369.8733838435626" fill="none" stroke="black" stroke-weight="1"></path><path id="SvgjsPath1334" d="M 82.16386401488799 199.47148536706592 L 82.16386401488799 199.47148536706592 198.3740645324005 365.3953332622424" fill="none" stroke="black" stroke-weight="1"></path><path id="SvgjsPath1335" d="M 82.50213264736723 192.63649432568693 L 82.50213264736723 192.63649432568693 203.20093508840623 360.37656639452547" fill="none" stroke="black" stroke-weight="1"></path><path id="SvgjsPath1336" d="M 83.12273272771866 185.87789078039106 L 83.12273272771866 185.87789078039106 207.79171748876556 354.84166515798756" fill="none" stroke="black" stroke-weight="1"></path><path id="SvgjsPath1337" d="M 84.01473890766763 179.20395317537836 L 84.01473890766763 179.20395317537836 212.12392608360705 348.8177394960816" fill="none" stroke="black" stroke-weight="1"></path><path id="SvgjsPath1338" d="M 85.16599527659719 172.62285624965938 L 85.16599527659719 172.62285624965938 216.1763417174277 342.334294593648" fill="none" stroke="black" stroke-weight="1"></path><path id="SvgjsPath1339" d="M 86.56318443912772 166.14266102402172 L 86.56318443912772 166.14266102402172 219.92911566050574 335.42308636053485" fill="none" stroke="black" stroke-weight="1"></path><path id="SvgjsPath1340" d="M 88.19190214896695 159.77130492728796 L 88.19190214896695 159.77130492728796 223.36386682796913 328.1179658911667" fill="none" stroke="black" stroke-weight="1"></path><path id="SvgjsPath1341" d="M 90.03673712195315 153.51659207395784 L 90.03673712195315 153.51659207395784 226.46377181033944 320.4547136619022" fill="none" stroke="black" stroke-weight="1"></path><path id="SvgjsPath1342" d="M 92.08135562602408 147.3861837051438 L 92.08135562602408 147.3861837051438 229.21364727458334 312.4708642782785" fill="none" stroke="black" stroke-weight="1"></path><path id="SvgjsPath1343" d="M 94.30859042263664 141.38758880450843 L 94.30859042263664 141.38758880450843 231.60002433206995 304.2055226305321" fill="none" stroke="black" stroke-weight="1"></path><path id="SvgjsPath1344" d="M 96.70053361305332 135.52815490069895 L 96.70053361305332 135.52815490069895 233.6112145091805 295.6991723578668" fill="none" stroke="black" stroke-weight="1"></path><path id="SvgjsPath1345" d="M 99.23863292400316 129.81505906754307 L 99.23863292400316 129.81505906754307 235.23736699744634 286.9934775596093" fill="none" stroke="black" stroke-weight="1"></path><path id="SvgjsPath1346" d="M 101.90379095060946 124.25529913303097 L 101.90379095060946 124.25529913303097 236.47051690280364 278.13107872447137" fill="none" stroke="black" stroke-weight="1"></path><path id="SvgjsPath1347" d="M 104.6764668602354 118.85568510785137 L 104.6764668602354 118.85568510785137 237.30462425764065 269.15538387745835" fill="none" stroke="black" stroke-weight="1"></path><path id="SvgjsPath1348" d="M 107.5367800491015 113.62283084397961 L 107.5367800491015 113.62283084397961 237.73560360455588 260.11035596738407" fill="none" stroke="black" stroke-weight="1"></path><path id="SvgjsPath1349" d="M 110.46461523423234 108.56314593353625 L 110.46461523423234 108.56314593353625 237.7613440069265 251.04029753637013" fill="none" stroke="black" stroke-weight="1"></path><path id="SvgjsPath1350" d="M 113.43972845654008 103.68282785783842 L 113.43972845654008 103.68282785783842 237.3817193882747 241.98963372601722" fill="none" stroke="black" stroke-weight="1"></path><path id="SvgjsPath1351" d="M 116.44185346668175 98.98785439625976 L 116.44185346668175 98.98785439625976 236.59858914979037 233.002694683084" fill="none" stroke="black" stroke-weight="1"></path><path id="SvgjsPath1352" d="M 119.45080796375578 94.4839763041985 L 119.45080796375578 94.4839763041985 235.41578906298486 224.12349843044987" fill="none" stroke="black" stroke-weight="1"></path><path id="SvgjsPath1353" d="M 122.44659915793656 90.17671026912103 L 122.44659915793656 90.17671026912103 233.8391124820842 215.39553526686262" fill="none" stroke="black" stroke-weight="1"></path><path id="SvgjsPath1354" d="M 125.40952813178376 86.07133215330967 L 125.40952813178376 86.07133215330967 231.87628196818292 206.86155475147626" fill="none" stroke="black" stroke-weight="1"></path><path id="SvgjsPath1355" d="M 128.3202924811805 82.17287053159137 L 128.3202924811805 82.17287053159137 229.5369114641439 198.56335631653224" fill="none" stroke="black" stroke-weight="1"></path><path id="SvgjsPath1356" d="M 131.16008672562472 78.48610053196168 L 131.16008672562472 78.48610053196168 226.83245920551093 190.54158453376152" fill="none" stroke="black" stroke-weight="1"></path><path id="SvgjsPath1357" d="M 133.91069998887826 75.0155379866508 L 133.91069998887826 75.0155379866508 223.7761715980767 182.83553003729224" fill="none" stroke="black" stroke-weight="1"></path><path id="SvgjsPath1358" d="M 136.55461046470907 71.76543390079331 L 136.55461046470907 71.76543390079331 220.38301833699427 175.48293707814472" fill="none" stroke="black" stroke-weight="1"></path><path id="SvgjsPath1359" d="M 139.07507619858023 68.73976924547881 L 139.07507619858023 68.73976924547881 216.6696190852177 168.51981865290855" fill="none" stroke="black" stroke-weight="1"></path><path id="SvgjsPath1360" d="M 141.45622173456167 65.94225008155979 L 141.45622173456167 65.94225008155979 212.65416207040096 161.9802801121029" fill="none" stroke="black" stroke-weight="1"></path><path id="SvgjsPath1361" d="M 143.68312019737823 63.376303020190676 L 143.68312019737823 63.376303020190676 208.35631499896863 155.8963521121882" fill="none" stroke="black" stroke-weight="1"></path><path id="SvgjsPath1362" d="M 145.7418704022606 61.04507102565779 L 145.7418704022606 61.04507102565779 203.79712872369947 150.29783372942615" fill="none" stroke="black" stroke-weight="1"></path><path id="SvgjsPath1363" d="M 147.61966861001733 58.95140956564089 L 147.61966861001733 58.95140956564089 198.99893413666027 145.21214650401953" fill="none" stroke="black" stroke-weight="1"></path><path id="SvgjsPath1364" d="M 149.3048745713807 57.097883113622515 L 149.3048745713807 57.097883113622515 193.9852327925079 140.66420012942228" fill="none" stroke="black" stroke-weight="1"></path><path id="SvgjsPath1365" d="M 150.7870715330595 55.4867620077284 L 150.7870715330595 55.4867620077284 188.78058179788604 136.67627044467315" fill="none" stroke="black" stroke-weight="1"></path><path id="SvgjsPath1366" d="M 152.05711990792457 54.12001966984755 L 152.05711990792457 54.12001966984755 183.41047353072997 133.26789032734808" fill="none" stroke="black" stroke-weight="1"></path><path id="SvgjsPath1367" d="M 153.10720434320646 52.99933018843677 L 153.10720434320646 52.99933018843677 177.90121077861212 130.4557540215352" fill="none" stroke="black" stroke-weight="1"></path><path id="SvgjsPath1368" d="M 153.93087395334385 52.12606626797208 L 153.93087395334385 52.12606626797208 172.27977790770132 128.25363536943576" fill="none" stroke="black" stroke-weight="1"></path><path id="SvgjsPath1369" d="M 154.52307551803077 51.50129754755693 L 154.52307551803077 51.50129754755693 166.57370869335182 126.67232034709227" fill="none" stroke="black" stroke-weight="1"></path><path id="SvgjsPath1370" d="M 154.88017948089615 51.1257892907484 L 154.88017948089615 51.1257892907484 160.81095145968504 125.71955423468316" fill="none" stroke="black" stroke-weight="1"></path><path id="SvgjsPath1371" d="M 154.99999861994587 51.00000144820498 L 154.99999861994587 51.00000144820498 155.0197321887123 125.40000368014438" fill="none" stroke="black" stroke-weight="1"></path><path id="SvgjsPath1372" d="M 154.88179929722568 51.12408809430434 L 154.88179929722568 51.12408809430434 149.22841626948943 125.71523384193023" fill="none" stroke="black" stroke-weight="1"></path><path id="SvgjsPath1373" d="M 154.52630523194705 51.49789723842164 L 154.52630523194705 51.49789723842164 143.4653695644548 126.6637007228679" fill="none" stroke="black" stroke-weight="1"></path><path id="SvgjsPath1374" d="M 153.93569377837457 52.12097101109916 L 153.93569377837457 52.12097101109916 137.75881947345047 128.24075873265502" fill="none" stroke="black" stroke-weight="1"></path><path id="SvgjsPath1375" d="M 153.11358472692336 52.99254622487871 L 153.11358472692336 52.99254622487871 132.13671667593167 130.43868344195852" fill="none" stroke="black" stroke-weight="1"></path><path id="SvgjsPath1376" d="M 152.06502168397313 54.11155530911134 L 152.06502168397313 54.11155530911134 126.62659822855238 133.24670941666565" fill="none" stroke="black" stroke-weight="1"></path><path id="SvgjsPath1377" d="M 150.79644612269067 55.476627617597586 L 150.79644612269067 55.476627617597586 121.25545268867685 136.65108294697473" fill="none" stroke="black" stroke-weight="1"></path><path id="SvgjsPath1378" d="M 149.31566423348653 57.08609110745766 L 149.31566423348653 57.08609110745766 116.04958792443858 140.6351294130588" fill="none" stroke="black" stroke-weight="1"></path><path id="SvgjsPath1379" d="M 147.63180673843007 58.937974387175075 L 147.63180673843007 58.937974387175075 111.0345022588157 145.17933495734513" fill="none" stroke="black" stroke-weight="1"></path><path id="SvgjsPath1380" d="M 145.7552818688421 61.03000913130455 L 145.7552818688421 61.03000913130455 106.23475957885806 150.26144206337977" fill="none" stroke="black" stroke-weight="1"></path><path id="SvgjsPath1381" d="M 143.6977217391983 63.35963285888718 L 143.6977217391983 63.35963285888718 101.67386902178066 155.85655857313168" fill="none" stroke="black" stroke-weight="1"></path><path id="SvgjsPath1382" d="M 141.47192238324493 65.92399207216909 L 141.47192238324493 65.92399207216909 97.37416982722176 161.93727960877035" fill="none" stroke="black" stroke-weight="1"></path><path id="SvgjsPath1383" d="M 139.09177774969336 68.71994575177928 L 139.09177774969336 68.71994575177928 93.35672191965823 168.47382180174353" fill="none" stroke="black" stroke-weight="1"></path><path id="SvgjsPath1384" d="M 136.57220798485903 71.74406920408589 L 136.57220798485903 71.74406920408589 89.64120275690625 175.43416917170111" fill="none" stroke="black" stroke-weight="1"></path><path id="SvgjsPath1385" d="M 133.92908235800644 74.99265825601734 L 133.92908235800644 74.99265825601734 86.24581094994285 182.78422994075095" fill="none" stroke="black" stroke-weight="1"></path><path id="SvgjsPath1386" d="M 131.17913721180582 78.46173379221119 L 131.17913721180582 78.46173379221119 83.18717712611857 190.48800351496942" fill="none" stroke="black" stroke-weight="1"></path><path id="SvgjsPath1387" d="M 128.33988934507363 82.14704662893303 L 128.33988934507363 82.14704662893303 80.48028247235312 198.50775681529242" fill="none" stroke="black" stroke-weight="1"></path><path id="SvgjsPath1388" d="M 125.42954525773496 86.04408271879512 L 125.42954525773496 86.04408271879512 78.13838535728944 206.80420909411745" fill="none" stroke="black" stroke-weight="1"></path><path id="SvgjsPath1389" d="M 122.46690670859894 90.14806867989998 L 122.46690670859894 90.14806867989998 76.17295639181081 215.3367243323855" fill="none" stroke="black" stroke-weight="1"></path><path id="SvgjsPath1390" d="M 119.4712730549759 94.45397764263626 L 119.4712730549759 94.45397764263626 74.59362224599454 224.06351027478172" fill="none" stroke="black" stroke-weight="1"></path><path id="SvgjsPath1391" d="M 116.46234085929854 98.95653540696554 L 116.46234085929854 98.95653540696554 73.4081184976868 232.94182312818089" fill="none" stroke="black" stroke-weight="1"></path><path id="SvgjsPath1392" d="M 113.4601012616584 103.65022690265772 L 113.4601012616584 103.65022690265772 72.62225174364627 241.92817692072447" fill="none" stroke="black" stroke-weight="1"></path><path id="SvgjsPath1393" d="M 110.48473562846368 108.52930294456252 L 110.48473562846368 108.52930294456252 72.23987115883617 250.9785564960887" fill="none" stroke="black" stroke-weight="1"></path><path id="SvgjsPath1394" d="M 107.5565099962138 113.58778727464232 L 107.5565099962138 113.58778727464232 72.2628496431672 260.04863309969795" fill="none" stroke="black" stroke-weight="1"></path><path id="SvgjsPath1395" d="M 104.69566883562061 118.81948388214099 L 104.69566883562061 118.81948388214099 72.69107464803473 269.09398150094233" fill="none" stroke="black" stroke-weight="1"></path><path id="SvgjsPath1396" d="M 101.9223286649609 124.21798459292208 L 101.9223286649609 124.21798459292208 73.52244872758185 278.07029758793453" fill="none" stroke="black" stroke-weight="1"></path><path id="SvgjsPath1397" d="M 99.25637204259672 129.77667691868118 L 99.25637204259672 129.77667691868118 74.75289981198807 286.9336153690275" fill="none" stroke="black" stroke-weight="1"></path><path id="SvgjsPath1398" d="M 96.71734246704632 135.4887521564169 L 96.71734246704632 135.4887521564169 76.37640115246529 295.64052231821927" fill="none" stroke="black" stroke-weight="1"></path><path id="SvgjsPath1399" d="M 94.32434070883485 141.34721372824072 L 94.32434070883485 141.34721372824072 78.38500084027022 304.14837200968316" fill="none" stroke="black" stroke-weight="1"></path><path id="SvgjsPath1400" d="M 92.09592309162248 147.34488575131007 L 92.09592309162248 147.34488575131007 80.76886075514949 312.4154929999402" fill="none" stroke="black" stroke-weight="1"></path><path id="SvgjsPath1401" d="M 90.05000223082735 153.47442182738746 L 90.05000223082735 153.47442182738746 83.51630475244758 320.4013929345679" fill="none" stroke="black" stroke-weight="1"></path><path id="SvgjsPath1402" d="M 88.2037507261813 159.7283140412597 L 88.2037507261813 159.7283140412597 86.61387585285746 328.0669568797318" fill="none" stroke="black" stroke-weight="1"></path><path id="SvgjsPath1403" d="M 86.57350829043092 166.098902156995 L 86.57350829043092 166.098902156995 90.04640215469844 335.37463890711143" fill="none" stroke="black" stroke-weight="1"></path><path id="SvgjsPath1404" d="M 85.17469277979731 172.57838300077444 L 85.17469277979731 172.57838300077444 93.79707114588285 342.28864599383854" fill="none" stroke="black" stroke-weight="1"></path><path id="SvgjsPath1405" d="M 84.02171557291476 179.15882001880385 L 84.02171557291476 179.15882001880385 97.84751205159185 348.77511333670475" fill="none" stroke="black" stroke-weight="1"></path><path id="SvgjsPath1406" d="M 83.12790172387423 185.83215299859995 L 83.12790172387423 185.83215299859995 102.17788581432102 354.8022702219503" fill="none" stroke="black" stroke-weight="1"></path><path id="SvgjsPath1407" d="M 82.50541529180418 192.59020794174262 L 82.50541529180418 192.59020794174262 106.76698226557413 360.3405956382046" fill="none" stroke="black" stroke-weight="1"></path><path id="SvgjsPath1408" d="M 82.16519022424346 199.42470707600077 L 82.16519022424346 199.42470707600077 111.59232401325758 365.3629628703842" fill="none" stroke="black" stroke-weight="1"></path><path id="SvgjsPath1409" d="M 82.11686714452146 206.32727899456845 L 82.11686714452146 206.32727899456845 116.63027653593554 369.84477236632995" fill="none" stroke="black" stroke-weight="1"></path><path id="SvgjsPath1410" d="M 82.36873636459073 213.28946890999117 L 82.36873636459073 213.28946890999117 121.85616394470395 373.76407222540115" fill="none" stroke="black" stroke-weight="1"></path><path id="SvgjsPath1411" d="M 82.92768741439897 220.3027490102233 L 82.92768741439897 220.3027490102233 127.24438984568191 377.10166571887333" fill="none" stroke="black" stroke-weight="1"></path><path id="SvgjsPath1412" d="M 83.7991653470887 227.35852890413156 L 83.7991653470887 227.35852890413156 132.76856271113584 379.84120531550616" fill="none" stroke="black" stroke-weight="1"></path><path id="SvgjsPath1413" d="M 84.98713404622897 234.44816614364984 L 84.98713404622897 234.44816614364984 138.4016251451691 381.9692727517431" fill="none" stroke="black" stroke-weight="1"></path><path id="SvgjsPath1414" d="M 86.4940467270771 241.56297680969746 L 86.4940467270771 241.56297680969746 144.11598641083327 383.4754447543595" fill="none" stroke="black" stroke-weight="1"></path><path id="SvgjsPath1415" d="M 88.32082378870636 248.69424614889408 L 88.32082378870636 248.69424614889408 149.88365756954377 384.3523440936494" fill="none" stroke="black" stroke-weight="1"></path><path id="SvgjsPath1416" d="M 90.46683813789053 255.83323924804284 L 90.46683813789053 255.83323924804284 155.67638857088693 384.5956757170932" fill="none" stroke="black" stroke-weight="1"></path><path id="SvgjsPath1417" d="M 92.92990806908321 262.9712117333068 L 92.92990806908321 262.9712117333068 161.4658066213525 384.2042477865226" fill="none" stroke="black" stroke-weight="1"></path></svg></svg>