<svg id="SvgjsSvg1526" width="300" height="500" xmlns="http://www.w3.org/2000/svg" version="1.1" xmlns:xlink="http://www.w3.org/1999/xlink" xmlns:svgjs="http://svgjs.com/svgjs"><defs id="SvgjsDefs1527"></defs><svg id="SvgjsSvg1528" style="overflow: visible;"><path id="SvgjsPath1529" d="M 223.69718979615692 389.55549922103205 L 223.69718979615692 389.55549922103205 56.6840567838921 202.54575354976862" fill="none" stroke="black" stroke-weight="1"></path><path id="SvgjsPath1530" d="M 227.0218769925397 390.81303317990046 L 227.0218769925397 390.81303317990046 57.0429172997714 199.5996935628586" fill="none" stroke="black" stroke-weight="1"></path><path id="SvgjsPath1531" d="M 230.21462502600843 391.9856884139366 L 230.21462502600843 391.9856884139366 57.6466195073388 196.68825696411395" fill="none" stroke="black" stroke-weight="1"></path><path id="SvgjsPath1532" d="M 233.26998031985426 393.07273205179064 L 233.26998031985426 393.07273205179064 58.49365446547738 193.81326330663757" fill="none" stroke="black" stroke-weight="1"></path><path id="SvgjsPath1533" d="M 236.1828010814042 394.0734847265737 L 236.1828010814042 394.0734847265737 59.58190502791912 190.97650936788023" fill="none" stroke="black" stroke-weight="1"></path><path id="SvgjsPath1534" d="M 238.94826859452894 394.98732100044015 L 238.94826859452894 394.98732100044015 60.9086511350078 188.17976802671342" fill="none" stroke="black" stroke-weight="1"></path><path id="SvgjsPath1535" d="M 241.56189772536675 395.8136697554652 L 241.56189772536675 395.8136697554652 62.470576612431714 185.4247871554375" fill="none" stroke="black" stroke-weight="1"></path><path id="SvgjsPath1536" d="M 244.01954661596716 396.5520145505759 L 244.01954661596716 396.5520145505759 64.26377745993243 182.71328852741846" fill="none" stroke="black" stroke-weight="1"></path><path id="SvgjsPath1537" d="M 246.31742554257312 397.2018939443095 L 246.31742554257312 397.2018939443095 66.28377160927208 180.04696674103576" fill="none" stroke="black" stroke-weight="1"></path><path id="SvgjsPath1538" d="M 248.45210491733428 397.7629017831994 L 248.45210491733428 397.7629017831994 68.52551012706998 177.42748816061334" fill="none" stroke="black" stroke-weight="1"></path><path id="SvgjsPath1539" d="M 250.42052241437028 398.23468745560785 L 250.42052241437028 398.23468745560785 70.98338983450644 174.85648987499627" fill="none" stroke="black" stroke-weight="1"></path><path id="SvgjsPath1540" d="M 252.21998920327655 398.6169561108469 L 252.21998920327655 398.6169561108469 73.65126731235189 172.3355786744235" fill="none" stroke="black" stroke-weight="1"></path><path id="SvgjsPath1541" d="M 253.8481952753802 398.9094688434504 L 253.8481952753802 398.9094688434504 76.52247425631546 169.86633004633612" fill="none" stroke="black" stroke-weight="1"></path><path id="SvgjsPath1542" d="M 255.30321385030396 399.11204284248214 L 255.30321385030396 399.11204284248214 79.58983414433291 167.45028719074918" fill="none" stroke="black" stroke-weight="1"></path><path id="SvgjsPath1543" d="M 256.58350485267937 399.22455150578685 L 256.58350485267937 399.22455150578685 82.84568017413439 165.08896005580183" fill="none" stroke="black" stroke-weight="1"></path><path id="SvgjsPath1544" d="M 257.6879174511553 399.2469245191122 L 257.6879174511553 399.2469245191122 86.28187442625713 162.78382439408895" fill="none" stroke="black" stroke-weight="1"></path><path id="SvgjsPath1545" d="M 258.6156916541754 399.1791479000533 L 258.6156916541754 399.1791479000533 89.88982820460623 160.53632084036366" fill="none" stroke="black" stroke-weight="1"></path><path id="SvgjsPath1546" d="M 259.3664589593362 399.0212640067906 L 259.3664589593362 399.0212640067906 93.66052350372193 158.34785401118762" fill="none" stroke="black" stroke-weight="1"></path><path id="SvgjsPath1547" d="M 259.94024205548294 398.7733715116183 L 259.94024205548294 398.7733715116183 97.58453554909643 156.21979162709147" fill="none" stroke="black" stroke-weight="1"></path><path id="SvgjsPath1548" d="M 260.33745357905127 398.4356253392764 L 260.33745357905127 398.4356253392764 101.65205635420233 154.15346365779376" fill="none" stroke="black" stroke-weight="1"></path><path id="SvgjsPath1549" d="M 260.55889392850423 398.00823657012864 L 260.55889392850423 398.00823657012864 105.85291923535075 152.1501614910135" fill="none" stroke="black" stroke-weight="1"></path><path id="SvgjsPath1550" d="M 260.60574814304823 397.4914723082436 L 260.60574814304823 397.4914723082436 110.17662422310593 150.2111371253946" fill="none" stroke="black" stroke-weight="1"></path><path id="SvgjsPath1551" d="M 260.4795818541311 396.88565551446356 L 260.4795818541311 396.88565551446356 114.61236430674057 148.33760238804751" fill="none" stroke="black" stroke-weight="1"></path><path id="SvgjsPath1552" d="M 260.1823363205192 396.1911648045645 L 260.1823363205192 396.1911648045645 119.14905244613422 146.53072817719706" fill="none" stroke="black" stroke-weight="1"></path><path id="SvgjsPath1553" d="M 259.7163225600219 395.4084342126333 L 259.7163225600219 395.4084342126333 123.77534928359998 144.79164373040862" fill="none" stroke="black" stroke-weight="1"></path><path id="SvgjsPath1554" d="M 259.0842145931644 394.5379529198111 L 259.0842145931644 394.5379529198111 128.47969148637307 143.1214359188518" fill="none" stroke="black" stroke-weight="1"></path><path id="SvgjsPath1555" d="M 258.28904181631043 393.58026494857046 L 258.28904181631043 393.58026494857046 133.25032064892036 141.52114856804127" fill="none" stroke="black" stroke-weight="1"></path><path id="SvgjsPath1556" d="M 257.3341805238864 392.53596882271927 L 257.3341805238864 392.53596882271927 138.07531268283154 139.9917818054796" fill="none" stroke="black" stroke-weight="1"></path><path id="SvgjsPath1557" d="M 256.22334460146345 391.405717193343 L 256.22334460146345 391.405717193343 142.94260762082874 138.5342914356104" fill="none" stroke="black" stroke-weight="1"></path><path id="SvgjsPath1558" d="M 254.96057541350243 390.19021643091855 L 254.96057541350243 390.19021643091855 147.84003976040532 137.1495883424715" fill="none" stroke="black" stroke-weight="1"></path><path id="SvgjsPath1559" d="M 253.55023091155527 388.8902261838564 L 253.55023091155527 388.8902261838564 152.75536807174578 135.83853792042203" fill="none" stroke="black" stroke-weight="1"></path><path id="SvgjsPath1560" d="M 251.99697399064104 387.5065589037443 L 251.99697399064104 387.5065589037443 157.67630679392505 134.6019595332993" fill="none" stroke="black" stroke-weight="1"></path><path id="SvgjsPath1561" d="M 250.3057601233686 386.04007933759203 L 250.3057601233686 386.04007933759203 162.59055614291316 133.4406260023428" fill="none" stroke="black" stroke-weight="1"></path><path id="SvgjsPath1562" d="M 248.48182430315882 384.4917039873925 L 248.48182430315882 384.4917039873925 167.48583305462927 132.35526312320644" fill="none" stroke="black" stroke-weight="1"></path><path id="SvgjsPath1563" d="M 246.53066732962037 382.86240053733775 L 246.53066732962037 382.86240053733775 172.3499018862048 131.3465492123596" fill="none" stroke="black" stroke-weight="1"></path><path id="SvgjsPath1564" d="M 244.4580414707524 381.15318724904796 L 244.4580414707524 381.15318724904796 177.17060499871926 130.41511468316136" fill="none" stroke="black" stroke-weight="1"></path><path id="SvgjsPath1565" d="M 242.26993553817908 379.3651323251911 L 242.26993553817908 379.3651323251911 181.93589314496467 129.56154165187314" fill="none" stroke="black" stroke-weight="1"></path><path id="SvgjsPath1566" d="M 239.97255941306162 377.49935324189073 L 239.97255941306162 377.49935324189073 186.63385558628966 128.78636357385437" fill="none" stroke="black" stroke-weight="1"></path><path id="SvgjsPath1567" d="M 237.57232806168122 375.55701605034034 L 237.57232806168122 375.55701605034034 191.2527498632425 128.09006491017072" fill="none" stroke="black" stroke-weight="1"></path><path id="SvgjsPath1568" d="M 235.07584508093453 373.5393346480587 L 235.07584508093453 373.5393346480587 195.78103114560435 127.47308082482155" fill="none" stroke="black" stroke-weight="1"></path><path id="SvgjsPath1569" d="M 232.48988581513234 371.4475700202439 L 232.48988581513234 371.4475700202439 200.20738108845262 126.9357969127764" fill="none" stroke="black" stroke-weight="1"></path><path id="SvgjsPath1570" d="M 229.8213800865367 369.28302945169855 L 229.8213800865367 369.28302945169855 204.5207361221287 126.47854895899104" fill="none" stroke="black" stroke-weight="1"></path><path id="SvgjsPath1571" d="M 227.07739458301006 367.0470657098191 L 227.07739458301006 367.0470657098191 208.7103151054003 126.10162272855248" fill="none" stroke="black" stroke-weight="1"></path><path id="SvgjsPath1572" d="M 224.2651149469805 364.7410761991604 L 224.2651149469805 364.7410761991604 212.76564627269977 125.80525378808525" fill="none" stroke="black" stroke-weight="1"></path><path id="SvgjsPath1573" d="M 221.39182761064635 362.36650208810346 L 221.39182761064635 362.36650208810346 216.6765934080845 125.58962735852995" fill="none" stroke="black" stroke-weight="1"></path><path id="SvgjsPath1574" d="M 218.46490142294996 359.924827408172 L 218.46490142294996 359.924827408172 220.43338118049795 125.45487819938606" fill="none" stroke="black" stroke-weight="1"></path><path id="SvgjsPath1575" d="M 215.4917691143449 357.417578126561 L 215.4917691143449 357.417578126561 224.02661957700633 125.40109052449185" fill="none" stroke="black" stroke-weight="1"></path><path id="SvgjsPath1576" d="M 212.47990864575735 354.84632119245697 L 212.47990864575735 354.84632119245697 227.44732737294072 125.4282979493932" fill="none" stroke="black" stroke-weight="1"></path><path id="SvgjsPath1577" d="M 209.4368244884057 352.2126635577457 L 209.4368244884057 352.2126635577457 230.6869545802815 125.53648347033518" fill="none" stroke="black" stroke-weight="1"></path><path id="SvgjsPath1578" d="M 206.3700288812871 349.51825117271966 L 206.3700288812871 349.51825117271966 233.73740381817555 125.72557947488889" fill="none" stroke="black" stroke-weight="1"></path><path id="SvgjsPath1579" d="M 203.28702311316837 346.7647679574126 L 203.28702311316837 346.7647679574126 236.5910505521714 125.99546778420668" fill="none" stroke="black" stroke-weight="1"></path><path id="SvgjsPath1580" d="M 200.19527887582973 343.9539347492042 L 200.19527887582973 343.9539347492042 239.2407621515845 126.34597972688059" fill="none" stroke="black" stroke-weight="1"></path><path id="SvgjsPath1581" d="M 197.10221973510454 341.08750822735317 L 197.10221973510454 341.08750822735317 241.6799157173595 126.77689624435604" fill="none" stroke="black" stroke-weight="1"></path><path id="SvgjsPath1582" d="M 194.0152027659364 338.1672798151294 L 194.0152027659364 338.1672798151294 243.90241463586852 127.28794802783656" fill="none" stroke="black" stroke-weight="1"></path><path id="SvgjsPath1583" d="M 190.94150039723732 335.19507456023297 L 190.94150039723732 335.19507456023297 245.90270381727044 127.87881568659293" fill="none" stroke="black" stroke-weight="1"></path><path id="SvgjsPath1584" d="M 187.8882825117796 332.1727499941988 L 187.8882825117796 332.1727499941988 247.67578358034214 128.54912994757203" fill="none" stroke="black" stroke-weight="1"></path><path id="SvgjsPath1585" d="M 184.86259884568892 329.1021949714997 L 184.86259884568892 329.1021949714997 249.21722214907808 129.29847188618035" fill="none" stroke="black" stroke-weight="1"></path><path id="SvgjsPath1586" d="M 181.87136173133058 325.985328489074 L 181.87136173133058 325.985328489074 250.52316672982207 130.12637318809846" fill="none" stroke="black" stroke-weight="1"></path><path id="SvgjsPath1587" d="M 178.9213292264956 322.8240984870148 L 178.9213292264956 322.8240984870148 251.59035314124506 131.032316441962" fill="none" stroke="black" stroke-weight="1"></path><path id="SvgjsPath1588" d="M 176.01908867180032 319.62048063117095 L 176.01908867180032 319.62048063117095 252.41611397309845 132.01573546272698" fill="none" stroke="black" stroke-weight="1"></path><path id="SvgjsPath1589" d="M 173.17104071711793 316.37647707842007 L 173.17104071711793 316.37647707842007 252.99838525335048 133.07601564551715" fill="none" stroke="black" stroke-weight="1"></path><path id="SvgjsPath1590" d="M 170.38338385665912 313.09411522538574 L 170.38338385665912 313.09411522538574 253.33571160704162 134.21249434973186" fill="none" stroke="black" stroke-weight="1"></path><path id="SvgjsPath1591" d="M 167.662099511024 309.77544644138055 L 167.662099511024 309.77544644138055 253.42724989396373 135.42446131317493" fill="none" stroke="black" stroke-weight="1"></path><path id="SvgjsPath1592" d="M 165.01293769315197 306.4225447863673 L 165.01293769315197 306.4225447863673 253.27277131607178 136.71115909594548" fill="none" stroke="black" stroke-weight="1"></path><path id="SvgjsPath1593" d="M 162.44140329361275 303.0375057147387 L 162.44140329361275 303.0375057147387 252.87266198935959 138.07178355381308" fill="none" stroke="black" stroke-weight="1"></path><path id="SvgjsPath1594" d="M 159.95274301910683 299.6224447657267 L 159.95274301910683 299.6224447657267 252.227921978771 139.50548434078178" fill="none" stroke="black" stroke-weight="1"></path><path id="SvgjsPath1595" d="M 157.55193301638667 296.17949624125936 L 157.55193301638667 296.17949624125936 251.34016279855848 141.01136544052872" fill="none" stroke="black" stroke-weight="1"></path><path id="SvgjsPath1596" d="M 155.24366721207062 292.7108118720917 L 155.24366721207062 292.7108118720917 250.2116033843364 142.5884857263851" fill="none" stroke="black" stroke-weight="1"></path><path id="SvgjsPath1597" d="M 153.03234639700847 289.2185594730439 L 153.03234639700847 289.2185594730439 248.84506454689796 144.23585954950977" fill="none" stroke="black" stroke-weight="1"></path><path id="SvgjsPath1598" d="M 150.9220680819714 285.7049215881877 L 150.9220680819714 285.7049215881877 247.24396192165713 145.95245735488754" fill="none" stroke="black" stroke-weight="1"></path><path id="SvgjsPath1599" d="M 148.9166171494872 282.1720941268272 L 148.9166171494872 282.1720941268272 245.41229743133886 147.73720632476778" fill="none" stroke="black" stroke-weight="1"></path><path id="SvgjsPath1600" d="M 147.01945732462795 278.62228499112723 L 147.01945732462795 278.62228499112723 243.35464928325655 149.58899104914036" fill="none" stroke="black" stroke-weight="1"></path><path id="SvgjsPath1601" d="M 145.23372348548713 275.05771269624637 L 145.23372348548713 275.05771269624637 241.0761605261779 151.50665422283078" fill="none" stroke="black" stroke-weight="1"></path><path id="SvgjsPath1602" d="M 143.56221483196035 271.48060498383717 L 143.56221483196035 271.48060498383717 238.5825261953816 153.48899736877812" fill="none" stroke="black" stroke-weight="1"></path><path id="SvgjsPath1603" d="M 142.00738892927728 267.89319742977983 L 142.00738892927728 267.89319742977983 235.8799790780351 155.53478158704417" fill="none" stroke="black" stroke-weight="1"></path><path id="SvgjsPath1604" d="M 140.57135664052245 264.29773204702065 L 140.57135664052245 264.29773204702065 232.97527413447233 157.64272832908568" fill="none" stroke="black" stroke-weight="1"></path><path id="SvgjsPath1605" d="M 139.25587796013892 260.6964558843863 L 139.25587796013892 260.6964558843863 229.8756716143111 159.8115201968056" fill="none" stroke="black" stroke-weight="1"></path><path id="SvgjsPath1606" d="M 138.06235875813582 257.09161962225187 L 138.06235875813582 257.09161962225187 226.58891890961007 162.03980176588362" fill="none" stroke="black" stroke-weight="1"></path><path id="SvgjsPath1607" d="M 136.99184844242262 253.48547616593862 L 136.99184844242262 253.48547616593862 223.1232311904233 164.32618043287297" fill="none" stroke="black" stroke-weight="1"></path><path id="SvgjsPath1608" d="M 136.04503854437831 249.88027923772185 L 136.04503854437831 249.88027923772185 219.48727087115344 166.66922728553152" fill="none" stroke="black" stroke-weight="1"></path><path id="SvgjsPath1609" d="M 135.22226223043538 246.27828196832735 L 135.22226223043538 246.27828196832735 215.6901259590271 169.06747799584582" fill="none" stroke="black" stroke-weight="1"></path><path id="SvgjsPath1610" d="M 134.52349474012414 242.6817354887985 L 134.52349474012414 242.6817354887985 211.74128733880974 171.51943373518844" fill="none" stroke="black" stroke-weight="1"></path><path id="SvgjsPath1611" d="M 133.94835474868898 239.09288752361235 L 133.94835474868898 239.09288752361235 207.65062505053675 174.0235621110367" fill="none" stroke="black" stroke-weight="1"></path><path id="SvgjsPath1612" d="M 133.4961066500569 235.51398098592503 L 133.4961066500569 235.51398098592503 203.42836361955284 176.57829812466878" fill="none" stroke="black" stroke-weight="1"></path><path id="SvgjsPath1613" d="M 133.16566375362186 231.94725257582422 L 133.16566375362186 231.94725257582422 199.0850565005241 179.1820451492364" fill="none" stroke="black" stroke-weight="1"></path><path id="SvgjsPath1614" d="M 132.95559238600515 228.39493138246422 L 132.95559238600515 228.39493138246422 194.63155969929767 181.8331759276048" fill="none" stroke="black" stroke-weight="1"></path><path id="SvgjsPath1615" d="M 132.86411688667405 224.8592374909578 L 132.86411688667405 224.8592374909578 190.07900463854048 184.5300335893354" fill="none" stroke="black" stroke-weight="1"></path><path id="SvgjsPath1616" d="M 132.88912548404943 221.34238059489536 L 132.88912548404943 221.34238059489536 185.43877033497938 187.27093268617625" fill="none" stroke="black" stroke-weight="1"></path><path id="SvgjsPath1617" d="M 133.02817703651664 217.8465586153583 L 133.02817703651664 217.8465586153583 180.7224549577858 190.05416024541202" fill="none" stroke="black" stroke-weight="1"></path><path id="SvgjsPath1618" d="M 133.27850862057667 214.37395632728993 L 133.27850862057667 214.37395632728993 175.94184683919337 192.87797684041607" fill="none" stroke="black" stroke-weight="1"></path><path id="SvgjsPath1619" d="M 133.63704394624156 210.9267439940822 L 133.63704394624156 210.9267439940822 171.1088950098061 195.7406176777356" fill="none" stroke="black" stroke-weight="1"></path><path id="SvgjsPath1620" d="M 134.10040257769725 207.50707601123173 L 134.10040257769725 207.50707601123173 166.23567933224467 198.64029370003038" fill="none" stroke="black" stroke-weight="1"></path><path id="SvgjsPath1621" d="M 134.66490993522933 204.1170895599128 L 134.66490993522933 204.1170895599128 161.33438030778112 201.57519270417512" fill="none" stroke="black" stroke-weight="1"></path><path id="SvgjsPath1622" d="M 135.32660805244205 200.75890327130875 L 135.32660805244205 200.75890327130875 156.41724863142963 204.54348047382717" fill="none" stroke="black" stroke-weight="1"></path><path id="SvgjsPath1623" d="M 136.08126706090013 197.4346159025362 L 136.08126706090013 197.4346159025362 151.49657457158855 207.54330192575242" fill="none" stroke="black" stroke-weight="1"></path><path id="SvgjsPath1624" d="M 136.9243973724929 194.14630502499043 L 136.9243973724929 194.14630502499043 146.58465725076982 210.5727822691918" fill="none" stroke="black" stroke-weight="1"></path><path id="SvgjsPath1625" d="M 137.85126252806532 190.8960257259307 L 137.85126252806532 190.8960257259307 141.6937739041982 213.63002817754474" fill="none" stroke="black" stroke-weight="1"></path><path id="SvgjsPath1626" d="M 138.85689267918377 187.68580932411788 L 138.85689267918377 187.68580932411788 136.83614919311748 216.71312897163597" fill="none" stroke="black" stroke-weight="1"></path><path id="SvgjsPath1627" d="M 139.9360986683127 184.51766210030598 L 139.9360986683127 184.51766210030598 132.02392464950353 219.82015781382836" fill="none" stroke="black" stroke-weight="1"></path><path id="SvgjsPath1628" d="M 141.08348667117266 181.39356404338224 L 141.08348667117266 181.39356404338224 127.26912832855706 222.94917291223382" fill="none" stroke="black" stroke-weight="1"></path><path id="SvgjsPath1629" d="M 142.2934733636362 178.3154676129385 L 142.2934733636362 178.3154676129385 122.58364474483025 226.09821873426978" fill="none" stroke="black" stroke-weight="1"></path></svg></svg>