<svg id="SvgjsSvg1318" width="300" height="400" xmlns="http://www.w3.org/2000/svg" version="1.1" xmlns:xlink="http://www.w3.org/1999/xlink" xmlns:svgjs="http://svgjs.com/svgjs"><defs id="SvgjsDefs1319"></defs><svg id="SvgjsSvg1320" style="overflow: visible;"><path id="SvgjsPath1321" d="M 54.303116521642224 150.27170515011926 L 54.303116521642224 150.27170515011926 7.060648695066988 251.10695615672014" fill="none" stroke="black" stroke-weight="1"></path><path id="SvgjsPath1322" d="M 57.23591449078853 148.14240319249419 L 57.23591449078853 148.14240319249419 3.801614781112818 246.10195494445256" fill="none" stroke="black" stroke-weight="1"></path><path id="SvgjsPath1323" d="M 60.28061145605021 146.04863538207917 L 60.28061145605021 146.04863538207917 0.9204980876089053 240.994220250308" fill="none" stroke="black" stroke-weight="1"></path><path id="SvgjsPath1324" d="M 63.42899171801541 143.99171025560054 L 63.42899171801541 143.99171025560054 -1.5755000941674098 235.79651875096522" fill="none" stroke="black" stroke-weight="1"></path><path id="SvgjsPath1325" d="M 66.67266358484967 141.97291332430663 L 66.67266358484967 141.97291332430663 -3.6801410686524036 230.52184199326192" fill="none" stroke="black" stroke-weight="1"></path><path id="SvgjsPath1326" d="M 70.00308067362658 139.9935062705648 L 70.00308067362658 139.9935062705648 -5.388164329485704 225.18337392209406" fill="none" stroke="black" stroke-weight="1"></path><path id="SvgjsPath1327" d="M 73.41156354612747 138.05472615935116 L 73.41156354612747 138.05472615935116 -6.695300708036513 219.79445792741888" fill="none" stroke="black" stroke-weight="1"></path><path id="SvgjsPath1328" d="M 76.88932162486161 136.1577846651252 L 76.88932162486161 136.1577846651252 -7.598283044102061 214.36856349272972" fill="none" stroke="black" stroke-weight="1"></path><path id="SvgjsPath1329" d="M 80.42747533438897 134.30386731457264 L 80.42747533438897 134.30386731457264 -8.094854352106182 208.91925252836228" fill="none" stroke="black" stroke-weight="1"></path><path id="SvgjsPath1330" d="M 84.0170784124977 132.49413274569008 L 84.0170784124977 132.49413274569008 -8.183773462388189 203.46014547378118" fill="none" stroke="black" stroke-weight="1"></path><path id="SvgjsPath1331" d="M 87.64914033539796 130.72971198367355 L 87.64914033539796 130.72971198367355 -7.864818123480632 198.0048872535751" fill="none" stroke="black" stroke-weight="1"></path><path id="SvgjsPath1332" d="M 91.31464880083928 129.01170773406503 L 91.31464880083928 129.01170773406503 -7.138785557622015 192.5671131722508" fill="none" stroke="black" stroke-weight="1"></path><path id="SvgjsPath1333" d="M 95.00459221294933 127.341193693597 L 95.00459221294933 127.341193693597 -6.007490468116458 187.16041483307336" fill="none" stroke="black" stroke-weight="1"></path><path id="SvgjsPath1334" d="M 98.70998211261886 125.71921387916719 L 98.70998211261886 125.71921387916719 -4.473760503520737 181.7983061661369" fill="none" stroke="black" stroke-weight="1"></path><path id="SvgjsPath1335" d="M 102.42187549742724 124.14678197536192 L 102.42187549742724 124.14678197536192 -2.5414291899951706 176.49418965057654" fill="none" stroke="black" stroke-weight="1"></path><path id="SvgjsPath1336" d="M 106.13139697541263 122.62488070093622 L 106.13139697541263 122.62488070093622 -0.2153263494849682 171.26132281535087" fill="none" stroke="black" stroke-weight="1"></path><path id="SvgjsPath1337" d="M 109.82976069743734 121.15446119464652 L 109.82976069743734 121.15446119464652 2.498733972319627 166.1127851023234" fill="none" stroke="black" stroke-weight="1"></path><path id="SvgjsPath1338" d="M 113.50829201348691 119.73644242082004 L 113.50829201348691 119.73644242082004 5.593968038069448 161.06144517446992" fill="none" stroke="black" stroke-weight="1"></path><path id="SvgjsPath1339" d="M 117.15844879896231 118.37171059503198 L 117.15844879896231 118.37171059503198 9.062639374566857 156.11992875092326" fill="none" stroke="black" stroke-weight="1"></path><path id="SvgjsPath1340" d="M 120.77184239788468 117.06111863024945 L 120.77184239788468 117.06111863024945 12.896078109919614 151.3005870492503" fill="none" stroke="black" stroke-weight="1"></path><path id="SvgjsPath1341" d="M 124.34025813091812 115.80548560378888 L 124.34025813091812 115.80548560378888 17.084702643705583 146.61546591384075" fill="none" stroke="black" stroke-weight="1"></path><path id="SvgjsPath1342" d="M 127.85567531723997 114.60559624541915 L 127.85567531723997 114.60559624541915 21.618043595984005 142.07627570756884" fill="none" stroke="black" stroke-weight="1"></path><path id="SvgjsPath1343" d="M 131.3102867605321 113.46220044693118 L 131.3102867605321 113.46220044693118 26.484769975292267 137.69436204198607" fill="none" stroke="black" stroke-weight="1"></path><path id="SvgjsPath1344" d="M 134.69651765074082 112.37601279347984 L 134.69651765074082 112.37601279347984 31.67271750022445 133.4806774191995" fill="none" stroke="black" stroke-weight="1"></path><path id="SvgjsPath1345" d="M 138.00704383474155 111.3477121169917 L 138.00704383474155 111.3477121169917 37.168919003799004 129.44575385632177" fill="none" stroke="black" stroke-weight="1"></path><path id="SvgjsPath1346" d="M 141.23480941065665 110.37794107191685 L 141.23480941065665 110.37794107191685 42.959636844623105 125.59967656091264" fill="none" stroke="black" stroke-weight="1"></path><path id="SvgjsPath1347" d="M 144.37304360229433 109.46730573359105 L 144.37304360229433 109.46730573359105 49.030397243842714 121.95205872321199" fill="none" stroke="black" stroke-weight="1"></path><path id="SvgjsPath1348" d="M 147.41527687200684 108.61637521945832 L 147.41527687200684 108.61637521945832 55.366026462050215 118.51201748817172" fill="none" stroke="black" stroke-weight="1"></path><path id="SvgjsPath1349" d="M 150.3553562322022 107.82568133339103 L 150.3553562322022 107.82568133339103 61.95068872573249 115.28815116734033" fill="none" stroke="black" stroke-weight="1"></path><path id="SvgjsPath1350" d="M 153.18745971777363 107.09571823332972 L 153.18745971777363 107.09571823332972 68.76792580845589 112.28851774756286" fill="none" stroke="black" stroke-weight="1"></path><path id="SvgjsPath1351" d="M 155.90610998384102 106.42694212245067 L 155.90610998384102 106.42694212245067 75.80069816786204 109.52061475020994" fill="none" stroke="black" stroke-weight="1"></path><path id="SvgjsPath1352" d="M 158.50618699541386 105.81977096405353 L 158.50618699541386 105.81977096405353 83.03142753564926 106.99136049127898" fill="none" stroke="black" stroke-weight="1"></path><path id="SvgjsPath1353" d="M 160.9829397778821 105.27458422034803 L 160.9829397778821 105.27458422034803 90.44204085408931 104.70707678920705" fill="none" stroke="black" stroke-weight="1"></path><path id="SvgjsPath1354" d="M 163.33199719962064 104.7917226153024 L 163.33199719962064 104.7917226153024 98.01401544925926 102.67347316361734" fill="none" stroke="black" stroke-weight="1"></path><path id="SvgjsPath1355" d="M 165.54937776043838 104.37148792170197 L 165.54937776043838 104.37148792170197 105.728425328079 100.89563256449358" fill="none" stroke="black" stroke-weight="1"></path><path id="SvgjsPath1356" d="M 167.6314983621165 104.01414277255101 L 167.6314983621165 104.01414277255101 113.56598848343849 99.37799866745209" fill="none" stroke="black" stroke-weight="1"></path><path id="SvgjsPath1357" d="M 169.57518203985296 103.71991049693564 L 169.57518203985296 103.71991049693564 121.50711508917306 98.12436476686709" fill="none" stroke="black" stroke-weight="1"></path><path id="SvgjsPath1358" d="M 171.37766463605323 103.48897498045046 L 171.37766463605323 103.48897498045046 129.5319564644277 97.13786429461001" fill="none" stroke="black" stroke-weight="1"></path><path id="SvgjsPath1359" d="M 173.03660040057807 103.32148055027601 L 173.03660040057807 103.32148055027601 137.62045468502032 96.42096298810206" fill="none" stroke="black" stroke-weight="1"></path><path id="SvgjsPath1360" d="M 174.55006650426935 103.21753188497892 L 174.55006650426935 103.21753188497892 145.75239271780842 95.97545272725448" fill="none" stroke="black" stroke-weight="1"></path><path id="SvgjsPath1361" d="M 175.91656645531478 103.1771939490914 L 175.91656645531478 103.1771939490914 153.90744495274123 95.80244705570217" fill="none" stroke="black" stroke-weight="1"></path><path id="SvgjsPath1362" d="M 177.1350324107817 103.20049195251026 L 177.1350324107817 103.20049195251026 162.06522800630026 95.90237839752436" fill="none" stroke="black" stroke-weight="1"></path><path id="SvgjsPath1363" d="M 178.20482637843529 103.28741133474175 L 178.20482637843529 103.28741133474175 170.20535166934314 96.27499697640975" fill="none" stroke="black" stroke-weight="1"></path><path id="SvgjsPath1364" d="M 179.1257403067539 103.43789777400137 L 179.1257403067539 103.43789777400137 178.307469872007 96.91937143996715" fill="none" stroke="black" stroke-weight="1"></path><path id="SvgjsPath1365" d="M 179.8979950638571 103.65185722116308 L 179.8979950638571 103.65185722116308 186.35133153828653 97.83389118762138" fill="none" stroke="black" stroke-weight="1"></path><path id="SvgjsPath1366" d="M 180.52223830886174 103.92915595853712 L 180.52223830886174 103.92915595853712 194.31683120317788 99.01627039627594" fill="none" stroke="black" stroke-weight="1"></path><path id="SvgjsPath1367" d="M 180.99954126197164 104.26962068343907 L 180.99954126197164 104.26962068343907 202.18405926587116 100.46355373368041" fill="none" stroke="black" stroke-weight="1"></path><path id="SvgjsPath1368" d="M 181.33139438238115 104.67303861649849 L 181.33139438238115 104.67303861649849 209.93335175338308 102.17212374522197" fill="none" stroke="black" stroke-weight="1"></path><path id="SvgjsPath1369" d="M 181.51970196582326 105.13915763463902 L 181.51970196582326 105.13915763463902 217.5453394702481 104.13770989567772" fill="none" stroke="black" stroke-weight="1"></path><path id="SvgjsPath1370" d="M 181.5667756763136 105.66768642864714 L 181.5667756763136 105.66768642864714 225.00099641142035 106.35539924332895" fill="none" stroke="black" stroke-weight="1"></path><path id="SvgjsPath1371" d="M 181.47532702932565 106.25829468523098 L 181.47532702932565 106.25829468523098 232.28168731737827 108.81964871975688" fill="none" stroke="black" stroke-weight="1"></path><path id="SvgjsPath1372" d="M 181.2484588462717 106.91061329345531 L 181.2484588462717 106.91061329345531 239.3692142525677 111.52429898462685" fill="none" stroke="black" stroke-weight="1"></path><path id="SvgjsPath1373" d="M 180.88965570275408 107.62423457542387 L 180.88965570275408 107.62423457542387 246.24586209076307 114.46258982083125" fill="none" stroke="black" stroke-weight="1"></path><path id="SvgjsPath1374" d="M 180.40277339558398 108.39871254106475 L 180.40277339558398 108.39871254106475 252.89444279365767 117.6271770315117" fill="none" stroke="black" stroke-weight="1"></path><path id="SvgjsPath1375" d="M 179.7920274560338 109.23356316685984 L 179.7920274560338 109.23356316685984 259.2983383720084 121.01015079672683" fill="none" stroke="black" stroke-weight="1"></path><path id="SvgjsPath1376" d="M 179.06198073918995 110.12826469834357 L 179.06198073918995 110.12826469834357 265.44154242195395 124.60305544388234" fill="none" stroke="black" stroke-weight="1"></path><path id="SvgjsPath1377" d="M 178.2175301215979 111.08225797618255 L 178.2175301215979 111.08225797618255 271.30870013268805 128.39691058250884" fill="none" stroke="black" stroke-weight="1"></path><path id="SvgjsPath1378" d="M 177.26389234163327 112.09494678563189 L 177.26389234163327 112.09494678563189 276.88514666549025 132.38223355056112" fill="none" stroke="black" stroke-weight="1"></path><path id="SvgjsPath1379" d="M 176.2065890191917 113.16569822915018 L 176.2065890191917 113.16569822915018 282.1569438081861 136.54906311613536" fill="none" stroke="black" stroke-weight="1"></path><path id="SvgjsPath1380" d="M 175.051430893353 114.29384312193976 L 175.051430893353 114.29384312193976 287.1109148134178 140.88698437536056" fill="none" stroke="black" stroke-weight="1"></path><path id="SvgjsPath1381" d="M 173.80450131864325 115.47867641016522 L 173.80450131864325 115.47867641016522 291.7346773336504 145.38515478423432" fill="none" stroke="black" stroke-weight="1"></path><path id="SvgjsPath1382" d="M 172.47213906238255 116.71945761158943 L 172.47213906238255 116.71945761158943 296.0166743705921 150.0323312593361" fill="none" stroke="black" stroke-weight="1"></path><path id="SvgjsPath1383" d="M 171.06092044736477 118.01541127835068 L 171.06092044736477 118.01541127835068 299.94620316167163 154.81689827968106" fill="none" stroke="black" stroke-weight="1"></path><path id="SvgjsPath1384" d="M 169.57764088576167 119.36572748159243 L 169.57764088576167 119.36572748159243 303.5134419313705 159.7268969194728" fill="none" stroke="black" stroke-weight="1"></path><path id="SvgjsPath1385" d="M 168.0292958516753 120.76956231764228 L 168.0292958516753 120.76956231764228 306.7094744405463 164.75005473918958" fill="none" stroke="black" stroke-weight="1"></path><path id="SvgjsPath1386" d="M 166.42306134117277 122.22603843542444 L 166.42306134117277 122.22603843542444 309.5263122723876 169.87381646029195" fill="none" stroke="black" stroke-weight="1"></path><path id="SvgjsPath1387" d="M 164.7662738699286 123.73424558477569 L 164.7662738699286 123.73424558477569 311.95691479929565 175.0853753468808" fill="none" stroke="black" stroke-weight="1"></path><path id="SvgjsPath1388" d="M 163.06641005976076 125.29324118532205 L 163.06641005976076 125.29324118532205 313.99520678078665 180.37170521586728" fill="none" stroke="black" stroke-weight="1"></path><path id="SvgjsPath1389" d="M 161.33106586638104 126.90205091556054 L 161.33106586638104 126.90205091556054 315.6360935484287 185.71959299564614" fill="none" stroke="black" stroke-weight="1"></path><path id="SvgjsPath1390" d="M 159.56793550158218 128.55966932177876 L 159.56793550158218 128.55966932177876 316.8754737398599 191.1156717518938" fill="none" stroke="black" stroke-weight="1"></path><path id="SvgjsPath1391" d="M 157.7847901038527 130.2650604464307 L 157.7847901038527 130.2650604464307 317.7102495500585 196.54645409794338" fill="none" stroke="black" stroke-weight="1"></path><path id="SvgjsPath1392" d="M 155.98945621204308 132.01715847557642 L 155.98945621204308 132.01715847557642 318.1383344742419 201.9983659062267" fill="none" stroke="black" stroke-weight="1"></path><path id="SvgjsPath1393" d="M 154.18979409720205 133.8148684049808 L 154.18979409720205 133.8148684049808 318.1586585230418 207.45778023652363" fill="none" stroke="black" stroke-weight="1"></path><path id="SvgjsPath1394" d="M 152.39367600805753 135.657066724456 L 152.39367600805753 135.657066724456 317.7711708969209 212.91105139621624" fill="none" stroke="black" stroke-weight="1"></path><path id="SvgjsPath1395" d="M 150.60896438583512 137.54260212001847 L 150.60896438583512 137.54260212001847 316.97684011314493 218.34454904741426" fill="none" stroke="black" stroke-weight="1"></path><path id="SvgjsPath1396" d="M 148.84349010418393 139.47029619342294 L 148.84349010418393 139.47029619342294 315.7776515849936 223.74469227570071" fill="none" stroke="black" stroke-weight="1"></path><path id="SvgjsPath1397" d="M 147.10503078991522 141.43894419862252 L 147.10503078991522 141.43894419862252 314.176602659262 229.09798353534495" fill="none" stroke="black" stroke-weight="1"></path><path id="SvgjsPath1398" d="M 145.40128928005763 143.44731579469624 L 145.40128928005763 143.44731579469624 312.17769512445466 234.39104238613785" fill="none" stroke="black" stroke-weight="1"></path><path id="SvgjsPath1399" d="M 143.73987227038896 145.49415581477191 L 143.73987227038896 145.49415581477191 309.7859252083973 239.61063893752439" fill="none" stroke="black" stroke-weight="1"></path><path id="SvgjsPath1400" d="M 142.1282692101241 147.57818505046458 L 142.1282692101241 147.57818505046458 307.0072710902704 244.7437269164396" fill="none" stroke="black" stroke-weight="1"></path><path id="SvgjsPath1401" d="M 140.5738314968185 149.69810105133993 L 140.5738314968185 149.69810105133993 303.8486779582743 249.7774762761966" fill="none" stroke="black" stroke-weight="1"></path><path id="SvgjsPath1402" d="M 139.08375202479286 151.8525789389036 L 139.08375202479286 151.8525789389036 300.3180406502756 254.69930526492178" fill="none" stroke="black" stroke-weight="1"></path><path id="SvgjsPath1403" d="M 137.66504513949468 154.04027223460724 L 137.66504513949468 154.04027223460724 296.4241839208238 259.4969118733825" fill="none" stroke="black" stroke-weight="1"></path><path id="SvgjsPath1404" d="M 136.32452704919325 156.25981370135358 L 136.32452704919325 156.25981370135358 292.17684038386096 264.15830458360296" fill="none" stroke="black" stroke-weight="1"></path><path id="SvgjsPath1405" d="M 135.06879674425278 158.509816197975 L 135.06879674425278 158.509816197975 287.5866261862559 268.67183234141385" fill="none" stroke="black" stroke-weight="1"></path><path id="SvgjsPath1406" d="M 133.90421747295312 160.7888735461518 L 133.90421747295312 160.7888735461518 282.6650144729655 273.0262136780203" fill="none" stroke="black" stroke-weight="1"></path><path id="SvgjsPath1407" d="M 132.83689882142755 163.09556140922797 L 132.83689882142755 163.09556140922797 277.42430671014694 277.210564907799" fill="none" stroke="black" stroke-weight="1"></path><path id="SvgjsPath1408" d="M 131.87267944376805 165.4284381823751 L 131.87267944376805 165.4284381823751 271.87760193789927 281.2144273318435" fill="none" stroke="black" stroke-weight="1"></path><path id="SvgjsPath1409" d="M 131.01711048671348 167.7860458935483 L 131.01711048671348 167.7860458935483 266.03876402948526 285.02779337926495" fill="none" stroke="black" stroke-weight="1"></path><path id="SvgjsPath1410" d="M 130.27543975158784 170.16691111467145 L 130.27543975158784 170.16691111467145 259.9223870388682 288.6411316209071" fill="none" stroke="black" stroke-weight="1"></path><path id="SvgjsPath1411" d="M 129.6525966343035 172.56954588248195 L 129.6525966343035 172.56954588248195 253.54375872317684 292.0454105929564" fill="none" stroke="black" stroke-weight="1"></path><path id="SvgjsPath1412" d="M 129.15317788228543 174.9924486284591 L 129.15317788228543 174.9924486284591 246.91882233127473 295.23212137089683" fill="none" stroke="black" stroke-weight="1"></path><path id="SvgjsPath1413" d="M 128.78143420511793 177.43410511725554 L 128.78143420511793 177.43410511725554 240.06413675394174 298.1932988373905" fill="none" stroke="black" stroke-weight="1"></path><path id="SvgjsPath1414" d="M 128.54125777356796 179.89298939304499 L 128.54125777356796 179.89298939304499 232.99683513527015 300.92154159092235" fill="none" stroke="black" stroke-weight="1"></path><path id="SvgjsPath1415" d="M 128.43617063940346 182.36756473319528 L 128.43617063940346 182.36756473319528 225.7345820487269 303.41003044545005" fill="none" stroke="black" stroke-weight="1"></path><path id="SvgjsPath1416" d="M 128.46931410610827 184.85628460866985 L 128.46931410610827 184.85628460866985 218.29552934491977 305.6525454748174" fill="none" stroke="black" stroke-weight="1"></path><path id="SvgjsPath1417" d="M 128.64343907820304 187.3575936505578 L 128.64343907820304 187.3575936505578 210.6982707814248 307.64348155933" fill="none" stroke="black" stroke-weight="1"></path><path id="SvgjsPath1418" d="M 128.96089741441753 189.8699286221289 L 128.96089741441753 189.8699286221289 202.96179554807526 309.37786239563604" fill="none" stroke="black" stroke-weight="1"></path><path id="SvgjsPath1419" d="M 129.42363430743399 192.3917193958061 L 129.42363430743399 192.3917193958061 195.10544080387578 310.85135293489293" fill="none" stroke="black" stroke-weight="1"></path><path id="SvgjsPath1420" d="M 130.033181710337 194.92138993444377 L 130.033181710337 194.92138993444377 187.14884334417613 312.0602702181316" fill="none" stroke="black" stroke-weight="1"></path><path id="SvgjsPath1421" d="M 130.79065282726958 197.45735927629948 L 130.79065282726958 197.45735927629948 179.11189051891 313.00159258173585" fill="none" stroke="black" stroke-weight="1"></path></svg></svg>