<svg id="SvgjsSvg1422" width="300" height="400" xmlns="http://www.w3.org/2000/svg" version="1.1" xmlns:xlink="http://www.w3.org/1999/xlink" xmlns:svgjs="http://svgjs.com/svgjs"><defs id="SvgjsDefs1423"></defs><svg id="SvgjsSvg1424" style="overflow: visible;"><path id="SvgjsPath1425" d="M 6.382366039002761 276.64724976694174 L 6.382366039002761 276.64724976694174 84.5468710625073 210.2730007222412" fill="none" stroke="black" stroke-weight="1"></path><path id="SvgjsPath1426" d="M 6.244708190701203 276.91348101762253 L 6.244708190701203 276.91348101762253 84.28507699933785 207.61628261165723" fill="none" stroke="black" stroke-weight="1"></path><path id="SvgjsPath1427" d="M 6.200017557586676 276.9999660175762 L 6.200017557586676 276.9999660175762 84.20003341605006 204.94811795573253" fill="none" stroke="black" stroke-weight="1"></path><path id="SvgjsPath1428" d="M 6.248322069850133 276.9064885993434 L 6.248322069850133 276.9064885993434 84.29195287731234 202.28018023142388" fill="none" stroke="black" stroke-weight="1"></path><path id="SvgjsPath1429" d="M 6.389591538743787 276.63328240778753 L 6.389591538743787 276.63328240778753 84.56060563234223 199.62414228769737" fill="none" stroke="black" stroke-weight="1"></path><path id="SvgjsPath1430" d="M 6.623737675448098 276.18103031610457 L 6.623737675448098 276.18103031610457 85.00532018916385 196.9916440419008" fill="none" stroke="black" stroke-weight="1"></path><path id="SvgjsPath1431" d="M 6.95061414624945 275.5508627189953 L 6.95061414624945 275.5508627189953 85.62498499298799 194.3942602604422" fill="none" stroke="black" stroke-weight="1"></path><path id="SvgjsPath1432" d="M 7.370016663993852 274.7443547072676 L 7.370016663993852 274.7443547072676 86.41805120452025 191.84346850625676" fill="none" stroke="black" stroke-weight="1"></path><path id="SvgjsPath1433" d="M 7.8816831157598415 273.7635221309294 L 7.8816831157598415 273.7635221309294 87.38253657125276 189.35061733512882" fill="none" stroke="black" stroke-weight="1"></path><path id="SvgjsPath1434" d="M 8.485293726670534 272.610816560614 L 8.485293726670534 272.610816560614 88.51603038206288 186.9268948223096" fill="none" stroke="black" stroke-weight="1"></path><path id="SvgjsPath1435" d="M 9.180471259742518 271.28911915992967 L 9.180471259742518 271.28911915992967 89.81569949273585 184.5832975000379" fill="none" stroke="black" stroke-weight="1"></path><path id="SvgjsPath1436" d="M 9.966781251646552 269.8017334840514 L 9.966781251646552 269.8017334840514 91.2782954073495 182.33059978554257" fill="none" stroke="black" stroke-weight="1"></path><path id="SvgjsPath1437" d="M 10.843732284233283 268.1523772225534 L 10.843732284233283 268.1523772225534 92.9001623978225 180.17932397786763" fill="none" stroke="black" stroke-weight="1"></path><path id="SvgjsPath1438" d="M 11.81077629165327 266.34517290712125 L 11.81077629165327 266.34517290712125 94.67724664133078 178.13971090043376" fill="none" stroke="black" stroke-weight="1"></path><path id="SvgjsPath1439" d="M 12.867308902880552 264.38463760736977 L 12.867308902880552 264.38463760736977 96.60510635275301 176.22169126462532" fill="none" stroke="black" stroke-weight="1"></path><path id="SvgjsPath1440" d="M 14.012669819424701 262.2756716405213 L 14.012669819424701 262.2756716405213 98.67892288682069 174.43485782787752" fill="none" stroke="black" stroke-weight="1"></path><path id="SvgjsPath1441" d="M 15.246143227996015 260.02354632316474 L 15.246143227996015 260.02354632316474 100.89351278222139 172.78843841774315" fill="none" stroke="black" stroke-weight="1"></path><path id="SvgjsPath1442" d="M 16.566958247865415 257.63389079570914 L 16.566958247865415 257.63389079570914 103.24334071755271 171.29126989123785" fill="none" stroke="black" stroke-weight="1"></path><path id="SvgjsPath1443" d="M 17.97428941263985 255.11267795246476 L 17.97428941263985 255.11267795246476 105.72253334674298 169.95177309641204" fill="none" stroke="black" stroke-weight="1"></path><path id="SvgjsPath1444" d="M 19.467257186151983 252.4662095125174 L 19.467257186151983 252.4662095125174 108.32489397935782 168.7779289005771" fill="none" stroke="black" stroke-weight="1"></path><path id="SvgjsPath1445" d="M 21.044928512141524 249.70110026871276 L 21.044928512141524 249.70110026871276 111.04391806909909 167.77725534693008" fill="none" stroke="black" stroke-weight="1"></path><path id="SvgjsPath1446" d="M 22.70631739738522 246.82426155411932 L 22.70631739738522 246.82426155411932 113.87280947178266 166.9567859984825" fill="none" stroke="black" stroke-weight="1"></path><path id="SvgjsPath1447" d="M 24.450385527910214 243.84288396729497 L 24.450385527910214 243.84288396729497 116.80449743215999 166.32304952521346" fill="none" stroke="black" stroke-weight="1"></path><path id="SvgjsPath1448" d="M 26.276042917906892 240.7644193995353 L 26.276042917906892 240.7644193995353 119.83165425712362 165.88205058723793" fill="none" stroke="black" stroke-weight="1"></path><path id="SvgjsPath1449" d="M 28.182148590934204 237.59656240902635 L 28.182148590934204 237.59656240902635 122.94671363112403 165.63925206352175" fill="none" stroke="black" stroke-weight="1"></path><path id="SvgjsPath1450" d="M 30.167511292992913 234.34723098845637 L 30.167511292992913 234.34723098845637 126.14188952801788 165.59955867228948" fill="none" stroke="black" stroke-weight="1"></path><path id="SvgjsPath1451" d="M 32.2308902370206 231.02454677415767 L 32.2308902370206 231.02454677415767 129.40919567207828 165.76730202576763" fill="none" stroke="black" stroke-weight="1"></path><path id="SvgjsPath1452" d="M 34.37099587834311 227.63681474624556 L 34.37099587834311 227.63681474624556 132.74046549952527 166.146227158298" fill="none" stroke="black" stroke-weight="1"></path><path id="SvgjsPath1453" d="M 36.586490720598064 224.19250247049305 L 36.586490720598064 224.19250247049305 136.1273725706818 166.73948056314714" fill="none" stroke="black" stroke-weight="1"></path><path id="SvgjsPath1454" d="M 38.87599015162654 220.70021893382633 L 38.87599015162654 220.70021893382633 139.5614513817374 167.54959976953947" fill="none" stroke="black" stroke-weight="1"></path><path id="SvgjsPath1455" d="M 41.23806330881051 217.16869302634106 L 41.23806330881051 217.16869302634106 143.0341185240979 168.57850448756543" fill="none" stroke="black" stroke-weight="1"></path><path id="SvgjsPath1456" d="M 43.67123397331561 213.60675172362278 L 43.67123397331561 213.60675172362278 146.5366941384376 169.82748934466832" fill="none" stroke="black" stroke-weight="1"></path><path id="SvgjsPath1457" d="M 46.173981492679616 210.02329802390506 L 46.173981492679616 210.02329802390506 150.06042360982676 171.29721823340464" fill="none" stroke="black" stroke-weight="1"></path><path id="SvgjsPath1458" d="M 48.74474173117086 206.42728869521062 L 48.74474173117086 206.42728869521062 153.59649944970954 172.98772028611643" fill="none" stroke="black" stroke-weight="1"></path><path id="SvgjsPath1459" d="M 51.38190804732221 202.82771188809568 L 51.38190804732221 202.82771188809568 157.13608331003923 174.8983874880559" fill="none" stroke="black" stroke-weight="1"></path><path id="SvgjsPath1460" d="M 54.08383229802942 199.2335646699548 L 54.08383229802942 199.2335646699548 160.6703280745444 177.02797393637283" fill="none" stroke="black" stroke-weight="1"></path><path id="SvgjsPath1461" d="M 56.84882586858731 195.65383053703755 L 56.84882586858731 195.65383053703755 164.19039997191308 179.37459674823194" fill="none" stroke="black" stroke-weight="1"></path><path id="SvgjsPath1462" d="M 59.67516072801875 192.09745696038667 L 59.67516072801875 192.09745696038667 167.68750065561977 181.93573861716698" fill="none" stroke="black" stroke-weight="1"></path><path id="SvgjsPath1463" d="M 62.561070509037634 188.57333302182045 L 62.561070509037634 188.57333302182045 171.1528891952099 184.70825201262738" fill="none" stroke="black" stroke-weight="1"></path><path id="SvgjsPath1464" d="M 65.50475161197141 185.09026719585677 L 65.50475161197141 185.09026719585677 174.57790392407418 187.68836501352763" fill="none" stroke="black" stroke-weight="1"></path><path id="SvgjsPath1465" d="M 68.5043643319515 181.65696533311515 L 68.5043643319515 181.65696533311515 177.95398408910344 190.87168876248873" fill="none" stroke="black" stroke-weight="1"></path><path id="SvgjsPath1466" d="M 71.55803400866975 178.28200890022316 L 71.55803400866975 178.28200890022316 181.2726912481139 194.25322652337562" fill="none" stroke="black" stroke-weight="1"></path><path id="SvgjsPath1467" d="M 74.66385219797932 174.97383353061986 L 74.66385219797932 174.97383353061986 184.52573036155712 197.8273843206838" fill="none" stroke="black" stroke-weight="1"></path><path id="SvgjsPath1468" d="M 77.81987786461058 171.7407079398649 L 77.81987786461058 171.7407079398649 187.7049705257995 201.58798313534072" fill="none" stroke="black" stroke-weight="1"></path><path id="SvgjsPath1469" d="M 81.02413859525501 168.59071325815583 L 81.02413859525501 168.59071325815583 190.80246529614675 205.52827262755417" fill="none" stroke="black" stroke-weight="1"></path><path id="SvgjsPath1470" d="M 84.27463183125928 165.53172283171125 L 84.27463183125928 165.53172283171125 193.81047254881724 209.64094635348306" fill="none" stroke="black" stroke-weight="1"></path><path id="SvgjsPath1471" d="M 87.5693261201589 162.57138254350602 L 87.5693261201589 162.57138254350602 196.7214738322191 213.91815843873198" fill="none" stroke="black" stroke-weight="1"></path><path id="SvgjsPath1472" d="M 90.90616238527012 159.71709170254528 L 90.90616238527012 159.71709170254528 199.52819315916378 218.35154166798782" fill="none" stroke="black" stroke-weight="1"></path><path id="SvgjsPath1473" d="M 94.28305521254606 156.97598454944543 L 94.28305521254606 156.97598454944543 202.2236151930453 222.9322269465348" fill="none" stroke="black" stroke-weight="1"></path><path id="SvgjsPath1474" d="M 97.69789415389242 154.3549124245481 L 97.69789415389242 154.3549124245481 204.8010027825277 227.6508640859095" fill="none" stroke="black" stroke-weight="1"></path><path id="SvgjsPath1475" d="M 101.14854504612852 151.86042664313769 L 101.14854504612852 151.86042664313769 207.2539138009146 232.49764386260895" fill="none" stroke="black" stroke-weight="1"></path><path id="SvgjsPath1476" d="M 104.63285134477016 149.49876212056466 L 104.63285134477016 149.49876212056466 209.57621724811142 237.4623212955355" fill="none" stroke="black" stroke-weight="1"></path><path id="SvgjsPath1477" d="M 108.14863547179982 147.2758217882043 L 108.14863547179982 147.2758217882043 211.76210857493243 242.5342400847729" fill="none" stroke="black" stroke-weight="1"></path><path id="SvgjsPath1478" d="M 111.69370017658201 145.19716183920247 L 111.69370017658201 145.19716183920247 213.8061241914509 247.70235815133793" fill="none" stroke="black" stroke-weight="1"></path><path id="SvgjsPath1479" d="M 115.2658299090729 143.2679778408866 L 115.2658299090729 143.2679778408866 215.70315512312817 252.9552742147572" fill="none" stroke="black" stroke-weight="1"></path><path id="SvgjsPath1480" d="M 118.86279220446744 141.49309174855296 L 118.86279220446744 141.49309174855296 217.44845978058962 258.2812553426786" fill="none" stroke="black" stroke-weight="1"></path><path id="SvgjsPath1481" d="M 122.4823390784173 139.87693985308943 L 122.4823390784173 139.87693985308943 219.03767581112874 263.6682654042484" fill="none" stroke="black" stroke-weight="1"></path><path id="SvgjsPath1482" d="M 126.12220843194771 138.42356169255902 L 126.12220843194771 138.42356169255902 220.46683100231698 269.1039943566816" fill="none" stroke="black" stroke-weight="1"></path><path id="SvgjsPath1483" d="M 129.78012546519545 137.1365899554584 L 129.78012546519545 137.1365899554584 221.73235321046593 274.57588829232174" fill="none" stroke="black" stroke-weight="1"></path><path id="SvgjsPath1484" d="M 133.45380409908498 136.01924140088846 L 133.45380409908498 136.01924140088846 222.83107928912636 280.0711801715412" fill="none" stroke="black" stroke-weight="1"></path><path id="SvgjsPath1485" d="M 137.14094840405363 135.07430881833164 L 137.14094840405363 135.07430881833164 223.7602629953072 285.5769211650681" fill="none" stroke="black" stroke-weight="1"></path><path id="SvgjsPath1486" d="M 140.83925403493262 134.304154047133 L 140.83925403493262 134.304154047133 224.51758185365253 291.0800125277543" fill="none" stroke="black" stroke-weight="1"></path><path id="SvgjsPath1487" d="M 144.54640967108762 133.7107020731317 L 144.54640967108762 133.7107020731317 225.1011429614205 296.5672379244253" fill="none" stroke="black" stroke-weight="1"></path><path id="SvgjsPath1488" d="M 148.260098460919 133.29543621719893 L 148.260098460919 133.29543621719893 225.5094877197544 302.0252961272737" fill="none" stroke="black" stroke-weight="1"></path><path id="SvgjsPath1489" d="M 151.97799946981905 133.0593944277082 L 151.97799946981905 133.0593944277082 225.74159547942025 307.4408340032791" fill="none" stroke="black" stroke-weight="1"></path><path id="SvgjsPath1490" d="M 155.69778913068023 133.00316668620508 L 155.69778913068023 133.00316668620508 225.79688609189833 312.80047970936425" fill="none" stroke="black" stroke-weight="1"></path><path id="SvgjsPath1491" d="M 159.41714269604876 133.1268935327605 L 159.41714269604876 133.1268935327605 225.67522135945217 318.09087601243056" fill="none" stroke="black" stroke-weight="1"></path><path id="SvgjsPath1492" d="M 163.13373569101628 133.43026571469375 L 163.13373569101628 133.43026571469375 225.37690538055114 323.298713651055" fill="none" stroke="black" stroke-weight="1"></path><path id="SvgjsPath1493" d="M 166.8452453659415 133.9125249595432 L 166.8452453659415 133.9125249595432 224.90268378978254 328.4107646554759" fill="none" stroke="black" stroke-weight="1"></path><path id="SvgjsPath1494" d="M 170.54935214809248 134.57246587035243 L 170.54935214809248 134.57246587035243 224.25374189415345 333.4139155425513" fill="none" stroke="black" stroke-weight="1"></path><path id="SvgjsPath1495" d="M 174.24374109130417 135.40843893853506 L 174.24374109130417 135.40843893853506 223.43170171044054 338.2952003026371" fill="none" stroke="black" stroke-weight="1"></path><path id="SvgjsPath1496" d="M 177.9261033227445 136.4183546667869 L 177.9261033227445 136.4183546667869 222.43861791099286 343.0418330958054" fill="none" stroke="black" stroke-weight="1"></path><path id="SvgjsPath1497" d="M 181.59413748588497 137.59968879174136 L 181.59413748588497 137.59968879174136 221.276972688121 347.64124057549793" fill="none" stroke="black" stroke-weight="1"></path><path id="SvgjsPath1498" d="M 185.24555117877347 138.949488593313 L 185.24555117877347 138.949488593313 219.9496695499089 352.08109375859436" fill="none" stroke="black" stroke-weight="1"></path><path id="SvgjsPath1499" d="M 188.87806238671038 140.46438027495995 L 188.87806238671038 140.46438027495995 218.46002606295605 356.3493393619585" fill="none" stroke="black" stroke-weight="1"></path><path id="SvgjsPath1500" d="M 192.48940090843405 142.14057739641842 L 192.48940090843405 142.14057739641842 216.81176556018858 360.4342305268153" fill="none" stroke="black" stroke-weight="1"></path><path id="SvgjsPath1501" d="M 196.07730977492258 143.97389033783136 L 196.07730977492258 143.97389033783136 215.00900783446582 364.3243568537871" fill="none" stroke="black" stroke-weight="1"></path><path id="SvgjsPath1502" d="M 199.6395466599261 145.9597367716163 L 199.6395466599261 145.9597367716163 213.056258841244 368.00867367309706" fill="none" stroke="black" stroke-weight="1"></path><path id="SvgjsPath1503" d="M 203.17388528134714 148.09315311589745 L 203.17388528134714 148.09315311589745 210.95839943603414 371.4765304763114" fill="none" stroke="black" stroke-weight="1"></path><path id="SvgjsPath1504" d="M 206.67811679259484 150.36880694087586 L 206.67811679259484 150.36880694087586 208.7206731748054 374.7176984380382" fill="none" stroke="black" stroke-weight="1"></path><path id="SvgjsPath1505" d="M 210.15005116304252 152.78101029712676 L 210.15005116304252 152.78101029712676 206.34867320782539 377.7223969582326" fill="none" stroke="black" stroke-weight="1"></path><path id="SvgjsPath1506" d="M 213.58751854672505 155.32373393251075 L 213.58751854672505 155.32373393251075 203.84832829969776 380.4813191581526" fill="none" stroke="black" stroke-weight="1"></path><path id="SvgjsPath1507" d="M 216.98837063842194 157.99062236216423 L 216.98837063842194 157.99062236216423 201.22588801053848 382.9856562655865" fill="none" stroke="black" stroke-weight="1"></path><path id="SvgjsPath1508" d="M 220.3504820162783 160.77500975390163 L 220.3504820162783 160.77500975390163 198.4879070753301 385.2271208276985" fill="none" stroke="black" stroke-weight="1"></path><path id="SvgjsPath1509" d="M 223.67175147012446 163.66993658932455 L 223.67175147012446 163.66993658932455 195.64122902049752 387.19796869272534" fill="none" stroke="black" stroke-weight="1"></path><path id="SvgjsPath1510" d="M 226.95010331466395 166.66816705899333 L 226.95010331466395 166.66816705899333 192.69296905865656 388.89101970478885" fill="none" stroke="black" stroke-weight="1"></path><path id="SvgjsPath1511" d="M 230.1834886867087 169.76220714818197 L 230.1834886867087 169.76220714818197 189.65049630428774 390.29967705926185" fill="none" stroke="black" stroke-weight="1"></path><path id="SvgjsPath1512" d="M 233.36988682565237 172.94432336801225 L 233.36988682565237 172.94432336801225 186.52141535478796 391.41794526942897" fill="none" stroke="black" stroke-weight="1"></path><path id="SvgjsPath1513" d="M 236.50730633637994 176.20656208514885 L 236.50730633637994 176.20656208514885 183.31354728293698 392.24044669861155" fill="none" stroke="black" stroke-weight="1"></path><path id="SvgjsPath1514" d="M 239.5937864338248 179.54076940174008 L 239.5937864338248 179.54076940174008 180.03491008828894 392.76243661546704" fill="none" stroke="black" stroke-weight="1"></path><path id="SvgjsPath1515" d="M 242.62739816839502 182.93861153591598 L 242.62739816839502 182.93861153591598 176.69369865634928 392.97981673382515" fill="none" stroke="black" stroke-weight="1"></path><path id="SvgjsPath1516" d="M 245.60624563150492 186.391595651903 L 245.60624563150492 186.391595651903 173.29826427562875 392.8891472021677" fill="none" stroke="black" stroke-weight="1"></path><path id="SvgjsPath1517" d="M 248.5284671404557 189.89109108769057 L 248.5284671404557 189.89109108769057 169.85709376377093 392.4876570116933" fill="none" stroke="black" stroke-weight="1"></path><path id="SvgjsPath1518" d="M 251.39223640192685 193.42835092719142 L 251.39223640192685 193.42835092719142 166.37878825492845 391.7732527958202" fill="none" stroke="black" stroke-weight="1"></path><path id="SvgjsPath1519" d="M 254.19576365334953 196.9945338629759 L 254.19576365334953 196.9945338629759 162.87204170140703 390.7445259979646" fill="none" stroke="black" stroke-weight="1"></path><path id="SvgjsPath1520" d="M 256.93729678145024 200.5807262949367 L 256.93729678145024 200.5807262949367 159.34561914331226 389.4007583884654" fill="none" stroke="black" stroke-weight="1"></path><path id="SvgjsPath1521" d="M 259.61512241726484 204.1779646096469 L 259.61512241726484 204.1779646096469 155.8083348005139 387.74192591562235" fill="none" stroke="black" stroke-weight="1"></path><path id="SvgjsPath1522" d="M 262.22756700693793 207.77725758472533 L 262.22756700693793 207.77725758472533 152.26903004168676 385.76870087993393" fill="none" stroke="black" stroke-weight="1"></path><path id="SvgjsPath1523" d="M 264.77299785763967 211.36960886220973 L 264.77299785763967 211.36960886220973 148.73655128549376 383.4824524247816" fill="none" stroke="black" stroke-weight="1"></path><path id="SvgjsPath1524" d="M 267.2498241579457 214.94603943476667 L 267.2498241579457 214.94603943476667 145.2197278891461 380.8852453409754" fill="none" stroke="black" stroke-weight="1"></path><path id="SvgjsPath1525" d="M 269.6564979720424 218.4976100885339 L 269.6564979720424 218.4976100885339 141.72735007960833 377.9798371867583" fill="none" stroke="black" stroke-weight="1"></path></svg></svg>