<svg id="SvgjsSvg1001" width="300" height="300" xmlns="http://www.w3.org/2000/svg" version="1.1" xmlns:xlink="http://www.w3.org/1999/xlink" xmlns:svgjs="http://svgjs.com/svgjs" viewBox="-103.71473693847656 -81.71546173095703 207.45590209960938 188.40447998046875"><defs id="SvgjsDefs1002"></defs><svg id="SvgjsSvg1008" style="overflow: visible;"><path id="SvgjsPath1009" d="M 103.7411865765684 0 L 103.7411865765684 0 84.42704431115605 106.6890134348418" fill="none" stroke="black"></path><path id="SvgjsPath1010" d="M 103.48483380702892 3.5554386615532283 L 103.48483380702892 3.5554386615532283 84.32447977998112 106.29893191692685" fill="none" stroke="black"></path><path id="SvgjsPath1011" d="M 102.71704243480517 7.093690586230314 L 102.71704243480517 7.093690586230314 84.01703538345576 105.1320782682946" fill="none" stroke="black"></path><path id="SvgjsPath1012" d="M 101.44160700767887 10.597652116615217 L 101.44160700767887 10.597652116615217 83.50545810711402 103.19859253368742" fill="none" stroke="black"></path><path id="SvgjsPath1013" d="M 99.6648309315566 14.050385352611938 L 99.6648309315566 14.050385352611938 82.7909909101033 100.51526621640409" fill="none" stroke="black"></path><path id="SvgjsPath1014" d="M 97.39549531802957 17.43520002804537 L 97.39549531802957 17.43520002804537 81.8753697052155 97.10538057546815" fill="none" stroke="black"></path><path id="SvgjsPath1015" d="M 94.64481558671538 20.73573419021744 L 94.64481558671538 20.73573419021744 80.76081914120816 92.99848253754091" fill="none" stroke="black"></path><path id="SvgjsPath1016" d="M 91.42638603686021 23.936033292419378 L 91.42638603686021 23.936033292419378 79.45004719766293 88.23010049094701" fill="none" stroke="black"></path><path id="SvgjsPath1017" d="M 87.75611266213735 27.020627317072403 L 87.75611266213735 27.020627317072403 77.94623860551441 82.84140283660473" fill="none" stroke="black"></path><path id="SvgjsPath1018" d="M 83.65213454068204 29.974605556689212 L 83.65213454068204 29.974605556689212 76.25304710923486 76.8788027483641" fill="none" stroke="black"></path><path id="SvgjsPath1019" d="M 79.13473418886572 32.78368869117039 L 79.13473418886572 32.78368869117039 74.37458658947524 70.39351313728277" fill="none" stroke="black"></path><path id="SvgjsPath1020" d="M 74.22623732185552 35.43429781301921 L 74.22623732185552 35.43429781301921 72.31542106773156 63.441056315125046" fill="none" stroke="black"></path><path id="SvgjsPath1021" d="M 68.95090251635868 37.91362006681185 L 68.95090251635868 37.91362006681185 70.08055361732167 56.080733306684024" fill="none" stroke="black"></path><path id="SvgjsPath1022" d="M 63.33480132085593 40.20967058562659 L 63.33480132085593 40.20967058562659 67.67541420761522 48.37505816372457" fill="none" stroke="black"></path><path id="SvgjsPath1023" d="M 57.4056894058382 42.31135042503558 L 57.4056894058382 42.31135042503558 65.10584651105103 40.38916298127988" fill="none" stroke="black"></path><path id="SvgjsPath1024" d="M 51.19286939084326 44.208500214610496 L 51.19286939084326 44.208500214610496 62.378093704996516 32.190179606132986" fill="none" stroke="black"></path><path id="SvgjsPath1025" d="M 44.72704602622249 45.891949267594576 L 44.72704602622249 45.891949267594576 59.49878330294563 23.846604254623966" fill="none" stroke="black"></path><path id="SvgjsPath1026" d="M 38.040174445352925 47.353559911348185 L 38.040174445352925 47.353559911348185 56.474911051910595 15.427651420126471" fill="none" stroke="black"></path><path id="SvgjsPath1027" d="M 31.165302237256416 48.586266824277885 L 31.165302237256416 48.586266824277885 53.31382393513095 7.002603547991183" fill="none" stroke="black"></path><path id="SvgjsPath1028" d="M 24.1364061201282 49.58411118909707 L 24.1364061201282 49.58411118909707 50.023202321398024 -1.359837013503843" fill="none" stroke="black"></path><path id="SvgjsPath1029" d="M 16.98822402296048 50.342269497323684 L 16.98822402296048 50.342269497323684 46.61104130436553 -9.592187313890214" fill="none" stroke="black"></path><path id="SvgjsPath1030" d="M 9.75608340514041 50.85707686577612 L 9.75608340514041 50.85707686577612 43.08563127718555 -17.62880798340806" fill="none" stroke="black"></path><path id="SvgjsPath1031" d="M 2.475726662494738 51.12604475235711 L 2.475726662494738 51.12604475235711 39.45553778966714 -25.40650609674243" fill="none" stroke="black"></path><path id="SvgjsPath1032" d="M -4.816865517347997 51.14787298548874 L -4.816865517347997 51.14787298548874 35.729580736897354 -32.86511074809366" fill="none" stroke="black"></path><path id="SvgjsPath1033" d="M -12.085651977271382 50.92245604904908 L -12.085651977271382 50.92245604904908 31.91681292988983 -39.948015661049745" fill="none" stroke="black"></path><path id="SvgjsPath1034" d="M -19.294709211834945 50.45088359242961 L -19.294709211834945 50.45088359242961 28.02649810032668 -46.60268350775188" fill="none" stroke="black"></path><path id="SvgjsPath1035" d="M -26.408408906984548 49.73543516324779 L -26.408408906984548 49.73543516324779 24.06808839283457 -52.78110701721615" fill="none" stroke="black"></path><path id="SvgjsPath1036" d="M -33.39159402087978 48.779569188176474 L -33.39159402087978 48.779569188176474 20.051201399481563 -58.440222408125" fill="none" stroke="black"></path><path id="SvgjsPath1037" d="M -40.20975253561861 47.58790625515607 L -40.20975253561861 47.58790625515607 15.985596792292588 -63.54227118214679" fill="none" stroke="black"></path><path id="SvgjsPath1038" d="M -46.82918802115059 46.166206777802 L -46.82918802115059 46.166206777802 11.881152610558967 -68.0551068546249" fill="none" stroke="black"></path><path id="SvgjsPath1039" d="M -53.21718616842457 44.52134314997624 L -53.21718616842457 44.52134314997624 7.747841260555715 -71.9524437746303" fill="none" stroke="black"></path><path id="SvgjsPath1040" d="M -59.342176468736874 42.66126652512554 L -59.342176468736874 42.66126652512554 3.595705285978899 -75.21404578987028" fill="none" stroke="black"></path><path id="SvgjsPath1041" d="M -65.17388824023593 40.59496838097291 L -65.17388824023593 40.59496838097291 -0.5651670320269544 -77.82585313747681" fill="none" stroke="black"></path><path id="SvgjsPath1042" d="M -70.68350023047381 38.33243705535557 L -70.68350023047381 38.33243705535557 -4.7246661859679255 -79.78004658272327" fill="none" stroke="black"></path><path id="SvgjsPath1043" d="M -75.84378305564667 35.88460946331242 L -75.84378305564667 35.88460946331242 -8.872686004672763 -81.07504847753988" fill="none" stroke="black"></path><path id="SvgjsPath1044" d="M -80.62923377256486 33.26331822881688 L -80.62923377256486 33.26331822881688 -12.999148207858648 -81.71546106253898" fill="none" stroke="black"></path><path id="SvgjsPath1045" d="M -85.01620191827811 30.481234486716556 L -85.01620191827811 30.481234486716556 -17.09402689293156 -81.7119429833185" fill="none" stroke="black"></path><path id="SvgjsPath1046" d="M -88.98300639444639 27.55180663137132 L -88.98300639444639 27.55180663137132 -21.14737289452683 -81.0810256273516" fill="none" stroke="black"></path><path id="SvgjsPath1047" d="M -92.51004261879643 24.489195308074198 L -92.51004261879643 24.489195308074198 -25.149337957603972 -79.84487150517212" fill="none" stroke="black"></path><path id="SvgjsPath1048" d="M -95.5798794141031 21.30820496150223 L -95.5798794141031 21.30820496150223 -29.090198665364 -78.03097749241303" fill="none" stroke="black"></path><path id="SvgjsPath1049" d="M -98.17734515585585 18.024212272086775 L -98.17734515585585 18.024212272086775 -32.960380063851936 -75.67182631139244" fill="none" stroke="black"></path><path id="SvgjsPath1050" d="M -100.28960275285382 14.653091826237263 L -100.28960275285382 14.653091826237263 -36.75047892584513 -72.80449015653808" fill="none" stroke="black"></path><path id="SvgjsPath1051" d="M -101.90621309016421 11.211139379722725 L -101.90621309016421 11.211139379722725 -40.4512865975038 -69.4701908515556" fill="none" stroke="black"></path><path id="SvgjsPath1052" d="M -103.01918662089805 7.714993085150942 L -103.01918662089805 7.714993085150942 -44.053811372274495 -65.71382136288204" fill="none" stroke="black"></path><path id="SvgjsPath1053" d="M -103.62302285182896 4.181553064325488 L -103.62302285182896 4.181553064325488 -47.54930033768502 -61.583433879123916" fill="none" stroke="black"></path><path id="SvgjsPath1054" d="M -103.71473752771074 0.6278997142623761 L -103.71473752771074 0.6278997142623761 -50.92926064195099 -57.12969999589883" fill="none" stroke="black"></path><path id="SvgjsPath1055" d="M -103.29387737994395 -2.9287888582306003 L -103.29387737994395 -2.9287888582306003 -54.185480128723086 -52.405348816415795" fill="none" stroke="black"></path><path id="SvgjsPath1056" d="M -102.36252236670201 -6.471319874297018 L -102.36252236670201 -6.471319874297018 -57.31004728983974 -47.46458898748289" fill="none" stroke="black"></path><path id="SvgjsPath1057" d="M -100.92527539344506 -9.982568991698274 L -100.92527539344506 -9.982568991698274 -60.295370487606625 -42.362520836323434" fill="none" stroke="black"></path><path id="SvgjsPath1058" d="M -98.989239564625 -13.44556308266254 L -98.989239564625 -13.44556308266254 -63.13419639989973 -37.15454485417479" fill="none" stroke="black"></path><path id="SvgjsPath1059" d="M -96.56398307900689 -16.843562280773753 L -96.56398307900689 -16.843562280773753 -65.81962764327618 -31.89577278739364" fill="none" stroke="black"></path><path id="SvgjsPath1060" d="M -93.66149194210021 -20.160140900291683 L -93.66149194210021 -20.160140900291683 -68.34513953127497 -26.640447545634604" fill="none" stroke="black"></path><path id="SvgjsPath1061" d="M -90.29611072940217 -23.379266836745177 L -90.29611072940217 -23.379266836745177 -70.70459592719057 -21.441378020246074" fill="none" stroke="black"></path><path id="SvgjsPath1062" d="M -86.484471693211 -26.485379064981668 L -86.484471693211 -26.485379064981668 -72.8922641528024 -16.34939472565331" fill="none" stroke="black"></path><path id="SvgjsPath1063" d="M -82.24541256337466 -29.463462860052626 L -82.24541256337466 -29.463462860052626 -74.9028289168372 -11.412831934170532" fill="none" stroke="black"></path><path id="SvgjsPath1064" d="M -77.59988344821616 -32.29912237732308 L -77.59988344821616 -32.29912237732308 -76.73140522932285 -6.677041673036407" fill="none" stroke="black"></path><path id="SvgjsPath1065" d="M -72.57084329574735 -34.9786502409576 L -72.57084329574735 -34.9786502409576 -78.3735502704558 -2.1839445947686214" fill="none" stroke="black"></path><path id="SvgjsPath1066" d="M -67.18314642687504 -37.48909380439737 L -67.18314642687504 -37.48909380439737 -79.82527418514552 2.028377677973705" fill="none" stroke="black"></path><path id="SvgjsPath1067" d="M -61.46341970137105 -39.81831776252977 L -61.46341970137105 -39.81831776252977 -81.08304977700789 5.926044589543977" fill="none" stroke="black"></path><path id="SvgjsPath1068" d="M -55.43993092367227 -41.9550628128876 L -55.43993092367227 -41.9550628128876 -82.14382107825544 9.479689427632234" fill="none" stroke="black"></path><path id="SvgjsPath1069" d="M -49.14244913886884 -43.88900008231406 L -49.14244913886884 -43.88900008231406 -83.00501077466187 12.664719734115183" fill="none" stroke="black"></path><path id="SvgjsPath1070" d="M -42.602097509321375 -45.610781055998864 L -42.602097509321375 -45.610781055998864 -83.66452646756069 15.461522815824807" fill="none" stroke="black"></path><path id="SvgjsPath1071" d="M -35.85119949901432 -47.11208276753198 L -35.85119949901432 -47.11208276753198 -84.12076575766393 17.855614416440076" fill="none" stroke="black"></path><path id="SvgjsPath1072" d="M -28.923119125825657 -48.38564803152952 L -28.923119125825657 -48.38564803152952 -84.37262013834852 19.837729225956192" fill="none" stroke="black"></path><path id="SvgjsPath1073" d="M -21.852096071214152 -49.42532052435034 L -21.852096071214152 -49.42532052435034 -84.41947768895113 21.403852532344697" fill="none" stroke="black"></path><path id="SvgjsPath1074" d="M -14.673076462235809 -50.226074543325225 L -14.673076462235809 -50.226074543325225 -84.26122456152768 22.555192954419287" fill="none" stroke="black"></path><path id="SvgjsPath1075" d="M -7.421540162194037 -50.784039300645226 L -7.421540162194037 -50.784039300645226 -83.89824525746522 23.298096828843494" fill="none" stroke="black"></path><path id="SvgjsPath1076" d="M -0.13332542347992551 -51.096517634473784 L -0.13332542347992551 -51.096517634473784 -83.33142169327405 23.64390545094091" fill="none" stroke="black"></path><path id="SvgjsPath1077" d="M 7.155548230804593 -51.161999046834616 L 7.155548230804593 -51.161999046834616 -82.56213105782994 23.608756981862076" fill="none" stroke="black"></path><path id="SvgjsPath1078" d="M 14.409058021091065 -50.980167005251246 L 14.409058021091065 -50.980167005251246 -81.59224246627265 23.21333542723941" fill="none" stroke="black"></path><path id="SvgjsPath1079" d="M 21.5913559416842 -50.55190047284238 L 21.5913559416842 -50.55190047284238 -80.4241124186904 22.48256965845756" fill="none" stroke="black"></path><path id="SvgjsPath1080" d="M 28.66694592734016 -49.87926965947691 L 28.66694592734016 -49.87926965947691 -79.0605790746246 21.445285981098525" fill="none" stroke="black"></path><path id="SvgjsPath1081" d="M 35.60085928049891 -48.965526014527065 L 35.60085928049891 -48.965526014527065 -77.50495535730536 20.13381825035426" fill="none" stroke="black"></path><path id="SvgjsPath1082" d="M 42.35882749218185 -47.81508650959407 L 42.35882749218185 -47.81508650959407 -75.76102090437257 18.583579985008498" fill="none" stroke="black"></path><path id="SvgjsPath1083" d="M 48.90745160244473 -46.43351228718253 L 48.90745160244473 -46.43351228718253 -73.83301288463927 16.832603335205462" fill="none" stroke="black"></path><path id="SvgjsPath1084" d="M 55.21436726338012 -44.82748177853417 L 55.21436726338012 -44.82748177853417 -71.7256157032095 14.921050110394134" fill="none" stroke="black"></path><path id="SvgjsPath1085" d="M 61.24840468890248 -43.004758420567676 L 61.24840468890248 -43.004758420567676 -69.44394961996386 12.890700368861351" fill="none" stroke="black"></path><path id="SvgjsPath1086" d="M 66.97974270081656 -40.97415312797836 L 66.97974270081656 -40.97415312797836 -66.99355830906592 10.784424306047288" fill="none" stroke="black"></path><path id="SvgjsPath1087" d="M 72.38005610985078 -38.74548170190504 L 72.38005610985078 -38.74548170190504 -64.38039538971542 8.645643352893927" fill="none" stroke="black"></path><path id="SvgjsPath1088" d="M 77.4226557032736 -36.329517381047516 L 77.4226557032736 -36.329517381047516 -61.610809960874604 6.517786505989866" fill="none" stroke="black"></path><path id="SvgjsPath1089" d="M 82.08262014725192 -33.73793876459904 L 82.08262014725192 -33.73793876459904 -58.691531175112395 4.443747957099041" fill="none" stroke="black"></path><path id="SvgjsPath1090" d="M 86.33691915206977 -30.983273358731093 L 86.33691915206977 -30.983273358731093 -55.62965188904774 2.4653520703295286" fill="none" stroke="black"></path><path id="SvgjsPath1091" d="M 90.16452729150409 -28.078837019521956 L 90.16452729150409 -28.078837019521956 -52.43261143011537 0.6228316709362375" fill="none" stroke="black"></path><path id="SvgjsPath1092" d="M 93.54652791384417 -25.03866958505836 L 93.54652791384417 -25.03866958505836 -49.108177521525235 -1.0456745385194621" fill="none" stroke="black"></path><path id="SvgjsPath1093" d="M 96.46620663101085 -21.877467007859675 L 96.46620663101085 -21.877467007859675 -45.66442740933119 -2.5045998296307004" fill="none" stroke="black"></path><path id="SvgjsPath1094" d="M 98.9091339237358 -18.610510315691528 L 98.9091339237358 -18.610510315691528 -42.1097282374651 -3.7213972330743643" fill="none" stroke="black"></path><path id="SvgjsPath1095" d="M 100.8632364545541 -15.253591744167878 L 100.8632364545541 -15.253591744167878 -38.45271671841642 -4.666952251006182" fill="none" stroke="black"></path><path id="SvgjsPath1096" d="M 102.31885673616942 -11.822938398210342 L 102.31885673616942 -11.822938398210342 -34.70227814895268 -5.315955872864791" fill="none" stroke="black"></path><path id="SvgjsPath1097" d="M 103.2688008603008 -8.335133811380565 L 103.2688008603008 -8.335133811380565 -30.86752482186391 -5.647233702189041" fill="none" stroke="black"></path><path id="SvgjsPath1098" d="M 103.70837405112849 -4.807037782261947 L 103.70837405112849 -4.807037782261947 -26.95777388618377 -5.644027478852814" fill="none" stroke="black"></path><path id="SvgjsPath1099" d="M 103.63540386762682 -1.2557048753957365 L 103.63540386762682 -1.2557048753957365 -22.982524709680156 -5.294225797982366" fill="none" stroke="black"></path><path id="SvgjsPath1100" d="M 103.05025094011539 2.3016980192671674 L 103.05025094011539 2.3016980192671674 -18.951435798615186 -4.590541378250213" fill="none" stroke="black"></path><path id="SvgjsPath1101" d="M 101.95580718796627 5.847974669887878 L 101.95580718796627 5.847974669887878 -14.874301330853648 -3.530632812380071" fill="none" stroke="black"></path><path id="SvgjsPath1102" d="M 100.3574815272759 9.365982628097564 L 100.3574815272759 9.365982628097564 -10.76102735933481 -2.1171693353777727" fill="none" stroke="black"></path><path id="SvgjsPath1103" d="M 98.26317313913648 12.838716094370065 L 98.26317313913648 12.838716094370065 -6.621607743725763 -0.3578377648210477" fill="none" stroke="black"></path><path id="SvgjsPath1104" d="M 95.6832324306194 16.249388122843712 L 95.6832324306194 16.249388122843712 -2.4660998687349656 1.7347086040821722" fill="none" stroke="black"></path><path id="SvgjsPath1105" d="M 92.63040988140786 19.581511768220384 L 92.63040988140786 19.581511768220384 1.6953997919196373 4.142958734704479" fill="none" stroke="black"></path><path id="SvgjsPath1106" d="M 89.11979302888649 22.818979782482746 L 89.11979302888649 22.818979782482746 5.852780206514376 6.844709175100348" fill="none" stroke="black"></path><path id="SvgjsPath1107" d="M 85.16873190311834 25.946142476182427 L 85.16873190311834 25.946142476182427 9.9959403516954 9.813284315717587" fill="none" stroke="black"></path><path id="SvgjsPath1108" d="M 80.79675328022064 28.947883367922433 L 80.79675328022064 28.947883367922433 14.114813754537265 13.017809320615793" fill="none" stroke="black"></path><path id="SvgjsPath1109" d="M 76.02546417791373 31.809692256349923 L 76.02546417791373 31.809692256349923 18.199392950654964 16.423532897737548" fill="none" stroke="black"></path></svg></svg>