<svg id="SvgjsSvg1001" width="300" height="300" xmlns="http://www.w3.org/2000/svg" version="1.1" xmlns:xlink="http://www.w3.org/1999/xlink" xmlns:svgjs="http://svgjs.com/svgjs"><defs id="SvgjsDefs1002"></defs><path id="SvgjsPath1008" d="M 289.2 194.4 C 289.2 194.4 150 88.80000000000001 294 150" fill="none" stroke="black" stroke-weight="1"></path><path id="SvgjsPath1009" d="M 289.0260362469793 194.3861257226412 C 289.0260362469793 194.3861257226412 144.7221997250164 85.81775890446256 293.8200374968751 157.19700037497768" fill="none" stroke="black" stroke-weight="1"></path><path id="SvgjsPath1010" d="M 288.50457980670114 194.3445115615365 C 288.50457980670114 194.3445115615365 139.45759120209493 82.99593998619893 293.2805998000357 164.37601199714325" fill="none" stroke="black" stroke-weight="1"></path><path id="SvgjsPath1011" d="M 287.63693404869707 194.275183524182 C 287.63693404869707 194.275183524182 134.21933321078794 80.34159632292995 292.3830352227901 171.5190910761983" fill="none" stroke="black" stroke-weight="1"></path><path id="SvgjsPath1012" d="M 286.42526763550086 194.17818493834434 C 286.42526763550086 194.17818493834434 129.02051866804152 77.86136239145827 291.1295872091388 178.6083836344888" fill="none" stroke="black" stroke-weight="1"></path><path id="SvgjsPath1013" d="M 284.8726091021217 194.0535764249822 C 284.8726091021217 194.0535764249822 123.8741419027224 75.56143748493174 289.5233887263328 185.6261701326513" fill="none" stroke="black" stroke-weight="1"></path><path id="SvgjsPath1014" d="M 282.9828392862844 193.90143586036027 C 282.9828392862844 193.90143586036027 118.79306617656258 73.44757021783894 287.56845443408724 192.55490975923288" fill="none" stroke="black" stroke-weight="1"></path><path id="SvgjsPath1015" d="M 280.76068162835514 193.72185832737904 C 280.76068162835514 193.72185832737904 113.78999153270433 71.52504415746678 285.2696706500226 199.377284273585" fill="none" stroke="black" stroke-weight="1"></path><path id="SvgjsPath1016" d="M 278.2116903652016 193.51495605615114 C 278.2116903652016 193.51495605615114 108.87742305220652 69.79866461773405 282.63278313641547 206.07624129244567" fill="none" stroke="black" stroke-weight="1"></path><path id="SvgjsPath1017" d="M 275.34223664749265 193.28085835386108 C 275.34223664749265 193.28085835386108 104.06763959785408 68.27274664840887 279.6643827387855 212.63503691201714" fill="none" stroke="black" stroke-weight="1"></path><path id="SvgjsPath1018" d="M 272.15949261513987 193.01971152395262 C 272.15949261513987 193.01971152395262 99.37266312339617 66.95110424973198 276.37188891221365 219.03727755900522" fill="none" stroke="black" stroke-weight="1"></path><path id="SvgjsPath1019" d="M 268.6714134706832 192.73167877469376 C 268.6714134706832 192.73167877469376 94.80422862492242 65.83704083940192 272.76353117656885 225.2669609660149" fill="none" stroke="black" stroke-weight="1"></path><path id="SvgjsPath1020" d="M 264.8867175954272 192.41694011717692 C 264.8867175954272 192.41694011717692 90.37375480948427 64.93334099575152 268.8483285469937 231.3085161688851" fill="none" stroke="black" stroke-weight="1"></path><path id="SvgjsPath1021" d="M 260.8148647580286 192.07569225281782 C 260.8148647580286 192.07569225281782 86.09231555427424 64.24226349775218 264.636066991064 237.1468424259897" fill="none" stroke="black" stroke-weight="1"></path><path id="SvgjsPath1022" d="M 256.46603247000075 191.7081484504236 C 256.46603247000075 191.7081484504236 81.97061222769982 63.76553567924262 260.1372749689663 242.76734696222752" fill="none" stroke="black" stroke-weight="1"></path><path id="SvgjsPath1023" d="M 251.85109054723586 191.31453841290676 C 251.85109054723586 191.31453841290676 78.01894694153593 63.50434911149411 255.36319711783017 248.15598144336013" fill="none" stroke="black" stroke-weight="1"></path><path id="SvgjsPath1024" d="M 246.98157394112542 190.8951081337281 C 246.98157394112542 190.8951081337281 74.24719680101039 63.45935662490268 250.3257661459918 253.2992770895313" fill="none" stroke="black" stroke-weight="1"></path><path id="SvgjsPath1025" d="M 241.8696539071895 190.4501197431591 C 241.8696539071895 190.4501197431591 70.66478921718509 63.63067067725318 245.0375730074374 258.18437834020216" fill="none" stroke="black" stroke-weight="1"></path><path id="SvgjsPath1026" d="M 236.52810758327644 189.97985134445884 C 236.52810758327644 189.97985134445884 67.28067834333775 64.01786307263336 239.51183543097565 262.7990749863576" fill="none" stroke="black" stroke-weight="1"></path><path id="SvgjsPath1027" d="M 230.97028605337255 189.48459684006866 C 230.97028605337255 189.48459684006866 64.10332269424214 64.61996603170067 233.7623648827992 267.13183268966986" fill="none" stroke="black" stroke-weight="1"></path><path id="SvgjsPath1028" d="M 225.210080976845 188.96466574793254 C 225.210080976845 188.96466574793254 61.14066400428614 65.4354746106266 227.8035320450121 271.1718218123371" fill="none" stroke="black" stroke-weight="1"></path><path id="SvgjsPath1029" d="M 219.26188986652835 188.4203830080586 C 219.26188986652835 188.4203830080586 58.400107377271794 66.46235046267249 221.65023089640863 274.9089444855384" fill="none" stroke="black" stroke-weight="1"></path><path id="SvgjsPath1030" d="M 213.14058010244034 187.85208877944206 C 213.14058010244034 187.85208877944206 55.888502777512414 67.69802693299484 215.3178414852831 278.3338598488467" fill="none" stroke="black" stroke-weight="1"></path><path id="SvgjsPath1031" d="M 206.86145177107466 187.26013822747703 C 206.86145177107466 187.26013822747703 53.61212790848896 69.13941547394569 208.8221914873186 281.43800739751504" fill="none" stroke="black" stroke-weight="1"></path><path id="SvgjsPath1032" d="M 200.4401994231529 186.6449013019897 C 200.4401994231529 186.6449013019897 51.5766725218609 70.78291336483333 202.17951664464093 284.21362837928064" fill="none" stroke="black" stroke-weight="1"></path><path id="SvgjsPath1033" d="M 193.89287284542132 186.00676250603166 C 193.89287284542132 186.00676250603166 49.787224196050104 72.62441271684767 195.40642018491863 286.65378518720445" fill="none" stroke="black" stroke-weight="1"></path><path id="SvgjsPath1034" d="M 187.2358369445425 185.34612065557806 C 187.2358369445425 185.34612065557806 48.248255619944416 74.65931074064306 188.5198313219405 288.7523787000758" fill="none" stroke="black" stroke-weight="1"></path><path id="SvgjsPath1035" d="M 180.48573084335132 184.66338863028062 C 180.48573084335132 184.66338863028062 46.9636134135048 76.88252125091434 181.53696294139792 290.50416352703894" fill="none" stroke="black" stroke-weight="1"></path><path id="SvgjsPath1036" d="M 173.65942629171346 183.95899311543127 C 173.65942629171346 183.95899311543127 45.9365085132186 79.2884873792115 174.4752685776346 291.9047611183383" fill="none" stroke="black" stroke-weight="1"></path><path id="SvgjsPath1037" d="M 166.77398549593732 183.23337433529773 C 166.77398549593732 183.23337433529773 45.169508146430644 81.87119546321681 167.3523987889007 292.95067070941275" fill="none" stroke="black" stroke-weight="1"></path><path id="SvgjsPath1038" d="M 159.84661847214414 182.48698577799763 C 159.84661847214414 182.48698577799763 44.66452941461185 84.62419007776849 160.1861570401491 293.63927807098383" fill="none" stroke="black" stroke-weight="1"></path><path id="SvgjsPath1039" d="M 152.89464003019037 181.72029391208335 C 152.89464003019037 181.72029391208335 44.4228345016039 87.54059017006213 152.9944552036452 293.96886204326745" fill="none" stroke="black" stroke-weight="1"></path><path id="SvgjsPath1040" d="M 145.93542649566052 180.93377789501415 C 145.93542649566052 180.93377789501415 44.44502751881707 90.61310625869879 145.7952687886143 293.93859883797677" fill="none" stroke="black" stroke-weight="1"></path><path id="SvgjsPath1041" d="M 138.98637227810252 180.12792927369847 C 138.98637227810252 180.12792927369847 44.731052995266154 93.83405865359231 138.6065920118302 293.5485640973643" fill="none" stroke="black" stroke-weight="1"></path><path id="SvgjsPath1042" d="M 132.06484639406284 179.3032516772932 C 132.06484639406284 179.3032516772932 45.280196016219335 97.1953966511951 131.44639282144433 292.79973270515546" fill="none" stroke="black" stroke-weight="1"></path><path id="SvgjsPath1043" d="M 125.18814905359058 178.46026050245163 C 125.18814905359058 178.46026050245163 46.09108401011228 100.68871865706403 124.33256798647301 291.6939763498469" fill="none" stroke="black" stroke-weight="1"></path><path id="SvgjsPath1044" d="M 118.37346841872215 177.59948259121748 C 118.37346841872215 177.59948259121748 47.16169017926261 104.30529318547144 117.28289836419533 290.2340588464601" fill="none" stroke="black" stroke-weight="1"></path><path id="SvgjsPath1045" d="M 111.63783764202768 176.72145590176578 C 111.63783764202768 176.72145590176578 48.48933856580838 108.03608068357192 110.31500445727002 288.42362922844313" fill="none" stroke="black" stroke-weight="1"></path><path id="SvgjsPath1046" d="M 104.99809229260019 175.8267291721964 C 104.99809229260019 175.8267291721964 50.070710740209066 111.87175612557672 103.44630237165538 286.26721262698766" fill="none" stroke="black" stroke-weight="1"></path><path id="SvgjsPath1047" d="M 98.47082827590071 174.91586157759073 C 98.47082827590071 174.91586157759073 51.901854095591446 115.80273232046204 96.69396028541453 283.7701989605571" fill="none" stroke="black" stroke-weight="1"></path><path id="SvgjsPath1048" d="M 92.07236035263767 173.9894223805454 C 92.07236035263767 173.9894223805454 53.978191727208056 119.81918387495347 90.07485553721139 280.9388294628981" fill="none" stroke="black" stroke-weight="1"></path><path id="SvgjsPath1049" d="M 85.81868136036148 173.0479905754016 C 85.81868136036148 173.0479905754016 56.29453387231558 123.91107175189231 83.60553244175325 277.780181083206" fill="none" stroke="black" stroke-weight="1"></path><path id="SvgjsPath1050" d="M 79.72542223969978 172.09215452639268 C 79.72542223969978 172.09215452639268 58.845090881878946 128.06816836260023 77.30216093762047 274.3021487974378" fill="none" stroke="black" stroke-weight="1"></path><path id="SvgjsPath1051" d="M 73.80781296514623 171.12251159993542 C 73.80781296514623 171.12251159993542 61.62348769167866 132.28008313052453 71.18049617084093 270.5134258749836" fill="none" stroke="black" stroke-weight="1"></path><path id="SvgjsPath1052" d="M 68.08064447805586 170.13966779129564 C 68.08064447805586 170.13966779129564 64.62277975665128 136.53628846226826 65.2558391152302 266.42348215002096" fill="none" stroke="black" stroke-weight="1"></path><path id="SvgjsPath1053" d="M 62.55823171699471 169.14423734586077 C 62.55823171699471 169.14423734586077 67.83547040863552 140.82614606109087 59.542998327925574 262.0425403518606" fill="none" stroke="black" stroke-weight="1"></path><path id="SvgjsPath1054" d="M 57.25437783784851 168.13684237525658 C 57.25437783784851 168.13684237525658 71.25352959413834 145.13893351710993 54.056252935705345 257.3815505534477" fill="none" stroke="black" stroke-weight="1"></path><path id="SvgjsPath1055" d="M 52.18233971312132 167.11811246854757 C 52.18233971312132 167.11811246854757 74.8684139452868 149.4638711077418 48.809316944608284 252.45216280188163" fill="none" stroke="black" stroke-weight="1"></path><path id="SvgjsPath1056" d="M 47.35479479665868 166.08868429876432 C 47.35479479665868 166.08868429876432 78.6710881337984 153.79014874139372 43.81530496206071 247.26669799936576" fill="none" stroke="black" stroke-weight="1"></path><path id="SvgjsPath1057" d="M 42.78380943661489 165.04920122500363 C 42.78380943661489 165.04920122500363 82.65204745459634 158.10695297706351 39.086699417187816 241.83811710736862" fill="none" stroke="black" stroke-weight="1"></path><path id="SvgjsPath1058" d="M 38.4808087158669 164.00031289034996 C 38.4808087158669 164.00031289034996 86.80134158262211 162.40349405231012 34.63531936124164 236.17998875096984" fill="none" stroke="black" stroke-weight="1"></path><path id="SvgjsPath1059" d="M 34.45654789525716 162.94267481586965 C 34.45654789525716 162.94267481586965 91.10859944346628 166.66903285204077 30.472290926128082 230.30645530436414" fill="none" stroke="black" stroke-weight="1"></path><path id="SvgjsPath1060" d="M 30.721085531042647 161.8769479909317 C 30.721085531042647 161.8769479909317 95.56305513565326 170.89290775070586 26.608019514871714 224.23219754229098" fill="none" stroke="black" stroke-weight="1"></path><path id="SvgjsPath1061" d="M 27.283758333742696 160.80379846011076 C 27.283758333742696 160.80379846011076 100.15357483978826 175.06456126081017 23.052163793526944 217.97239794574327" fill="none" stroke="black" stroke-weight="1"></path><path id="SvgjsPath1062" d="M 24.1531578312252 159.7238969069311 C 24.1531578312252 159.7238969069311 104.86868464730739 179.17356642113361 19.81361154954331 211.5427027536717" fill="none" stroke="black" stroke-weight="1"></path><path id="SvgjsPath1063" d="M 21.337108894361165 158.63791823471107 C 21.337108894361165 158.63791823471107 109.69659923927358 183.20965285870392 16.90045747692534 204.959182855536" fill="none" stroke="black" stroke-weight="1"></path><path id="SvgjsPath1064" d="M 18.842650178922867 157.54654114477074 C 18.842650178922867 157.54654114477074 114.62525134353623 187.16273245938032 14.319982943713313 198.23829362245058" fill="none" stroke="black" stroke-weight="1"></path><path id="SvgjsPath1065" d="M 16.676016532609907 156.45044771226543 C 16.676016532609907 156.45044771226543 119.64232189662707 191.02292458288522 12.078637792355096 191.3968337773267" fill="none" stroke="black" stroke-weight="1"></path><path id="SvgjsPath1066" d="M 14.842623411177073 155.35032295991113 C 14.842623411177073 155.35032295991113 124.73527083500322 194.78058075925904 10.182024218459048 184.45190340681378" fill="none" stroke="black" stroke-weight="1"></path><path id="SvgjsPath1067" d="M 13.347053342615254 154.2468544298674 C 13.347053342615254 154.2468544298674 129.89136843867527 198.42630880501034 8.634882768222695 177.42086121998827" fill="none" stroke="black" stroke-weight="1"></path><path id="SvgjsPath1068" d="M 12.193044473218038 153.14073175404607 C 12.193044473218038 153.14073175404607 135.0977271488777 201.9509962986832 7.441080489535921 170.32128116062125" fill="none" stroke="black" stroke-weight="1"></path><path id="SvgjsPath1069" d="M 11.383481224162722 152.03264622311372 C 11.383481224162722 152.03264622311372 140.34133378025433 205.34583335716522 6.603601266375222 163.17090848147134" fill="none" stroke="black" stroke-weight="1"></path><path id="SvgjsPath1070" d="M 10.920387081959518 150.92329035445738 C 10.920387081959518 150.92329035445738 145.60908204704418 208.6023346558071 6.124538360647762 155.9876153903943" fill="none" stroke="black" stroke-weight="1"></path><path id="SvgjsPath1071" d="M 10.8049195407892 149.8133574593839 C 10.8049195407892 149.8133574593839 150.88780532197055 211.71236063731544 6.00508918012676 148.78935637913105" fill="none" stroke="black" stroke-weight="1"></path><path id="SvgjsPath1072" d="M 11.037367209370359 148.70354120982284 C 11.037367209370359 148.70354120982284 156.16430954595205 214.6681378564066 6.245552285555533 141.59412334642897" fill="none" stroke="black" stroke-weight="1"></path><path id="SvgjsPath1073" d="M 11.61714908958794 147.59453520480412 C 11.61714908958794 147.59453520480412 161.42540620637905 217.46227840937186 6.845326644401297 134.4199006276649" fill="none" stroke="black" stroke-weight="1"></path><path id="SvgjsPath1074" d="M 12.542816028685934 146.48703253698108 C 12.542816028685934 146.48703253698108 166.65794530152664 220.08779839998914 7.802913133123383 127.28462004337277" fill="none" stroke="black" stroke-weight="1"></path><path id="SvgjsPath1075" d="M 13.812054341394656 145.38172535947044 C 13.812054341394656 145.38172535947044 171.8488482087106 222.53813539562623 9.11591828420137 120.206116079031" fill="none" stroke="black" stroke-weight="1"></path><path id="SvgjsPath1076" d="M 15.421691592938885 144.2793044532788 C 15.421691592938885 144.2793044532788 176.98514037403297 224.80716482990488 10.781060268557468 113.20208130813685" fill="none" stroke="black" stroke-weight="1"></path><path id="SvgjsPath1077" d="M 17.367704528472586 143.18045879558719 C 17.367704528472586 143.18045879558719 182.05398374200968 226.88921531092714 12.794177098419937 106.29002216998678" fill="none" stroke="black" stroke-weight="1"></path><path id="SvgjsPath1078" d="M 19.645229129120935 142.08587512916264 C 19.645229129120935 142.08587512916264 187.0427088440234 228.77908279680128 15.150237030125112 99.48721521269533" fill="none" stroke="black" stroke-weight="1"></path><path id="SvgjsPath1079" d="M 22.248572769494146 140.99623753316652 C 22.248572769494146 140.99623753316652 191.93884646539692 230.4720436030367 17.843351140856015 92.81066391082237" fill="none" stroke="black" stroke-weight="1"></path><path id="SvgjsPath1080" d="M 25.17122844628645 139.91222699562704 C 25.17122844628645 139.91222699562704 196.73015881193595 231.96386620929462 20.86678804788255 86.27705616554188" fill="none" stroke="black" stroke-weight="1"></path><path id="SvgjsPath1081" d="M 28.405891042395524 138.8345209878441 C 28.405891042395524 138.8345209878441 201.40467009804138 233.25082183598568 24.212990733512612 79.9027225935799" fill="none" stroke="black" stroke-weight="1"></path><path id="SvgjsPath1082" d="M 31.94447558591081 137.76379304099174 C 31.94447558591081 137.76379304099174 205.95069647993643 234.32969376427667 27.873595433700828 73.7035957091776" fill="none" stroke="black" stroke-weight="1"></path><path id="SvgjsPath1083" d="M 35.778137458332736 136.70071232518302 C 35.778137458332736 136.70071232518302 210.356875259191 235.1977853762125 31.839452543102823 67.69517010110313" fill="none" stroke="black" stroke-weight="1"></path><path id="SvgjsPath1084" d="M 39.89729450151273 135.64594323126056 C 39.89729450151273 135.64594323126056 214.61219328355065 235.85292689485664 36.10064948432351 61.89246370424908" fill="none" stroke="black" stroke-weight="1"></path><path id="SvgjsPath1085" d="M 44.29165096805838 134.60014495557385 C 44.29165096805838 134.60014495557385 218.7060144740812 236.29348080760366 40.646535484198324 56.30998026261652" fill="none" stroke="black" stroke-weight="1"></path><path id="SvgjsPath1086" d="M 48.95022325533992 133.56397108800297 C 48.95022325533992 133.56397108800297 222.62810640982718 236.51834595910776 45.465748195179245 50.96167307750838" fill="none" stroke="black" stroke-weight="1"></path><path id="SvgjsPath1087" d="M 53.86136735877672 132.53806920348626 C 53.86136735877672 132.53806920348626 226.3686659035352 236.5269603035976 50.54624209528626 45.860910131542866" fill="none" stroke="black" stroke-weight="1"></path><path id="SvgjsPath1088" d="M 59.01280797578457 131.523080457307 C 59.01280797578457 131.523080457307 229.91834350451677 236.3193023096983 55.875318595639214 41.02044067565892" fill="none" stroke="black" stroke-weight="1"></path><path id="SvgjsPath1089" d="M 64.39166918763937 130.51963918439222 C 64.39166918763937 130.51963918439222 233.26826686740577 235.89589101424838 61.43965778031658 36.452363362628475" fill="none" stroke="black" stroke-weight="1"></path><path id="SvgjsPath1090" d="M 69.98450664256822 129.52837250287408 C 69.98450664256822 129.52837250287408 236.41006292840132 235.25778472497808 67.22535169920852 32.16809600672545" fill="none" stroke="black" stroke-weight="1"></path><path id="SvgjsPath1091" d="M 75.77734115962728 128.5498999221614 C 75.77734115962728 128.5498999221614 239.33587883356674 234.4065783752913 73.21793913064892 28.178347045136263" fill="none" stroke="black" stroke-weight="1"></path><path id="SvgjsPath1092" d="M 81.75569366937378 127.58483295576646 C 81.75569366937378 127.58483295576646 242.03840156687454 233.34439953776257 79.4024417269384 24.493088772443826" fill="none" stroke="black" stroke-weight="1"></path><path id="SvgjsPath1093" d="M 87.90462140399916 126.633774739129 C 87.90462140399916 126.633774739129 244.51087622893806 232.07390310631362 85.76340145241292 21.12153241508443" fill="none" stroke="black" stroke-weight="1"></path><path id="SvgjsPath1094" d="M 94.20875524646652 125.6973196526761 C 94.20875524646652 125.6973196526761 246.74712292074213 230.59826466036137 92.2849192204826 18.072105108078915" fill="none" stroke="black" stroke-weight="1"></path><path id="SvgjsPath1095" d="M 100.65233814529911 124.77605295035389 C 100.65233814529911 124.77605295035389 248.74155219017194 228.92117252752303 98.95069463306804 15.352428831583694" fill="none" stroke="black" stroke-weight="1"></path><path id="SvgjsPath1096" d="M 107.21926449900297 123.87055039386279 C 107.21926449900297 123.87055039386279 250.4891790027326 227.04681856471797 105.74406672310653 12.969301359910048" fill="none" stroke="black" stroke-weight="1"></path><path id="SvgjsPath1097" d="M 113.89312041168297 122.98137789282522 C 113.89312041168297 122.98137789282522 251.98563520153925 224.97988768070857 112.64805559829273 10.928679270628322" fill="none" stroke="black" stroke-weight="1"></path><path id="SvgjsPath1098" d="M 120.65722471923438 122.10909115111052 C 120.65722471923438 122.10909115111052 253.22718042543409 222.72554612626803 119.6454048819666 9.235663056226286" fill="none" stroke="black" stroke-weight="1"></path><path id="SvgjsPath1099" d="M 127.49467068356574 121.25423531953811 C 127.49467068356574 121.25423531953811 254.21071145794164 220.2894285812441 126.718624845068 7.89448437553412" fill="none" stroke="black" stroke-weight="1"></path><path id="SvgjsPath1100" d="M 134.38836825063925 120.41734465517595 C 134.38836825063925 120.41734465517595 254.93376998369376 217.6776240707938 133.85003612135097 6.908495476781269" fill="none" stroke="black" stroke-weight="1"></path><path id="SvgjsPath1101" d="M 141.32108676670552 119.5989421874473 C 141.32108676670552 119.5989421874473 255.3945487329376 214.89666074599182 141.02181389659194 6.280160818721441" fill="none" stroke="black" stroke-weight="1"></path><path id="SvgjsPath1102" d="M 148.2754980459644 118.79953939125434 C 148.2754980459644 118.79953939125434 255.59189599876902 211.95348956685243 148.21603246134248 6.011050910769484" fill="none" stroke="black" stroke-weight="1"></path><path id="SvgjsPath1103" d="M 155.23421968200512 118.01963586732302 C 155.23421968200512 118.01963586732302 255.52531851579994 208.85546692854953 155.41471001586734 6.101838387545513" fill="none" stroke="black" stroke-weight="1"></path><path id="SvgjsPath1104" d="M 162.17985849476972 117.25971902996884 C 162.17985849476972 117.25971902996884 255.19498269306484 205.61033627425994 162.59985361527902 6.552296327638828" fill="none" stroke="black" stroke-weight="1"></path><path id="SvgjsPath1105" d="M 169.09505400444507 116.52026380247877 C 169.09505400444507 116.52026380247877 254.60171419808506 202.22620874058794 169.75350414252938 7.36129882079311" fill="none" stroke="black" stroke-weight="1"></path><path id="SvgjsPath1106" d="M 175.96252182362122 115.80173232029969 C 175.96252182362122 115.80173232029969 253.74699589312968 198.71154288394817 176.85778119684952 8.526823782095875" fill="none" stroke="black" stroke-weight="1"></path><path id="SvgjsPath1107" d="M 182.76509685925828 115.10457364221875 C 182.76509685925828 115.10457364221875 252.63296412883253 195.07512353857976 183.8949277854396 10.045958006137482" fill="none" stroke="black" stroke-weight="1"></path><path id="SvgjsPath1108" d="M 189.4857762164798 114.42922346971628 C 189.4857762164798 114.42922346971628 251.26240340442774 191.32603985903546 190.84735470670324 11.914904448507684" fill="none" stroke="black" stroke-weight="1"></path><path id="SvgjsPath1109" d="M 196.1077616969548 113.77610387466646 C 196.1077616969548 113.77610387466646 249.63873940795207 187.47366260202892 197.6976845140912 14.128991716428999" fill="none" stroke="black" stroke-weight="1"></path><path id="SvgjsPath1110" d="M 202.6145017856456 113.14562303555627 C 202.6145017856456 113.14562303555627 247.7660304538089 183.52762070442355 204.42879495066785 16.682685744806008" fill="none" stroke="black" stroke-weight="1"></path><path id="SvgjsPath1111" d="M 208.98973302097505 112.53817498238708 C 208.98973302097505 112.53817498238708 245.64895733909566 179.4977772159046 211.02386174583629 19.569603628505917" fill="none" stroke="black" stroke-weight="1"></path><path id="SvgjsPath1112" d="M 215.21752064501118 111.95413935041887 C 215.21752064501118 111.95413935041887 243.29281164404875 175.39420464649126 217.46640066725297 22.782529576297236" fill="none" stroke="black" stroke-weight="1"></path><path id="SvgjsPath1113" d="M 221.28229843206293 111.3938811429104 C 221.28229843206293 111.3938811429104 240.70348250584868 171.2271597905077 223.74030872282373 26.313432946569975" fill="none" stroke="black" stroke-weight="1"></path><path id="SvgjsPath1114" d="M 227.16890759613796 110.85775050300423 C 227.16890759613796 110.85775050300423 237.88744189884454 167.00705808993894 229.82990440979788 30.153488319757372" fill="none" stroke="black" stroke-weight="1"></path><path id="SvgjsPath1115" d="M 232.86263468001277 110.34608249489844 C 232.86263468001277 110.34608249489844 234.85172845798832 162.74444760125016 235.71996691035804 34.29309755728865" fill="none" stroke="black" stroke-weight="1"></path><path id="SvgjsPath1116" d="M 238.3492483312135 109.85919689444259 C 238.3492483312135 109.85919689444259 231.6039298859131 158.44998263073828 241.3957741357381 38.7219137919368" fill="none" stroke="black" stroke-weight="1"></path><path id="SvgjsPath1117" d="M 243.61503487298526 109.39739798928818 C 243.61503487298526 109.39739798928818 228.15216398762806 154.13439710431524 246.84313952377784 43.42886728959809" fill="none" stroke="black" stroke-weight="1"></path><path id="SvgjsPath1118" d="M 248.64683258134227 108.96097438871871 C 248.64683258134227 108.96097438871871 224.50505838023417 149.80847773828378 252.0484474979403 48.402193117862396" fill="none" stroke="black" stroke-weight="1"></path><path id="SvgjsPath1119" d="M 253.43206458252317 108.55019884327835 C 253.43206458252317 108.55019884327835 220.6717289283742 145.48303707816396 256.9986874991619 53.62946055221704" fill="none" stroke="black" stroke-weight="1"></path><path id="SvgjsPath1120" d="M 257.9587702886257 108.16532807431167 C 257.9587702886257 108.16532807431167 216.66175695931818 141.16888647295988 261.6814865054749 59.09760414638441" fill="none" stroke="black" stroke-weight="1"></path><path id="SvgjsPath1121" d="M 262.2156352928474 107.80660261352118 C 262.2156352928474 107.80660261352118 212.48516531463565 136.87680905241825 266.085139958118 64.79295638913321" fill="none" stroke="black" stroke-weight="1"></path><path id="SvgjsPath1122" d="M 266.1920196496101 107.47424665264288 C 266.1920196496101 107.47424665264288 208.15239329831155 132.61753277481984 270.198641016838 70.7012818659387" fill="none" stroke="black" stroke-weight="1"></path><path id="SvgjsPath1123" d="M 269.8779844688828 107.16846790333364 C 269.8779844688828 107.16846790333364 203.6742705839228 128.4017036126706 274.0117080712581 76.80781284010526" fill="none" stroke="black" stroke-weight="1"></path><path id="SvgjsPath1124" d="M 273.2643167582308 106.88945746735826 C 273.2643167582308 106.88945746735826 199.06199014609405 124.23985894331435 277.5148104395491 83.09728616441735" fill="none" stroke="black" stroke-weight="1"></path><path id="SvgjsPath1125" d="M 276.3425524504984 106.63738971715703 C 276.3425524504984 106.63738971715703 194.32708028389038 120.14240121097754 280.6991921901707 89.55398143105859" fill="none" stroke="black" stroke-weight="1"></path><path id="SvgjsPath1126" d="M 279.1049975595691 106.4124221868687 C 279.1049975595691 106.4124221868687 189.48137580607414 116.11957192607646 283.5568940271404 96.16176026444424" fill="none" stroke="black" stroke-weight="1"></path><path id="SvgjsPath1127" d="M 281.54474741132384 106.21469547387667 C 281.54474741132384 106.21469547387667 184.53698845024596 112.18142606677446 286.08077318412813 102.90410665875554" fill="none" stroke="black" stroke-weight="1"></path><path id="SvgjsPath1128" d="M 283.6557039017304 106.04433315094026 C 283.6557039017304 106.04433315094026 179.50627660980803 108.33780694677296 288.2645212776522 109.76416825935283" fill="none" stroke="black" stroke-weight="1"></path><metadata>116 * Math.cos(t/1);37 * Math.cos(t/2);44 * Math.sin(t/1)+44 * Math.sin(t/1);51 * Math.cos(t/1)+51 * Math.sin(t/1)</metadata></svg>