<svg id="SvgjsSvg1498" width="300" height="300" xmlns="http://www.w3.org/2000/svg" version="1.1" xmlns:xlink="http://www.w3.org/1999/xlink" xmlns:svgjs="http://svgjs.com/svgjs"><defs id="SvgjsDefs1499"></defs><path id="SvgjsPath1500" d="M 193.01516561699268 185.92035455024768 C 193.01516561699268 185.92035455024768 49.568431879231795 72.88350114698981 194.49844718999242 286.9521383465021" fill="none" stroke="black" stroke-weight="1"></path><path id="SvgjsPath1501" d="M 186.34481222664957 185.25675635458106 C 186.34481222664957 185.25675635458106 48.063015209621256 74.9436991288123 187.5980816137754 289.00497925960735" fill="none" stroke="black" stroke-weight="1"></path><path id="SvgjsPath1502" d="M 179.5836157337521 184.5711238338498 C 179.5836157337521 184.5711238338498 46.81238791423122 77.19149877424688 180.6037404142263 290.7103801169574" fill="none" stroke="black" stroke-weight="1"></path><path id="SvgjsPath1503" d="M 172.74847560836957 183.86388548606106 C 172.74847560836957 183.86388548606106 45.819675909986074 79.62128175481145 173.53290580176161 292.0640783045644" fill="none" stroke="black" stroke-weight="1"></path><path id="SvgjsPath1504" d="M 165.85647614114313 183.1354833121606 C 165.85647614114313 183.1354833121606 45.087360459902044 82.22697487846104 166.4032511804929 293.06269028195175" fill="none" stroke="black" stroke-weight="1"></path><path id="SvgjsPath1505" d="M 158.92484374145698 182.38637253979658 C 158.92484374145698 182.38637253979658 44.61727197122177 85.00206526940526 159.232596973921 293.7037200392431" fill="none" stroke="black" stroke-weight="1"></path><path id="SvgjsPath1506" d="M 151.97090388038595 181.6170213388171 C 151.97090388038595 181.6170213388171 44.41058542034963 87.93961664690596 152.03886608315787 293.98556533588686" fill="none" stroke="black" stroke-weight="1"></path><path id="SvgjsPath1507" d="M 145.01203778604088 180.82791052867933 C 145.01203778604088 180.82791052867933 44.46781741602253 91.03228666236653 144.8400390890078 293.90752170542385" fill="none" stroke="black" stroke-weight="1"></path><path id="SvgjsPath1508" d="M 138.0656389995502 180.01953327795297 C 138.0656389995502 180.01953327795297 44.78882490805712 94.27234525137979 137.65410930987952 293.46978421628575" fill="none" stroke="black" stroke-weight="1"></path><path id="SvgjsPath1509" d="M 131.14906990026557 179.19239479610584 C 131.14906990026557 179.19239479610584 45.3728055449008 97.65169395486299 130.49903782786095 292.6734469842262" fill="none" stroke="black" stroke-weight="1"></path><path id="SvgjsPath1510" d="M 124.27961830885566 178.34701201776465 C 124.27961830885566 178.34701201776465 46.21829967909268 101.16188616098825 123.39270859536792 291.52050043760084" fill="none" stroke="black" stroke-weight="1"></path><path id="SvgjsPath1511" d="M 117.4744542767578 177.48391327964742 C 117.4744542767578 177.48391327964742 47.323194015622136 104.79414821731304 116.35288373457703 290.01382634233346" fill="none" stroke="black" stroke-weight="1"></path><path id="SvgjsPath1512" d="M 110.75058716999122 176.6036379903704 C 110.75058716999122 176.6036379903704 48.68472689406566 108.53940136034205 109.39715914137022 288.15719059900135" fill="none" stroke="black" stroke-weight="1"></path><path id="SvgjsPath1513" d="M 104.12482315460065 175.7067362933352 C 104.12482315460065 175.7067362933352 50.299495191299826 112.38828440770789 102.54292050475931 285.9552338300457" fill="none" stroke="black" stroke-weight="1"></path><path id="SvgjsPath1514" d="M 97.6137231899933 174.79376872290706 C 97.6137231899933 174.79376872290706 52.163462827536534 116.33117715625158 95.8072998517172 283.413459780632" fill="none" stroke="black" stroke-weight="1"></path><path id="SvgjsPath1515" d="M 91.23356163516543 173.86530585409912 C 91.23356163516543 173.86530585409912 54.27197085442083 120.35822442752067 89.20713272603321 280.5382215621534" fill="none" stroke="black" stroke-weight="1"></path><path id="SvgjsPath1516" d="M 85.00028557128014 172.9219279459816 C 85.00028557128014 172.9219279459816 56.61974909997525 124.45936070058272 82.75891610822083 277.33670577276104" fill="none" stroke="black" stroke-weight="1"></path><path id="SvgjsPath1517" d="M 78.9294749422698 171.96422457903878 C 78.9294749422698 171.96422457903878 59.20092934128509 128.62433527058536 76.47876718165841 273.8169145346112" fill="none" stroke="black" stroke-weight="1"></path><path id="SvgjsPath1518" d="M 73.0363036130898 170.99279428670047 C 73.0363036130898 170.99279428670047 62.009059971999946 132.8427378701807 70.38238304802393 269.9876454927273" fill="none" stroke="black" stroke-weight="1"></path><path id="SvgjsPath1519" d="M 67.33550144295887 170.00824418127792 C 67.33550144295887 170.00824418127792 65.03712212798902 137.1040246897711 64.48500149271608 265.8584698254695" fill="none" stroke="black" stroke-weight="1"></path><path id="SvgjsPath1520" d="M 61.84131746838193 169.01118957453852 C 61.84131746838193 169.01118957453852 68.27754723084671 141.397544731543 58.80136289832613 261.43970832157265" fill="none" stroke="black" stroke-weight="1"></path><path id="SvgjsPath1521" d="M 56.56748428797967 168.00225359315598 C 56.56748428797967 168.00225359315598 71.72223590539666 145.71256643141402 53.34567340135828 256.74240558355007" fill="none" stroke="black" stroke-weight="1"></path><path id="SvgjsPath1522" d="M 51.527183738143904 166.98206678927636 C 51.527183738143904 166.98206678927636 75.36257822391158 150.03830448235414 48.13156938428678 251.77830242193875" fill="none" stroke="black" stroke-weight="1"></path><path id="SvgjsPath1523" d="M 46.73301394531147 165.9512667464436 C 46.73301394531147 165.9512667464436 79.18947522644888 154.36394679203698 43.17208339170152 246.55980650938787" fill="none" stroke="black" stroke-weight="1"></path><path id="SvgjsPath1524" d="M 42.196957837209084 164.91049768113044 C 42.196957837209084 164.91049768113044 83.19336166351164 158.6786815074393 38.47961155573353 241.09996136793868" fill="none" stroke="black" stroke-weight="1"></path><path id="SvgjsPath1525" d="M 37.93035319177457 163.8604100401242 C 37.93035319177457 163.8604100401242 87.36422990419095 162.97172403884298 34.0658826121806 235.41241376701225" fill="none" stroke="black" stroke-weight="1"></path><path id="SvgjsPath1526" d="M 33.943864298616845 162.80166009401876 C 33.943864298616845 162.80166009401876 91.69165495003138 167.23234401569292 29.94192858477605 229.51137961359356" fill="none" stroke="black" stroke-weight="1"></path><path id="SvgjsPath1527" d="M 30.247455303845527 161.73490952706655 C 30.247455303845527 161.73490952706655 96.16482049209756 171.4498921069348 26.11805721087468 223.41160841986692" fill="none" stroke="black" stroke-weight="1"></path><path id="SvgjsPath1528" d="M 26.850365304894922 160.66082502364773 C 26.850365304894922 160.66082502364773 100.77254594611401 175.6138266387972 22.6038261774775 217.12834643711724" fill="none" stroke="black" stroke-weight="1"></path><path id="SvgjsPath1529" d="M 23.7610852575921 159.58007785161394 C 23.7610852575921 159.58007785161394 105.50331439810279 179.71373994348576 19.40801923199183 210.6772985480417" fill="none" stroke="black" stroke-weight="1"></path><path id="SvgjsPath1530" d="M 20.987336753189425 158.4933434427679 C 20.987336753189425 158.4933434427679 110.34530139067031 183.73938437293214 16.53862422743734 204.07458901272227" fill="none" stroke="black" stroke-weight="1"></path><path id="SvgjsPath1531" d="M 18.536052718407632 157.4013009707404 C 18.536052718407632 157.4013009707404 115.28640447799337 187.6806979125779 14.002813156973417 197.33672116637266" fill="none" stroke="black" stroke-weight="1"></path><path id="SvgjsPath1532" d="M 16.41336008672957 156.30463292652894 C 16.41336008672957 156.30463292652894 120.31427347563036 191.52782933117035 11.80692422765128 190.48053616959493" fill="none" stroke="black" stroke-weight="1"></path><path id="SvgjsPath1533" d="M 14.62456448425749 155.20402469196307 C 14.62456448425749 155.20402469196307 125.41634132955078 195.2711628037103 9.956446018197397 183.52317091424885" fill="none" stroke="black" stroke-weight="1"></path><path id="SvgjsPath1534" d="M 13.174136968410835 154.100164111363 C 13.174136968410835 154.100164111363 130.57985552722545 198.90134194600685 8.456003760425006 176.48201519014708" fill="none" stroke="black" stroke-weight="1"></path><path id="SvgjsPath1535" d="M 12.065702852611224 152.99374106165948 C 12.065702852611224 152.99374106165948 135.79190997226624 202.4092932007649 7.309347778563335 169.3746682196369" fill="none" stroke="black" stroke-weight="1"></path><path id="SvgjsPath1536" d="M 11.302032644886765 151.88544702124287 C 11.302032644886765 151.88544702124287 141.03947724294613 205.7862485167533 6.519344115400088 162.2188946687098" fill="none" stroke="black" stroke-weight="1"></path><path id="SvgjsPath1537" d="M 10.885035123045014 150.77597463781194 C 10.885035123045014 150.77597463781194 146.30944115396872 209.02376726436648 6.087967368667279 155.03258024458816" fill="none" stroke="black" stroke-weight="1"></path><path id="SvgjsPath1538" d="M 10.815752563722498 149.66601729549143 C 10.815752563722498 149.66601729549143 151.58862954010038 212.11375733280244 6.016295755575015 147.83368699077218" fill="none" stroke="black" stroke-weight="1"></path><path id="SvgjsPath1539" d="M 11.094358137235844 148.55626868148966 C 11.094358137235844 148.55626868148966 156.86384717972408 215.0484953561259 6.304508417830192 140.64020839128534" fill="none" stroke="black" stroke-weight="1"></path><path id="SvgjsPath1540" d="M 11.720155474746264 147.44742235256643 C 11.720155474746264 147.44742235256643 162.12190877602097 217.82064601766052 6.951884973875451 133.47012439633505" fill="none" stroke="black" stroke-weight="1"></path><path id="SvgjsPath1541" d="M 12.691580408818936 146.3401713015829 C 12.691580408818936 146.3401713015829 167.34967191334584 220.4232803844607 7.956807319467856 126.3413564818011" fill="none" stroke="black" stroke-weight="1"></path><path id="SvgjsPath1542" d="M 14.006204883026953 145.2352075244033 C 14.006204883026953 145.2352075244033 172.53406990642185 222.84989322603514 9.31676367209684 119.2717228548793" fill="none" stroke="black" stroke-weight="1"></path><path id="SvgjsPath1543" d="M 15.660743020828022 144.13322158742028 C 15.660743020828022 144.13322158742028 177.6621444602485 225.09441927403546 11.028354849132427 112.27889391784292" fill="none" stroke="black" stroke-weight="1"></path><path id="SvgjsPath1544" d="M 17.651059338544457 143.03490219597322 C 17.651059338544457 143.03490219597322 182.72107805909093 227.15124838226825 13.087302764011525 105.38034810123965" fill="none" stroke="black" stroke-weight="1"></path><path id="SvgjsPath1545" d="M 19.972179081918654 141.94093576392996 C 19.972179081918654 141.94093576392996 187.69822600359362 229.0152395491388 15.488461119226201 98.59332817691777" fill="none" stroke="black" stroke-weight="1"></path><path id="SvgjsPath1546" d="M 22.618300660407982 140.85200598470038 C 22.618300660407982 140.85200598470038 192.58114801594394 230.6817337674778 18.225828269387563 91.93479816007645" fill="none" stroke="black" stroke-weight="1"></path><path id="SvgjsPath1547" d="M 25.582810148139686 139.76879340395027 C 25.582810148139686 139.76879340395027 197.35763933408757 232.14656566963276 21.292562222213462 85.42140090806238" fill="none" stroke="black" stroke-weight="1"></path><path id="SvgjsPath1548" d="M 28.85829781528112 138.6919749942826 C 28.85829781528112 138.6919749942826 202.01576121727777 233.40607393871804 24.68099773994598 79.06941652189391" fill="none" stroke="black" stroke-weight="1"></path><path id="SvgjsPath1549" d="M 32.43657664850545 137.62222373215135 C 32.43657664850545 137.62222373215135 206.5438707867096 234.45711046000014 28.382665498453918 72.89472165448691" fill="none" stroke="black" stroke-weight="1"></path><path id="SvgjsPath1550" d="M 36.30870281426124 136.56020817727352 C 36.30870281426124 136.56020817727352 210.93065012665326 235.29704818954508 32.38831325613231 66.912749827291" fill="none" stroke="black" stroke-weight="1"></path><path id="SvgjsPath1551" d="M 40.46499801369835 135.50659205480076 C 40.46499801369835 135.50659205480076 215.16513457334946 235.92378772046015 36.68792897968794 61.138452854523436" fill="none" stroke="black" stroke-weight="1"></path><path id="SvgjsPath1552" d="M 44.89507367337494 134.462033840513 C 44.89507367337494 134.462033840513 219.23674012095833 236.3357625303177 41.27076586900854 55.58626347142044" fill="none" stroke="black" stroke-weight="1"></path><path id="SvgjsPath1553" d="M 49.58785691128057 133.42718634929224 C 49.58785691128057 133.42718634929224 223.13528987606202 236.53194289664535 46.12536921856612 50.270059259915385" fill="none" stroke="black" stroke-weight="1"></path><path id="SvgjsPath1554" d="M 54.53161821327481 132.40269632713483 C 54.53161821327481 132.40269632713483 226.85103949459824 236.5118384706961 51.239605048215324 45.20312796191146" fill="none" stroke="black" stroke-weight="1"></path><path id="SvgjsPath1555" d="M 59.714000750763745 131.389204046956 C 59.714000750763745 131.389204046956 230.37470153764565 236.27549950306462 56.60069043182456 40.39813426684685" fill="none" stroke="black" stroke-weight="1"></path><path id="SvgjsPath1556" d="M 65.12205126633633 130.38734290844025 C 65.12205126633633 130.38734290844025 233.6974686851843 235.8235167180871 62.19522544793412 35.86708815656685" fill="none" stroke="black" stroke-weight="1"></path><path id="SvgjsPath1557" d="M 70.74225245016187 129.3977390421872 C 70.74225245016187 129.3977390421872 236.81103574980907 235.15701983733777 68.00922667258124 31.621314886623992" fill="none" stroke="black" stroke-weight="1"></path><path id="SvgjsPath1558" d="M 76.560556726225 128.4210109184002 C 76.560556726225 128.4210109184002 239.70762043537275 234.27767475591375 74.02816213057757 27.67142667903711" fill="none" stroke="black" stroke-weight="1"></path><path id="SvgjsPath1559" d="M 82.56242136394987 127.4577689603628 C 82.56242136394987 127.4577689603628 242.37998278867363 233.1876793785645 80.23698761787917 24.02729619726321" fill="none" stroke="black" stroke-weight="1"></path><path id="SvgjsPath1560" d="M 88.73284482745282 126.50861516294388 C 88.73284482745282 126.50861516294388 244.8214432955678 231.88975812607475 86.62018430426153 20.69803186968025" fill="none" stroke="black" stroke-weight="1"></path><path id="SvgjsPath1561" d="M 95.05640427156956 125.57414271637053 C 95.05640427156956 125.57414271637053 247.02589957627612 230.3871551256314 93.16179752231332 17.691955123259817" fill="none" stroke="black" stroke-weight="1"></path><path id="SvgjsPath1562" d="M 101.51729409093585 124.65493563550348 C 101.51729409093585 124.65493563550348 248.98784163815543 228.6836261021951 99.84547664579571 15.01657958433347" fill="none" stroke="black" stroke-weight="1"></path><path id="SvgjsPath1563" d="M 108.09936542576965 123.75156839484677 C 108.09936542576965 123.75156839484677 250.70236564781072 226.78342899114364 106.65451595769275 12.678592298439924" fill="none" stroke="black" stroke-weight="1"></path><path id="SvgjsPath1564" d="M 114.78616652561038 122.86460556951995 C 114.78616652561038 122.86460556951995 252.16518618812472 224.69131329565107 113.57189640580386 10.683837016193593" fill="none" stroke="black" stroke-weight="1"></path><path id="SvgjsPath1565" d="M 121.56098387012715 121.99460148241697 C 121.56098387012715 121.99460148241697 253.3726469695688 222.41250821540345 120.58032814151085 9.037299586951661" fill="none" stroke="black" stroke-weight="1"></path><path id="SvgjsPath1566" d="M 128.40688394421528 121.14209985777241 C 128.40688394421528 121.14209985777241 254.32172996902278 219.95270957632255 127.66229373539512 7.743095496787106" fill="none" stroke="black" stroke-weight="1"></path><path id="SvgjsPath1567" d="M 135.30675556296544 120.30763348135153 C 135.30675556296544 120.30763348135153 255.01006297326094 217.31806559396776 134.8000919616884 6.804459581916916" fill="none" stroke="black" stroke-weight="1"></path><path id="SvgjsPath1568" d="M 142.24335264071442 119.49172386747655 C 142.24335264071442 119.49172386747655 255.43592550824957 214.51516150619887 141.97588204211834 6.223737943296072" fill="none" stroke="black" stroke-weight="1"></path><path id="SvgjsPath1569" d="M 149.19933729727774 118.69488093309715 C 149.19933729727774 118.69488093309715 255.59825313943605 211.55100311351111 149.17172823856316 6.002382082587189" fill="none" stroke="black" stroke-weight="1"></path><path id="SvgjsPath1570" d="M 156.15732319362075 117.91760267910894 C 156.15732319362075 117.91760267910894 255.49664013228113 208.43299926818233 156.36964468305598 6.140945274162135" fill="none" stroke="black" stroke-weight="1"></path><path id="SvgjsPath1571" d="M 163.0999189886517 117.16037487911917 C 163.0999189886517 117.16037487911917 255.13134046638356 205.16894335600082 163.55164033308796 6.639081182204251" fill="none" stroke="black" stroke-weight="1"></path><path id="SvgjsPath1572" d="M 170.00977180851692 116.42367077585402 C 170.00977180851692 116.42367077585402 254.50326720066374 201.7669938168596 170.6997639398451 7.495544726367626" fill="none" stroke="black" stroke-weight="1"></path><path id="SvgjsPath1573" d="M 176.86961061974856 115.70795078539726 C 176.86961061974856 115.70795078539726 253.61399019119176 198.23565375290545 177.79614891698128 8.708195193829454" fill="none" stroke="black" stroke-weight="1"></path><path id="SvgjsPath1574" d="M 183.66228939785353 115.01366220944523 C 183.66228939785353 115.01366220944523 252.4657321673647 194.58374967521183 184.82305799777953 10.274001589957209" fill="none" stroke="black" stroke-weight="1"></path><path id="SvgjsPath1575" d="M 190.3708299834453 114.34123895575785 C 190.3708299834453 114.34123895575785 251.06136317624103 190.8204094420983 191.76292756908134 12.189050214216792" fill="none" stroke="black" stroke-weight="1"></path><path id="SvgjsPath1576" d="M 196.97846451880025 113.69110126698033 C 196.97846451880025 113.69110126698033 249.4043934089173 186.95503944423783 198.59841157117268 14.448554442385586" fill="none" stroke="black" stroke-weight="1"></path><path id="SvgjsPath1577" d="M 203.4686773587696 113.06365545800529 C 203.4686773587696 113.06365545800529 247.4989644268785 182.9973010935791 205.31242485389959 17.04686669062022" fill="none" stroke="black" stroke-weight="1"></path><path id="SvgjsPath1578" d="M 209.8252463512909 112.45929366203907 C 209.8252463512909 112.45929366203907 245.34983881025164 178.9570866748486 211.88818588064575 19.977492531475008" fill="none" stroke="black" stroke-weight="1"></path><path id="SvgjsPath1579" d="M 216.03228338431995 111.87839358553133 C 216.03228338431995 111.87839358553133 242.96238825383534 174.8444946199904 218.30925867343444 23.23310692658822" fill="none" stroke="black" stroke-weight="1"></path><path id="SvgjsPath1580" d="M 222.07427409783662 111.32131827212078 C 222.07427409783662 111.32131827212078 240.34258014066035 170.66980426734486 224.55959389431376 26.805572535463256" fill="none" stroke="black" stroke-weight="1"></path><path id="SvgjsPath1581" d="M 227.93611666166504 110.78841587574472 C 227.93611666166504 110.78841587574472 237.49696262663983 166.4434501686568 230.62356896034316 30.68596005458207" fill="none" stroke="black" stroke-weight="1"></path><path id="SvgjsPath1582" d="M 233.60315952218428 110.28001944305416 C 233.60315952218428 110.28001944305416 234.43264827358996 162.17599600813037 236.48602709191476 34.86457053601363" fill="none" stroke="black" stroke-weight="1"></path><path id="SvgjsPath1583" d="M 239.06123802358184 109.79644670527048 C 239.06123802358184 109.79644670527048 231.15729627152945 157.87810819871993 242.13231519680878 39.33095962973259" fill="none" stroke="black" stroke-weight="1"></path><path id="SvgjsPath1584" d="M 244.29670981211655 109.33799987961389 C 244.29670981211655 109.33799987961389 227.67909329469296 153.56052922165213 247.54832049529296 44.07396368905518" fill="none" stroke="black" stroke-weight="1"></path><path id="SvgjsPath1585" d="M 249.29648893489812 108.90496548042728 C 249.29648893489812 108.90496548042728 224.00673303910935 149.23405077581782 252.72050579472221 49.0817276739418" fill="none" stroke="black" stroke-weight="1"></path><path id="SvgjsPath1586" d="M 254.04807854795422 108.4976141401143 C 254.04807854795422 108.4976141401143 220.14939449288948 144.9094868041453 257.6359433254699 54.34173478242336" fill="none" stroke="black" stroke-weight="1"></path><path id="SvgjsPath1587" d="M 258.53960215183224 108.11620044000276 C 258.53960215183224 108.11620044000276 216.11671899353593 140.59764646437458 262.28234705361956 59.840837736087366" fill="none" stroke="black" stroke-weight="1"></path><path id="SvgjsPath1588" d="M 262.7598332766628 107.76096275123967 C 262.7598332766628 107.76096275123967 211.91878612962017 136.30930711179184 266.64810338965117 65.56529164142712" fill="none" stroke="black" stroke-weight="1"></path><path id="SvgjsPath1589" d="M 266.6982235424876 107.43212308581707 C 266.6982235424876 107.43212308581707 207.5660885470607 132.05518736145441 270.7223002163665 71.50078834491724" fill="none" stroke="black" stroke-weight="1"></path><path id="SvgjsPath1590" d="M 270.3449290247162 107.12988695782161 C 270.3449290247162 107.12988695782161 203.0695057229729 127.84592029723562 274.49475416349946 77.63249219594594" fill="none" stroke="black" stroke-weight="1"></path><path id="SvgjsPath1591" d="M 273.69083485881043 106.85444325499509 C 273.69083485881043 106.85444325499509 198.44027677264216 123.69202689465223 277.95603606083836 83.94507712821526" fill="none" stroke="black" stroke-weight="1"></path><path id="SvgjsPath1592" d="M 276.72757802269916 106.60596412068571 C 276.72757802269916 106.60596412068571 193.68997235758826 119.60388972390464 281.09749450624054 90.42276496692523" fill="none" stroke="black" stroke-weight="1"></path><path id="SvgjsPath1593" d="M 279.44756823997795 106.38460484626404 C 279.44756823997795 106.38460484626404 188.830465764938 115.59172699885895 283.9112774896324 97.04936486599365" fill="none" stroke="black" stroke-weight="1"></path><path id="SvgjsPath1594" d="M 281.8440069516472 106.19050377407106 C 281.8440069516472 106.19050377407106 183.87390323039102 111.66556703683392 286.39035201894535 103.8083137767394" fill="none" stroke="black" stroke-weight="1"></path><path id="SvgjsPath1595" d="M 283.9109043089687 106.02378221095864 C 283.9109043089687 106.02378221095864 178.83267357895605 107.83522319303019 288.5285216989332 110.68271784687815" fill="none" stroke="black" stroke-weight="1"></path><path id="SvgjsPath1596" d="M 285.6430941449687 105.8845443524767 C 285.6430941449687 105.8845443524767 173.71937725933978 104.11026933225261 290.3204422189332 117.65539464635498" fill="none" stroke="black" stroke-weight="1"></path><path id="SvgjsPath1597" d="M 287.0362468871641 105.77287721775434 C 287.0362468871641 105.77287721775434 168.54679484938788 100.50001589923454 291.7616347108594 124.7089161144711" fill="none" stroke="black" stroke-weight="1"></path><path id="SvgjsPath1598" d="M 288.08688037923935 105.68885059511592 C 288.08688037923935 105.68885059511592 163.32785511129654 97.013486647375 292.8484969440407 131.82565212095915" fill="none" stroke="black" stroke-weight="1"></path><path id="SvgjsPath1599" d="M 288.79236858462355 105.63251699846538 C 288.79236858462355 105.63251699846538 158.0756026764399 93.65939608405446 293.5783123289209 138.9878145321274" fill="none" stroke="black" stroke-weight="1"></path><path id="SvgjsPath1600" d="M 289.1509481502145 105.60391163446687 C 289.1509481502145 105.60391163446687 152.80316544058473 90.44612768890443 293.9492567071185 146.17750167193003" fill="none" stroke="black" stroke-weight="1"></path><path id="SvgjsPath1601" d="M 289.16172281384286 105.60305238054175 C 289.16172281384286 105.60305238054175 147.52372175098827 87.38171295947491 293.96040291087195 153.37674306683417" fill="none" stroke="black" stroke-weight="1"></path><path id="SvgjsPath1602" d="M 288.8246656444608 105.62993977369578 C 288.8246656444608 105.62993977369578 142.25046746739358 84.47381133667322 293.61172308047674 160.567544362645" fill="none" stroke="black" stroke-weight="1"></path><path id="SvgjsPath1603" d="M 288.1406191094559 105.68455701018345 C 288.1406191094559 105.68455701018345 136.99658297925203 81.72969106015057 292.9040887339199 167.73193230101998" fill="none" stroke="black" stroke-weight="1"></path><path id="SvgjsPath1604" d="M 287.11129296892096 105.7668699560098 C 287.11129296892096 105.7668699560098 131.7752002616137 79.15621100148796 291.83926858853897 174.8519996432542" fill="none" stroke="black" stroke-weight="1"></path><path id="SvgjsPath1605" d="M 285.7392600021448 105.8768271682631 C 285.7392600021448 105.8768271682631 126.5993700520289 76.75980352058944 290.41992414014976 181.90994992905152" fill="none" stroke="black" stroke-weight="1"></path><path id="SvgjsPath1606" d="M 284.0279495770033 106.01435992726496 C 284.0279495770033 106.01435992726496 121.48202923050155 74.54645838813248 288.6496030106931 188.88814195840686" fill="none" stroke="black" stroke-weight="1"></path><path id="SvgjsPath1607" d="M 281.9816390783261 106.17938227951791 C 281.9816390783261 106.17938227951791 116.43596848402606 72.52170781426041 286.532730081027 195.76913388541902" fill="none" stroke="black" stroke-weight="1"></path><path id="SvgjsPath1608" d="M 279.605443216662 106.37179109142346 C 279.605443216662 106.37179109142346 111.47380033653079 70.69061262093815 284.0745964310297 202.53572681382178" fill="none" stroke="black" stroke-weight="1"></path><path id="SvgjsPath1609" d="M 276.90530124416637 106.59146611373737 C 276.90530124416637 106.59146611373737 106.60792762413709 69.05774959253296 281.28134611465487 209.17100778526762" fill="none" stroke="black" stroke-weight="1"></path><path id="SvgjsPath1610" d="M 273.8879621095635 106.8382700567214 C 273.8879621095635 106.8382700567214 101.85051249452862 67.62720003623734 278.1599608029967 215.65839205291542" fill="none" stroke="black" stroke-weight="1"></path><path id="SvgjsPath1611" d="M 270.56096758929016 107.11204867594503 C 270.56096758929016 107.11204867594503 97.21344600791562 66.4025395809262 274.71824233374844 221.98166453466052" fill="none" stroke="black" stroke-weight="1"></path><path id="SvgjsPath1612" d="M 266.93263343698175 107.41263086868312 C 266.93263343698175 107.41263086868312 92.70831841557697 65.386829239947 270.9647932106708 228.12502034239517" fill="none" stroke="black" stroke-weight="1"></path><path id="SvgjsPath1613" d="M 263.0120285984192 107.73982878084958 C 263.0120285984192 107.73982878084958 88.34639019026821 64.5826077601804 266.90899510181293 234.07310428599789" fill="none" stroke="black" stroke-weight="1"></path><path id="SvgjsPath1614" d="M 258.8089525438873 108.09343792440004 C 258.8089525438873 108.09343792440004 84.1385638809045 63.99188527649541 262.5609853902282 239.81104925331195" fill="none" stroke="black" stroke-weight="1"></path><path id="SvgjsPath1615" d="M 254.33391077460277 108.47323730513028 C 254.33391077460277 108.47323730513028 80.09535686186581 63.61613828745895 257.93163183579594 245.32451337018298" fill="none" stroke="black" stroke-weight="1"></path><path id="SvgjsPath1616" d="M 249.59808856443206 108.87898956079033 C 249.59808856443206 108.87898956079033 76.22687504503807 63.45630596485833 253.03250541148142 250.5997158476755" fill="none" stroke="black" stroke-weight="1"></path><path id="SvgjsPath1617" d="M 244.6133230025321 109.31044110942821 C 244.6133230025321 109.31044110942821 72.54278762029683 63.51278780626096 247.87585138192975 255.62347142686798" fill="none" stroke="black" stroke-weight="1"></path><path id="SvgjsPath1618" d="M 239.39207340679192 109.76732230787039 C 239.39207340679192 109.76732230787039 69.05230288756842 63.78544263647855 242.4745586966813 260.3832233351339" fill="none" stroke="black" stroke-weight="1"></path><path id="SvgjsPath1619" d="M 233.94739018202662 110.24934762023996 C 233.94739018202662 110.24934762023996 65.76414524087552 64.27358896043144 236.8421277745103 264.8670746715334" fill="none" stroke="black" stroke-weight="1"></path><path id="SvgjsPath1620" d="M 228.29288220076194 110.75621579640728 C 228.29288220076194 110.75621579640728 62.686533361895314 64.9760066665314 230.99263675940892 269.0638181428701" fill="none" stroke="black" stroke-weight="1"></path><metadata>116 * Math.cos(t/1);37 * Math.cos(t/2);44 * Math.sin(t/1)+44 * Math.sin(t/1);51 * Math.cos(t/1)+51 * Math.sin(t/1)</metadata></svg>