<svg id="SvgjsSvg1867" width="300" height="300" xmlns="http://www.w3.org/2000/svg" version="1.1" xmlns:xlink="http://www.w3.org/1999/xlink" xmlns:svgjs="http://svgjs.com/svgjs"><defs id="SvgjsDefs1868"></defs><path id="SvgjsPath1869" d="M 68.18029288088776 170.15717818843586 C 68.18029288088776 170.15717818843586 64.56780539400555 136.46061738455256 65.3589236698839 266.4984471899924" fill="none" stroke="black" stroke-weight="1"></path><path id="SvgjsPath1870" d="M 62.654133784529634 169.1619651758851 C 62.654133784529634 169.1619651758851 67.77678655733014 140.7499722617747 59.642207363306525 262.1225637854589" fill="none" stroke="black" stroke-weight="1"></path><path id="SvgjsPath1871" d="M 57.346293864862375 168.15477655884825 C 57.346293864862375 168.15477655884825 71.1912829332396 145.06244739102107 54.15133848089212 257.4664323637641" fill="none" stroke="black" stroke-weight="1"></path><path id="SvgjsPath1872" d="M 52.270039957415634 167.13624179742567 C 52.270039957415634 167.13624179742567 74.80276005902962 149.38726383036226 48.900041335257555 252.54169082859602" fill="none" stroke="black" stroke-weight="1"></path><path id="SvgjsPath1873" d="M 47.43806005329604 166.1069974426884 C 47.43806005329604 166.1069974426884 78.60219112270647 153.71361179102064 43.90144143444418 247.36064846903662" fill="none" stroke="black" stroke-weight="1"></path><path id="SvgjsPath1874" d="M 42.86243158581746 165.06768673885486 C 42.86243158581746 165.06768673885486 82.58007952531649 158.03067765621313 39.16803267498358 241.9362551927502" fill="none" stroke="black" stroke-weight="1"></path><path id="SvgjsPath1875" d="M 38.55459124320731 164.01895922128392 C 38.55459124320731 164.01895922128392 86.7264826174974 162.32767100956116 34.71164611366274 236.28206915795806" fill="none" stroke="black" stroke-weight="1"></path><path id="SvgjsPath1876" d="M 34.52530638284219 162.96147031053647 C 34.52530638284219 162.96147031053647 91.03103655092372 166.5938516055122 30.543420396043643 230.41222288510397" fill="none" stroke="black" stroke-weight="1"></path><path id="SvgjsPath1877" d="M 30.78464811846213 161.89588090275905 C 30.78464811846213 161.89588090275905 95.48298218253028 170.81855621436043 26.67377391565047 224.34138793291328" fill="none" stroke="black" stroke-weight="1"></path><path id="SvgjsPath1878" d="M 27.341966147630785 160.822856956645 C 27.341966147630785 160.822856956645 100.07119196676643 174.99122527476715 23.112378773411166 218.08473822713665" fill="none" stroke="black" stroke-weight="1"></path><path id="SvgjsPath1879" d="M 24.205865382361253 159.7430690772323 C 24.205865382361253 159.7430690772323 104.78419776866511 179.1014292871655 19.86813660244269 211.6579121336385" fill="none" stroke="black" stroke-weight="1"></path><path id="SvgjsPath1880" d="M 21.38418444131696 158.6571920967969 C 21.38418444131696 158.6571920967969 109.61021952820752 183.13889488207732 16.94915631860374 205.0769733706261" fill="none" stroke="black" stroke-weight="1"></path><path id="SvgjsPath1881" d="M 18.88397605734741 157.56590465310475 C 18.88397605734741 157.56590465310475 114.53719470433836 187.09353049818677 14.362733852428363 198.35837085772033" fill="none" stroke="black" stroke-weight="1"></path><path id="SvgjsPath1882" d="M 16.711489449329292 156.46988876528525 C 16.711489449329292 156.46988876528525 119.55280842503649 190.95545160598806 12.11533391309925 191.51889760222303" fill="none" stroke="black" stroke-weight="1"></path><path id="SvgjsPath1883" d="M 14.872154702373365 155.3698294075914 C 14.872154702373365 155.3698294075914 124.64452426808107 194.7150054139612 10.212573830041435 184.57564872534397" fill="none" stroke="black" stroke-weight="1"></path><path id="SvgjsPath1884" d="M 13.37056919544014 154.26641408131331 C 13.37056919544014 154.26641408131331 129.79961559557898 198.36279499552407 8.659209512524285 177.54597873330138" fill="none" stroke="black" stroke-weight="1"></path><path id="SvgjsPath1885" d="M 12.21048611028624 153.1603323851122 C 12.21048611028624 153.1603323851122 135.0051973639312 201.88970277645495 7.459123562365079 170.4474581400939" fill="none" stroke="black" stroke-weight="1"></path><path id="SvgjsPath1886" d="M 11.394805050464981 152.05227558404363 C 11.394805050464981 152.05227558404363 140.24825832973113 205.28691332407936 6.615315569446551 163.29782955036657" fill="none" stroke="black" stroke-weight="1"></path><path id="SvgjsPath1887" d="M 10.925564793827476 150.94293617753948 C 10.925564793827476 150.94293617753948 145.51569357109804 208.5459353812616 6.129894614304277 156.11496331213903" fill="none" stroke="black" stroke-weight="1"></path><path id="SvgjsPath1888" d="M 10.803938196639649 149.83300746661828 C 10.803938196639649 149.83300746661828 150.79433724315547 211.6586230901243 6.0040739965238 148.91681285024254" fill="none" stroke="black" stroke-weight="1"></path><path id="SvgjsPath1889" d="M 11.030229262052615 148.7231831205946 C 11.030229262052615 148.7231831205946 156.07099548578785 214.61719635245188 6.238168202123376 141.72136979210745" fill="none" stroke="black" stroke-weight="1"></path><path id="SvgjsPath1890" d="M 11.60387238025291 147.61415674355834 C 11.60387238025291 147.61415674355834 161.3324794014192 217.4142602758837 6.831592117503021 134.5466189980648" fill="none" stroke="black" stroke-weight="1"></path><path id="SvgjsPath1891" d="M 12.523433742192623 146.50662144089483 C 12.523433742192623 146.50662144089483 166.56563802038806 220.0428236572938 7.782862491923396 127.41049360856172" fill="none" stroke="black" stroke-weight="1"></path><path id="SvgjsPath1892" d="M 13.786614923365192 145.40126938611638 C 13.786614923365192 145.40126938611638 171.75739117152347 222.49631645715812 9.08960164486055 120.33083022064979" fill="none" stroke="black" stroke-weight="1"></path><path id="SvgjsPath1893" d="M 15.390258628669727 144.29879138827647 C 15.390258628669727 144.29879138827647 176.89476217576035 224.76860622123127 10.748543408968686 113.32532430578131" fill="none" stroke="black" stroke-weight="1"></path><path id="SvgjsPath1894" d="M 17.33035658400445 143.1998764602365 C 17.33035658400445 143.1998764602365 181.96491028107923 226.8540134084887 12.755541293797705 106.41148598034644" fill="none" stroke="black" stroke-weight="1"></path><path id="SvgjsPath1895" d="M 19.602059554864553 142.10521138805535 C 19.602059554864553 142.10521138805535 186.95516275769893 228.74732558702144 15.105578849859882 99.60659623950144" fill="none" stroke="black" stroke-weight="1"></path><path id="SvgjsPath1896" d="M 22.199689466902882 141.0154803017702 C 22.199689466902882 141.0154803017702 191.85304657330104 230.44381046240096 17.792782207140903 92.92766376368039" fill="none" stroke="black" stroke-weight="1"></path><path id="SvgjsPath1897" d="M 25.11675359815885 139.93136424783768 C 25.11675359815885 139.93136424783768 196.64631956911518 231.93922770595108 20.810434756716035 86.391382405752" fill="none" stroke="black" stroke-weight="1"></path><path id="SvgjsPath1898" d="M 28.345960807481973 138.85354076350202 C 28.345960807481973 138.85354076350202 201.32300105894026 233.22983955336122 24.150993938774462 80.01408946508151" fill="none" stroke="black" stroke-weight="1"></path><path id="SvgjsPath1899" d="M 31.879239758587545 137.78268345335627 C 31.879239758587545 137.78268345335627 205.87140177462015 234.31242014715048 27.806110095090574 73.8117248527907" fill="none" stroke="black" stroke-weight="1"></path><path id="SvgjsPath1900" d="M 35.70775909419386 136.71946156836134 C 35.70775909419386 136.71946156836134 210.28015308312703 235.1842635996314 31.766647338821258 67.79979125028129" fill="none" stroke="black" stroke-weight="1"></path><path id="SvgjsPath1901" d="M 39.821949509816264 135.664539587586 C 39.821949509816264 135.664539587586 214.53823540222297 235.8431907562202 36.022706389465114 61.993315360605024" fill="none" stroke="black" stroke-weight="1"></path><path id="SvgjsPath1902" d="M 44.21152767204471 134.61857680292906 C 44.21152767204471 134.61857680292906 218.63500574367663 236.28755464218796 40.56364931590831 56.40681034953184" fill="none" stroke="black" stroke-weight="1"></path><path id="SvgjsPath1903" d="M 48.86552192152165 133.5822269070833 C 48.86552192152165 133.5822269070833 222.56022431519114 236.51624457923998 45.37812612571206 51.0542395701939" fill="none" stroke="black" stroke-weight="1"></path><path id="SvgjsPath1904" d="M 53.77229969637675 132.55613758499908 C 53.77229969637675 132.55613758499908 226.30408011455194 236.52868896163307 50.45410313418283 45.94898166197463" fill="none" stroke="black" stroke-weight="1"></path><path id="SvgjsPath1905" d="M 58.919596607573354 131.540950109102 C 58.919596607573354 131.540950109102 229.85721545202307 236.32485668489218 55.77889304231728 41.10379711087759" fill="none" stroke="black" stroke-weight="1"></path><path id="SvgjsPath1906" d="M 64.29454709349399 130.5372989385187 C 64.29454709349399 130.5372989385187 233.21074933969808 235.90525722355534 61.33918664844205 36.53079635495716" fill="none" stroke="black" stroke-weight="1"></path><path id="SvgjsPath1907" d="M 69.88371657714376 129.54581132256055 C 69.88371657714376 129.54581132256055 236.3562996893443 235.2709393577527 67.12108611428664 32.24140951453049" fill="none" stroke="black" stroke-weight="1"></path><path id="SvgjsPath1908" d="M 75.67313504559684 128.56710690871324 C 75.67313504559684 128.56710690871324 239.28600426325863 234.42348855180245 73.11013970234156 28.24635782282911" fill="none" stroke="black" stroke-weight="1"></path><path id="SvgjsPath1909" d="M 81.64833196775294 127.60179735537719 C 81.64833196775294 127.60179735537719 241.99254032576698 233.3650229913756 79.29137789767546 24.55562682849954" fill="none" stroke="black" stroke-weight="1"></path><path id="SvgjsPath1910" d="M 87.7943724631291 126.65048594960105 C 87.7943724631291 126.65048594960105 244.46914294624978 232.098188289135 85.64935082392664 21.178441436932133" fill="none" stroke="black" stroke-weight="1"></path><path id="SvgjsPath1911" d="M 94.09589463128282 125.71376723004693 C 94.09589463128282 125.71376723004693 246.70962190794552 230.62615087208155 92.16816685994775 18.12324285280158" fill="none" stroke="black" stroke-weight="1"></path><path id="SvgjsPath1912" d="M 100.5371479485631 124.79222661542302 C 100.5371479485631 124.79222661542302 248.70837718026885 228.95259006713553 98.83153236058251 15.397667481451549" fill="none" stroke="black" stroke-weight="1"></path><path id="SvgjsPath1913" d="M 107.1020326362166 123.88644003861603 C 107.1020326362166 123.88644003861603 250.46041291597064 227.0816889047357 105.62279238229303 13.008527841858239" fill="none" stroke="black" stroke-weight="1"></path><path id="SvgjsPath1914" d="M 113.77413990145001 122.99697358675184 C 113.77413990145001 122.99697358675184 251.96134993815411 225.01812366344163 112.52497231184485 10.96179553888075" fill="none" stroke="black" stroke-weight="1"></path><path id="SvgjsPath1915" d="M 120.53679295086658 122.12438314740947 C 120.53679295086658 122.12438314740947 253.20743668593678 222.7670521816725 119.5208202939999 9.262586337358925" fill="none" stroke="black" stroke-weight="1"></path><path id="SvgjsPath1916" d="M 127.37308867376436 121.26921406120947 C 127.37308867376436 121.26921406120947 254.1955585913986 220.3341009657974 126.59285035217002 7.915147375365535" fill="none" stroke="black" stroke-weight="1"></path><path id="SvgjsPath1917" d="M 134.26593989111012 120.43200078099375 C 134.26593989111012 120.43200078099375 254.92324586437985 217.72535112679947 133.72338609425185 6.922846548572949" fill="none" stroke="black" stroke-weight="1"></path><path id="SvgjsPath1918" d="M 141.19811806458796 119.61326653781 C 141.19811806458796 119.61326653781 255.38867966567025 214.9473231806656 140.89460489440137 6.288164092267834" fill="none" stroke="black" stroke-weight="1"></path><path id="SvgjsPath1919" d="M 148.15229635897288 118.81352301390925 C 148.15229635897288 118.81352301390925 255.59069665315988 212.0069607504921 148.08858244031677 6.01268638205471" fill="none" stroke="black" stroke-weight="1"></path><path id="SvgjsPath1920" d="M 155.11109295019492 118.03327002296115 C 155.11109295019492 118.03327002296115 255.52879188958838 208.91161321104332 155.28733753468438 6.097101968743118" fill="none" stroke="black" stroke-weight="1"></path><path id="SvgjsPath1921" d="M 162.05711447084718 117.27299519768673 C 162.05711447084718 117.27299519768673 255.20312010462533 205.66901731914197 162.47287703880744 6.541199857329104" fill="none" stroke="black" stroke-weight="1"></path><path id="SvgjsPath1922" d="M 168.97299948454616 116.53317368510373 C 168.97299948454616 116.53317368510373 254.61449530812652 202.28727787580655 169.62724084608226 7.343870034372941" fill="none" stroke="black" stroke-weight="1"></path><path id="SvgjsPath1923" d="M 175.84146188048092 115.81426784957534 C 175.84146188048092 115.81426784957534 253.76438875553333 198.7748474684696 176.7325467729113 8.503106242454521" fill="none" stroke="black" stroke-weight="1"></path><path id="SvgjsPath1924" d="M 182.64533407968764 115.11672698384734 C 182.64533407968764 115.11672698384734 252.65492527050037 195.14050534391086 183.7710352548493 10.016010994772245" fill="none" stroke="black" stroke-weight="1"></path><path id="SvgjsPath1925" d="M 189.3676099450565 114.44098702825491 C 189.3676099450565 114.44098702825491 251.2888779339427 191.39333546471306 190.72511373626534 11.878802817350845" fill="none" stroke="black" stroke-weight="1"></path><path id="SvgjsPath1926" d="M 195.99148728781765 113.78747029827394 C 195.99148728781765 113.78747029827394 249.66966115277813 187.542703804086 197.57740064256998 14.086825700757089" fill="none" stroke="black" stroke-weight="1"></path><path id="SvgjsPath1927" d="M 202.5004098642628 113.15658522058786 C 202.5004098642628 113.15658522058786 247.80132212568776 183.59823493581092 204.31076882509944 16.634560737698592" fill="none" stroke="black" stroke-weight="1"></path><path id="SvgjsPath1928" d="M 208.8781087577322 112.54872607783396 C 208.8781087577322 112.54872607783396 245.68853072722703 179.56978797781866 210.90838837006777 19.51563991741773" fill="none" stroke="black" stroke-weight="1"></path><path id="SvgjsPath1929" d="M 215.10864304243356 111.96427276218984 C 215.10864304243356 111.96427276218984 243.33656783557166 175.46743194952975 217.35376866458643 22.72286204240224" fill="none" stroke="black" stroke-weight="1"></path><path id="SvgjsPath1930" d="M 221.17643962745464 111.40359053795297 C 221.17643962745464 111.40359053795297 240.7513121330723 171.30142060454932 223.63079961460824 26.248210727628646" fill="none" stroke="black" stroke-weight="1"></path><path id="SvgjsPath1931" d="M 227.0663321813803 110.86702981326252 C 227.0663321813803 110.86702981326252 237.93922541261006 167.08216680162292 229.7237919117727 30.08287443735003" fill="none" stroke="black" stroke-weight="1"></path><path id="SvgjsPath1932" d="M 232.76359904022243 110.35492592110562 C 232.76359904022243 110.35492592110562 234.9073364264794 162.82021647791282 235.61751624850595 34.21726850934628" fill="none" stroke="black" stroke-weight="1"></path><path id="SvgjsPath1933" d="M 238.25400000391318 109.86759890974515 C 238.25400000391318 109.86759890974515 231.66322331816855 158.5262222896476 241.29724138335843 38.641059111588234" fill="none" stroke="black" stroke-weight="1"></path><path id="SvgjsPath1934" d="M 243.52381192938884 109.40535334270004 C 243.52381192938884 109.40535334270004 228.21499468094697 154.21091698602913 246.74877096143672 43.34318907143593" fill="none" stroke="black" stroke-weight="1"></path><path id="SvgjsPath1935" d="M 248.55986303130072 108.96847810840296 C 248.55986303130072 108.96847810840296 224.57126929060485 149.88508658294876 251.95847899789726 48.31190551281168" fill="none" stroke="black" stroke-weight="1"></path><path id="SvgjsPath1936" d="M 253.34956580461875 108.55724623965443 C 253.34956580461875 108.55724623965443 220.74115456300234 145.55954340356516 256.91334393581246 53.53478923226953" fill="none" stroke="black" stroke-weight="1"></path><path id="SvgjsPath1937" d="M 257.88094848683863 108.17191474298625 C 257.88094848683863 108.17191474298625 216.73422379027346 141.24509905312752 261.60098119328137 58.99878574053609" fill="none" stroke="black" stroke-weight="1"></path><path id="SvgjsPath1938" d="M 262.14268498115337 107.81272443804076 C 262.14268498115337 107.81272443804076 212.56049221258095 136.95253739559294 266.0096741184345 64.69023789193507" fill="none" stroke="black" stroke-weight="1"></path><path id="SvgjsPath1939" d="M 266.1241231657965 107.47989980706637 C 266.1241231657965 107.47989980706637 208.2303919852315 132.69258759958223 270.1284032749619 70.59492002013899" fill="none" stroke="black" stroke-weight="1"></path><path id="SvgjsPath1940" d="M 269.81531151879943 107.17364885462356 C 269.81531151879943 107.17364885462356 203.75474610372072 128.47589732104626 273.9468739849649 76.6980734949263" fill="none" stroke="black" stroke-weight="1"></path><path id="SvgjsPath1941" d="M 273.20702399161337 106.89416297758873 C 273.20702399161337 106.89416297758873 199.14474135188124 124.31300608967169 277.45554206028964 82.98444361107094" fill="none" stroke="black" stroke-weight="1"></path><path id="SvgjsPath1942" d="M 276.29078306942597 106.64161684553731 C 276.29078306942597 106.64161684553731 194.41190034074876 120.21431896554526 280.6456376580268 89.43831771716081" fill="none" stroke="black" stroke-weight="1"></path><path id="SvgjsPath1943" d="M 279.0588809605334 106.41616829158114 C 279.0588809605334 106.41616829158114 189.56805270803497 116.19008053192215 283.50918720055176 96.04356448904335" fill="none" stroke="black" stroke-weight="1"></path><path id="SvgjsPath1944" d="M 281.5043988618054 106.21795821372777 C 281.5043988618054 106.21795821372777 184.62530555019444 112.25034928910341 286.0390333053159 102.78367424973487" fill="none" stroke="black" stroke-weight="1"></path><path id="SvgjsPath1945" d="M 283.62122425208986 106.04711048682384 C 283.62122425208986 106.04711048682384 179.59601316098895 108.4049725134239 288.2288526745757 109.64180023501495" fill="none" stroke="black" stroke-weight="1"></path><path id="SvgjsPath1946" d="M 285.4040661703325 105.90373188513732 C 285.4040661703325 105.90373188513732 174.49274615218687 104.66356164418939 290.07317190034394 116.60080070156339" fill="none" stroke="black" stroke-weight="1"></path><path id="SvgjsPath1947" d="M 286.84846844022377 105.78791201562711 C 286.84846844022377 105.78791201562711 169.32826003357994 101.03546826008372 291.5673811450591 123.64328177239115" fill="none" stroke="black" stroke-weight="1"></path><path id="SvgjsPath1948" d="M 287.9508208083191 105.69972326194153 C 287.9508208083191 105.69972326194153 164.1154633308521 97.52976070509254 292.70774566377844 130.75164091247441" fill="none" stroke="black" stroke-weight="1"></path><path id="SvgjsPath1949" d="M 288.70836796779236 105.63922073918101 C 288.70836796779236 105.63922073918101 158.86738532098835 94.15520142236628 293.4914151390956 137.90811092592486" fill="none" stroke="black" stroke-weight="1"></path><path id="SvgjsPath1950" d="M 289.11921644526774 105.60644225945276 C 289.11921644526774 105.60644225945276 153.5971434658673 90.9202250526753 293.91643080544935 145.09480436472643" fill="none" stroke="black" stroke-weight="1"></path><path id="SvgjsPath1951" d="M 289.18233933351723 105.6014083082397 C 289.18233933351723 105.6014083082397 148.3179106254377 87.83291735220064 293.9817303450178 152.2937582380397" fill="none" stroke="black" stroke-weight="1"></path><path id="SvgjsPath1952" d="M 288.89757885819404 105.62412203159744 C 288.89757885819404 105.62412203159744 143.0428821324291 84.90099498235459 293.68715054295933 159.48697891032398" fill="none" stroke="black" stroke-weight="1"></path><path id="SvgjsPath1953" d="M 288.2656467721861 105.67456923418823 C 288.2656467721861 105.67456923418823 137.78524281089244 82.13178622214623 293.03342769536494 166.6564870760556" fill="none" stroke="black" stroke-weight="1"></path><path id="SvgjsPath1954" d="M 287.28812257660456 105.7527183881526 C 287.28812257660456 105.7527183881526 132.55813402100623 79.53221265130011 292.02219576890127 173.7843626986279" fill="none" stroke="black" stroke-weight="1"></path><path id="SvgjsPath1955" d="M 285.9674495728536 105.85852065281318 C 285.9674495728536 105.85852065281318 127.37462081251927 77.10877184991153 290.65598231674505 180.85278980111025" fill="none" stroke="black" stroke-weight="1"></path><path id="SvgjsPath1956" d="M 284.3069287556493 105.99190990519858 C 284.3069287556493 105.99190990519858 122.24765926893112 74.8675211578803 288.9382021610166 187.84410099691212" fill="none" stroke="black" stroke-weight="1"></path><path id="SvgjsPath1957" d="M 282.3107105622524 106.15280278136807 C 282.3107105622524 106.15280278136807 117.190064124031 72.81406253471579 286.8731488575025 194.74082164904854" fill="none" stroke="black" stroke-weight="1"></path><path id="SvgjsPath1958" d="M 279.9837844985358 106.3410987285113 C 279.9837844985358 106.3410987285113 112.21447673173668 70.9535285575554 284.46598396400253 201.52571354763182" fill="none" stroke="black" stroke-weight="1"></path><path id="SvgjsPath1959" d="M 277.3319666678192 106.55668006779064 C 277.3319666678192 106.55668006779064 107.33333346929291 69.29056959239459 281.72272413912333 208.18181799641889" fill="none" stroke="black" stroke-weight="1"></path><path id="SvgjsPath1960" d="M 274.36188523363944 106.7994120678865 C 274.36188523363944 106.7994120678865 102.55883465280536 67.82934217059392 278.6502261037649 214.69249820071997" fill="none" stroke="black" stroke-weight="1"></path><path id="SvgjsPath1961" d="M 271.0809638527934 107.06914302920009 C 271.0809638527934 107.06914302920009 97.90291404280448 66.57349859971542 275.2561695028897 221.0414808507211" fill="none" stroke="black" stroke-weight="1"></path><path id="SvgjsPath1962" d="M 267.4974031200623 107.3657043786607 C 267.4974031200623 107.3657043786607 93.37720901605888 65.52617783465564 271.54903771040927 227.21289679628336" fill="none" stroke="black" stroke-weight="1"></path><path id="SvgjsPath1963" d="M 263.6201600709957 107.68891077507843 C 263.6201600709957 107.68891077507843 88.99303147819364 64.68999763189306 267.538096625168 233.19132071155423" fill="none" stroke="black" stroke-weight="1"></path><path id="SvgjsPath1964" d="M 259.45892579398713 108.03856022497631 C 259.45892579398713 108.03856022497631 84.76133958981775 64.06704800646037 263.2333715110212 238.96180965024854" fill="none" stroke="black" stroke-weight="1"></path><path id="SvgjsPath1965" d="M 255.0241012076002 108.41443420882976 C 255.0241012076002 108.41443420882976 80.69271037682977 63.658886007995264 258.64562193889674 244.50994039523206" fill="none" stroke="black" stroke-weight="1"></path><path id="SvgjsPath1966" d="M 250.32677106368882 108.81629781763411 C 250.32677106368882 108.81629781763411 76.79731329336116 63.46653182892723 253.78631489347117 249.821845509053" fill="none" stroke="black" stroke-weight="1"></path><path id="SvgjsPath1967" d="M 245.37867624129052 109.24389989971502 C 245.37867624129052 109.24389989971502 73.08488480343688 63.490466254527846 248.66759611167987 254.88424799531347" fill="none" stroke="black" stroke-weight="1"></path><path id="SvgjsPath1968" d="M 240.1921844005434 109.69697321769031 C 240.1921844005434 109.69697321769031 69.5647040448862 63.73062946119789 243.30225972470006 259.6844944842461" fill="none" stroke="black" stroke-weight="1"></path><path id="SvgjsPath1969" d="M 234.78025906997652 110.17523461548438 C 234.78025906997652 110.17523461548438 66.24556963633098 64.18642116599528 237.70371627928608 264.2105868595486" fill="none" stroke="black" stroke-weight="1"></path><path id="SvgjsPath1970" d="M 229.15642724444012 110.6783851952917 C 229.15642724444012 110.6783851952917 63.13577768522093 64.85670212702975 231.88595921838635 268.45121224742604" fill="none" stroke="black" stroke-weight="1"></path><path id="SvgjsPath1971" d="M 223.334745574663 111.20611050437816 C 223.334745574663 111.20611050437816 60.24310105188532 65.73979699097428 225.8635299048238 272.39577129288375" fill="none" stroke="black" stroke-weight="1"></path><path id="SvgjsPath1972" d="M 217.32976523294644 111.75808073160374 C 217.32976523294644 111.75808073160374 57.574769921430544 66.83349848057597 219.65148127546183 276.03440465259473" fill="none" stroke="black" stroke-weight="1"></path><path id="SvgjsPath1973" d="M 211.1564955428114 112.33395091354389 C 211.1564955428114 112.33395091354389 55.137453732042886 68.13507291169951 213.26534021670145 279.35801763812333" fill="none" stroke="black" stroke-weight="1"></path><path id="SvgjsPath1974" d="M 204.83036646350652 112.93336115008023 C 204.83036646350652 112.93336115008023 52.93724450486613 69.64126702611391 206.72106875535158 282.3583029479098" fill="none" stroke="black" stroke-weight="1"></path><path id="SvgjsPath1975" d="M 198.36719002314572 113.55593682932661 C 198.36719002314572 113.55593682932661 50.97964161712132 71.34831612294387 200.03502416187487 285.02776143119826" fill="none" stroke="black" stroke-weight="1"></path><path id="SvgjsPath1976" d="M 191.78312079687268 114.20128886174916 C 191.78312079687268 114.20128886174916 49.269538056527864 73.25195346846141 193.22391806573035 287.3597208320075" fill="none" stroke="black" stroke-weight="1"></path><path id="SvgjsPath1977" d="M 185.09461552883613 114.86901392333479 C 185.09461552883613 114.86901392333479 47.81120819138262 75.34742096069783 186.30477468500288 289.34835246629643" fill="none" stroke="black" stroke-weight="1"></path><path id="SvgjsPath1978" d="M 178.31839199889993 115.55869470765538 C 178.31839199889993 115.55869470765538 46.60829708686498 77.62948102222084 179.29488827472406 290.98868579063867" fill="none" stroke="black" stroke-weight="1"></path><path id="SvgjsPath1979" d="M 171.47138723689994 116.26990018667078 C 171.47138723689994 116.26990018667078 45.6638113942722 80.09242969135059 172.2117799002413 292.2766208259925" fill="none" stroke="black" stroke-weight="1"></path><path id="SvgjsPath1980" d="M 164.57071518889 117.00218588010738 C 164.57071518889 117.00218588010738 44.98011183595709 82.73011087909323 165.07315364367932 293.2089384055131" fill="none" stroke="black" stroke-weight="1"></path><path id="SvgjsPath1981" d="M 157.63362394118963 117.75509413324369 C 157.63362394118963 117.75509413324369 44.558907304751614 85.53593175615713 157.8968523529548 293.7833082207933" fill="none" stroke="black" stroke-weight="1"></path><path id="SvgjsPath1982" d="M 150.6774526091508 118.52815440292973 C 150.6774526091508 118.52815440292973 44.40125059262472 88.50287923159279 150.7008130439491 293.99829464642085" fill="none" stroke="black" stroke-weight="1"></path><path id="SvgjsPath1983" d="M 143.71958799839956 119.32088355166114 C 143.71958799839956 119.32088355166114 44.507535759250686 91.62353748186807 143.50302206730987 293.8533603282945" fill="none" stroke="black" stroke-weight="1"></path><path id="SvgjsPath1984" d="M 136.77742114687697 120.1327861495244 C 136.77742114687697 120.1327861495244 44.8774971470652 94.89010648656482 136.3214701519417 293.34886752672924" fill="none" stroke="black" stroke-weight="1"></path><path id="SvgjsPath1985" d="M 129.86830385630128 120.96335478382446 C 129.86830385630128 120.96335478382446 45.51021004527088 98.29442152436745 129.17410743755306 292.48607721099427" fill="none" stroke="black" stroke-weight="1"></path><path id="SvgjsPath1986" d="M 123.00950532170013 121.81207037620099 C 123.00950532170013 121.81207037620099 46.40409300113272 101.82797358061433 122.07879860865532 291.26714590754625" fill="none" stroke="black" stroke-weight="1"></path><path id="SvgjsPath1987" d="M 116.21816896741697 122.67840250703568 C 116.21816896741697 122.67840250703568 47.55691177278631 105.48193061540324 115.05327824215547 289.69512030983685" fill="none" stroke="black" stroke-weight="1"></path><path id="SvgjsPath1988" d="M 109.51126959747751 123.5618097469471 C 109.51126959747751 123.5618097469471 48.965784913678945 109.24715963909145 108.11510648014914 287.77392966316506" fill="none" stroke="black" stroke-weight="1"></path><path id="SvgjsPath1989" d="M 102.9055709674212 124.46173999516645 C 102.9055709674212 124.46173999516645 50.62719097468536 113.11424954001295 101.28162513871158 285.5083759436109" fill="none" stroke="black" stroke-weight="1"></path><metadata>116 * Math.cos(t/1);37 * Math.cos(t/2);44 * Math.sin(t/1)+44 * Math.sin(t/1);51 * Math.cos(t/1)+51 * Math.sin(t/1)</metadata></svg>