<svg id="SvgjsSvg2236" width="300" height="300" xmlns="http://www.w3.org/2000/svg" version="1.1" xmlns:xlink="http://www.w3.org/1999/xlink" xmlns:svgjs="http://svgjs.com/svgjs"><defs id="SvgjsDefs2237"></defs><path id="SvgjsPath2238" d="M 10.800000000000011 150 C 10.800000000000011 150 149.99999999999997 211.2 6 150" fill="none" stroke="black" stroke-weight="1"></path><path id="SvgjsPath2239" d="M 10.973963753020683 148.89011562138677 C 10.973963753020683 148.89011562138677 155.27780027498358 214.18224109553742 6.1799625031248695 142.80299962502238" fill="none" stroke="black" stroke-weight="1"></path><path id="SvgjsPath2240" d="M 11.495420193298798 147.78092488438188 C 11.495420193298798 147.78092488438188 160.54240879790498 217.00406001380102 6.719400199964298 135.62398800285675" fill="none" stroke="black" stroke-weight="1"></path><path id="SvgjsPath2241" d="M 12.3630659513029 146.67312099709025 C 12.3630659513029 146.67312099709025 165.7806667892121 219.65840367707005 7.616964777209915 128.48090892380173" fill="none" stroke="black" stroke-weight="1"></path><path id="SvgjsPath2242" d="M 13.57473236449917 145.56739630088083 C 13.57473236449917 145.56739630088083 170.97948133195845 222.13863760854173 8.870412790861224 121.39161636551118" fill="none" stroke="black" stroke-weight="1"></path><path id="SvgjsPath2243" d="M 15.127390897878229 144.4644418376959 C 15.127390897878229 144.4644418376959 176.1258580972776 224.43856251506827 10.476611273667146 114.37382986734872" fill="none" stroke="black" stroke-weight="1"></path><path id="SvgjsPath2244" d="M 17.01716071371564 143.3649469181722 C 17.01716071371564 143.3649469181722 181.2069338234374 226.55242978216103 12.431545565912728 107.44509024076714" fill="none" stroke="black" stroke-weight="1"></path><path id="SvgjsPath2245" d="M 19.239318371644856 142.26959869084433 C 19.239318371644856 142.26959869084433 186.2100084672956 228.47495584253318 14.730329349977438 100.62271572641501" fill="none" stroke="black" stroke-weight="1"></path><path id="SvgjsPath2246" d="M 21.788309634798367 141.1790817126993 C 21.788309634798367 141.1790817126993 191.1225769477935 230.201335382266 17.36721686358453 93.92375870755436" fill="none" stroke="black" stroke-weight="1"></path><path id="SvgjsPath2247" d="M 24.657763352507374 140.0940775213505 C 24.657763352507374 140.0940775213505 195.93236040214592 231.72725335159112 20.335617261214537 87.36496308798283" fill="none" stroke="black" stroke-weight="1"></path><path id="SvgjsPath2248" d="M 27.840507384860132 139.0152642090992 C 27.840507384860132 139.0152642090992 200.6273368766038 233.048895750268 23.628111087786323 80.96272244099478" fill="none" stroke="black" stroke-weight="1"></path><path id="SvgjsPath2249" d="M 31.328586529316794 137.94331599914858 C 31.328586529316794 137.94331599914858 205.19577137507756 234.16295916059806 27.236468823431153 74.73303903398512" fill="none" stroke="black" stroke-weight="1"></path><path id="SvgjsPath2250" d="M 35.113282404572786 136.87890282423652 C 35.113282404572786 136.87890282423652 209.62624519051568 235.06665900424846 31.151671453006315 68.69148383111492" fill="none" stroke="black" stroke-weight="1"></path><path id="SvgjsPath2251" d="M 39.18513524197141 135.82268990794915 C 39.18513524197141 135.82268990794915 213.90768444572578 235.75773650224784 35.363933008935945 62.853157574010325" fill="none" stroke="black" stroke-weight="1"></path><path id="SvgjsPath2252" d="M 43.53396752999923 134.77533734897796 C 43.53396752999923 134.77533734897796 218.02938777230017 236.23446432075738 39.862725031033676 57.232653037772494" fill="none" stroke="black" stroke-weight="1"></path><path id="SvgjsPath2253" d="M 48.148909452764116 133.7374997085795 C 48.148909452764116 133.7374997085795 221.98105305846406 236.4956508885059 44.636802882169775 51.84401855663991" fill="none" stroke="black" stroke-weight="1"></path><path id="SvgjsPath2254" d="M 53.018426058874596 132.7098256014959 C 53.018426058874596 132.7098256014959 225.75280319898962 236.54064337509732 49.67423385400819 46.70072291046871" fill="none" stroke="black" stroke-weight="1"></path><path id="SvgjsPath2255" d="M 58.130346092810484 131.69295729059195 C 58.130346092810484 131.69295729059195 229.33521078281487 236.36932932274684 54.96242699256257 41.815621659797856" fill="none" stroke="black" stroke-weight="1"></path><path id="SvgjsPath2256" d="M 63.47189241672355 130.68753028546138 C 63.47189241672355 130.68753028546138 232.71932165666226 235.98213692736664 60.48816456902435 37.200925013642376" fill="none" stroke="black" stroke-weight="1"></path><path id="SvgjsPath2257" d="M 69.02971394662742 129.69417294525437 C 69.02971394662742 129.69417294525437 235.89667730575786 235.38003396829933 66.23763511720078 32.86816731033019" fill="none" stroke="black" stroke-weight="1"></path><path id="SvgjsPath2258" d="M 74.78991902315495 128.7135060859734 C 74.78991902315495 128.7135060859734 238.85933599571388 234.56452538937344 72.19646795498788 28.828178187662928" fill="none" stroke="black" stroke-weight="1"></path><path id="SvgjsPath2259" d="M 80.73811013347168 127.74614259248337 C 80.73811013347168 127.74614259248337 241.5998926227282 233.53764953732752 78.3497691035914 25.09105551446153" fill="none" stroke="black" stroke-weight="1"></path><path id="SvgjsPath2260" d="M 86.85941989755968 126.79268703547874 C 86.85941989755968 126.79268703547874 244.11149722248757 232.30197306700518 84.68215851471692 21.666140151153286" fill="none" stroke="black" stroke-weight="1"></path><path id="SvgjsPath2261" d="M 93.13854822892534 125.85373529364627 C 93.13854822892534 125.85373529364627 246.38787209151104 230.8605845260543 91.17780851268138 18.561992602484963" fill="none" stroke="black" stroke-weight="1"></path><path id="SvgjsPath2262" d="M 99.55980057684705 124.92987418126043 C 99.55980057684705 124.92987418126043 248.4233274781391 229.21708663516665 97.82048335535902 15.786371620719393" fill="none" stroke="black" stroke-weight="1"></path><path id="SvgjsPath2263" d="M 106.10712715457859 124.02168108144349 C 106.10712715457859 124.02168108144349 250.2127758039499 227.37558728315233 104.59357981508128 13.346214812795608" fill="none" stroke="black" stroke-weight="1"></path><path id="SvgjsPath2264" d="M 112.76416305545752 123.12972358531984 C 112.76416305545752 123.12972358531984 251.75174438005558 225.34068925935694 111.4801686780595 11.24762129992422" fill="none" stroke="black" stroke-weight="1"></path><path id="SvgjsPath2265" d="M 119.51426915664867 122.25455913729012 C 119.51426915664867 122.25455913729012 253.0363865864952 223.11747874908565 118.46303705860207 9.495836472961088" fill="none" stroke="black" stroke-weight="1"></path><path id="SvgjsPath2266" d="M 126.3405737082865 121.39673468664651 C 126.3405737082865 121.39673468664651 254.0634914867814 220.71151262078848 125.52473142236533 8.095238881661714" fill="none" stroke="black" stroke-weight="1"></path><path id="SvgjsPath2267" d="M 133.2260145040627 120.55678634574727 C 133.2260145040627 120.55678634574727 254.83049185356936 218.1288045367832 132.64760121109936 7.049329290587252" fill="none" stroke="black" stroke-weight="1"></path><path id="SvgjsPath2268" d="M 140.15338152785586 119.73523905496396 C 140.15338152785586 119.73523905496396 255.33547058538815 215.3758099222315 139.8138429598509 6.360721929016165" fill="none" stroke="black" stroke-weight="1"></path><path id="SvgjsPath2269" d="M 147.10535996980963 118.93260625461079 C 147.10535996980963 118.93260625461079 255.57716549839608 212.45940982993787 147.00554479635477 6.031137956732579" fill="none" stroke="black" stroke-weight="1"></path><path id="SvgjsPath2270" d="M 154.06457350433945 118.14938956406118 C 154.06457350433945 118.14938956406118 255.55497248118292 209.3868937413012 154.20473121138565 6.061401162023259" fill="none" stroke="black" stroke-weight="1"></path><path id="SvgjsPath2271" d="M 161.0136277218974 117.38607846825191 C 161.0136277218974 117.38607846825191 255.26894700473383 206.1659413464077 161.3934079881697 6.451435902635666" fill="none" stroke="black" stroke-weight="1"></path><path id="SvgjsPath2272" d="M 167.93515360593716 116.64315001177098 C 167.93515360593716 116.64315001177098 254.71980398378065 202.8046033488049 168.5536071785557 7.2002672948445365" fill="none" stroke="black" stroke-weight="1"></path><path id="SvgjsPath2273" d="M 174.8118509464094 115.9210685007204 C 174.8118509464094 115.9210685007204 253.90891598988773 199.31128134293604 175.66743201352696 8.306023650153094" fill="none" stroke="black" stroke-weight="1"></path><path id="SvgjsPath2274" d="M 181.6265315812778 115.22028521253974 C 181.6265315812778 115.22028521253974 252.83830982073738 195.6947068145286 182.71710163580462 9.765941153539927" fill="none" stroke="black" stroke-weight="1"></path><path id="SvgjsPath2275" d="M 188.36216235797235 114.54123811397264 C 188.36216235797235 114.54123811397264 251.5106614341916 191.96391931642808 189.68499554273004 11.576370771556867" fill="none" stroke="black" stroke-weight="1"></path><path id="SvgjsPath2276" d="M 195.00190770739982 113.8843515873518 C 195.00190770739982 113.8843515873518 249.9292892597909 188.12824387442322 196.55369762834465 13.732787373012371" fill="none" stroke="black" stroke-weight="1"></path><path id="SvgjsPath2277" d="M 201.52917172409926 113.25003616537376 C 201.52917172409926 113.25003616537376 248.09814590440857 184.19726767953796 203.30603971458544 16.22980103944286" fill="none" stroke="black" stroke-weight="1"></path><path id="SvgjsPath2278" d="M 207.9276396473623 112.63868827452939 C 207.9276396473623 112.63868827452939 246.021808272792 180.18081612504662 209.9251444627886 19.061170537101873" fill="none" stroke="black" stroke-weight="1"></path><path id="SvgjsPath2279" d="M 214.1813186396385 112.05068998735024 C 214.1813186396385 112.05068998735024 243.70546612768442 176.08892824810772 216.39446755824673 22.219818916793997" fill="none" stroke="black" stroke-weight="1"></path><path id="SvgjsPath2280" d="M 220.2745777603002 111.48640878362565 C 220.2745777603002 111.48640878362565 241.154909118121 171.93183163739968 222.6978390623795 25.69785120256222" fill="none" stroke="black" stroke-weight="1"></path><path id="SvgjsPath2281" d="M 226.19218703485376 110.94619732073977 C 226.19218703485376 110.94619732073977 238.37651230832134 167.71991686947547 228.81950382915906 29.48657412501636" fill="none" stroke="black" stroke-weight="1"></path><path id="SvgjsPath2282" d="M 231.9193555219441 110.43039321327228 C 231.9193555219441 110.43039321327228 235.3772202433488 163.46371153773185 234.74416088476977 33.57651784997903" fill="none" stroke="black" stroke-weight="1"></path><path id="SvgjsPath2283" d="M 237.44176828300527 109.93931882200017 C 237.44176828300527 109.93931882200017 232.1645295913645 159.17385393890916 240.4570016720744 37.957459648139334" fill="none" stroke="black" stroke-weight="1"></path><path id="SvgjsPath2284" d="M 242.7456221621515 109.47328105243287 C 242.7456221621515 109.47328105243287 228.74647040586163 154.86106648289 245.94374706429466 42.61844944655226" fill="none" stroke="black" stroke-weight="1"></path><path id="SvgjsPath2285" d="M 247.81766028687866 109.03257116300614 C 247.81766028687866 109.03257116300614 225.13158605471324 150.53612889225823 251.1906830553917 47.54783719811836" fill="none" stroke="black" stroke-weight="1"></path><path id="SvgjsPath2286" d="M 252.6452052033413 108.61746458305515 C 252.6452052033413 108.61746458305515 221.32891186620168 146.20985125860636 256.18469503793926 52.7333020006342" fill="none" stroke="black" stroke-weight="1"></path><path id="SvgjsPath2287" d="M 257.2161905633851 108.22822074068009 C 257.2161905633851 108.22822074068009 217.3479525454037 141.8930470229365 260.9133005828122 58.16188289263137" fill="none" stroke="black" stroke-weight="1"></path><path id="SvgjsPath2288" d="M 261.5191912841331 107.86508290061198 C 261.5191912841331 107.86508290061198 213.19865841737783 137.59650594768982 265.3646806387584 63.82001124903016" fill="none" stroke="black" stroke-weight="1"></path><path id="SvgjsPath2289" d="M 265.5434521047428 107.52827801218024 C 265.5434521047428 107.52827801218024 208.89140055653374 133.33096714795923 269.5277090738719 69.69354469563584" fill="none" stroke="black" stroke-weight="1"></path><path id="SvgjsPath2290" d="M 269.27891446895734 107.21801656747664 C 269.27891446895734 107.21801656747664 204.43694486434683 129.10709224929423 273.3919804851283 75.767802457709" fill="none" stroke="black" stroke-weight="1"></path><path id="SvgjsPath2291" d="M 272.7162416662573 106.9344924698047 C 272.7162416662573 106.9344924698047 199.84642516021177 124.93543873918985 276.9478362064731 82.02760205425672" fill="none" stroke="black" stroke-weight="1"></path><path id="SvgjsPath2292" d="M 275.8468421687748 106.67788291249634 C 275.8468421687748 106.67788291249634 195.13131535269252 120.82643357886633 280.18638845045666 88.45729724632827" fill="none" stroke="black" stroke-weight="1"></path><path id="SvgjsPath2293" d="M 278.6628911056388 106.4483482681719 C 278.6628911056388 106.4483482681719 190.30340076072642 116.7903471412961 283.09954252307466 95.04081714446399" fill="none" stroke="black" stroke-weight="1"></path><path id="SvgjsPath2294" d="M 281.1573498210771 106.24603198851237 C 281.1573498210771 106.24603198851237 185.37474865646385 112.83726754061973 285.6800170562867 101.76170637754942" fill="none" stroke="black" stroke-weight="1"></path><path id="SvgjsPath2295" d="M 283.3239834673901 106.0710605146069 C 283.3239834673901 106.0710605146069 180.35767810337293 108.97707541711478 287.9213622076449 108.60316622267328" fill="none" stroke="black" stroke-weight="1"></path><path id="SvgjsPath2296" d="M 285.1573765888229 105.92354319793108 C 285.1573765888229 105.92354319793108 175.2647291649967 105.2194192407409 289.81797578154095 115.5480965931862" fill="none" stroke="black" stroke-weight="1"></path><path id="SvgjsPath2297" d="M 286.65294665738475 105.80357223200596 C 286.65294665738475 105.80357223200596 170.10863156132476 101.57369119498968 291.3651172317773 122.57913878001172" fill="none" stroke="black" stroke-weight="1"></path><path id="SvgjsPath2298" d="M 287.80695552678196 105.71122259478 C 287.80695552678196 105.71122259478 164.90227285112238 98.04900370131688 292.5589195104641 129.67871883937872" fill="none" stroke="black" stroke-weight="1"></path><path id="SvgjsPath2299" d="M 288.6165187758373 105.64655200177036 C 288.6165187758373 105.64655200177036 159.65866621974567 94.65416664283481 293.3963987336248 136.82909151852863" fill="none" stroke="black" stroke-weight="1"></path><path id="SvgjsPath2300" d="M 289.0796129180405 105.60960086999256 C 289.0796129180405 105.60960086999256 154.39091795295573 91.39766534419283 293.87546163935224 144.0123846096057" fill="none" stroke="black" stroke-weight="1"></path><path id="SvgjsPath2301" d="M 289.19508045921077 105.60039229270114 C 289.19508045921077 105.60039229270114 149.11219467802945 88.28763936268459 293.9949108198732 151.21064362086895" fill="none" stroke="black" stroke-weight="1"></path><path id="SvgjsPath2302" d="M 288.96263279062964 105.61893202495718 C 288.96263279062964 105.61893202495718 143.83569045404803 85.33186214359348 293.7544477144445 158.405876653571" fill="none" stroke="black" stroke-weight="1"></path><path id="SvgjsPath2303" d="M 288.38285091041206 105.66520848003148 C 288.38285091041206 105.66520848003148 138.57459379362095 82.53772159062815 293.1546733555987 165.58009937233507" fill="none" stroke="black" stroke-weight="1"></path><path id="SvgjsPath2304" d="M 287.45718397131407 105.739192736646 C 287.45718397131407 105.739192736646 133.3420546984733 79.91220160001083 292.1970868668766 172.71537995662723" fill="none" stroke="black" stroke-weight="1"></path><path id="SvgjsPath2305" d="M 286.1879456586054 105.84083855704864 C 286.1879456586054 105.84083855704864 128.1511517912894 77.46186460437377 290.88408171579863 179.793883920969" fill="none" stroke="black" stroke-weight="1"></path><path id="SvgjsPath2306" d="M 284.5783084070611 105.97008241591038 C 284.5783084070611 105.97008241591038 123.01485962596715 75.19283517009514 289.21893973144256 186.79791869186312" fill="none" stroke="black" stroke-weight="1"></path><path id="SvgjsPath2307" d="M 282.6322954715274 106.1268435400265 C 282.6322954715274 106.1268435400265 117.94601625799034 73.11078468907286 287.20582290158006 193.7099778300132" fill="none" stroke="black" stroke-weight="1"></path><path id="SvgjsPath2308" d="M 280.35477087087907 106.3110239587972 C 280.35477087087907 106.3110239587972 112.95729115597652 71.22091720319867 284.84976296987486 200.51278478730464" fill="none" stroke="black" stroke-weight="1"></path><path id="SvgjsPath2309" d="M 277.7514272305059 106.52250856545606 C 277.7514272305059 106.52250856545606 108.06115353460311 69.52795639696332 282.156648859144 207.1893360891776" fill="none" stroke="black" stroke-weight="1"></path><path id="SvgjsPath2310" d="M 274.8287715537136 106.76116518900811 C 274.8287715537136 106.76116518900811 103.26984118806415 68.03613379070539 279.13321195211745 213.7229438344581" fill="none" stroke="black" stroke-weight="1"></path><path id="SvgjsPath2311" d="M 271.5941089576045 107.02684467683218 C 271.5941089576045 107.02684467683218 98.59532990195862 66.74917816401432 275.7870092664874 220.0972774064201" fill="none" stroke="black" stroke-weight="1"></path><path id="SvgjsPath2312" d="M 268.0555244140892 107.31938098789665 C 268.0555244140892 107.31938098789665 94.04930352006352 65.67030623572333 272.1264045662992 226.29640429082238" fill="none" stroke="black" stroke-weight="1"></path><path id="SvgjsPath2313" d="M 264.2218625416673 107.63859129652957 C 264.2218625416673 107.63859129652957 89.64312474080899 64.80221462378755 268.1605474568972 232.30482989889686" fill="none" stroke="black" stroke-weight="1"></path><path id="SvgjsPath2314" d="M 260.1027054984873 107.98427610667875 C 260.1027054984873 107.98427610667875 85.38780671644942 64.14707310514336 263.8993505156765 238.1075362957509" fill="none" stroke="black" stroke-weight="1"></path><path id="SvgjsPath2315" d="M 255.70834903194162 108.35621937659042 C 255.70834903194162 108.35621937659042 81.29398552591881 63.70651919239633 259.3534645158017 243.69001973738347" fill="none" stroke="black" stroke-weight="1"></path><path id="SvgjsPath2316" d="M 251.04977674466008 108.75418865382815 C 251.04977674466008 108.75418865382815 77.37189359017277 63.48165404089225 254.53425180482077 249.0383269224916" fill="none" stroke="black" stroke-weight="1"></path><path id="SvgjsPath2317" d="M 246.1386326412233 109.17793522054814 C 246.1386326412233 109.17793522054814 73.6313340964648 63.47303969640238 249.45375790471377 254.13908986845712" fill="none" stroke="black" stroke-weight="1"></path><path id="SvgjsPath2318" d="M 240.98719202421546 109.62719424893967 C 240.98719202421546 109.62719424893967 70.08165649548329 63.6806976903017 244.12468140436079 258.97955932434104" fill="none" stroke="black" stroke-weight="1"></path><path id="SvgjsPath2319" d="M 235.60833081236063 110.10168496673408 C 235.60833081236063 110.10168496673408 66.73173313259423 64.10410898575164 238.56034221968343 263.5476366373715" fill="none" stroke="black" stroke-weight="1"></path><path id="SvgjsPath2320" d="M 230.0154933574318 110.60111083267807 C 230.0154933574318 110.60111083267807 63.58993707159861 64.74221527502195 232.7746483007915 267.8319039932745" fill="none" stroke="black" stroke-weight="1"></path><path id="SvgjsPath2321" d="M 224.22265884037273 111.12515972186242 C 224.22265884037273 111.12515972186242 60.66412116643326 65.59342162470868 226.78206086935108 271.82165295486374" fill="none" stroke="black" stroke-weight="1"></path><path id="SvgjsPath2322" d="M 218.24430633062622 111.67350412078993 C 218.24430633062622 111.67350412078993 57.96159843312553 66.65560046223742 220.59755827306162 275.5069112275562" fill="none" stroke="black" stroke-weight="1"></path><path id="SvgjsPath2323" d="M 212.09537859600084 112.24580133206065 C 212.09537859600084 112.24580133206065 55.48912377106193 67.92609689368638 214.2365985475871 278.8784675849156" fill="none" stroke="black" stroke-weight="1"></path><path id="SvgjsPath2324" d="M 205.7912447535335 112.84169368854661 C 205.7912447535335 112.84169368854661 53.25287707925783 69.40173533963866 207.7150807795174 281.9278948919211" fill="none" stroke="black" stroke-weight="1"></path><path id="SvgjsPath2325" d="M 199.3476618547009 113.46080877692215 C 199.3476618547009 113.46080877692215 51.25844780982807 71.07882747247699 201.04930536693197 284.64757116841633" fill="none" stroke="black" stroke-weight="1"></path><path id="SvgjsPath2326" d="M 192.78073550099705 114.1027596704101 C 192.78073550099705 114.1027596704101 49.5108209972674 72.953181435282 194.2559332768935 287.03069864008995" fill="none" stroke="black" stroke-weight="1"></path><path id="SvgjsPath2327" d="M 186.10687958831704 114.76714517059841 C 186.10687958831704 114.76714517059841 48.01436479846076 75.02011231929143 187.3519444017073 289.0713207293717" fill="none" stroke="black" stroke-weight="1"></path><path id="SvgjsPath2328" d="M 179.34277528076564 115.45355005817618 C 179.34277528076564 115.45355005817618 46.77281957456593 77.274453873732 180.35459511803342 290.76433694377374" fill="none" stroke="black" stroke-weight="1"></path><path id="SvgjsPath2329" d="M 172.50532931643428 116.16154535243211 C 172.50532931643428 116.16154535243211 45.78928854205836 79.71057141875589 173.281375154932 292.10551562446585" fill="none" stroke="black" stroke-weight="1"></path><path id="SvgjsPath2330" d="M 165.61163174936075 116.8906885793535 C 165.61163174936075 116.8906885793535 45.066230016306264 82.32237592920613 166.14996387864906 293.09150452321876" fill="none" stroke="black" stroke-weight="1"></path><path id="SvgjsPath2331" d="M 158.67891323329448 117.6405240481582 C 158.67891323329448 117.6405240481582 44.60545126706239 85.10333925400818 158.9781861034081 293.71983918127853" fill="none" stroke="black" stroke-weight="1"></path><path id="SvgjsPath2332" d="M 151.72450195403562 118.41058313608637 C 151.72450195403562 118.41058313608637 44.40810400123097 88.04651043314763 151.78396753865752 293.98894908923046" fill="none" stroke="black" stroke-weight="1"></path><path id="SvgjsPath2333" d="M 144.7657803179949 119.20038458127459 C 144.7657803179949 119.20038458127459 44.47468148420005 91.14453307145047 144.58528998413266 293.8981616124545" fill="none" stroke="black" stroke-weight="1"></path><path id="SvgjsPath2334" d="M 137.8201415052303 120.00943478352875 C 137.8201415052303 120.00943478352875 44.80501730693513 94.38966372574001 137.400146384721 293.4477036723612" fill="none" stroke="black" stroke-weight="1"></path><path id="SvgjsPath2335" d="M 130.90494599555495 120.83722811280816 C 130.90494599555495 120.83722811280816 45.39828580191495 97.77379125941205 130.24649585747062 292.6387011792069" fill="none" stroke="black" stroke-weight="1"></path><path id="SvgjsPath2336" d="M 124.03747817637868 121.68324722522789 C 124.03747817637868 121.68324722522789 46.25300410687032 101.28845711605183 123.14221880315037 291.4731762179041" fill="none" stroke="black" stroke-weight="1"></path><path id="SvgjsPath2337" d="M 117.23490314074174 122.54696338638172 C 117.23490314074174 122.54696338638172 47.367035871167474 104.92487646142024 116.10507221456041 289.9540419938626" fill="none" stroke="black" stroke-weight="1"></path><path id="SvgjsPath2338" d="M 110.51422378352035 123.42783680178414 C 110.51422378352035 123.42783680178414 48.737596595572256 108.67396014096454 109.1526452932969 288.0850955514924" fill="none" stroke="black" stroke-weight="1"></path><path id="SvgjsPath2339" d="M 103.89223830304519 124.32531695422423 C 103.89223830304519 124.32531695422423 50.36126059204791 112.52633739797106 102.30231548590882 285.87100828357103" fill="none" stroke="black" stroke-weight="1"></path><path id="SvgjsPath2340" d="M 97.38549821435431 125.23884294782093 C 97.38549821435431 125.23884294782093 52.23396954619109 116.47237929557643 95.57120504933204 283.31731425519393" fill="none" stroke="black" stroke-weight="1"></path><path id="SvgjsPath2341" d="M 91.01026697902495 126.16784385856474 C 91.01026697902495 126.16784385856474 54.35104266090433 120.50222278409541 88.97613825416374 280.4303963714941" fill="none" stroke="black" stroke-weight="1"></path><path id="SvgjsPath2342" d="M 84.78247935498895 127.11173909112676 C 84.78247935498895 127.11173909112676 56.707188355951246 124.60579535350874 82.53359933274719 277.2174704237028" fill="none" stroke="black" stroke-weight="1"></path><path id="SvgjsPath2343" d="M 78.71770156793707 128.06993874171184 C 78.71770156793707 128.06993874171184 59.29651749415129 128.7728402094923 76.25969127717629 273.68656705343005" fill="none" stroke="black" stroke-weight="1"></path><path id="SvgjsPath2344" d="M 72.83109240386197 129.041843966729 C 72.83109240386197 129.041843966729 62.11255810115544 132.99294191006103 70.17009559020204 269.84651168024254" fill="none" stroke="black" stroke-weight="1"></path><path id="SvgjsPath2345" d="M 67.13736531998724 130.02684735704952 C 67.13736531998724 130.02684735704952 65.14827154201167 137.2555523987498 64.28003308964198 265.70690244271134" fill="none" stroke="black" stroke-weight="1"></path><path id="SvgjsPath2346" d="M 61.65075166878661 131.0243333176177 C 61.65075166878661 131.0243333176177 68.39607011408692 141.55001736926175 58.604225864262006 261.2780862080633" fill="none" stroke="black" stroke-weight="1"></path><path id="SvgjsPath2347" d="M 56.38496512701475 132.0336784521778 C 56.38496512701475 132.0336784521778 71.84783601237193 145.86560289568476 53.156860476222164 256.5711327104019" fill="none" stroke="black" stroke-weight="1"></path><path id="SvgjsPath2348" d="M 51.35316741865766 133.05425195287626 C 51.35316741865766 133.05425195287626 75.49494161976581 150.1915222617162 47.95155250205964 251.59780688213755" fill="none" stroke="black" stroke-weight="1"></path><path id="SvgjsPath2349" d="M 46.567935417476846 134.0854159944962 C 46.567935417476846 134.0854159944962 79.3282710716258 154.516962921836 43.00131250083811 246.37053944778296" fill="none" stroke="black" stroke-weight="1"></path><path id="SvgjsPath2350" d="M 42.04122971137437 135.12652613307756 C 42.04122971137437 135.12652613307756 83.3382430406818 158.8311135270401 38.318513494525206 240.9023958536157" fill="none" stroke="black" stroke-weight="1"></path><path id="SvgjsPath2351" d="M 37.784364707152605 136.1769317086733 C 37.784364707152605 136.1769317086733 87.51483468536433 163.12319094758175 33.91486004188201 235.2070436108668" fill="none" stroke="black" stroke-weight="1"></path><path id="SvgjsPath2352" d="M 33.807980350389855 137.2359762519908 C 33.807980350389855 137.2359762519908 91.84760670168843 167.38246722518016 29.80135898316192 229.2987181340612" fill="none" stroke="black" stroke-weight="1"></path><path id="SvgjsPath2353" d="M 30.1220155311172 138.30299789466386 C 30.1220155311172 138.30299789466386 96.32572941607717 171.5982963873294 25.988291928741916 223.19218715989476" fill="none" stroke="black" stroke-weight="1"></path><path id="SvgjsPath2354" d="M 26.73568324176928 139.3773297828989 C 26.73568324176928 139.3773297828989 100.93800985390595 175.76014105668565 22.485189560450976 216.90271383558277" fill="none" stroke="black" stroke-weight="1"></path><path id="SvgjsPath2355" d="M 23.657447549501626 140.45830049423682 C 23.657447549501626 140.45830049423682 105.6729197161096 179.85759878902246 19.30080780982928 210.44601856894144" fill="none" stroke="black" stroke-weight="1"></path><path id="SvgjsPath2356" d="M 20.895002440430886 141.54523445717012 C 20.895002440430886 141.54523445717012 110.51862419392583 183.88042807392355 16.443105972859513 203.83823973555565" fill="none" stroke="black" stroke-weight="1"></path><path id="SvgjsPath2357" d="M 18.45525258867616 142.63745237335314 C 18.45525258867616 142.63745237335314 115.46301154975404 187.81857393322554 13.919226815871895 197.09589334124448" fill="none" stroke="black" stroke-weight="1"></path><path id="SvgjsPath2358" d="M 16.344296098269638 143.73427164214158 C 16.344296098269638 143.73427164214158 120.49372339019196 191.66219305322704 11.735478722347892 190.2358317406473" fill="none" stroke="black" stroke-weight="1"></path><metadata>116 * Math.cos(t/1);37 * Math.cos(t/2);44 * Math.sin(t/1)+44 * Math.sin(t/1);51 * Math.cos(t/1)+51 * Math.sin(t/1)</metadata></svg>