<svg id="SvgjsSvg2605" width="300" height="300" xmlns="http://www.w3.org/2000/svg" version="1.1" xmlns:xlink="http://www.w3.org/1999/xlink" xmlns:svgjs="http://svgjs.com/svgjs"><defs id="SvgjsDefs2606"></defs><path id="SvgjsPath2607" d="M 68.18029288088773 129.84282181156414 C 68.18029288088773 129.84282181156414 235.43219460599443 235.4842974960461 65.35892366988385 33.50155281000758" fill="none" stroke="black" stroke-weight="1"></path><path id="SvgjsPath2608" d="M 73.91095863416388 128.86020637923664 C 73.91095863416388 128.86020637923664 238.4276397750309 234.70077728829892 71.28719858706607 29.416854852230585" fill="none" stroke="black" stroke-weight="1"></path><path id="SvgjsPath2609" d="M 79.8318073644479 127.89080262979215 C 79.8318073644479 127.89080262979215 241.20206189685433 233.70554924864302 77.4122145149461 25.633551958835" fill="none" stroke="black" stroke-weight="1"></path><path id="SvgjsPath2610" d="M 85.9280400334326 126.93521640901857 C 85.9280400334326 126.93521640901857 243.74852636105135 232.50110092887286 83.71866210355095 22.161100416748155" fill="none" stroke="black" stroke-weight="1"></path><path id="SvgjsPath2611" d="M 92.18441923430191 125.99404492719826 C 92.18441923430191 125.99404492719826 246.0606683326344 231.0904428225233 90.19077851824335 19.008179546407632" fill="none" stroke="black" stroke-weight="1"></path><path id="SvgjsPath2612" d="M 98.58530727731304 125.06787638587087 C 98.58530727731304 125.06787638587087 248.13270866081484 229.47710084020372 96.8123868385997 16.182670007979766" fill="none" stroke="black" stroke-weight="1"></path><path id="SvgjsPath2613" d="M 105.11470527587656 124.15728961022667 C 105.11470527587656 124.15728961022667 249.95946832386994 227.66510749665758 103.56693649228609 13.691634103813698" fill="none" stroke="black" stroke-weight="1"></path><path id="SvgjsPath2614" d="M 111.75629313544077 123.26285368735954 C 111.75629313544077 123.26285368735954 251.53638137400014 225.65899183157592 110.43754462286975 11.541298126363415" fill="none" stroke="black" stroke-weight="1"></path><path id="SvgjsPath2615" d="M 118.49347034522899 122.3851276106061 C 118.49347034522899 122.3851276106061 252.8595063498206 223.4637680893565 117.40703828816791 9.737036795699197" fill="none" stroke="black" stroke-weight="1"></path><path id="SvgjsPath2616" d="M 125.30939747087055 121.52465993019317 C 125.30939747087055 121.52465993019317 253.92553612796183 221.08492318610456 124.45799738365919 8.283359825506608" fill="none" stroke="black" stroke-weight="1"></path><path id="SvgjsPath2617" d="M 132.18703824421772 120.6819884104115 C 132.18703824421772 120.6819884104115 254.7318061891561 218.52840299519968 131.5727981836735 7.183900651150793" fill="none" stroke="black" stroke-weight="1"></path><path id="SvgjsPath2618" d="M 139.10920214514317 119.85763969353087 C 139.10920214514317 119.85763969353087 255.27630127814774 215.8005974857092 138.73365739152743 6.441407347980345" fill="none" stroke="black" stroke-weight="1"></path><path id="SvgjsPath2619" d="M 146.0585873688879 119.0521289706656 C 146.0585873688879 119.0521289706656 255.5576604407819 212.90832475079316 145.92267658850474 6.057735762570161" fill="none" stroke="black" stroke-weight="1"></path><path id="SvgjsPath2620" d="M 153.01782407156253 118.26595965979698 C 153.01782407156253 118.26595965979698 255.5751804256809 209.8588139660223 153.12188697058195 6.033844874071491" fill="none" stroke="black" stroke-weight="1"></path><path id="SvgjsPath2621" d="M 159.96951778571054 117.49962309115337 C 159.96951778571054 117.49962309115337 255.32881744200682 206.6596873202041 160.31329426107985 6.369794397263433" fill="none" stroke="black" stroke-weight="1"></path><path id="SvgjsPath2622" d="M 166.89629289741873 116.75359820014486 C 166.89629289741873 116.75359820014486 254.8191872689154 203.31894096388015 167.4789236869849 7.064744633297153" fill="none" stroke="black" stroke-weight="1"></path><path id="SvgjsPath2623" d="M 173.78083607630262 116.02835122804416 C 173.78083607630262 116.02835122804416 254.04756371642924 199.8449250231142 174.60086490651994 8.116958568505623" fill="none" stroke="black" stroke-weight="1"></path><path id="SvgjsPath2624" d="M 180.6059395498159 115.32433543060102 C 180.6059395498159 115.32433543060102 253.01587544157564 196.2463227285255 181.66131677567162 9.52380621603325" fill="none" stroke="black" stroke-weight="1"></path><path id="SvgjsPath2625" d="M 187.3545441137197 114.64199079477214 C 187.3545441137197 114.64199079477214 251.7267011277489 192.53212871173477 188.642631841779 11.281771189433329" fill="none" stroke="black" stroke-weight="1"></path><path id="SvgjsPath2626" d="M 194.0097817712097 113.98174376374368 C 194.0097817712097 113.98174376374368 250.18326303934458 188.71162652346914 195.52736045297556 13.38645949180281" fill="none" stroke="black" stroke-weight="1"></path><path id="SvgjsPath2627" d="M 200.55501789412298 113.34400697041801 C 200.55501789412298 113.34400697041801 248.38941896777678 184.79436542952033 202.29829437323068 15.832610498486218" fill="none" stroke="black" stroke-weight="1"></path><path id="SvgjsPath2628" d="M 206.97389280084542 112.72917897953172 C 206.97389280084542 112.72917897953172 246.34965258900831 180.7901365425528 208.938509793978 18.614110105897765" fill="none" stroke="black" stroke-weight="1"></path><path id="SvgjsPath2629" d="M 213.2503626469954 112.13764403856567 C 213.2503626469954 112.13764403856567 244.0690622566965 176.7089483494222 215.4314096348228 21.724006013595783" fill="none" stroke="black" stroke-weight="1"></path><path id="SvgjsPath2630" d="M 219.36873952667997 111.5697718376026 C 219.36873952667997 111.5697718376026 241.5533482589634 172.56100169516927 221.76076502759997 25.15452510141354" fill="none" stroke="black" stroke-weight="1"></path><path id="SvgjsPath2631" d="M 225.31373068408905 111.02591727828312 C 225.31373068408905 111.02591727828312 238.80879857064497 168.35666428622096 227.91075588009213 28.897092858211323" fill="none" stroke="black" stroke-weight="1"></path><path id="SvgjsPath2632" d="M 231.07047673742062 110.50642025200354 C 231.07047673742062 110.50642025200354 235.84227313662825 164.10644477652323 233.86601041802132 32.94235481368875" fill="none" stroke="black" stroke-weight="1"></path><path id="SvgjsPath2633" d="M 236.62458881959685 110.01160542749494 C 236.62458881959685 110.01160542749494 232.6611867255615 159.82096650137845 239.6116436064795 37.2801999196889" fill="none" stroke="black" stroke-weight="1"></path><path id="SvgjsPath2634" d="M 241.96218454293773 109.54178204791573 C 241.96218454293773 109.54178204791573 229.27349039679478 155.51094092464086 245.13329435476317 41.89978582255269" fill="none" stroke="black" stroke-weight="1"></path><path id="SvgjsPath2635" d="M 247.06992269790118 109.09724373758473 C 247.06992269790118 109.09724373758473 225.68765162687168 151.18714086563406 250.41716141162192 46.78956596335682" fill="none" stroke="black" stroke-weight="1"></path><path id="SvgjsPath2636" d="M 251.93503659915842 108.67826831847553 C 251.93503659915842 108.67826831847553 221.91263314524838 146.8603735727142 255.45003786119838 51.93731843829768" fill="none" stroke="black" stroke-weight="1"></path><path id="SvgjsPath2637" d="M 256.5453659956585 108.28511763658688 C 256.5453659956585 108.28511763658688 217.9578705321373 142.5414537107767 260.21934413343985 57.33017654708543" fill="none" stroke="black" stroke-weight="1"></path><path id="SvgjsPath2638" d="M 260.8893874649234 107.91803739829732 C 260.8893874649234 107.91803739829732 213.83324863447083 138.2411763302266 264.7131594464725 62.95466095299433" fill="none" stroke="black" stroke-weight="1"></path><path id="SvgjsPath2639" d="M 264.9562432156026 107.57725701680678 C 264.9562432156026 107.57725701680678 209.54907685893147 133.97028988497397 268.92025160234755 68.7967133741845" fill="none" stroke="black" stroke-weight="1"></path><path id="SvgjsPath2640" d="M 268.735768226297 107.26298946876088 C 268.735768226297 107.26298946876088 205.1160634038043 129.73946936689708 272.8301050616866 74.84173172208504" fill="none" stroke="black" stroke-weight="1"></path><path id="SvgjsPath2641" d="M 272.21851565281844 106.97543116114721 C 272.21851565281844 106.97543116114721 200.54528849405858 125.55928962392255 276.43294722705355 81.07460659901105" fill="none" stroke="black" stroke-weight="1"></path><path id="SvgjsPath2642" d="M 275.39578044038024 106.71476180854769 C 275.39578044038024 106.71476180854769 195.8481766865551 121.44019892841234 279.71977286935885 87.4797590637884" fill="none" stroke="black" stroke-weight="1"></path><path id="SvgjsPath2643" d="M 278.25962108170114 106.4811443208225 C 278.25962108170114 106.4811443208225 191.03646831460424 117.39249286192437 282.68236663624253 94.04117957099425" fill="none" stroke="black" stroke-weight="1"></path><path id="SvgjsPath2644" d="M 280.80287946663725 106.27472470129689 C 280.80287946663725 106.27472470129689 186.12219014324623 113.42628858162 285.31332358617647 100.74246798648242" fill="none" stroke="black" stroke-weight="1"></path><path id="SvgjsPath2645" d="M 283.0191987737294 106.0956319555138 C 283.0191987737294 106.0956319555138 181.11762530860327 109.55149953264102 287.6060676969615 107.5668745791775" fill="none" stroke="black" stroke-weight="1"></path><path id="SvgjsPath2646" d="M 284.9030393589469 105.94397801060964 C 284.9030393589469 105.94397801060964 176.0352826164346 105.77781066965846 289.55486830235884 114.49734188668009" fill="none" stroke="black" stroke-weight="1"></path><path id="SvgjsPath2647" d="M 286.4496926019117 105.81985764536344 C 286.4496926019117 105.81985764536344 170.88786527663794 102.11465424953077 291.1548544157707 121.51654735003908" fill="none" stroke="black" stroke-weight="1"></path><path id="SvgjsPath2648" d="M 287.655292674998 105.72334843096317 C 287.655292674998 105.72334843096317 165.6882391518398 98.5711862555734 292.4020269051703 128.60694661112757" fill="none" stroke="black" stroke-weight="1"></path><path id="SvgjsPath2649" d="M 288.51682620588736 105.65451068252634 C 288.51682620588736 105.65451068252634 160.44940059943906 95.15626351236865 293.293268488849 135.75081736440143" fill="none" stroke="black" stroke-weight="1"></path><path id="SvgjsPath2650" d="M 289.03213980943053 105.61338742140492 C 289.03213980943053 105.61338742140492 155.18444398748218 91.87842154831705 293.8263515269971 142.93030365343338" fill="none" stroke="black" stroke-weight="1"></path><path id="SvgjsPath2651" d="M 289.19994546998885 105.60000434829851 C 289.19994546998885 105.60000434829851 149.90652896556284 88.74585326126173 293.99994358964364 150.1274605015051" fill="none" stroke="black" stroke-weight="1"></path><path id="SvgjsPath2652" d="M 289.0198237608024 105.61436982719218 C 289.0198237608024 105.61436982719218 144.628847572551 85.76638844051041 293.81361078703696 157.3242987647032" fill="none" stroke="black" stroke-weight="1"></path><path id="SvgjsPath2653" d="M 288.49222489233864 105.65647488012922 C 288.49222489233864 105.65647488012922 139.36459126336567 82.9474741964396 293.26781885414346 164.50283009541062" fill="none" stroke="black" stroke-weight="1"></path><path id="SvgjsPath2654" d="M 287.6184675870004 105.72629319282211 C 287.6184675870004 105.72629319282211 134.12691793720793 80.29615634659719 292.3639319865522 171.6451119038074" fill="none" stroke="black" stroke-weight="1"></path><path id="SvgjsPath2655" d="M 286.4007357830072 105.82378113109813 C 286.4007357830072 105.82378113109813 128.92891904966586 77.81906180482827 291.1042094306971 178.73329220500102" fill="none" stroke="black" stroke-weight="1"></path><path id="SvgjsPath2656" d="M 284.84207317568644 105.94887776816921 C 284.84207317568644 105.94887776816921 123.78358689089295 75.52238201744143 289.4917998369169 185.74965423969144" fill="none" stroke="black" stroke-weight="1"></path><path id="SvgjsPath2657" d="M 282.9463756098206 106.10150492270927 C 282.9463756098206 106.10150492270927 118.7037821116488 73.41185748781733 287.53073338946956 192.67666075684267" fill="none" stroke="black" stroke-weight="1"></path><path id="SvgjsPath2658" d="M 280.7183813420642 106.28156720771491 C 280.7183813420642 106.28156720771491 113.70220157837016 71.49276342814005 285.2259117331699 199.49699784767705" fill="none" stroke="black" stroke-weight="1"></path><path id="SvgjsPath2659" d="M 278.1636591977697 106.48895209011933 C 278.1636591977697 106.48895209011933 108.79134663761761 69.76989657411399 282.58309572183066 206.19361822143043" fill="none" stroke="black" stroke-weight="1"></path><path id="SvgjsPath2660" d="M 275.28859465182416 106.72352996112167 C 275.28859465182416 106.72352996112167 103.98349186921936 68.24756319562258 279.6088910191284 212.74978381470086" fill="none" stroke="black" stroke-weight="1"></path><path id="SvgjsPath2661" d="M 272.10037386828776 106.98515421718841 C 272.10037386828776 106.98515421718841 99.29065440621393 66.92956833329602 276.3107315878839 219.1491076278902" fill="none" stroke="black" stroke-weight="1"></path><path id="SvgjsPath2662" d="M 268.60696573872616 107.27366135167571 C 268.60696573872616 107.27366135167571 94.72456389827613 65.81920628789169 272.69686110902705 225.37559468416896" fill="none" stroke="black" stroke-weight="1"></path><path id="SvgjsPath2663" d="M 264.81710196413144 107.58887105701587 C 264.81710196413144 107.58887105701587 90.29663319370198 64.91925238625775 268.77631237668766 231.41368200858813" fill="none" stroke="black" stroke-weight="1"></path><path id="SvgjsPath2664" d="M 260.74025523021714 107.93058633740353 C 260.74025523021714 107.93058633740353 86.01792981323136 64.23195604446141 264.5588847209143 237.2482775274118" fill="none" stroke="black" stroke-weight="1"></path><path id="SvgjsPath2665" d="M 256.38661553063736 108.2985936319118 C 256.38661553063736 108.2985936319118 81.89914828700965 63.75903514542007 260.0551195144525 242.86479779044146" fill="none" stroke="black" stroke-weight="1"></path><path id="SvgjsPath2666" d="M 251.7670646973093 108.69266294796074 C 251.7670646973093 108.69266294796074 77.95058342383231 63.50167174508891 255.27627382480273 248.24920442204686" fill="none" stroke="black" stroke-weight="1"></path><path id="SvgjsPath2667" d="M 246.89314920150076 109.11254800505534 C 246.89314920150076 109.11254800505534 74.18210457948462 63.46050911793651 250.23429227741457 253.38803920979365" fill="none" stroke="black" stroke-weight="1"></path><path id="SvgjsPath2668" d="M 241.77705129366507 109.55798638870279 C 241.77705129366507 109.55798638870279 70.60313098849169 63.63565014909365 244.94177720034318 258.26845774296595" fill="none" stroke="black" stroke-weight="1"></path><path id="SvgjsPath2669" d="M 236.43155855415955 110.02869971441291 C 236.43155855415955 110.02869971441291 67.22260822093745 64.02665707719409 239.41195712499268 262.8782615169036" fill="none" stroke="black" stroke-weight="1"></path><path id="SvgjsPath2670" d="M 230.8700319309542 110.52439380167954 C 230.8700319309542 110.52439380167954 64.04898582319848 64.63255258855013 233.65865372167679 267.20592842291114" fill="none" stroke="black" stroke-weight="1"></path><path id="SvgjsPath2671" d="M 225.10637234421995 111.04475885783366 C 225.10637234421995 111.04475885783366 61.090196198478665 65.4518222599276 227.69624725264134 271.24064154752904" fill="none" stroke="black" stroke-weight="1"></path><path id="SvgjsPath2672" d="M 219.15498594126774 111.58946967165379 C 219.15498594126774 111.58946967165379 58.35363477993204 66.48241834381547 221.53964062889764 274.97231620918365" fill="none" stroke="black" stroke-weight="1"></path><path id="SvgjsPath2673" d="M 213.0307480886828 112.15818581661242 C 213.0307480886828 112.15818581661242 55.84614154593119 67.72176488672805 215.2042221607063 278.3916251646393" fill="none" stroke="black" stroke-weight="1"></path><path id="SvgjsPath2674" d="M 206.74896619165517 112.75055186363142 C 206.74896619165517 112.75055186363142 53.573983923683855 69.16676416774737 208.7058270948157 281.4900219222493" fill="none" stroke="black" stroke-weight="1"></path><path id="SvgjsPath2675" d="M 200.3253414334387 113.36619760321378 C 200.3253414334387 113.36619760321378 51.54284112392891 70.81380444121189 202.06069803459178 284.25976210373324" fill="none" stroke="black" stroke-weight="1"></path><path id="SvgjsPath2676" d="M 193.7759295305698 114.00473827681236 C 193.7759295305698 114.00473827681236 49.75778994586709 72.65876896419987 195.28544434196877 286.69392280109037" fill="none" stroke="black" stroke-weight="1"></path><path id="SvgjsPath2677" d="M 187.11710060193786 114.66577481729162 C 187.11710060193786 114.66577481729162 48.22329208780678 74.69704628624285 188.39700062269435 288.78641988026357" fill="none" stroke="black" stroke-weight="1"></path><path id="SvgjsPath2678" d="M 180.36549825201342 115.34889409833139 C 180.36549825201342 115.34889409833139 46.943182995242054 76.92354177555013 181.41258439863458 290.5320231883063" fill="none" stroke="black" stroke-weight="1"></path><path id="SvgjsPath2679" d="M 173.5379979705047 116.0536691926175 C 173.5379979705047 116.0536691926175 45.92066227423646 79.33269035293478 174.3496530729359 291.92636962604115" fill="none" stroke="black" stroke-weight="1"></path><path id="SvgjsPath2680" d="M 166.6516649524221 116.77965963865746 C 166.6516649524221 116.77965963865746 45.15828569407405 81.9184704016136 167.22586029560907 292.96597405353543" fill="none" stroke="black" stroke-weight="1"></path><path id="SvgjsPath2681" d="M 159.72371144397792 117.5264117160545 C 159.72371144397792 117.5264117160545 44.657958799167105 84.67441881811315 160.05901183859785 293.6482380011358" fill="none" stroke="black" stroke-weight="1"></path><path id="SvgjsPath2682" d="M 152.7714537209348 118.29345872906808 C 152.7714537209348 118.29345872906808 44.42093214618771 87.59364716666252 152.86702109062222 293.97145616428946" fill="none" stroke="black" stroke-weight="1"></path><path id="SvgjsPath2683" d="M 145.81226880693458 119.08032129828352 C 145.81226880693458 119.08032129828352 44.44779817832725 90.66885889669496 145.66786428303575 293.9348206659174" fill="none" stroke="black" stroke-weight="1"></path><path id="SvgjsPath2684" d="M 138.86355103998875 119.88650766020854 C 138.86355103998875 119.88650766020854 44.7384897444969 93.89236758042458 138.47953555860903 293.53842307568607" fill="none" stroke="black" stroke-weight="1"></path><path id="SvgjsPath2685" d="M 131.94266859569245 120.71151397460945 C 131.94266859569245 120.71151397460945 45.292280267170455 97.25611612491302 131.32000199554392 292.78325418113116" fill="none" stroke="black" stroke-weight="1"></path><path id="SvgjsPath2686" d="M 125.0669200758305 121.55482463939484 C 125.0669200758305 121.55482463939484 46.10778555844982 100.7516969106056 124.20715869913501 291.6712015112048" fill="none" stroke="black" stroke-weight="1"></path><path id="SvgjsPath2687" d="M 118.25349127088185 122.4159126128502 C 118.25349127088185 122.4159126128502 47.182967279813724 104.3703728060012 117.15878407332606 290.2050446184358" fill="none" stroke="black" stroke-weight="1"></path><path id="SvgjsPath2688" d="M 111.51941220449412 123.29423974302169 C 111.51941220449412 123.29423974302169 48.51513803690254 108.10309900593121 110.19249538395943 288.38844813149655" fill="none" stroke="black" stroke-weight="1"></path><path id="SvgjsPath2689" d="M 104.88151456729241 124.18925710404378 C 104.88151456729241 124.18925710404378 50.10096809660466 111.94054563886215 103.32570472478525 286.22595259553907" fill="none" stroke="black" stroke-weight="1"></path><path id="SvgjsPath2690" d="M 98.35638964641925 125.10040533919991 C 98.35638964641925 125.10040533919991 51.93649370965525 115.8731210867154 96.57557549629578 283.72296312319736" fill="none" stroke="black" stroke-weight="1"></path><path id="SvgjsPath2691" d="M 91.96034685595771 126.02711501050224 C 91.96034685595771 126.02711501050224 54.01712701794489 119.8909959589169 89.95897950616313 280.8857358846206" fill="none" stroke="black" stroke-weight="1"></path><path id="SvgjsPath2692" d="M 85.70937297188945 126.9688069545719 C 85.70937297188945 126.9688069545719 56.33766752177563 123.98412766075478 83.49245479850633 277.72136247030596" fill="none" stroke="black" stroke-weight="1"></path><path id="SvgjsPath2693" d="M 79.61909217348014 127.92489264459724 C 79.61909217348014 127.92489264459724 58.892315078402135 128.14228549463638 77.19216431739325 274.23775216581527" fill="none" stroke="black" stroke-weight="1"></path><path id="SvgjsPath2694" d="M 73.7047269909687 128.89477455814398 C 73.7047269909687 128.89477455814398 61.674684399367635 132.35507623150386 71.07385550789864 270.44361218268045" fill="none" stroke="black" stroke-weight="1"></path><path id="SvgjsPath2695" d="M 67.98106025716974 129.87784655058715 C 67.98106025716974 129.87784655058715 64.67782101039958 136.61197008849393 65.15282095569285 266.3484258949096" fill="none" stroke="black" stroke-weight="1"></path><path id="SvgjsPath2696" d="M 62.46239815808997 130.8734942339318 C 62.46239815808997 130.8734942339318 67.89421863397358 140.90232704791143 59.44386016354136 261.96242913549054" fill="none" stroke="black" stroke-weight="1"></path><path id="SvgjsPath2697" d="M 57.162534474913215 131.8810953607856 C 57.162534474913215 131.8810953607856 71.31583795109829 145.21542345173265 53.96124256025506 257.29658461213864" fill="none" stroke="black" stroke-weight="1"></path><path id="SvgjsPath2698" d="M 52.094716106731596 132.90002021324312 C 52.094716106731596 132.90002021324312 74.93412669542595 149.54047880516544 48.71867183454994 252.3625545062373" fill="none" stroke="black" stroke-weight="1"></path><path id="SvgjsPath2699" d="M 47.271609960196955 133.929631996439 C 47.271609960196955 133.929631996439 78.74004102946395 153.86668272227124 43.72925168296237 247.17267132345825" fill="none" stroke="black" stroke-weight="1"></path><path id="SvgjsPath2700" d="M 42.70527128885067 134.969287236524 C 42.70527128885067 134.969287236524 82.72406814945893 158.18322194630068 39.00545305743172 241.7399070689196" fill="none" stroke="black" stroke-weight="1"></path><path id="SvgjsPath2701" d="M 38.407113561267735 136.01833618281537 C 38.407113561267735 136.01833618281537 86.87625006245224 162.47930737720395 34.559082994414894 236.07784082392874" fill="none" stroke="black" stroke-weight="1"></path><path id="SvgjsPath2702" d="M 34.38787993332966 137.07612321386972 C 34.38787993332966 137.07612321386972 91.18620847607613 166.74420103876201 30.401255103444498 230.20062480535074" fill="none" stroke="black" stroke-weight="1"></path><path id="SvgjsPath2703" d="M 30.657616395930106 138.14198724722502 C 30.657616395930106 138.14198724722502 95.64317073887929 170.96724291793453 26.542361788893217 224.12294899243733" fill="none" stroke="black" stroke-weight="1"></path><path id="SvgjsPath2704" d="M 27.225646665228922 139.2152621525558 C 27.225646665228922 139.2152621525558 100.23599676634566 175.13787760934105 22.99204827437474 217.8600044095286" fill="none" stroke="black" stroke-weight="1"></path><path id="SvgjsPath2705" d="M 24.10054887821748 140.29527716798287 C 24.10054887821748 140.29527716798287 104.95320688530427 179.24568069827782 19.75918849470773 211.42744515640325" fill="none" stroke="black" stroke-weight="1"></path><path id="SvgjsPath2706" d="M 21.290134151843745 141.38135731927764 C 21.290134151843745 141.38135731927764 109.78301052713346 183.28038481632512 16.851862915700423 204.84134928118164" fill="none" stroke="black" stroke-weight="1"></path><path id="SvgjsPath2707" d="M 18.801427059288045 142.47282384169893 C 18.801427059288045 142.47282384169893 114.71333569804156 187.23190530442096 14.277338337194522 198.11817859357967" fill="none" stroke="black" stroke-weight="1"></path><path id="SvgjsPath2708" d="M 16.64064807218824 143.5689946041989 C 16.64064807218824 143.5689946041989 119.73185915276487 191.09036541925707 12.042049729849907 191.27473751895695" fill="none" stroke="black" stroke-weight="1"></path><path id="SvgjsPath2709" d="M 14.813198012700099 144.66918453573305 C 14.813198012700099 144.66918453573305 124.82603719626324 194.84612101999366 10.151584151069073 184.32813109600465" fill="none" stroke="black" stroke-weight="1"></path><path id="SvgjsPath2710" d="M 13.323644554254656 145.77270605340684 C 13.323644554254656 145.77270605340684 129.98313703642475 198.48978467358876 8.610666780263443 177.29572222305717" fill="none" stroke="black" stroke-weight="1"></path><path id="SvgjsPath2711" d="M 12.175710804753663 146.8788694921929 C 12.175710804753663 146.8788694921929 135.1902686094145 202.01224911849152 7.423149108365834 170.19508825988936" fill="none" stroke="black" stroke-weight="1"></path><path id="SvgjsPath2712" d="M 11.372266000738534 147.98698353594912 C 11.372266000738534 147.98698353594912 140.43441679812145 205.40471002805367 6.591999311108822 163.04397709347072" fill="none" stroke="black" stroke-weight="1"></path><path id="SvgjsPath2713" d="M 10.91531833579333 149.09635564946885 C 10.91531833579333 149.09635564946885 145.70247396317373 208.6586880167609 6.119294830131025 155.86026277749036" fill="none" stroke="black" stroke-weight="1"></path><path id="SvgjsPath2714" d="M 10.806009941106652 150.20629251129282 C 10.806009941106652 150.20629251129282 150.98127270520996 211.7660498342805 6.006217180455138 148.66190085653187" fill="none" stroke="black" stroke-weight="1"></path><path id="SvgjsPath2715" d="M 11.04461403073853 151.31610044701233 C 11.04461403073853 151.31610044701233 156.25761877652008 214.71902869435132 6.253048997315716 141.46688348656352" fill="none" stroke="black" stroke-weight="1"></path><path id="SvgjsPath2716" d="M 11.630534218727462 152.42508586279334 C 11.630534218727462 152.42508586279334 161.5183240597936 217.51024368770476 6.859173329718061 134.2931944639178" fill="none" stroke="black" stroke-weight="1"></path><path id="SvgjsPath2717" d="M 12.562306009744816 153.53255567885006 C 12.562306009744816 153.53255567885006 166.75023953154485 220.13271823049416 7.823075182494648 127.1587642751661" fill="none" stroke="black" stroke-weight="1"></path><path id="SvgjsPath2718" d="M 13.837600459570496 154.6378177625972 C 13.837600459570496 154.6378177625972 171.94028812782352 222.57989750212104 9.142345303003964 120.08142528024064" fill="none" stroke="black" stroke-weight="1"></path><path id="SvgjsPath2719" d="M 15.453229996240367 155.74018136121018 C 15.453229996240367 155.74018136121018 177.07549743006382 224.84566482887254 10.81368620300728 113.07886714082207" fill="none" stroke="black" stroke-weight="1"></path><path id="SvgjsPath2720" d="M 17.40515638731631 156.83895753332334 C 17.40515638731631 156.83895753332334 182.14303208937525 226.92435697242047 12.832920400672009 106.16859260539738" fill="none" stroke="black" stroke-weight="1"></path><path id="SvgjsPath2721" d="M 19.688500833364287 157.93345957959585 C 19.688500833364287 157.93345957959585 187.13022590823073 228.81077828496808 15.195000862100983 99.36787376150352" fill="none" stroke="black" stroke-weight="1"></path><path id="SvgjsPath2722" d="M 22.297556162412093 159.02300347187642 C 22.297556162412093 159.02300347187642 192.02461349936368 230.5002136956632 17.894023616288365 92.69370886450403" fill="none" stroke="black" stroke-weight="1"></path><path id="SvgjsPath2723" d="M 25.225801094906785 160.1069082806985 C 25.225801094906785 160.1069082806985 196.81396144274385 231.98844049582004 20.923242511972518 86.16277985080382" fill="none" stroke="black" stroke-weight="1"></path><path id="SvgjsPath2724" d="M 28.46591654351745 161.18449660083917 C 28.46591654351745 161.18449660083917 201.48629886275683 233.2717388934917 24.27508607950081 79.79141064169524" fill="none" stroke="black" stroke-weight="1"></path><path id="SvgjsPath2725" d="M 32.00980390704218 162.2550949746754 C 32.00980390704218 162.2550949746754 206.029947349159 234.34690131101286 27.941176455560893 73.59552634205589" fill="none" stroke="black" stroke-weight="1"></path><path id="SvgjsPath2726" d="M 35.848605312693195 163.31803431307304 C 35.848605312693195 163.31803431307304 210.43355014702095 235.21124040227357 31.912350323475735 67.59061343588053" fill="none" stroke="black" stroke-weight="1"></path><path id="SvgjsPath2727" d="M 39.97272575616536 164.37265031354576 C 39.97272575616536 164.37265031354576 214.68610054269982 235.8625957696848 36.178681816722786 61.79168107813659" fill="none" stroke="black" stroke-weight="1"></path><metadata>116 * Math.cos(t/1);37 * Math.cos(t/2);44 * Math.sin(t/1)+44 * Math.sin(t/1);51 * Math.cos(t/1)+51 * Math.sin(t/1)</metadata></svg>