<svg id="SvgjsSvg2974" width="300" height="300" xmlns="http://www.w3.org/2000/svg" version="1.1" xmlns:xlink="http://www.w3.org/1999/xlink" xmlns:svgjs="http://svgjs.com/svgjs"><defs id="SvgjsDefs2975"></defs><path id="SvgjsPath2976" d="M 193.01516561699265 114.07964544975235 C 193.01516561699265 114.07964544975235 250.43156812076822 189.29281874151664 194.4984471899924 13.047861653497876" fill="none" stroke="black" stroke-weight="1"></path><path id="SvgjsPath2977" d="M 199.57800349515847 113.43849630642163 C 199.57800349515847 113.43849630642163 248.67512483460533 185.38949440000522 201.28758982257773 15.443011589174546" fill="none" stroke="black" stroke-weight="1"></path><path id="SvgjsPath2978" d="M 206.01692218431148 112.8201969127711 C 206.01692218431148 112.8201969127711 246.67204512536756 181.39771475298636 207.94854019066705 18.17448391995333" fill="none" stroke="black" stroke-weight="1"></path><path id="SvgjsPath2979" d="M 212.31582774105294 112.22513368579524 C 212.31582774105294 112.22513368579524 244.4273356491442 177.3274571706986 214.46464938729616 21.235451387530674" fill="none" stroke="black" stroke-weight="1"></path><path id="SvgjsPath2980" d="M 218.4589761818974 111.65367852064077 C 218.4589761818974 111.65367852064077 241.94660701060377 173.18889517734885 220.8196305329973 24.618263167358577" fill="none" stroke="black" stroke-weight="1"></path><path id="SvgjsPath2981" d="M 224.43101283503267 111.10618855818427 C 224.43101283503267 111.10618855818427 239.23605973940403 168.9923730225987 226.99759948451657 28.31446399172181" fill="none" stroke="black" stroke-weight="1"></path><path id="SvgjsPath2982" d="M 230.21701071900253 110.58300596183068 C 230.21701071900253 110.58300596183068 236.30246879209727 164.74837982632874 232.98311453689917 32.314815283503634" fill="none" stroke="black" stroke-weight="1"></path><path id="SvgjsPath2983" d="M 235.8025078523865 110.08445770367243 C 235.8025078523865 110.08445770367243 233.1531666182673 160.46752336130083 238.76121501971016 36.60931824781731" fill="none" stroke="black" stroke-weight="1"></path><path id="SvgjsPath2984" d="M 241.17354340122185 109.61085536014235 C 241.17354340122185 109.61085536014235 229.79602483322358 156.16050353925033 244.31745869091915 41.18723886378602" fill="none" stroke="black" stroke-weight="1"></path><path id="SvgjsPath2985" d="M 246.31669257381756 109.1624949172888 C 246.31669257381756 109.1624949172888 226.2394345430633 151.83808566668006 249.63795783498367 46.037134714004665" fill="none" stroke="black" stroke-weight="1"></path><path id="SvgjsPath2986" d="M 251.21910017574254 108.73965658579377 C 251.21910017574254 108.73965658579377 222.49228537127522 147.51107353719942 254.70941397490608 51.14688358462472" fill="none" stroke="black" stroke-weight="1"></path><path id="SvgjsPath2987" d="M 255.86851274111655 108.34260462585044 C 255.86851274111655 108.34260462585044 218.56394323931136 143.19028242766797 259.51915111149987 56.50371376457535" fill="none" stroke="black" stroke-weight="1"></path><path id="SvgjsPath2988" d="M 260.2533091598933 107.97158718200922 C 260.2533091598933 107.97158718200922 214.4642269566607 138.88651206563515 264.0551474067862 62.09423596818996" fill="none" stroke="black" stroke-weight="1"></path><path id="SvgjsPath2989" d="M 264.3625297245839 107.62683612809533 C 264.3625297245839 107.62683612809533 210.20338367893865 134.61051963564543 268.3060652323282 67.9044768014473" fill="none" stroke="black" stroke-weight="1"></path><path id="SvgjsPath2990" d="M 268.1859035238171 107.30856692229537 C 268.1859035238171 107.30856692229537 205.79206329533554 130.37299289188033 272.26127950739703 73.91991368817892" fill="none" stroke="black" stroke-weight="1"></path><path id="SvgjsPath2991" d="M 271.71387411426946 107.01697847250284 C 271.71387411426946 107.01697847250284 201.24129180943882 126.18452344433766 275.91090425614084 80.12551116894707" fill="none" stroke="black" stroke-weight="1"></path><path id="SvgjsPath2992" d="M 274.93762340679643 106.75225301200726 C 274.93762340679643 106.75225301200726 196.5624437799674 122.05558028532371 279.2458173173756 86.50575848186254" fill="none" stroke="black" stroke-weight="1"></path><path id="SvgjsPath2993" d="M 277.84909370706293 106.5145559856042 C 277.84909370706293 106.5145559856042 191.76721389029802 117.99648362242404 282.2576831452375 93.04470833141171" fill="none" stroke="black" stroke-weight="1"></path><path id="SvgjsPath2994" d="M 280.4410078555826 106.30403594619787 C 280.4410078555826 106.30403594619787 186.86758771784753 114.01737908335929 284.9389736437061 99.72601674838974" fill="none" stroke="black" stroke-weight="1"></path><path id="SvgjsPath2995" d="M 282.70688741682693 106.12082446196013 C 282.70688741682693 106.12082446196013 181.87581177637097 110.12821235719942 287.2829869829244 106.53298394131244" fill="none" stroke="black" stroke-weight="1"></path><path id="SvgjsPath2996" d="M 284.6410688719402 105.96503603410483 C 284.6410688719402 105.96503603410483 176.8043629060552 106.33870433532081 289.28386435028295 113.44859603719752" fill="none" stroke="black" stroke-weight="1"></path><path id="SvgjsPath2997" d="M 286.2387177745868 105.83676802532827 C 286.2387177745868 105.83676802532827 171.66591708791657 102.6583268142407 290.93660459440014 120.4555676073865" fill="none" stroke="black" stroke-weight="1"></path><path id="SvgjsPath2998" d="M 287.49584083454954 105.7361005989606 C 287.49584083454954 105.7361005989606 166.47331776044967 99.09627882105818 292.23707672539604 127.53638487211396" fill="none" stroke="black" stroke-weight="1"></path><path id="SvgjsPath2999" d="M 288.4092958988756 105.66309666886647 C 288.4092958988756 105.66309666886647 161.2395437177199 95.66146362067767 293.18203024021614 134.67334947583652" fill="none" stroke="black" stroke-weight="1"></path><path id="SvgjsPath3000" d="M 288.97679980562225 105.6178018601258 C 288.97679980562225 105.6178018601258 155.97767666913705 92.36246646228273 293.76910324719546 141.84862272390419" fill="none" stroke="black" stroke-weight="1"></path><path id="SvgjsPath3001" d="M 289.1969340905731 105.60024448051963 C 289.1969340905731 105.60024448051963 150.70086854199496 89.20753312068476 293.99682836955844 149.04427017000688" fill="none" stroke="black" stroke-weight="1"></path><path id="SvgjsPath3002" d="M 289.0691485326595 105.61043550283873 C 289.0691485326595 105.61043550283873 145.4223086085032 86.20454928618038 293.864636413096 156.24230644295022" fill="none" stroke="black" stroke-weight="1"></path><path id="SvgjsPath3003" d="M 288.59376252922664 105.64836855802582 C 288.59376252922664 105.64836855802582 140.15519051947456 83.36102085443207 293.3728577888551 163.4247402007164" fill="none" stroke="black" stroke-weight="1"></path><path id="SvgjsPath3004" d="M 287.77196429770686 105.71401993915623 C 287.77196429770686 105.71401993915623 134.91267932706978 80.68405516563834 292.522721687283 170.57361909945033" fill="none" stroke="black" stroke-weight="1"></path><path id="SvgjsPath3005" d="M 286.6058079056949 105.80734861625379 C 286.6058079056949 105.80734861625379 129.7078785790224 78.18034323988418 291.3163530058913 177.67107466496947" fill="none" stroke="black" stroke-weight="1"></path><path id="SvgjsPath3006" d="M 285.0982081368482 105.9282962619333 C 285.0982081368482 105.9282962619333 124.55379756659514 75.8561430530762 289.7567670381188 184.69936695464315" fill="none" stroke="black" stroke-weight="1"></path><path id="SvgjsPath3007" d="M 283.2529332054461 106.0767872878532 C 283.2529332054461 106.0767872878532 119.46331880812512 73.7172638952612 287.8478619366683 191.64092889801123" fill="none" stroke="black" stroke-weight="1"></path><path id="SvgjsPath3008" d="M 281.0745953378164 106.2527288919559 C 281.0745953378164 106.2527288919559 114.44916584943869 71.76905185042708 285.59440897015486 198.47841020531078" fill="none" stroke="black" stroke-weight="1"></path><path id="SvgjsPath3009" d="M 278.56863924417183 106.45601111646599 C 278.56863924417183 106.45601111646599 109.52387146161229 70.01637643407672 283.0020405974191 205.19472073416506" fill="none" stroke="black" stroke-weight="1"></path><path id="SvgjsPath3010" d="M 275.74132850966976 106.68650691661026 C 275.74132850966976 106.68650691661026 104.69974631557146 68.4636184219752 280.0772363893135 211.77307320603893" fill="none" stroke="black" stroke-weight="1"></path><path id="SvgjsPath3011" d="M 272.59972993871156 106.94407224001658 C 272.59972993871156 106.94407224001658 99.9888482118258 67.11465890049213 276.82730683314986 218.19702516569222" fill="none" stroke="black" stroke-weight="1"></path><path id="SvgjsPath3012" d="M 269.1516958916116 107.22854611674195 C 269.1516958916116 107.22854611674195 95.40295194224605 65.97286956590662 273.26037506028786 224.4505200787554" fill="none" stroke="black" stroke-weight="1"></path><path id="SvgjsPath3013" d="M 265.40584465778625 107.53975075987343 C 265.40584465778625 107.53975075987343 90.95351985921772 65.04110429692273 269.3853565425375 230.51792746470312" fill="none" stroke="black" stroke-weight="1"></path><path id="SvgjsPath3014" d="M 261.37153891451857 107.87749167663921 C 261.37153891451857 107.87749167663921 86.65167322572893 64.32169202145899 265.21193680812263 236.384081964915" fill="none" stroke="black" stroke-weight="1"></path><path id="SvgjsPath3015" d="M 257.0588623251408 108.24155778996024 C 257.0588623251408 108.24155778996024 82.50816441800515 63.8164308955414 260.75054723290424 242.0343212481748" fill="none" stroke="black" stroke-weight="1"></path><path id="SvgjsPath3016" d="M 252.47859433512787 108.6317215703666 C 252.47859433512787 108.6317215703666 78.53335005016785 63.52658380884979 256.01233896737364 247.45452265886212" fill="none" stroke="black" stroke-weight="1"></path><path id="SvgjsPath3017" d="M 247.64218322909733 109.04773917819587 C 247.64218322909733 109.04773917819587 74.7371650880932 63.4528752281515 251.00915506458347 252.63113851623655" fill="none" stroke="black" stroke-weight="1"></path><path id="SvgjsPath3018" d="M 242.56171751606007 109.48935061598513 C 242.56171751606007 109.48935061598513 71.12909801717161 63.595489386511545 245.75350087868284 257.5512299765841" fill="none" stroke="black" stroke-weight="1"></path><path id="SvgjsPath3019" d="M 237.2498957144433 109.95627989096084 C 237.2498957144433 109.95627989096084 67.71816712603548 63.95406982280606 240.25851280804477 262.202499373588" fill="none" stroke="black" stroke-weight="1"></path><path id="SvgjsPath3020" d="M 231.7199946124077 110.44823518752536 C 231.7199946124077 110.44823518752536 64.51289796553407 64.5277202726894 234.5379254611114 266.57332095609" fill="none" stroke="black" stroke-weight="1"></path><path id="SvgjsPath3021" d="M 225.98583608279156 110.96490904963214 C 225.98583608279156 110.96490904963214 61.52130203929663 65.31500690878822 228.60603732702577 270.65276994641374" fill="none" stroke="black" stroke-weight="1"></path><path id="SvgjsPath3022" d="M 220.0617525356269 111.50597857293583 C 220.0617525356269 111.50597857293583 58.75085677914579 66.31396192452326 222.4776750368554 274.4306498466193" fill="none" stroke="black" stroke-weight="1"></path><path id="SvgjsPath3023" d="M 213.96255109457854 112.07110560659696 C 213.96255109457854 112.07110560659696 56.20848685541206 67.52208845260083 216.16815630473644 277.89751792443815" fill="none" stroke="black" stroke-weight="1"></path><path id="SvgjsPath3024" d="M 207.7034765868464 112.65993696461516 C 207.7034765868464 112.65993696461516 53.900546868863984 68.9363668058809 209.69325164156524 281.0447088151856" fill="none" stroke="black" stroke-weight="1"></path><path id="SvgjsPath3025" d="M 201.30017343903683 113.27210464655894 C 201.30017343903683 113.27210464655894 51.83280546751595 70.55326202502224 203.06914493693466 283.8643561806601" fill="none" stroke="black" stroke-weight="1"></path><path id="SvgjsPath3026" d="M 194.76864657424352 113.90722606755402 C 194.76864657424352 113.90722606755402 50.010430928012525 72.36873271403974 196.31239300783812 286.34941237089197" fill="none" stroke="black" stroke-weight="1"></path><path id="SvgjsPath3027" d="M 188.12522140807502 114.56490429738638 C 188.12522140807502 114.56490429738638 48.437978237628215 74.37824114168963 189.43988421525003 288.4936660395979" fill="none" stroke="black" stroke-weight="1"></path><path id="SvgjsPath3028" d="M 181.38650304361784 115.2447283085707 C 181.38650304361784 115.2447283085707 47.11937770917136 76.57676458343458 182.46879625201845 290.2917576693118" fill="none" stroke="black" stroke-weight="1"></path><path id="SvgjsPath3029" d="M 174.5693347673264 115.94627323322925 C 174.5693347673264 115.94627323322925 46.05792515724919 78.95880787563924 175.41655320757903 291.73919296738745" fill="none" stroke="black" stroke-weight="1"></path><path id="SvgjsPath3030" d="M 167.69075594957886 116.66910062862037 C 167.69075594957886 116.66910062862037 45.25627366044776 81.51841715061713 168.3007820168057 292.83235409938936" fill="none" stroke="black" stroke-weight="1"></path><path id="SvgjsPath3031" d="M 160.76795945512495 117.41275875115099 C 160.76795945512495 117.41275875115099 44.716426930017064 84.24919471819946 161.1392684018534 293.5685087317949" fill="none" stroke="black" stroke-weight="1"></path><path id="SvgjsPath3032" d="M 153.8182486698781 118.17678283870164 C 153.8182486698781 118.17678283870164 44.43973430163642 87.14431505662887 153.94991241711529 293.94581686140486" fill="none" stroke="black" stroke-weight="1"></path><path id="SvgjsPath3033" d="M 146.85899425146204 118.96069540108768 C 146.85899425146204 118.96069540108768 44.426887362778004 90.19654187280888 146.750683708409 293.9633354143936" fill="none" stroke="black" stroke-weight="1"></path><path id="SvgjsPath3034" d="M 139.90759071161315 119.76400651847504 C 139.90759071161315 119.76400651847504 44.67791822409846 93.39824618926795 139.5595765982205 293.6210206035021" fill="none" stroke="black" stroke-weight="1"></path><path id="SvgjsPath3035" d="M 132.98141293896006 120.5862141475643 C 132.98141293896006 120.5862141475643 45.19219943917881 96.74142541263018 132.39456510926902 292.9197280374834" fill="none" stroke="black" stroke-weight="1"></path><path id="SvgjsPath3036" d="M 126.09777277085091 121.42680443535124 C 126.09777277085091 121.42680443535124 45.968445572813806 100.21772333593138 125.27355803881127 291.8612105825266" fill="none" stroke="black" stroke-weight="1"></path><path id="SvgjsPath3037" d="M 119.27387572277507 122.28525204026846 C 119.27387572277507 122.28525204026846 47.00471641393058 103.81845102478437 118.21435419597421 290.44811398100376" fill="none" stroke="black" stroke-weight="1"></path><path id="SvgjsPath3038" d="M 112.5267779835361 123.16102046050652 C 112.5267779835361 123.16102046050652 48.29842182510576 107.53460853518962 111.23459791400286 288.6839702384921" fill="none" stroke="black" stroke-weight="1"></path><path id="SvgjsPath3039" d="M 105.87334378366177 124.05356236931024 C 105.87334378366177 124.05356236931024 49.84632821656011 111.35690740870842 104.35173494861561 286.57318879559983" fill="none" stroke="black" stroke-weight="1"></path><path id="SvgjsPath3040" d="M 99.33020324360996 124.96231995704012 C 99.33020324360996 124.96231995704012 51.64456662844907 115.27579388877186 97.58296887269995 284.1210455066604" fill="none" stroke="black" stroke-weight="1"></path><path id="SvgjsPath3041" d="M 92.91371080712888 125.88672527978522 C 92.91371080712888 125.88672527978522 53.68864240124746 119.28147280009654 90.94521807634023 281.33366945284433" fill="none" stroke="black" stroke-weight="1"></path><path id="SvgjsPath3042" d="M 86.63990436366528 126.8262006143095 C 86.63990436366528 126.8262006143095 55.97344641005732 123.36393203152129 84.45507347965373 278.21802762264906" fill="none" stroke="black" stroke-weight="1"></path><path id="SvgjsPath3043" d="M 80.5244651619928 127.78015881911004 C 80.5244651619928 127.78015881911004 58.49326783475945 127.51296756107104 78.12875706413048 274.78190749805526" fill="none" stroke="black" stroke-weight="1"></path><path id="SvgjsPath3044" d="M 74.58267861525623 128.7480037013616 C 74.58267861525623 128.7480037013616 61.241808434089805 131.718208960698 71.98208132612713 271.03389758987754" fill="none" stroke="black" stroke-weight="1"></path><path id="SvgjsPath3045" d="M 68.8293960953996 129.72913038951748 C 68.8293960953996 129.72913038951748 64.21219828796247 135.96914531695066 66.03040975386166 266.9833659709603" fill="none" stroke="black" stroke-weight="1"></path><path id="SvgjsPath3046" d="M 63.27899781247116 130.72292571133465 C 63.27899781247116 130.72292571133465 67.39701296869173 140.25515150278306 60.2886184266943 262.6404368608749" fill="none" stroke="black" stroke-weight="1"></path><path id="SvgjsPath3047" d="M 57.94535687158684 131.72876857708633 C 57.94535687158684 131.72876857708633 70.78829209819511 144.56551473483938 54.77105883267606 258.015965320643" fill="none" stroke="black" stroke-weight="1"></path><path id="SvgjsPath3048" d="M 52.84180459739218 132.74603036772308 C 52.84180459739218 132.74603036772308 74.377559244793 148.8894613498334 49.49152199730227 253.1215101207368" fill="none" stroke="black" stroke-weight="1"></path><path id="SvgjsPath3049" d="M 47.981097212693825 133.77407532773907 C 47.981097212693825 133.77407532773907 78.15584310987322 153.21618373309562 44.46320401313156 247.96930485017288" fill="none" stroke="black" stroke-weight="1"></path><path id="SvgjsPath3050" d="M 43.375383954546265 134.8122609624986 C 43.375383954546265 134.8122609624986 82.11369995146514 157.53486733198122 39.69867305642717 242.57222733891115" fill="none" stroke="black" stroke-weight="1"></path><path id="SvgjsPath3051" d="M 39.036176707485865 135.85993843977428 C 39.036176707485865 135.85993843977428 86.24123718867662 161.83471768661974 35.20983797326126 236.94376746998637" fill="none" stroke="black" stroke-weight="1"></path><path id="SvgjsPath3052" d="M 34.97432122981475 136.9164529952462 C 34.97432122981475 136.9164529952462 90.52813812799465 166.10498741044356 31.007918513601453 231.09799346182547" fill="none" stroke="black" stroke-weight="1"></path><path id="SvgjsPath3053" d="M 31.199970044853444 137.98114434170833 C 31.199970044853444 137.98114434170833 94.96368774964589 170.3350030530567 27.103417287779408 225.04951670502834" fill="none" stroke="black" stroke-weight="1"></path><path id="SvgjsPath3054" d="M 27.722557064920437 139.0533470817262 C 27.722557064920437 139.0533470817262 99.53679948956568 174.5141917783021 23.506093515434927 218.81345524150132" fill="none" stroke="black" stroke-weight="1"></path><path id="SvgjsPath3055" d="M 24.550774011463986 140.13239112348907 C 24.550774011463986 140.13239112348907 104.23604295003463 178.63210779084585 20.22493863254894 212.4053959772255" fill="none" stroke="black" stroke-weight="1"></path><path id="SvgjsPath3056" d="M 21.69254869028495 141.21760209959518 C 21.69254869028495 141.21760209959518 109.04967246972035 182.678458445226 17.26815381753616 205.8413557231086" fill="none" stroke="black" stroke-weight="1"></path><path id="SvgjsPath3057" d="M 19.155025176151184 142.3083017885097 C 19.155025176151184 142.3083017885097 113.96565648171367 186.64312997210536 14.643129492570182 199.13774116129952" fill="none" stroke="black" stroke-weight="1"></path><path id="SvgjsPath3058" d="M 16.94454595633144 143.40380853843084 C 16.94454595633144 143.40380853843084 118.97170758617935 190.51621275742767 12.356426851377336 192.31130783702815" fill="none" stroke="black" stroke-weight="1"></path><path id="SvgjsPath3059" d="M 15.066636077680016 144.5034376933001 C 15.066636077680016 144.5034376933001 124.0553132624571 194.28802611129197 10.413761459668962 185.3791182784676" fill="none" stroke="black" stroke-weight="1"></path><path id="SvgjsPath3060" d="M 13.525989336896856 145.60650202069024 C 13.525989336896856 145.60650202069024 129.20376714384705 197.94914246463617 8.81998896920365 178.35849934929948" fill="none" stroke="black" stroke-weight="1"></path><path id="SvgjsPath3061" d="M 12.326456548480621 146.71231214130296 C 12.326456548480621 146.71231214130296 134.40420077690885 201.49041093324956 7.579092981186875 171.26699894057882" fill="none" stroke="black" stroke-weight="1"></path><path id="SvgjsPath3062" d="M 11.471035919697812 147.82017695980846 C 11.471035919697812 147.82017695980846 139.64361578589316 204.90298019021748 6.694175089342565 164.12234211014567" fill="none" stroke="black" stroke-weight="1"></path><path id="SvgjsPath3063" d="M 10.961865556625924 148.92940409675776 C 10.961865556625924 148.92940409675776 144.9089163619119 208.1783205896291 6.167447127544051 156.942386779211" fill="none" stroke="black" stroke-weight="1"></path><path id="SvgjsPath3064" d="M 10.800218120001801 150.03930032129722 C 10.800218120001801 150.03930032129722 150.18694199564078 211.30824548625029 6.000225641381149 149.74507909685343" fill="none" stroke="black" stroke-weight="1"></path><path id="SvgjsPath3065" d="M 10.986497644232657 151.14917198441515 C 10.986497644232657 151.14917198441515 155.46450037173827 214.284931697873 6.192928597482052 142.54840858399325" fill="none" stroke="black" stroke-weight="1"></path><path id="SvgjsPath3066" d="M 11.520238527520434 152.25832545244998 C 11.520238527520434 152.25832545244998 160.72840034276317 217.10093905919624 6.7450743388142484 135.37036316895927" fill="none" stroke="black" stroke-weight="1"></path><path id="SvgjsPath3067" d="M 12.400106695623776 153.3660675405887 C 12.400106695623776 153.3660675405887 165.96548490017386 219.74922901836493 7.655282788576301 128.22888422703562" fill="none" stroke="black" stroke-weight="1"></path><path id="SvgjsPath3068" d="M 13.623902936348884 154.47170594608474 C 13.623902936348884 154.47170594608474 171.16266405999795 222.22318222968397 8.92127889967125 121.14182173636644" fill="none" stroke="black" stroke-weight="1"></path><path id="SvgjsPath3069" d="M 15.188568396434789 155.57454968092486 C 15.188568396434789 155.57454968092486 176.3069475809746 224.5166150985351 10.539898341139434 114.12688966230738" fill="none" stroke="black" stroke-weight="1"></path><path id="SvgjsPath3070" d="M 17.090192227093212 156.67390950367377 C 17.090192227093212 156.67390950367377 181.38547743339225 226.62379523714284 12.507095407337829 107.20162168173783" fill="none" stroke="black" stroke-weight="1"></path><path id="SvgjsPath3071" d="M 19.324021359094075 157.76909835022803 C 19.324021359094075 157.76909835022803 186.38555993746692 228.53945579255878 14.817953130097294 100.38332735799963" fill="none" stroke="black" stroke-weight="1"></path><path id="SvgjsPath3072" d="M 21.884472382963054 158.85943176320845 C 21.884472382963054 158.85943176320845 191.29469749093124 230.25880861105122 17.466695568582452 93.68904887600283" fill="none" stroke="black" stroke-weight="1"></path><path id="SvgjsPath3073" d="M 24.76514550459774 159.94422831972386 C 24.76514550459774 159.94422831972386 196.1006198065311 231.77755620599564 20.4467022461356 87.13551844563938" fill="none" stroke="black" stroke-weight="1"></path><path id="SvgjsPath3074" d="M 27.958840541419534 161.02281005723805 C 27.958840541419534 161.02281005723805 200.79131458135333 233.091902499353 23.7505246980202 80.73911647997271" fill="none" stroke="black" stroke-weight="1"></path><path id="SvgjsPath3075" d="M 31.45757491908043 162.09450289727437 C 31.45757491908043 162.09450289727437 205.35505752132732 234.19856230988825 27.369905088703902 74.51583065273546" fill="none" stroke="black" stroke-weight="1"></path><path id="SvgjsPath3076" d="M 35.25260362374209 163.15863706669296 C 35.25260362374209 163.15863706669296 209.78044164585464 235.0947695644124 31.295796852146992 68.48121593747092" fill="none" stroke="black" stroke-weight="1"></path><path id="SvgjsPath3077" d="M 39.334441060055724 164.21454751627704 C 39.334441060055724 164.21454751627704 214.05640579931966 235.7782842115248 35.51838730350592 62.65035572820045" fill="none" stroke="black" stroke-weight="1"></path><path id="SvgjsPath3078" d="M 43.69288476021025 165.26157433636695 C 43.69288476021025 165.26157433636695 218.17226229821762 236.24739782057523 40.02712216573475 57.037824138794136" fill="none" stroke="black" stroke-weight="1"></path><path id="SvgjsPath3079" d="M 48.31704088478871 166.29906316928228 C 48.31704088478871 166.29906316928228 222.11772364479776 236.50093785185072 44.81073194978141 51.65764957527574" fill="none" stroke="black" stroke-weight="1"></path><path id="SvgjsPath3080" d="M 53.19535145169378 167.3263656182742 C 53.19535145169378 167.3263656182742 225.88292824045038 236.53827058731414 49.85726012244184 46.52327967211309" fill="none" stroke="black" stroke-weight="1"></path><path id="SvgjsPath3081" d="M 58.31562322508343 168.3428396527523 C 58.31562322508343 168.3428396527523 229.45846503456707 236.35930271456942 55.1540929914656 41.647547680135816" fill="none" stroke="black" stroke-weight="1"></path><path id="SvgjsPath3082" d="M 63.66505819210995 169.34785000953264 C 63.66505819210995 169.34785000953264 232.83539704726599 235.96448156009365 60.68799123321719 37.04264039009185" fill="none" stroke="black" stroke-weight="1"></path><path id="SvgjsPath3083" d="M 69.2302855512875 170.34076858985668 C 69.2302855512875 170.34076858985668 236.0052837071874 235.35479397115427 66.44512298409052 32.72006767201714" fill="none" stroke="black" stroke-weight="1"></path><path id="SvgjsPath3084" d="M 74.99739513253269 171.32097485193265 C 74.99739513253269 171.32097485193265 238.96020194852682 234.53176384920437 72.41109841296485 28.690633706554323" fill="none" stroke="black" stroke-weight="1"></path><path id="SvgjsPath3085" d="M 80.95197216534523 172.2878561987539 C 80.95197216534523 172.2878561987539 241.69276601457256 233.497448340923 78.57100568828817 24.964409980128323" fill="none" stroke="black" stroke-weight="1"></path><path id="SvgjsPath3086" d="M 87.07913330822666 173.24080836095195 C 87.07913330822666 173.24080836095195 244.19614591825132 232.25443269641983 84.90944824988965 21.550710111475496" fill="none" stroke="black" stroke-weight="1"></path><path id="SvgjsPath3087" d="M 93.36356384928337 174.17923577444537 C 93.36356384928337 174.17923577444537 246.4640845135388 230.80582380745608 91.4105832923621 18.45806657244711" fill="none" stroke="black" stroke-weight="1"></path><path id="SvgjsPath3088" d="M 99.78955598503111 175.10255195264784 C 99.78955598503111 175.10255195264784 248.4909131350665 229.15524244183325 98.05816136382529 15.694209361272954" fill="none" stroke="black" stroke-weight="1"></path><path id="SvgjsPath3089" d="M 106.34104808172276 176.01017985300328 C 106.34104808172276 176.01017985300328 250.27156576683262 227.30681419335914 104.83556698109251 13.26604668159186" fill="none" stroke="black" stroke-weight="1"></path><path id="SvgjsPath3090" d="M 113.0016648210675 176.90155223761852 C 113.0016648210675 176.90155223761852 251.80159170460365 225.26515917001217 111.72586015972499 11.17964767554048" fill="none" stroke="black" stroke-weight="1"></path><path id="SvgjsPath3091" d="M 119.75475812999882 177.7761120277685 C 119.75475812999882 177.7761120277685 253.07716668035715 223.0353804460774 118.7118187551712 9.440227254058414" fill="none" stroke="black" stroke-weight="1"></path><path id="SvgjsPath3092" d="M 126.58344879218768 178.63331265205264 C 126.58344879218768 178.63331265205264 254.09510242096047 220.62305130711832 125.77598150915966 8.052133062326618" fill="none" stroke="black" stroke-weight="1"></path><path id="SvgjsPath3093" d="M 133.4706686372922 179.47261838798383 C 133.4706686372922 179.47261838798383 254.85285461719278 218.03420131966547 132.90069169375056 7.018834612918937" fill="none" stroke="black" stroke-weight="1"></path><path id="SvgjsPath3094" d="M 140.3992032024941 180.29350469679767 C 140.3992032024941 180.29350469679767 255.34852928319316 215.27530126044059 140.06814124395942 6.342914613827503" fill="none" stroke="black" stroke-weight="1"></path><path id="SvgjsPath3095" d="M 147.35173475969123 181.09545855127212 C 147.35173475969123 181.09545855127212 255.580887490439 212.35324694278438 147.2604152686461 6.026062513037687" fill="none" stroke="black" stroke-weight="1"></path><path id="SvgjsPath3096" d="M 154.31088560079925 181.8779787563529 C 154.31088560079925 181.8779787563529 255.54934846442205 209.27534198071453 154.45953682841304 6.069070275788107" fill="none" stroke="black" stroke-weight="1"></path><metadata>116 * Math.cos(t/1);37 * Math.cos(t/2);44 * Math.sin(t/1)+44 * Math.sin(t/1);51 * Math.cos(t/1)+51 * Math.sin(t/1)</metadata></svg>