<svg id="SvgjsSvg3343" width="300" height="300" xmlns="http://www.w3.org/2000/svg" version="1.1" xmlns:xlink="http://www.w3.org/1999/xlink" xmlns:svgjs="http://svgjs.com/svgjs"><defs id="SvgjsDefs3344"></defs><path id="SvgjsPath3345" d="M 282.3870670682854 106.14663767757588 C 282.3870670682854 106.14663767757588 182.63219460599447 110.70718125848342 286.9521383465021 105.50155281000755" fill="none" stroke="black" stroke-weight="1"></path><path id="SvgjsPath3346" d="M 284.3714799509538 105.9867169705325 C 284.3714799509538 105.9867169705325 177.57192651676877 106.90206850052151 289.00497925960735 112.40191838622454" fill="none" stroke="black" stroke-weight="1"></path><path id="SvgjsPath3347" d="M 286.02003411305884 105.8543031326883 C 286.02003411305884 105.8543031326883 172.4427429704327 103.20467812633933 290.71038011695737 119.39625958577359" fill="none" stroke="black" stroke-weight="1"></path><path id="SvgjsPath3348" d="M 287.32860902774564 105.74947891838173 C 287.32860902774564 105.74947891838173 167.25746425462518 99.62425168630878 292.0640783045644 126.46709419823841" fill="none" stroke="black" stroke-weight="1"></path><path id="SvgjsPath3349" d="M 288.29393393922004 105.67230983933452 C 288.29393393922004 105.67230983933452 162.0290508656947 96.16973838187994 293.06269028195175 133.59674881950713" fill="none" stroke="black" stroke-weight="1"></path><path id="SvgjsPath3350" d="M 288.91359603793495 105.62284412370911 C 288.91359603793495 105.62284412370911 156.7705711142088 92.84977269723817 293.7037200392431 140.76740302607897" fill="none" stroke="black" stroke-weight="1"></path><path id="SvgjsPath3351" d="M 289.1860464913573 105.60111268596762 C 289.1860464913573 105.60111268596762 151.4951684609826 89.67265281759026 293.98556533588686 147.96113391684207" fill="none" stroke="black" stroke-weight="1"></path><path id="SvgjsPath3352" d="M 289.110604315243 105.60712910755122 C 289.110604315243 105.60712910755122 146.21602866527246 86.64631988802324 293.90752170542385 155.15996091099214" fill="none" stroke="black" stroke-weight="1"></path><path id="SvgjsPath3353" d="M 288.6874580757429 105.64088962839227 C 288.6874580757429 105.64088962839227 140.94634682724495 83.77833816477734 293.46978421628575 162.3458906901205" fill="none" stroke="black" stroke-weight="1"></path><path id="SvgjsPath3354" d="M 287.91766541808533 105.70237314926422 C 287.91766541808533 105.70237314926422 135.69929440709794 81.07587610854472 292.6734469842262 169.50096217213908" fill="none" stroke="black" stroke-weight="1"></path><path id="SvgjsPath3355" d="M 286.8031504230142 105.79154124496786 C 286.8031504230142 105.79154124496786 130.48798630326985 78.54568846705101 291.52050043760084 176.60729140463206" fill="none" stroke="black" stroke-weight="1"></path><path id="SvgjsPath3356" d="M 285.346698797589 105.90833818834594 C 285.346698797589 105.90833818834594 125.32544807202328 76.19409939170357 290.01382634233346 183.64711626542294" fill="none" stroke="black" stroke-weight="1"></path><path id="SvgjsPath3357" d="M 283.55195091236794 106.05269098511076 C 283.55195091236794 106.05269098511076 120.22458337033824 74.02698663050681 288.15719059900135 190.6028408586297" fill="none" stroke="black" stroke-weight="1"></path><path id="SvgjsPath3358" d="M 281.4233927023775 106.22450941946323 C 281.4233927023775 106.22450941946323 115.19814170349014 72.04976683675328 285.9552338300457 197.45707949524075" fill="none" stroke="black" stroke-weight="1"></path><path id="SvgjsPath3359" d="M 278.9663444546109 106.42368611047482 C 278.9663444546109 106.42368611047482 110.2586865579259 70.2673820302112 283.413459780632 204.19270014828277" fill="none" stroke="black" stroke-weight="1"></path><path id="SvgjsPath3360" d="M 276.18694751008167 106.65009657919708 C 276.18694751008167 106.65009657919708 105.41856399909105 68.68428724464893 280.53822156215347 210.79286727396678" fill="none" stroke="black" stroke-weight="1"></path><path id="SvgjsPath3361" d="M 273.09214891366906 106.90359932645708 C 273.09214891366906 106.90359932645708 100.68987181269543 67.30443939257047 277.3367057727611 217.24108389177908" fill="none" stroke="black" stroke-weight="1"></path><path id="SvgjsPath3362" d="M 269.68968405012413 107.18403592128968 C 269.68968405012413 107.18403592128968 96.08442926654958 66.1312873749951 273.81691453461116 223.52123281834162" fill="none" stroke="black" stroke-weight="1"></path><path id="SvgjsPath3363" d="M 265.9880573096365 107.49123109995165 C 265.9880573096365 107.49123109995165 91.6137475685509 65.16776346100106 269.9876454927273 229.61761695197606" fill="none" stroke="black" stroke-weight="1"></path><path id="SvgjsPath3364" d="M 261.99652083128717 107.82499287545599 C 261.99652083128717 107.82499287545599 87.28900109465842 64.4162759585798 265.8584698254695 235.51499850728388" fill="none" stroke="black" stroke-weight="1"></path><path id="SvgjsPath3365" d="M 257.7250513775203 108.18511265755743 C 257.7250513775203 108.18511265755743 83.12099945877252 63.878703195120224 261.43970832157265 241.19863710167385" fill="none" stroke="black" stroke-weight="1"></path><path id="SvgjsPath3366" d="M 253.1843253974317 108.57136538311454 C 253.1843253974317 108.57136538311454 79.1201604943294 63.55638882256851 256.74240558355007 246.65432659864177" fill="none" stroke="black" stroke-weight="1"></path><path id="SvgjsPath3367" d="M 248.38569234120746 108.98350965674695 C 248.38569234120746 108.98350965674695 75.29648421514374 63.45013845899793 251.77830242193875 251.8684306157132" fill="none" stroke="black" stroke-weight="1"></path><path id="SvgjsPath3368" d="M 243.3411462924083 109.42128790169949 C 243.3411462924083 109.42128790169949 71.65952782058113 63.56021767498332 246.5598065093879 256.82791660829844" fill="none" stroke="black" stroke-weight="1"></path><path id="SvgjsPath3369" d="M 238.06329598900737 109.88442652081937 C 238.06329598900737 109.88442652081937 68.21838180753788 63.886351329812825 241.0999613679387 261.5203884442665" fill="none" stroke="black" stroke-weight="1"></path><path id="SvgjsPath3370" d="M 232.56533330811197 110.37263606754544 C 232.56533330811197 110.37263606754544 64.98164724893249 64.42772425919652 235.41241376701237 265.93411738781936" fill="none" stroke="black" stroke-weight="1"></path><path id="SvgjsPath3371" d="M 226.86100029314048 110.88561142680295 C 226.86100029314048 110.88561142680295 61.957414295502446 65.18298331275254 229.5113796135936 270.05807141522394" fill="none" stroke="black" stroke-weight="1"></path><path id="SvgjsPath3372" d="M 220.9645548058714 111.42303200569037 C 220.9645548058714 111.42303200569037 59.15324195464149 66.15024073617826 223.41160841986698 273.88194278912533" fill="none" stroke="black" stroke-weight="1"></path><path id="SvgjsPath3373" d="M 214.89073488921335 111.98456193383973 C 214.89073488921335 111.98456193383973 56.576139196816854 67.32707888965311 217.12834643711727 277.3961738225225" fill="none" stroke="black" stroke-weight="1"></path><path id="SvgjsPath3374" d="M 208.65472192977361 112.5698502733245 C 208.65472192977361 112.5698502733245 54.23254743679401 68.71055629067882 210.67729854804168 280.59198076800817" fill="none" stroke="black" stroke-weight="1"></path><path id="SvgjsPath3375" d="M 202.27210271229822 113.17853123798449 C 202.27210271229822 113.17853123798449 52.128324433454026 70.29721496625392 204.0745890127223 283.46137577256263" fill="none" stroke="black" stroke-weight="1"></path><path id="SvgjsPath3376" d="M 195.75883046082694 113.81022442203017 C 195.75883046082694 113.81022442203017 50.26872964844718 72.08308909600531 197.33672116637268 285.9971868430266" fill="none" stroke="black" stroke-weight="1"></path><path id="SvgjsPath3377" d="M 189.1311849639418 114.46453503778406 C 189.1311849639418 114.46453503778406 48.65841110027765 74.0637149246739 190.48053616959498 288.1930757723487" fill="none" stroke="black" stroke-weight="1"></path><path id="SvgjsPath3378" d="M 182.405731883774 115.14105416240999 C 182.405731883774 115.14105416240999 47.30139374667813 76.2341419191781 183.52317091424896 290.0435539818026" fill="none" stroke="black" stroke-weight="1"></path><path id="SvgjsPath3379" d="M 175.59928135047554 115.83935899347676 C 175.59928135047554 115.83935899347676 46.20106942431168 78.5889451423681 176.4820151901471 291.543996239575" fill="none" stroke="black" stroke-weight="1"></path><path id="SvgjsPath3380" d="M 168.72884594564903 116.55901311319573 C 168.72884594564903 116.55901311319573 45.36018837094643 81.12223881254376 169.37466821963693 292.69065222143666" fill="none" stroke="black" stroke-weight="1"></path><path id="SvgjsPath3381" d="M 161.81159817975282 117.29956676116785 C 161.81159817975282 117.29956676116785 44.780852351293404 83.82769101484337 162.2188946687098 293.4806558845999" fill="none" stroke="black" stroke-weight="1"></path><path id="SvgjsPath3382" d="M 154.86482756976852 118.0605571154692 C 154.86482756976852 118.0605571154692 44.46450940368932 86.69853952773363 155.03258024458813 293.91203263133275" fill="none" stroke="black" stroke-weight="1"></path><path id="SvgjsPath3383" d="M 147.90589742441313 118.8415085818996 C 147.90589742441313 118.8415085818996 44.411950220755 89.72760872504112 147.8336869907722 293.983704244425" fill="none" stroke="black" stroke-weight="1"></path><path id="SvgjsPath3384" d="M 140.95220144490918 119.64193309121366 C 140.95220144490918 119.64193309121366 44.62330617307548 92.90732751128155 140.64020839128537 293.6954915821698" fill="none" stroke="black" stroke-weight="1"></path><path id="SvgjsPath3385" d="M 134.02112024979056 120.46133040414796 C 134.02112024979056 120.46133040414796 45.09804898084201 96.22974824545472 133.47012439633505 293.04811502612455" fill="none" stroke="black" stroke-weight="1"></path><path id="SvgjsPath3386" d="M 127.12997793240775 121.29918842405448 C 127.12997793240775 121.29918842405448 45.83499203427641 99.68656660600834 126.34135648180113 292.0431926805322" fill="none" stroke="black" stroke-weight="1"></path><path id="SvgjsPath3387" d="M 120.29599875971681 122.15498351694418 C 120.29599875971681 122.15498351694418 46.83229335953766 103.26914234731737 119.27172285487944 290.68323632790316" fill="none" stroke="black" stroke-weight="1"></path><path id="SvgjsPath3388" d="M 113.5362641205815 123.02818083874143 C 113.5362641205815 123.02818083874143 48.0874602226971 106.96852089579802 112.27889391784295 288.9716451508676" fill="none" stroke="black" stroke-weight="1"></path><path id="SvgjsPath3389" d="M 106.86766983119824 123.91823466954384 C 106.86766983119824 123.91823466954384 49.59735536027512 110.77545573167808 105.38034810123955 286.91269723598845" fill="none" stroke="black" stroke-weight="1"></path><path id="SvgjsPath3390" d="M 100.30688390435387 124.82458875467965 C 100.30688390435387 124.82458875467965 51.35820482076588 114.68043150048106 98.5933281769178 284.5115388807738" fill="none" stroke="black" stroke-weight="1"></path><path id="SvgjsPath3391" d="M 93.87030488807403 125.74667665234877 C 93.87030488807403 125.74667665234877 53.36560739755083 118.67368779645713 91.93479816007658 281.77417173061247" fill="none" stroke="black" stroke-weight="1"></path><path id="SvgjsPath3392" d="M 87.57402087779366 126.68392208763045 C 87.57402087779366 126.68392208763045 55.614545629623194 122.74524355851419 85.42140090806241 278.70743777778654" fill="none" stroke="black" stroke-weight="1"></path><path id="SvgjsPath3393" d="M 81.43376930449736 127.63573931263626 C 81.43376930449736 127.63573931263626 58.0993983426271 126.88492201767218 79.06941652189381 275.31900226005394" fill="none" stroke="black" stroke-weight="1"></path><path id="SvgjsPath3394" d="M 75.46489759933738 128.60153347258353 C 75.46489759933738 128.60153347258353 60.81395469886618 131.08237613368595 72.89472165448693 271.6173345015461" fill="none" stroke="black" stroke-weight="1"></path><path id="SvgjsPath3395" d="M 69.68232483304807 129.5807009775603 C 69.68232483304807 129.5807009775603 63.75142972116362 135.32711445725744 66.91274982729111 267.6116867438678" fill="none" stroke="black" stroke-weight="1"></path><path id="SvgjsPath3396" d="M 64.10050442603934 130.57262987974923 C 64.10050442603934 130.57262987974923 66.90448125177114 139.6085273531949 61.138452854523464 263.31207102031203" fill="none" stroke="black" stroke-weight="1"></path><path id="SvgjsPath3397" d="M 58.733388022373006 131.5767002558751 C 58.733388022373006 131.5767002558751 70.26522830393964 143.915913518975 55.58626347142035 258.72923413099136" fill="none" stroke="black" stroke-weight="1"></path><path id="SvgjsPath3398" d="M 53.59439061791825 132.59228459463674 C 53.59439061791825 132.59228459463674 73.8252707602818 148.23850673242652 50.27005925991541 253.8746307814339" fill="none" stroke="black" stroke-weight="1"></path><path id="SvgjsPath3399" d="M 48.69635702984786 133.61874818888114 C 48.69635702984786 133.61874818888114 77.57571036869115 152.56550276167903 45.20312796191158 248.7603949517848" fill="none" stroke="black" stroke-weight="1"></path><path id="SvgjsPath3400" d="M 44.05152979128532 134.65544953227476 C 44.05152979128532 134.65544953227476 81.507172983338 156.8860863701155 40.39813426684687 243.39930956817545" fill="none" stroke="black" stroke-weight="1"></path><path id="SvgjsPath3401" d="M 39.67151855134789 135.70174072022402 C 39.67151855134789 135.70174072022402 85.60983199515174 161.18945834883112 35.86708815656678 237.8047745520658" fill="none" stroke="black" stroke-weight="1"></path><path id="SvgjsPath3402" d="M 35.56727105706986 136.75696785479468 C 35.56727105706986 136.75696785479468 89.87343289322621 165.4648625090318 31.621314886624006 231.99077332741882" fill="none" stroke="black" stroke-weight="1"></path><path id="SvgjsPath3403" d="M 31.74904578973596 137.8204714533768 C 31.74904578973596 137.8204714533768 94.28731889575678 169.7016125669046 27.671426679037197 225.97183786942253" fill="none" stroke="black" stroke-weight="1"></path><path id="SvgjsPath3404" d="M 28.22638632402112 138.89158686083982 C 28.22638632402112 138.89158686083982 98.8404575864447 173.88911885376174 24.027296197263226 219.76301238212085" fill="none" stroke="black" stroke-weight="1"></path><path id="SvgjsPath3405" d="M 25.008097474024197 139.96964466492034 C 25.008097474024197 139.96964466492034 103.52146848979186 178.0169147846971 20.69803186968022 213.37981569573836" fill="none" stroke="black" stroke-weight="1"></path><path id="SvgjsPath3406" d="M 22.102223285817843 141.0539711145831 C 22.102223285817843 141.0539711145831 108.31865151636308 182.07468301959773 17.691955123259845 206.8382024776867" fill="none" stroke="black" stroke-weight="1"></path><path id="SvgjsPath3407" d="M 19.51602693152242 142.14388854109342 C 19.51602693152242 142.14388854109342 113.22001620691672 186.05228125112134 15.016579584333556 200.15452335420446" fill="none" stroke="black" stroke-weight="1"></path><path id="SvgjsPath3408" d="M 17.255972555158593 143.23871578153813 C 17.255972555158593 143.23871578153813 118.21331170230798 189.93976755518244 12.678592298439924 193.34548404230728" fill="none" stroke="black" stroke-weight="1"></path><path id="SvgjsPath3409" d="M 15.32770911565376 144.3377686045301 C 15.32770911565376 144.3377686045301 123.28605736425622 193.7274252405844 10.683837016193564 186.42810359419605" fill="none" stroke="black" stroke-weight="1"></path><path id="SvgjsPath3410" d="M 13.736056267386601 145.44036013783062 C 13.736056267386601 145.44036013783062 128.42557397044123 197.40578713568763 9.037299586951661 179.41967185848918" fill="none" stroke="black" stroke-weight="1"></path><path id="SvgjsPath3411" d="M 12.484992313560895 146.5458012976223 C 12.484992313560895 146.5458012976223 133.6190154059563 200.96565925140834 7.743095496787134 172.33770626460503" fill="none" stroke="black" stroke-weight="1"></path><path id="SvgjsPath3412" d="M 11.57764426251967 147.65340121916395 C 11.57764426251967 147.65340121916395 138.85340077190477 204.39814376140285 6.804459581916916 165.19990803831163" fill="none" stroke="black" stroke-weight="1"></path><path id="SvgjsPath3413" d="M 11.01628001185287 148.76246768855856 C 11.01628001185287 148.76246768855856 144.11564683088685 207.69466124199948 6.223737943296072 158.02411795788154" fill="none" stroke="black" stroke-weight="1"></path><path id="SvgjsPath3414" d="M 10.802302679834298 149.87230757536437 C 10.802302679834298 149.87230757536437 149.39260070827962 210.84697211628975 6.002382082587189 150.82827176143687" fill="none" stroke="black" stroke-weight="1"></path><path id="SvgjsPath3415" d="M 10.936247098356716 150.982227265779 C 10.936247098356716 150.982227265779 154.67107276757423 213.84719724877982 6.140945274162135 143.6303553169442" fill="none" stroke="black" stroke-weight="1"></path><path id="SvgjsPath3416" d="M 11.417778476130792 152.09153309612543 C 11.417778476130792 152.09153309612543 159.9378695775978 216.68783763912558 6.639081182204251 136.44835966691207" fill="none" stroke="black" stroke-weight="1"></path><path id="SvgjsPath3417" d="M 12.245693235488716 153.19953178636916 C 12.245693235488716 153.19953178636916 165.17982688921978 219.36179316572793 7.495544726367655 129.30023606015482" fill="none" stroke="black" stroke-weight="1"></path><path id="SvgjsPath3418" d="M 13.417922020701809 154.30553087339558 C 13.417922020701809 154.30553087339558 170.38384253911957 221.8623803323395 8.708195193829454 122.20385108301875" fill="none" stroke="black" stroke-weight="1"></path><path id="SvgjsPath3419" d="M 14.931534870291927 155.40883914377724 C 14.931534870291927 155.40883914377724 175.53690919837152 224.18334897332443 10.27400158995718 115.17694200222063" fill="none" stroke="black" stroke-weight="1"></path><path id="SvgjsPath3420" d="M 16.782748540409557 156.50876706575937 C 16.782748540409557 156.50876706575937 180.62614688399296 226.3188978758174 12.189050214216792 108.23707243091869" fill="none" stroke="black" stroke-weight="1"></path><path id="SvgjsPath3421" d="M 18.966935960972762 157.6046272201949 C 18.966935960972762 157.6046272201949 185.63883515219337 228.26368927973454 14.448554442385614 101.40158842882721" fill="none" stroke="black" stroke-weight="1"></path><path id="SvgjsPath3422" d="M 21.478637800932887 158.6957347301591 C 21.478637800932887 158.6957347301591 190.56244489285967 230.01286221939372 17.04686669062019 94.68757514610041" fill="none" stroke="black" stroke-weight="1"></path><path id="SvgjsPath3423" d="M 24.311576113759116 159.78140768897535 C 24.311576113759116 159.78140768897535 195.38466964580675 231.56204467339754 19.97749253147495 88.11181411935439" fill="none" stroke="black" stroke-weight="1"></path><path id="SvgjsPath3424" d="M 27.45867002903526 160.86096758638456 C 27.45867002903526 160.86096758638456 200.09345636051856 232.90736449240967 23.233106926588192 81.69074132656559" fill="none" stroke="black" stroke-weight="1"></path><path id="SvgjsPath3425" d="M 30.91205345094785 161.93373973259204 C 30.91205345094785 161.93373973259204 204.67703552249682 234.04545907751148 26.805572535463284 75.44040610568615" fill="none" stroke="black" stroke-weight="1"></path><path id="SvgjsPath3426" d="M 34.663094719429324 162.99905367992662 C 34.663094719429324 162.99905367992662 209.12395057091828 234.97348378494846 30.685960054582054 69.37643103965685" fill="none" stroke="black" stroke-weight="1"></path><path id="SvgjsPath3427" d="M 38.70241818481307 164.0562436418487 C 38.70241818481307 164.0562436418487 213.42308653407073 235.68911903625798 34.86457053601352 63.513972908085364" fill="none" stroke="black" stroke-weight="1"></path><path id="SvgjsPath3428" d="M 43.01992764207482 165.10464890904518 C 43.01992764207482 165.10464890904518 217.56369781099306 236.19057611600738 39.330959629732575 57.86768480319124" fill="none" stroke="black" stroke-weight="1"></path><path id="SvgjsPath3429" d="M 47.60483156608673 166.143614262351 C 47.60483156608673 166.143614262351 221.53543502988157 236.47660164265108 44.07396368905523 52.451679504706945" fill="none" stroke="black" stroke-weight="1"></path><path id="SvgjsPath3430" d="M 52.44567008481039 167.17249038224017 C 52.44567008481039 167.17249038224017 225.3283709161296 236.54648070133163 49.0817276739418 47.27949420527783" fill="none" stroke="black" stroke-weight="1"></path><path id="SvgjsPath3431" d="M 57.53034362300913 168.19063425462915 C 57.53034362300913 168.19063425462915 228.93302510534448 236.40003863079477 54.341734782423245 42.364056674530204" fill="none" stroke="black" stroke-weight="1"></path><path id="SvgjsPath3432" d="M 62.84614314488444 169.1974095727397 C 62.84614314488444 169.1974095727397 232.340387839321 236.03764145995117 59.84083773608734 37.717652946380454" fill="none" stroke="black" stroke-weight="1"></path><path id="SvgjsPath3433" d="M 68.3797819200463 170.19218713476994 C 68.3797819200463 170.19218713476994 235.54194248574422 235.46019499299518 65.56529164142721 33.3518966103488" fill="none" stroke="black" stroke-weight="1"></path><path id="SvgjsPath3434" d="M 74.11742873341998 171.174345237125 C 74.11742873341998 171.174345237125 238.5296868253354 234.66914254536593 71.50078834491723 29.277699783633537" fill="none" stroke="black" stroke-weight="1"></path><path id="SvgjsPath3435" d="M 80.04474245608095 172.14327006296153 C 80.04474245608095 172.14327006296153 241.2961530532329 233.66646133621026 77.63249219594582 25.505245836500592" fill="none" stroke="black" stroke-weight="1"></path><path id="SvgjsPath3436" d="M 86.14690789060806 173.09835606580333 C 86.14690789060806 173.09835606580333 243.8344264446148 232.45465754636484 83.94507712821523 22.043963939161642" fill="none" stroke="black" stroke-weight="1"></path><path id="SvgjsPath3437" d="M 92.40867280136112 174.03900634798794 C 92.40867280136112 174.03900634798794 246.13816263790977 231.036760054209 90.42276496692531 18.902505493759435" fill="none" stroke="black" stroke-weight="1"></path><path id="SvgjsPath3438" d="M 98.81438603712718 174.96463303370842 C 98.81438603712718 174.96463303370842 248.20160349239708 229.41631286504648 97.04936486599362 16.088722510367603" fill="none" stroke="black" stroke-weight="1"></path><path id="SvgjsPath3439" d="M 105.34803665084794 175.87465763641677 C 105.34803665084794 175.87465763641677 250.01959148055988 227.5973662529376 103.80831377673925 13.609647981054678" fill="none" stroke="black" stroke-weight="1"></path><path id="SvgjsPath3440" d="M 111.99329391864885 176.76851142035883 C 111.99329391864885 176.76851142035883 251.58758257921767 225.5844666371234 110.68271784687812 11.47147830106681" fill="none" stroke="black" stroke-weight="1"></path><path id="SvgjsPath3441" d="M 118.73354815814325 177.64563575601582 C 118.73354815814325 177.64563575601582 252.90165762721767 223.3826452183457 117.65539464635509 9.67955778106682" fill="none" stroke="black" stroke-weight="1"></path><path id="SvgjsPath3442" d="M 125.5519522439887 178.50548246922958 C 125.5519522439887 178.50548246922958 253.95853212129688 220.99740540346505 124.70891611447107 8.238365289140603" fill="none" stroke="black" stroke-weight="1"></path><path id="SvgjsPath3443" d="M 132.43146371692706 179.34751418379355 C 132.43146371692706 179.34751418379355 254.7555644256298 218.43470904980973 131.825652120959 7.151503055959353" fill="none" stroke="black" stroke-weight="1"></path><path id="SvgjsPath3444" d="M 139.35488738105647 180.17120465729553 C 139.35488738105647 180.17120465729553 255.29076237454203 215.70096156363726 138.9878145321274 6.42168767107907" fill="none" stroke="black" stroke-weight="1"></path><path id="SvgjsPath3445" d="M 146.3049182828658 180.9760391100018 C 146.3049182828658 180.9760391100018 255.5627882518869 212.80299588995507 146.17750167193014 6.050743292881492" fill="none" stroke="black" stroke-weight="1"></path><path id="SvgjsPath3446" d="M 153.26418496460633 181.7615145465779 C 153.26418496460633 181.7615145465779 255.57096213463942 209.74805543371608 153.37674306683414 6.039597089128051" fill="none" stroke="black" stroke-weight="1"></path><path id="SvgjsPath3447" d="M 160.21529288389004 182.52714007044432 C 160.21529288389004 182.52714007044432 255.3152635923496 206.54377595507856 160.56754436264487 6.388276919523264" fill="none" stroke="black" stroke-weight="1"></path><path id="SvgjsPath3448" d="M 167.14086789098596 183.27243719057083 C 167.14086789098596 183.27243719057083 254.79633173820793 203.19816648398248 167.73193230101995 7.0959112660801225" fill="none" stroke="black" stroke-weight="1"></path><path id="SvgjsPath3449" d="M 174.02359965514583 183.99694012051785 C 174.02359965514583 183.99694012051785 254.0154636315952 199.71958930174597 174.85199964325432 8.160731411461057" fill="none" stroke="black" stroke-weight="1"></path><path id="SvgjsPath3450" d="M 180.84628493141645 184.70019606953767 C 180.84628493141645 184.70019606953767 252.97461103610988 196.11673903971678 181.9099499290515 9.580075859850211" fill="none" stroke="black" stroke-weight="1"></path><path id="SvgjsPath3451" d="M 187.59187055979316 185.38176552555416 C 187.59187055979316 185.38176552555416 251.67637554117496 192.39862094722173 188.88814195840672 11.350396989306859" fill="none" stroke="black" stroke-weight="1"></path><path id="SvgjsPath3452" d="M 194.24349608923836 186.04122252984342 C 194.24349608923836 186.04122252984342 250.1240020594198 188.5745283831334 195.76913388541902 13.46726991897296" fill="none" stroke="black" stroke-weight="1"></path><path id="SvgjsPath3453" d="M 200.78453592002782 186.67815494324395 C 200.78453592002782 186.67815494324395 248.32137071608844 184.65401958731331 202.5357268138219 15.925403568970324" fill="none" stroke="black" stroke-weight="1"></path><path id="SvgjsPath3454" d="M 207.198640859092 187.2921647037304 C 207.198640859092 187.2921647037304 246.27298715074687 180.64689378998958 209.1710077852676 18.718653885345162" fill="none" stroke="black" stroke-weight="1"></path><path id="SvgjsPath3455" d="M 213.46977898448478 187.8828680751894 C 213.46977898448478 187.8828680751894 243.98397125553097 176.56316671878463 215.6583920529153 21.84003919700322" fill="none" stroke="black" stroke-weight="1"></path><path id="SvgjsPath3456" d="M 219.58227571683847 188.449895887242 C 219.58227571683847 188.449895887242 241.46004437808216 172.4130455646124 221.9816645346605 25.281757666251565" fill="none" stroke="black" stroke-weight="1"></path><path id="SvgjsPath3457" d="M 225.52085299764875 188.99289376596323 C 225.52085299764875 188.99289376596323 238.7075150211585 168.20690346901708 228.12502034239526 29.035206789329294" fill="none" stroke="black" stroke-weight="1"></path><path id="SvgjsPath3458" d="M 231.2706674764646 189.5115223553542 C 231.2706674764646 189.5115223553542 235.73326307466283 163.9552535967214 234.07310428599789 33.09100489818705" fill="none" stroke="black" stroke-weight="1"></path><path id="SvgjsPath3459" d="M 236.81734761153479 190.00545752942864 C 236.81734761153479 190.00545752942864 232.54472261950076 159.6687228581895 239.8110492533118 37.43901460977166" fill="none" stroke="black" stroke-weight="1"></path><path id="SvgjsPath3460" d="M 242.14702959117687 190.47439059478106 C 242.14702959117687 190.47439059478106 229.14986334625036 155.35802534788553 245.32451337018298 42.06836816420403" fill="none" stroke="black" stroke-weight="1"></path><path id="SvgjsPath3461" d="M 247.2463919860864 190.91802848351003 C 247.2463919860864 190.91802848351003 225.55717063508632 151.03393556461748 250.59971584767555 46.96749458851862" fill="none" stroke="black" stroke-weight="1"></path><path id="SvgjsPath3462" d="M 252.10268904597237 191.33609393637613 C 252.10268904597237 191.33609393637613 221.7756243467485 146.70726148090128 255.62347142686798 52.12414861807022" fill="none" stroke="black" stroke-weight="1"></path><path id="SvgjsPath3463" d="M 256.703782557296 191.72832567607992 C 256.703782557296 191.72832567607992 217.81467637756637 142.38881752865774 260.3832233351338 57.52544130331859" fill="none" stroke="black" stroke-weight="1"></path><path id="SvgjsPath3464" d="M 261.03817218248224 192.09447857055181 C 261.03817218248224 192.09447857055181 213.6842270346409 138.0893975687652 264.8670746715334 63.15787222548968" fill="none" stroke="black" stroke-weight="1"></path><path id="SvgjsPath3465" d="M 265.0950242047745 192.43432378615154 C 265.0950242047745 192.43432378615154 209.39460029023314 133.81974791202893 269.06381814287016 69.00736324059118" fill="none" stroke="black" stroke-weight="1"></path><metadata>116 * Math.cos(t/1);37 * Math.cos(t/2);44 * Math.sin(t/1)+44 * Math.sin(t/1);51 * Math.cos(t/1)+51 * Math.sin(t/1)</metadata></svg>