<svg id="SvgjsSvg1129" width="300" height="300" xmlns="http://www.w3.org/2000/svg" version="1.1" xmlns:xlink="http://www.w3.org/1999/xlink" xmlns:svgjs="http://svgjs.com/svgjs"><defs id="SvgjsDefs1130"></defs><path id="SvgjsPath1131" d="M 250.24780705312196 156.94569024778625 C 250.24780705312196 156.94569024778625 124.86562119158039 26.743075488148094 286.9521383465021 194.49844718999242" fill="none" stroke="black" stroke-weight="1"></path><path id="SvgjsPath1132" d="M 250.05828438047158 158.03973969279477 C 250.05828438047158 158.03973969279477 120.98909202799918 28.898710430257083 284.55698841082545 201.2875898225778" fill="none" stroke="black" stroke-weight="1"></path><path id="SvgjsPath1133" d="M 249.8409683833107 159.1287645622001 C 249.8409683833107 159.1287645622001 117.16674593393213 31.35703552795802 281.82551608004667 207.94854019066713" fill="none" stroke="black" stroke-weight="1"></path><path id="SvgjsPath1134" d="M 249.5959194257967 160.2120842509082 C 249.5959194257967 160.2120842509082 113.40565401244318 34.111906248777586 278.7645486124693 214.46464938729613" fill="none" stroke="black" stroke-weight="1"></path><path id="SvgjsPath1135" d="M 249.32320557550878 161.28902171937716 C 249.32320557550878 161.28902171937716 109.71274726980243 37.15643685062271 275.3817368326414 220.81963053299728" fill="none" stroke="black" stroke-weight="1"></path><path id="SvgjsPath1136" d="M 249.0229025845407 162.35890391674502 C 249.0229025845407 162.35890391674502 106.09480083510287 40.483017592549615 271.6855360082782 226.9975994845166" fill="none" stroke="black" stroke-weight="1"></path><path id="SvgjsPath1137" d="M 248.69509386845908 163.42106220146462 C 248.69509386845908 163.42106220146462 102.55841856039503 44.08333375515326 267.68518471649634 232.98311453689922" fill="none" stroke="black" stroke-weight="1"></path><path id="SvgjsPath1138" d="M 248.3398704831327 164.47483275918273 C 248.3398704831327 164.47483275918273 99.11001803887291 47.948386423035615 263.3906817521827 238.76121501971022" fill="none" stroke="black" stroke-weight="1"></path><path id="SvgjsPath1139" d="M 247.95733109944015 165.5195570176025 C 247.95733109944015 165.5195570176025 95.755816077605 52.06851497740739 258.812761136214 244.31745869091912" fill="none" stroke="black" stroke-weight="1"></path><path id="SvgjsPath1140" d="M 247.5475819758616 166.55458205806966 C 247.5475819758616 166.55458205806966 92.50181466017477 56.43342124260421 253.96286528599535 249.63795783498367" fill="none" stroke="black" stroke-weight="1"></path><path id="SvgjsPath1141" d="M 247.11073692896332 167.57926102362543 C 247.11073692896332 167.57926102362543 89.3537874333793 61.032195226162244 248.85311641537527 254.7094139749061" fill="none" stroke="black" stroke-weight="1"></path><path id="SvgjsPath1142" d="M 246.64691730178285 168.5929535232711 C 246.64691730178285 168.5929535232711 86.31726675083084 65.85334238811784 243.4962862354246 259.51915111149987" fill="none" stroke="black" stroke-weight="1"></path><path id="SvgjsPath1143" d="M 246.15625193012312 169.59502603219144 C 246.15625193012312 169.59502603219144 83.39753130492502 70.88481237137098 237.90576403180995 264.05514740678626" fill="none" stroke="black" stroke-weight="1"></path><path id="SvgjsPath1144" d="M 245.63887710676568 170.58485228768734 C 245.63887710676568 170.58485228768734 80.5995943771761 76.11402912130256 232.0955231985527 268.3060652323282" fill="none" stroke="black" stroke-weight="1"></path><path id="SvgjsPath1145" d="M 245.09493654361262 171.5618136805693 C 245.09493654361262 171.5618136805693 77.92819273538511 81.52792231936104 226.08008631182105 272.26127950739703" fill="none" stroke="black" stroke-weight="1"></path><path id="SvgjsPath1146" d="M 244.52458133176725 172.5252996417682 C 244.52458133176725 172.5252996417682 75.38777620449939 87.11296005205237 219.8744888310529 275.91090425614084" fill="none" stroke="black" stroke-weight="1"></path><path id="SvgjsPath1147" d="M 243.92796989956548 173.47470802392118 C 243.92796989956548 173.47470802392118 72.98249793635024 92.8551826336764 213.4942415181374 279.24581731737567" fill="none" stroke="black" stroke-weight="1"></path><path id="SvgjsPath1148" d="M 243.3052679685689 174.40944547769394 C 243.3052679685689 174.40944547769394 70.71620540171902 98.74023749827045 206.95529166858833 282.2576831452375" fill="none" stroke="black" stroke-weight="1"></path><path id="SvgjsPath1149" d="M 242.65664850753228 175.3289278226049 C 242.65664850753228 175.3289278226049 68.59243212638806 104.75341507355077 200.27398325161022 284.9389736437061" fill="none" stroke="black" stroke-weight="1"></path><path id="SvgjsPath1150" d="M 241.98229168435745 176.2325804121189 C 241.98229168435745 176.2325804121189 66.61439019098847 110.8796855471812 193.46701605868753 287.2829869829244" fill="none" stroke="black" stroke-weight="1"></path><path id="SvgjsPath1151" d="M 241.28238481604802 177.1198384927827 C 241.28238481604802 177.1198384927827 64.78496351255684 117.10373643347776 186.55140396280242 289.283864350283" fill="none" stroke="black" stroke-weight="1"></path><path id="SvgjsPath1152" d="M 240.55712231667823 177.99014755717732 C 240.55712231667823 177.99014755717732 63.10670192377616 123.41001084664785 179.54443239261354 290.93660459440014" fill="none" stroke="black" stroke-weight="1"></path><path id="SvgjsPath1153" d="M 239.80670564339 178.8429636904674 C 239.80670564339 178.8429636904674 61.58181606389452 129.78274638490257 172.46361512788604 292.23707672539604" fill="none" stroke="black" stroke-weight="1"></path><path id="SvgjsPath1154" d="M 239.031343240434 179.6777539103299 C 239.031343240434 179.6777539103299 60.21217309330153 136.20601452825287 165.32665052416345 293.18203024021614" fill="none" stroke="black" stroke-weight="1"></path><path id="SvgjsPath1155" d="M 238.23125048127008 180.49399650005103 C 238.23125048127008 180.49399650005103 58.99929324169911 142.66376045151378 158.15137727609576 293.76910324719546" fill="none" stroke="black" stroke-weight="1"></path><path id="SvgjsPath1156" d="M 237.4066496087422 181.29118133458206 C 237.4066496087422 181.29118133458206 57.9443471977347 149.1398431530062 150.95572982999303 293.99682836955844" fill="none" stroke="black" stroke-weight="1"></path><path id="SvgjsPath1157" d="M 236.5577696733462 182.06881019935093 C 236.5577696733462 182.06881019935093 57.048154345878416 155.61807579865518 143.75769355704978 293.864636413096" fill="none" stroke="black" stroke-weight="1"></path><path id="SvgjsPath1158" d="M 235.68484646960576 182.82639710163002 C 235.68484646960576 182.82639710163002 56.31118185422392 162.08226618064475 136.57525979928357 293.3728577888551" fill="none" stroke="black" stroke-weight="1"></path><path id="SvgjsPath1159" d="M 234.7881224705758 183.56346857426595 C 234.7881224705758 183.56346857426595 55.73354461478327 168.5162571895053 129.42638090054962 292.522721687283" fill="none" stroke="black" stroke-weight="1"></path><path id="SvgjsPath1160" d="M 233.86784676049 184.279563971581 C 233.86784676049 184.279563971581 55.315006035732765 174.90396719847251 122.32892533503058 291.3163530058913" fill="none" stroke="black" stroke-weight="1"></path><path id="SvgjsPath1161" d="M 232.92427496557283 184.97423575726185 C 232.92427496557283 184.97423575726185 55.05497968295457 181.22943025917886 115.30063304535685 289.7567670381188" fill="none" stroke="black" stroke-weight="1"></path><path id="SvgjsPath1162" d="M 231.95766918303343 185.64704978405487 C 231.95766918303343 185.64704978405487 54.95253176611507 187.47683600821009 108.35907110198877 287.8478619366683" fill="none" stroke="black" stroke-weight="1"></path><path id="SvgjsPath1163" d="M 230.96829790826285 186.29758556509444 C 230.96829790826285 186.29758556509444 55.006384462428414 193.63056918477972 101.52158979468916 285.59440897015486" fill="none" stroke="black" stroke-weight="1"></path><path id="SvgjsPath1164" d="M 229.95643596025354 186.92543653669324 C 229.95643596025354 186.92543653669324 55.21492006917876 199.67524866074857 94.80527926583486 283.00204059741907" fill="none" stroke="black" stroke-weight="1"></path><path id="SvgjsPath1165" d="M 228.92236440526253 187.53021031243145 C 228.92236440526253 187.53021031243145 55.57618597402322 205.59576588543504 88.22692679396104 280.0772363893135" fill="none" stroke="black" stroke-weight="1"></path><path id="SvgjsPath1166" d="M 227.86637047873944 188.1115289283855 C 227.86637047873944 188.1115289283855 56.08790043007295 211.37732264912302 81.80297483430776 276.8273068331498" fill="none" stroke="black" stroke-weight="1"></path><path id="SvgjsPath1167" d="M 226.78874750554047 188.6690290793431 C 226.78874750554047 188.6690290793431 56.74745912075858 217.00546807087986 75.54947992124458 273.26037506028786" fill="none" stroke="black" stroke-weight="1"></path><path id="SvgjsPath1168" d="M 225.6897948184513 189.20236234585732 C 225.6897948184513 189.20236234585732 57.55194249753275 222.4661347182328 69.4820725352969 269.3853565425375" fill="none" stroke="black" stroke-weight="1"></path><path id="SvgjsPath1169" d="M 224.569817675041 189.7111954119974 C 224.569817675041 189.7111954119974 58.49812387155177 227.7456737684235 63.61591803508499 265.21193680812263" fill="none" stroke="black" stroke-weight="1"></path><path id="SvgjsPath1170" d="M 223.4291271728702 190.19521027366017 C 223.4291271728702 190.19521027366017 59.58247823861474 232.83088912335734 57.965678751825195 260.75054723290424" fill="none" stroke="black" stroke-weight="1"></path><path id="SvgjsPath1171" d="M 222.26804016307707 190.6541044373125 C 222.26804016307707 190.6541044373125 60.80119181482779 237.7090703929759 52.545477341137854 256.01233896737364" fill="none" stroke="black" stroke-weight="1"></path><path id="SvgjsPath1172" d="M 221.08687916236528 191.08759110903972 C 221.08687916236528 191.08759110903972 62.150172258705894 242.3680246646129 47.368861483763425 251.00915506458344" fill="none" stroke="black" stroke-weight="1"></path><path id="SvgjsPath1173" d="M 219.88597226341795 191.49539937378262 C 219.88597226341795 191.49539937378262 63.625059553731305 246.7961069789257 42.448770023415875 245.75350087868281" fill="none" stroke="black" stroke-weight="1"></path><path id="SvgjsPath1174" d="M 218.66565304376292 191.87727436465045 C 218.66565304376292 191.87727436465045 65.22123752375968 250.9822494362292 37.79750062641199 240.25851280804477" fill="none" stroke="black" stroke-weight="1"></path><path id="SvgjsPath1175" d="M 217.42626047311467 192.2329774222045 C 217.42626047311467 192.2329774222045 66.93384595210476 254.91598886048098 33.426679043909985 234.5379254611114" fill="none" stroke="black" stroke-weight="1"></path><path id="SvgjsPath1176" d="M 216.16813881921792 192.56228624361245 C 216.16813881921792 192.56228624361245 68.7577932736475 258.58749295177233 29.347230053586273 228.60603732702572" fill="none" stroke="black" stroke-weight="1"></path><path id="SvgjsPath1177" d="M 214.89163755222017 192.86499502158034 C 214.89163755222017 192.86499502158034 70.68776980790582 261.9875848619574 25.569350153380654 222.47767503685537" fill="none" stroke="black" stroke-weight="1"></path><path id="SvgjsPath1178" d="M 213.5971112475989 193.1409145729756 C 213.5971112475989 193.1409145729756 72.71826149967244 265.1077661319943 22.10248207556188 216.16815630473639" fill="none" stroke="black" stroke-weight="1"></path><path id="SvgjsPath1179" d="M 212.2849194876704 193.38987245706014 C 212.2849194876704 193.38987245706014 74.84356413258315 267.940237933667 18.955291184814456 209.6932516415652" fill="none" stroke="black" stroke-weight="1"></path><path id="SvgjsPath1180" d="M 210.95542676170845 193.6117130832603 C 210.95542676170845 193.6117130832603 77.05779797981941 270.4779205625941 16.13564381933992 203.0691449369346" fill="none" stroke="black" stroke-weight="1"></path><path id="SvgjsPath1181" d="M 209.6090023646994 193.806297808406 C 209.6090023646994 193.806297808406 79.35492285508045 272.71447113380276 13.650587629108031 196.3123930078381" fill="none" stroke="black" stroke-weight="1"></path><path id="SvgjsPath1182" d="M 208.24602029476273 193.97350502337798 C 208.24602029476273 193.97350502337798 81.7287535259837 274.6442994356381 11.506333960402117 189.43988421525" fill="none" stroke="black" stroke-weight="1"></path><path id="SvgjsPath1183" d="M 206.866859149265 194.11323022910972 C 206.866859149265 194.11323022910972 84.17297545117046 276.26258190238065 9.708242330688194 182.46879625201842" fill="none" stroke="black" stroke-weight="1"></path><path id="SvgjsPath1184" d="M 205.47190201965648 194.2253861018959 C 205.47190201965648 194.2253861018959 86.6811608016088 277.5652736706487 8.260807032612519 175.416553207579" fill="none" stroke="black" stroke-weight="1"></path><path id="SvgjsPath1185" d="M 204.06153638505913 194.30990254796686 C 204.06153638505913 194.30990254796686 89.24678472590034 278.54911868945044 7.167645900610609 168.30078201680567" fill="none" stroke="black" stroke-weight="1"></path><path id="SvgjsPath1186" d="M 202.63615400463618 194.36672674729493 C 202.63615400463618 194.36672674729493 91.86324181881113 279.2116578586154 6.431491268205093 161.13926840185337" fill="none" stroke="black" stroke-weight="1"></path><path id="SvgjsPath1187" d="M 201.19615080877256 194.39582318660524 C 201.19615080877256 194.39582318660524 94.52386275176457 279.5512351752644 6.054183138595107 153.94991241711526" fill="none" stroke="black" stroke-weight="1"></path><path id="SvgjsPath1188" d="M 199.7419267890968 194.39717368157037 C 199.7419267890968 194.39717368157037 97.22193102365294 279.5670018729543 6.036664585606388 146.75068370840899" fill="none" stroke="black" stroke-weight="1"></path><path id="SvgjsPath1189" d="M 198.27388588737483 194.37077738817487 C 198.27388588737483 194.37077738817487 99.95069979004921 279.2589185431519 6.378979396497897 139.55957659822047" fill="none" stroke="black" stroke-weight="1"></path><path id="SvgjsPath1190" d="M 196.79243588330658 194.31665080324296 C 196.79243588330658 194.31665080324296 102.70340872872865 278.6277552337351 7.080271962516548 132.39456510926902" fill="none" stroke="black" stroke-weight="1"></path><path id="SvgjsPath1191" d="M 195.29798828125638 194.23482775412825 C 195.29798828125638 194.23482775412825 105.47330089934391 277.675089524274 8.13878941747339 125.27355803881113" fill="none" stroke="black" stroke-weight="1"></path><path id="SvgjsPath1192" d="M 193.7909581959488 194.125359377573 C 193.7909581959488 194.125359377573 108.25363955513708 276.4033025829034 9.55188601899627 118.21435419597418" fill="none" stroke="black" stroke-weight="1"></path><path id="SvgjsPath1193" d="M 192.27176423716188 193.98831408774925 C 192.27176423716188 193.98831408774925 111.03772486471603 274.81557321464294 11.316029761507878 111.23459791400296" fill="none" stroke="black" stroke-weight="1"></path><path id="SvgjsPath1194" d="M 190.74082839344908 193.82377753350207 C 190.74082839344908 193.82377753350207 113.81891050217203 272.91586991603987 13.426811204400167 104.3517349486156" fill="none" stroke="black" stroke-weight="1"></path><path id="SvgjsPath1195" d="M 189.19857591492308 193.63185254482198 C 189.19857591492308 193.63185254482198 116.59062006417027 270.70894095599425 15.878954493339705 97.58296887269981" fill="none" stroke="black" stroke-weight="1"></path><path id="SvgjsPath1196" d="M 187.64543519513353 193.41265906857953 C 187.64543519513353 193.41265906857953 119.34636327310002 268.2003025075599 18.66633054715564 90.9452180763402" fill="none" stroke="black" stroke-weight="1"></path><path id="SvgjsPath1197" d="M 186.08183765207144 193.16633409356223 C 186.08183765207144 193.16633409356223 122.0797519259325 265.3962248603842 21.781972377350854 84.45507347965382" fill="none" stroke="black" stroke-weight="1"></path><path id="SvgjsPath1198" d="M 184.50821760833375 192.8930315648613 C 184.50821760833375 192.8930315648613 124.78451554909273 262.3037167482497 25.21809250194474 78.12875706413045" fill="none" stroke="black" stroke-weight="1"></path><path id="SvgjsPath1199" d="M 182.92501217048098 192.59292228766077 C 182.92501217048098 192.59292228766077 127.45451672041223 258.9305078308897 28.96610241012256 71.98208132612702" fill="none" stroke="black" stroke-weight="1"></path><path id="SvgjsPath1200" d="M 181.3326611076214 192.26619382048995 C 181.3326611076214 192.26619382048995 130.08376602008437 255.28502937386426 33.01663402903972 66.03040975386163" fill="none" stroke="black" stroke-weight="1"></path><path id="SvgjsPath1201" d="M 179.73160672925593 191.9130503580053 C 179.73160672925593 191.9130503580053 132.66643657349664 251.3763931747875 37.35956313912503 60.288618426694384" fill="none" stroke="black" stroke-weight="1"></path><path id="SvgjsPath1202" d="M 178.12229376241712 191.5337126033756 C 178.12229376241712 191.5337126033756 135.19687814985724 247.21436878857872 41.98403467935701 54.77105883267605" fill="none" stroke="black" stroke-weight="1"></path><path id="SvgjsPath1203" d="M 176.5051692281368 191.12841763034947 C 176.5051692281368 191.12841763034947 137.6696307816677 242.80935910866305 46.87848987926331 49.491521997302144" fill="none" stroke="black" stroke-weight="1"></path><path id="SvgjsPath1204" d="M 174.8806823172764 190.69741873509219 C 174.8806823172764 190.69741873509219 140.0794378713149 238.17237436515558 52.03069514982714 44.463204013131545" fill="none" stroke="black" stroke-weight="1"></path><path id="SvgjsPath1205" d="M 173.24928426575465 190.24098527788362 C 173.24928426575465 190.24098527788362 142.42125875235968 233.31500460502014 57.42777266108877 39.698673056427225" fill="none" stroke="black" stroke-weight="1"></path><path id="SvgjsPath1206" d="M 171.61142822920712 189.759402514777 C 171.61142822920712 189.759402514777 144.6902806744874 228.24939072298775 63.05623253001362 35.20983797326123" fill="none" stroke="black" stroke-weight="1"></path><path id="SvgjsPath1207" d="M 169.96756915711256 189.25297141932307 C 169.96756915711256 189.25297141932307 146.88193018254708 222.98819411564284 68.90200653817466 31.007918513601368" fill="none" stroke="black" stroke-weight="1"></path><path id="SvgjsPath1208" d="M 168.31816366642101 188.72200849447145 C 168.31816366642101 188.72200849447145 148.99188386164448 217.54456503452548 74.95048329497172 27.103417287779394" fill="none" stroke="black" stroke-weight="1"></path><path id="SvgjsPath1209" d="M 166.6636699147187 188.16684557476654 C 166.6636699147187 188.16684557476654 151.0160784218607 211.93210971735127 81.18654475849858 23.506093515434983" fill="none" stroke="black" stroke-weight="1"></path><path id="SvgjsPath1210" d="M 165.00454747296493 187.58782961896188 C 165.00454747296493 187.58782961896188 152.9507200978405 206.16485637950294 87.59460402277453 20.22493863254894" fill="none" stroke="black" stroke-weight="1"></path><path id="SvgjsPath1211" d="M 163.3412571978365 186.98532249318203 C 163.3412571978365 186.98532249318203 154.7922933402296 200.25722015079762 94.15864427689156 17.268153817536074" fill="none" stroke="black" stroke-weight="1"></path><path id="SvgjsPath1212" d="M 161.674261103715 186.3597007447682 C 161.674261103715 186.3597007447682 156.5375687777303 194.22396704516956 100.86225883870048 14.643129492570154" fill="none" stroke="black" stroke-weight="1"></path><path id="SvgjsPath1213" d="M 160.00402223435214 185.71135536694817 C 160.00402223435214 185.71135536694817 158.18361043039113 188.08017705332543 107.68869216297176 12.356426851377364" fill="none" stroke="black" stroke-weight="1"></path><path id="SvgjsPath1214" d="M 158.33100453424987 185.04069155447863 C 158.33100453424987 185.04069155447863 159.7277821566366 181.8412064506208 114.62088172153244 10.413761459668962" fill="none" stroke="black" stroke-weight="1"></path><path id="SvgjsPath1215" d="M 156.65567271978966 184.3481284504113 C 156.65567271978966 184.3481284504113 161.16775331848083 175.5226494143694 121.64150065070068 8.81998896920362" fill="none" stroke="black" stroke-weight="1"></path><path id="SvgjsPath1216" d="M 154.97849215014753 183.6340988841423 C 154.97849215014753 183.6340988841423 162.50150365134132 169.14029904652094 128.7330010594212 7.579092981186847" fill="none" stroke="black" stroke-weight="1"></path><path id="SvgjsPath1217" d="M 153.2999286980309 182.8990491009079 C 153.2999286980309 182.8990491009079 163.72732732687885 162.7101078991312 135.87765788985422 6.694175089342565" fill="none" stroke="black" stroke-weight="1"></path><path id="SvgjsPath1218" d="M 151.62044862027219 182.14343848289568 C 151.62044862027219 182.14343848289568 164.84383619932487 156.24814810128987 143.05761322078905 6.167447127544051" fill="none" stroke="black" stroke-weight="1"></path><path id="SvgjsPath1219" d="M 149.94051842831618 181.36773926214576 C 149.94051842831618 181.36773926214576 165.8499622278183 149.77057118716797 150.25492090314674 6.000225641381149" fill="none" stroke="black" stroke-weight="1"></path><path id="SvgjsPath1220" d="M 148.2606047586365 180.572436225421 C 148.2606047586365 180.572436225421 166.74495906935113 143.2935677255939 157.45159141600678 6.192928597482052" fill="none" stroke="black" stroke-weight="1"></path><path id="SvgjsPath1221" d="M 146.58117424311735 179.7580264112311 C 146.58117424311735 179.7580264112311 167.52840283901497 136.83332685206346 164.6296368310406 6.74507433881422" fill="none" stroke="black" stroke-weight="1"></path><path id="SvgjsPath1222" d="M 144.90269337943658 178.92501879919973 C 144.90269337943658 178.92501879919973 168.20019203633825 130.40599580433204 171.7711157729644 7.655282788576301" fill="none" stroke="black" stroke-weight="1"></path><path id="SvgjsPath1223" d="M 143.22562840148595 178.07393399196891 C 143.22562840148595 178.07393399196891 168.76054663860702 124.02763956272955 178.85817826363373 8.921278899671279" fill="none" stroke="black" stroke-weight="1"></path><path id="SvgjsPath1224" d="M 141.55044514986471 177.2053038898391 C 141.55044514986471 177.2053038898391 169.2100063641603 117.71420069607663 185.87311033769265 10.539898341139434" fill="none" stroke="black" stroke-weight="1"></path><path id="SvgjsPath1225" d="M 139.87760894248248 176.31967135834898 C 139.87760894248248 176.31967135834898 169.5494281107428 111.48145951356426 192.79837831826208 12.507095407337772" fill="none" stroke="black" stroke-weight="1"></path><path id="SvgjsPath1226" d="M 138.2075844453072 175.41758988900222 C 138.2075844453072 175.41758988900222 169.7799825760757 105.34499462219966 199.6166726420004 14.817953130097294" fill="none" stroke="black" stroke-weight="1"></path><path id="SvgjsPath1227" d="M 136.54083554329432 174.49962325335306 C 136.54083554329432 174.49962325335306 169.90315006986566 99.32014398840235 206.3109511239973 17.466695568582537" fill="none" stroke="black" stroke-weight="1"></path><path id="SvgjsPath1228" d="M 134.87782521153278 173.56634515066776 C 134.87782521153278 173.56634515066776 169.92071552850865 93.42196660107543 212.86448155436065 20.4467022461356" fill="none" stroke="black" stroke-weight="1"></path><path id="SvgjsPath1229" d="M 133.21901538664386 172.6183388493809 C 133.21901538664386 172.6183388493809 169.83476274575216 87.66520483197561 219.26088352002722 23.750524698020143" fill="none" stroke="black" stroke-weight="1"></path><path id="SvgjsPath1230" d="M 131.56486683846833 171.65619682257193 C 131.56486683846833 171.65619682257193 169.64766783455397 82.0642475874619 225.48416934726455 27.369905088703916" fill="none" stroke="black" stroke-weight="1"></path><path id="SvgjsPath1231" d="M 129.91583904207786 170.68052037768845 C 129.91583904207786 170.68052037768845 169.36209193731023 76.63309434372364 231.51878406252922 31.295796852147106" fill="none" stroke="black" stroke-weight="1"></path><path id="SvgjsPath1232" d="M 128.27239005014604 169.69191928074895 C 128.27239005014604 169.69191928074895 168.98097320351764 71.3853201553804 237.34964427179955 35.518387303505946" fill="none" stroke="black" stroke-weight="1"></path><path id="SvgjsPath1233" d="M 126.63497636571441 168.6910113752586 C 126.63497636571441 168.6910113752586 168.50751805577823 66.33404172491488 242.96217586120576 40.02712216573468" fill="none" stroke="black" stroke-weight="1"></path><path id="SvgjsPath1234" d="M 125.00405281538895 167.6784221960774 C 125.00405281538895 167.6784221960774 167.94519176684594 61.491884617748156 248.34235042472426 44.81073194978144" fill="none" stroke="black" stroke-weight="1"></path><path id="SvgjsPath1235" d="M 123.38007242300237 166.65478457848116 C 123.38007242300237 166.65478457848116 167.29770837214772 56.87095170490163 253.476720327887 49.85726012244196" fill="none" stroke="black" stroke-weight="1"></path><path id="SvgjsPath1236" d="M 121.76348628377713 165.62073826265998 C 121.76348628377713 165.62073826265998 166.5690199438842 52.48279291212222 258.3524523198642 55.15409299146562" fill="none" stroke="black" stroke-weight="1"></path><path id="SvgjsPath1237" d="M 120.15474343902389 164.57692949390162 C 120.15474343902389 164.57692949390162 165.76330525442 48.3383763510828 262.95735960990805 60.68799123321712" fill="none" stroke="black" stroke-weight="1"></path><path id="SvgjsPath1238" d="M 118.5542907514109 163.52401061870913 C 118.5542907514109 163.52401061870913 164.8849578582117 44.44806090481542 267.2799323279829 66.44512298409056" fill="none" stroke="black" stroke-weight="1"></path><path id="SvgjsPath1239" d="M 116.96257278083831 162.46263967710547 C 116.96257278083831 162.46263967710547 163.9385736229828 40.821570335898755 271.30936629344575 72.41109841296499" fill="none" stroke="black" stroke-weight="1"></path><path id="SvgjsPath1240" d="M 115.38003166095211 161.39347999138008 C 115.38003166095211 161.39347999138008 162.9289377422405 37.46796898211548 275.03559001987173 78.57100568828818" fill="none" stroke="black" stroke-weight="1"></path><path id="SvgjsPath1241" d="M 113.80710697633211 160.31719975153385 C 113.80710697633211 160.31719975153385 161.86101126253405 34.395639100328054 278.44928988852445 84.90944824988955" fill="none" stroke="black" stroke-weight="1"></path><path id="SvgjsPath1242" d="M 112.24423564038793 159.23447159768224 C 112.24423564038793 159.23447159768224 160.73991716007498 31.6122599152024 281.5419334275529 91.41058329236213" fill="none" stroke="black" stroke-weight="1"></path><path id="SvgjsPath1243" d="M 110.691851773997 158.14597219967715 C 110.691851773997 158.14597219967715 159.57092600247162 29.124788425145567 284.3057906387271 98.05816136382543" fill="none" stroke="black" stroke-weight="1"></path><path id="SvgjsPath1244" d="M 109.15038658491817 157.05238183421005 C 109.15038658491817 157.05238183421005 158.35944123237536 26.939442013432668 286.7339533184081 104.83556698109254" fill="none" stroke="black" stroke-weight="1"></path><path id="SvgjsPath1245" d="M 107.62026824801458 155.95438395966156 C 107.62026824801458 155.95438395966156 157.11098411078507 25.06168290798651 288.82035232445946 111.7258601597249" fill="none" stroke="black" stroke-weight="1"></path><path id="SvgjsPath1246" d="M 106.101921786319 154.85266478896182 C 106.101921786319 154.85266478896182 155.831178358614 23.496204528652584 290.5597727459416 118.71181875517122" fill="none" stroke="black" stroke-weight="1"></path><path id="SvgjsPath1247" d="M 104.5957689529745 153.74791286073003 C 104.5957689529745 153.74791286073003 154.52573453587988 22.24691975609393 291.94786693767344 125.77598150915982" fill="none" stroke="black" stroke-weight="1"></path><path id="SvgjsPath1248" d="M 103.10222811408357 152.64081860896013 C 103.10222811408357 152.64081860896013 153.20043419854068 21.316951151627052 292.9811653870811 132.90069169375056" fill="none" stroke="black" stroke-weight="1"></path><path id="SvgjsPath1249" d="M 101.62171413249803 151.53207393152198 C 101.62171413249803 151.53207393152198 151.86111387355612 20.708623152444773 293.6570853861725 140.06814124395933" fill="none" stroke="black" stroke-weight="1"></path><path id="SvgjsPath1250" d="M 100.15463825258198 150.42237175774778 C 100.15463825258198 150.42237175774778 150.5136488932131 20.423456261733918 293.9739374869623 147.2604152686461" fill="none" stroke="black" stroke-weight="1"></path><path id="SvgjsPath1251" d="M 98.7014079859799 149.3124056153738 C 98.7014079859799 149.3124056153738 149.16393713010666 20.462163248209293 293.93092972421186 154.45953682841318" fill="none" stroke="black" stroke-weight="1"></path><metadata>84 * Math.cos(t/3);37 * Math.sin(t/2);45 * Math.sin(t/1)+45 * Math.cos(t/2);54 * Math.cos(t/1)+54 * Math.cos(t/1)</metadata></svg>