<svg id="SvgjsSvg1867" width="300" height="300" xmlns="http://www.w3.org/2000/svg" version="1.1" xmlns:xlink="http://www.w3.org/1999/xlink" xmlns:svgjs="http://svgjs.com/svgjs"><defs id="SvgjsDefs1868"></defs><path id="SvgjsPath1869" d="M 224.90899840812133 189.5606896739635 C 224.90899840812133 189.5606896739635 58.19872999758097 226.17696869710448 65.3589236698839 266.4984471899924" fill="none" stroke="black" stroke-weight="1"></path><path id="SvgjsPath1870" d="M 223.7745072454823 190.05220456601816 C 223.7745072454823 190.05220456601816 59.241897892052435 231.3220133730241 59.642207363306525 262.1225637854589" fill="none" stroke="black" stroke-weight="1"></path><path id="SvgjsPath1871" d="M 222.61952363853268 190.5186881339746 C 222.61952363853268 190.5186881339746 60.420602295240954 236.26379536719702 54.15133848089212 257.4664323637641" fill="none" stroke="black" stroke-weight="1"></path><path id="SvgjsPath1872" d="M 221.44436840862568 190.95984884078752 C 221.44436840862568 190.95984884078752 61.73083356534575 240.9899627982682 48.900041335257555 252.54169082859602" fill="none" stroke="black" stroke-weight="1"></path><path id="SvgjsPath1873" d="M 220.24936798021338 191.3754109753756 C 220.24936798021338 191.3754109753756 63.16831104324909 245.48870270900022 43.90144143444418 247.36064846903662" fill="none" stroke="black" stroke-weight="1"></path><path id="SvgjsPath1874" d="M 219.03485429017536 191.7651148249318 C 219.03485429017536 191.7651148249318 64.72849438050433 249.74877059251475 39.16803267498358 241.9362551927502" fill="none" stroke="black" stroke-weight="1"></path><path id="SvgjsPath1875" d="M 217.80116469561625 192.1287168372356 C 217.80116469561625 192.1287168372356 66.40659547993862 253.75951849770354 34.71164611366274 236.28206915795806" fill="none" stroke="black" stroke-weight="1"></path><path id="SvgjsPath1876" d="M 216.5486418801575 192.46598977286507 C 216.5486418801575 192.46598977286507 68.19759101865549 257.51092164356066 30.543420396043643 230.41222288510397" fill="none" stroke="black" stroke-weight="1"></path><path id="SvgjsPath1877" d="M 215.2776337587497 192.77672284721413 C 215.2776337587497 192.77672284721413 70.09623552178897 260.9936034759146 26.67377391565047 224.34138793291328" fill="none" stroke="black" stroke-weight="1"></path><path id="SvgjsPath1878" d="M 213.98849338103176 193.06072186222613 C 213.98849338103176 193.06072186222613 72.09707495400816 264.1988591039299 23.112378773411166 218.08473822713665" fill="none" stroke="black" stroke-weight="1"></path><path id="SvgjsPath1879" d="M 212.68157883326396 193.31780932776124 C 212.68157883326396 193.31780932776124 74.19446079450026 267.11867705780156 19.86813660244269 211.6579121336385" fill="none" stroke="black" stroke-weight="1"></path><path id="SvgjsPath1880" d="M 211.35725313886164 193.54782457252207 C 211.35725313886164 193.54782457252207 76.38256455997485 269.7457593132566 16.94915631860374 205.0769733706261" fill="none" stroke="black" stroke-weight="1"></path><path id="SvgjsPath1881" d="M 210.01588415755788 193.75062384446795 C 210.01588415755788 193.75062384446795 78.65539273913707 272.07353953281444 14.362733852428363 198.35837085772033" fill="none" stroke="black" stroke-weight="1"></path><path id="SvgjsPath1882" d="M 208.65784448322248 193.9260804006553 C 208.65784448322248 193.9260804006553 81.00680210107207 274.0961994782107 12.11533391309925 191.51889760222303" fill="none" stroke="black" stroke-weight="1"></path><path id="SvgjsPath1883" d="M 207.28351134036615 194.07408458644792 C 207.28351134036615 194.07408458644792 83.43051533907285 275.8086835529627 10.212573830041435 184.57564872534397" fill="none" stroke="black" stroke-weight="1"></path><path id="SvgjsPath1884" d="M 205.89326647935832 194.19454390404738 C 205.89326647935832 194.19454390404738 85.92013701063003 277.2067114387281 8.659209512524285 177.54597873330138" fill="none" stroke="black" stroke-weight="1"></path><path id="SvgjsPath1885" d="M 204.48749607038778 194.2873830703013 C 204.48749607038778 194.2873830703013 88.46916973358483 278.28678879387144 7.459123562365079 170.4474581400939" fill="none" stroke="black" stroke-weight="1"></path><path id="SvgjsPath1886" d="M 203.06659059619574 194.35254406375284 C 203.06659059619574 194.35254406375284 91.071030597832 279.0462159874981 6.615315569446551 163.29782955036657" fill="none" stroke="black" stroke-weight="1"></path><path id="SvgjsPath1887" d="M 201.63094474361083 194.38998616090217 C 201.63094474361083 194.38998616090217 93.71906775144521 279.48309484712615 6.129894614304277 156.11496331213903" fill="none" stroke="black" stroke-weight="1"></path><path id="SvgjsPath1888" d="M 200.18095729391652 194.39968596165738 C 200.18095729391652 194.39968596165738 96.40657711968385 279.5963334031286 6.0040739965238 148.91681285024254" fill="none" stroke="black" stroke-weight="1"></path><path id="SvgjsPath1889" d="M 198.71703101208098 194.38163740395868 C 198.71703101208098 194.38163740395868 99.12681921503696 279.38564861808896 6.238168202123376 141.72136979210745" fill="none" stroke="black" stroke-weight="1"></path><path id="SvgjsPath1890" d="M 197.23957253488058 194.3358517675672 C 197.23957253488058 194.3358517675672 101.8730359962521 278.8515670942473 6.831592117503021 134.5466189980648" fill="none" stroke="black" stroke-weight="1"></path><path id="SvgjsPath1891" d="M 195.74899225794783 194.26235766701527 C 195.74899225794783 194.26235766701527 104.63846773420323 277.99542375726895 7.782862491923396 127.41049360856172" fill="none" stroke="black" stroke-weight="1"></path><path id="SvgjsPath1892" d="M 194.2457042217753 194.16120103372336 C 194.2457042217753 194.16120103372336 107.41636984245764 276.81935851962555 9.08960164486055 120.33083022064979" fill="none" stroke="black" stroke-weight="1"></path><path id="SvgjsPath1893" d="M 192.7301259967069 194.03244508729455 C 192.7301259967069 194.03244508729455 110.20002963051431 275.3263109319282 10.748543408968686 113.32532430578131" fill="none" stroke="black" stroke-weight="1"></path><path id="SvgjsPath1894" d="M 191.20267856694886 193.87617029600412 C 191.20267856694886 193.87617029600412 112.98278293790557 273.52001283558207 12.755541293797705 106.41148598034644" fill="none" stroke="black" stroke-weight="1"></path><path id="SvgjsPath1895" d="M 189.6637862136325 193.69247432650968 C 189.6637862136325 193.69247432650968 115.75803060767515 271.4049790351261 15.105578849859882 99.60659623950144" fill="none" stroke="black" stroke-weight="1"></path><path id="SvgjsPath1896" d="M 188.1138763969609 193.48147198281265 C 188.1138763969609 193.48147198281265 118.51925475817205 268.9864960135732 17.792782207140903 92.92766376368039" fill="none" stroke="black" stroke-weight="1"></path><path id="SvgjsPath1897" d="M 186.55337963747274 193.24329513450934 C 186.55337963747274 193.24329513450934 121.26003481262894 266.2706087189556 20.810434756716035 86.391382405752" fill="none" stroke="black" stroke-weight="1"></path><path id="SvgjsPath1898" d="M 184.9827293964562 192.978092634377 C 184.9827293964562 192.978092634377 123.97406324662245 263.264105455103 24.150993938774462 80.01408946508151" fill="none" stroke="black" stroke-weight="1"></path><path id="SvgjsPath1899" d="M 183.40236195554556 192.68603022534543 C 183.40236195554556 192.68603022534543 126.65516101424281 259.9745009144185 27.806110095090574 73.8117248527907" fill="none" stroke="black" stroke-weight="1"></path><path id="SvgjsPath1900" d="M 181.812716295535 192.36729043691335 C 181.812716295535 192.36729043691335 129.2972926146283 256.4100173950609 31.766647338821258 67.79979125028129" fill="none" stroke="black" stroke-weight="1"></path><path id="SvgjsPath1901" d="M 180.21423397444198 192.022072471073 C 180.21423397444198 192.022072471073 131.8945807614411 252.57956424948142 36.022706389465114 61.993315360605024" fill="none" stroke="black" stroke-weight="1"></path><path id="SvgjsPath1902" d="M 178.60735900485525 191.65059207781576 C 178.60735900485525 191.65059207781576 134.44132061887936 248.49271561568258 40.56364931590831 56.40681034953184" fill="none" stroke="black" stroke-weight="1"></path><path id="SvgjsPath1903" d="M 176.99253773060082 191.25308142029516 C 176.99253773060082 191.25308142029516 136.93199356892643 244.1596864868592 45.37812612571206 51.0542395701939" fill="none" stroke="black" stroke-weight="1"></path><path id="SvgjsPath1904" d="M 175.37021870276055 190.82978892973264 C 175.37021870276055 190.82978892973264 139.36128047573334 239.59130717923546 50.45410313418283 45.94898166197463" fill="none" stroke="black" stroke-weight="1"></path><path id="SvgjsPath1905" d="M 173.74085255507734 190.38097915015607 C 173.74085255507734 190.38097915015607 141.72407441431216 234.79899626191445 55.77889304231728 41.10379711087759" fill="none" stroke="black" stroke-weight="1"></path><path id="SvgjsPath1906" d="M 172.10489187878204 189.90693257306822 C 172.10489187878204 189.90693257306822 144.01549283207834 229.79473201640218 61.33918664844205 36.53079635495716" fill="none" stroke="black" stroke-weight="1"></path><path id="SvgjsPath1907" d="M 170.4627910968767 189.40794546214897 C 170.4627910968767 189.40794546214897 146.23088911322122 224.59102249714203 67.12108611428664 32.24140951453049" fill="none" stroke="black" stroke-weight="1"></path><path id="SvgjsPath1908" d="M 168.81500633790873 188.88432966809987 C 168.81500633790873 188.88432966809987 148.3658635173987 219.20087426789263 73.11013970234156 28.24635782282911" fill="none" stroke="black" stroke-weight="1"></path><path id="SvgjsPath1909" d="M 167.16199530927148 188.3364124337478 C 167.16199530927148 188.3364124337478 150.41627346583562 213.6377598920921 79.29137789767546 24.55562682849954" fill="none" stroke="black" stroke-weight="1"></path><path id="SvgjsPath1910" d="M 165.50421717006628 187.76453618952868 C 165.50421717006628 187.76453618952868 152.3782431495615 207.91558425846603 85.64935082392664 21.178441436932133" fill="none" stroke="black" stroke-weight="1"></path><path id="SvgjsPath1911" d="M 163.84213240356127 187.16905833947988 C 163.84213240356127 187.16905833947988 154.2481724362374 202.04864982604704 92.16816685994775 18.12324285280158" fill="none" stroke="black" stroke-weight="1"></path><path id="SvgjsPath1912" d="M 162.17620268928212 186.55035103787395 C 162.17620268928212 186.55035103787395 156.0227450537982 196.05162087547575 98.83153236058251 15.397667481451549" fill="none" stroke="black" stroke-weight="1"></path><path id="SvgjsPath1913" d="M 160.50689077477094 185.90880095663462 C 160.50689077477094 185.90880095663462 157.69893603096375 189.93948685593628 105.62279238229303 13.008527841858239" fill="none" stroke="black" stroke-weight="1"></path><path id="SvgjsPath1914" d="M 158.8346603470481 185.24480904367937 C 158.8346603470481 185.24480904367937 159.27401837655293 183.72752491933966 112.52497231184485 10.96179553888075" fill="none" stroke="black" stroke-weight="1"></path><path id="SvgjsPath1915" d="M 157.15997590381332 184.55879027233982 C 157.15997590381332 184.55879027233982 160.74556898145548 177.43126173540008 119.5208202939999 9.262586337358925" fill="none" stroke="black" stroke-weight="1"></path><path id="SvgjsPath1916" d="M 155.48330262442158 183.8511733820173 C 155.48330262442158 183.8511733820173 162.11147372908175 171.066434683047 126.59285035217002 7.915147375365535" fill="none" stroke="black" stroke-weight="1"></path><path id="SvgjsPath1917" d="M 153.80510624066946 183.12240061023425 C 153.80510624066946 183.12240061023425 163.36993180210834 164.64895251517336 133.72338609425185 6.922846548572949" fill="none" stroke="black" stroke-weight="1"></path><path id="SvgjsPath1918" d="M 152.12585290742837 182.3729274162505 C 152.12585290742837 182.3729274162505 164.51945917536517 158.1948555950388 140.89460489440137 6.288164092267834" fill="none" stroke="black" stroke-weight="1"></path><path id="SvgjsPath1919" d="M 150.44600907315996 181.60322219641586 C 150.44600907315996 181.60322219641586 165.55889128676424 151.7202758037149 148.08858244031677 6.01268638205471" fill="none" stroke="black" stroke-weight="1"></path><path id="SvgjsPath1920" d="M 148.76604135035018 180.81376599143775 C 148.76604135035018 180.81376599143775 166.48738488024298 145.24139621878408 155.28733753468438 6.097101968743118" fill="none" stroke="black" stroke-weight="1"></path><path id="SvgjsPath1921" d="M 147.08641638589762 180.00505218574637 C 147.08641638589762 180.00505218574637 167.30441901678302 138.77441066507333 162.47287703880744 6.541199857329104" fill="none" stroke="black" stroke-weight="1"></path><path id="SvgjsPath1922" d="M 145.4076007314925 179.1775861991455 C 145.4076007314925 179.1775861991455 168.0097952516629 132.335483238526 169.62724084608226 7.343870034372941" fill="none" stroke="black" stroke-weight="1"></path><path id="SvgjsPath1923" d="M 143.73006071402176 178.33188517094163 C 143.73006071402176 178.33188517094163 168.60363697820458 125.94070790437996 176.7325467729113 8.503106242454521" fill="none" stroke="black" stroke-weight="1"></path><path id="SvgjsPath1924" d="M 142.05426230603712 177.4684776367486 C 142.05426230603712 177.4684776367486 169.0863879403743 119.60606827063565 183.7710352548493 10.016010994772245" fill="none" stroke="black" stroke-weight="1"></path><path id="SvgjsPath1925" d="M 140.380670996321 176.5879031981701 C 140.380670996321 176.5879031981701 169.45880991869197 113.3473976373611 190.72511373626534 11.878802817350845" fill="none" stroke="black" stroke-weight="1"></path><path id="SvgjsPath1926" d="M 138.70975166058707 175.69071218556638 C 138.70975166058707 175.69071218556638 169.7219795959867 107.18033942168705 197.57740064256998 14.086825700757089" fill="none" stroke="black" stroke-weight="1"></path><path id="SvgjsPath1927" d="M 137.04196843235135 174.77746531411546 C 137.04196843235135 174.77746531411546 169.877284611601 101.12030805741063 204.31076882509944 16.634560737698592" fill="none" stroke="black" stroke-weight="1"></path><path id="SvgjsPath1928" d="M 135.37778457400896 173.84873333338453 C 135.37778457400896 173.84873333338453 169.9264188146899 95.182450466939 210.90838837006777 19.51563991741773" fill="none" stroke="black" stroke-weight="1"></path><path id="SvgjsPath1929" d="M 133.71766234815323 172.90509667063 C 133.71766234815323 172.90509667063 169.8713767292789 89.38160820187213 217.35376866458643 22.72286204240224" fill="none" stroke="black" stroke-weight="1"></path><path id="SvgjsPath1930" d="M 132.0620628891723 171.94714506804942 C 132.0620628891723 171.94714506804942 169.71444724572777 83.73228034685259 223.63079961460824 26.248210727628646" fill="none" stroke="black" stroke-weight="1"></path><path id="SvgjsPath1931" d="M 130.41144607515935 170.97547721421174 C 130.41144607515935 170.97547721421174 169.45820655519572 78.24858727940466 229.7237919117727 30.08287443735003" fill="none" stroke="black" stroke-weight="1"></path><path id="SvgjsPath1932" d="M 128.76627040017144 169.99070036989642 C 128.76627040017144 169.99070036989642 169.10551034560763 72.94423537634465 235.61751624850595 34.21726850934628" fill="none" stroke="black" stroke-weight="1"></path><path id="SvgjsPath1933" d="M 127.12699284687326 168.9934299885753 C 127.12699284687326 168.9934299885753 168.65948527948174 67.83248275497733 241.29724138335843 38.641059111588234" fill="none" stroke="black" stroke-weight="1"></path><path id="SvgjsPath1934" d="M 125.49406875960014 167.98428933177416 C 125.49406875960014 167.98428933177416 168.1235197757835 62.92610613470697 246.74877096143672 43.34318907143593" fill="none" stroke="black" stroke-weight="1"></path><path id="SvgjsPath1935" d="M 123.86795171787666 166.96390907955455 C 123.86795171787666 166.96390907955455 167.50125411972388 58.23736890189255 251.95847899789726 48.31190551281168" fill="none" stroke="black" stroke-weight="1"></path><path id="SvgjsPath1936" d="M 122.24909341042519 165.93292693635928 C 122.24909341042519 165.93292693635928 166.7965699261106 53.77799045776875 256.91334393581246 53.53478923226953" fill="none" stroke="black" stroke-weight="1"></path><path id="SvgjsPath1937" d="M 120.63794350969965 164.89198723246795 C 120.63794350969965 164.89198723246795 166.01357898348655 49.5591169260467 261.60098119328137 58.99878574053609" fill="none" stroke="black" stroke-weight="1"></path><path id="SvgjsPath1938" d="M 119.0349495469795 163.84174052131146 C 119.0349495469795 163.84174052131146 165.15661150784825 45.59129329340898 266.0096741184345 64.69023789193507" fill="none" stroke="black" stroke-weight="1"></path><path id="SvgjsPath1939" d="M 117.44055678805827 162.78284317289726 C 117.44055678805827 162.78284317289726 164.2302038362215 41.884437052534366 270.1284032749619 70.59492002013899" fill="none" stroke="black" stroke-weight="1"></path><path id="SvgjsPath1940" d="M 115.85520810956152 161.71595696359947 C 115.85520810956152 161.71595696359947 163.23908559178165 38.44781341353158 273.9468739849649 76.6980734949263" fill="none" stroke="black" stroke-weight="1"></path><path id="SvgjsPath1941" d="M 114.27934387592839 160.6417486625703 C 114.27934387592839 160.6417486625703 162.18816635353312 35.290012145739254 277.45554206028964 82.98444361107094" fill="none" stroke="black" stroke-weight="1"></path><path id="SvgjsPath1942" d="M 112.713401817091 159.56088961503093 C 112.713401817091 159.56088961503093 161.08252186481087 32.41892610777586 280.6456376580268 89.43831771716081" fill="none" stroke="black" stroke-weight="1"></path><path id="SvgjsPath1943" d="M 111.15781690688561 158.47405532270253 C 111.15781690688561 158.47405532270253 159.9273798160246 29.84173151950347 283.50918720055176 96.04356448904335" fill="none" stroke="black" stroke-weight="1"></path><path id="SvgjsPath1944" d="M 109.61302124222934 157.38192502163986 C 109.61302124222934 157.38192502163986 158.7281052381388 27.564870025215683 286.0390333053159 102.78367424973487" fill="none" stroke="black" stroke-weight="1"></path><path id="SvgjsPath1945" d="M 108.07944392309605 156.2851812577307 C 108.07944392309605 156.2851812577307 157.49018554435906 25.594032592881817 288.2288526745757 109.64180023501495" fill="none" stroke="black" stroke-weight="1"></path><path id="SvgjsPath1946" d="M 106.55751093332455 155.18450946012692 C 106.55751093332455 155.18450946012692 156.21921525838098 23.93414528969045 290.07317190034394 116.60080070156339" fill="none" stroke="black" stroke-weight="1"></path><path id="SvgjsPath1947" d="M 105.04764502229276 154.08059751287362 C 105.04764502229276 154.08059751287362 154.92088046834488 22.58935696944684 291.5673811450591 123.64328177239115" fill="none" stroke="black" stroke-weight="1"></path><path id="SvgjsPath1948" d="M 103.55026558748975 152.974135325004 C 103.55026558748975 152.974135325004 153.60094304633074 21.563028902599427 292.70774566377844 130.75164091247441" fill="none" stroke="black" stroke-weight="1"></path><path id="SvgjsPath1949" d="M 102.06578855801925 151.8658143993685 C 102.06578855801925 151.8658143993685 152.26522467381645 20.85772637481398 293.4914151390956 137.90811092592486" fill="none" stroke="black" stroke-weight="1"></path><path id="SvgjsPath1950" d="M 100.59462627906655 150.7563274004683 C 100.59462627906655 150.7563274004683 150.9195907140094 20.4752122750956 293.91643080544935 145.09480436472643" fill="none" stroke="black" stroke-weight="1"></path><path id="SvgjsPath1951" d="M 99.13718739736069 149.6463677215623 C 99.13718739736069 149.6463677215623 149.56993397234857 20.416442689483972 293.9817303450178 152.2937582380397" fill="none" stroke="black" stroke-weight="1"></path><path id="SvgjsPath1952" d="M 97.69387674766418 148.53662905131912 C 97.69387674766418 148.53662905131912 148.2221583867539 20.681564511336575 293.68715054295933 159.48697891032398" fill="none" stroke="black" stroke-weight="1"></path><path id="SvgjsPath1953" d="M 96.26509524032144 147.4278049402841 C 96.26509524032144 147.4278049402841 146.88216268937686 21.269915074171564 293.03342769536494 166.6564870760556" fill="none" stroke="black" stroke-weight="1"></path><path id="SvgjsPath1954" d="M 94.8512397498975 146.3205883674328 C 94.8512397498975 146.3205883674328 145.55582408167734 22.18002380798886 292.02219576890127 173.7843626986279" fill="none" stroke="black" stroke-weight="1"></path><path id="SvgjsPath1955" d="M 93.45270300493753 145.21567130708186 C 93.45270300493753 145.21567130708186 144.24898196461928 23.409615914929404 290.65598231674505 180.85278980111025" fill="none" stroke="black" stroke-weight="1"></path><path id="SvgjsPath1956" d="M 92.06987347887811 144.11374429642734 C 92.06987347887811 144.11374429642734 142.9674217656382 24.95561805508507 288.9382021610166 187.84410099691212" fill="none" stroke="black" stroke-weight="1"></path><path id="SvgjsPath1957" d="M 90.70313528214044 143.0154960039817 C 90.70313528214044 143.0154960039817 141.7168589037912 26.814166028247826 286.8731488575025 194.74082164904854" fill="none" stroke="black" stroke-weight="1"></path><path id="SvgjsPath1958" d="M 89.35286805543555 141.92161279917815 C 89.35286805543555 141.92161279917815 140.50292293415117 28.980614432397715 284.46598396400253 201.52571354763182" fill="none" stroke="black" stroke-weight="1"></path><path id="SvgjsPath1959" d="M 88.01944686431088 140.83277832341224 C 88.01944686431088 140.83277832341224 139.3311419120578 31.44954827478894 281.72272413912333 208.18181799641889" fill="none" stroke="black" stroke-weight="1"></path><path id="SvgjsPath1960" d="M 86.70324209496785 139.74967306278825 C 86.70324209496785 139.74967306278825 138.20692701728484 34.21479650661155 278.6502261037649 214.69249820071997" fill="none" stroke="black" stroke-weight="1"></path><path id="SvgjsPath1961" d="M 85.40461935137924 138.67297392283746 C 85.40461935137924 138.67297392283746 137.1355574775286 37.26944744739933 275.2561695028897 221.0414808507211" fill="none" stroke="black" stroke-weight="1"></path><path id="SvgjsPath1962" d="M 84.1239393537348 137.60335380547428 C 84.1239393537348 137.60335380547428 136.12216582987094 40.60586606063164 271.54903771040927 227.21289679628336" fill="none" stroke="black" stroke-weight="1"></path><path id="SvgjsPath1963" d="M 82.86155783824357 136.54148118845447 C 82.86155783824357 136.54148118845447 135.17172355801986 44.21571303734872 267.538096625168 233.19132071155423" fill="none" stroke="black" stroke-weight="1"></path><path id="SvgjsPath1964" d="M 81.61782545832055 135.48801970759814 C 81.61782545832055 135.48801970759814 134.2890271421861 48.08996564008093 263.2333715110212 238.96180965024854" fill="none" stroke="black" stroke-weight="1"></path><path id="SvgjsPath1965" d="M 80.3930876871852 134.4436277420392 C 80.3930876871852 134.4436277420392 133.47868455741593 52.21894025499299 258.64562193889674 244.50994039523206" fill="none" stroke="black" stroke-weight="1"></path><path id="SvgjsPath1966" d="M 79.1876847218989 133.40895800275973 C 79.1876847218989 133.40895800275973 132.745102255073 56.59231659587593 253.78631489347117 249.821845509053" fill="none" stroke="black" stroke-weight="1"></path><path id="SvgjsPath1967" d="M 78.00195138886798 132.38465712466683 C 78.00195138886798 132.38465712466683 132.09247266094647 61.19916349948804 248.66759611167987 254.88424799531347" fill="none" stroke="black" stroke-weight="1"></path><path id="SvgjsPath1968" d="M 76.83621705083847 131.3713652624668 C 76.83621705083847 131.3713652624668 131.5247622221643 66.02796624776992 243.30225972470006 259.6844944842461" fill="none" stroke="black" stroke-weight="1"></path><path id="SvgjsPath1969" d="M 75.6908055154086 130.36971569058954 C 75.6908055154086 130.36971569058954 131.04570003370904 71.06665534864263 237.70371627928608 264.2105868595486" fill="none" stroke="black" stroke-weight="1"></path><path id="SvgjsPath1970" d="M 74.56603494508438 129.3803344074123 C 74.56603494508438 129.3803344074123 130.65876707387596 76.3026367034523 231.88595921838635 268.45121224742604" fill="none" stroke="black" stroke-weight="1"></path><path id="SvgjsPath1971" d="M 73.46221776890306 128.40383974403133 C 73.46221776890306 128.40383974403133 130.36718607648186 81.72282308565848 225.8635299048238 272.39577129288375" fill="none" stroke="black" stroke-weight="1"></path><path id="SvgjsPath1972" d="M 72.3796605956494 127.44084197782499 C 72.3796605956494 127.44084197782499 130.1739120660304 87.31366685208434 219.65148127546183 276.03440465259473" fill="none" stroke="black" stroke-weight="1"></path><path id="SvgjsPath1973" d="M 71.3186641286885 126.49194295105019 C 71.3186641286885 126.49194295105019 130.08162358037242 93.06119380496878 213.26534021670145 279.35801763812333" fill="none" stroke="black" stroke-weight="1"></path><path id="SvgjsPath1974" d="M 70.27952308243896 125.55773569471071 C 70.27952308243896 125.55773569471071 130.09271460366944 98.95103812018357 206.72106875535158 282.3583029479098" fill="none" stroke="black" stroke-weight="1"></path><path id="SvgjsPath1975" d="M 69.26252610050977 124.63880405793199 C 69.26252610050977 124.63880405793199 130.20928723068064 104.96847825431249 200.03502416187487 285.02776143119826" fill="none" stroke="black" stroke-weight="1"></path><path id="SvgjsPath1976" d="M 68.2679556755233 123.73572234307451 C 68.2679556755233 123.73572234307451 130.4331450815552 111.09847374084265 193.22391806573035 287.3597208320075" fill="none" stroke="black" stroke-weight="1"></path><path id="SvgjsPath1977" d="M 67.29608807064697 122.84905494681345 C 67.29608807064697 122.84905494681345 130.7657874844198 117.32570278349749 186.30477468500288 289.34835246629643" fill="none" stroke="black" stroke-weight="1"></path><path id="SvgjsPath1978" d="M 66.34719324285525 121.97935600740922 C 66.34719324285525 121.97935600740922 131.20840444112093 123.63460055274834 179.29488827472406 290.98868579063867" fill="none" stroke="black" stroke-weight="1"></path><path id="SvgjsPath1979" d="M 65.42153476794343 121.12716905838903 C 65.42153476794343 121.12716905838903 131.7618723895094 130.00939808978268 172.2117799002413 292.2766208259925" fill="none" stroke="black" stroke-weight="1"></path><path id="SvgjsPath1980" d="M 64.51936976731363 120.29302668885612 C 64.51936976731363 120.29302668885612 132.42675077364814 136.4341617206886 165.07315364367932 293.2089384055131" fill="none" stroke="black" stroke-weight="1"></path><path id="SvgjsPath1981" d="M 63.640948836554045 119.47745021063895 C 63.640948836554045 119.47745021063895 133.2032794312903 142.89283288234077 157.8968523529548 293.7833082207933" fill="none" stroke="black" stroke-weight="1"></path><path id="SvgjsPath1982" d="M 62.78651597583051 118.68094933248824 C 62.78651597583051 118.68094933248824 134.0913768059173 149.3692682604458 150.7008130439491 293.99829464642085" fill="none" stroke="black" stroke-weight="1"></path><path id="SvgjsPath1983" d="M 61.956308522110376 117.90402184152563 C 61.956308522110376 117.90402184152563 135.09063898854754 155.84728013942097 143.50302206730987 293.8533603282945" fill="none" stroke="black" stroke-weight="1"></path><path id="SvgjsPath1984" d="M 61.150557083237004 117.14715329214287 C 61.150557083237004 117.14715329214287 136.2003395924379 162.31067686325244 136.3214701519417 293.34886752672924" fill="none" stroke="black" stroke-weight="1"></path><path id="SvgjsPath1985" d="M 60.36948547387355 116.4108167025462 C 60.36948547387355 116.4108167025462 137.41943046169936 168.74330330620236 129.17410743755306 292.48607721099427" fill="none" stroke="black" stroke-weight="1"></path><path id="SvgjsPath1986" d="M 59.6133106533337 115.69547225913533 C 59.6133106533337 115.69547225913533 138.7465432127488 175.1290812522102 122.07879860865532 291.26714590754625" fill="none" stroke="black" stroke-weight="1"></path><path id="SvgjsPath1987" d="M 58.8822426653165 115.00156702890192 C 58.8822426653165 115.00156702890192 140.17999160541694 181.45204958206006 115.05327824215547 289.69512030983685" fill="none" stroke="black" stroke-weight="1"></path><path id="SvgjsPath1988" d="M 58.1764845795623 114.32953468002725 C 58.1764845795623 114.32953468002725 141.71777473844213 187.69640416786575 108.11510648014914 287.77392966316506" fill="none" stroke="black" stroke-weight="1"></path><path id="SvgjsPath1989" d="M 57.49623243544583 113.6797952108538 C 57.49623243544583 113.6797952108538 143.3575810619994 193.84653737515958 101.28162513871158 285.5083759436109" fill="none" stroke="black" stroke-weight="1"></path><metadata>84 * Math.cos(t/3);37 * Math.sin(t/2);45 * Math.sin(t/1)+45 * Math.cos(t/2);54 * Math.cos(t/1)+54 * Math.cos(t/1)</metadata></svg>