<svg id="SvgjsSvg3343" width="300" height="300" xmlns="http://www.w3.org/2000/svg" version="1.1" xmlns:xlink="http://www.w3.org/1999/xlink" xmlns:svgjs="http://svgjs.com/svgjs"><defs id="SvgjsDefs3344"></defs><path id="SvgjsPath3345" d="M 109.00094637795935 156.94569024778627 C 109.00094637795935 156.94569024778627 158.2394565840747 26.743075488148122 286.9521383465021 105.50155281000755" fill="none" stroke="black" stroke-weight="1"></path><path id="SvgjsPath3346" d="M 107.47195524285999 155.84729997246484 C 107.47195524285999 155.84729997246484 156.98769955757342 24.895518666353382 289.00497925960735 112.40191838622454" fill="none" stroke="black" stroke-weight="1"></path><path id="SvgjsPath3347" d="M 105.954777180072 154.74525532499848 C 105.954777180072 154.74525532499848 155.7051461789854 23.36065789473834 290.71038011695737 119.39625958577359" fill="none" stroke="black" stroke-weight="1"></path><path id="SvgjsPath3348" d="M 104.44983361819065 153.64024504741872 C 104.44983361819065 153.64024504741872 154.3975146179892 22.14232952589201 292.0640783045644 126.46709419823841" fill="none" stroke="black" stroke-weight="1"></path><path id="SvgjsPath3349" d="M 102.95754258741752 152.53295973517942 C 102.95754258741752 152.53295973517942 153.0705924877369 21.2435787462434 293.06269028195175 133.59674881950713" fill="none" stroke="black" stroke-weight="1"></path><path id="SvgjsPath3350" d="M 101.47831860344354 151.42409140555702 C 101.47831860344354 151.42409140555702 151.73022080440782 20.66665196468128 293.7037200392431 140.76740302607897" fill="none" stroke="black" stroke-weight="1"></path><path id="SvgjsPath3351" d="M 100.0125725523084 150.31433306516232 C 100.0125725523084 150.31433306516232 150.3822778100409 20.412991197701842 293.98556533588686 147.96113391684207" fill="none" stroke="black" stroke-weight="1"></path><path id="SvgjsPath3352" d="M 98.56071157626829 149.2043782768339 C 98.56071157626829 149.2043782768339 149.03266270006648 20.483230465118567 293.90752170542385 155.15996091099214" fill="none" stroke="black" stroke-weight="1"></path><path id="SvgjsPath3353" d="M 97.12313896070327 148.0949207261838 C 97.12313896070327 148.0949207261838 147.68727929719748 20.877194205342818 293.46978421628575 162.3458906901205" fill="none" stroke="black" stroke-weight="1"></path><path id="SvgjsPath3354" d="M 95.7002540220964 146.98665378806686 C 95.7002540220964 146.98665378806686 146.3520197134746 21.59389771419643 292.6734469842262 169.50096217213908" fill="none" stroke="black" stroke-weight="1"></path><path id="SvgjsPath3355" d="M 94.2924519971148 145.88027009324372 C 94.2924519971148 145.88027009324372 145.03274804229085 22.63154960615921 291.52050043760084 176.60729140463206" fill="none" stroke="black" stroke-weight="1"></path><path id="SvgjsPath3356" d="M 92.90012393282439 144.77646109550935 C 92.90012393282439 144.77646109550935 143.73528412214426 23.987556291899864 290.01382634233346 183.64711626542294" fill="none" stroke="black" stroke-weight="1"></path><path id="SvgjsPath3357" d="M 91.52365657806814 143.6759166395567 C 91.52365657806814 143.6759166395567 142.46538741368812 25.658528460898765 288.15719059900135 190.6028408586297" fill="none" stroke="black" stroke-weight="1"></path><path id="SvgjsPath3358" d="M 90.16343227603836 142.57932452984653 C 90.16343227603836 142.57932452984653 141.22874103136326 27.640289552958876 285.9552338300457 197.45707949524075" fill="none" stroke="black" stroke-weight="1"></path><path id="SvgjsPath3359" d="M 88.8198288580728 141.48737010075183 C 88.8198288580728 141.48737010075183 140.0309359705066 29.927886197431235 283.413459780632 204.19270014828277" fill="none" stroke="black" stroke-weight="1"></path><path id="SvgjsPath3360" d="M 87.49321953870373 140.40073578824607 C 87.49321953870373 140.40073578824607 138.87745557034157 32.51560059406191 280.53822156215347 210.79286727396678" fill="none" stroke="black" stroke-weight="1"></path><path id="SvgjsPath3361" d="M 86.1839728119898 139.3201007034031 C 86.1839728119898 139.3201007034031 137.77366025266014 35.396964804514965 277.3367057727611 217.24108389177908" fill="none" stroke="black" stroke-weight="1"></path><path id="SvgjsPath3362" d="M 84.89245234915887 138.2461402079748 C 84.89245234915887 138.2461402079748 136.72477257531472 38.56477691884987 273.81691453461116 223.52123281834162" fill="none" stroke="black" stroke-weight="1"></path><path id="SvgjsPath3363" d="M 83.61901689759063 137.17952549231188 C 83.61901689759063 137.17952549231188 135.7358626388459 42.01111905654538 269.9876454927273 229.61761695197606" fill="none" stroke="black" stroke-weight="1"></path><path id="SvgjsPath3364" d="M 82.36402018116678 136.12092315589177 C 82.36402018116678 136.12092315589177 134.81183388368393 45.7273771570775 265.8584698254695 235.51499850728388" fill="none" stroke="black" stroke-weight="1"></path><path id="SvgjsPath3365" d="M 81.1278108020167 135.07099479071582 C 81.1278108020167 135.07099479071582 133.95740931438013 49.70426251058457 261.43970832157265 241.19863710167385" fill="none" stroke="black" stroke-weight="1"></path><path id="SvgjsPath3366" d="M 79.91073214368579 134.0303965678355 C 79.91073214368579 134.0303965678355 133.17711818624994 53.93183497480497 256.74240558355007 246.65432659864177" fill="none" stroke="black" stroke-weight="1"></path><path id="SvgjsPath3367" d="M 78.71312227575343 132.9997788272673 C 78.71312227575343 132.9997788272673 132.47528318864732 58.39952782025502 251.77830242193875 251.8684306157132" fill="none" stroke="black" stroke-weight="1"></path><path id="SvgjsPath3368" d="M 77.53531385992669 131.97978567155099 C 77.53531385992669 131.97978567155099 131.8560081578396 63.096174141550875 246.5598065093879 256.82791660829844" fill="none" stroke="black" stroke-weight="1"></path><path id="SvgjsPath3369" d="M 76.3776340576367 130.97105456320662 C 76.3776340576367 130.97105456320662 131.32316635112176 68.01003476885525 241.0999613679387 261.5203884442665" fill="none" stroke="black" stroke-weight="1"></path><path id="SvgjsPath3370" d="M 75.24040443916249 129.97421592634134 C 75.24040443916249 129.97421592634134 130.88038931239583 73.12882760968887 235.41241376701237 265.93411738781936" fill="none" stroke="black" stroke-weight="1"></path><path id="SvgjsPath3371" d="M 74.12394089430785 128.9898927526547 C 74.12394089430785 128.9898927526547 130.53105635795424 78.43975834776576 229.5113796135936 270.05807141522394" fill="none" stroke="black" stroke-weight="1"></path><path id="SvgjsPath3372" d="M 73.0285535446565 128.01870021208913 C 73.0285535446565 128.01870021208913 130.27828470964528 83.92955242211961 223.41160841986698 273.88194278912533" fill="none" stroke="black" stroke-weight="1"></path><path id="SvgjsPath3373" d="M 71.95454665742889 127.06124526836882 C 71.95454665742889 127.06124526836882 130.12492030097036 89.58448820659444 217.12834643711727 277.3961738225225" fill="none" stroke="black" stroke-weight="1"></path><path id="SvgjsPath3374" d="M 70.9022185609656 126.11812629966705 C 70.9022185609656 126.11812629966705 130.07352927996945 95.39043130676248 210.67729854804168 280.59198076800817" fill="none" stroke="black" stroke-weight="1"></path><path id="SvgjsPath3375" d="M 69.8718615618603 125.18993272463946 C 69.8718615618603 125.18993272463946 130.12639023099777 101.33286988855002 204.0745890127223 283.46137577256263" fill="none" stroke="black" stroke-weight="1"></path><path id="SvgjsPath3376" d="M 68.86376186376536 124.27724463405643 C 68.86376186376536 124.27724463405643 130.2854871356883 107.39695095026457 197.33672116637268 285.9971868430266" fill="none" stroke="black" stroke-weight="1"></path><path id="SvgjsPath3377" d="M 67.87819948789267 123.38063242826527 C 67.87819948789267 123.38063242826527 130.55250309153308 113.56751744736441 190.48053616959498 288.1930757723487" fill="none" stroke="black" stroke-weight="1"></path><path id="SvgjsPath3378" d="M 66.91544819523163 122.50065646070863 C 66.91544819523163 122.50065646070863 130.92881480461085 119.82914617717593 183.52317091424896 290.0435539818026" fill="none" stroke="black" stroke-weight="1"></path><path id="SvgjsPath3379" d="M 65.97577541050643 121.63786668772177 C 65.97577541050643 121.63786668772177 131.41548787103832 126.16618632886758 176.4820151901471 291.543996239575" fill="none" stroke="black" stroke-weight="1"></path><path id="SvgjsPath3380" d="M 65.05944214789301 120.79280232482779 C 65.05944214789301 120.79280232482779 132.01327285973827 132.56279860232686 169.37466821963693 292.69065222143666" fill="none" stroke="black" stroke-weight="1"></path><path id="SvgjsPath3381" d="M 64.16670293851674 119.96599150974546 C 64.16670293851674 119.96599150974546 132.72260220709813 139.00299479816115 162.2188946687098 293.4806558845999" fill="none" stroke="black" stroke-weight="1"></path><path id="SvgjsPath3382" d="M 63.297805759750986 119.15795097232036 C 63.297805759750986 119.15795097232036 133.54358793204977 145.4706777798707 155.03258024458813 293.91203263133275" fill="none" stroke="black" stroke-weight="1"></path><path id="SvgjsPath3383" d="M 62.45299196633624 118.36918571158554 C 62.45299196633624 118.36918571158554 134.47602017803388 151.94968170830487 147.8336869907722 293.983704244425" fill="none" stroke="black" stroke-weight="1"></path><path id="SvgjsPath3384" d="M 61.63249622333856 117.60018868015354 C 61.63249622333856 117.60018868015354 135.51936658622932 158.42381244784315 140.64020839128537 293.6954915821698" fill="none" stroke="black" stroke-weight="1"></path><path id="SvgjsPath3385" d="M 60.83654644096629 116.85144047613704 C 60.83654644096629 116.85144047613704 136.67277250233394 164.87688804329855 133.47012439633505 293.04811502612455" fill="none" stroke="black" stroke-weight="1"></path><path id="SvgjsPath3386" d="M 60.06536371126326 116.12340904279075 C 60.06536371126326 116.12340904279075 137.93506201708195 171.29277916637898 126.34135648180113 292.0431926805322" fill="none" stroke="black" stroke-weight="1"></path><path id="SvgjsPath3387" d="M 59.31916224669574 115.41654937606211 C 59.31916224669574 115.41654937606211 139.30473983858238 177.65544943060848 119.27172285487944 290.68323632790316" fill="none" stroke="black" stroke-weight="1"></path><path id="SvgjsPath3388" d="M 58.59814932065021 114.73130324023349 C 58.59814932065021 114.73130324023349 140.779993992465 183.94899547394135 112.27889391784295 288.9716451508676" fill="none" stroke="black" stroke-weight="1"></path><path id="SvgjsPath3389" d="M 57.90252520985895 114.06809889183407 C 57.90252520985895 114.06809889183407 142.35869934373312 190.1576867088844 105.38034810123955 286.91269723598845" fill="none" stroke="black" stroke-weight="1"></path><path id="SvgjsPath3390" d="M 57.2324831387688 113.42735081199342 C 57.2324831387688 113.42735081199342 144.03842193215024 196.26600464077399 98.5933281769178 284.5115388807738" fill="none" stroke="black" stroke-weight="1"></path><path id="SvgjsPath3391" d="M 56.588209225868894 112.80945944740415 C 56.588209225868894 112.80945944740415 145.81642411093418 202.25868165593107 91.93479816007658 281.77417173061247" fill="none" stroke="black" stroke-weight="1"></path><path id="SvgjsPath3392" d="M 55.96988243199233 112.21481096005589 C 55.96988243199233 112.21481096005589 147.68967047650534 208.12073918274382 85.42140090806241 278.70743777778654" fill="none" stroke="black" stroke-weight="1"></path><path id="SvgjsPath3393" d="M 55.3776745106061 111.64377698589658 C 55.3776745106061 111.64377698589658 149.65483457503797 213.83752513029555 79.06941652189381 275.31900226005394" fill="none" stroke="black" stroke-weight="1"></path><path id="SvgjsPath3394" d="M 54.81174996010266 111.09671440257216 C 54.81174996010266 111.09671440257216 151.70830636960272 219.39475051096173 72.89472165448693 271.6173345015461" fill="none" stroke="black" stroke-weight="1"></path><path id="SvgjsPath3395" d="M 54.27226597810716 110.5739651063895 C 54.27226597810716 110.5739651063895 153.84620044976504 224.778525155438 66.91274982729111 267.6116867438678" fill="none" stroke="black" stroke-weight="1"></path><path id="SvgjsPath3396" d="M 53.75937241781236 110.07585579864252 C 53.75937241781236 110.07585579864252 156.06436496362858 229.97539243092888 61.138452854523464 263.31207102031203" fill="none" stroke="black" stroke-weight="1"></path><path id="SvgjsPath3397" d="M 53.27321174635385 109.60269778143436 C 53.27321174635385 109.60269778143436 158.35839125048506 234.97236287572167 55.58626347142035 258.72923413099136" fill="none" stroke="black" stroke-weight="1"></path><path id="SvgjsPath3398" d="M 52.81391900523653 109.1547867631239 C 52.81391900523653 109.1547867631239 160.72362415046024 239.75694666607612 50.27005925991541 253.8746307814339" fill="none" stroke="black" stroke-weight="1"></path><path id="SvgjsPath3399" d="M 52.381621772824175 108.73240267351738 C 52.381621772824175 108.73240267351738 163.15517296582982 244.31718483427957 45.20312796191158 248.7603949517848" fill="none" stroke="black" stroke-weight="1"></path><path id="SvgjsPath3400" d="M 51.97644012890164 108.33580948892163 C 51.97644012890164 108.33580948892163 165.6479230470295 248.6416791598378 40.39813426684687 243.39930956817545" fill="none" stroke="black" stroke-weight="1"></path><path id="SvgjsPath3401" d="M 51.598486621320276 107.96525506716736 C 51.598486621320276 107.96525506716736 168.19654797479882 252.71962065908988 35.86708815656678 237.8047745520658" fill="none" stroke="black" stroke-weight="1"></path><path id="SvgjsPath3402" d="M 51.2478662347353 107.62097099270609 C 51.2478662347353 107.62097099270609 170.7955223083862 256.5408166020384 31.621314886624006 231.99077332741882" fill="none" stroke="black" stroke-weight="1"></path><path id="SvgjsPath3403" d="M 50.92467636144404 107.30317243187744 C 50.92467636144404 107.30317243187744 173.4391348683048 260.0957159888665 27.671426679037197 225.97183786942253" fill="none" stroke="black" stroke-weight="1"></path><path id="SvgjsPath3404" d="M 50.62900677433322 107.01205799843713 C 50.62900677433322 107.01205799843713 176.12150252076762 263.37543342246306 24.027296197263226 219.76301238212085" fill="none" stroke="black" stroke-weight="1"></path><path id="SvgjsPath3405" d="M 50.36093960194252 106.74780962942987 C 50.36093960194252 106.74780962942987 178.83658442965637 266.3717713172878 20.69803186968022 213.37981569573836" fill="none" stroke="black" stroke-weight="1"></path><path id="SvgjsPath3406" d="M 50.12054930565172 106.51059247148467 C 50.12054930565172 106.51059247148467 181.57819674068344 269.0772403890661 17.691955123259845 206.8382024776867" fill="none" stroke="black" stroke-weight="1"></path><path id="SvgjsPath3407" d="M 49.90790265899746 106.30055477760345 C 49.90790265899746 106.30055477760345 184.34002766130425 271.4850783740998 15.016579584333556 200.15452335420446" fill="none" stroke="black" stroke-weight="1"></path><path id="SvgjsPath3408" d="M 49.72305872912533 106.11782781450788 C 49.72305872912533 106.11782781450788 187.1156528989225 273.58926693140404 12.678592298439924 193.34548404230728" fill="none" stroke="black" stroke-weight="1"></path><path id="SvgjsPath3409" d="M 49.5660688603829 105.96252578060188 C 49.5660688603829 105.96252578060188 189.89855141901202 275.3845466854258 10.683837016193564 186.42810359419605" fill="none" stroke="black" stroke-weight="1"></path><path id="SvgjsPath3410" d="M 49.43697666005758 105.83474573460133 C 49.43697666005758 105.83474573460133 192.68212148395682 276.8664303717435 9.037299586951661 179.41967185848918" fill="none" stroke="black" stroke-weight="1"></path><path id="SvgjsPath3411" d="M 49.335817986263876 105.73456753487557 C 49.335817986263876 105.73456753487557 195.4596969326812 278.0312140528916 7.743095496787134 172.33770626460503" fill="none" stroke="black" stroke-weight="1"></path><path id="SvgjsPath3412" d="M 49.26262093798289 105.66205378953848 C 49.26262093798289 105.66205378953848 198.22456366051875 278.8759863762748 6.804459581916916 165.19990803831163" fill="none" stroke="black" stroke-weight="1"></path><path id="SvgjsPath3413" d="M 49.21740584725744 105.6172498173205 C 49.21740584725744 105.6172498173205 200.96997625824247 279.39863585103353 6.223737943296072 158.02411795788154" fill="none" stroke="black" stroke-weight="1"></path><path id="SvgjsPath3414" d="M 49.200185273544164 105.6001836192458 C 49.200185273544164 105.6001836192458 203.68917476875683 279.5978561256715 6.002382082587189 150.82827176143687" fill="none" stroke="black" stroke-weight="1"></path><path id="SvgjsPath3415" d="M 49.210964000225076 105.61086586113262 C 49.210964000225076 105.61086586113262 206.37540151963327 279.47314925325406 6.140945274162135 143.6303553169442" fill="none" stroke="black" stroke-weight="1"></path><path id="SvgjsPath3416" d="M 49.24973903327873 105.64928986692757 C 49.24973903327873 105.64928986692757 209.02191798945552 279.02482693601615 6.639081182204251 136.44835966691207" fill="none" stroke="black" stroke-weight="1"></path><path id="SvgjsPath3417" d="M 49.31649960211192 105.71543162287779 C 49.31649960211192 105.71543162287779 211.6220216658338 278.25400974626916 7.495544726367655 129.30023606015482" fill="none" stroke="black" stroke-weight="1"></path><path id="SvgjsPath3418" d="M 49.411227162551455 105.80924979253874 C 49.411227162551455 105.80924979253874 214.1690628529425 277.1626243255535 8.708195193829454 122.20385108301875" fill="none" stroke="black" stroke-weight="1"></path><path id="SvgjsPath3419" d="M 49.533895401995224 105.93068574260835 C 49.533895401995224 105.93068574260835 216.65646138653548 275.75339856903855 10.27400158995718 115.17694200222063" fill="none" stroke="black" stroke-weight="1"></path><path id="SvgjsPath3420" d="M 49.68447024672099 106.07966357957073 C 49.68447024672099 106.07966357957073 219.07772321460325 274.0298548072049 12.189050214216792 108.23707243091869" fill="none" stroke="black" stroke-weight="1"></path><path id="SvgjsPath3421" d="M 49.86290987135122 106.25609019712721 C 49.86290987135122 106.25609019712721 221.4264568021432 271.99630100185294 14.448554442385614 101.40158842882721" fill="none" stroke="black" stroke-weight="1"></path><path id="SvgjsPath3422" d="M 50.06916471047087 106.45985533438474 C 50.06916471047087 106.45985533438474 223.6963893189336 269.6578199784418 17.04686669062019 94.68757514610041" fill="none" stroke="black" stroke-weight="1"></path><path id="SvgjsPath3423" d="M 50.30317747239529 106.69083164476541 C 50.30317747239529 106.69083164476541 225.8813825697166 267.0202567216726 19.97749253147495 88.11181411935439" fill="none" stroke="black" stroke-weight="1"></path><path id="SvgjsPath3424" d="M 50.56488315508422 106.9488747755938 C 50.56488315508422 106.9488747755938 227.9754486268157 264.09020376607066 23.233106926588192 81.69074132656559" fill="none" stroke="black" stroke-weight="1"></path><path id="SvgjsPath3425" d="M 50.854209064197406 107.23382345831283 C 50.854209064197406 107.23382345831283 229.97276512593317 260.87498471808306 26.805572535463284 75.44040610568615" fill="none" stroke="black" stroke-weight="1"></path><path id="SvgjsPath3426" d="M 51.171074833287165 107.54549960927127 C 51.171074833287165 107.54549960927127 231.86769018669065 257.3826359508762 30.685960054582054 69.37643103965685" fill="none" stroke="black" stroke-weight="1"></path><path id="SvgjsPath3427" d="M 51.51539244612171 107.88370844102027 C 51.51539244612171 107.88370844102027 233.65477692038928 253.62188651758782 34.86457053601352 63.513972908085364" fill="none" stroke="black" stroke-weight="1"></path><path id="SvgjsPath3428" d="M 51.88706626113367 108.24823858404918 C 51.88706626113367 108.24823858404918 235.3287874884732 249.6021363332407 39.330959629732575 57.86768480319124" fill="none" stroke="black" stroke-weight="1"></path><path id="SvgjsPath3429" d="M 52.285993037986515 108.63886221888453 C 52.285993037986515 108.63886221888453 236.88470667628073 245.33343267985032 44.07396368905523 52.451679504706945" fill="none" stroke="black" stroke-weight="1"></path><path id="SvgjsPath3430" d="M 52.71206196625177 109.05533521846993 C 52.71206196625177 109.05533521846993 238.31775494785467 240.82644509345238 49.0817276739418 47.27949420527783" fill="none" stroke="black" stroke-weight="1"></path><path id="SvgjsPath3431" d="M 53.16515469618895 109.49739730073742 C 53.16515469618895 109.49739730073742 239.623400948857 236.0924386958191 54.341734782423245 42.364056674530204" fill="none" stroke="black" stroke-weight="1"></path><path id="SvgjsPath3432" d="M 53.64514537161982 109.96477219127533 C 53.64514537161982 109.96477219127533 240.79737342598872 231.1432460375214 59.84083773608734 37.717652946380454" fill="none" stroke="black" stroke-weight="1"></path><path id="SvgjsPath3433" d="M 54.151900664887506 110.45716779599076 C 54.151900664887506 110.45716779599076 241.83567253275208 225.99123752271552 65.56529164142721 33.3518966103488" fill="none" stroke="black" stroke-weight="1"></path><path id="SvgjsPath3434" d="M 54.68527981389123 110.97427638365892 C 54.68527981389123 110.97427638365892 242.7345804929036 220.64929048957453 71.50078834491723 29.277699783633537" fill="none" stroke="black" stroke-weight="1"></path><path id="SvgjsPath3435" d="M 55.24513466118583 111.51577477824517 C 55.24513466118583 111.51577477824517 243.4906715945276 215.13075702364878 77.63249219594582 25.505245836500592" fill="none" stroke="black" stroke-weight="1"></path><path id="SvgjsPath3436" d="M 55.83130969513586 112.08132456087941 C 55.83130969513586 112.08132456087941 244.10082148931238 209.44943058460632 83.94507712821523 22.043963939161642" fill="none" stroke="black" stroke-weight="1"></path><path id="SvgjsPath3437" d="M 56.443642093112075 112.67057228135695 C 56.443642093112075 112.67057228135695 244.56221577332502 203.61951152976724 90.42276496692531 18.902505493759435" fill="none" stroke="black" stroke-weight="1"></path><path id="SvgjsPath3438" d="M 57.08196176671896 113.28314967903329 C 57.08196176671896 113.28314967903329 244.87235782735544 197.65557162060577 97.04936486599362 16.088722510367603" fill="none" stroke="black" stroke-weight="1"></path><path id="SvgjsPath3439" d="M 57.74609140904049 113.91867391297515 C 57.74609140904049 113.91867391297515 245.0290758967293 191.5725176009347 103.80831377673925 13.609647981054678" fill="none" stroke="black" stroke-weight="1"></path><path id="SvgjsPath3440" d="M 58.435846543890804 114.57674780122358 C 58.435846543890804 114.57674780122358 245.03052939236858 185.3855539378097 110.68271784687812 11.47147830106681" fill="none" stroke="black" stroke-weight="1"></path><path id="SvgjsPath3441" d="M 59.15103557705643 115.25696006901958 C 59.15103557705643 115.25696006901958 244.87521439680583 179.11014481828045 117.65539464635509 9.67955778106682" fill="none" stroke="black" stroke-weight="1"></path><path id="SvgjsPath3442" d="M 59.89145984951571 115.95888560583768 C 59.89145984951571 115.95888560583768 244.56196836082376 172.76197549697605 124.70891611447107 8.238365289140603" fill="none" stroke="black" stroke-weight="1"></path><path id="SvgjsPath3443" d="M 60.656913692620506 116.682085731066 C 60.656913692620506 116.682085731066 244.08997397839443 166.3569130911369 131.825652120959 7.151503055959353" fill="none" stroke="black" stroke-weight="1"></path><path id="SvgjsPath3444" d="M 61.44718448522522 117.42610846816751 C 61.44718448522522 117.42610846816751 243.45876222962812 159.91096692108536 138.9878145321274 6.42168767107907" fill="none" stroke="black" stroke-weight="1"></path><path id="SvgjsPath3445" d="M 62.26205271274658 118.19048882715049 C 62.26205271274658 118.19048882715049 242.66821458349995 153.4402484952629 146.17750167193014 6.050743292881492" fill="none" stroke="black" stroke-weight="1"></path><path id="SvgjsPath3446" d="M 63.1012920281388 118.97474909517217 C 63.1012920281388 118.97474909517217 241.71856435420543 146.9609312398493 153.37674306683414 6.039597089128051" fill="none" stroke="black" stroke-weight="1"></path><path id="SvgjsPath3447" d="M 63.964669314766084 119.77839913509385 C 63.964669314766084 119.77839913509385 240.61039720709167 140.48921007361963 160.56754436264487 6.388276919523264" fill="none" stroke="black" stroke-weight="1"></path><path id="SvgjsPath3448" d="M 64.85194475115595 120.60093669180057 C 64.85194475115595 120.60093669180057 239.34465081221927 134.04126092908206 167.73193230101995 7.0959112660801225" fill="none" stroke="black" stroke-weight="1"></path><path id="SvgjsPath3449" d="M 65.76287187761447 121.44184770609408 C 65.76287187761447 121.44184770609408 237.92261364572283 127.63320032107114 174.85199964325432 8.160731411461057" fill="none" stroke="black" stroke-weight="1"></path><path id="SvgjsPath3450" d="M 66.69719766468604 122.30060663596326 C 66.69719766468604 122.30060663596326 236.3459229412495 121.28104506385367 181.9099499290515 9.580075859850211" fill="none" stroke="black" stroke-weight="1"></path><path id="SvgjsPath3451" d="M 67.65466258343746 123.17667678503079 C 67.65466258343746 123.17667678503079 234.61656179586436 115.00067223743397 188.88814195840672 11.350396989306859" fill="none" stroke="black" stroke-weight="1"></path><path id="SvgjsPath3452" d="M 68.63500067754784 124.06951063797085 C 68.63500067754784 124.06951063797085 232.7368554369071 108.8077795031229 195.76913388541902 13.46726991897296" fill="none" stroke="black" stroke-weight="1"></path><path id="SvgjsPath3453" d="M 69.63793963718344 124.97855020268831 C 69.63793963718344 124.97855020268831 230.70946665836658 102.71784586756031 202.5357268138219 15.925403568970324" fill="none" stroke="black" stroke-weight="1"></path><path id="SvgjsPath3454" d="M 70.6632008746377 125.9032273590457 C 70.6632008746377 125.9032273590457 228.53739043739944 96.74609299325917 209.1710077852676 18.718653885345162" fill="none" stroke="black" stroke-weight="1"></path><path id="SvgjsPath3455" d="M 71.71049960171482 126.84296421391988 C 71.71049960171482 126.84296421391988 226.22394774365364 90.90744715237625 215.6583920529153 21.84003919700322" fill="none" stroke="black" stroke-weight="1"></path><path id="SvgjsPath3456" d="M 72.77954490883589 127.79717346236636 C 72.77954490883589 127.79717346236636 223.77277855606144 85.21650191880558 221.9816645346605 25.281757666251565" fill="none" stroke="black" stroke-weight="1"></path><path id="SvgjsPath3457" d="M 73.87003984584506 128.76525875466564 C 73.87003984584506 128.76525875466564 221.1878341037325 79.68748169184428 228.12502034239526 29.035206789329294" fill="none" stroke="black" stroke-weight="1"></path><path id="SvgjsPath3458" d="M 74.9816815044939 129.74661506902254 C 74.9816815044939 129.74661506902254 218.4733683495038 74.33420614260191 234.07310428599789 33.09100489818705" fill="none" stroke="black" stroke-weight="1"></path><path id="SvgjsPath3459" d="M 76.11416110258064 130.74062908968517 C 76.11416110258064 130.74062908968517 215.63392873658336 69.17005567201936 239.8110492533118 37.43901460977166" fill="none" stroke="black" stroke-weight="1"></path><path id="SvgjsPath3460" d="M 77.26716406972099 131.74667959024723 C 77.26716406972099 131.74667959024723 212.67434622055526 64.20793796683533 245.32451337018298 42.06836816420403" fill="none" stroke="black" stroke-weight="1"></path><path id="SvgjsPath3461" d="M 78.4403701347267 132.7641378218941 C 78.4403701347267 132.7641378218941 209.59972461078564 59.46025573709203 250.59971584767555 46.96749458851862" fill="none" stroke="black" stroke-weight="1"></path><path id="SvgjsPath3462" d="M 79.63345341456791 133.79236790635076 C 79.63345341456791 133.79236790635076 206.41542924698626 54.93887571581884 255.62347142686798 52.12414861807022" fill="none" stroke="black" stroke-weight="1"></path><path id="SvgjsPath3463" d="M 80.84608250489389 134.83072723328473 C 80.84608250489389 134.83072723328473 203.12707503834167 50.6550989983796 260.3832233351338 57.52544130331859" fill="none" stroke="black" stroke-weight="1"></path><path id="SvgjsPath3464" d="M 82.0779205720879 135.8785668619168 C 82.0779205720879 135.8785668619168 199.74051389419122 46.61963279561998 264.8670746715334 63.15787222548968" fill="none" stroke="black" stroke-weight="1"></path><path id="SvgjsPath3465" d="M 83.32862544682972 136.93523192658768 C 83.32862544682972 136.93523192658768 196.26182157676627 42.842563671416855 269.06381814287016 69.00736324059118" fill="none" stroke="black" stroke-weight="1"></path><metadata>84 * Math.cos(t/3);37 * Math.sin(t/2);45 * Math.sin(t/1)+45 * Math.cos(t/2);54 * Math.cos(t/1)+54 * Math.cos(t/1)</metadata></svg>